<?xml version="1.0" standalone="no"?>
<!DOCTYPE svg PUBLIC "-//W3C//DTD SVG 20010904//EN"
 "http://www.w3.org/TR/2001/REC-SVG-20010904/DTD/svg10.dtd">
<svg version="1.0" xmlns="http://www.w3.org/2000/svg"
 width="720.000000pt" height="720.000000pt" viewBox="0 0 720.000000 720.000000"
 preserveAspectRatio="xMidYMid meet">
<metadata>
Created by potrace 1.16, written by Peter Selinger 2001-2019
</metadata>
<g transform="translate(0.000000,720.000000) scale(0.100000,-0.100000)"
fill="#000000" stroke="none">
<path d="M679 6975 c0 -124 -1 -261 -1 -305 0 -44 1 -105 1 -135 l1 -55 105 0
c103 0 105 0 111 25 3 14 3 36 0 49 -5 22 -12 25 -59 28 l-52 3 -2 150 c-1 83
-2 221 -2 308 l-1 157 -50 0 -50 0 -1 -225z"/>
<path d="M1810 6840 l0 -360 49 0 c39 0 51 4 55 18 7 21 6 660 -1 685 -3 13
-15 17 -54 17 l-49 0 0 -360z"/>
<path d="M435 6952 c-111 -37 -116 -184 -8 -252 75 -46 103 -71 103 -89 0 -42
-51 -54 -93 -21 -33 26 -49 25 -77 -5 -20 -22 -22 -28 -11 -48 21 -40 69 -61
136 -61 106 0 155 45 155 142 0 62 -19 88 -111 147 -55 36 -69 50 -69 70 0 35
43 45 74 16 29 -27 38 -26 64 4 31 36 28 62 -10 85 -33 20 -109 26 -153 12z"/>
<path d="M2519 6937 c-135 -71 -161 -295 -46 -407 42 -41 116 -64 181 -56 101
12 173 93 183 206 l6 60 -111 0 c-108 0 -110 0 -116 -24 -3 -14 -2 -36 4 -50
7 -20 17 -25 51 -28 l41 -3 -18 -23 c-26 -31 -86 -40 -119 -18 -81 53 -85 193
-8 243 35 23 99 20 127 -6 26 -25 53 -27 84 -5 31 22 28 57 -8 88 -61 51 -177
62 -251 23z"/>
<path d="M922 6718 l3 -233 117 -3 117 -3 7 26 c3 14 3 36 0 50 -6 23 -10 25
-71 25 l-65 0 0 45 0 45 65 0 64 0 7 35 c11 58 3 65 -71 65 l-65 0 0 46 0 46
64 -7 63 -7 6 37 c10 64 8 65 -124 65 l-119 0 2 -232z"/>
<path d="M1212 6718 l3 -233 120 0 120 0 3 48 3 47 -70 0 -71 0 0 45 0 44 68
3 67 3 3 48 3 47 -70 0 -71 0 0 40 0 40 54 0 c79 0 86 5 86 56 l0 44 -125 0
-125 0 2 -232z"/>
<path d="M1507 6943 c-9 -8 -9 -426 -1 -447 4 -12 20 -16 55 -16 l49 0 0 90 0
90 30 0 c43 0 102 27 123 56 28 38 33 121 9 164 -28 52 -71 69 -173 70 -47 0
-89 -3 -92 -7z"/>
<path d="M1972 6718 l3 -233 44 -3 c24 -2 47 1 50 6 3 6 6 69 5 141 -1 150
-11 152 100 -14 92 -137 91 -135 148 -135 l48 0 0 235 0 235 -50 0 -50 0 -1
-37 c-1 -21 -2 -74 -3 -118 -2 -44 -3 -86 -4 -94 -2 -15 -38 31 -132 168 l-55
80 -53 1 -52 0 2 -232z"/>
<path d="M501 6343 c-46 -124 -46 -123 -28 -123 9 0 23 19 33 45 9 25 18 44
20 42 2 -2 -9 -39 -26 -83 -19 -52 -29 -70 -30 -53 0 15 -7 29 -15 33 -8 3
-15 11 -15 18 0 24 -44 118 -55 118 -6 0 -27 -44 -47 -97 l-36 -97 -16 32 c-9
17 -16 38 -16 47 0 8 -4 15 -10 15 -5 0 -10 7 -10 15 0 8 -7 15 -15 15 -8 0
-15 -7 -15 -15 0 -8 5 -15 10 -15 6 0 10 -7 10 -16 0 -29 45 -144 57 -144 11
0 53 76 53 95 0 5 7 29 16 52 16 41 17 42 28 21 6 -13 23 -58 36 -101 17 -53
29 -76 39 -75 14 3 111 235 111 266 0 18 -27 15 -39 -5 -9 -15 -10 -15 -11 -2
0 8 7 24 15 35 18 24 19 64 2 64 -7 0 -27 -39 -46 -87z"/>
<path d="M1213 6413 c-35 -7 -79 -57 -86 -97 -3 -20 0 -55 6 -78 11 -37 22
-49 77 -86 83 -54 102 -74 94 -95 -11 -28 -52 -32 -84 -8 -38 27 -61 26 -83
-5 -28 -38 -18 -66 33 -91 80 -41 187 -24 227 36 29 44 31 113 3 158 -11 18
-52 53 -90 78 -57 37 -71 50 -68 68 4 29 32 33 74 11 33 -18 34 -18 59 6 70
66 -29 129 -162 103z"/>
<path d="M2753 6405 c-48 -21 -75 -69 -70 -127 5 -63 26 -90 102 -139 76 -48
92 -70 69 -93 -21 -21 -54 -20 -84 4 -35 27 -55 25 -79 -9 -26 -37 -26 -43 2
-69 29 -27 106 -46 160 -38 67 10 102 37 117 90 23 83 -3 140 -85 187 -71 40
-102 74 -85 94 16 19 54 19 74 0 22 -22 42 -18 66 12 27 34 23 52 -19 80 -40
27 -117 31 -168 8z"/>
<path d="M1452 6178 l3 -233 50 0 50 0 0 230 0 230 -53 3 -52 3 2 -233z"/>
<path d="M1612 6178 l3 -233 50 0 50 0 5 77 5 78 40 -78 40 -77 58 -3 c52 -3
57 -1 57 18 0 12 -22 58 -49 104 l-48 82 29 17 c50 29 71 106 46 174 -19 53
-73 73 -191 73 l-97 0 2 -232z"/>
<path d="M1950 6175 l0 -235 121 0 120 0 -3 48 -3 47 -62 3 -63 3 0 44 0 45
65 0 65 0 0 50 0 50 -65 0 -65 0 0 40 0 40 65 0 65 0 0 50 0 50 -120 0 -120 0
0 -235z"/>
<path d="M2240 6175 l0 -235 50 0 c59 0 59 0 59 145 -1 55 0 106 0 114 1 7 16
-9 34 -35 19 -27 61 -87 93 -134 l60 -85 52 -3 52 -3 0 235 0 236 -50 0 -49 0
-3 -137 -3 -138 -94 138 -95 137 -53 0 -53 0 0 -235z"/>
<path d="M4128 6283 c-35 -54 -153 -231 -261 -393 -108 -162 -288 -434 -400
-603 l-204 -308 -47 51 c-27 28 -53 49 -60 47 -7 -3 -75 -110 -151 -238 -314
-528 -372 -626 -395 -666 l-24 -43 -142 0 -142 0 -134 -228 c-97 -166 -137
-227 -149 -224 -13 2 -18 -8 -23 -43 -4 -25 -20 -65 -35 -88 -15 -23 -37 -57
-48 -76 l-20 -33 -8 47 c-9 65 -14 75 -36 75 -24 0 -36 -44 -50 -185 -6 -60
-17 -123 -24 -140 -13 -28 -14 -21 -15 75 -1 180 -24 360 -45 360 -14 0 -27
-68 -30 -158 -1 -28 -5 -55 -8 -59 -11 -10 -8 -62 4 -85 8 -14 8 -23 0 -31
-21 -21 -12 -37 22 -37 30 -1 31 -2 13 -15 -15 -12 -17 -19 -9 -37 6 -13 6
-42 1 -72 -8 -53 -2 -107 14 -117 17 -11 -20 -38 -43 -32 -22 6 -22 6 -15
-101 4 -59 20 -261 36 -449 17 -188 35 -409 40 -492 13 -183 41 -338 87 -470
58 -169 180 -381 283 -495 22 -25 49 -54 58 -65 22 -24 137 -124 166 -144 12
-8 23 -18 26 -21 3 -3 28 -20 55 -38 28 -17 55 -36 61 -41 6 -5 37 -22 70 -37
32 -16 61 -31 64 -34 8 -8 53 -28 80 -36 14 -4 27 -10 30 -14 9 -13 253 -88
356 -109 177 -35 258 -50 339 -61 304 -40 395 -49 515 -55 74 -3 156 -8 183
-11 45 -4 47 -3 47 20 0 23 -112 369 -444 1366 l-135 405 394 195 c288 143
394 200 394 212 1 14 -137 239 -264 432 -13 20 -15 28 -6 25 18 -6 661 -462
661 -469 0 -3 -133 -94 -296 -203 -223 -150 -294 -203 -292 -217 3 -16 244
-266 884 -919 281 -287 373 -382 506 -520 73 -76 113 -111 128 -111 34 0 176
99 258 180 225 224 347 548 367 975 2 61 8 317 11 570 4 253 8 472 9 488 2 15
3 69 4 121 1 85 3 94 21 99 15 4 20 14 20 40 0 61 -30 399 -40 456 -6 30 -10
56 -10 58 0 2 -9 3 -19 3 -23 0 -30 -16 -38 -93 -5 -46 -10 -61 -25 -65 -19
-5 -26 -32 -8 -32 12 0 6 -80 -9 -108 -12 -22 -20 -89 -20 -174 -1 -44 -5 -58
-16 -58 -12 0 -13 21 -8 134 5 123 4 137 -14 167 -11 19 -47 84 -78 144 -57
108 -134 250 -386 715 -70 129 -134 236 -141 238 -7 1 -62 -29 -123 -67 l-109
-69 -13 25 c-7 14 -33 62 -57 107 -24 44 -85 160 -136 256 -51 96 -139 261
-195 365 -156 290 -178 330 -249 463 -36 68 -66 128 -66 134 0 6 -6 19 -14 27
-20 23 -116 210 -116 226 0 7 -4 15 -9 17 -10 3 -39 56 -178 320 -51 97 -84
148 -94 148 -10 0 -43 -41 -81 -97z m797 -2903 c-3 -52 -8 -113 -11 -135 -3
-22 -6 -75 -7 -119 -2 -62 -6 -81 -19 -90 -9 -5 -19 -8 -21 -6 -13 16 23 564
40 606 12 30 25 -149 18 -256z m726 208 c1 -143 7 -256 13 -266 3 -6 -2 -32
-12 -59 -19 -49 -26 -109 -14 -117 9 -5 8 -89 -2 -104 -4 -7 -14 -12 -23 -12
-14 0 -15 22 -9 193 10 308 19 407 37 407 5 0 9 -19 10 -42z"/>
<path d="M650 6330 c0 -16 7 -20 30 -20 l30 0 0 -120 c0 -115 1 -120 21 -120
18 0 20 5 18 38 -1 20 -1 74 0 120 l1 83 30 6 c17 3 30 12 30 19 0 11 -19 14
-80 14 -73 0 -80 -2 -80 -20z"/>
<path d="M824 6337 c-2 -7 -3 -69 -2 -137 3 -108 5 -125 20 -128 14 -3 18 7
20 64 l3 68 52 1 53 0 0 -67 0 -68 35 0 36 0 -3 138 -3 137 -30 0 c-29 0 -30
-2 -33 -52 l-3 -53 -55 0 -54 0 0 55 c0 43 -3 55 -15 55 -9 0 -18 -6 -21 -13z"/>
<path d="M668 5894 c-4 -3 -4 -30 -1 -60 5 -46 3 -54 -11 -54 -9 0 -16 8 -16
20 0 11 5 20 10 20 15 0 12 19 -5 37 -28 28 -45 9 -42 -47 2 -27 5 -52 8 -54
2 -2 25 -7 52 -11 l47 -7 0 41 c0 26 4 40 10 36 5 -3 9 -21 7 -38 -2 -26 2
-32 18 -32 14 0 21 8 23 26 4 38 -14 79 -37 79 -13 0 -21 8 -23 22 -3 22 -27
35 -40 22z"/>
<path d="M1924 5885 c-3 -8 -3 -19 1 -25 3 -5 -2 -10 -11 -10 -10 0 -26 -7
-36 -17 -17 -15 -18 -15 -18 0 0 14 -10 17 -51 17 -48 0 -51 -1 -45 -22 3 -13
6 -38 6 -57 l0 -33 48 7 c53 9 72 9 120 0 l32 -6 0 65 c0 35 -3 71 -6 80 -8
20 -33 21 -40 1z"/>
<path d="M2599 5898 c0 -2 -2 -36 -3 -75 -1 -53 3 -74 12 -78 29 -11 34 -5 28
29 -4 20 -2 37 4 41 6 4 10 -9 10 -34 0 -37 2 -41 25 -41 14 0 25 3 25 8 0 8
127 6 172 -2 44 -9 60 2 53 35 -6 25 -3 29 14 29 14 0 21 6 21 20 0 19 -6 20
-82 18 l-83 -3 -5 -30 c-4 -20 -11 -30 -25 -32 -16 -1 -16 -1 -2 3 18 6 21 21
11 48 -8 21 -63 21 -71 0 -5 -15 -7 -15 -15 0 -5 9 -20 16 -33 16 -20 0 -25 5
-25 25 0 16 -6 25 -15 25 -8 0 -15 -1 -16 -2z"/>
<path d="M553 5870 c5 -18 0 -20 -48 -20 -43 0 -54 -4 -58 -17 -4 -17 -5 -17
-6 0 -1 21 -41 23 -41 2 0 -28 29 -85 42 -85 8 0 19 5 26 12 9 9 12 9 12 0 0
-7 9 -12 20 -12 15 0 22 9 27 30 3 17 10 33 16 37 6 4 7 -7 3 -29 -5 -28 -3
-37 10 -42 31 -12 34 -5 33 69 -1 68 -3 75 -21 75 -15 0 -19 -5 -15 -20z"/>
<path d="M1186 5861 c-3 -4 -3 -31 1 -60 l6 -52 36 1 c20 1 46 -1 58 -5 23 -8
63 24 63 50 0 28 -40 58 -70 52 -16 -4 -35 0 -46 8 -22 16 -40 19 -48 6z"/>
<path d="M2397 5856 c-9 -23 5 -95 20 -108 11 -8 19 -9 31 -1 12 7 26 7 45 0
33 -11 52 2 62 44 9 37 -19 63 -61 56 -20 -3 -39 0 -51 8 -23 18 -39 19 -46 1z"/>
<path d="M810 5829 c-17 -30 -8 -62 22 -78 24 -14 28 -14 46 2 11 10 22 14 23
9 2 -6 33 -11 69 -13 l65 -4 -3 33 c-2 27 1 33 15 30 13 -2 17 -11 15 -31 -3
-25 -1 -27 31 -27 44 0 58 17 50 63 l-6 37 -73 0 -74 0 -1 -37 -2 -38 -6 35
c-5 32 -9 35 -41 35 -28 0 -35 -4 -40 -25 l-6 -25 -7 28 c-6 22 -13 27 -37 27
-19 0 -33 -7 -40 -21z"/>
<path d="M1382 5837 c-5 -6 -10 -27 -10 -45 -1 -27 4 -35 26 -43 19 -7 32 -7
45 0 12 8 23 8 38 1 24 -13 59 -4 59 16 0 8 -10 15 -22 15 -18 1 -19 2 -5 6
11 3 28 -5 42 -21 13 -14 30 -26 37 -26 23 0 41 18 35 33 -3 9 -1 17 6 20 9 3
9 10 0 30 -14 31 -52 37 -76 12 -11 -11 -17 -11 -19 -3 -6 17 -143 21 -156 5z"/>
<path d="M2023 5842 c-6 -4 -14 -19 -18 -34 -9 -36 26 -72 61 -64 17 5 24 2
24 -9 0 -18 43 -20 57 -2 6 6 15 26 21 42 6 17 11 22 11 13 1 -10 12 -25 26
-34 30 -20 59 -11 52 15 -3 11 1 22 7 24 7 3 12 -4 12 -16 -1 -27 30 -35 37
-10 4 17 5 17 6 1 1 -19 26 -25 36 -9 3 6 3 28 -1 50 -6 36 -10 41 -33 41 -15
0 -32 -5 -39 -12 -8 -8 -15 -8 -24 0 -7 5 -34 10 -60 10 -35 0 -48 -4 -51 -16
-4 -16 -5 -16 -6 0 -1 13 -12 17 -54 17 -29 0 -58 -4 -64 -7z"/>
<path d="M37 5403 c-25 -4 -46 -27 -35 -38 2 -3 20 0 38 5 29 8 37 7 52 -10
18 -20 18 -20 -2 -20 -11 0 -29 6 -40 12 -16 11 -22 9 -34 -7 -12 -17 -15 -82
-16 -397 0 -345 1 -379 17 -398 10 -11 23 -20 30 -20 7 0 13 -4 13 -10 0 -14
101 -12 128 3 13 8 41 12 63 10 21 -2 39 1 39 6 0 5 9 7 20 4 14 -4 20 0 20
11 0 9 5 16 10 16 6 0 10 -7 10 -15 0 -8 7 -15 15 -15 8 0 15 5 15 11 0 6 7
17 16 26 11 12 18 13 27 4 6 -6 17 -11 24 -11 19 0 16 27 -4 39 -17 10 -17 10
0 11 9 0 17 -4 17 -10 0 -5 7 -10 15 -10 8 0 15 4 15 8 0 10 73 8 108 -3 16
-6 22 -3 22 9 0 9 6 16 13 15 18 -1 54 -17 40 -18 -18 -1 -16 -31 2 -31 8 0
15 5 15 11 0 20 40 47 60 42 11 -3 20 0 20 6 0 10 57 8 128 -5 26 -5 36 -2 51
15 23 26 25 26 55 -4 14 -14 30 -25 36 -25 17 0 11 21 -10 40 -19 16 -19 19
-5 33 8 9 15 20 15 26 0 17 -21 13 -39 -8 -12 -14 -22 -17 -32 -10 -12 7 -11
9 2 9 19 0 29 20 29 56 0 15 -6 24 -15 24 -8 0 -15 -5 -15 -11 0 -6 -6 -9 -12
-6 -7 2 -12 14 -10 25 4 29 -21 29 -41 0 -14 -20 -16 -20 -16 -5 -1 10 6 20
14 23 26 10 17 32 -17 42 -18 6 -59 11 -90 12 -43 1 -57 -3 -60 -14 -2 -11 -7
-13 -18 -6 -11 7 -12 12 -4 18 7 4 14 18 16 32 2 21 8 25 33 23 29 -2 45 10
45 35 0 6 -7 12 -15 12 -8 0 -15 -5 -15 -11 0 -5 -4 -7 -10 -4 -15 9 -12 25 5
25 8 0 15 5 15 10 0 6 6 10 13 10 21 0 35 14 42 40 5 22 2 27 -28 38 -46 17
-65 15 -70 -5 -4 -17 -5 -17 -6 0 0 9 -7 17 -15 17 -8 0 -17 14 -21 30 -4 17
-13 30 -22 30 -10 0 -14 -6 -10 -20 4 -15 0 -20 -14 -20 -10 0 -19 7 -19 15 0
8 -7 15 -15 15 -8 0 -15 -4 -15 -10 0 -5 -7 -10 -15 -10 -22 0 -18 16 10 44
26 26 32 46 15 46 -6 0 -22 -11 -36 -25 -14 -14 -27 -25 -29 -25 -2 0 -24 10
-47 22 -30 16 -58 22 -90 21 -27 -1 -48 2 -48 7 0 6 -14 10 -31 10 -18 0 -48
4 -68 10 -20 5 -49 12 -64 15 -21 4 -29 13 -34 37 -3 18 -14 33 -25 35 -30 8
-21 20 12 15 17 -2 30 -8 30 -13 0 -5 7 -9 15 -9 8 0 15 5 15 11 0 15 -39 49
-57 49 -7 0 -13 4 -13 9 0 8 -9 11 -65 24 -11 2 -33 2 -48 0z"/>
<path d="M6911 3860 c1 -84 4 -120 12 -120 9 0 9 -2 1 -8 -14 -9 -16 -72 -3
-72 6 0 9 -25 7 -60 -2 -42 -7 -60 -17 -60 -9 0 -11 -7 -7 -22 3 -13 6 -26 6
-30 0 -5 6 -8 14 -8 15 0 26 -42 26 -96 0 -24 5 -34 16 -34 13 0 14 19 9 153
-11 293 -30 477 -51 477 -10 0 -13 -27 -13 -120z"/>
<path d="M1566 3713 c-14 -123 -25 -346 -26 -520 l-1 -183 50 0 50 0 -4 118
c-2 64 -7 207 -10 317 -8 274 -13 325 -35 325 -14 0 -19 -12 -24 -57z"/>
<path d="M6424 3733 c3 -16 6 -53 7 -83 2 -75 8 -100 26 -100 13 0 14 -8 9
-42 -4 -24 -11 -105 -16 -180 -11 -162 -19 -218 -32 -235 -6 -7 -8 -19 -5 -28
4 -8 0 -21 -8 -29 -19 -18 -19 -35 -1 -42 7 -3 19 -23 26 -45 8 -22 21 -44 31
-50 10 -5 20 -22 24 -39 4 -17 13 -30 22 -30 22 0 8 49 -48 161 -6 13 -1 15
31 12 24 -2 40 2 42 10 5 14 -7 316 -17 451 -6 75 -10 89 -26 93 -11 3 -19 6
-20 7 0 0 -2 35 -5 76 -5 97 -11 120 -30 120 -12 0 -14 -7 -10 -27z"/>
<path d="M80 3710 c0 -5 -7 -10 -15 -10 -8 0 -15 -4 -15 -10 0 -5 -4 -10 -10
-10 -5 0 -10 7 -10 15 0 8 -7 15 -15 15 -13 0 -15 -29 -15 -205 0 -198 1 -205
20 -205 21 0 29 -33 10 -45 -6 -3 -10 -1 -10 4 0 6 -4 11 -9 11 -5 0 -9 -16
-9 -35 0 -19 4 -35 9 -35 5 0 9 4 9 8 0 5 11 14 25 20 18 9 25 19 25 41 0 24
4 28 19 24 10 -2 24 1 30 9 6 7 20 24 31 38 l20 25 -6 -41 c-5 -32 -3 -42 10
-47 9 -4 16 -16 16 -27 0 -11 5 -20 10 -20 6 0 5 -9 -2 -21 -10 -16 -10 -23
-1 -26 7 -3 9 -13 4 -31 -4 -15 -9 -48 -9 -74 -2 -39 2 -49 19 -58 42 -23 51
-7 45 82 -3 46 -8 148 -11 228 l-6 146 30 38 c16 20 36 51 43 67 7 16 16 29
20 29 5 0 8 11 8 25 0 14 5 25 10 25 6 0 10 7 10 15 0 21 -20 19 -41 -6 l-18
-21 -7 26 c-5 23 -34 38 -34 19 0 -5 -24 -9 -54 -10 -29 0 -64 -6 -76 -13 -15
-8 -20 -8 -16 -1 11 16 -3 51 -20 51 -8 0 -14 -4 -14 -10z"/>
<path d="M660 3638 c0 -13 -3 -75 -6 -138 -12 -217 -10 -271 8 -284 14 -10 15
-20 7 -61 -5 -28 -6 -51 -1 -53 4 -1 6 -17 4 -35 -3 -27 1 -35 23 -47 22 -12
28 -12 35 0 16 25 -10 523 -31 603 -11 41 -39 51 -39 15z"/>
<path d="M1073 3570 c-9 -36 -9 -58 -1 -81 12 -36 4 -142 -12 -147 -13 -5 -13
-32 0 -32 7 0 7 -6 0 -20 -13 -24 -3 -70 16 -70 14 0 18 -17 15 -52 -1 -10 3
-18 8 -18 6 0 11 -11 11 -25 0 -14 -4 -25 -10 -25 -5 0 -8 -17 -7 -37 2 -33 5
-38 30 -41 l27 -3 -5 68 c-2 37 -7 153 -10 258 -6 191 -18 275 -39 275 -6 0
-17 -22 -23 -50z"/>
<path d="M356 3551 c-11 -17 -35 -201 -45 -343 -16 -222 -24 -199 62 -196 l72
3 -3 85 c-5 139 -22 351 -33 408 -8 40 -15 52 -29 52 -10 0 -21 -4 -24 -9z"/>
<path d="M1295 3528 c-11 -71 -25 -280 -25 -395 l0 -123 47 0 46 0 -7 218 c-8
286 -13 332 -37 332 -13 0 -20 -10 -24 -32z"/>
<path d="M6796 3518 c-3 -24 -10 -135 -16 -248 -11 -192 -20 -272 -20 -167 0
33 -4 47 -14 47 -10 0 -15 -19 -18 -67 -3 -38 -5 -69 -4 -69 1 -1 24 -5 51 -8
82 -10 80 -17 78 231 -3 248 -10 316 -34 321 -13 2 -18 -8 -23 -40z"/>
<path d="M906 3438 c-9 -25 -25 -214 -28 -318 l-3 -105 49 -3 49 -3 -7 173
c-10 221 -16 262 -39 266 -9 2 -19 -2 -21 -10z"/>
<path d="M6586 3433 c-6 -19 -36 -350 -36 -395 0 -23 5 -27 41 -33 25 -4 45
-3 52 4 8 8 7 64 -1 203 -7 106 -15 203 -18 216 -7 26 -30 29 -38 5z"/>
<path d="M1444 3344 c-4 -24 0 -55 16 -102 12 -38 23 -98 25 -138 3 -77 8 -94
31 -94 11 0 14 8 9 33 -6 35 -11 96 -18 222 -5 93 -12 115 -38 115 -13 0 -20
-10 -25 -36z"/>
<path d="M531 3333 c-15 -52 -36 -286 -28 -306 5 -13 19 -17 58 -17 l52 0 -7
128 c-8 150 -23 225 -48 230 -12 2 -20 -7 -27 -35z"/>
</g>
</svg>
