<?xml version="1.0" standalone="no"?>
<!DOCTYPE svg PUBLIC "-//W3C//DTD SVG 20010904//EN"
 "http://www.w3.org/TR/2001/REC-SVG-20010904/DTD/svg10.dtd">
<svg version="1.0" xmlns="http://www.w3.org/2000/svg"
 width="720.000000pt" height="720.000000pt" viewBox="0 0 720.000000 720.000000"
 preserveAspectRatio="xMidYMid meet">
<metadata>
Created by potrace 1.16, written by Peter Selinger 2001-2019
</metadata>
<g transform="translate(0.000000,720.000000) scale(0.100000,-0.100000)"
fill="#000000" stroke="none">
<path d="M1 6888 c1 -214 5 -318 12 -331 9 -15 9 -21 0 -24 -10 -3 -13 -58
-13 -219 l1 -214 32 -1 c29 0 30 -1 9 -9 -24 -10 -30 -35 -10 -44 7 -3 3 -3
-10 0 -20 5 -22 2 -22 -31 0 -29 3 -36 15 -31 9 3 15 0 15 -8 0 -8 -7 -16 -15
-20 -22 -8 -21 -114 1 -123 8 -3 20 -1 27 6 17 17 27 13 27 -8 0 -23 -16 -37
-22 -20 -2 7 -13 9 -26 5 -17 -6 -22 -15 -22 -43 0 -30 3 -35 20 -30 11 3 18
1 14 -4 -3 -5 -11 -9 -19 -9 -12 0 -14 -122 -15 -790 0 -563 3 -790 10 -790 6
0 9 -8 6 -17 -16 -58 -16 -81 -2 -96 20 -19 20 -27 1 -27 -12 0 -14 -61 -15
-441 0 -400 1 -441 16 -435 8 3 18 6 20 6 2 0 4 7 4 15 0 20 26 19 34 -1 7
-19 -13 -41 -48 -50 -22 -5 -26 -11 -26 -44 0 -22 5 -42 10 -45 13 -8 13 -45
0 -45 -6 0 -10 -48 -10 -124 0 -97 3 -128 15 -140 15 -14 11 -46 -6 -46 -15 0
-11 -157 4 -163 9 -4 9 -6 0 -6 -15 -1 -18 -31 -3 -31 6 0 10 -7 10 -15 0 -8
-5 -15 -11 -15 -16 0 -7 -132 9 -138 17 -5 15 -52 -3 -58 -12 -5 -15 -31 -14
-144 0 -98 3 -140 12 -144 9 -5 9 -7 0 -12 -8 -3 -13 -26 -13 -61 0 -55 0 -55
27 -48 15 3 32 14 39 23 12 15 12 14 7 -5 -4 -17 -1 -23 10 -23 8 0 17 5 19
10 5 15 68 0 68 -16 0 -13 30 -34 48 -34 6 0 12 10 16 23 3 12 14 27 25 34 16
10 19 9 24 -12 3 -18 -1 -26 -14 -30 -11 -4 -19 -13 -19 -21 0 -8 -7 -14 -15
-14 -24 0 -17 -30 8 -31 16 -1 18 -2 4 -6 -9 -2 -17 -10 -17 -17 0 -10 14 -13
48 -11 63 3 62 3 62 20 0 11 -8 15 -27 13 -36 -4 -42 24 -11 56 39 42 48 55
48 68 0 8 5 6 11 -4 6 -11 22 -18 41 -18 l31 0 -7 -46 -6 -46 30 4 c17 3 30 1
30 -4 0 -4 7 -8 15 -8 21 0 19 30 -2 31 -14 0 -13 2 5 9 24 10 32 60 9 60 -8
0 -20 11 -27 25 -10 20 -11 27 0 40 7 8 10 21 7 30 -4 8 -2 17 3 20 6 4 10 -3
10 -14 0 -12 4 -21 9 -21 5 0 7 -9 4 -20 -4 -15 0 -20 16 -20 14 0 21 6 21 20
0 11 -5 20 -12 20 -17 0 12 27 32 31 8 2 43 0 78 -5 42 -5 62 -11 62 -21 0
-15 51 -55 70 -55 8 0 11 9 8 24 -6 29 21 40 71 30 20 -4 31 -2 31 5 0 6 5 11
11 11 14 0 39 -25 39 -39 0 -6 9 -11 19 -11 33 0 51 -11 51 -31 0 -10 -7 -19
-15 -19 -16 0 -20 -27 -7 -47 4 -6 27 -11 52 -10 45 2 45 2 57 47 11 43 11 44
12 11 1 -30 3 -33 26 -27 21 5 25 3 25 -15 0 -45 23 -99 42 -99 10 0 18 7 18
15 0 8 -4 15 -10 15 -5 0 -10 6 -10 14 0 9 7 12 20 9 11 -3 20 -9 20 -13 0 -4
14 -10 31 -14 26 -5 29 -8 19 -21 -15 -18 -6 -45 15 -45 15 0 21 -25 7 -34 -4
-2 -24 -7 -45 -11 -30 -6 -37 -4 -37 9 0 9 -7 16 -15 16 -8 0 -15 7 -15 15 0
18 -35 20 -56 3 -8 -7 -27 -25 -41 -40 -15 -16 -31 -28 -36 -28 -5 0 -15 -8
-22 -17 -11 -15 -13 -15 -19 5 -7 22 -36 31 -36 12 0 -5 -4 -10 -10 -10 -5 0
-10 6 -10 14 0 8 -7 16 -15 20 -30 11 -16 34 25 41 24 4 40 12 40 21 0 11 -12
12 -59 7 -58 -5 -60 -5 -54 16 3 11 11 21 18 21 8 0 13 15 13 40 1 28 -4 40
-13 40 -8 0 -17 -5 -20 -10 -10 -16 -35 -12 -35 6 0 12 -7 15 -25 12 -17 -4
-25 -1 -25 8 0 8 -7 14 -15 14 -8 0 -15 -7 -15 -15 0 -8 4 -15 9 -15 5 0 7 -9
4 -21 -4 -12 0 -25 8 -30 10 -6 6 -9 -13 -9 -35 0 -78 -20 -78 -35 0 -7 -16
-16 -35 -19 -27 -5 -35 -12 -35 -28 0 -15 5 -19 18 -16 14 4 17 -1 16 -21 -1
-14 -3 -40 -3 -58 -1 -27 -4 -30 -23 -25 -31 8 -76 32 -60 32 6 0 12 7 12 15
0 8 -7 15 -15 15 -8 0 -15 -7 -15 -15 0 -21 -12 -19 -33 5 -18 21 -47 27 -47
10 0 -5 -11 -10 -25 -10 -14 0 -25 -4 -25 -9 0 -5 -21 -11 -48 -14 -26 -3 -59
-8 -74 -12 -24 -6 -28 -4 -28 14 0 12 -6 21 -15 21 -8 0 -15 -5 -15 -11 0 -14
-26 -39 -40 -39 -7 0 -10 -8 -7 -20 3 -13 0 -20 -9 -20 -8 0 -14 -10 -14 -25
0 -14 -4 -25 -10 -25 -5 0 -10 9 -10 20 0 10 -8 24 -17 29 -15 8 -13 10 12 8
21 -1 30 3 33 16 2 12 -3 17 -17 17 -11 0 -23 4 -26 10 -3 5 1 10 9 10 9 0 16
7 16 16 0 13 -8 15 -40 12 l-40 -4 0 39 c0 36 -2 39 -23 33 -16 -4 -28 1 -40
14 -15 17 -15 21 -1 35 9 8 22 15 30 15 8 0 14 7 14 16 0 8 7 22 15 30 24 25
19 54 -10 54 -14 0 -25 -5 -25 -12 0 -9 -3 -9 -12 0 -7 7 -22 12 -35 12 -21 0
-23 -5 -23 -44 0 -34 4 -46 18 -49 16 -4 16 -5 0 -6 -21 -1 -24 -37 -6 -76 8
-18 19 -25 42 -26 24 -1 26 -3 8 -6 -12 -2 -22 -9 -22 -14 0 -5 -4 -9 -10 -9
-5 0 -10 7 -10 15 0 8 -4 15 -10 15 -6 0 -10 -27 -10 -60 0 -33 4 -60 10 -60
6 0 10 5 10 11 0 5 5 7 10 4 7 -4 4 -13 -8 -23 -16 -14 -19 -32 -20 -114 0
-79 2 -98 14 -98 8 0 14 -7 14 -15 0 -8 -4 -15 -10 -15 -17 0 -11 -28 7 -33
14 -4 13 -5 -4 -6 l-23 -1 0 -600 0 -600 2020 0 c1470 0 2020 3 2020 11 0 8 4
8 13 2 21 -18 85 -14 96 5 9 15 10 15 11 1 0 -14 32 -16 292 -17 222 -1 294 1
300 11 6 9 8 9 8 0 0 -18 256 -18 263 0 4 8 6 9 6 0 1 -18 387 -18 394 -1 4
10 6 10 6 1 1 -10 185 -13 886 -13 l885 0 0 595 c0 350 -4 605 -10 620 -5 14
-6 25 -1 25 5 0 9 32 10 70 1 47 -2 70 -10 70 -8 0 -8 4 -1 13 6 7 10 114 11
285 1 259 0 274 -18 279 -21 5 -18 38 6 61 7 7 13 31 13 53 0 35 -3 39 -25 39
-14 0 -25 5 -25 10 0 6 6 10 13 10 29 0 38 91 37 389 -1 265 -3 296 -18 307
-16 13 -16 13 0 14 16 0 17 18 17 200 0 148 -3 200 -12 200 -9 0 -9 2 0 8 16
10 16 154 0 164 -9 6 -9 8 0 8 10 0 13 146 13 663 l0 663 -27 11 -28 11 28 1
c30 1 39 31 10 31 -17 1 -17 1 -1 10 14 9 16 33 17 194 0 165 -2 185 -17 189
-16 4 -16 5 0 6 16 1 17 21 18 230 0 174 -3 231 -13 234 -9 4 -9 6 1 6 10 1
12 109 12 531 -1 455 -3 530 -16 530 -18 0 -18 10 0 35 19 28 23 265 4 265
-10 0 -10 2 -1 8 8 5 12 36 12 85 l0 78 -209 -1 c-138 -1 -210 -5 -212 -12 -3
-7 -12 -6 -27 3 -19 11 -25 11 -28 2 -6 -15 -33 -17 -33 -3 0 6 -13 10 -30 10
-33 0 -35 -2 -18 -29 6 -11 8 -26 3 -37 -6 -15 -10 -11 -17 23 l-9 43 -182 -2
c-113 -1 -185 -5 -189 -12 -4 -7 -15 -6 -32 3 -13 8 -32 11 -40 8 -17 -7 -22
-37 -6 -37 6 0 10 -7 10 -15 0 -8 -4 -15 -10 -15 -5 0 -10 -7 -10 -15 0 -18
-23 -19 -51 -4 -14 7 -29 7 -50 0 -16 -5 -29 -6 -29 -2 0 5 12 12 26 15 15 4
35 17 45 29 16 19 18 20 19 5 0 -10 7 -18 15 -18 16 0 18 4 9 37 -4 16 -13 21
-39 21 -27 0 -35 -5 -38 -21 l-4 -22 -8 23 c-9 27 -35 29 -35 3 0 -12 -9 -20
-25 -23 -13 -3 -22 -1 -19 3 3 5 12 9 20 9 8 0 14 7 14 15 0 9 -9 15 -24 15
-40 0 -56 -11 -57 -39 -1 -17 -3 -20 -6 -8 -2 9 -8 17 -13 17 -5 0 -7 7 -4 15
5 11 -1 15 -20 15 -21 0 -26 -5 -26 -25 0 -14 8 -29 20 -35 24 -13 25 -20 5
-46 -13 -16 -16 -17 -25 -4 -5 8 -10 35 -10 59 0 41 -1 43 -25 37 -14 -4 -25
-2 -25 4 0 5 -18 10 -40 10 -25 0 -40 -5 -40 -12 0 -10 -2 -10 -8 -1 -6 10
-65 12 -247 10 -215 -2 -240 -4 -243 -19 -2 -9 5 -18 15 -21 14 -4 13 -5 -4
-6 -15 -1 -23 5 -23 15 0 11 -6 15 -20 11 -10 -3 -21 0 -23 7 -3 8 -219 12
-825 13 -771 2 -822 1 -823 -15 0 -10 -3 -12 -6 -4 -2 6 -11 12 -19 12 -17 0
-19 -26 -1 -33 9 -4 9 -6 -1 -6 -7 -1 -17 10 -22 24 -8 20 -16 25 -45 25 -24
0 -35 -5 -35 -15 0 -19 -7 -19 -26 0 -20 20 -358 21 -351 1 7 -18 -13 -46 -20
-28 -8 21 -36 14 -30 -8 3 -11 2 -18 -3 -15 -4 3 -22 2 -39 -1 -31 -7 -42 -28
-18 -37 6 -3 2 -6 -10 -6 -24 -1 -30 -20 -12 -38 8 -8 8 -13 0 -17 -6 -4 -11
0 -11 8 0 19 -36 22 -43 4 -3 -8 -6 -6 -6 4 -2 33 -76 53 -87 24 -3 -8 -13
-12 -25 -9 -10 3 -19 0 -19 -6 0 -6 -10 -11 -23 -11 -32 0 -60 65 -47 112 6
18 10 34 10 35 0 2 -12 3 -26 3 -17 0 -24 -4 -21 -13 3 -8 -8 -17 -30 -24 -33
-10 -34 -10 -29 13 5 19 2 24 -13 24 -13 0 -21 -9 -26 -30 -8 -36 -25 -50 -25
-21 0 12 5 21 10 21 6 0 10 7 10 15 0 16 -26 21 -32 6 -1 -4 -13 -11 -25 -15
-18 -6 -22 -4 -17 8 5 14 -4 16 -59 16 -36 0 -78 -5 -93 -10 -19 -8 -30 -8
-38 0 -5 5 -25 10 -43 10 -29 0 -33 -3 -33 -26 0 -25 2 -26 35 -20 26 5 40 3
51 -9 24 -23 13 -27 -45 -14 -40 8 -51 15 -51 30 0 10 -7 19 -15 19 -10 0 -15
-10 -15 -32 l-1 -33 -14 25 c-8 14 -14 32 -15 41 0 15 -17 17 -129 18 -71 1
-141 -3 -155 -9 -16 -6 -27 -6 -31 0 -9 14 -95 13 -95 -1 0 -8 -4 -8 -12 -1
-8 5 -93 10 -205 10 -190 0 -193 0 -194 -22 -1 -16 -2 -17 -6 -3 -2 9 -10 18
-16 18 -66 8 -87 7 -87 -4 0 -7 10 -17 23 -22 13 -6 20 -17 17 -25 -6 -20 -4
-90 4 -134 6 -31 11 -36 35 -36 24 0 30 5 35 30 5 27 26 43 26 20 0 -21 39
-10 42 12 3 20 4 21 20 5 9 -9 21 -17 27 -17 6 0 11 -13 11 -30 l0 -30 -84 0
c-72 0 -85 -3 -89 -17 -3 -10 -6 -118 -6 -240 l-1 -223 107 0 c60 0 118 -3
129 -6 20 -5 23 -1 29 46 9 64 2 70 -77 70 l-58 0 0 41 0 42 70 -5 c63 -5 70
-4 70 13 0 11 4 19 9 19 14 0 19 -50 15 -137 -5 -93 -2 -96 76 -85 43 7 45 8
48 45 2 24 8 37 18 37 8 0 14 5 14 10 0 6 7 10 15 10 18 0 20 26 3 33 -10 4
-10 6 0 6 6 1 12 7 12 15 0 8 -6 17 -12 19 -7 3 13 6 45 6 42 1 57 5 57 15 0
8 6 16 14 19 12 5 15 -8 13 -78 l-2 -83 -37 -4 c-26 -2 -38 1 -38 9 0 7 -7 13
-15 13 -8 0 -15 -9 -15 -20 0 -11 5 -20 10 -20 6 0 10 -4 10 -10 0 -5 -11 -10
-24 -10 -13 0 -26 -7 -30 -15 -4 -10 -13 -14 -28 -10 -18 4 -26 0 -36 -22 -16
-36 -15 -53 3 -53 10 0 15 -10 14 -32 0 -18 -3 -27 -6 -20 -2 6 -11 12 -19 12
-8 0 -14 6 -15 13 -1 6 -2 21 -3 32 -1 18 -8 20 -61 20 l-60 0 -5 -33 -5 -33
-54 41 c-53 40 -57 41 -117 37 -99 -6 -144 -55 -144 -153 0 -35 7 -51 32 -80
18 -21 32 -46 30 -56 -2 -11 3 -18 12 -18 9 0 16 5 16 11 0 5 5 7 10 4 14 -9
12 -21 -5 -39 -9 -8 -22 -13 -31 -9 -8 3 -21 -3 -29 -13 -14 -18 -14 -18 -15
4 0 12 5 22 10 22 6 0 10 7 10 15 0 8 -7 15 -15 15 -8 0 -15 7 -15 15 0 8 -9
15 -20 15 -13 0 -20 -7 -20 -20 0 -12 7 -20 16 -20 11 0 14 -5 9 -17 -13 -34
-16 -111 -4 -119 8 -5 8 -9 -2 -14 -7 -5 -21 -3 -31 3 -16 10 -22 9 -34 -7
-13 -19 -14 -19 -14 7 0 17 -5 27 -15 27 -8 0 -15 -7 -15 -15 0 -8 -7 -15 -15
-15 -8 0 -15 -4 -15 -9 0 -15 -46 -18 -66 -4 -21 15 -54 17 -54 3 0 -13 -60
-13 -80 0 -10 6 -11 10 -2 10 6 0 12 7 12 15 0 8 -7 15 -15 15 -8 0 -15 -4
-15 -10 0 -5 -16 -10 -35 -10 -19 0 -35 -4 -35 -10 0 -5 -9 -10 -20 -10 -11 0
-20 5 -20 10 0 6 -7 10 -16 10 -12 0 -15 -6 -10 -25 5 -18 2 -25 -8 -25 -9 0
-12 7 -9 20 3 11 0 20 -6 20 -6 0 -11 9 -11 20 0 12 -7 20 -17 21 -11 0 -13 3
-5 6 17 7 15 33 -3 33 -8 0 -15 -7 -15 -15 0 -8 -5 -15 -11 -15 -6 0 -8 -11
-5 -27 3 -16 2 -35 -4 -43 -8 -13 -10 -12 -10 3 0 10 -8 17 -20 17 -11 0 -20
-6 -20 -13 0 -8 -15 -13 -40 -13 -22 -1 -37 2 -34 7 3 5 14 9 25 9 10 0 19 5
19 10 0 6 7 10 15 10 8 0 15 9 15 20 0 15 -7 20 -25 20 -24 0 -25 2 -13 23 10
19 13 20 16 5 8 -41 30 -11 72 100 69 183 72 185 69 67 -3 -163 -3 -165 26
-165 25 0 25 1 25 91 0 69 3 89 13 85 6 -3 20 -9 30 -12 14 -5 17 -19 17 -85
0 -81 6 -91 40 -69 12 7 15 33 15 127 l0 118 32 3 33 3 -3 -130 c-1 -72 2
-131 6 -131 5 0 17 5 28 10 15 9 19 22 19 70 0 52 3 60 19 60 10 0 32 3 48 6
l30 6 -3 -66 c-3 -57 0 -67 17 -76 11 -6 29 -8 39 -5 21 7 23 18 24 125 1 49
3 55 24 58 14 2 22 10 22 23 0 20 -20 25 -36 9 -6 -6 -8 7 -6 34 4 42 3 43
-29 50 -44 9 -58 -6 -55 -60 l2 -44 -48 0 -48 0 0 50 c0 42 -3 50 -19 50 -10
0 -21 7 -25 15 -6 16 -46 21 -46 6 0 -10 -164 -21 -203 -14 -21 4 -26 9 -21
22 13 29 10 65 -6 68 -15 3 -50 -59 -50 -88 0 -8 -4 -19 -8 -24 -5 -6 -17 -32
-27 -60 l-19 -50 -15 50 c-20 64 -28 75 -52 75 -12 0 -19 -7 -19 -19 0 -10 -7
-24 -15 -31 -12 -10 -15 -10 -15 4 0 9 -7 16 -16 16 -9 0 -24 8 -33 19 -9 10
-25 21 -36 24 -18 4 -18 5 3 6 29 1 32 41 2 41 -23 0 -25 12 -8 41 10 17 10
23 1 26 -10 3 -10 9 0 25 9 16 9 22 0 25 -25 9 -12 31 27 47 32 12 42 23 47
46 6 31 23 42 23 15 0 -8 7 -15 15 -15 8 0 15 7 15 15 0 8 -4 15 -10 15 -5 0
-9 12 -9 28 1 16 3 20 6 10 5 -20 28 -24 38 -8 8 13 35 13 35 -1 0 -6 -13 -23
-29 -38 -31 -29 -71 -89 -71 -107 0 -18 48 -45 104 -60 80 -21 169 9 203 69
15 27 16 87 3 122 -8 20 -7 30 4 40 7 8 16 11 20 8 3 -4 6 -58 6 -120 l0 -114
119 2 c66 1 123 -1 128 -3 4 -2 63 -2 131 0 l122 4 0 49 c0 39 -3 49 -17 51
-18 1 -45 3 -95 6 -25 2 -28 6 -28 36 0 40 11 46 86 46 l54 0 0 49 0 49 -47 6
c-27 3 -56 5 -66 3 -15 -1 -20 6 -22 36 l-4 37 70 0 70 0 -3 53 -3 52 -125 0
-125 0 -3 -97 c-2 -78 -6 -97 -19 -102 -9 -4 -19 -2 -23 4 -4 6 -22 19 -41 28
l-34 17 -2 95 c-3 106 3 160 17 160 6 0 10 -7 10 -15 0 -8 4 -15 9 -15 25 0
41 14 41 36 0 13 5 24 10 24 7 0 8 13 5 33 -6 33 -6 34 24 29 27 -4 31 -1 31
20 0 23 -4 25 -57 26 -35 1 -60 -3 -66 -11 -7 -9 -10 -9 -14 1 -6 15 -303 18
-303 2 0 -5 -11 -10 -25 -10 -22 0 -25 -4 -23 -31 2 -19 -2 -34 -9 -36 -8 -3
-13 4 -13 16 0 13 -6 21 -17 21 -13 0 -14 3 -5 12 35 35 17 38 -198 38 l-211
0 2 -312z m5215 232 c8 0 14 -4 14 -10 0 -5 7 -10 16 -10 11 0 15 6 11 20 -6
25 11 27 20 3 4 -10 11 -21 15 -24 13 -9 28 -79 17 -79 -5 0 -12 14 -15 30 -7
33 -34 41 -34 10 0 -13 -7 -20 -19 -20 -30 0 -51 -11 -51 -25 0 -17 43 -32 48
-16 7 21 22 11 22 -15 0 -24 3 -25 27 -19 15 3 30 11 34 16 8 13 26 -9 34 -44
4 -15 11 -27 16 -27 5 0 9 -7 9 -15 0 -8 7 -15 15 -15 16 0 21 26 6 32 -13 5
-24 48 -12 48 6 0 11 7 11 15 0 8 -6 15 -14 15 -8 0 -17 4 -20 9 -3 4 7 8 23
7 21 -1 27 -5 23 -18 -2 -10 1 -18 7 -18 6 0 11 -7 11 -15 0 -8 7 -15 15 -15
7 0 18 -8 24 -17 9 -17 11 -17 40 0 25 14 31 15 31 4 0 -25 31 -77 46 -77 8 0
14 10 14 23 0 31 10 43 43 51 23 5 27 3 27 -15 0 -11 -7 -27 -15 -35 -13 -14
-15 -14 -15 0 0 9 -7 16 -15 16 -17 0 -18 -4 -9 -37 6 -22 34 -33 34 -13 0 6
8 10 18 10 13 0 14 -2 3 -9 -12 -7 -12 -13 0 -40 8 -17 20 -31 26 -31 16 0 16
10 3 44 -5 14 -6 26 -2 26 10 0 32 -60 32 -88 0 -13 6 -22 15 -22 10 0 15 10
15 28 0 15 3 37 6 50 5 16 2 22 -10 22 -10 0 -16 8 -15 23 1 16 2 18 6 5 6
-23 39 -23 51 -2 5 9 15 15 22 12 10 -3 9 -8 -4 -20 -20 -21 -21 -38 -1 -38 8
0 15 5 15 10 0 6 5 10 10 10 6 0 10 -7 10 -15 0 -8 6 -15 14 -15 9 0 16 -12
18 -27 2 -18 10 -29 22 -31 15 -3 18 0 13 17 -3 12 -1 21 4 21 5 0 9 -4 9 -9
0 -16 52 -23 62 -9 5 8 8 -2 6 -27 -3 -43 14 -56 45 -33 13 10 16 21 11 46 -4
17 -13 32 -20 32 -8 0 -14 5 -14 10 0 6 -7 10 -15 10 -8 0 -15 -4 -15 -10 0
-5 -7 -10 -15 -10 -17 0 -18 2 -9 24 8 22 74 22 74 1 0 -10 10 -15 30 -15 18
0 33 -6 36 -15 9 -22 34 -18 34 5 0 11 5 20 10 20 16 0 12 -60 -5 -66 -19 -8
-20 -34 0 -34 8 0 12 -6 9 -14 -3 -8 -13 -12 -25 -9 -13 4 -19 0 -19 -11 0
-10 -9 -16 -25 -16 -14 0 -25 -3 -25 -7 0 -5 -22 -6 -50 -5 -27 2 -50 8 -50
13 0 5 -7 9 -15 9 -10 0 -15 -10 -15 -30 0 -23 -4 -30 -20 -30 -11 0 -20 -7
-20 -15 0 -9 9 -15 25 -15 16 0 25 -6 25 -15 0 -13 -3 -13 -21 -3 -17 10 -23
10 -26 1 -3 -7 -11 -13 -19 -13 -8 0 -14 -4 -14 -10 0 -5 -12 -10 -28 -10 -26
0 -28 4 -51 88 -12 48 -24 93 -27 100 -2 6 -10 12 -18 12 -17 0 -32 -40 -19
-49 20 -12 35 -54 28 -78 -3 -15 -1 -29 5 -33 7 -4 8 -15 1 -31 -7 -20 -10
-21 -16 -7 -3 9 -17 19 -29 22 -23 6 -55 56 -36 56 6 0 10 14 10 30 0 30 -23
43 -33 18 -3 -8 -6 -6 -6 5 -1 21 -24 22 -41 2 -7 -8 -19 -15 -26 -15 -8 0
-14 -7 -14 -15 0 -8 5 -15 11 -15 5 0 7 -4 4 -10 -12 -19 -33 -11 -28 10 4 14
0 20 -12 20 -9 0 -19 -9 -22 -20 -3 -11 -10 -20 -15 -20 -13 0 -38 26 -38 39
0 6 -4 11 -10 11 -5 0 -10 7 -10 15 0 15 -30 22 -30 8 0 -5 -3 -18 -6 -30 -5
-19 -2 -23 19 -23 20 0 24 -4 20 -20 -4 -14 1 -22 17 -28 20 -7 21 -10 7 -15
-10 -4 -17 -2 -17 4 0 6 -9 9 -20 6 -15 -4 -20 0 -20 14 0 10 -7 19 -15 19
-10 0 -15 -10 -15 -30 0 -16 5 -30 10 -30 6 0 10 -6 10 -13 0 -7 16 -19 35
-27 19 -8 35 -19 35 -26 0 -7 6 -14 13 -17 10 -4 10 -7 0 -18 -11 -11 -13 -10
-13 5 0 16 -6 18 -37 13 -21 -3 -32 -3 -25 0 17 7 15 30 -4 37 -26 10 -34 7
-34 -14 0 -11 -7 -20 -15 -20 -18 0 -20 -26 -2 -34 10 -5 10 -7 0 -12 -18 -8
-16 -34 2 -34 8 0 15 7 15 15 0 8 5 15 10 15 6 0 11 8 11 18 1 14 2 13 6 -3 3
-11 15 -28 27 -39 18 -16 18 -18 3 -13 -25 9 -67 -2 -67 -18 0 -20 82 -14 101
7 17 19 39 24 39 10 0 -5 -11 -14 -25 -20 -14 -6 -25 -20 -26 -29 0 -11 -3
-13 -6 -5 -8 19 -53 15 -54 -5 -1 -16 -2 -16 -6 0 -4 15 -12 18 -34 15 -16 -3
-29 -1 -29 4 0 4 -7 8 -15 8 -8 0 -15 5 -15 10 0 15 -19 12 -37 -5 -8 -9 -12
-22 -9 -30 4 -12 -3 -15 -29 -15 -24 0 -35 -5 -35 -15 0 -8 -9 -15 -20 -15
-11 0 -20 -5 -20 -10 0 -6 -8 -14 -17 -17 -28 -11 -43 -30 -43 -53 0 -17 5
-21 20 -17 11 3 20 2 20 -3 0 -4 -11 -11 -25 -14 -18 -5 -25 -13 -25 -31 0
-14 5 -25 10 -25 6 0 10 -7 10 -15 0 -8 7 -15 15 -15 8 0 15 4 15 9 0 10 67
20 93 13 9 -2 17 -11 17 -18 0 -9 11 -14 30 -14 20 0 30 5 30 15 0 8 4 15 9
15 5 0 7 -9 4 -20 -4 -14 0 -20 11 -20 9 0 16 5 16 10 0 6 11 8 25 4 15 -4 25
-2 25 5 0 6 5 11 10 11 6 0 10 -7 10 -15 0 -8 -9 -15 -20 -15 -11 0 -20 -7
-20 -15 0 -9 9 -15 25 -15 15 0 25 6 25 14 0 9 7 12 20 9 14 -4 20 0 20 11 0
9 -4 16 -10 16 -5 0 -10 7 -10 15 0 11 5 12 26 5 35 -14 44 -13 44 5 0 11 7
14 25 9 20 -5 25 -3 25 14 0 27 27 36 35 11 4 -10 11 -19 16 -19 14 0 39 26
39 39 0 6 5 11 10 11 6 0 11 8 11 18 1 15 2 15 6 -1 3 -13 11 -17 24 -14 16 4
18 1 13 -19 -4 -15 -2 -24 5 -24 6 0 11 -7 11 -15 0 -8 5 -15 10 -15 6 0 10
-11 10 -25 0 -14 5 -25 10 -25 14 0 13 -27 -1 -32 -17 -6 -1 -48 18 -48 11 0
14 6 9 25 -4 14 -2 25 4 25 5 0 10 7 10 15 0 8 -4 15 -10 15 -5 0 -10 11 -10
25 0 14 -4 25 -10 25 -5 0 -10 6 -10 14 0 8 -6 16 -12 19 -21 7 -4 17 20 10
15 -3 22 -13 22 -28 0 -13 7 -31 15 -39 20 -19 33 -116 16 -116 -6 0 -11 -7
-11 -15 0 -8 5 -15 10 -15 21 0 9 -37 -15 -48 -34 -16 -45 -15 -45 3 0 27 -50
13 -50 -14 -1 -14 -2 -14 -14 2 -14 18 -36 23 -36 9 0 -12 -71 -5 -84 8 -16
16 -66 12 -66 -5 0 -8 -6 -15 -14 -15 -8 0 -17 -6 -19 -12 -3 -8 -6 -6 -6 5
-1 12 -9 17 -31 17 -16 0 -30 -4 -30 -9 0 -5 -9 -7 -20 -4 -11 3 -20 1 -20 -5
0 -6 -9 -8 -20 -5 -14 4 -20 0 -20 -10 0 -20 40 -33 50 -17 9 15 30 4 30 -16
0 -8 -9 -14 -21 -14 -22 0 -49 -22 -49 -39 0 -6 7 -11 15 -11 8 0 15 5 15 10
0 6 16 10 35 10 24 0 35 5 35 15 0 8 7 15 15 15 8 0 15 5 15 10 0 6 5 10 10
10 6 0 10 -9 10 -20 0 -11 -4 -20 -10 -20 -5 0 -10 -7 -10 -15 0 -8 7 -15 15
-15 8 0 15 4 15 9 0 14 69 8 74 -5 3 -7 -3 -10 -15 -7 -26 7 -25 -24 1 -32 11
-3 20 -11 20 -16 0 -18 32 -9 37 11 6 23 43 27 43 5 0 -10 14 -17 40 -21 22
-4 40 -10 40 -15 0 -5 7 -9 15 -9 21 0 8 -26 -21 -39 -14 -6 -40 -11 -59 -11
-19 0 -35 -4 -35 -10 0 -15 -27 -12 -33 4 -3 7 -22 17 -42 20 -26 5 -39 14
-46 33 -8 23 -14 25 -47 20 -20 -3 -44 -8 -53 -11 -11 -5 -15 -1 -15 15 1 12
-7 26 -17 33 -14 9 -21 6 -41 -17 -14 -17 -33 -27 -50 -27 -16 0 -26 -6 -26
-14 0 -9 -7 -12 -20 -9 -11 3 -28 2 -37 -2 -10 -5 -26 -7 -35 -6 -10 1 -18 -3
-18 -8 0 -19 -28 -12 -35 9 -7 22 -45 28 -46 8 0 -10 -2 -10 -6 0 -2 6 -11 12
-18 12 -8 0 -11 7 -8 20 4 14 0 20 -11 20 -9 0 -16 5 -16 10 0 6 5 10 10 10 6
0 10 7 10 15 0 21 -17 19 -43 -6 -19 -17 -23 -18 -25 -5 -4 17 -32 22 -32 6 0
-5 -4 -10 -9 -10 -5 0 -8 25 -8 55 2 45 5 55 20 55 9 0 17 7 17 15 0 9 -9 15
-25 15 -14 0 -25 -4 -25 -9 0 -5 -9 -7 -20 -4 -15 4 -20 0 -20 -15 0 -11 5
-22 12 -24 23 -8 -7 -15 -32 -7 -18 5 -20 7 -6 8 13 1 17 6 13 21 -4 17 2 22
39 32 24 7 44 18 44 25 0 7 3 13 8 13 4 0 13 9 20 20 15 25 5 70 -15 70 -10 0
-14 -7 -10 -20 3 -11 1 -23 -4 -26 -5 -3 -9 7 -9 21 0 27 -20 55 -39 55 -6 0
-11 5 -11 11 0 6 -9 9 -20 6 -15 -4 -20 0 -20 14 0 10 -6 19 -14 19 -17 0 -32
-53 -17 -58 6 -2 11 -10 11 -18 0 -8 10 -14 25 -14 32 0 23 -26 -12 -35 -19
-4 -24 -11 -20 -27 3 -12 -1 -27 -10 -36 -14 -14 -16 -14 -25 1 -12 22 -38 22
-39 0 0 -11 -3 -13 -6 -5 -7 17 -33 15 -33 -3 0 -8 5 -15 10 -15 6 0 10 -9 10
-20 0 -11 -4 -20 -8 -20 -13 0 -34 63 -32 98 1 21 -3 32 -12 32 -8 0 -7 4 5
11 22 13 44 2 28 -14 -17 -17 -13 -37 9 -37 14 0 21 9 26 35 3 20 12 35 20 35
8 0 14 7 14 15 0 8 -4 15 -9 15 -5 0 -11 16 -13 35 -3 30 -1 34 13 30 40 -13
96 24 57 38 -7 2 4 7 25 11 22 4 37 13 37 21 0 8 -6 15 -12 15 -7 0 -5 5 5 11
21 12 22 26 3 45 -19 18 -35 18 -42 -1 -10 -26 -32 -18 -26 10 2 14 0 25 -6
25 -5 0 -12 9 -15 20 -3 13 0 20 9 20 8 0 14 5 14 10 0 6 7 10 16 10 23 0 14
54 -10 58 -15 3 -18 -1 -14 -22 4 -18 1 -26 -8 -26 -8 0 -14 -4 -14 -10 0 -5
-7 -10 -15 -10 -18 0 -19 -23 -4 -52 9 -16 8 -23 -2 -29 -28 -18 -38 -10 -32
26 4 28 2 35 -11 35 -11 0 -16 -9 -16 -26 0 -23 -3 -25 -30 -19 -23 5 -30 3
-30 -9 0 -11 13 -18 40 -22 49 -8 44 -20 -13 -28 -29 -5 -49 -15 -61 -31 -23
-30 -36 -32 -36 -5 0 13 -7 20 -20 20 -14 0 -20 -7 -20 -21 0 -12 8 -23 20
-26 33 -9 22 -19 -15 -15 -34 4 -47 23 -25 37 13 8 13 35 0 35 -6 0 -21 11
-33 24 -25 27 -77 45 -77 27 0 -6 -7 -8 -16 -4 -9 3 -20 0 -25 -8 -6 -10 -9
-8 -9 10 0 13 -13 36 -30 53 -16 15 -30 35 -30 43 0 23 -34 84 -47 85 -6 0
-14 14 -18 30 -6 27 -35 44 -35 20 0 -23 -19 -8 -25 20 -4 17 -11 30 -16 30
-18 0 -9 29 11 35 14 4 20 16 21 38 1 18 3 24 6 15 5 -22 33 -24 33 -3 0 8 -4
15 -10 15 -5 0 -10 7 -10 15 0 8 7 15 15 15 8 0 15 7 15 15 0 11 -11 15 -40
15 -29 0 -40 -4 -40 -15 0 -8 5 -15 10 -15 6 0 10 -7 10 -15 0 -17 -16 -20
-25 -6 -3 5 -19 12 -35 16 -17 4 -30 11 -30 16 0 5 -9 9 -20 9 -31 0 -23 27
10 34 22 4 30 11 30 27 0 12 8 23 20 26 11 3 20 11 20 18 0 8 17 14 45 17 25
2 45 0 45 -4 0 -5 -7 -8 -15 -8 -8 0 -15 -7 -15 -15 0 -18 26 -20 33 -2 3 6 6
-12 6 -40 1 -40 5 -53 16 -53 10 0 15 10 15 30 0 20 5 30 15 30 8 0 15 7 15
15 0 8 -7 15 -15 15 -22 0 -23 52 -2 76 44 50 48 64 16 64 -19 0 -19 1 -4 16
15 15 18 15 36 -5 11 -11 15 -21 9 -21 -6 0 -10 -8 -9 -17 3 -33 -3 -98 -8
-80 -5 21 -33 23 -33 2 0 -8 5 -15 10 -15 6 0 10 -7 10 -15 0 -15 26 -20 54
-9 9 3 16 12 16 20 0 8 9 14 20 14 11 0 20 7 20 15 0 8 4 15 9 15 5 0 14 13
21 29 11 28 50 50 50 29 0 -6 11 -7 25 -4 22 6 26 3 31 -24 4 -17 13 -30 21
-30 12 0 13 8 8 39 -4 24 -2 42 4 46 6 3 11 1 11 -4 0 -6 7 -11 15 -11 8 0 15
7 15 15 0 8 -7 15 -15 15 -8 0 -15 4 -15 8 0 5 -23 9 -51 9 -27 0 -53 3 -56 6
-9 10 24 37 46 37 12 0 21 6 21 15 0 15 29 10 42 -8 9 -15 68 12 68 30 0 11
-7 14 -27 9 l-28 -6 28 15 c23 14 31 14 54 2 26 -14 26 -15 5 -21 -24 -8 -25
-10 -16 -43 4 -13 13 -23 21 -23 10 0 14 7 10 20 -3 13 1 21 14 25 24 8 33 39
19 65 -7 12 -9 24 -6 27 8 8 26 -7 26 -23 0 -8 7 -14 16 -14 11 0 15 6 11 19
-4 16 1 21 21 23 18 2 28 11 33 28 4 14 7 19 8 13 1 -7 10 -13 21 -13 11 0 20
-7 20 -15 0 -8 7 -15 15 -15 8 0 15 6 15 14 0 7 7 19 15 26 12 10 15 10 15 -4
0 -9 -4 -16 -10 -16 -5 0 -10 -7 -10 -15 0 -19 32 -33 38 -17 2 7 10 12 17 12
8 0 21 7 29 15 13 13 19 14 38 3 l23 -13 -27 -3 c-29 -3 -40 -32 -13 -32 8 0
15 -4 15 -10 0 -20 29 -9 32 13 l3 22 25 -25 25 -25 -27 -3 c-31 -4 -35 -16
-13 -38 15 -15 55 -11 55 6 0 4 9 6 20 3 14 -4 20 0 20 11 0 9 -4 16 -10 16
-5 0 -10 9 -10 20 0 11 -7 20 -15 20 -13 0 -14 4 -5 21 7 11 9 27 6 35 -3 9 1
14 14 14 14 0 20 7 21 23 1 16 2 18 6 5 2 -10 11 -18 19 -18z m-1666 5 c0 -8
6 -15 14 -15 10 0 14 -9 13 -26 -2 -29 32 -60 40 -36 8 21 23 13 23 -13 0 -16
6 -25 15 -25 10 0 15 -10 15 -32 0 -48 -12 -62 -33 -38 -14 17 -14 20 -2 20
18 0 19 19 1 43 -18 24 -40 22 -33 -3 3 -11 1 -20 -4 -20 -5 0 -9 -7 -9 -15 0
-8 4 -15 9 -15 5 0 12 -11 15 -25 4 -14 12 -25 20 -25 15 0 29 -77 17 -98 -5
-9 -13 1 -26 32 -15 36 -24 46 -42 46 -16 0 -23 6 -23 19 0 11 -9 23 -20 26
-11 3 -20 13 -20 21 0 18 -25 18 -42 1 -7 -8 -20 -12 -30 -9 -10 2 -18 -1 -18
-7 0 -6 -5 -11 -10 -11 -6 0 -5 8 2 20 10 16 9 22 -11 40 -13 11 -30 20 -38
20 -11 0 -11 4 -1 23 10 18 13 19 16 5 4 -19 38 -30 69 -22 16 5 22 16 27 56
4 27 12 56 19 64 16 18 47 18 47 -1z m180 -11 c0 -11 6 -15 20 -11 11 3 20 1
20 -3 0 -5 3 -15 6 -24 4 -11 1 -16 -10 -16 -14 0 -16 -7 -10 -37 8 -46 4 -40
37 -48 21 -6 27 -4 27 9 0 9 -8 16 -17 16 -15 0 -15 2 -4 9 15 10 41 -8 41
-28 0 -6 8 -15 18 -20 14 -7 17 -18 14 -39 -3 -25 0 -30 23 -36 14 -4 31 -4
36 0 6 3 13 -3 16 -15 10 -39 56 -19 59 26 1 15 3 31 3 36 1 4 5 7 9 7 13 0
41 -72 39 -100 -1 -17 4 -26 17 -28 15 -3 18 0 14 15 -3 11 0 31 8 44 11 21
13 22 19 7 4 -10 17 -18 29 -19 11 0 15 -3 9 -6 -15 -6 -18 -33 -3 -33 5 0 25
8 45 18 28 13 35 22 32 40 -3 13 -1 20 3 15 9 -8 13 -29 11 -50 0 -7 -13 -13
-27 -13 -21 0 -25 -4 -21 -20 4 -17 0 -20 -29 -20 -24 0 -34 -5 -34 -15 0 -8
-7 -15 -15 -15 -8 0 -15 7 -15 15 0 8 -7 15 -15 15 -8 0 -15 -6 -15 -12 0 -10
-3 -9 -9 1 -7 11 -15 11 -41 2 -42 -14 -40 -14 -40 8 0 22 -26 31 -94 31 -43
0 -48 -2 -43 -20 3 -13 0 -20 -9 -20 -8 0 -14 5 -14 10 0 6 -6 10 -14 10 -22
0 -25 56 -4 69 10 6 18 18 18 26 0 8 7 15 15 15 8 0 15 7 15 15 0 8 -7 15 -15
15 -8 0 -15 -7 -15 -15 0 -8 -6 -15 -14 -15 -8 0 -22 -10 -30 -22 -13 -18 -16
-19 -16 -5 0 9 -7 17 -15 17 -8 0 -15 7 -15 15 0 8 -7 15 -15 15 -8 0 -15 5
-15 10 0 6 7 10 15 10 8 0 15 9 15 20 0 11 -6 20 -12 20 -10 0 -12 19 -10 70
2 38 8 70 13 70 5 0 9 -7 9 -16z m-3330 -69 c-7 -8 -19 -15 -26 -15 -8 0 -14
-7 -14 -15 0 -8 7 -15 15 -15 10 0 15 -10 15 -30 0 -28 -2 -29 -24 -18 -14 6
-32 8 -40 5 -25 -10 -19 -34 10 -41 26 -7 26 -7 8 -29 -26 -30 -44 -64 -44
-82 0 -8 -4 -15 -9 -15 -14 0 -22 29 -15 56 5 18 2 24 -10 24 -9 0 -16 -4 -16
-10 0 -5 -7 -10 -15 -10 -8 0 -15 4 -15 9 0 16 26 30 47 25 17 -5 21 0 26 31
3 20 2 48 -4 61 -7 19 -5 29 6 40 8 8 18 21 22 27 10 15 87 36 91 24 2 -4 -2
-14 -8 -22z m2480 -131 c0 -17 6 -24 20 -24 11 0 20 -4 20 -10 0 -5 -7 -10
-15 -10 -8 0 -15 -7 -15 -15 0 -8 -7 -15 -16 -15 -23 0 -14 -54 10 -58 15 -3
18 0 12 21 -7 30 13 38 74 30 37 -5 40 -4 41 18 1 17 3 19 6 7 5 -19 33 -25
33 -8 0 6 9 10 20 10 11 0 20 -7 20 -15 0 -8 5 -15 10 -15 6 0 10 -4 10 -10 0
-5 -7 -10 -15 -10 -8 0 -15 5 -15 10 0 6 -7 10 -15 10 -8 0 -15 -7 -15 -15 0
-8 7 -15 15 -15 8 0 15 -4 15 -10 0 -5 7 -10 15 -10 8 0 17 -11 21 -25 5 -22
34 -37 34 -17 -1 26 -15 52 -29 52 -9 0 -1 8 17 17 30 14 34 14 51 -1 9 -9 25
-16 34 -16 9 0 17 -5 17 -10 0 -22 32 -22 56 1 l25 23 6 -22 c3 -12 12 -22 20
-22 10 0 14 7 10 20 -5 21 9 28 15 8 8 -24 -4 -54 -25 -63 -30 -13 -35 -45 -8
-45 17 0 21 -6 21 -30 0 -20 5 -30 15 -30 10 0 15 11 15 35 0 19 -4 35 -10 35
-5 0 -10 6 -10 14 0 9 8 12 25 8 24 -4 25 -2 25 42 0 48 13 62 23 25 5 -17 12
-21 36 -17 21 3 31 0 31 -9 0 -7 -5 -13 -11 -13 -6 0 -10 -10 -9 -22 3 -36 -1
-74 -7 -60 -2 6 -14 13 -26 13 -17 1 -18 2 -4 6 21 5 23 43 2 43 -8 0 -15 -4
-15 -10 0 -5 -6 -10 -14 -10 -18 0 -26 -22 -26 -71 0 -43 23 -55 35 -19 7 21
25 28 25 10 0 -18 52 -11 70 10 11 13 24 17 39 13 15 -4 19 -8 11 -13 -8 -5
-10 -19 -5 -40 5 -25 11 -31 26 -27 10 3 19 1 19 -4 0 -5 -7 -9 -15 -9 -8 0
-15 -7 -15 -15 0 -8 -7 -15 -15 -15 -8 0 -15 -7 -15 -16 0 -14 -8 -16 -50 -11
-42 5 -50 3 -50 -10 0 -9 10 -27 22 -40 l21 -23 -26 0 c-20 0 -27 5 -27 19 0
31 -24 41 -86 39 -59 -3 -59 -3 -62 -35 -2 -19 1 -33 7 -33 6 0 11 -6 11 -14
0 -8 8 -17 18 -19 10 -3 6 -5 -10 -6 -16 0 -28 -5 -28 -10 0 -5 -9 -11 -20
-14 -13 -3 -20 0 -20 10 0 8 -7 13 -17 11 -20 -4 -28 -45 -14 -67 8 -12 14
-12 44 2 37 18 114 24 88 8 -17 -11 -7 -41 13 -41 10 0 13 -6 9 -16 -3 -9 0
-20 8 -24 13 -8 8 -10 -68 -26 -15 -3 -23 -12 -24 -27 -1 -17 -2 -18 -6 -4 -5
18 -53 25 -53 7 0 -5 -9 -10 -20 -10 -11 0 -20 -7 -20 -15 0 -8 4 -15 10 -15
5 0 7 -7 4 -15 -8 -21 -21 -19 -29 5 -9 28 -45 26 -46 -2 0 -13 -3 -17 -6 -10
-2 6 -17 12 -33 12 -16 0 -31 -6 -33 -12 -9 -22 -27 14 -20 39 4 19 1 23 -16
23 -16 0 -21 -6 -21 -25 0 -14 -4 -25 -10 -25 -20 0 -10 -28 13 -35 19 -6 19
-8 5 -12 -19 -5 -26 -59 -8 -65 6 -2 6 -17 -1 -43 -8 -29 -8 -40 0 -43 6 -2
11 -10 11 -18 0 -8 6 -14 13 -15 10 0 10 -2 0 -6 -7 -2 -13 -11 -13 -19 0 -15
-9 -17 -34 -8 -13 5 -14 10 -5 20 19 23 1 54 -33 54 -27 0 -29 2 -17 16 8 10
15 12 17 5 2 -6 10 -11 18 -11 11 0 14 20 14 94 l0 93 -43 40 c-25 23 -41 46
-39 56 2 9 -1 17 -7 17 -6 0 -8 7 -5 15 4 8 11 15 16 15 15 0 68 57 68 72 0 8
-10 24 -22 35 -62 57 -196 51 -242 -10 -25 -34 -43 -142 -25 -152 5 -4 3 -12
-4 -19 -6 -8 -14 -13 -17 -11 -3 2 -7 50 -9 106 -1 57 -5 107 -7 111 -3 5 -30
8 -60 8 l-54 0 -2 -62 c0 -35 0 -89 1 -120 3 -59 -6 -71 -29 -43 -10 12 -10
15 4 15 9 0 16 7 16 15 0 8 -7 15 -15 15 -8 0 -15 -5 -15 -11 0 -5 -4 -7 -10
-4 -5 3 -7 20 -3 37 6 28 4 31 -15 26 -16 -5 -27 1 -43 23 l-20 29 20 0 c17 0
21 6 21 36 0 28 -3 35 -17 32 -10 -2 -19 -13 -21 -26 -4 -29 -8 -28 -39 8 -13
17 -33 30 -44 30 -10 0 -19 7 -19 15 0 8 -4 15 -10 15 -5 0 -10 4 -10 10 0 5
23 12 50 16 l50 7 0 208 c0 196 1 210 20 229 15 15 20 16 20 6 0 -8 7 -21 15
-29 13 -13 13 -16 0 -27 -11 -9 -15 -9 -15 -1 0 6 -7 11 -15 11 -8 0 -15 -9
-15 -20 0 -11 5 -20 11 -20 7 0 9 -10 4 -27 -4 -16 -9 -58 -11 -94 -3 -53 0
-73 18 -110 52 -100 98 -133 206 -143 45 -5 72 -4 72 3 0 5 13 12 29 16 37 8
95 70 111 120 7 21 13 61 14 89 l1 51 -118 3 -118 3 3 -58 3 -58 43 3 c23 1
42 -2 42 -6 0 -21 -41 -44 -77 -44 -69 0 -123 87 -97 156 3 9 12 16 20 16 20
0 17 28 -3 33 -16 4 -16 5 1 12 13 6 21 4 24 -3 5 -16 20 -15 37 2 23 23 87
30 101 12 13 -19 45 -21 62 -4 10 10 14 10 21 0 12 -20 61 -4 61 19 0 10 7 19
15 19 19 0 19 21 1 65 -13 29 -13 33 0 28 8 -3 14 -16 14 -29z m3320 -593 c0
-5 -10 -7 -22 -3 -20 5 -21 2 -15 -34 3 -21 3 -33 0 -26 -7 19 -31 14 -38 -9
-8 -25 -9 -25 43 -33 33 -5 42 -3 42 8 0 8 -8 16 -17 19 -10 2 11 3 47 3 59
-1 65 -3 62 -21 -2 -11 -8 -22 -12 -25 -5 -3 -12 -18 -15 -33 -4 -15 -13 -27
-21 -27 -8 0 -14 -7 -14 -15 0 -8 -4 -15 -10 -15 -5 0 -10 -11 -10 -25 0 -16
6 -25 15 -25 9 0 15 9 15 24 0 24 1 24 33 13 29 -11 30 -12 9 -15 -18 -3 -23
-9 -19 -22 3 -11 -1 -21 -9 -24 -17 -7 -44 3 -44 15 0 12 -27 12 -32 0 -1 -5
-15 -13 -30 -16 -26 -7 -28 -5 -28 24 0 21 -5 31 -15 31 -8 0 -15 -9 -15 -20
0 -22 -15 -27 -26 -9 -3 6 -16 8 -28 5 -19 -5 -22 -2 -20 31 0 20 6 39 12 41
17 5 15 32 -2 32 -8 0 -17 -6 -19 -12 -3 -8 -6 -6 -6 5 -1 21 -31 23 -31 2 0
-8 4 -15 9 -15 5 0 8 -18 7 -41 -1 -44 -1 -44 -73 -23 -17 5 -23 2 -23 -9 0
-13 30 -25 110 -41 20 -4 25 -11 24 -33 -1 -28 -17 -42 -29 -24 -3 6 -1 11 4
11 6 0 11 7 11 15 0 8 -5 15 -11 15 -12 0 -59 -50 -59 -62 0 -5 -7 -8 -15 -8
-8 0 -15 -7 -15 -15 0 -8 -4 -15 -10 -15 -5 0 -10 -7 -10 -15 0 -10 10 -15 31
-15 28 0 31 3 25 24 -5 20 -1 25 21 30 34 9 47 -5 38 -43 -6 -27 -10 -30 -31
-25 -14 4 -24 2 -24 -5 0 -6 -7 -11 -15 -11 -8 0 -15 5 -15 10 0 6 -11 10 -25
10 -14 0 -25 5 -25 10 0 6 -8 10 -17 11 -11 0 -13 3 -5 6 14 6 16 33 2 33 -5
0 -10 14 -10 30 0 17 5 30 10 30 6 0 10 7 10 15 0 8 -5 15 -11 15 -24 0 -39
30 -39 78 0 42 3 51 20 55 14 4 25 -1 33 -14 6 -10 17 -19 24 -19 14 0 27 36
18 50 -4 7 2 9 19 4 20 -5 26 -2 26 10 0 9 -6 16 -14 16 -21 0 -30 20 -17 33
8 8 11 7 11 -6 0 -9 11 -19 25 -23 14 -3 25 -10 25 -15 0 -5 7 -9 15 -9 8 0
15 7 15 15 0 8 -7 15 -15 15 -13 0 -13 2 -3 14 8 8 15 10 19 4 9 -14 49 0 49
18 0 8 10 14 25 14 16 0 25 6 25 15 0 8 -7 15 -15 15 -28 0 -15 18 23 33 36
15 72 8 72 -12z m-2617 -82 c-3 -10 -11 -24 -19 -30 -19 -16 -18 -36 4 -43 9
-3 -9 -3 -41 0 -38 4 -63 1 -73 -6 -11 -10 -14 -9 -14 9 0 11 -3 21 -7 21 -5
0 -9 17 -10 37 -3 50 48 97 63 58 8 -20 24 -19 54 5 l25 19 11 -26 c6 -14 9
-34 7 -44z m-727 -163 c4 -11 1 -22 -7 -27 -20 -13 -29 -11 -29 6 0 8 -4 15
-10 15 -5 0 -10 7 -10 15 0 8 -7 15 -15 15 -8 0 -15 -9 -15 -20 0 -11 5 -20
10 -20 6 0 10 -5 10 -11 0 -8 -5 -8 -15 1 -8 7 -15 19 -15 26 0 9 -12 14 -36
14 -30 0 -36 -3 -32 -18 3 -10 -1 -23 -9 -30 -21 -21 -15 -59 13 -81 15 -12
33 -21 40 -21 8 0 14 -4 14 -10 0 -6 30 -8 75 -6 59 3 75 0 75 -10 0 -8 6 -14
14 -14 9 0 12 -7 9 -20 -3 -11 -9 -20 -14 -20 -5 0 -9 9 -9 20 0 22 -26 28
-33 8 -4 -10 -7 -10 -18 0 -21 19 -39 14 -39 -12 0 -29 -24 -40 -49 -24 -15 9
-24 8 -44 -5 -21 -14 -27 -14 -37 -3 -7 9 -7 15 -1 18 14 4 2 108 -13 108 -7
0 -11 30 -11 88 0 88 0 88 29 103 29 15 32 14 98 -25 37 -23 70 -49 74 -60z
m-439 30 c8 -15 35 -55 59 -88 24 -33 44 -67 44 -75 0 -11 7 -13 25 -9 23 6
25 4 25 -28 0 -19 5 -38 10 -41 17 -10 12 -85 -5 -85 -9 0 -15 9 -15 23 0 12
-4 27 -8 33 -11 18 -50 26 -70 15 -15 -8 -23 -6 -37 9 -24 26 -39 25 -54 -3
-9 -16 -9 -30 -2 -50 9 -22 8 -27 -4 -27 -8 0 -15 6 -16 13 -1 6 -2 21 -3 32
-1 24 -72 47 -84 28 -12 -18 -41 10 -48 46 -4 18 -13 35 -21 38 -10 4 -13 15
-9 37 4 19 0 42 -9 60 -13 25 -13 28 1 22 9 -3 20 -6 25 -6 5 0 9 -22 9 -50 0
-56 15 -70 74 -70 25 0 36 -4 36 -15 0 -8 7 -15 16 -15 13 0 15 6 10 28 -10
45 -14 134 -8 190 5 51 5 52 24 35 11 -10 27 -31 35 -47z m4416 -101 c45 -9
56 -23 32 -42 -29 -20 -54 -17 -48 7 3 11 0 20 -6 20 -13 0 -51 -36 -51 -50 0
-5 16 -12 35 -16 20 -3 35 -12 35 -20 0 -8 5 -14 11 -14 6 0 18 -7 27 -16 14
-15 14 -17 -1 -26 -9 -5 -17 -15 -17 -21 0 -18 -38 -48 -45 -37 -20 33 -82
-11 -70 -49 4 -14 -2 -22 -25 -31 -36 -15 -39 -36 -5 -44 16 -4 25 -13 25 -26
0 -11 7 -20 15 -20 8 0 15 7 15 15 0 8 5 15 10 15 6 0 10 8 10 17 0 9 2 14 5
12 2 -3 2 -21 -1 -41 -7 -42 -37 -57 -57 -28 -17 25 -117 17 -117 -10 0 -14
-5 -17 -21 -13 -19 5 -21 3 -16 -19 5 -20 3 -27 -13 -31 -15 -4 -20 0 -20 14
0 10 5 19 10 19 6 0 10 7 10 15 0 8 -4 15 -10 15 -5 0 -10 7 -10 16 0 12 7 14
30 9 19 -4 30 -3 30 4 0 6 9 11 19 11 18 0 31 18 31 44 0 8 -17 12 -50 12 -56
0 -63 4 -54 28 5 13 9 14 20 5 20 -16 44 -4 45 23 l2 23 4 -22 c5 -25 33 -32
33 -8 0 8 5 15 10 15 6 0 10 8 10 18 1 16 1 16 14 0 22 -30 38 -22 31 15 -9
40 -8 39 -38 32 -14 -4 -28 -16 -31 -28 -5 -17 -8 -19 -15 -9 -11 19 -131 5
-131 -14 0 -8 4 -14 9 -14 4 0 6 -11 3 -25 -2 -14 -11 -25 -18 -25 -8 0 -14
-7 -14 -16 0 -11 6 -15 19 -11 14 3 17 0 14 -14 -4 -14 0 -19 13 -20 40 -1
-20 -18 -68 -18 -36 -1 -48 -5 -48 -16 0 -9 9 -15 23 -15 46 0 67 -12 67 -36
0 -12 -4 -25 -9 -28 -5 -4 -7 3 -4 14 4 14 0 20 -11 20 -9 0 -16 -7 -16 -15 0
-8 -4 -15 -10 -15 -5 0 -10 -7 -10 -15 0 -8 5 -15 10 -15 6 0 10 -7 10 -15 0
-18 21 -20 38 -3 9 9 12 7 12 -9 0 -31 -24 -47 -43 -28 -9 8 -20 15 -26 15 -6
0 -11 5 -11 10 0 6 -11 10 -25 10 -36 0 -33 -30 3 -31 27 -2 27 -2 2 -6 -14
-3 -28 -10 -32 -17 -5 -7 -8 -5 -8 7 0 24 -27 21 -33 -4 -5 -19 -6 -19 -25 -3
-11 9 -18 23 -15 31 3 8 1 18 -5 22 -6 3 -14 19 -17 34 -6 21 -4 27 9 27 9 0
16 8 16 20 0 25 -30 27 -31 3 -1 -17 -2 -17 -6 0 -2 9 -12 18 -21 18 -15 1
-15 2 1 6 9 2 17 11 17 19 0 17 -27 19 -33 2 -2 -7 -8 -10 -12 -6 -12 12 5 28
31 28 13 0 24 5 24 10 0 15 29 12 46 -5 17 -17 74 -21 74 -5 0 6 7 10 15 10 8
0 15 7 15 15 0 8 5 15 10 15 6 0 10 -4 10 -10 0 -5 7 -10 15 -10 8 0 15 7 15
15 0 8 -6 15 -14 15 -8 0 -16 7 -20 15 -3 8 -12 15 -20 15 -9 0 -20 9 -26 20
-12 22 -40 27 -40 7 0 -7 6 -19 13 -26 10 -11 10 -14 0 -18 -7 -3 -13 -11 -13
-19 0 -8 -7 -14 -15 -14 -18 0 -20 17 -2 23 21 8 -7 42 -37 45 -23 3 -24 5
-12 18 8 8 19 14 25 14 6 0 11 4 11 10 0 6 27 8 67 6 49 -3 70 0 81 11 9 9 24
12 39 8 25 -6 44 7 56 38 9 23 27 22 27 -3 0 -23 28 -27 36 -5 4 8 17 15 29
15 13 0 26 6 28 13 3 7 6 5 6 -5 1 -10 4 -18 9 -18 4 0 17 -3 30 -6 16 -5 22
-2 22 10 0 9 -4 16 -10 16 -5 0 -10 14 -10 30 0 17 5 30 10 30 13 0 13 27 -1
32 -7 2 -7 12 1 33 13 34 30 48 45 35 5 -4 27 -11 48 -15z m-4443 -274 c0 -15
27 -14 32 1 3 8 31 11 84 11 105 -2 134 -4 112 -10 -10 -2 -18 -12 -18 -21 -1
-15 -2 -15 -11 1 -14 23 -39 22 -39 -3 0 -11 7 -20 15 -20 8 0 15 -4 15 -10 0
-5 10 -10 23 -10 40 0 49 -14 51 -83 1 -37 5 -70 9 -73 4 -4 7 -20 7 -35 0
-16 9 -37 22 -49 12 -11 16 -20 10 -20 -7 0 -12 -16 -12 -40 0 -33 3 -40 20
-40 11 0 20 6 20 14 0 21 33 24 52 5 15 -16 15 -17 -3 -22 -19 -5 -27 -37 -9
-37 6 0 10 -9 10 -20 0 -21 29 -29 31 -7 0 10 2 10 6 0 7 -18 33 -16 33 2 0 8
-8 16 -17 16 -17 1 -17 2 0 6 14 4 16 12 11 44 -5 32 -4 39 10 39 23 0 20 27
-4 33 -14 4 -18 10 -14 22 4 9 1 20 -6 25 -7 4 6 10 34 14 25 4 46 11 46 17 0
5 7 9 15 9 8 0 15 3 15 8 0 4 3 17 6 30 5 16 2 22 -10 22 -9 0 -16 -4 -16 -9
0 -5 -9 -7 -20 -4 -14 4 -20 0 -20 -11 0 -19 -16 -22 -23 -3 -7 20 12 47 33
47 11 0 20 5 20 11 0 8 13 9 40 5 36 -6 40 -4 40 14 0 23 10 26 28 8 10 -10
17 -10 32 -1 10 7 20 8 22 3 2 -4 19 -11 38 -15 31 -5 36 -3 48 22 24 54 18
61 -53 61 -35 0 -69 3 -75 7 -15 9 -12 25 5 25 8 0 15 -4 15 -10 0 -20 39 -10
46 13 l7 22 10 -22 c12 -26 32 -30 41 -8 3 8 12 15 21 15 8 0 15 7 15 16 0 14
3 14 15 4 8 -7 15 -23 15 -36 0 -17 6 -24 20 -24 13 0 20 7 20 19 0 11 4 22 9
25 11 7 19 -107 10 -132 -5 -13 -9 -10 -15 13 -4 17 -7 38 -5 48 1 11 -4 17
-18 17 -18 0 -20 -6 -18 -47 1 -32 -3 -52 -12 -59 -20 -15 -6 -44 21 -45 l23
0 -22 -11 c-33 -16 -44 -108 -12 -108 5 0 18 -9 29 -20 11 -11 16 -20 10 -20
-5 0 -10 -7 -10 -15 0 -8 4 -15 9 -15 20 0 41 13 41 25 0 8 8 11 20 8 13 -4
20 0 20 10 0 8 -9 17 -20 20 -23 6 -17 37 6 37 8 0 14 5 14 10 0 6 11 10 24
10 18 0 25 7 30 30 3 17 10 30 15 30 5 0 3 -17 -5 -37 -16 -45 -18 -73 -5 -73
5 0 7 -9 4 -20 -7 -25 13 -26 39 -3 20 18 25 73 6 74 -10 0 -10 2 0 6 6 2 12
9 12 15 0 10 25 38 34 38 3 0 6 -16 6 -35 0 -22 -6 -37 -17 -44 -15 -8 -16
-13 -5 -30 7 -13 8 -21 2 -21 -5 0 -10 -7 -10 -15 0 -8 7 -15 15 -15 8 0 15 5
15 12 0 6 3 9 6 6 11 -11 -120 -197 -139 -198 -12 0 -17 -6 -15 -19 4 -28 -62
-129 -89 -134 -30 -6 -69 36 -65 69 2 16 -1 24 -12 24 -9 0 -16 -4 -16 -10 0
-5 -6 -10 -12 -10 -11 -1 -146 -217 -243 -389 -11 -20 -47 -81 -80 -136 -33
-55 -62 -105 -65 -110 -3 -6 -47 -82 -99 -168 l-94 -158 -136 2 c-132 3 -161
-1 -161 -21 0 -5 -16 -34 -35 -64 -19 -30 -35 -58 -35 -61 0 -3 -16 -31 -35
-61 -19 -30 -35 -58 -35 -62 -1 -13 -38 -52 -50 -52 -18 0 -36 -22 -44 -54 -7
-27 -8 -27 -21 -10 -8 11 -15 27 -15 36 0 9 -4 20 -10 23 -5 3 -10 15 -10 26
0 12 -7 19 -20 19 -11 0 -20 -6 -20 -14 0 -10 -7 -12 -22 -8 -40 10 -48 26
-32 57 8 16 13 34 10 41 -3 7 2 10 15 7 14 -4 19 0 19 16 0 14 -6 21 -20 21
-14 0 -20 7 -20 23 0 29 -41 67 -74 67 -14 0 -26 5 -26 11 0 7 -10 20 -22 31
-17 14 -22 28 -19 54 2 26 -1 34 -13 34 -11 0 -16 -10 -16 -32 0 -27 -2 -30
-12 -16 -7 9 -20 18 -28 21 -12 4 -11 6 3 6 18 1 25 41 7 41 -5 0 -10 9 -10
20 0 11 5 20 10 20 6 0 10 9 10 20 0 11 -7 20 -15 20 -8 0 -15 -9 -15 -19 0
-10 -7 -21 -15 -25 -8 -3 -15 -12 -15 -21 0 -8 7 -15 15 -15 8 0 15 -4 15 -10
0 -5 -7 -10 -15 -10 -11 0 -14 -13 -13 -52 0 -29 0 -59 -1 -65 -2 -23 -19 -13
-30 17 -5 17 -17 30 -26 30 -14 0 -16 -7 -10 -42 8 -48 21 -78 35 -78 5 0 10
-10 12 -22 2 -16 10 -23 24 -22 16 0 20 -4 16 -18 -3 -14 2 -18 24 -18 15 0
35 7 45 16 16 15 20 15 34 1 8 -9 15 -20 15 -26 0 -16 19 -13 37 5 14 14 17
14 32 -1 13 -13 13 -17 3 -24 -8 -5 -12 -23 -10 -47 2 -30 8 -40 23 -43 19 -3
35 -18 35 -33 0 -4 -25 -12 -55 -19 -33 -7 -55 -17 -55 -26 0 -7 -4 -13 -10
-13 -5 0 -10 -9 -10 -21 0 -18 5 -20 53 -17 43 2 54 7 62 26 12 28 42 29 50 1
6 -17 12 -19 33 -14 22 5 25 4 15 -6 -7 -7 -13 -25 -13 -40 0 -25 -3 -27 -35
-26 -19 1 -35 5 -35 10 0 11 -38 9 -45 -3 -10 -15 -35 -12 -35 5 0 8 -9 15
-20 15 -11 0 -20 -7 -20 -15 0 -8 -9 -15 -19 -15 -14 0 -21 10 -28 38 -6 26
-15 38 -30 40 -22 3 -32 -17 -34 -73 -1 -17 -3 -22 -6 -12 -3 10 -14 17 -29
17 -22 0 -24 4 -24 49 0 75 -10 111 -31 111 -13 0 -20 -13 -29 -53 -6 -29 -10
-62 -9 -72 4 -40 -3 -199 -8 -180 -3 11 -10 26 -15 33 -7 8 -7 12 1 12 6 0 11
7 11 15 0 8 -4 15 -10 15 -5 0 -10 7 -10 15 0 8 -4 15 -10 15 -5 0 -10 7 -10
15 0 27 -28 16 -35 -14 -4 -20 -13 -31 -28 -33 -22 -3 -39 -48 -18 -48 6 0 8
-6 5 -13 -3 -8 -15 -13 -27 -13 -13 1 -23 -6 -25 -16 -3 -13 3 -18 21 -18 14
0 27 -7 31 -15 3 -8 1 -15 -4 -15 -5 0 -9 -10 -8 -22 0 -13 -3 -35 -7 -50 -6
-23 -4 -28 11 -29 11 0 4 -5 -15 -10 -18 -6 -34 -9 -36 -7 -1 2 -5 45 -8 96
-6 78 -4 92 8 92 11 0 15 13 15 55 0 48 -2 55 -20 55 -11 0 -20 -5 -20 -11 0
-7 -12 -9 -35 -5 -27 5 -35 4 -35 -8 0 -8 6 -17 13 -19 7 -3 5 -6 -5 -6 -20
-1 -25 -31 -7 -31 9 0 10 -23 5 -82 -3 -46 -9 -161 -13 -255 -5 -156 -4 -173
11 -173 9 0 16 -4 16 -10 0 -5 7 -10 15 -10 8 0 15 5 15 10 0 6 10 10 23 9 12
0 16 -3 10 -6 -7 -2 -13 -9 -13 -14 0 -6 -10 -20 -22 -32 -13 -13 -31 -34 -40
-47 l-17 -25 0 27 c-1 14 -5 28 -9 30 -14 5 -24 58 -11 58 9 0 10 36 4 138 -4
75 -8 163 -8 195 -1 38 -5 57 -13 57 -7 0 -14 -3 -16 -7 -1 -5 -16 -15 -33
-24 l-30 -15 -2 92 c-3 90 -2 92 22 98 14 4 25 14 25 22 0 12 -6 15 -25 10
-21 -5 -25 -2 -34 31 -5 21 -11 52 -13 68 -2 22 -8 30 -22 30 -16 0 -23 -14
-38 -80 -11 -49 -15 -97 -12 -122 4 -27 2 -43 -4 -43 -6 0 -13 -10 -15 -22 -4
-20 -4 -19 -6 5 -1 17 -7 27 -17 27 -13 0 -15 -8 -9 -52 4 -29 12 -56 17 -59
5 -3 -4 -6 -21 -5 -22 1 -31 6 -31 19 0 9 7 17 15 17 8 0 15 7 15 15 0 8 -6
15 -14 15 -8 0 -17 13 -21 30 -5 23 -12 30 -30 30 -23 0 -28 -12 -39 -100 -1
-14 -10 -26 -19 -28 -19 -4 -23 -28 -6 -34 6 -2 11 -24 11 -48 0 -144 -3 -201
-11 -196 -5 3 -7 15 -4 26 4 15 0 20 -16 20 -31 0 -30 -57 1 -69 21 -8 21 -8
-5 -13 -19 -4 -27 -1 -27 8 0 9 -12 14 -33 14 l-32 0 0 56 0 55 34 -6 c30 -6
33 -4 28 14 -3 12 -2 21 3 21 4 0 11 16 14 35 4 19 11 35 16 35 17 0 11 24
-14 53 -28 32 -51 36 -43 7 3 -11 1 -20 -4 -20 -5 0 -9 14 -9 30 0 23 -4 30
-20 30 -18 0 -20 7 -20 60 l0 59 30 -6 c22 -4 30 -2 30 8 0 27 -12 59 -22 59
-6 0 -19 -10 -30 -22 l-20 -23 5 70 c2 39 7 80 12 93 6 17 3 22 -11 23 -17 1
-17 2 -1 6 9 2 17 11 17 20 0 12 -7 14 -32 9 -39 -7 -58 -30 -58 -67 0 -38 -9
-59 -26 -59 -16 0 -17 -10 -5 -43 8 -22 7 -24 -10 -20 -10 3 -19 12 -19 19 0
8 -10 14 -25 14 -19 0 -25 -5 -26 -22 0 -20 -2 -20 -11 5 -8 23 -15 28 -35 24
-16 -3 -27 2 -34 15 -14 26 -6 33 14 13 16 -16 37 -20 37 -7 0 4 10 19 23 34
12 14 30 36 39 47 10 11 21 33 24 48 4 16 20 40 35 54 16 14 29 36 29 48 0 19
-4 21 -40 15 -35 -6 -40 -4 -39 12 0 11 3 14 6 7 6 -15 43 -17 43 -3 0 6 10 8
24 4 21 -5 27 0 42 33 10 21 26 44 37 51 13 10 17 21 12 42 -6 26 -3 29 22 32
22 2 33 13 50 48 12 25 34 57 48 72 14 15 25 34 25 42 0 8 6 19 13 23 14 9 46
56 67 98 8 17 23 36 32 43 10 7 23 31 29 52 7 22 18 40 25 40 22 0 66 51 61
71 -6 21 16 43 35 36 8 -4 7 -6 -4 -6 -22 -1 -24 -31 -3 -31 8 0 15 4 15 10 0
14 70 24 83 11 8 -8 5 -11 -11 -11 -29 0 -29 -28 1 -35 22 -6 67 -75 67 -102
0 -7 4 -13 9 -13 13 0 71 -56 71 -69 0 -7 7 -14 15 -17 8 -4 15 -12 15 -18 0
-16 47 -42 57 -32 4 4 2 16 -5 26 -15 25 -15 50 0 50 6 0 20 8 31 18 15 12 21
14 24 5 6 -18 33 -16 33 1 0 8 -6 17 -12 19 -7 3 -3 6 10 6 12 1 22 -3 22 -9
0 -5 9 -10 20 -10 11 0 20 5 20 11 0 6 7 17 15 25 13 14 15 14 15 0 0 -26 40
-20 41 7 l0 22 9 -23 c11 -26 42 -42 48 -24 2 7 17 12 33 12 24 0 29 -4 29
-26 0 -20 5 -25 23 -24 34 3 64 -1 50 -7 -24 -9 -14 -41 15 -48 15 -3 34 -15
42 -25 8 -10 28 -22 43 -26 24 -6 28 -4 27 12 -5 41 0 53 16 47 9 -3 20 0 25
8 6 10 9 6 9 -13 0 -18 -5 -28 -15 -28 -9 0 -15 -9 -15 -25 0 -32 30 -34 31
-2 0 12 3 16 6 10 7 -18 43 -16 43 2 0 8 5 15 10 15 6 0 10 7 10 15 0 18 -26
20 -33 3 -3 -7 -6 3 -6 23 -1 28 -6 37 -27 45 -25 9 -25 9 -7 29 10 11 23 32
30 46 10 24 55 44 68 31 3 -3 5 -27 5 -54 0 -36 4 -48 15 -48 23 0 28 44 12
101 -15 49 -15 51 4 56 11 3 20 15 20 27 1 17 2 17 6 4 6 -24 83 -26 83 -3 0
8 -4 15 -10 15 -5 0 -10 5 -10 10 0 6 9 10 20 10 15 0 20 -7 20 -25 0 -14 6
-25 13 -25 8 0 19 11 25 25 6 14 17 25 24 25 9 0 9 -3 0 -12 -20 -20 -14 -40
11 -36 22 3 39 48 18 48 -6 0 -11 9 -11 20 0 11 -6 20 -14 20 -8 0 -21 18 -30
40 -9 22 -21 40 -26 40 -6 0 -44 16 -84 35 -41 19 -80 34 -88 32 -7 -2 -10 -2
-5 0 4 3 7 13 7 24 0 21 -3 22 -39 12 -20 -5 -22 -11 -18 -38 3 -17 1 -38 -4
-46 -6 -10 -9 -10 -9 -1 0 6 -7 12 -15 12 -8 0 -15 -7 -15 -15 0 -8 6 -15 14
-15 19 0 8 -40 -13 -48 -24 -9 -41 -28 -41 -46 0 -23 26 -19 44 6 20 28 27 20
20 -24 -5 -29 -10 -35 -25 -31 -22 6 -59 -22 -60 -46 0 -10 -2 -12 -6 -3 -8
19 -71 15 -77 -5 -3 -10 -3 3 -1 30 4 37 1 47 -10 47 -8 0 -15 -8 -16 -17 0
-14 -3 -13 -11 5 -6 12 -15 22 -20 22 -4 0 -8 12 -7 28 0 15 3 21 6 15 6 -16
33 -17 33 -2 0 13 25 39 39 39 6 0 13 -11 17 -25 3 -14 12 -25 19 -25 9 0 12
16 10 55 -1 45 2 56 17 61 30 9 22 34 -12 34 -17 0 -30 -5 -30 -12 0 -9 -3
-10 -8 -2 -6 10 -65 34 -83 34 -4 0 -9 -7 -11 -16 -2 -12 -10 -9 -37 15 -41
37 -58 39 -71 9 -9 -23 -9 -23 -9 -2 -1 14 -9 24 -23 28 -38 10 -46 7 -52 -19
-4 -16 -13 -25 -25 -25 -11 0 -21 -4 -23 -8 -1 -5 -30 -7 -63 -4 l-61 4 1 42
c3 63 4 66 25 66 24 0 39 29 20 40 -7 4 -11 13 -8 20 3 9 29 -28 33 -47 0 -1
12 -4 28 -8 26 -7 27 -5 27 29 0 20 5 36 10 36 6 0 10 6 10 13 0 9 11 12 35 9
27 -3 35 -1 35 12 0 9 -4 16 -9 16 -4 0 -6 11 -3 25 4 22 1 25 -22 25 -14 0
-26 6 -26 13 0 7 13 12 29 12 26 0 31 -4 36 -35 4 -19 16 -42 27 -52 26 -22
88 -25 88 -3 0 8 5 15 10 15 6 0 10 -6 10 -14 0 -12 13 -14 70 -9 42 4 70 2
70 -4 0 -5 9 -19 20 -31 24 -25 60 -29 60 -7 0 17 2 18 24 9 9 -3 16 -13 16
-21 0 -11 7 -13 32 -8 64 15 76 67 18 80 -28 6 -43 25 -20 25 6 0 10 7 10 15
0 8 -4 15 -10 15 -5 0 -12 11 -16 25 -3 14 -9 25 -13 25 -4 0 -5 16 -3 35 3
28 8 35 26 34 16 -1 17 -2 4 -6 -26 -7 -24 -53 2 -53 13 0 20 7 20 20 0 17 5
19 25 14 21 -5 25 -3 25 15 0 12 -4 21 -10 21 -5 0 -10 7 -10 15 0 8 5 15 10
15 6 0 10 -4 10 -10 0 -5 7 -10 15 -10 8 0 15 7 15 15 0 8 7 15 15 15 8 0 15
7 15 15 0 8 9 19 20 25 28 15 26 46 -5 54 -14 4 -25 11 -25 16 0 6 -6 10 -14
10 -16 0 -25 19 -18 38 6 17 22 15 22 -3 0 -10 11 -15 33 -16 17 -1 24 -3 15
-6 -25 -6 -23 -33 2 -33 11 0 20 5 20 10 0 6 5 10 11 10 6 0 17 7 25 15 9 8
19 15 24 15 4 0 10 -7 14 -15 3 -8 1 -15 -4 -15 -6 0 -10 -6 -10 -14 0 -8 -13
-17 -30 -21 -21 -5 -30 -13 -30 -26 0 -25 31 -25 50 1 8 11 22 20 32 20 10 0
18 7 18 15 0 8 6 25 13 36 9 16 9 23 1 26 -9 3 -8 12 3 33 12 25 17 28 33 18
14 -9 21 -8 35 6 20 20 13 66 -10 66 -8 0 -15 5 -15 10 0 6 -7 10 -15 10 -8 0
-15 -9 -15 -20 0 -13 -7 -20 -20 -20 -11 0 -20 5 -20 10 0 13 37 50 50 50 6 0
10 12 10 26 0 23 2 24 15 10 8 -8 15 -26 15 -40 0 -14 3 -26 8 -26 4 0 18 -3
31 -7 22 -5 23 -4 19 20 -3 15 -1 27 3 27 5 0 9 7 9 15 0 8 -4 15 -10 15 -5 0
-10 7 -10 15 0 8 -7 15 -15 15 -8 0 -15 4 -15 9 0 5 9 7 20 4 23 -6 27 18 10
61 -7 20 -6 24 5 19 8 -3 15 -14 15 -24 0 -21 30 -27 31 -6 0 10 2 10 6 0 7
-18 33 -16 33 2 0 8 -7 15 -15 15 -8 0 -15 5 -15 10 0 6 -7 10 -15 10 -8 0
-15 5 -15 10 0 6 -6 10 -14 10 -9 0 -12 8 -8 25 6 32 -23 35 -32 3 -5 -18 -8
-20 -15 -9 -7 11 -16 11 -55 -2 -39 -14 -46 -14 -46 -1 0 8 -7 14 -15 14 -8 0
-15 -7 -15 -15 0 -8 5 -15 10 -15 6 0 10 -4 10 -9 0 -5 -13 -4 -30 2 -16 6
-30 17 -30 24 0 7 -4 13 -10 13 -5 0 -10 7 -10 15 0 9 9 15 25 15 14 0 28 7
31 15 5 12 8 12 20 0 8 -7 14 -18 14 -24z m-1836 -5 c15 -13 26 -28 26 -34 0
-5 7 -13 16 -16 12 -4 14 -14 9 -36 -5 -23 -3 -30 8 -30 15 0 27 29 27 68 0
14 -9 26 -25 34 -30 14 -33 28 -5 28 11 0 20 -5 20 -11 0 -8 12 -10 35 -6 19
3 35 2 35 -4 0 -5 7 -9 15 -9 8 0 15 -7 15 -15 0 -8 -4 -15 -9 -15 -10 0 -14
-10 -25 -62 -4 -16 -13 -28 -21 -28 -8 0 -15 -7 -15 -15 0 -8 7 -15 15 -15 8
0 15 5 15 10 0 6 7 10 15 10 9 0 18 12 22 30 3 17 9 30 13 30 5 0 11 14 15 30
4 17 11 30 17 30 6 0 8 9 5 20 -3 11 -1 20 4 20 5 0 9 -7 9 -15 0 -20 29 -19
63 4 36 23 72 17 73 -12 1 -12 5 -32 9 -43 5 -17 2 -22 -19 -26 -18 -4 -26 -1
-26 8 0 8 7 14 15 14 8 0 15 7 15 15 0 22 -40 19 -41 -2 0 -11 -3 -13 -6 -5
-7 17 -33 15 -33 -3 0 -8 6 -15 13 -15 9 0 8 -3 -2 -9 -8 -5 -11 -16 -6 -31 5
-17 12 -20 31 -16 17 5 22 3 18 -8 -3 -8 -13 -12 -25 -9 -13 4 -19 0 -19 -11
0 -9 -4 -16 -10 -16 -5 0 -10 -7 -10 -15 0 -8 -4 -15 -10 -15 -5 0 -10 -7 -10
-15 0 -8 -4 -15 -9 -15 -5 0 -12 -13 -16 -30 -7 -30 -35 -43 -35 -15 0 8 5 15
10 15 6 0 10 7 10 15 0 8 -9 15 -19 15 -11 0 -28 11 -39 25 -16 20 -25 24 -51
19 -17 -4 -31 -13 -31 -20 0 -8 -4 -14 -10 -14 -5 0 -10 -12 -10 -27 0 -22 -2
-25 -10 -13 -5 8 -7 24 -4 36 3 12 -1 28 -10 37 -9 8 -16 20 -16 26 0 6 -14
11 -30 11 -24 0 -35 -7 -48 -30 -9 -16 -20 -30 -24 -30 -13 0 -9 -20 7 -36 16
-16 10 -44 -10 -44 -8 0 -11 8 -8 20 4 14 0 20 -11 20 -9 0 -16 -4 -16 -10 0
-5 -4 -10 -10 -10 -16 0 -11 25 10 50 23 26 26 46 8 53 -7 2 -10 8 -5 12 4 5
13 3 19 -3 22 -22 41 -14 34 13 -4 16 -2 25 5 25 6 0 9 9 6 20 -4 16 0 20 22
20 30 0 51 16 51 38 0 10 -8 13 -23 10 -13 -2 -29 1 -35 9 -8 8 -9 13 -2 13 5
0 10 7 10 15 0 20 5 19 34 -9z m732 -6 c20 0 34 5 35 13 0 10 2 10 6 0 5 -15
40 -18 45 -4 2 4 23 10 48 13 25 3 39 4 33 1 -18 -7 -16 -53 2 -53 7 0 18 -6
22 -14 4 -8 37 -22 72 -31 69 -18 74 -16 87 33 13 49 41 5 29 -48 -5 -23 -3
-30 9 -30 9 0 16 6 16 14 0 17 24 28 44 20 20 -8 8 -34 -15 -34 -10 0 -19 -7
-19 -15 0 -35 79 -8 80 27 1 7 8 0 17 -17 11 -20 12 -30 4 -33 -14 -5 -15 -32
-1 -32 6 0 8 -11 4 -25 -5 -21 -3 -25 15 -25 14 0 23 -8 27 -26 5 -21 11 -25
30 -21 19 3 26 -1 30 -19 3 -13 12 -24 20 -24 19 0 18 35 -2 54 -13 14 -13 16
0 16 8 0 18 9 21 21 6 19 7 20 20 2 8 -10 10 -19 5 -21 -5 -2 -7 -30 -3 -61 4
-39 2 -61 -6 -65 -20 -13 -13 -39 9 -33 11 3 20 1 20 -4 0 -5 9 -9 20 -9 23 0
41 31 22 38 -7 2 -10 8 -6 13 8 14 32 -15 39 -47 3 -16 2 -23 -1 -16 -8 18
-34 15 -34 -4 0 -13 -3 -14 -15 -4 -14 12 -55 5 -55 -10 0 -4 -9 -6 -20 -3
-11 3 -20 1 -20 -5 0 -6 -10 -14 -22 -18 -30 -10 -118 -11 -118 -1 0 4 -8 7
-19 7 -10 0 -21 9 -24 20 -6 23 -37 27 -37 5 0 -9 7 -18 15 -21 8 -4 15 -12
15 -20 0 -7 10 -16 23 -19 17 -5 22 -13 23 -40 0 -19 -3 -35 -8 -35 -4 0 -8 5
-8 10 0 15 -19 12 -36 -5 -18 -18 -10 -55 12 -55 8 0 14 4 14 9 0 13 54 24 58
12 2 -6 10 -11 18 -11 8 0 14 -4 14 -9 0 -5 14 -12 31 -16 17 -4 40 -16 50
-26 19 -19 19 -19 -6 -19 -16 0 -25 -6 -25 -16 0 -12 -7 -14 -32 -9 -33 8 -56
27 -38 33 20 7 10 32 -12 32 -13 0 -33 3 -45 6 -19 5 -23 2 -23 -15 0 -37 -26
-23 -41 22 -8 23 -12 48 -11 56 2 8 -2 18 -10 22 -11 7 -10 11 2 19 11 7 16 5
18 -5 2 -8 10 -15 19 -15 12 0 14 6 8 27 -4 16 -8 29 -10 31 -6 6 -55 -11 -55
-19 0 -5 -8 -9 -17 -9 -10 0 -27 -7 -37 -15 -28 -21 -38 -19 -34 8 2 18 8 22
36 19 23 -1 32 2 32 13 0 8 -7 15 -15 15 -8 0 -21 12 -29 28 -12 23 -12 29 0
40 7 6 18 12 24 12 5 0 10 7 10 16 0 23 24 11 28 -14 3 -19 -1 -22 -27 -22
-32 0 -36 -6 -25 -34 7 -17 34 -22 34 -6 0 6 5 10 10 10 6 0 10 -9 10 -20 0
-38 29 -22 32 18 3 34 5 37 33 35 16 -1 31 -7 33 -13 5 -13 32 -13 32 0 0 6
11 8 25 4 18 -4 25 -2 25 9 0 8 -12 18 -27 22 -16 4 -22 10 -15 12 6 3 12 11
12 19 0 19 -30 30 -39 15 -6 -9 -15 -8 -37 4 -24 12 -26 15 -9 16 11 1 30 1
43 0 13 -1 22 4 22 13 0 17 -27 28 -51 21 -15 -5 -19 -1 -18 17 0 13 3 17 6
11 7 -18 33 -16 33 2 0 8 5 15 10 15 6 0 10 7 10 15 0 21 -30 19 -31 -2 0 -11
-3 -13 -6 -5 -2 6 -10 12 -17 12 -16 0 -43 33 -39 47 2 6 13 9 23 6 14 -4 20
0 20 11 0 20 -32 35 -38 18 -2 -7 -10 -12 -17 -12 -7 0 -15 -9 -18 -21 -10
-38 -30 -10 -23 32 5 31 3 39 -9 39 -8 0 -15 -7 -15 -15 0 -19 -14 -19 -32 -2
-7 8 -32 17 -56 20 l-42 7 0 -42 c0 -23 -3 -38 -7 -35 -3 4 -6 20 -5 37 0 22
-4 30 -16 30 -11 0 -13 3 -5 8 19 12 11 76 -9 80 -14 3 -18 -3 -18 -27 0 -17
-5 -31 -11 -31 -7 0 -9 -10 -5 -25 7 -26 0 -31 -23 -16 -17 11 -5 51 15 51 8
0 14 7 14 15 0 8 -7 15 -15 15 -8 0 -15 -4 -15 -10 0 -5 -12 -10 -26 -10 -21
0 -25 -4 -21 -20 3 -13 0 -20 -9 -20 -8 0 -14 -5 -14 -11 0 -5 -4 -8 -9 -5 -5
3 -7 14 -4 24 3 14 -5 23 -29 35 -18 9 -27 17 -20 17 17 0 15 30 -3 30 -8 0
-15 -7 -15 -15 0 -9 -6 -12 -16 -8 -9 3 -20 0 -25 -8 -6 -10 -9 -10 -9 -1 0 7
-12 11 -32 10 -26 -2 -33 1 -35 17 -1 11 0 14 3 8 8 -18 64 -17 64 1 0 9 7 12
18 9 13 -3 22 4 32 24 11 22 14 24 17 11 3 -13 14 -18 39 -18z m3563 -125 c19
6 21 4 15 -19 -5 -20 -2 -26 10 -26 9 0 16 5 16 10 0 6 5 10 10 10 18 0 70
-43 70 -57 0 -7 6 -14 13 -14 6 -1 -1 -4 -18 -8 -29 -6 -30 -8 -31 -66 -2 -67
15 -105 46 -105 24 0 28 38 5 46 -8 4 -15 10 -15 15 0 5 7 9 15 9 8 0 15 5 15
10 0 6 4 10 8 10 5 0 9 -20 9 -45 0 -51 5 -60 28 -51 12 4 15 15 12 33 -2 16
-2 22 0 16 3 -7 13 -13 24 -13 10 0 19 -7 19 -15 0 -8 5 -15 10 -15 6 0 10 -7
10 -15 0 -9 -9 -15 -25 -15 -16 0 -25 -6 -25 -15 0 -9 9 -15 25 -15 14 0 25 5
25 10 0 6 5 10 11 10 7 0 20 9 29 21 l18 20 7 -21 c5 -15 13 -20 25 -17 12 3
20 -2 24 -16 3 -12 3 -23 1 -26 -3 -2 -5 1 -5 7 0 7 -13 12 -30 12 -25 0 -30
-4 -30 -25 0 -18 5 -25 20 -25 22 0 23 -1 14 -24 -3 -9 -12 -16 -20 -16 -13 0
-17 -18 -18 -105 -1 -20 -7 -31 -18 -33 -22 -4 -24 -42 -2 -42 20 0 42 -22 37
-37 -3 -7 3 -23 11 -35 22 -30 20 -48 -4 -48 -11 0 -20 -7 -20 -15 0 -8 7 -15
16 -15 14 0 14 -2 0 -15 -8 -8 -19 -15 -24 -15 -10 0 -22 -23 -22 -41 0 -5 9
-9 20 -9 13 0 20 7 20 20 0 33 39 2 46 -37 7 -36 34 -46 34 -13 0 11 4 20 8
20 5 0 8 -34 8 -75 -1 -54 -5 -75 -14 -75 -18 0 -24 -22 -14 -51 5 -13 6 -35
2 -49 -5 -22 -14 -10 -63 85 -32 61 -70 135 -85 165 -15 30 -29 57 -32 60 -3
3 -21 37 -42 75 -46 89 -73 138 -132 247 -26 48 -45 92 -41 98 8 13 35 13 35
0 0 -5 9 -10 20 -10 11 0 20 4 20 8 0 4 14 13 30 19 17 6 30 7 30 2 0 -5 7 -9
15 -9 8 0 15 7 15 15 0 8 -7 15 -15 15 -8 0 -15 5 -15 10 0 6 -7 10 -15 10 -9
0 -28 11 -43 25 -15 14 -31 25 -35 25 -12 0 -37 -26 -37 -39 0 -5 -7 -17 -17
-26 -15 -15 -18 -13 -44 40 -15 30 -32 62 -38 69 -9 11 -8 18 4 29 8 9 15 23
15 31 0 21 -38 21 -42 0 -2 -11 -9 -5 -20 20 -17 35 -17 36 3 36 12 0 29 8 38
18 9 10 24 21 34 25 10 4 17 15 16 24 0 10 -1 25 0 33 1 12 3 13 10 1 5 -8 16
-11 30 -6z m1091 -85 c0 -13 -5 -17 -20 -13 -24 6 -27 -18 -5 -41 8 -8 15 -20
15 -26 0 -17 26 -40 44 -40 9 0 16 -4 16 -10 0 -5 -7 -10 -15 -10 -27 0 -16
-29 18 -44 37 -18 105 -14 119 6 7 9 8 7 3 -7 -4 -11 -10 -28 -12 -37 -4 -12
-15 -18 -34 -18 -19 0 -29 -5 -29 -15 0 -8 -4 -15 -10 -15 -5 0 -10 -9 -10
-20 0 -11 7 -20 15 -20 8 0 15 -6 15 -14 0 -9 -7 -12 -20 -9 -21 5 -25 -3 -14
-31 8 -21 31 -20 37 2 3 10 5 5 6 -12 1 -25 4 -28 26 -24 18 4 25 1 25 -11 -1
-17 -50 -59 -50 -41 0 5 -13 10 -30 10 -20 0 -30 -5 -30 -15 0 -10 10 -15 29
-15 25 0 31 -5 36 -30 4 -16 13 -30 21 -30 8 0 14 -4 14 -10 0 -13 -26 -13
-52 1 -15 8 -17 13 -8 19 19 12 4 40 -20 40 -11 0 -23 -7 -26 -15 -7 -17 -64
-21 -64 -5 0 6 7 10 15 10 8 0 15 7 15 15 0 8 -5 15 -11 15 -7 0 -20 10 -30
21 -11 13 -25 19 -34 15 -10 -3 -14 -2 -10 5 4 6 20 7 37 3 28 -6 30 -4 25 15
-6 24 12 91 25 91 4 0 8 7 8 15 0 17 -26 21 -32 4 -2 -7 -11 -7 -28 0 -14 5
-19 10 -12 10 17 1 15 31 -2 31 -8 0 -17 -6 -19 -12 -4 -8 -6 -7 -6 4 -1 9 4
18 10 20 15 5 0 58 -17 58 -8 0 -20 -11 -26 -25 -13 -28 -43 -33 -52 -9 -10
27 -7 31 19 26 15 -2 25 0 25 7 0 6 7 11 15 11 9 0 21 12 27 26 10 21 9 27 -3
35 -11 7 -11 9 4 9 14 0 17 9 17 50 0 38 4 50 15 50 8 0 15 7 15 16 0 8 5 12
10 9 6 -3 10 -14 10 -25z m-581 3 c14 3 21 0 21 -9 0 -8 9 -14 20 -14 12 0 20
-7 20 -16 0 -11 6 -15 20 -11 11 3 20 1 20 -4 0 -15 37 -10 44 6 3 9 18 15 36
15 16 0 30 5 30 10 0 6 9 10 20 10 11 0 20 -7 20 -15 0 -8 9 -15 20 -15 13 0
20 7 20 20 0 21 33 35 67 28 14 -3 17 -12 15 -36 -1 -18 2 -32 8 -32 5 0 10
-11 10 -25 0 -14 5 -25 11 -25 8 0 8 -4 -1 -15 -6 -8 -9 -23 -5 -35 4 -11 2
-20 -4 -20 -6 0 -11 -7 -11 -15 0 -8 5 -15 10 -15 6 0 10 -9 10 -20 0 -17 -5
-19 -25 -14 -19 5 -25 2 -25 -10 0 -9 5 -16 11 -16 5 0 8 -4 4 -10 -11 -18 7
-60 26 -60 10 0 19 7 19 15 0 8 -4 15 -10 15 -8 0 -2 22 15 57 5 10 66 -25 71
-40 4 -13 12 -17 25 -14 12 3 19 0 19 -9 0 -14 -14 -11 -60 13 -37 19 -50 16
-50 -11 0 -16 7 -26 23 -30 l22 -7 -25 -10 c-17 -7 -26 -7 -28 0 -2 6 -15 11
-28 11 -14 0 -27 7 -30 15 -8 21 -34 19 -35 -2 0 -14 -3 -12 -12 6 -9 19 -9
25 1 29 6 2 12 10 12 18 0 19 -39 18 -46 -1 -7 -18 -24 -20 -24 -2 -1 13 -64
57 -82 57 -5 0 -23 9 -39 21 -17 12 -37 18 -46 15 -9 -4 -20 -1 -24 5 -4 7
-38 20 -76 30 -37 10 -60 18 -50 18 9 1 17 8 17 16 0 8 5 15 10 15 6 0 10 11
10 25 0 17 -6 25 -17 25 -15 0 -15 2 1 19 12 13 16 27 11 43 -4 16 -4 19 3 9
6 -8 19 -12 31 -8z m-3976 -136 c35 16 66 6 60 -18 -6 -22 22 -28 30 -6 3 7 6
5 6 -5 2 -34 31 -20 32 15 0 17 3 26 6 20 5 -15 30 -17 35 -4 2 5 9 3 16 -5
11 -12 8 -14 -19 -14 -27 0 -31 -3 -26 -21 4 -13 0 -22 -11 -27 -22 -8 -42
-28 -42 -41 0 -6 9 -20 21 -32 11 -11 18 -23 15 -26 -3 -4 -14 4 -25 15 -19
23 -41 29 -41 12 0 -16 -40 -12 -46 5 -4 9 -19 15 -35 15 -16 0 -29 5 -29 10
0 6 -7 10 -15 10 -8 0 -15 -7 -15 -15 0 -8 5 -15 10 -15 6 0 10 -9 10 -21 0
-18 -2 -19 -15 -5 -8 8 -15 22 -15 30 0 9 -6 16 -14 16 -23 0 -27 28 -5 35 10
4 19 11 19 16 0 5 7 9 16 9 12 0 15 6 10 24 -4 18 -2 25 11 28 10 2 21 -1 25
-6 4 -6 15 -6 31 1z m4149 -283 c-6 -31 16 -32 43 -1 24 28 52 40 60 27 4 -6
15 -10 26 -10 23 0 41 -39 25 -56 -6 -6 -18 -9 -27 -7 -11 3 -18 -4 -23 -21
-3 -14 -13 -26 -21 -26 -8 0 -15 -7 -15 -15 0 -8 7 -15 15 -15 8 0 15 4 15 10
0 5 7 7 15 4 8 -4 15 -15 15 -25 0 -24 30 -25 31 -1 0 14 2 14 9 -3 13 -31 12
-45 -5 -45 -8 0 -15 -7 -15 -16 0 -13 9 -15 45 -12 44 3 45 2 51 -30 5 -27 10
-33 25 -29 12 3 19 0 19 -8 0 -8 -8 -11 -20 -8 -14 4 -20 0 -20 -11 0 -19 29
-34 39 -19 10 15 51 23 51 10 0 -12 -45 -37 -66 -37 -7 0 -14 -5 -16 -12 -3
-9 -12 -9 -38 0 -44 16 -60 15 -60 -3 0 -8 11 -17 25 -21 22 -6 24 -9 18 -50
-5 -37 -3 -44 11 -44 9 0 21 10 26 23 5 12 9 16 9 10 1 -7 13 -12 29 -12 47 2
61 9 65 32 3 15 5 12 6 -10 0 -18 6 -33 12 -33 19 0 39 -28 39 -54 0 -14 -4
-26 -9 -26 -13 0 -21 -83 -10 -97 12 -14 3 -53 -13 -53 -5 0 -7 7 -4 16 8 22
-15 84 -31 84 -15 0 -16 -10 -4 -43 8 -19 6 -27 -5 -31 -8 -3 -14 -1 -14 4 0
6 -11 10 -25 10 -14 0 -25 5 -25 10 0 6 -7 10 -16 10 -12 0 -15 -6 -10 -22 3
-13 6 -28 6 -34 0 -7 19 -11 52 -11 32 1 53 -4 56 -11 2 -7 10 -12 18 -12 8 0
14 -5 14 -10 0 -13 -52 -1 -62 14 -5 8 -13 7 -28 -2 -12 -7 -20 -8 -20 -2 0 5
-6 10 -14 10 -17 0 -30 -61 -15 -71 8 -5 8 -12 0 -27 -18 -33 7 -102 36 -102
14 0 23 6 23 15 0 8 -3 15 -7 15 -5 0 -13 11 -20 25 -8 19 -8 25 1 25 7 0 20
-18 30 -41 16 -35 21 -40 42 -35 14 4 24 2 24 -4 0 -5 11 -10 25 -10 16 0 25
6 25 15 0 8 -9 15 -20 15 -11 0 -20 5 -20 11 0 6 7 8 16 5 9 -3 20 -6 25 -6
13 0 11 -27 -3 -51 -10 -17 -10 -23 -1 -26 7 -2 15 -20 19 -39 6 -30 2 -37
-37 -73 -37 -33 -45 -37 -51 -23 -3 9 -4 27 -1 40 4 16 1 22 -11 22 -9 0 -16
-3 -16 -7 0 -17 -49 -7 -54 10 -4 16 0 17 25 12 22 -5 29 -3 29 9 0 9 -11 18
-25 22 -14 3 -25 12 -25 19 0 8 -14 15 -32 17 -26 2 -34 9 -41 33 -5 17 -13
38 -18 47 -13 26 -11 29 15 22 22 -5 24 -3 24 30 0 24 -5 36 -14 36 -8 0 -14
-8 -15 -17 0 -12 -4 -8 -11 10 -5 15 -17 27 -25 27 -15 0 -15 -11 3 -55 7 -19
7 -19 -9 -3 -9 9 -17 26 -17 37 0 12 -4 21 -9 21 -11 0 -51 66 -51 86 0 10 12
14 39 14 l38 0 1 46 c1 41 -1 46 -18 41 -11 -3 -20 -1 -20 4 0 5 7 9 15 9 21
0 19 30 -2 46 -17 13 -17 15 0 25 15 9 16 21 12 86 -3 46 -10 80 -17 85 -23
14 -38 8 -39 -14 -1 -21 -2 -20 -11 5 -5 15 -14 27 -19 27 -5 0 -9 14 -9 30 0
25 -4 30 -25 30 -19 0 -25 -5 -25 -22 0 -13 -5 -30 -10 -38 -8 -11 -9 -9 -5
10 4 17 0 33 -13 48 -22 25 -42 29 -42 7 0 -8 -5 -15 -10 -15 -18 0 -23 30
-10 54 7 13 9 33 6 44 -4 11 -2 23 4 27 5 3 10 1 10 -4 0 -6 7 -11 15 -11 20
0 20 28 0 32 -13 3 -13 6 0 32 8 15 15 35 15 42 0 8 5 14 10 14 6 0 10 7 10
15 0 8 -5 15 -11 15 -8 0 -8 4 0 14 19 22 49 9 43 -20z m638 -314 c0 -13 7
-20 20 -20 12 0 20 -7 20 -16 0 -16 19 -15 64 2 9 3 16 1 16 -5 0 -6 7 -11 15
-11 8 0 15 7 15 15 0 8 3 15 8 15 4 0 17 3 28 6 19 5 21 2 17 -20 -5 -26 -23
-47 -23 -27 0 6 -7 11 -15 11 -8 0 -15 -6 -15 -14 0 -10 -12 -12 -50 -8 -40 4
-50 2 -50 -10 0 -11 16 -17 60 -22 33 -4 65 -4 70 -1 15 9 11 -47 -5 -68 -8
-11 -21 -17 -32 -14 -16 4 -15 6 5 12 31 10 27 32 -8 40 -16 4 -30 11 -30 16
0 5 -7 9 -15 9 -19 0 -20 -25 -2 -42 8 -7 12 -20 9 -30 -3 -12 1 -18 12 -18 9
0 16 -4 16 -10 0 -16 57 -12 64 5 3 8 12 15 20 15 12 0 14 11 11 53 -2 28 -2
44 1 35 3 -10 11 -18 17 -18 7 0 6 -4 -2 -9 -12 -8 -13 -14 -3 -36 15 -33 16
-32 -8 -38 -12 -3 -20 -14 -20 -26 0 -12 -6 -21 -15 -21 -8 0 -15 5 -15 10 0
13 -43 13 -56 0 -14 -14 -42 -2 -49 21 -4 10 -13 19 -21 19 -8 0 -14 7 -14 15
0 8 -9 15 -20 15 -11 0 -20 -7 -20 -15 0 -8 6 -15 14 -15 7 0 16 -9 19 -20 5
-18 2 -20 -28 -14 -31 5 -33 4 -39 -31 -7 -36 -45 -85 -66 -85 -5 0 -10 -7
-10 -15 0 -8 7 -15 15 -15 8 0 15 4 15 9 0 13 33 19 58 10 38 -14 27 -37 -18
-35 -26 0 -45 -5 -51 -14 -8 -11 -12 -12 -16 -2 -2 6 -12 12 -21 13 -11 0 -12
2 -4 6 6 2 12 11 12 18 0 7 -6 16 -12 18 -8 3 -6 6 5 6 18 1 25 31 7 31 -7 0
-7 6 0 19 14 27 13 51 -4 51 -7 0 -19 -20 -26 -45 -14 -50 -26 -55 -58 -25
-23 21 -32 90 -12 90 6 0 10 23 10 50 0 28 -4 50 -10 50 -5 0 -10 16 -10 35 0
19 -4 35 -10 35 -5 0 -10 5 -10 10 0 6 6 10 14 10 8 0 17 6 19 13 3 6 6 2 6
-10 1 -15 7 -23 19 -24 13 0 12 -3 -5 -11 -29 -14 -29 -23 2 -53 27 -28 45
-32 45 -10 0 8 -4 15 -10 15 -5 0 -10 9 -10 20 0 11 7 20 15 20 8 0 15 -4 15
-10 0 -5 9 -10 20 -10 14 0 20 7 20 21 0 16 -5 20 -20 16 -21 -5 -25 0 -12 19
11 18 66 42 81 36 8 -2 18 3 23 12 12 22 28 20 28 -4z m-790 -190 c13 -8 12
-10 -2 -10 -10 0 -18 -7 -18 -15 0 -8 -5 -15 -11 -15 -15 0 -3 -61 14 -73 9
-7 9 -10 0 -14 -7 -2 -13 -13 -13 -24 0 -22 29 -26 48 -7 14 14 16 68 3 68 -5
0 -11 9 -14 20 -3 11 -4 20 -2 20 2 0 10 3 19 6 12 4 16 0 16 -15 0 -12 4 -21
9 -21 16 0 19 -38 4 -44 -10 -4 -13 -14 -10 -26 7 -26 -18 -39 -60 -33 -31 5
-33 3 -34 -23 -1 -17 -3 -22 -6 -11 -2 9 -10 17 -17 17 -9 0 -12 9 -8 25 3 20
0 25 -16 25 -27 0 -36 27 -11 33 21 6 24 31 9 74 -9 26 -9 27 5 9 8 -11 15
-28 15 -38 0 -10 7 -18 15 -18 17 0 19 18 5 54 -8 23 -7 26 10 26 11 0 20 5
20 10 0 13 11 13 30 0z m1434 -149 c3 -5 -4 -11 -17 -15 -14 -3 -27 -18 -35
-39 -16 -44 -15 -47 8 -47 11 0 20 -4 20 -10 0 -5 9 -10 19 -10 12 0 23 -9 27
-22 4 -13 15 -30 25 -39 11 -9 19 -21 19 -28 0 -6 14 -11 30 -11 28 0 30 -2
24 -26 -4 -14 -3 -29 2 -33 5 -3 14 -20 20 -37 10 -28 10 -31 -7 -27 -11 3
-19 14 -19 24 0 11 -7 19 -17 19 -10 0 -28 3 -40 6 -19 5 -23 2 -22 -17 0 -13
-3 -43 -7 -66 -5 -36 -4 -43 10 -43 9 0 16 -7 16 -15 0 -8 5 -15 11 -15 8 0 9
-23 4 -77 -8 -91 -14 -106 -35 -93 -12 8 -13 11 -1 19 9 6 11 18 7 38 -5 23
-3 32 8 36 20 8 21 37 2 37 -9 0 -12 7 -9 20 4 13 0 20 -10 20 -8 0 -17 7 -21
15 -7 20 -36 19 -36 0 0 -9 9 -19 20 -23 13 -5 17 -11 11 -21 -12 -19 -41 -6
-41 19 0 11 -7 20 -15 20 -9 0 -20 10 -25 23 -16 38 -36 57 -61 57 -21 0 -21
1 -5 13 13 9 16 20 11 40 -4 15 -11 27 -16 27 -5 0 -9 11 -9 25 0 14 -5 25
-11 25 -7 0 -5 10 6 26 9 14 14 32 11 40 -3 8 1 14 9 14 9 0 15 9 15 23 0 31
22 77 38 77 6 0 12 9 12 20 0 15 7 20 25 20 14 0 25 5 25 10 0 12 17 13 24 1z
m-6052 -166 c14 -30 43 -35 35 -5 -3 13 0 20 9 20 8 0 14 -7 14 -15 0 -8 5
-15 10 -15 6 0 10 -8 9 -17 0 -11 -3 -13 -6 -5 -11 27 -33 11 -39 -28 -6 -34
-9 -38 -25 -30 -26 15 -39 12 -39 -8 0 -10 -9 -24 -20 -32 -11 -8 -20 -25 -20
-37 0 -13 -3 -23 -7 -24 -5 0 -27 -2 -50 -5 -50 -5 -58 4 -38 42 12 23 15 25
21 11 9 -24 27 -21 58 8 29 27 34 45 11 45 -8 0 -15 3 -15 6 0 8 22 48 29 54
4 3 12 17 18 33 15 34 30 34 45 2z m-567 -85 c18 0 35 6 38 13 2 7 8 8 13 3 5
-5 4 -11 -3 -13 -22 -8 -14 -31 15 -41 17 -7 21 -11 10 -11 -22 -1 -23 -24 -3
-45 10 -10 13 -24 9 -41 -5 -18 -2 -25 9 -25 28 0 47 12 47 30 0 10 7 21 16
24 24 9 30 -2 10 -17 -13 -10 -16 -20 -12 -35 10 -29 36 -28 36 1 0 25 36 55
42 35 7 -19 38 0 38 22 0 11 7 20 15 20 8 0 15 7 15 15 0 8 5 15 10 15 6 0 10
-4 10 -10 0 -5 7 -10 15 -10 8 0 15 4 15 9 0 5 10 11 23 14 18 5 20 4 7 -6 -8
-7 -21 -24 -29 -39 -8 -16 -20 -28 -27 -28 -10 0 -12 -18 -9 -77 3 -68 7 -79
31 -98 20 -16 25 -26 20 -43 -4 -13 -16 -22 -27 -22 -15 0 -18 5 -13 24 4 19
1 26 -15 31 -12 3 -21 13 -21 21 0 8 -7 14 -15 14 -8 0 -15 -7 -15 -15 0 -8 5
-15 10 -15 6 0 10 -7 10 -15 0 -8 -7 -15 -15 -15 -8 0 -15 9 -15 19 0 11 -3
26 -6 34 -4 11 4 17 25 22 18 4 31 13 31 22 0 11 -7 14 -24 9 -18 -4 -25 -1
-29 13 -3 14 0 17 14 14 11 -3 19 -1 19 3 0 5 3 19 6 32 5 16 2 22 -9 22 -9 0
-17 -8 -19 -17 -3 -16 -4 -16 -20 0 -9 9 -21 17 -27 17 -15 0 -14 -30 2 -31 6
0 -4 -6 -23 -13 -36 -13 -54 -46 -26 -46 9 0 16 -7 16 -15 0 -8 7 -15 15 -15
8 0 15 -4 15 -10 0 -5 -9 -10 -19 -10 -11 0 -23 -4 -26 -10 -3 -5 -15 -10 -25
-10 -10 0 -20 -6 -22 -12 -3 -9 -9 -8 -21 4 -22 21 -12 48 15 40 16 -4 19 -1
16 14 -4 22 -57 32 -68 13 -5 -7 -16 -9 -26 -5 -13 5 -15 9 -6 18 22 22 13 36
-23 36 -27 0 -40 -6 -52 -24 -8 -13 -13 -31 -9 -39 4 -13 2 -13 -14 -5 -27 15
-50 12 -50 -5 0 -8 6 -15 14 -15 9 0 12 -8 8 -27 -4 -20 -7 -23 -10 -10 -4 21
-32 23 -32 2 0 -8 -4 -15 -10 -15 -14 0 -13 27 2 32 7 3 9 11 3 24 -12 28 -5
85 11 102 8 8 17 13 19 10 7 -7 -7 -48 -16 -48 -5 0 -9 -7 -9 -15 0 -8 7 -15
15 -15 8 0 15 7 15 15 0 11 7 14 25 9 19 -5 25 -2 25 10 0 9 5 16 10 16 17 0
11 28 -7 33 -19 4 -16 7 33 22 9 3 18 14 21 25 3 11 11 20 18 20 7 0 16 11 19
25 7 28 -12 55 -37 55 -32 0 -45 11 -39 33 l7 22 3 -22 c3 -19 10 -23 37 -23z
m6430 -100 c3 -5 -3 -10 -14 -10 -19 0 -39 -35 -27 -48 12 -11 77 -6 85 7 6 9
10 8 13 -7 4 -15 1 -18 -13 -15 -17 5 -19 -1 -19 -46 0 -44 3 -51 20 -51 11 0
20 -4 20 -9 0 -5 -9 -7 -19 -4 -22 6 -41 -35 -22 -46 7 -5 2 -12 -14 -21 -40
-21 -33 -43 13 -37 20 3 29 3 19 0 -12 -3 -17 -11 -14 -23 3 -13 -2 -20 -19
-24 -25 -7 -34 -36 -11 -36 6 0 12 -11 12 -24 0 -16 -3 -21 -9 -15 -15 14 -36
11 -36 -6 0 -7 8 -19 18 -24 15 -9 15 -10 -5 -11 -13 0 -23 -6 -23 -14 0 -19
51 -31 62 -14 8 10 11 10 15 1 2 -7 9 -13 13 -13 5 0 26 -11 46 -25 20 -14 32
-25 25 -25 -6 0 -11 -9 -11 -20 0 -11 -4 -20 -10 -20 -5 0 -10 -16 -10 -35 0
-22 -6 -38 -15 -41 -16 -6 -21 -34 -7 -34 5 0 7 -23 6 -52 -2 -33 1 -55 9 -60
9 -6 8 -12 -5 -22 -21 -15 -24 -52 -5 -59 10 -4 10 -7 0 -18 -7 -7 -13 -28
-13 -46 0 -21 -5 -33 -14 -33 -11 0 -15 33 -21 153 -7 150 -24 227 -50 227
-12 0 -31 -137 -41 -293 -4 -54 -8 -96 -10 -94 -2 1 -5 61 -9 132 -3 72 -7
160 -10 198 -4 55 -2 67 10 67 8 0 15 7 15 15 0 8 5 15 10 15 6 0 10 7 10 15
0 18 -36 20 -43 3 -3 -9 -10 -7 -21 7 -18 23 -20 35 -6 35 6 0 10 7 10 15 0 9
9 15 25 15 16 0 25 6 25 15 0 9 -9 15 -25 15 -14 0 -25 -4 -25 -10 0 -5 -6
-10 -14 -10 -9 0 -15 20 -19 63 -3 35 -7 70 -9 78 -2 7 7 18 20 24 15 6 22 17
20 30 -3 22 -38 34 -38 13 0 -8 -13 -22 -30 -31 -25 -15 -29 -16 -24 -2 3 8
12 15 20 15 8 0 14 9 14 20 0 11 7 20 15 20 17 0 21 26 5 32 -5 2 1 16 15 32
14 16 25 39 25 52 0 13 8 29 18 36 25 17 45 56 38 74 -4 10 3 14 24 14 16 0
32 -4 35 -10z m-295 -366 c0 -8 10 -14 25 -14 16 0 25 6 25 15 0 19 16 19 24
0 3 -8 -1 -21 -9 -29 -17 -16 -20 -36 -6 -36 4 0 8 -30 8 -67 0 -38 3 -85 5
-106 3 -27 0 -41 -9 -44 -17 -7 -17 -63 0 -63 9 0 8 -3 -2 -9 -8 -5 -11 -16
-6 -30 7 -24 -10 -29 -19 -5 -3 9 -6 40 -6 71 0 76 -26 163 -49 163 -10 0 -23
-10 -29 -22 -8 -17 -11 -19 -11 -6 -1 9 -4 23 -7 32 -4 12 0 16 15 16 12 0 21
6 21 15 0 8 -9 15 -20 15 -11 0 -20 6 -20 13 0 6 -3 23 -5 37 -5 23 -4 23 6
-2 6 -16 17 -28 25 -28 16 0 18 31 5 77 -7 23 -6 33 2 36 16 6 37 -12 37 -29z
m-5530 -745 c0 -12 -8 -23 -20 -26 -11 -3 -20 -9 -20 -14 0 -5 -7 -9 -15 -9
-8 0 -15 -7 -15 -15 0 -8 -5 -15 -11 -15 -7 0 -9 -10 -5 -25 4 -14 2 -25 -3
-25 -5 0 -12 -14 -16 -30 -4 -17 -15 -36 -26 -43 -10 -6 -19 -17 -19 -24 0
-25 -32 -10 -43 20 -7 18 -37 24 -37 7 0 -5 -7 -10 -15 -10 -18 0 -20 -26 -2
-33 6 -3 2 -6 -10 -6 -12 -1 -28 -4 -37 -7 -14 -6 -14 -3 -1 22 8 16 15 34 15
39 0 6 9 16 21 23 14 9 19 20 16 33 -3 12 0 19 10 19 18 0 52 39 53 61 0 9 7
19 15 23 24 9 17 34 -12 43 -21 7 -2 10 75 11 97 2 102 1 102 -19z m193 4 c9
-3 17 -9 17 -13 0 -4 11 -11 25 -14 27 -7 34 -26 10 -26 -8 0 -15 5 -15 10 0
6 -7 10 -15 10 -8 0 -15 -6 -15 -12 0 -7 -3 -23 -6 -35 -5 -17 -2 -23 10 -23
9 0 16 4 16 10 0 5 8 6 17 3 14 -5 14 -8 2 -11 -7 -2 -21 -14 -31 -25 -14 -18
-19 -19 -32 -8 -9 7 -21 11 -28 8 -9 -3 -13 6 -14 25 -1 37 -5 39 -42 32 -22
-4 -32 -12 -32 -25 0 -10 -5 -21 -10 -24 -6 -4 -10 -14 -9 -23 4 -28 -23 -72
-43 -72 -10 0 -18 -7 -18 -15 0 -19 -7 -19 -27 0 -18 18 -11 43 14 52 23 9 43
29 43 42 0 6 5 11 10 11 6 0 10 7 10 15 0 8 5 15 11 15 7 0 8 11 4 29 -6 27
-4 29 16 24 19 -5 21 -3 17 15 -4 15 -2 22 8 22 8 0 14 -9 14 -20 0 -32 27
-23 34 11 5 25 10 30 23 24 10 -4 26 -10 36 -12z m638 -3 c9 -8 20 -26 23 -40
5 -16 4 -20 -2 -12 -11 16 -58 6 -66 -14 -3 -8 -15 -14 -26 -14 -11 0 -20 -4
-20 -10 0 -5 -7 -10 -15 -10 -8 0 -15 -7 -15 -15 0 -8 7 -15 15 -15 8 0 15 5
15 10 0 11 59 14 84 4 17 -7 22 -44 6 -44 -5 0 -10 6 -10 14 0 13 -20 26 -40
26 -5 0 -10 -12 -12 -27 -3 -26 -6 -28 -42 -25 -25 2 -44 -3 -57 -14 -10 -9
-19 -14 -19 -10 0 12 25 51 38 59 17 11 15 37 -4 37 -9 0 -18 -9 -21 -19 -3
-11 -11 -22 -18 -25 -11 -4 -13 5 -11 37 4 58 14 76 36 70 23 -6 39 35 19 49
-9 6 11 8 56 6 45 -2 76 -8 86 -18z m-1236 -46 c-1 -30 -5 -58 -9 -61 -3 -4
-6 -1 -6 5 0 7 -7 12 -15 12 -8 0 -15 -5 -15 -11 0 -6 -7 -17 -15 -25 -8 -9
-15 -28 -15 -44 0 -20 -6 -31 -20 -35 -13 -4 -20 -15 -20 -31 0 -21 -3 -23
-19 -14 -11 5 -27 10 -35 10 -23 0 -19 -27 5 -33 11 -3 25 -19 32 -36 6 -17
17 -31 24 -31 7 0 13 -8 12 -17 0 -11 -3 -13 -6 -5 -7 17 -33 15 -33 -2 0 -8
6 -17 13 -20 9 -5 9 -7 0 -12 -7 -3 -13 -16 -13 -29 0 -12 -6 -25 -14 -28 -8
-3 -17 -19 -21 -36 -4 -17 -10 -31 -15 -31 -12 0 -33 -57 -25 -69 3 -6 1 -11
-4 -11 -6 0 -11 -7 -11 -15 0 -8 4 -15 9 -15 5 0 12 -11 15 -25 6 -24 36 -36
36 -15 0 6 7 10 15 10 24 0 19 47 -7 56 -19 6 -19 7 -5 16 10 5 17 16 17 23 0
8 5 15 10 15 6 0 10 7 10 15 0 8 11 17 24 21 17 4 27 15 31 35 4 16 11 29 16
29 5 0 9 6 9 14 0 16 55 27 69 13 5 -5 33 -11 62 -14 54 -4 81 -13 42 -13 -17
0 -21 -6 -21 -35 0 -23 5 -35 14 -35 8 0 14 7 14 15 0 8 5 15 10 15 6 0 10 -4
10 -10 0 -5 7 -10 15 -10 8 0 15 -7 15 -15 0 -8 5 -15 10 -15 6 0 10 -9 10
-20 0 -11 -4 -20 -10 -20 -5 0 -10 -6 -10 -14 0 -8 -13 -17 -30 -21 -17 -4
-30 -13 -30 -22 0 -11 6 -14 25 -9 17 4 31 1 40 -8 18 -18 19 -30 3 -56 -11
-17 -10 -22 2 -30 8 -5 12 -10 8 -10 -3 0 -13 -3 -22 -6 -13 -5 -16 1 -16 26
0 25 -4 31 -17 28 -26 -5 -52 21 -59 59 -7 34 -33 46 -35 16 -1 -17 -2 -17 -6
0 -2 9 -11 17 -19 17 -8 0 -14 5 -14 11 0 14 -47 3 -66 -16 -8 -7 -27 -16 -44
-20 -27 -6 -44 -35 -20 -35 6 0 10 -7 10 -16 0 -19 24 -44 42 -44 9 0 10 -2 1
-8 -14 -9 -28 -62 -17 -62 5 0 19 -3 32 -6 16 -5 22 -2 22 10 0 9 -4 16 -10
16 -5 0 -10 7 -10 15 0 8 5 15 10 15 23 0 9 38 -16 44 -18 5 -24 12 -20 22 3
9 6 20 6 25 0 5 14 9 30 9 22 0 30 5 31 18 0 10 3 12 6 5 2 -7 11 -13 19 -13
8 0 14 -7 14 -15 0 -8 7 -15 15 -15 8 0 17 -11 21 -25 3 -14 13 -25 21 -25 16
0 43 -23 43 -37 0 -5 -6 -18 -14 -28 -13 -18 -14 -18 -9 8 4 22 2 27 -16 27
-12 0 -21 -6 -21 -15 0 -8 -7 -15 -16 -15 -11 0 -14 -8 -12 -27 2 -22 8 -28
25 -27 31 1 37 -23 7 -29 -13 -2 -24 0 -24 4 0 5 -6 9 -14 9 -9 0 -12 7 -9 20
4 15 0 20 -16 20 -12 0 -21 -6 -21 -15 0 -8 -3 -15 -7 -15 -5 0 -17 -18 -27
-40 -21 -43 -30 -49 -40 -25 -3 8 -12 15 -21 15 -9 0 -18 12 -21 30 -4 17 -13
30 -21 30 -12 0 -14 -7 -10 -30 5 -22 3 -30 -8 -30 -8 0 -15 7 -15 15 0 8 -8
15 -17 15 -20 1 -64 30 -45 30 20 0 13 27 -8 33 -12 3 -20 14 -20 26 0 14 -6
21 -20 21 -21 0 -28 -24 -10 -35 17 -10 11 -42 -8 -47 -16 -5 -19 1 -19 46 0
28 -2 66 -5 85 -2 20 1 39 9 46 17 18 17 35 -2 35 -26 0 -16 25 16 39 26 11
29 17 24 42 -4 19 -3 29 5 29 6 0 10 8 8 18 -2 9 3 24 12 33 19 21 60 34 60
20 0 -6 7 -11 15 -11 8 0 15 7 15 15 0 8 -4 15 -9 15 -19 0 -19 29 0 49 28 30
21 57 -14 54 -15 -1 -27 2 -27 8 0 5 5 9 10 9 6 0 10 12 10 26 0 28 26 91 47
112 7 7 13 22 13 33 0 10 7 19 15 19 8 0 15 7 15 15 0 8 5 15 10 15 6 0 10 7
10 15 0 8 8 15 19 15 13 0 20 9 25 30 4 21 11 30 25 30 17 0 19 -6 16 -56z
m515 -384 c5 0 12 -9 15 -20 4 -13 15 -20 31 -20 15 0 24 -6 24 -15 0 -8 7
-15 15 -15 8 0 15 7 15 15 0 8 -5 15 -11 15 -14 0 -7 52 9 58 6 2 12 -3 12
-12 0 -9 7 -16 15 -16 8 0 15 -7 15 -15 0 -8 4 -15 10 -15 5 0 12 -16 16 -35
3 -20 12 -35 20 -35 8 0 14 -4 14 -10 0 -5 -7 -10 -16 -10 -12 0 -15 -6 -10
-25 9 -36 0 -46 -30 -33 -20 10 -27 9 -35 -3 -16 -25 -11 -42 11 -36 11 3 20
1 20 -4 0 -5 -8 -9 -18 -9 -33 0 -82 -30 -82 -51 0 -22 28 -26 36 -4 9 22 23
18 17 -5 -4 -14 0 -20 12 -20 9 0 19 9 22 20 3 11 14 20 24 20 11 0 19 7 19
18 0 13 2 14 9 4 12 -20 61 -4 61 19 0 10 -7 19 -15 19 -8 0 -15 -5 -15 -12 0
-6 -2 -9 -5 -7 -2 3 -2 15 2 27 4 17 10 21 30 16 21 -6 25 -3 23 17 -4 42 -1
49 21 49 16 0 20 5 16 20 -5 21 1 24 27 14 20 -8 21 -31 1 -50 -19 -19 -19
-44 -1 -44 31 0 62 19 76 46 25 47 45 61 97 68 57 7 83 1 83 -21 0 -10 7 -14
20 -10 11 3 20 1 20 -4 0 -5 7 -9 15 -9 8 0 15 -4 15 -10 0 -5 -4 -10 -10 -10
-5 0 -10 -13 -10 -30 0 -34 28 -43 37 -12 2 10 14 22 26 27 12 6 23 20 25 33
2 12 9 22 16 22 8 0 20 10 29 23 8 12 17 20 20 17 2 -3 7 -39 10 -81 l7 -76
-25 5 c-20 3 -25 0 -25 -17 0 -12 -6 -21 -15 -21 -8 0 -15 -3 -15 -8 0 -12
-83 -11 -95 2 -6 6 -14 19 -18 29 -9 24 -47 22 -47 -3 0 -11 -4 -20 -10 -20
-5 0 -10 9 -10 19 0 21 -52 41 -58 22 -2 -6 -10 -11 -18 -11 -8 0 -14 -6 -14
-14 0 -17 -27 -29 -35 -16 -8 13 -75 13 -75 0 0 -5 -9 -10 -20 -10 -11 0 -20
-7 -20 -15 0 -11 -7 -14 -25 -9 -19 5 -25 2 -25 -9 0 -9 5 -19 10 -22 16 -10
12 -35 -6 -35 -11 0 -15 -6 -11 -20 4 -15 0 -20 -14 -20 -10 0 -19 5 -19 10 0
6 -7 10 -15 10 -8 0 -15 5 -15 10 0 6 -7 10 -15 10 -8 0 -15 5 -15 10 0 6 -11
10 -25 10 -14 0 -25 -4 -25 -10 0 -5 -7 -10 -15 -10 -8 0 -15 -6 -16 -12 0 -7
-7 2 -15 20 -8 18 -22 36 -32 39 -22 9 -42 29 -42 42 0 6 -7 11 -15 11 -8 0
-15 -9 -15 -20 0 -14 -7 -20 -21 -20 -16 0 -20 -5 -16 -19 3 -14 0 -17 -15
-13 -11 2 -15 8 -10 11 13 9 23 84 13 100 -5 8 -18 12 -30 8 -12 -3 -24 -1
-27 4 -3 5 -12 9 -21 9 -10 0 -14 -6 -10 -20 3 -13 0 -20 -10 -20 -17 0 -43
-24 -43 -39 0 -6 -9 -11 -20 -11 -16 0 -20 7 -20 35 0 21 -5 35 -12 36 -10 0
-10 2 0 6 6 2 12 11 12 18 0 7 -6 16 -12 18 -10 4 -9 8 2 16 9 6 16 7 18 1 5
-15 32 -12 32 3 0 8 11 24 25 37 14 13 25 31 26 39 0 11 2 12 6 4 2 -7 12 -13
20 -13 11 0 14 7 11 25 -4 21 -1 25 18 25 15 0 24 -6 24 -15 0 -8 7 -15 16
-15 9 0 14 7 13 18 -5 34 11 62 37 62 13 0 25 6 25 13 1 6 4 2 6 -10 2 -13 8
-23 13 -23z m6044 -495 c-5 -28 -3 -35 9 -35 9 0 20 6 24 14 6 11 20 13 51 9
28 -4 39 -9 30 -14 -7 -4 -23 -6 -35 -2 -20 4 -23 1 -23 -21 0 -14 5 -26 10
-26 6 0 10 -5 10 -11 0 -8 -5 -8 -15 1 -8 7 -22 10 -30 6 -18 -6 -20 -36 -3
-36 6 0 8 -3 4 -7 -4 -4 -27 -6 -51 -4 -35 2 -45 -1 -45 -13 0 -9 8 -16 20
-16 11 0 20 -4 20 -8 0 -5 -10 -8 -22 -8 -14 1 -24 -6 -26 -16 -2 -12 3 -18
16 -18 14 0 21 -9 25 -27 6 -33 -2 -39 -59 -48 -40 -6 -42 -8 -42 -40 0 -23 5
-35 17 -38 9 -3 -1 -5 -21 -6 -38 -1 -51 12 -23 23 21 8 19 37 -4 43 -11 3
-21 13 -24 24 -6 24 -34 25 -40 2 -3 -11 -5 -7 -6 10 -1 21 5 30 24 37 27 10
32 29 13 48 -9 9 -8 12 4 12 9 0 19 11 22 25 4 14 11 25 16 25 6 0 10 8 11 18
0 10 3 12 6 5 7 -19 33 -16 34 5 0 13 2 13 9 -4 7 -17 17 -22 44 -22 33 0 36
2 36 29 0 16 -4 29 -10 29 -5 0 -10 11 -10 25 0 14 5 25 10 25 6 0 10 9 10 20
0 11 5 20 10 20 7 0 8 -13 4 -35z m-6017 -10 c29 -4 64 -15 77 -26 29 -23 46
-24 46 -4 0 8 9 15 20 15 11 0 20 7 20 16 0 8 5 12 10 9 16 -10 12 -35 -6 -35
-20 0 -44 -24 -44 -45 0 -13 -6 -15 -31 -10 -29 7 -31 5 -26 -14 3 -15 1 -21
-6 -18 -7 2 -13 16 -15 30 -4 33 -32 37 -32 5 -1 -21 -2 -22 -14 -5 -17 22
-25 22 -42 0 -7 -10 -16 -14 -21 -9 -4 5 -2 11 5 13 21 8 14 36 -8 30 -13 -3
-20 0 -20 9 0 24 -30 16 -31 -8 -1 -21 -2 -21 -6 -3 -7 26 -17 32 -70 40 -24
3 -41 10 -38 16 8 12 52 12 57 -1 2 -5 17 -12 34 -16 26 -5 32 -2 37 15 4 18
9 20 29 12 12 -5 47 -12 75 -16z m5619 -85 c8 0 14 9 14 19 0 11 5 23 10 26 6
3 10 -1 10 -9 0 -9 7 -16 15 -16 8 0 15 4 15 9 0 8 82 41 102 41 21 0 5 -19
-22 -25 -16 -4 -32 -15 -35 -26 -4 -10 -11 -19 -16 -19 -17 0 -9 -30 9 -31 13
0 12 -2 -5 -9 -13 -5 -23 -16 -23 -25 0 -22 41 -19 47 4 3 12 16 21 34 23 34
5 39 -11 9 -30 -11 -7 -20 -18 -20 -26 0 -15 -21 -26 -51 -26 -10 0 -19 -7
-19 -15 0 -8 -7 -15 -15 -15 -8 0 -15 -7 -15 -15 0 -8 7 -15 16 -15 14 0 14
-2 0 -15 -28 -29 -42 -15 -37 38 1 9 -3 17 -8 17 -6 0 -11 8 -10 18 0 10 3 12
6 5 7 -18 33 -16 33 2 0 8 -7 15 -15 15 -8 0 -15 5 -15 10 0 6 -6 10 -14 10
-19 0 -31 -51 -14 -62 8 -5 3 -6 -14 -2 -16 3 -28 2 -28 -3 0 -6 -11 -15 -25
-21 -14 -6 -25 -18 -25 -27 0 -8 -4 -15 -10 -15 -5 0 -10 -7 -10 -15 0 -18 26
-20 33 -2 4 9 8 8 16 -3 13 -18 14 -67 3 -72 -13 -5 -24 -88 -12 -88 5 0 10
-4 10 -10 0 -23 -21 -7 -26 20 -6 30 -29 41 -36 18 -3 -7 -13 7 -24 30 -16 35
-23 41 -41 37 -18 -4 -23 -1 -23 14 0 11 -3 28 -7 38 -6 17 -6 17 10 1 9 -9
17 -21 17 -27 0 -6 7 -11 15 -11 8 0 15 7 15 15 0 8 -4 15 -9 15 -16 0 -18 89
-2 95 15 6 31 -11 31 -32 0 -7 7 -13 16 -13 12 0 15 6 11 22 -9 34 30 63 77
58 15 -1 17 3 12 24 -3 13 -2 28 4 31 15 9 12 45 -4 51 -15 6 -56 -28 -56 -45
0 -5 6 -11 13 -14 7 -3 5 -7 -8 -12 -11 -5 -30 -19 -42 -33 -13 -14 -23 -19
-23 -12 0 8 -8 10 -21 7 -20 -5 -21 -3 -15 34 4 24 2 39 -4 39 -5 0 -10 7 -10
15 0 8 5 15 10 15 6 0 10 -4 10 -10 0 -5 7 -10 15 -10 8 0 15 7 15 15 0 8 4
15 9 15 5 0 12 16 15 35 7 34 36 51 36 20 0 -8 9 -15 20 -15 11 0 20 6 20 14
0 8 8 16 18 18 13 3 18 -4 20 -29 2 -21 9 -33 18 -33z m-5071 -90 c-3 -6 -4
-19 0 -29 5 -15 15 -19 50 -19 41 0 45 2 45 24 0 13 5 24 10 24 6 0 10 -4 10
-10 0 -15 33 -50 48 -50 16 0 42 -24 42 -39 0 -6 7 -11 15 -11 8 0 15 5 15 10
0 6 5 10 10 10 6 0 10 -6 10 -14 0 -8 6 -16 13 -19 8 -3 2 -13 -16 -31 -35
-33 -47 -33 -47 -1 0 26 -7 29 -34 19 -19 -7 -21 -30 -3 -37 6 -3 -8 -5 -33
-5 -25 0 -39 2 -32 5 6 2 12 13 12 24 0 10 7 19 15 19 8 0 15 7 15 15 0 8 7
15 15 15 8 0 15 7 15 15 0 8 -7 15 -15 15 -8 0 -15 -7 -15 -15 0 -9 -9 -15
-25 -15 -14 0 -25 -6 -25 -12 0 -10 -2 -10 -9 0 -10 16 -61 6 -61 -12 0 -6 -9
-17 -20 -24 -13 -7 -20 -8 -20 -2 0 6 -10 14 -22 19 -20 7 -18 9 15 15 24 4
37 12 37 23 0 10 -6 14 -18 11 -10 -3 -22 0 -27 6 -15 17 -13 56 2 56 7 0 13
7 13 15 0 8 5 15 11 15 5 0 7 -5 4 -10z m302 -300 c-7 -52 1 -80 23 -80 20 0
30 -19 30 -55 0 -12 7 -25 15 -29 8 -3 15 -13 15 -23 0 -14 -3 -14 -20 5 -11
12 -20 26 -20 32 0 5 -4 10 -8 10 -5 0 -14 11 -20 25 -13 28 -42 34 -42 9 0
-9 9 -25 21 -35 25 -22 18 -59 -12 -59 -10 0 -19 -4 -19 -10 0 -5 -17 -10 -38
-10 -21 0 -44 -6 -51 -12 -11 -10 -14 -10 -18 0 -3 6 -12 12 -20 12 -11 0 -14
-7 -9 -25 5 -20 3 -25 -14 -25 -11 0 -20 5 -20 10 0 6 -7 10 -15 10 -8 0 -15
-7 -15 -15 0 -8 7 -15 15 -15 8 0 15 -7 15 -15 0 -8 -5 -15 -12 -15 -6 0 -20
-7 -30 -17 -17 -15 -18 -15 -18 0 0 10 -7 17 -15 17 -8 0 -15 -7 -15 -15 0 -8
4 -15 9 -15 5 0 12 -13 16 -30 5 -23 12 -30 31 -30 28 0 34 29 7 31 -10 1 -3
5 16 9 19 5 44 4 55 0 12 -5 16 -9 10 -9 -7 -1 -14 -10 -17 -21 -3 -11 -12
-20 -21 -20 -9 0 -16 -8 -16 -20 0 -17 -7 -20 -40 -20 -29 0 -40 -4 -40 -15 0
-13 -2 -14 -14 -3 -12 11 -11 14 5 20 19 7 27 48 10 48 -5 0 -28 -7 -51 -15
-24 -8 -45 -14 -47 -12 -7 7 10 97 18 97 5 0 9 7 9 15 0 8 -7 15 -15 15 -8 0
-15 -6 -15 -14 0 -9 -7 -12 -20 -9 -15 4 -20 0 -20 -16 0 -14 -6 -21 -19 -21
-11 0 -26 -3 -35 -6 -11 -4 -16 -1 -16 10 0 9 -8 16 -20 16 -16 0 -20 -7 -20
-34 0 -25 -5 -35 -19 -39 -14 -3 -18 -1 -14 9 3 8 9 14 14 14 5 0 9 7 9 15 0
8 -8 15 -17 15 -14 0 -15 2 -5 9 11 6 11 17 4 45 -6 21 -7 36 -1 36 5 0 9 9 9
20 0 13 7 20 20 20 13 0 20 7 20 20 0 11 6 20 13 20 17 0 37 48 44 109 4 37 9
49 16 42 16 -16 48 -13 69 6 17 15 18 15 18 -5 0 -11 8 -23 18 -25 9 -3 2 -5
-15 -6 -39 -1 -45 -27 -10 -41 22 -9 22 -9 1 -9 -12 -1 -24 6 -28 14 -3 8 -14
15 -24 15 -18 0 -32 -33 -32 -76 0 -17 52 -19 81 -4 13 7 19 7 19 0 0 -20 29
-9 32 12 2 14 11 24 23 25 11 2 14 0 8 -3 -14 -6 -18 -40 -5 -47 4 -3 27 -8
51 -12 l44 -7 -5 30 c-3 24 0 32 16 36 11 3 23 1 26 -4 3 -4 26 -8 53 -8 34 0
47 4 47 14 0 8 -4 14 -10 14 -5 0 -10 7 -10 15 0 20 -17 19 -38 -2 -16 -16
-17 -15 -20 8 -6 47 13 76 55 84 21 5 46 7 56 6 12 -2 17 5 17 23 0 14 3 26 6
26 4 0 4 -18 1 -40z m5188 -190 c7 0 20 6 27 14 19 18 58 30 58 17 0 -5 10
-13 22 -17 20 -6 20 -8 5 -19 -21 -15 -22 -35 -3 -35 8 0 22 -7 31 -16 8 -9
23 -13 31 -10 10 4 14 1 12 -6 -3 -7 -15 -14 -27 -16 -16 -3 -24 2 -28 17 -6
25 -33 28 -33 4 0 -21 -14 -8 -15 15 -1 9 -2 27 -3 40 -2 21 -32 33 -32 12 0
-5 -11 -10 -25 -10 -35 0 -32 -27 5 -35 26 -6 28 -9 17 -26 -6 -10 -22 -19
-34 -19 -18 0 -23 -6 -23 -25 0 -16 6 -25 15 -25 8 0 15 5 15 10 0 6 7 10 15
10 8 0 15 5 15 10 0 6 7 10 15 10 24 0 17 -19 -10 -26 -17 -4 -28 -16 -34 -38
-7 -24 -9 -26 -10 -8 -1 31 -31 29 -31 -3 0 -17 6 -25 18 -25 14 0 15 -2 2
-10 -24 -16 -30 -12 -30 20 0 24 -4 30 -22 31 -13 0 -17 3 -10 6 17 7 15 33
-3 33 -8 0 -15 -4 -15 -10 0 -15 -16 -12 -34 5 -8 8 -26 15 -40 15 -16 0 -26
-6 -26 -15 0 -9 9 -15 24 -15 19 0 23 -4 19 -21 -4 -15 0 -22 16 -26 12 -3 21
-13 21 -25 0 -15 -4 -18 -22 -12 -25 7 -38 22 -38 42 0 7 -14 12 -35 12 -19 0
-35 -4 -35 -10 0 -5 -9 -10 -20 -10 -11 0 -20 5 -20 10 0 6 -7 10 -15 10 -8 0
-15 -8 -15 -19 0 -13 -9 -20 -30 -24 -34 -7 -42 -37 -9 -37 12 0 19 -5 16 -12
-2 -8 -16 -12 -35 -10 -22 2 -34 -1 -38 -12 -3 -9 -12 -16 -19 -16 -8 0 -15
-12 -17 -27 -3 -27 -4 -26 -17 12 -21 61 -91 115 -91 70 0 -8 4 -15 9 -15 14
0 -6 -63 -24 -76 -18 -14 -19 -31 -2 -37 7 -3 5 -6 -5 -6 -10 -1 -18 -8 -18
-16 0 -8 -9 -15 -20 -15 -13 0 -20 -7 -20 -20 0 -13 -7 -20 -19 -20 -10 0 -24
-7 -31 -15 -7 -8 -19 -15 -27 -15 -7 0 -16 -7 -19 -15 -4 -9 -19 -15 -36 -15
-25 0 -29 -3 -25 -19 3 -14 0 -17 -14 -14 -21 6 -28 -22 -7 -29 7 -3 6 -7 -5
-11 -9 -3 -17 -2 -17 4 0 6 -14 7 -35 3 -35 -6 -36 -6 -24 20 12 26 29 35 29
16 0 -5 7 -10 15 -10 8 0 15 7 15 15 0 8 -4 15 -10 15 -13 0 -50 37 -50 50 0
6 5 10 10 10 6 0 10 6 10 14 0 17 46 56 66 56 18 0 18 -15 -1 -34 -8 -8 -15
-26 -15 -39 0 -20 6 -25 37 -30 44 -8 63 5 63 44 0 16 5 29 10 29 6 0 10 -4
10 -10 0 -5 7 -10 16 -10 11 0 15 6 11 20 -4 17 0 20 24 20 19 0 29 5 29 15 0
8 7 15 15 15 9 0 15 9 15 21 0 16 -5 20 -20 16 -13 -3 -20 0 -20 8 0 7 -2 19
-3 27 -2 7 -2 10 0 6 7 -12 51 -10 58 2 10 16 -17 80 -33 80 -10 0 -13 -7 -9
-20 4 -17 2 -20 -13 -15 -9 3 -30 1 -45 -5 -23 -9 -27 -15 -23 -39 3 -23 1
-27 -14 -23 -12 3 -18 13 -17 31 2 34 16 91 18 69 1 -25 28 -22 36 3 9 27 1
33 -39 33 -32 0 -33 1 -23 23 6 14 13 19 17 13 8 -13 60 -3 60 11 0 5 9 9 19
9 13 0 21 -9 26 -30 7 -30 35 -43 35 -15 0 8 6 15 14 15 8 0 16 4 18 9 2 4 12
5 23 0 17 -7 18 -8 2 -8 -16 -1 -37 -36 -37 -62 0 -13 24 -11 56 6 16 8 45 14
64 14 19 -1 27 -3 18 -6 -10 -2 -18 -11 -18 -19 0 -8 -4 -14 -10 -14 -5 0 -10
-7 -10 -15 0 -8 7 -15 15 -15 8 0 15 6 15 14 0 8 14 19 30 25 17 5 30 15 30
20 0 6 7 11 15 11 11 0 15 11 15 40 0 22 4 40 9 40 16 0 22 36 11 64 -8 21 -7
28 5 32 8 4 15 13 15 21 0 12 2 12 15 -1 8 -8 15 -19 15 -25 0 -6 5 -11 10
-11 6 0 10 -7 10 -15 0 -8 8 -15 18 -16 10 0 12 -3 5 -6 -26 -10 -13 -33 17
-33 33 0 35 5 20 44 -8 21 -6 26 6 26 8 0 12 -5 9 -10 -10 -16 5 -50 22 -50
11 0 14 6 9 25 -5 18 -2 25 9 25 8 0 15 7 15 15 0 8 -7 15 -17 15 -9 0 -14 2
-11 5 3 4 17 3 32 -1 25 -6 25 -7 11 -41 -8 -20 -15 -44 -15 -54 0 -29 29 -22
36 9 10 46 12 48 13 15 1 -22 6 -33 16 -33 19 0 21 86 3 94 -9 3 -8 8 5 16 9
6 18 21 18 33 2 17 3 16 6 -5 2 -16 10 -28 18 -28z m-5162 -255 c-3 -8 -11
-15 -19 -15 -8 0 -14 -7 -14 -15 0 -8 -4 -15 -10 -15 -19 0 -10 -32 10 -37 11
-3 20 -7 20 -10 0 -9 -29 -33 -39 -33 -6 0 -11 -7 -11 -15 0 -8 5 -15 10 -15
6 0 10 -7 10 -15 0 -8 7 -15 15 -15 8 0 15 7 15 15 0 8 -4 15 -10 15 -5 0 -10
5 -10 10 0 6 12 10 26 10 22 0 24 -3 18 -22 -3 -13 -11 -24 -15 -26 -5 -2 -9
-19 -9 -38 0 -24 -5 -34 -15 -34 -8 0 -15 -7 -15 -16 0 -14 -2 -14 -22 0 -12
9 -35 16 -49 16 -22 0 -26 4 -22 20 4 16 -2 23 -26 31 -32 11 -42 29 -16 29 9
0 15 9 15 21 0 18 -4 20 -25 15 -30 -8 -33 9 -5 24 11 6 20 19 20 30 0 14 10
21 36 26 26 5 41 15 53 35 11 21 24 29 44 29 15 0 27 5 27 11 0 5 4 8 10 4 5
-3 7 -12 3 -20z m-814 -26 c24 -5 47 -6 52 -3 5 2 23 -3 40 -11 20 -11 48 -15
75 -13 24 2 44 0 44 -4 0 -13 48 -9 52 4 3 9 6 9 11 1 4 -6 0 -18 -9 -27 -10
-10 -13 -24 -9 -37 6 -19 4 -21 -15 -16 -33 8 -80 -3 -80 -19 0 -8 -7 -14 -15
-14 -8 0 -15 -4 -15 -10 0 -5 -6 -10 -14 -10 -8 0 -16 -6 -19 -14 -4 -9 -14
-12 -26 -9 -15 4 -21 1 -21 -11 0 -9 -4 -16 -10 -16 -5 0 -10 5 -10 10 0 6
-11 10 -25 10 -28 0 -30 3 -13 30 16 26 9 31 -35 23 -27 -4 -37 -11 -37 -24 0
-11 -4 -19 -10 -19 -5 0 -10 11 -10 25 0 15 -6 25 -14 25 -9 0 -12 7 -9 21 4
15 0 22 -16 26 -11 3 -21 10 -21 15 0 5 -10 8 -22 6 -18 -2 -24 -11 -28 -38
-4 -30 -9 -35 -35 -38 -16 -2 -33 -8 -36 -13 -12 -20 -58 10 -74 47 -8 20 -15
39 -15 42 0 2 25 2 56 -2 49 -6 55 -4 54 11 -1 10 -2 24 -1 31 1 17 46 15 61
-3 7 -8 18 -15 25 -15 7 0 15 7 19 15 3 8 14 15 25 15 11 0 26 7 33 15 8 9 21
12 33 9 11 -3 40 -10 64 -15z m3931 -159 c0 -5 6 -10 13 -10 7 0 20 -9 30 -20
16 -19 16 -20 -3 -20 -11 0 -20 7 -20 15 0 19 -17 19 -37 0 -19 -19 -10 -45
16 -45 10 0 21 -7 25 -15 4 -11 -1 -15 -19 -15 -14 0 -25 -6 -25 -12 0 -7 -5
-5 -11 5 -15 25 -39 21 -39 -7 0 -13 -7 -26 -15 -30 -19 -7 -20 -56 -1 -56 8
0 17 11 20 25 7 28 46 36 46 10 0 -8 5 -15 10 -15 6 0 16 -5 23 -10 7 -6 23
-18 37 -29 23 -17 23 -19 7 -35 -25 -26 -21 -46 9 -46 17 0 28 6 31 19 4 17
41 36 51 26 9 -8 -10 -45 -24 -45 -8 0 -14 -7 -14 -15 0 -8 7 -15 15 -15 8 0
15 -4 15 -10 0 -5 7 -10 15 -10 21 0 19 30 -2 31 -16 1 -16 2 -1 6 9 2 19 16
23 30 3 15 12 35 20 46 13 18 14 17 20 -17 5 -22 13 -36 22 -36 11 0 14 7 11
25 -3 14 -1 25 3 25 5 0 9 -7 9 -15 0 -8 6 -15 13 -16 10 0 10 -2 0 -6 -7 -2
-13 -13 -13 -23 0 -10 -9 -22 -21 -25 -14 -5 -19 -13 -16 -26 3 -12 -2 -20
-14 -24 -22 -7 -26 -35 -4 -35 8 0 15 -6 15 -14 0 -17 -33 -31 -38 -17 -2 6
-8 11 -14 11 -15 0 -37 32 -38 54 0 13 -5 17 -20 13 -11 -3 -20 -1 -20 5 0 13
-26 38 -39 38 -6 0 -11 -7 -11 -15 0 -8 5 -15 10 -15 6 0 10 -9 10 -20 0 -11
-4 -20 -10 -20 -5 0 -10 5 -10 11 0 16 -26 39 -44 39 -9 0 -16 6 -16 14 0 9 7
12 20 9 14 -4 20 0 20 11 0 9 -6 16 -14 16 -18 0 -27 26 -20 56 5 17 2 24 -9
24 -8 0 -17 -5 -19 -10 -2 -7 -14 -7 -36 1 -25 8 -36 8 -47 -1 -10 -8 -15 -9
-15 -2 0 6 5 14 10 17 6 3 10 17 10 31 0 13 5 24 11 24 6 0 9 9 6 20 -3 11 -1
20 4 20 5 0 9 7 9 16 0 12 -6 15 -25 10 -19 -5 -23 -3 -19 8 7 17 34 30 34 16
0 -6 7 -10 15 -10 8 0 15 7 15 15 0 9 12 29 28 44 29 31 42 37 42 21z m-729
-92 c11 -11 19 -25 19 -30 0 -17 28 -7 33 11 3 12 18 23 38 28 41 11 99 -5 91
-25 -6 -18 15 -32 51 -32 17 0 27 5 27 15 0 10 -10 15 -27 15 -18 0 -24 3 -17
10 16 16 82 0 87 -21 3 -12 0 -19 -9 -19 -8 0 -14 -4 -14 -9 0 -6 -12 -16 -27
-23 -21 -10 -28 -21 -28 -42 1 -23 -1 -25 -11 -12 -20 27 -44 20 -44 -14 0
-16 5 -30 10 -30 6 0 10 -9 10 -19 0 -20 -44 -41 -86 -41 -29 0 -34 -36 -6
-43 13 -4 14 -5 1 -6 -8 0 -25 8 -37 19 -24 23 -38 25 -45 8 -3 -8 -6 -6 -6 5
-1 9 6 17 14 17 8 0 15 5 15 10 0 6 5 10 10 10 6 0 20 9 32 20 24 22 38 26 38
10 0 -5 7 -10 15 -10 8 0 15 7 15 15 0 8 -5 15 -10 15 -6 0 -8 11 -4 25 5 18
1 27 -12 32 -10 4 -19 2 -22 -5 -3 -9 -16 -10 -40 -6 -59 11 -70 20 -81 74
-17 79 -13 87 20 48z m-2991 -48 c0 -26 -4 -30 -26 -30 -17 0 -28 -6 -31 -20
-3 -11 -9 -20 -14 -20 -5 0 -9 -7 -9 -15 0 -20 49 -20 56 0 5 13 9 13 23 -3
15 -18 50 -24 144 -25 20 0 27 -4 23 -14 -4 -8 -6 -21 -6 -29 0 -8 -7 -14 -15
-14 -7 0 -19 -8 -24 -17 -6 -10 -11 -12 -11 -5 0 6 -6 12 -14 12 -9 0 -12 7
-9 20 6 24 -13 27 -42 6 -28 -19 -105 -25 -105 -9 0 7 -11 13 -25 13 -16 0
-25 -6 -25 -15 0 -8 7 -15 15 -15 8 0 15 -8 14 -17 0 -11 -3 -13 -6 -5 -2 6
-14 12 -25 12 -14 0 -18 5 -14 16 3 9 6 25 7 37 0 12 3 16 6 10 7 -18 33 -16
33 2 0 8 -7 15 -15 15 -8 0 -15 5 -15 11 0 7 -9 9 -24 5 -20 -5 -23 -3 -19 14
5 21 33 28 33 9 0 -6 8 -9 17 -7 10 2 24 24 34 53 10 28 18 44 19 38 0 -18 29
-16 36 2 9 23 14 18 14 -15z m1365 -290 c7 -21 5 -22 -20 -16 -19 5 -31 3 -36
-6 -7 -10 -9 -10 -9 0 0 6 -7 12 -15 12 -16 0 -19 -17 -9 -44 8 -20 30 -21 42
-1 10 19 42 10 42 -11 0 -8 10 -14 26 -14 22 0 25 4 21 21 -6 21 9 77 25 94 5
6 4 -3 -1 -18 -17 -44 -14 -127 4 -127 8 0 15 9 15 20 0 11 5 20 10 20 14 0
13 27 -2 32 -6 2 -9 9 -5 15 4 7 17 7 42 -1 29 -9 35 -16 35 -38 0 -23 -4 -28
-25 -28 -32 0 -45 -28 -22 -45 25 -18 21 -35 -8 -35 -14 0 -25 5 -25 10 0 6
-9 10 -20 10 -11 0 -20 -4 -20 -8 0 -5 -13 -7 -30 -4 -23 3 -30 0 -30 -12 0
-9 4 -16 10 -16 5 0 7 -7 4 -15 -8 -20 -24 -9 -24 16 0 11 -7 19 -17 19 -13 0
-12 3 5 19 25 21 30 61 8 61 -8 0 -18 -9 -21 -20 -6 -20 -35 -28 -35 -10 0 6
-7 10 -15 10 -8 0 -15 5 -15 10 0 6 5 10 10 10 16 0 0 72 -20 90 -13 11 -15
18 -6 26 15 14 36 7 36 -12 0 -8 10 -14 25 -14 21 0 25 5 25 30 0 29 0 30 19
11 10 -10 22 -29 26 -41z m669 -129 c22 -9 29 -60 9 -68 -21 -8 -16 -43 7 -43
11 0 20 -7 20 -15 0 -8 7 -15 15 -15 19 0 19 -14 1 -33 -8 -8 -20 -34 -27 -58
-8 -27 -14 -37 -16 -26 -3 9 -10 17 -18 17 -7 0 -16 7 -19 16 -9 24 -7 54 4
54 6 0 10 7 10 15 0 30 -50 12 -51 -19 -1 -16 -2 -17 -6 -3 -2 9 -8 17 -13 17
-4 0 -10 13 -12 29 -4 27 -3 28 19 18 19 -8 26 -7 38 9 8 10 15 27 15 37 0 9
5 17 10 17 16 0 12 30 -5 36 -8 4 -15 10 -15 15 0 10 8 10 34 0z m1439 -5 c3
-8 1 -16 -5 -18 -5 -2 -12 -25 -15 -51 -3 -26 -10 -47 -14 -47 -5 0 -6 12 -3
27 6 23 4 25 -15 20 -11 -3 -21 -1 -21 3 0 10 -69 34 -77 27 -3 -3 -6 -19 -8
-34 -1 -15 -6 -37 -11 -47 -7 -19 -8 -19 -15 0 -4 10 -5 29 -2 42 3 14 1 22
-8 22 -31 0 -41 -16 -34 -54 5 -24 3 -36 -4 -36 -6 0 -11 5 -11 10 0 16 -40
12 -46 -5 -3 -8 -14 -17 -24 -20 -10 -3 -20 -15 -23 -25 -8 -29 -25 -24 -19 5
2 14 8 25 13 25 5 0 9 7 9 15 0 8 5 15 10 15 6 0 10 7 10 15 0 8 -7 15 -15 15
-8 0 -15 7 -15 15 0 8 -7 15 -15 15 -8 0 -15 5 -15 10 0 11 30 13 54 4 9 -3
16 -12 16 -20 0 -25 35 -15 53 16 12 20 26 30 43 30 13 0 24 5 24 11 0 8 4 8
13 1 6 -5 38 -10 70 -11 43 -1 57 3 57 13 0 8 -6 17 -12 19 -7 3 1 6 18 6 19
1 34 -5 37 -13z m-1255 -96 c10 -17 10 -20 -3 -20 -8 0 -15 -4 -15 -9 0 -5
-11 -12 -24 -15 -15 -4 -26 -16 -30 -32 -8 -31 -9 -30 27 -39 21 -6 27 -4 27
9 0 9 -8 16 -17 16 -15 0 -14 2 3 18 16 15 21 16 32 5 21 -21 45 -16 39 7 -3
11 -1 18 4 15 12 -8 22 -70 14 -95 -6 -17 -12 -20 -36 -15 -24 6 -29 3 -29
-13 0 -15 -5 -19 -20 -15 -13 3 -20 14 -20 29 0 15 -6 24 -15 24 -8 0 -15 -9
-15 -20 0 -29 -23 -25 -37 6 -14 30 -9 44 13 44 9 0 14 10 14 29 0 27 39 90
40 64 0 -7 7 -13 16 -13 11 0 15 6 11 20 -3 11 -2 20 2 20 3 0 12 -9 19 -20z"/>
<path d="M5023 6947 c-38 -19 -28 -37 16 -34 43 3 57 -11 63 -63 2 -15 10 -26
22 -28 41 -8 63 -52 26 -52 -11 0 -20 -4 -20 -10 0 -24 -17 -6 -34 35 -11 25
-25 45 -32 45 -14 0 -28 -35 -20 -49 3 -5 -9 -11 -27 -14 -32 -5 -53 2 -29 10
6 3 12 9 12 15 0 13 26 38 39 38 6 0 11 5 11 10 0 6 9 10 20 10 11 0 20 6 20
14 0 17 -51 31 -60 16 -4 -6 -14 -8 -22 -5 -20 8 -68 -32 -68 -57 0 -11 -7
-18 -20 -18 -12 0 -20 -7 -20 -16 0 -12 7 -15 25 -12 17 4 25 1 25 -8 0 -8 7
-14 15 -14 8 0 15 -4 15 -10 0 -5 -7 -10 -15 -10 -8 0 -15 -5 -15 -11 0 -16
26 -39 44 -39 19 0 21 21 4 38 -9 9 -9 12 0 12 7 0 12 -4 12 -10 0 -5 9 -10
20 -10 11 0 20 -4 20 -10 0 -5 -4 -10 -10 -10 -15 0 -50 -33 -50 -47 0 -17 20
-16 44 2 23 17 46 20 46 5 0 -5 -7 -10 -15 -10 -7 0 -18 -6 -22 -14 -13 -22
-73 -9 -73 16 0 15 -5 19 -20 15 -23 -6 -39 11 -20 23 6 4 10 18 8 31 -2 19
-8 24 -31 22 -15 -1 -25 2 -22 7 9 15 -6 60 -20 60 -8 0 -10 9 -7 25 3 20 10
25 33 25 19 0 29 5 29 15 0 8 7 15 15 15 8 0 15 7 15 15 0 8 -7 15 -15 15 -8
0 -15 -6 -15 -14 0 -8 -17 -16 -46 -20 -26 -3 -53 -11 -60 -17 -10 -9 -14 -9
-14 0 0 6 5 11 10 11 6 0 10 7 10 15 0 16 -26 21 -32 6 -5 -13 -48 -24 -48
-12 0 6 -7 11 -15 11 -8 0 -15 -7 -15 -15 0 -25 -23 -65 -37 -65 -7 0 -13 -7
-13 -15 0 -11 12 -15 51 -15 45 0 51 2 46 19 -2 10 -1 25 4 32 6 10 9 5 9 -15
0 -24 3 -27 21 -23 13 3 19 1 16 -6 -2 -7 -14 -10 -27 -9 -20 3 -22 1 -16 -22
4 -15 2 -26 -4 -26 -5 0 -10 -9 -10 -20 0 -11 -4 -20 -10 -20 -5 0 -10 -7 -10
-15 0 -8 4 -15 9 -15 21 0 41 13 41 26 0 21 20 17 21 -3 0 -10 1 -33 2 -51 2
-27 -1 -32 -18 -30 -14 2 -19 9 -17 26 3 18 -1 22 -23 22 -25 0 -27 -3 -20
-27 3 -16 14 -36 22 -45 9 -10 12 -18 7 -18 -5 0 -16 9 -24 20 -8 11 -21 20
-30 20 -12 0 -13 2 -1 9 18 11 7 41 -15 41 -11 0 -15 -6 -11 -20 3 -12 0 -20
-8 -20 -7 0 -16 -12 -20 -27 -4 -16 -10 -22 -12 -15 -6 16 -21 15 -39 -2 -18
-19 -18 -21 7 -50 27 -31 87 -33 117 -5 27 24 32 24 32 -1 0 -15 -7 -20 -25
-20 -30 0 -35 -29 -5 -37 10 -3 22 -14 25 -24 9 -28 43 -24 51 6 4 16 13 25
25 25 10 0 19 7 19 15 0 8 5 15 10 15 19 0 10 31 -12 39 -21 8 -21 8 5 15 19
4 33 2 43 -8 13 -14 12 -18 -6 -36 -27 -27 -25 -48 5 -62 14 -6 25 -15 25 -20
0 -5 11 -19 25 -32 24 -23 25 -24 5 -29 -13 -3 -20 0 -20 9 0 8 -7 14 -15 14
-8 0 -15 9 -15 20 0 28 -25 35 -55 16 -13 -9 -32 -16 -40 -16 -23 0 -15 -34 9
-38 10 -2 22 1 26 8 4 6 11 -11 17 -39 10 -49 9 -51 -13 -51 -14 0 -25 -8 -29
-21 -9 -27 -1 -33 40 -33 19 0 37 -6 39 -13 7 -17 66 -16 90 2 11 8 28 15 38
15 10 0 18 5 18 10 0 6 7 10 15 10 19 0 19 24 1 43 -9 9 -11 19 -5 28 7 11 9
11 9 1 0 -19 44 -11 48 9 1 8 -7 21 -20 27 -17 8 -18 11 -7 11 9 1 19 8 23 16
3 8 14 15 24 15 10 0 24 6 31 13 11 10 14 10 18 0 7 -21 33 -15 33 7 0 13 7
20 20 20 11 0 20 4 20 8 0 4 14 13 30 19 26 10 30 16 30 47 0 27 -4 36 -17 37
-14 0 -12 3 6 12 19 9 25 9 29 -1 8 -25 32 -12 32 18 0 24 -4 30 -22 31 -17 1
-19 2 -5 6 19 5 22 25 8 51 -11 22 4 62 24 62 8 0 15 -7 15 -15 0 -8 5 -15 11
-15 16 0 39 27 39 47 0 15 2 16 10 3 5 -8 10 -27 10 -42 0 -18 5 -28 15 -28 8
0 15 9 15 19 0 33 11 51 31 51 12 0 21 9 25 25 3 14 10 25 15 25 5 0 9 7 9 15
0 9 -9 15 -25 15 -14 0 -25 5 -25 10 0 6 9 10 20 10 12 0 20 7 20 16 0 13 -6
15 -27 11 -42 -8 -123 -47 -123 -57 0 -6 -7 -10 -15 -10 -8 0 -15 -9 -15 -19
0 -24 -25 -34 -50 -21 -26 14 -40 12 -40 -5 0 -8 5 -15 11 -15 6 0 9 -12 7
-27 -2 -20 -9 -29 -26 -31 -32 -5 -25 -37 8 -37 15 0 26 -7 28 -18 2 -10 -3
-17 -12 -17 -9 0 -16 5 -16 10 0 6 -9 10 -19 10 -14 0 -21 10 -26 33 -4 17
-13 35 -19 39 -6 5 -2 8 10 8 16 0 23 8 28 31 3 17 4 35 1 39 -3 5 3 6 12 4
12 -3 22 4 31 23 16 35 15 43 -3 43 -9 0 -19 -10 -24 -22 -8 -21 -8 -20 -13 8
-3 26 -1 30 14 26 18 -4 48 19 48 38 0 8 -9 10 -24 6 -30 -7 -56 2 -56 20 0
15 -10 17 -34 8 -20 -8 -21 -34 -1 -34 8 0 15 -5 15 -10 0 -16 -33 -26 -38
-12 -5 17 -32 15 -32 -3 0 -8 7 -15 15 -15 9 0 12 -6 9 -15 -10 -26 -34 -17
-34 13 -1 55 -60 93 -107 69z"/>
</g>
</svg>
