<?xml version="1.0" standalone="no"?>
<!DOCTYPE svg PUBLIC "-//W3C//DTD SVG 20010904//EN"
 "http://www.w3.org/TR/2001/REC-SVG-20010904/DTD/svg10.dtd">
<svg version="1.0" xmlns="http://www.w3.org/2000/svg"
 width="720.000000pt" height="720.000000pt" viewBox="0 0 720.000000 720.000000"
 preserveAspectRatio="xMidYMid meet">
<metadata>
Created by potrace 1.16, written by Peter Selinger 2001-2019
</metadata>
<g transform="translate(0.000000,720.000000) scale(0.100000,-0.100000)"
fill="#000000" stroke="none">
<path d="M668 5894 c-4 -3 -4 -30 -1 -60 5 -46 3 -54 -11 -54 -9 0 -16 8 -16
20 0 11 5 20 10 20 15 0 12 19 -5 37 -28 28 -45 9 -42 -47 2 -27 5 -52 8 -54
2 -2 25 -7 52 -11 l47 -7 0 41 c0 26 4 40 10 36 5 -3 9 -21 7 -38 -2 -26 2
-32 18 -32 14 0 21 8 23 26 4 38 -14 79 -37 79 -13 0 -21 8 -23 22 -3 22 -27
35 -40 22z"/>
<path d="M1924 5885 c-3 -8 -3 -19 1 -25 3 -5 -2 -10 -11 -10 -10 0 -26 -7
-36 -17 -17 -15 -18 -15 -18 0 0 14 -10 17 -51 17 -48 0 -51 -1 -45 -22 3 -13
6 -38 6 -57 l0 -33 48 7 c53 9 72 9 120 0 l32 -6 0 65 c0 35 -3 71 -6 80 -8
20 -33 21 -40 1z"/>
<path d="M2599 5898 c0 -2 -2 -36 -3 -75 -1 -53 3 -74 12 -78 29 -11 34 -5 28
29 -4 20 -2 37 4 41 6 4 10 -9 10 -34 0 -37 2 -41 25 -41 14 0 25 3 25 8 0 8
127 6 172 -2 44 -9 60 2 53 35 -6 25 -3 29 14 29 14 0 21 6 21 20 0 19 -6 20
-82 18 l-83 -3 -5 -30 c-4 -20 -11 -30 -25 -32 -16 -1 -16 -1 -2 3 18 6 21 21
11 48 -8 21 -63 21 -71 0 -5 -15 -7 -15 -15 0 -5 9 -20 16 -33 16 -20 0 -25 5
-25 25 0 16 -6 25 -15 25 -8 0 -15 -1 -16 -2z"/>
<path d="M553 5870 c5 -18 0 -20 -48 -20 -43 0 -54 -4 -58 -17 -4 -17 -5 -17
-6 0 -1 21 -41 23 -41 2 0 -28 29 -85 42 -85 8 0 19 5 26 12 9 9 12 9 12 0 0
-7 9 -12 20 -12 15 0 22 9 27 30 3 17 10 33 16 37 6 4 7 -7 3 -29 -5 -28 -3
-37 10 -42 31 -12 34 -5 33 69 -1 68 -3 75 -21 75 -15 0 -19 -5 -15 -20z"/>
<path d="M1186 5861 c-3 -4 -3 -31 1 -60 l6 -52 36 1 c20 1 46 -1 58 -5 23 -8
63 24 63 50 0 28 -40 58 -70 52 -16 -4 -35 0 -46 8 -22 16 -40 19 -48 6z"/>
<path d="M2397 5856 c-9 -23 5 -95 20 -108 11 -8 19 -9 31 -1 12 7 26 7 45 0
33 -11 52 2 62 44 9 37 -19 63 -61 56 -20 -3 -39 0 -51 8 -23 18 -39 19 -46 1z"/>
<path d="M810 5829 c-17 -30 -8 -62 22 -78 24 -14 28 -14 46 2 11 10 22 14 23
9 2 -6 33 -11 69 -13 l65 -4 -3 33 c-2 27 1 33 15 30 13 -2 17 -11 15 -31 -3
-25 -1 -27 31 -27 44 0 58 17 50 63 l-6 37 -73 0 -74 0 -1 -37 -2 -38 -6 35
c-5 32 -9 35 -41 35 -28 0 -35 -4 -40 -25 l-6 -25 -7 28 c-6 22 -13 27 -37 27
-19 0 -33 -7 -40 -21z"/>
<path d="M1382 5837 c-5 -6 -10 -27 -10 -45 -1 -27 4 -35 26 -43 19 -7 32 -7
45 0 12 8 23 8 38 1 24 -13 59 -4 59 16 0 8 -10 15 -22 15 -18 1 -19 2 -5 6
11 3 28 -5 42 -21 13 -14 30 -26 37 -26 23 0 41 18 35 33 -3 9 -1 17 6 20 9 3
9 10 0 30 -14 31 -52 37 -76 12 -11 -11 -17 -11 -19 -3 -6 17 -143 21 -156 5z"/>
<path d="M2023 5842 c-6 -4 -14 -19 -18 -34 -9 -36 26 -72 61 -64 17 5 24 2
24 -9 0 -18 43 -20 57 -2 6 6 15 26 21 42 6 17 11 22 11 13 1 -10 12 -25 26
-34 30 -20 59 -11 52 15 -3 11 1 22 7 24 7 3 12 -4 12 -16 -1 -27 30 -35 37
-10 4 17 5 17 6 1 1 -19 26 -25 36 -9 3 6 3 28 -1 50 -6 36 -10 41 -33 41 -15
0 -32 -5 -39 -12 -8 -8 -15 -8 -24 0 -7 5 -34 10 -60 10 -35 0 -48 -4 -51 -16
-4 -16 -5 -16 -6 0 -1 13 -12 17 -54 17 -29 0 -58 -4 -64 -7z"/>
<path d="M4098 4874 c3 -59 -1 -151 -8 -205 -10 -81 -16 -101 -36 -120 -21
-19 -24 -32 -24 -91 0 -37 -3 -68 -6 -68 -3 0 -19 8 -35 17 -33 20 -59 88 -59
155 0 27 -4 38 -15 38 -12 0 -15 -14 -15 -64 0 -88 12 -115 78 -173 l57 -50
13 -104 c8 -71 12 -280 12 -651 l0 -548 38 0 39 0 6 347 c4 190 7 420 7 510
l0 164 40 59 c34 50 40 67 40 109 0 39 -4 51 -15 51 -8 0 -15 -7 -15 -15 0
-22 -39 -95 -50 -95 -13 0 -13 95 -1 137 5 18 59 105 120 193 108 156 111 162
111 214 0 96 -19 114 -39 38 -6 -27 -29 -76 -50 -111 l-38 -62 -5 140 c-2 78
-8 144 -11 148 -19 19 -31 -28 -39 -159 -9 -138 -11 -146 -51 -231 l-42 -89
-7 39 c-12 66 -9 104 11 131 24 35 34 164 23 327 -6 98 -10 120 -23 123 -14 2
-15 -10 -11 -104z"/>
<path d="M1675 2938 c3 -35 8 -94 10 -133 3 -38 7 -92 10 -120 3 -27 8 -81 10
-120 3 -38 8 -90 10 -115 2 -25 7 -81 10 -125 3 -44 8 -96 10 -115 4 -33 10
-103 20 -235 13 -169 18 -207 35 -286 11 -47 33 -125 51 -175 39 -111 128
-286 142 -277 6 3 7 1 3 -5 -9 -15 93 -164 107 -155 5 3 7 1 4 -4 -4 -6 8 -27
26 -47 18 -19 42 -46 53 -58 23 -27 137 -126 168 -147 12 -8 23 -18 26 -21 3
-3 28 -20 55 -38 28 -17 56 -36 63 -42 6 -6 12 -7 12 -3 0 4 4 3 8 -3 4 -6 30
-21 57 -35 28 -13 53 -28 57 -34 4 -5 8 -6 8 -1 0 5 9 1 21 -10 12 -10 22 -18
23 -16 3 8 56 -11 56 -21 0 -6 3 -7 7 -4 3 4 12 2 20 -4 7 -6 13 -8 13 -4 0 4
7 2 15 -5 8 -7 15 -9 15 -5 0 4 6 2 13 -4 8 -6 22 -12 33 -14 10 -1 24 -6 30
-9 6 -4 22 -9 37 -12 15 -2 30 -7 35 -10 5 -3 19 -7 33 -10 13 -3 34 -7 47
-10 12 -4 32 -8 45 -11 80 -17 87 -19 177 -35 30 -6 66 -12 80 -15 14 -3 61
-9 105 -15 44 -6 91 -12 105 -14 37 -6 102 -15 173 -22 34 -3 64 -8 66 -10 2
-2 11 2 19 9 13 9 14 9 8 0 -5 -10 5 -13 41 -14 73 0 234 -9 271 -13 39 -6 39
0 11 80 -11 32 -22 66 -24 74 -7 29 -107 335 -113 345 -4 6 -7 15 -8 21 -1 7
-95 291 -208 633 -113 342 -206 625 -206 629 0 4 178 95 394 202 217 107 395
198 395 202 1 5 -62 106 -138 225 l-139 218 -483 3 c-473 2 -482 2 -496 -18
-17 -24 -30 -26 -30 -5 0 9 6 14 14 11 7 -3 13 -1 13 5 0 6 -8 9 -17 7 -10 -2
-17 -10 -16 -16 2 -7 -3 -12 -11 -12 -8 0 -16 -5 -18 -11 -2 -7 -9 -5 -18 5
-7 10 -9 16 -4 15 5 -1 16 -1 24 0 36 3 -17 21 -62 21 -49 0 -53 -4 -51 -48 1
-7 -1 -11 -5 -8 -3 3 -16 -9 -29 -26 -23 -32 -67 -46 -80 -25 -3 6 -1 7 5 3
11 -6 16 6 13 26 0 5 5 7 12 5 6 -1 11 3 10 10 -2 8 4 10 15 6 15 -6 15 -5 3
10 -14 18 -13 19 21 21 12 0 23 6 25 12 3 8 -28 12 -104 12 -108 0 -126 -5
-132 -43 -1 -5 -11 -19 -22 -31 -10 -11 -17 -24 -14 -27 3 -4 2 -5 -2 -2 -3 3
-11 1 -17 -5 -8 -6 -12 -2 -13 13 0 12 1 16 4 9 3 -6 9 -10 14 -6 5 3 6 11 2
17 -16 26 -12 39 7 22 11 -10 20 -12 24 -7 3 6 1 12 -6 14 -6 2 -12 12 -14 21
-1 9 2 15 7 11 5 -3 6 -10 3 -16 -4 -6 -1 -8 7 -6 8 3 13 11 11 17 -1 7 2 10
8 6 5 -3 10 -2 10 2 0 5 -60 10 -132 11 -124 3 -132 2 -113 -13 11 -9 16 -14
10 -12 -13 6 -36 -18 -27 -29 4 -4 0 -3 -8 2 -23 13 -42 14 -37 1 3 -7 10 -11
17 -9 11 3 11 0 0 -12 -7 -9 -9 -16 -4 -16 4 0 -2 -10 -14 -23 -12 -13 -20
-27 -17 -30 3 -4 2 -5 -2 -2 -7 5 -39 -36 -36 -46 1 -3 -21 -28 -50 -55 -28
-27 -46 -42 -39 -33 6 9 8 20 4 24 -4 5 -2 5 5 1 6 -3 14 -2 18 4 3 5 0 10 -7
10 -9 0 -9 3 2 10 8 5 11 10 6 10 -5 0 1 11 14 25 13 14 20 25 15 25 -4 0 0 9
10 20 10 11 15 20 11 20 -4 0 -1 7 8 15 8 8 21 15 28 15 10 0 9 3 -2 10 -9 6
-10 10 -3 10 6 0 15 -4 18 -10 3 -5 11 -10 17 -10 7 0 7 4 1 13 -8 11 -9 18
-5 55 1 6 7 12 13 12 5 0 8 -4 5 -9 -7 -11 21 -8 31 4 4 4 3 5 -3 2 -7 -4 -17
0 -24 8 -10 11 -30 15 -77 14 -36 -1 -59 -5 -52 -10 7 -4 18 -5 24 -2 5 4 1
-3 -9 -15 -19 -22 -32 -30 -22 -13 3 5 -2 15 -11 22 -22 19 -267 24 -256 6 5
-9 3 -9 -8 -1 -8 7 -73 12 -167 13 l-153 2 6 -63z m560 31 c-17 -6 -17 -8 -2
-8 16 -1 21 -10 15 -28 -2 -5 -7 -7 -12 -5 -5 2 -6 -4 -3 -13 4 -8 3 -15 -1
-15 -9 0 -46 -62 -44 -73 2 -5 -2 -6 -7 -3 -12 8 -43 -23 -35 -35 3 -5 -2 -12
-10 -15 -9 -3 -14 -10 -11 -14 2 -4 -4 -15 -15 -25 -11 -10 -17 -22 -13 -28 3
-6 1 -7 -6 -3 -6 4 -9 11 -6 16 3 5 1 11 -5 15 -5 3 -10 0 -10 -8 0 -8 -7 -20
-15 -27 -11 -9 -12 -16 -5 -25 7 -9 5 -16 -7 -26 -16 -12 -17 -12 -5 2 10 13
10 18 -1 28 -8 6 -17 9 -20 6 -4 -3 -4 -2 -1 3 3 4 10 8 15 8 22 3 23 5 9 15
-13 9 -12 10 3 5 11 -3 17 0 17 10 0 9 -5 12 -12 8 -7 -4 0 7 16 24 17 18 26
32 21 32 -4 0 0 9 10 20 10 11 14 20 9 20 -5 0 2 7 14 16 12 8 20 19 17 24 -3
4 2 10 10 14 9 3 12 13 9 23 -3 10 1 7 9 -6 8 -14 17 -19 21 -13 3 6 2 13 -4
17 -12 7 -9 32 8 61 9 16 18 20 39 16 25 -5 25 -6 8 -13z m812 -17 c20 16 43
-7 24 -24 -10 -9 -12 -9 -7 -1 3 6 2 14 -2 17 -5 3 -9 -5 -8 -17 1 -12 -6 -31
-16 -41 -10 -10 -15 -23 -12 -27 3 -5 -3 -6 -12 -2 -11 4 -15 3 -11 -4 4 -6
-4 -25 -18 -41 -13 -16 -21 -32 -17 -36 4 -4 0 -6 -8 -4 -8 2 -14 -3 -12 -10
1 -8 -2 -11 -9 -6 -8 5 -10 2 -6 -8 6 -18 -50 -81 -64 -72 -5 3 -9 0 -9 -5 0
-6 6 -11 13 -11 8 0 8 -3 -2 -9 -8 -5 -21 -6 -30 -3 -13 5 -14 3 -4 -9 10 -12
6 -21 -18 -47 -17 -18 -27 -32 -24 -32 3 0 3 -5 0 -10 -4 -6 -11 -8 -16 -4 -6
4 -4 13 5 23 9 10 13 21 9 26 -5 4 -3 6 2 3 14 -8 32 14 29 35 -1 10 4 21 12
24 8 3 11 9 8 14 -3 5 0 9 6 9 6 0 8 5 4 12 -5 7 -3 8 6 3 10 -6 12 -4 7 8 -3
8 1 21 9 28 8 6 12 14 9 17 -3 3 4 12 15 19 11 8 18 18 15 23 -3 4 2 10 10 13
8 4 12 15 10 25 -3 17 2 19 31 17 19 -1 32 1 28 4 -5 6 -9 7 -36 10 -9 1 -8 4
2 11 8 5 12 10 7 10 -4 0 5 18 19 40 19 28 30 38 37 31 7 -7 15 -7 24 1z"/>
<path d="M4155 2992 c6 -5 148 -107 318 -227 169 -120 307 -221 307 -225 0 -4
-135 -98 -301 -209 -165 -112 -299 -207 -297 -211 2 -5 95 -102 208 -217 113
-115 284 -290 380 -388 96 -99 178 -179 182 -177 4 1 8 -3 8 -8 0 -17 91 -110
101 -104 5 3 8 0 7 -8 -2 -7 3 -12 10 -10 8 1 11 -1 8 -6 -3 -5 11 -25 32 -44
20 -19 135 -137 256 -261 120 -125 223 -224 229 -220 5 3 7 1 3 -5 -3 -6 10
-27 29 -48 19 -20 35 -33 35 -28 0 5 5 2 10 -6 8 -13 13 -12 42 4 75 43 158
108 152 118 -4 6 -3 8 3 5 6 -4 19 4 29 18 10 13 21 22 25 19 15 -9 21 17 8
34 -11 14 -11 15 1 5 19 -17 33 -16 27 2 -4 8 -1 17 5 21 7 5 8 2 3 -7 -5 -8
1 -6 12 4 31 27 103 133 96 141 -3 3 -2 6 4 6 8 0 66 93 68 110 1 3 9 20 19
38 9 19 15 40 12 48 -3 8 -2 13 3 9 15 -9 89 253 87 310 -1 19 3 35 8 35 4 0
6 18 4 40 -2 22 -1 40 3 40 3 0 6 6 6 13 3 35 13 504 19 812 3 192 7 352 9
356 2 3 -2 17 -10 32 -9 18 -10 24 -1 21 8 -3 12 13 12 51 1 47 -1 52 -12 37
-17 -21 -18 -8 -2 21 15 28 19 49 7 41 -5 -3 -9 -1 -9 5 0 5 6 11 13 14 6 3 2
4 -9 4 -15 -1 -20 -6 -16 -16 3 -8 1 -12 -5 -8 -6 4 -16 0 -23 -8 -10 -11 -9
-18 4 -30 9 -9 16 -19 17 -23 0 -4 2 -17 5 -29 3 -16 -1 -20 -14 -18 -9 2 -17
4 -17 5 0 1 -11 3 -24 6 -21 4 -22 3 -10 -13 11 -15 10 -15 -9 1 -12 11 -22
25 -22 33 0 7 -3 12 -7 12 -19 -3 -23 2 -13 20 7 14 7 22 0 26 -6 4 -7 11 -4
17 5 7 1 9 -9 5 -9 -3 -19 -2 -22 3 -3 4 6 7 20 5 14 -1 25 1 25 6 0 4 -16 7
-35 6 -19 -1 -35 -6 -35 -10 0 -5 -6 -5 -12 0 -7 4 -94 8 -194 9 -148 1 -181
-1 -181 -13 0 -9 4 -10 11 -3 16 16 44 12 49 -7 4 -17 5 -17 6 0 0 9 5 17 11
17 5 0 7 -8 4 -17 -5 -15 -4 -16 5 -3 12 18 88 21 88 3 0 -6 -6 -9 -14 -6 -7
3 -13 0 -13 -7 0 -6 4 -9 9 -5 5 3 12 1 16 -5 3 -5 -1 -10 -9 -10 -9 0 -16 -4
-16 -10 0 -5 8 -6 17 -3 13 5 15 2 10 -13 -7 -18 -6 -18 9 1 14 17 16 17 10 2
-3 -11 -2 -16 4 -12 5 3 7 0 4 -8 -3 -8 -1 -18 5 -22 7 -3 8 0 5 9 -3 9 -1 16
6 16 6 0 8 -4 5 -10 -3 -5 -2 -10 4 -10 5 0 9 9 8 19 0 11 -6 17 -14 14 -19
-8 -16 14 5 26 9 6 12 11 6 11 -5 0 -16 -6 -23 -12 -10 -11 -12 -10 -9 2 2 9
-3 14 -12 12 -11 -3 -10 2 4 17 17 19 43 20 31 1 -3 -4 2 -10 10 -14 9 -3 12
-12 8 -22 -5 -13 -3 -15 8 -9 8 4 11 4 6 0 -4 -5 -1 -15 7 -24 8 -9 15 -19 15
-23 1 -5 1 -9 2 -10 7 -25 5 -36 -10 -33 -9 1 -16 9 -16 18 0 8 -4 19 -8 23
-4 4 -7 -4 -7 -17 0 -14 5 -30 10 -35 7 -7 4 -10 -12 -9 -17 1 -24 9 -28 31
-3 16 -10 29 -15 29 -5 0 -8 7 -7 14 3 13 2 13 -14 0 -10 -7 -15 -9 -11 -3 4
7 0 17 -8 24 -13 11 -15 9 -13 -11 3 -25 19 -49 29 -43 3 2 6 -2 7 -9 2 -23 8
-42 17 -57 7 -13 6 -13 -7 -2 -11 9 -18 10 -23 2 -3 -5 0 -10 7 -10 7 0 2 -7
-10 -16 -12 -8 -20 -19 -17 -24 8 -13 -21 -6 -39 9 -9 7 -13 17 -11 22 3 4 -2
12 -10 17 -9 5 -17 15 -18 23 -2 8 -6 20 -10 27 -5 6 -5 12 0 12 4 0 1 5 -9
10 -10 6 -14 18 -11 30 3 12 0 20 -6 20 -7 0 -9 -6 -5 -12 4 -8 3 -10 -2 -5
-5 5 -9 14 -9 20 -1 7 -6 11 -13 10 -6 -2 -9 3 -6 11 3 8 1 17 -4 20 -6 3 -8
16 -5 29 l5 22 -16 -23 c-10 -12 -15 -25 -12 -30 2 -4 -2 -16 -11 -27 -12 -16
-14 -17 -11 -3 2 9 -1 17 -7 17 -5 1 -10 -8 -10 -18 0 -11 -3 -23 -7 -27 -5
-4 -8 -14 -8 -23 0 -11 3 -10 14 5 8 10 20 19 28 19 7 0 13 5 13 12 0 6 4 15
8 20 5 4 7 3 6 -2 -2 -6 2 -21 9 -35 12 -22 11 -23 -1 -8 -8 10 -17 15 -21 11
-3 -3 2 -16 11 -27 14 -15 14 -18 2 -8 -9 6 -19 8 -23 4 -4 -4 -6 -2 -4 5 2 6
-1 11 -7 11 -5 1 -9 -5 -7 -13 1 -8 -5 -12 -15 -11 -10 2 -18 12 -18 22 -1 26
-14 46 -26 38 -5 -3 -8 0 -7 8 2 7 -4 12 -12 10 -8 -2 -12 0 -8 4 4 4 3 13 -3
21 -6 7 -8 13 -3 13 4 0 -1 7 -12 15 -22 17 -129 21 -119 5 4 -6 11 -8 16 -4
5 3 9 2 8 -3 -1 -4 0 -10 1 -13 7 -19 7 -41 -1 -46 -6 -4 -6 -11 1 -19 8 -10
8 -15 -1 -21 -7 -4 -9 -3 -5 4 3 6 2 14 -4 17 -7 4 -7 12 -2 18 11 16 9 38 -3
35 -5 -2 -9 -8 -7 -15 1 -6 -2 -14 -8 -18 -6 -4 -7 1 -3 11 5 13 3 15 -7 9 -8
-5 -11 -4 -7 2 4 6 -4 20 -16 31 -21 20 -33 21 -172 20 -93 -1 -153 -6 -157
-12 -5 -7 -8 -7 -8 2 0 19 -25 14 -46 -9 -18 -20 -18 -21 0 -18 23 5 30 -25
10 -42 -8 -6 -11 -16 -7 -23 3 -6 -3 -3 -15 8 -12 10 -21 21 -20 25 2 12 -14
41 -21 36 -4 -2 -8 2 -8 9 0 7 6 13 13 13 7 0 10 -5 7 -10 -4 -6 -1 -7 8 -1 8
5 17 9 21 9 3 0 9 3 12 6 4 3 -36 6 -87 5 -89 0 -94 -2 -89 -20 5 -20 5 -20
13 0 6 16 8 16 8 2 1 -9 5 -19 10 -22 5 -4 7 4 3 16 -3 14 -2 19 7 14 6 -4 9
-12 6 -17 -8 -12 2 -12 24 0 12 7 18 6 18 -2 1 -22 8 -42 18 -49 6 -5 6 -8 -1
-8 -6 0 -17 7 -24 15 -7 8 -17 12 -22 9 -10 -7 32 -40 45 -36 5 1 6 -2 2 -8
-5 -8 -11 -8 -19 -1 -7 6 -17 7 -21 3 -5 -4 -5 -2 -2 4 8 14 -20 27 -28 14 -4
-6 -1 -10 6 -10 7 0 9 -3 6 -7 -12 -11 -46 28 -40 45 4 10 2 13 -6 8 -6 -4
-10 -4 -9 1 1 4 -1 17 -5 29 -6 16 -17 21 -57 23 l-50 2 20 -36 c11 -19 17
-35 13 -35 -3 0 1 -8 10 -18 10 -10 14 -21 11 -24 -3 -4 2 -17 11 -31 17 -27
9 -42 -15 -26 -10 6 -11 9 -2 9 6 0 12 5 12 11 0 5 -4 8 -9 5 -8 -6 -47 31
-45 43 2 18 -10 40 -19 34 -6 -3 -7 -1 -3 5 4 7 0 12 -11 13 -11 0 -13 3 -5 6
10 4 9 9 -5 20 -10 8 -12 11 -4 7 9 -4 12 -3 8 3 -5 7 -102 11 -279 12 -163 1
-269 -2 -263 -7z"/>
<path d="M5755 2969 c-4 -6 -13 -8 -21 -5 -11 4 -11 1 2 -18 8 -14 22 -27 31
-30 9 -4 13 -14 10 -26 -5 -18 4 -25 26 -21 4 1 10 -6 13 -14 3 -8 10 -12 16
-9 5 3 2 14 -8 25 -9 10 -20 16 -25 13 -4 -2 -6 5 -4 16 2 13 0 18 -7 14 -6
-4 -6 1 1 15 14 25 23 28 14 4 -7 -17 -6 -17 17 -1 14 9 24 22 22 30 -2 7 0 9
4 5 13 -13 13 -38 1 -30 -7 3 -9 3 -5 -2 4 -4 3 -16 -3 -26 -7 -15 -6 -17 6
-13 8 4 15 1 15 -6 0 -6 -4 -9 -9 -5 -5 3 -13 0 -17 -6 -4 -7 -3 -9 4 -5 7 4
10 -1 7 -14 -2 -11 0 -18 5 -15 6 3 7 -1 3 -10 -5 -13 -7 -14 -14 -3 -7 10 -9
10 -9 -2 -1 -9 -6 -6 -14 9 -8 15 -16 20 -20 12 -4 -6 -2 -11 4 -11 7 0 10 -6
7 -14 -3 -8 3 -22 13 -31 11 -10 17 -21 15 -25 -3 -4 1 -13 9 -19 10 -8 17 -6
31 9 10 11 14 20 10 20 -4 0 0 8 9 19 16 17 15 20 -8 48 -14 17 -23 33 -19 36
3 4 1 13 -6 21 -8 10 -9 15 -1 18 6 2 13 15 14 29 2 19 -2 25 -18 25 -12 0
-24 -4 -28 -10 -10 -15 -39 -16 -45 0 -6 17 -19 18 -28 3z"/>
</g>
</svg>
