<?xml version="1.0" standalone="no"?>
<!DOCTYPE svg PUBLIC "-//W3C//DTD SVG 20010904//EN"
 "http://www.w3.org/TR/2001/REC-SVG-20010904/DTD/svg10.dtd">
<svg version="1.0" xmlns="http://www.w3.org/2000/svg"
 width="720.000000pt" height="720.000000pt" viewBox="0 0 720.000000 720.000000"
 preserveAspectRatio="xMidYMid meet">
<metadata>
Created by potrace 1.16, written by Peter Selinger 2001-2019
</metadata>
<g transform="translate(0.000000,720.000000) scale(0.100000,-0.100000)"
fill="#000000" stroke="none">
<path d="M4098 4874 c3 -59 -1 -151 -8 -205 -10 -81 -16 -101 -36 -120 -21
-19 -24 -32 -24 -91 0 -37 -3 -68 -6 -68 -3 0 -19 8 -35 17 -31 19 -59 87 -59
147 0 31 -41 170 -53 183 -13 13 -7 -85 8 -127 8 -23 15 -64 15 -90 0 -71 15
-101 78 -157 l57 -50 13 -104 c8 -71 12 -280 12 -651 l0 -548 38 0 39 0 6 347
c4 190 7 420 7 510 l0 164 40 59 c38 56 40 63 40 135 0 79 -13 93 -25 28 -8
-45 -42 -113 -55 -113 -13 0 -13 95 -1 137 5 18 59 105 120 193 111 160 111
160 110 218 -1 31 -4 68 -8 82 -7 22 -10 17 -25 -37 -10 -34 -35 -89 -56 -123
l-37 -61 -5 146 c-3 81 -10 151 -15 156 -16 16 -31 -61 -38 -196 -6 -114 -8
-124 -48 -208 l-42 -89 -7 39 c-12 66 -9 104 11 131 24 35 34 164 23 327 -6
98 -10 120 -23 123 -14 2 -15 -10 -11 -104z"/>
</g>
</svg>
