<?xml version="1.0" standalone="no"?>
<!DOCTYPE svg PUBLIC "-//W3C//DTD SVG 20010904//EN"
 "http://www.w3.org/TR/2001/REC-SVG-20010904/DTD/svg10.dtd">
<svg version="1.0" xmlns="http://www.w3.org/2000/svg"
 width="720.000000pt" height="720.000000pt" viewBox="0 0 720.000000 720.000000"
 preserveAspectRatio="xMidYMid meet">
<metadata>
Created by potrace 1.16, written by Peter Selinger 2001-2019
</metadata>
<g transform="translate(0.000000,720.000000) scale(0.100000,-0.100000)"
fill="#000000" stroke="none">
<path d="M997 7163 c-3 -21 0 -95 6 -165 12 -139 12 -139 75 -122 22 6 22 9
22 165 l0 159 -49 0 -49 0 -5 -37z"/>
<path d="M4957 7162 c-34 -34 -50 -82 -28 -82 18 0 141 -162 143 -188 1 -15 2
-65 3 -112 0 -47 4 -301 8 -565 7 -446 13 -641 38 -1225 5 -124 13 -353 18
-510 5 -157 12 -355 15 -440 3 -85 8 -254 11 -375 3 -121 10 -335 15 -475 13
-337 12 -632 -1 -865 -9 -174 0 -630 16 -801 l5 -52 -158 -6 c-280 -11 -332
-16 -332 -33 0 -13 28 -14 208 -8 114 3 221 8 239 11 32 5 56 -12 30 -21 -7
-3 -81 -9 -163 -13 -135 -6 -149 -9 -152 -26 -4 -17 1 -18 64 -13 38 4 112 7
164 8 l94 2 1 -91 2 -91 -61 -5 c-34 -3 -155 -10 -271 -16 -115 -6 -367 -20
-560 -30 -192 -11 -399 -22 -460 -25 -60 -3 -177 -10 -260 -16 -82 -5 -240
-14 -350 -19 -110 -5 -486 -25 -835 -44 -987 -54 -910 -51 -910 -32 0 9 6 18
13 20 6 3 255 14 552 26 297 12 558 25 580 28 l40 8 3 51 3 51 92 6 c51 4 251
13 445 21 194 8 357 17 362 20 6 3 10 22 10 41 0 19 6 36 13 39 13 4 499 25
682 30 l110 2 -3 52 c-2 46 0 51 18 51 11 0 20 7 20 15 0 8 -9 15 -20 15 -19
0 -20 7 -20 184 0 100 -4 239 -9 307 -5 68 -11 187 -13 264 l-3 140 55 5 55 5
3 80 c1 44 -4 147 -10 229 -11 121 -16 151 -30 160 -13 8 -21 7 -29 -1 -15
-15 -15 -42 -3 -188 6 -60 8 -132 6 -160 l-4 -50 -94 -1 -94 -1 -2 191 c-2
290 2 261 -32 261 l-30 0 3 -237 c1 -131 6 -250 10 -265 7 -28 8 -28 79 -24
65 3 72 1 72 -15 0 -11 5 -111 10 -224 17 -344 21 -702 9 -732 -11 -26 -15
-28 -73 -28 -33 0 -198 -7 -366 -15 -168 -7 -307 -11 -310 -8 -3 2 -6 253 -8
556 -5 822 -5 955 2 980 6 21 46 52 137 105 40 24 49 48 27 70 -10 10 -14 102
-16 375 -4 495 -3 483 -27 501 -29 22 -52 19 -71 -10 -16 -23 -16 -46 -6 -267
6 -133 11 -333 12 -445 1 -187 0 -203 -17 -209 -10 -3 -62 -33 -117 -65 -54
-33 -100 -58 -101 -56 -10 10 -6 524 4 597 12 81 12 84 -10 107 -12 13 -27 24
-33 24 -16 -1 -56 -36 -56 -49 0 -6 -5 -20 -12 -31 -10 -15 -9 -22 4 -37 19
-22 25 -208 16 -526 -3 -109 -2 -200 2 -202 4 -2 26 -7 49 -11 38 -6 43 -4 48
15 3 11 9 21 13 21 5 0 30 16 55 36 l47 35 -6 -48 c-5 -48 -11 -448 -8 -575 2
-54 5 -67 20 -71 16 -4 16 -5 0 -6 -14 -1 -18 -10 -18 -45 0 -26 5 -47 13 -50
10 -5 10 -7 0 -12 -15 -7 -17 -34 -3 -34 6 0 10 -9 10 -20 0 -11 -3 -20 -7
-20 -5 0 -7 -126 -6 -280 l3 -280 -25 0 c-16 0 -25 -6 -25 -15 0 -8 9 -15 20
-15 14 0 20 -7 20 -24 0 -22 -5 -24 -67 -29 -38 -4 -159 -10 -269 -13 l-201
-7 -7 204 c-5 126 -3 238 3 294 7 58 7 111 1 147 -5 31 -6 98 -3 147 l6 91 28
0 c16 0 29 5 29 10 0 6 18 10 40 10 l40 0 0 88 c0 98 -13 233 -32 334 -11 60
-15 68 -35 68 -21 0 -23 -5 -23 -50 0 -27 4 -71 9 -97 6 -26 12 -98 14 -160
l5 -112 -62 -6 c-33 -3 -79 -2 -101 2 -49 11 -51 18 -59 246 -4 93 -9 173 -12
178 -9 15 -33 10 -43 -10 -12 -21 -7 -181 10 -346 14 -143 11 -137 77 -134
l57 3 7 -150 c8 -199 5 -716 -5 -731 -6 -9 -44 -13 -133 -13 l-124 0 -1 183
c-1 195 -2 216 -20 607 -10 223 -7 1111 6 1440 1 41 3 139 4 217 l1 141 68
-20 c37 -11 74 -26 83 -34 23 -20 44 -17 73 10 30 27 32 59 16 227 -6 57 -12
183 -13 279 l-2 175 -26 3 c-15 2 -32 -5 -43 -17 -17 -19 -18 -29 -7 -133 16
-173 25 -408 15 -408 -5 0 -18 6 -29 13 -11 7 -89 35 -174 62 -131 43 -155 54
-164 75 -7 16 -11 195 -11 510 -1 448 -2 486 -18 502 -24 24 -50 23 -66 -3
-10 -16 -12 -64 -7 -212 7 -226 15 -427 19 -514 1 -35 -1 -63 -6 -63 -4 0 -8
-9 -8 -20 0 -11 5 -20 10 -20 6 0 10 -7 10 -15 0 -8 -4 -15 -10 -15 -6 0 -10
-50 -10 -129 l0 -130 63 -32 c34 -17 80 -37 101 -43 31 -9 41 -18 48 -41 10
-38 9 -532 -3 -690 -18 -262 -21 -405 -7 -405 10 0 12 -15 10 -57 -2 -32 -7
-62 -11 -68 -4 -5 -8 -61 -9 -122 -2 -95 0 -113 13 -113 8 0 15 -9 15 -19 0
-11 3 -26 6 -35 4 -12 0 -16 -15 -16 -19 0 -21 -4 -16 -37 4 -30 13 -440 15
-640 0 -25 5 -33 18 -33 10 0 13 -3 6 -8 -14 -9 -26 -126 -28 -257 l-1 -100
-125 -7 c-239 -13 -576 -28 -764 -35 -182 -6 -188 -6 -184 13 4 21 3 21 451
39 l169 7 -4 44 -3 44 87 0 c93 0 118 5 118 24 0 10 -26 12 -103 8 l-104 -4
-6 98 c-4 55 -7 136 -7 181 l0 82 38 3 37 3 -2 105 c-1 58 -4 124 -8 148 -5
37 -9 43 -28 40 -25 -3 -26 -10 -13 -150 l8 -88 -61 0 c-33 0 -64 -1 -68 -2
-5 -2 -9 57 -9 130 -2 134 -8 160 -38 149 -12 -5 -14 -29 -9 -159 2 -84 6
-159 8 -165 3 -8 23 -13 53 -13 l49 0 6 -77 c10 -121 20 -363 16 -364 -2 0
-131 -6 -287 -12 l-284 -12 7 45 c4 24 8 518 10 1096 2 579 6 1072 10 1096 3
23 10 149 15 278 14 352 31 640 42 683 l9 37 31 -16 c18 -9 38 -23 46 -30 24
-24 95 -70 165 -108 73 -38 124 -46 134 -20 3 8 -4 63 -16 122 -37 187 -43
261 -46 523 -2 177 -6 262 -14 278 -8 14 -14 83 -17 179 -2 86 -6 185 -9 220
-4 39 -2 62 5 62 5 0 10 9 10 20 0 11 -3 20 -8 20 -4 0 -7 21 -7 48 l0 47 -45
0 -45 0 0 -90 c0 -49 4 -252 8 -450 7 -342 13 -445 36 -699 6 -61 9 -111 7
-114 -2 -2 -32 17 -67 42 -35 24 -91 61 -124 82 -139 86 -313 205 -355 241
-25 22 -52 44 -62 49 -9 5 -53 44 -98 88 l-82 78 7 72 c3 39 12 123 20 186 12
100 26 270 39 463 l4 58 -56 -3 -57 -3 -11 -118 c-7 -66 -18 -263 -24 -439
l-13 -319 23 -16 c12 -9 57 -47 99 -85 42 -37 123 -100 181 -139 58 -39 133
-95 167 -125 l61 -54 -4 -72 c-2 -40 -9 -165 -15 -278 -5 -113 -17 -259 -24
-325 -8 -66 -19 -248 -25 -405 -6 -157 -15 -382 -20 -500 -6 -118 -13 -551
-17 -961 l-6 -747 -96 -6 c-53 -3 -359 -16 -680 -28 -460 -18 -584 -25 -588
-36 -3 -7 -3 -16 0 -19 6 -5 848 25 1230 44 125 6 127 6 127 -16 0 -11 -6 -21
-12 -21 -7 0 -290 -11 -628 -25 -338 -14 -639 -25 -667 -25 l-53 0 0 -36 0
-36 148 6 c81 4 307 13 502 21 367 16 477 21 617 31 71 5 84 3 89 -11 4 -9 4
-18 2 -21 -5 -4 -666 -34 -1108 -49 -225 -8 -250 -11 -250 -36 0 -18 6 -19
113 -13 405 21 1233 51 1240 44 5 -4 7 -20 5 -36 l-3 -29 -225 -12 c-208 -11
-1093 -53 -1119 -53 -6 0 -11 -11 -11 -25 0 -25 1 -25 63 -20 78 6 356 21 782
40 182 8 369 17 418 20 74 5 88 3 93 -10 4 -9 5 -18 2 -20 -2 -2 -213 -16
-469 -30 -255 -14 -542 -29 -637 -35 -95 -5 -191 -10 -212 -10 -37 0 -40 -2
-40 -26 l0 -27 133 7 c72 3 213 11 312 16 658 37 909 49 913 46 2 -3 1 -34 -3
-69 l-7 -65 -67 -6 c-36 -3 -311 -20 -611 -36 -300 -17 -573 -33 -607 -36
l-63 -6 0 -38 0 -39 52 5 c29 3 363 23 742 44 378 22 692 43 697 46 6 3 7 49
3 110 l-7 104 41 0 c22 0 292 13 599 30 307 16 988 52 1513 80 525 28 1074 57
1220 65 146 8 282 15 303 15 l37 0 -6 -102 c-4 -57 -7 -104 -8 -104 0 -1 -73
-7 -161 -13 -407 -28 -1053 -71 -1275 -86 -135 -8 -346 -22 -470 -30 -332 -23
-1813 -119 -2520 -165 -338 -22 -648 -42 -687 -46 l-73 -6 0 -39 0 -39 48 0
c26 0 207 11 402 25 496 34 1676 115 2635 180 446 30 905 62 1020 70 116 8
379 26 585 40 206 13 402 27 436 30 l61 6 11 -88 c15 -118 21 -189 27 -309 l5
-102 -63 -6 c-295 -28 -619 -55 -792 -66 -88 -5 -178 -12 -200 -15 -22 -3 -94
-9 -160 -15 -114 -8 -582 -47 -1100 -90 -539 -45 -1721 -140 -1742 -140 -13 0
-23 -4 -23 -10 0 -7 227 -10 663 -10 573 0 696 3 912 20 138 11 450 36 695 55
245 19 733 57 1085 85 352 28 712 56 800 62 104 7 165 16 176 25 8 7 25 13 36
13 12 0 24 7 27 16 9 24 7 114 -4 159 -6 22 -12 129 -15 237 l-5 197 42 5 c43
6 570 41 773 53 72 4 119 11 138 22 27 15 36 44 17 56 -11 7 -13 65 -4 142 l7
52 61 6 c33 3 188 12 343 20 156 7 287 16 293 20 7 4 10 254 10 758 -1 694 -2
755 -18 778 -9 15 -30 45 -47 69 -28 41 -29 47 -37 199 -21 446 -21 451 -59
451 -32 0 -39 -31 -29 -131 12 -123 30 -429 30 -500 0 -51 4 -63 40 -110 34
-45 40 -61 41 -104 0 -27 5 -178 10 -335 6 -157 11 -296 11 -310 2 -62 -14
-585 -18 -592 -3 -4 -33 -8 -67 -8 -117 0 -197 -12 -197 -28 0 -13 18 -14 135
-9 l135 7 0 -45 c0 -29 -4 -45 -12 -45 -7 0 -145 -7 -306 -16 -161 -9 -300
-13 -308 -10 -13 5 -15 18 -9 84 4 42 9 78 10 80 2 2 82 7 178 12 96 4 180 11
187 15 8 5 11 67 11 219 0 116 2 277 5 358 5 141 4 148 -14 148 -25 0 -31 -30
-27 -130 1 -41 0 -58 -2 -37 -3 29 -8 37 -21 35 -15 -3 -17 -16 -14 -98 3 -67
8 -98 18 -106 11 -9 14 -48 14 -186 l0 -175 -97 -6 c-54 -4 -133 -7 -175 -7
l-78 0 2 503 c1 276 -2 590 -6 697 -3 107 -9 328 -11 491 -3 164 -12 366 -20
450 -9 85 -19 206 -22 270 l-6 115 66 1 c37 0 100 8 142 18 l75 18 -5 51 c-4
28 -10 78 -16 111 -5 33 -18 134 -29 225 -11 91 -29 221 -40 290 -10 69 -22
163 -25 210 -5 77 -8 87 -33 107 -15 13 -35 23 -44 23 -19 0 -35 -41 -23 -60
11 -17 56 -349 75 -550 6 -63 18 -164 26 -224 8 -60 13 -110 12 -111 -13 -9
-136 -25 -197 -26 -42 0 -98 -4 -125 -8 -27 -5 -61 -5 -75 -2 -25 7 -26 10
-38 137 -7 71 -17 208 -23 304 -5 96 -14 198 -19 225 -6 28 -10 73 -10 100 -1
29 -9 65 -20 85 -20 38 -57 52 -67 25 -4 -8 2 -77 11 -153 10 -75 22 -198 26
-272 5 -74 13 -175 18 -225 6 -49 13 -135 17 -190 4 -55 11 -105 16 -111 14
-18 57 -23 133 -14 39 4 73 5 77 1 15 -14 41 -641 48 -1171 5 -311 12 -741 16
-956 l7 -391 -139 -6 c-76 -4 -254 -11 -394 -17 -140 -5 -283 -12 -317 -15
-49 -4 -63 -3 -63 8 0 11 32 15 143 20 78 4 174 7 212 7 39 0 81 3 94 7 l23 6
-7 303 -8 304 38 0 38 0 -7 163 c-9 196 -11 209 -40 205 -17 -2 -21 -9 -19
-33 17 -280 17 -265 -3 -266 -10 0 -38 -1 -61 -3 l-42 -2 0 169 c1 169 -4 196
-34 184 -13 -5 -14 -36 -10 -199 2 -106 6 -199 8 -205 3 -8 21 -13 44 -13 22
0 42 -4 45 -9 3 -5 9 -135 12 -289 l7 -280 -119 -6 c-65 -3 -163 -8 -217 -11
-97 -5 -97 -5 -107 21 -6 14 -10 47 -10 74 0 27 -9 111 -19 187 -11 76 -24
190 -31 253 -10 110 -11 150 -8 390 2 140 -9 377 -33 759 -11 172 -18 319 -16
325 5 15 -9 231 -23 331 -6 46 -12 348 -14 710 -3 371 -9 655 -15 690 -15 83
-42 803 -39 1015 2 96 -1 264 -6 374 l-9 198 35 -23 c43 -29 148 -106 206
-151 23 -18 42 -39 42 -45 0 -7 9 -13 19 -13 11 0 23 -4 26 -10 10 -15 35 -12
35 5 0 8 5 15 11 15 9 0 10 60 4 233 -4 127 -8 265 -8 305 l0 72 -49 0 -49 0
4 -187 c2 -104 2 -196 -1 -205 -4 -17 -6 -16 -32 2 -15 11 -41 32 -57 47 -58
55 -164 143 -233 194 -68 50 -70 53 -53 71 10 11 30 27 45 36 56 33 36 42 -90
42 l-118 0 -37 -38z m327 -2662 c5 -426 11 -665 21 -750 7 -69 16 -222 19
-340 4 -118 11 -260 16 -315 11 -104 20 -380 25 -785 3 -250 11 -372 44 -620
25 -192 39 -316 40 -355 3 -177 11 -399 15 -413 4 -10 10 -130 16 -268 5 -137
14 -266 19 -286 8 -33 6 -38 -8 -38 -15 0 -18 23 -29 188 -7 103 -16 203 -22
222 -11 41 -13 103 -4 184 3 34 2 61 -4 65 -5 3 -15 85 -21 181 -7 96 -19 272
-26 390 -8 118 -19 262 -25 320 -20 219 -30 405 -35 710 -3 173 -10 430 -16
570 -5 140 -14 363 -19 495 -5 132 -12 472 -15 755 -3 283 -7 566 -9 628 -1
62 1 107 4 100 4 -7 10 -294 14 -638z m-51 -357 c4 -75 7 -206 7 -292 0 -86 5
-241 10 -346 13 -269 19 -457 25 -883 4 -205 13 -459 20 -565 8 -106 21 -293
29 -417 8 -124 20 -286 26 -360 12 -138 9 -220 -6 -220 -4 0 -7 18 -5 40 2 34
-1 41 -23 51 -33 15 -33 27 -1 35 32 8 33 34 1 34 -19 0 -25 7 -30 36 -4 19
-10 42 -13 50 -3 8 1 14 11 14 19 0 22 36 4 43 -8 3 -6 6 5 6 21 1 23 29 2 37
-8 4 -15 15 -15 26 0 15 -5 19 -20 15 -18 -5 -20 0 -20 38 0 24 -2 50 -5 58
-5 10 1 13 26 9 20 -3 34 0 40 9 16 25 9 37 -26 43 -35 7 -58 26 -31 26 9 0
16 7 16 15 0 8 7 15 15 15 8 0 15 7 15 15 0 18 -26 20 -34 3 -3 -7 -2 11 1 39
4 35 1 58 -7 68 -10 12 -10 15 4 15 9 0 16 7 16 15 0 8 -6 15 -14 15 -20 0
-26 23 -26 96 0 50 3 64 15 64 8 0 15 7 15 15 0 8 -9 15 -21 15 -17 0 -19 4
-13 23 4 12 11 25 17 28 6 4 6 18 -1 40 -7 22 -9 101 -6 214 5 212 6 783 0
905 -2 47 -7 177 -10 290 -13 411 -16 497 -22 620 -3 69 -8 128 -11 133 -2 4
4 7 15 7 17 0 19 -11 25 -137z m1167 -2803 c0 -81 -2 -90 -18 -90 -40 0 -789
-40 -833 -44 l-46 -5 -7 46 c-3 25 -6 68 -6 94 l0 49 53 1 c39 0 538 23 830
38 l27 1 0 -90z m-2870 -49 c0 -17 -13 -19 -147 -25 -82 -4 -197 -9 -258 -12
-353 -18 -441 -20 -449 -13 -5 4 -6 15 -3 23 5 12 23 16 79 17 40 0 190 6 333
13 143 7 302 14 353 14 84 2 92 0 92 -17z m-970 -41 c0 -11 -6 -20 -12 -21
-489 -23 -1055 -43 -1063 -37 -6 5 -4 13 5 22 12 10 118 17 460 30 245 10 454
19 465 20 11 2 48 4 83 5 56 1 62 -1 62 -19z m3836 -147 c-4 -54 -9 -99 -11
-101 -1 -2 -198 -16 -436 -32 -325 -21 -436 -25 -441 -17 -4 7 -8 54 -8 105 0
81 2 92 17 92 28 0 774 40 813 43 19 2 43 4 54 5 18 2 18 -4 12 -95z m-3836
58 c0 -38 23 -35 -515 -61 -236 -11 -458 -23 -492 -26 l-63 -6 0 35 c0 36 0
36 53 41 28 3 192 11 362 17 302 11 602 24 638 27 13 2 17 -5 17 -27z"/>
<path d="M350 6740 l0 -50 320 0 320 0 0 50 0 50 -320 0 -320 0 0 -50z"/>
<path d="M733 6668 c-18 -8 -23 -20 -23 -49 0 -20 6 -40 13 -42 7 -3 5 -6 -5
-6 -15 -1 -18 8 -18 49 0 47 -2 50 -25 50 -24 0 -25 -3 -25 -54 0 -35 -5 -58
-15 -66 -24 -20 -35 -2 -35 61 0 56 -1 59 -25 59 -24 0 -25 -2 -25 -74 0 -66
3 -77 22 -90 12 -9 36 -16 53 -16 17 0 41 7 53 16 20 14 24 14 44 0 28 -20 78
-21 103 -2 16 11 21 11 30 1 7 -9 29 -11 73 -8 52 5 62 8 62 24 0 15 -8 19
-40 19 -22 0 -40 5 -40 10 0 6 16 10 35 10 31 0 35 3 35 25 0 22 -4 25 -36 25
-21 0 -33 4 -29 10 3 6 22 10 41 10 27 0 34 4 34 20 0 18 -7 20 -70 20 -59 0
-70 -3 -70 -17 0 -16 -1 -16 -13 0 -15 22 -75 30 -104 15z"/>
<path d="M1139 6651 c-60 -61 -21 -161 62 -161 23 0 61 18 71 34 5 7 8 4 8 -6
0 -13 8 -18 30 -18 27 0 30 3 30 31 0 24 4 30 18 27 10 -2 18 -14 20 -29 3
-24 8 -27 50 -32 56 -6 62 -3 62 28 l0 23 28 -27 c27 -27 29 -28 137 -26 l110
3 3 37 3 38 25 -37 c20 -29 31 -37 51 -34 26 3 26 5 28 86 l1 82 -28 0 c-25 0
-28 -4 -28 -32 l0 -33 -21 33 c-20 30 -24 32 -80 32 -47 0 -59 -3 -59 -16 0
-13 -5 -12 -26 5 -38 30 -80 27 -115 -8 l-29 -29 0 24 c0 19 -5 24 -25 24 -17
0 -25 -6 -25 -17 -1 -17 -1 -17 -11 0 -8 14 -24 17 -79 17 -60 0 -70 -3 -70
-17 0 -11 -3 -14 -8 -7 -11 18 -49 34 -77 34 -16 0 -38 -12 -56 -29z"/>
<path d="M1983 6670 c-29 -12 -43 -40 -43 -88 0 -60 27 -87 85 -87 37 0 51 5
66 24 19 23 19 23 19 2 0 -17 6 -21 30 -21 27 0 30 3 30 30 0 27 3 30 30 30
25 0 30 4 30 25 0 21 -5 25 -30 25 -16 0 -30 5 -30 10 0 6 18 10 41 10 33 0
40 3 37 18 -3 14 -16 18 -71 20 -63 3 -67 2 -67 -19 l0 -21 -17 21 c-20 24
-77 35 -110 21z"/>
<path d="M2323 6665 c-25 -17 -32 -68 -12 -81 8 -5 6 -10 -5 -16 -23 -13 -20
-34 10 -57 36 -28 79 -27 109 4 30 29 31 49 6 74 -19 19 -19 19 0 24 22 6 51
-40 53 -83 1 -20 7 -26 29 -28 24 -3 27 0 27 29 0 17 10 48 23 68 l22 36 3
-67 c3 -65 4 -68 27 -68 19 0 25 5 26 23 l0 22 9 -22 c12 -29 60 -33 60 -5 1
16 1 16 11 0 7 -13 23 -18 59 -18 45 0 50 2 51 23 l0 22 9 -22 c12 -29 60 -33
60 -5 1 16 1 16 11 0 8 -15 25 -18 104 -18 95 0 95 0 95 25 0 23 -4 25 -40 25
-22 0 -40 5 -40 10 0 6 16 10 35 10 28 0 35 4 35 20 0 16 -7 20 -35 20 -19 0
-35 5 -35 10 0 7 24 10 63 8 l62 -3 3 -62 c3 -59 4 -63 27 -63 23 0 24 4 27
62 2 50 6 63 21 66 15 3 17 -5 17 -62 0 -64 1 -66 25 -66 21 0 25 5 25 30 0
21 5 30 16 30 9 0 21 -13 27 -30 8 -22 18 -30 35 -30 22 0 24 4 22 43 -5 79
-2 86 20 49 11 -18 20 -46 20 -62 0 -25 4 -30 25 -30 20 0 25 5 25 27 0 14 14
48 31 75 31 49 33 78 4 78 -9 0 -27 -11 -40 -26 -23 -24 -23 -25 -30 -5 -7 22
-57 41 -62 24 -2 -5 -27 -7 -61 -3 -69 8 -417 4 -431 -4 -5 -3 -12 -20 -16
-36 -7 -32 -25 -32 -25 0 0 33 -26 47 -84 48 -58 0 -68 -5 -83 -53 l-10 -30
-12 36 c-11 35 -14 37 -64 42 -62 5 -74 2 -83 -26 -6 -20 -6 -20 -23 2 -12 15
-27 22 -51 21 -19 0 -51 2 -70 5 -24 4 -42 1 -57 -10z"/>
<path d="M350 6579 c0 -88 1 -90 23 -87 14 2 23 11 25 27 l4 24 12 -24 c18
-37 44 -36 61 3 l14 33 1 -32 c0 -33 6 -38 34 -27 13 5 16 23 16 91 l0 84 -37
-3 c-31 -3 -38 -8 -48 -37 -12 -37 -18 -34 -29 12 -5 23 -11 27 -41 27 l-35 0
0 -91z"/>
<path d="M350 6430 l0 -50 320 0 320 0 0 50 0 50 -320 0 -320 0 0 -50z"/>
<path d="M347 6117 c-3 -23 -4 -44 -1 -48 7 -12 248 -8 262 4 9 7 16 8 20 0
10 -15 231 -16 248 -2 10 8 14 8 14 0 0 -15 37 -14 43 2 4 10 6 10 6 0 1 -7
10 -13 21 -13 14 0 20 7 21 23 l0 22 9 -22 c8 -21 16 -23 76 -23 61 0 66 1 61
20 -3 11 -1 22 3 25 5 3 10 -5 12 -17 2 -13 11 -24 21 -26 14 -3 17 4 17 45
l0 49 -144 2 c-126 2 -146 1 -154 -14 -8 -14 -10 -14 -15 -1 -8 22 -233 22
-246 0 -7 -13 -9 -13 -14 0 -5 12 -28 15 -130 15 l-125 0 -5 -41z"/>
<path d="M505 2373 c8 -217 9 -224 38 -222 12 1 32 1 45 1 l22 -2 -2 -317 -3
-318 -110 -1 c-60 -1 -190 -7 -289 -13 -98 -6 -184 -11 -192 -11 -8 0 -14 -7
-14 -15 0 -19 14 -19 368 -3 l272 11 1 46 c1 25 1 175 -1 334 l-2 287 25 0
c44 0 48 16 45 196 -3 148 -5 169 -20 172 -15 3 -16 -13 -17 -159 -1 -89 -2
-163 -3 -164 -2 0 -28 1 -59 3 l-56 4 -7 81 c-3 45 -6 124 -6 175 0 86 -1 92
-21 92 -20 0 -20 -3 -14 -177z"/>
<path d="M987 2363 c-9 -14 24 -428 34 -438 5 -5 36 -10 68 -10 33 0 62 -3 65
-6 15 -15 24 -130 25 -307 l0 -192 -52 0 c-29 0 -266 -9 -527 -20 -261 -11
-503 -20 -537 -20 -58 0 -63 -2 -63 -21 0 -21 3 -22 93 -16 50 3 308 13 572
22 264 9 500 19 523 21 39 5 43 8 38 27 -2 12 -7 114 -11 227 -3 113 -8 221
-11 241 l-5 37 45 6 c24 4 50 13 56 21 8 10 10 55 6 157 -9 214 -14 248 -38
248 -18 0 -19 -6 -13 -92 3 -51 7 -137 9 -190 l4 -97 -71 0 c-40 0 -88 3 -108
5 l-36 5 -11 132 c-7 73 -12 162 -12 200 0 60 -2 67 -19 67 -11 0 -22 -3 -24
-7z"/>
<path d="M987 1844 c-9 -9 4 -137 15 -151 5 -7 7 -54 4 -108 -5 -88 -4 -96 12
-93 14 3 18 18 22 95 3 53 10 97 18 105 7 7 12 38 12 76 0 55 -2 63 -17 60
-13 -2 -20 -16 -24 -48 l-6 -45 -1 58 c-2 40 -6 57 -15 57 -8 0 -16 -3 -20 -6z"/>
<path d="M4172 1788 l3 -63 -30 0 c-30 0 -30 1 -33 58 -3 49 -6 57 -22 57 -16
0 -20 -7 -20 -37 0 -21 3 -55 6 -75 6 -32 11 -38 30 -38 24 0 24 0 24 -120 l0
-120 -35 0 c-25 0 -35 -4 -35 -16 0 -12 10 -14 53 -12 l52 3 0 125 0 124 26
10 c26 9 27 11 23 78 -4 76 -8 88 -30 88 -13 0 -15 -12 -12 -62z"/>
<path d="M6900 75 c-140 -13 -313 -28 -385 -34 -71 -7 -160 -14 -197 -18 -38
-3 -68 -10 -68 -14 0 -5 212 -9 475 -9 l475 0 0 50 c0 46 -2 50 -22 49 -13 -1
-138 -12 -278 -24z"/>
</g>
</svg>
