<?xml version="1.0" standalone="no"?>
<!DOCTYPE svg PUBLIC "-//W3C//DTD SVG 20010904//EN"
 "http://www.w3.org/TR/2001/REC-SVG-20010904/DTD/svg10.dtd">
<svg version="1.0" xmlns="http://www.w3.org/2000/svg"
 width="720.000000pt" height="720.000000pt" viewBox="0 0 720.000000 720.000000"
 preserveAspectRatio="xMidYMid meet">

<g transform="translate(0.000000,720.000000) scale(0.100000,-0.100000)"
fill="#000000" stroke="none">
<path d="M0 4385 l0 -2814 138 -3 137 -3 -1 -24 -1 -24 19 26 20 27 149 -1
c82 0 151 -5 154 -9 3 -5 3 -21 -1 -35 -6 -25 -8 -26 -83 -24 -137 3 -506 -13
-521 -23 -9 -6 67 -6 200 -2 118 4 242 8 275 9 150 3 145 2 145 33 0 52 2 53
201 50 l184 -3 -2 -34 c-1 -37 13 -30 19 9 3 24 6 25 81 28 l78 3 -3 -82 -3
-82 -40 -3 c-22 -2 -184 -8 -360 -14 -176 -6 -390 -15 -475 -21 -85 -5 -190
-9 -232 -9 -51 0 -78 -4 -78 -11 0 -8 35 -10 123 -5 67 3 210 8 317 11 107 3
213 8 235 10 22 2 146 7 275 11 129 4 242 8 250 9 12 2 14 18 12 94 l-4 91 86
0 86 0 0 -110 0 -110 -37 0 c-90 0 -1338 -52 -1343 -57 -8 -7 24 -23 40 -19 8
3 112 7 230 11 118 3 238 8 265 10 28 2 131 7 230 10 99 3 200 8 225 10 25 2
120 7 212 11 l168 6 0 -30 0 -30 -153 -6 c-83 -3 -332 -13 -552 -21 -575 -21
-665 -26 -665 -36 0 -12 50 -11 425 6 320 15 482 18 474 11 -2 -2 -96 -7 -209
-11 -113 -4 -212 -9 -220 -10 -8 -2 -98 -6 -200 -10 -102 -4 -205 -11 -230
-15 l-45 -8 41 -1 c22 0 297 10 610 24 771 33 718 32 722 11 2 -10 0 -22 -5
-27 -4 -4 -130 -13 -278 -19 -149 -6 -378 -15 -510 -21 -132 -5 -296 -12 -365
-15 -156 -6 -210 -12 -210 -25 0 -7 37 -8 103 -5 56 3 172 8 257 11 85 3 191
8 235 10 44 2 145 7 225 10 80 3 233 10 340 14 107 5 198 7 203 4 9 -6 9 -83
0 -84 -5 0 -26 -2 -48 -4 -64 -5 -239 -14 -395 -20 -80 -3 -172 -8 -205 -11
-50 -4 -661 -34 -702 -34 -7 0 -13 -7 -13 -16 0 -13 8 -15 47 -10 27 3 118 8
203 11 85 4 169 8 185 10 17 2 113 6 215 10 102 4 199 9 215 11 30 3 387 18
460 19 36 0 40 -2 40 -25 0 -25 -1 -25 -105 -32 -155 -9 -461 -27 -570 -33
-52 -3 -169 -9 -260 -14 -91 -6 -225 -13 -297 -17 -104 -5 -133 -9 -133 -20 0
-18 -9 -18 435 6 204 10 424 22 490 25 158 8 263 14 356 21 48 4 79 2 83 -4 3
-6 3 -42 0 -80 l-7 -70 -106 -6 c-58 -4 -136 -9 -173 -12 -37 -2 -147 -9 -245
-14 -126 -7 -782 -46 -830 -50 -7 0 -2 -60 5 -60 4 0 77 5 162 10 85 5 205 12
265 15 61 3 160 10 220 15 61 5 169 12 240 15 72 3 141 7 155 10 14 2 93 7
175 10 83 4 175 10 205 13 l55 7 0 105 0 105 210 12 c282 15 571 30 915 48
433 22 479 25 565 31 134 8 1965 104 2000 104 l32 0 -5 -112 c-2 -62 -5 -114
-6 -115 -1 -1 -318 -22 -1416 -93 -655 -43 -1457 -96 -1970 -130 -450 -30
-709 -47 -1145 -75 -132 -8 -332 -22 -445 -30 -113 -8 -208 -15 -212 -15 -5 0
-8 -16 -8 -35 0 -33 1 -34 33 -30 17 2 72 6 122 9 50 4 184 13 300 21 116 8
248 17 295 19 47 3 240 17 430 31 190 13 449 31 575 39 267 18 651 44 745 51
180 13 373 27 645 45 165 11 334 22 375 25 695 49 1674 114 1676 112 5 -5 33
-291 39 -405 6 -105 5 -112 -12 -112 -11 0 -95 -7 -188 -15 -175 -15 -1597
-130 -2040 -165 -137 -11 -266 -22 -285 -25 -19 -2 -73 -7 -120 -10 -47 -4
-161 -13 -255 -21 -93 -8 -206 -17 -250 -20 -44 -3 -177 -14 -295 -24 -118
-11 -307 -27 -420 -35 -113 -9 -209 -18 -215 -20 -16 -6 1354 2 1405 8 25 4
79 9 120 12 91 7 140 11 295 25 66 6 379 31 695 55 316 24 778 60 1025 80 248
19 522 41 610 47 132 9 162 14 172 29 8 10 21 15 32 12 31 -8 36 36 22 167 -7
63 -14 188 -16 277 l-2 162 41 5 c23 3 230 17 461 32 435 27 475 33 466 71 -5
23 -3 214 2 220 3 2 126 11 273 18 148 8 302 17 342 19 40 2 79 9 87 16 13 11
15 106 15 720 0 617 -2 709 -15 720 -8 7 -15 17 -15 22 0 6 7 5 15 -2 13 -11
15 238 15 2234 l0 2246 -800 0 c-690 0 -800 -2 -800 -14 0 -8 -5 -18 -11 -22
-8 -4 -9 0 -4 15 6 21 6 21 -193 21 l-200 0 -48 -40 c-27 -22 -52 -40 -56 -40
-21 0 -2 -21 65 -70 89 -67 307 -253 303 -258 -5 -5 -175 105 -203 131 -13 11
-25 18 -28 16 -13 -14 -9 -165 16 -504 6 -87 6 -181 1 -250 -5 -60 -6 -162 -1
-225 4 -63 10 -221 14 -350 3 -129 12 -298 20 -375 9 -94 16 -340 19 -750 4
-444 10 -640 20 -720 8 -60 15 -171 15 -245 1 -128 8 -243 31 -545 6 -71 10
-168 9 -215 -3 -171 9 -678 19 -790 6 -63 19 -182 30 -265 39 -293 39 -284 47
-565 3 -96 10 -220 15 -275 5 -55 10 -156 10 -225 1 -116 12 -250 26 -292 4
-13 -2 -21 -22 -28 -15 -6 -28 -9 -29 -8 -2 2 -6 71 -9 153 -8 175 -14 240
-26 275 -16 45 -22 127 -11 135 13 8 15 97 2 111 -5 5 -12 59 -15 119 -6 92
-44 624 -61 855 -20 274 -25 373 -30 655 -3 176 -7 363 -10 415 -3 52 -8 187
-11 300 -4 113 -8 207 -9 210 -2 3 -6 156 -10 340 -4 184 -9 338 -11 341 -2 3
-4 242 -5 530 -1 288 -5 583 -10 654 -21 364 -30 605 -34 955 -2 230 -8 399
-14 420 -14 44 -14 121 -1 156 10 26 6 32 -64 100 l-75 73 52 45 52 46 -2042
0 -2043 0 -2 -37 c0 -21 0 -90 2 -153 1 -63 0 -113 -3 -110 -8 8 -15 99 -16
208 -1 54 -5 92 -11 92 -6 0 -10 -44 -10 -112 0 -61 -2 -109 -5 -106 -3 3 -6
53 -7 112 l0 106 -514 0 -514 0 0 -2815z m5587 2703 c-2 -13 -4 -5 -4 17 -1
22 1 32 4 23 2 -10 2 -28 0 -40z m19 -144 c3 -69 1 -90 -5 -69 -12 40 -19 187
-8 176 5 -5 10 -53 13 -107z m-3249 -63 l1273 -1 0 -470 0 -470 -873 -2 c-479
-1 -885 -2 -900 -1 l-28 1 5 -356 c7 -455 19 -723 36 -857 16 -124 21 -189 14
-183 -35 36 -75 632 -76 1161 l0 237 -367 -2 -366 -3 -6 -30 -7 -30 -1 33 c0
17 -5 32 -9 32 -8 0 -41 -341 -43 -440 -1 -25 -5 -56 -9 -70 -12 -35 8 315 26
463 5 43 4 48 -12 47 -11 -1 -189 -2 -396 -1 l-377 1 0 470 1 470 381 2 c210
2 400 2 422 2 22 -1 613 -2 1312 -3z m2933 -26 c13 -14 19 -25 13 -25 -5 0
-20 11 -33 25 -13 14 -19 25 -13 25 5 0 20 -11 33 -25z m102 -71 c21 -15 38
-29 38 -31 0 -5 -69 35 -84 49 -22 19 11 6 46 -18z m-3522 -889 c0 -8 -4 -15
-10 -15 -5 0 -10 7 -10 15 0 8 5 15 10 15 6 0 10 -7 10 -15z m-3 -95 c3 -43 1
-60 -6 -56 -6 4 -11 35 -11 68 0 77 10 69 17 -12z m-806 -112 c-13 -181 -31
-341 -39 -334 -4 5 23 375 34 464 3 24 8 41 11 38 4 -3 1 -79 -6 -168z m819
-188 c0 -5 -2 -10 -4 -10 -3 0 -8 5 -11 10 -3 6 -1 10 4 10 6 0 11 -4 11 -10z
m10 -131 c0 -18 -19 -28 -21 -11 0 4 -2 18 -5 31 -4 20 -2 22 11 11 8 -7 15
-21 15 -31z m-12 -247 c-1 -158 -2 -167 -9 -87 -11 139 -11 277 1 270 6 -4 9
-74 8 -183z m541 -90 c0 -48 -2 -82 -4 -77 -8 23 -11 174 -3 169 4 -3 8 -44 7
-92z m-1303 24 c101 -92 230 -193 335 -260 51 -33 87 -62 81 -64 -12 -4 -103
54 -262 168 -79 57 -251 220 -231 220 5 0 39 -29 77 -64z m-71 14 c3 -5 1 -10
-4 -10 -6 0 -11 5 -11 10 0 6 2 10 4 10 3 0 8 -4 11 -10z m4190 -130 c3 -5 1
-10 -4 -10 -6 0 -11 5 -11 10 0 6 2 10 4 10 3 0 8 -4 11 -10z m1332 -42 c-3
-8 -6 -5 -6 6 -1 11 2 17 5 13 3 -3 4 -12 1 -19z m-4167 -28 c0 -10 -4 -22
-10 -25 -6 -4 -10 7 -10 25 0 18 4 29 10 25 6 -3 10 -15 10 -25z m2834 -5 c-4
-8 -8 -15 -10 -15 -2 0 -4 7 -4 15 0 8 4 15 10 15 5 0 7 -7 4 -15z m-3336
-135 l0 -35 -8 30 c-4 17 -8 55 -7 85 l0 55 7 -50 c5 -27 8 -66 8 -85z m3337
100 c3 -5 1 -10 -4 -10 -6 0 -11 5 -11 10 0 6 2 10 4 10 3 0 8 -4 11 -10z
m-2818 -177 c-2 -32 -3 -8 -3 52 0 61 1 87 3 58 2 -29 2 -78 0 -110z m2800 92
c9 16 12 12 17 -21 10 -57 -1 -278 -13 -282 -7 -2 -7 -10 0 -25 16 -28 21
-134 35 -752 3 -137 7 -257 9 -265 6 -24 15 -335 20 -715 5 -353 9 -480 26
-700 5 -66 15 -219 24 -340 8 -121 17 -247 20 -280 3 -33 8 -116 10 -184 5
-103 3 -127 -10 -141 -14 -16 -14 -19 0 -33 17 -17 21 -42 5 -32 -5 3 -10 -1
-10 -9 0 -9 5 -16 11 -16 8 0 8 -4 1 -13 -7 -8 -7 -18 -2 -27 7 -10 10 -11 10
-2 0 6 4 12 9 12 4 0 8 -38 8 -85 0 -46 -4 -82 -8 -80 -4 3 -10 1 -14 -5 -3
-5 1 -10 11 -10 12 0 15 -7 12 -28 -3 -15 -9 -35 -13 -44 -5 -13 -3 -18 9 -18
25 0 19 -25 -6 -26 -13 0 -30 -4 -38 -7 -8 -4 -24 0 -34 8 -15 11 -17 17 -7
29 9 10 9 16 1 21 -19 12 -32 56 -20 70 6 7 9 36 7 64 -2 28 -1 53 2 56 9 10
7 39 -4 48 -6 4 -3 12 7 21 10 7 15 15 13 18 -3 3 2 24 10 47 11 33 12 48 3
64 -7 14 -13 17 -16 9 -2 -6 -10 -12 -18 -12 -8 0 -14 -9 -14 -20 0 -11 -2
-20 -4 -20 -2 0 -11 -3 -20 -6 -11 -4 -16 -1 -16 11 0 9 4 14 9 11 5 -3 12 6
16 21 3 16 12 31 18 35 8 5 7 8 -4 8 -22 0 -43 26 -33 41 5 9 10 7 15 -7 7
-18 8 -18 8 2 1 12 -6 27 -14 34 -8 7 -15 25 -15 40 0 24 3 27 25 22 15 -2 25
0 25 7 0 10 -20 16 -42 12 -16 -2 -4 75 14 95 12 13 16 24 9 28 -5 4 -14 -2
-20 -11 -8 -14 -11 6 -13 77 -1 52 -3 115 -4 140 -1 25 4 69 11 98 7 28 9 52
4 52 -5 0 -9 7 -9 16 0 8 5 12 10 9 14 -8 13 8 -1 22 -13 13 -16 45 -23 204
-2 58 0 112 4 120 5 8 5 16 0 19 -6 4 -6 18 0 39 5 19 5 42 0 56 -5 12 -7 25
-4 27 6 6 15 356 15 563 -1 189 -7 453 -16 680 -3 83 -8 227 -10 320 -6 198
-13 354 -20 443 -4 39 -2 62 5 62 5 0 10 -4 10 -10 0 -5 7 -10 15 -10 16 0 20
12 8 24 -4 4 -8 14 -8 22 0 7 -4 14 -10 13 -5 0 -9 -8 -7 -17 2 -14 1 -15 -7
-3 -11 17 5 55 20 46 5 -4 9 3 9 13 0 11 -6 22 -13 25 -17 6 -14 51 4 73 11
13 11 18 2 21 -7 3 -13 13 -13 23 0 10 -4 22 -10 25 -5 3 -10 11 -10 17 0 7 4
7 13 -1 8 -6 17 -8 20 -4 4 3 -2 12 -12 20 -16 10 -20 25 -19 66 0 28 4 55 10
58 6 4 4 16 -6 31 -9 14 -13 28 -9 32 5 4 13 -5 19 -20 10 -25 12 -26 21 -9z
m1392 -140 c6 -38 10 -81 10 -95 -2 -34 -38 177 -37 215 0 25 2 24 8 -10 4
-22 12 -71 19 -110z m-5115 96 c-2 -3 -12 3 -22 13 -16 17 -16 18 5 5 12 -7
20 -15 17 -18z m156 -33 c41 -28 107 -72 145 -98 71 -48 106 -80 87 -80 -6 0
-24 12 -41 26 -37 30 -214 150 -253 170 -26 13 -38 34 -20 34 4 0 41 -24 82
-52z m4468 -53 c0 -16 -2 -15 -8 5 -4 14 -8 34 -8 45 0 16 2 15 8 -5 4 -14 8
-34 8 -45z m-4599 -64 c-5 -57 -11 -107 -15 -110 -8 -7 4 197 12 211 11 17 11
5 3 -101z m32 23 l-8 -69 -2 55 c0 30 2 66 6 80 11 42 14 7 4 -66z m356 39
c-3 -10 -5 -2 -5 17 0 19 2 27 5 18 2 -10 2 -26 0 -35z m-276 21 c12 -15 11
-16 -11 -9 -35 10 -49 25 -23 25 11 0 27 -7 34 -16z m308 -156 c1 -12 -4 -15
-14 -12 -11 5 -15 21 -14 68 l1 61 13 -50 c7 -27 14 -58 14 -67z m911 5 c0 -7
-4 -13 -10 -13 -5 0 -10 12 -10 28 0 21 2 24 10 12 5 -8 10 -21 10 -27z
m-1310 -108 c-47 -750 -52 -906 -55 -1966 -3 -604 -8 -1069 -14 -1117 -6 -47
-8 -179 -5 -302 4 -151 2 -220 -5 -225 -7 -4 -11 13 -12 52 -2 86 1 545 6 998
3 220 7 603 10 850 9 840 15 1004 55 1640 11 159 16 203 24 194 2 -2 0 -58 -4
-124z m4567 63 c-2 -13 -4 -5 -4 17 -1 22 1 32 4 23 2 -10 2 -28 0 -40z
m-4600 -55 c-3 -10 -5 -2 -5 17 0 19 2 27 5 18 2 -10 2 -26 0 -35z m894 -201
c1 -40 0 -75 -3 -78 -13 -12 -23 156 -17 276 2 53 16 -81 20 -198z m16 141
c-2 -21 -4 -6 -4 32 0 39 2 55 4 38 2 -18 2 -50 0 -70z m4213 -24 c0 -6 -4 -7
-10 -4 -5 3 -10 11 -10 16 0 6 5 7 10 4 6 -3 10 -11 10 -16z m10 -103 c0 -52
-6 -43 -13 18 -3 30 -1 43 4 35 5 -8 9 -32 9 -53z m7 -78 c-3 -7 -5 -2 -5 12
0 14 2 19 5 13 2 -7 2 -19 0 -25z m-1 -65 c-10 -10 -105 -22 -166 -21 l-55 1
50 7 c28 4 74 11 103 15 29 4 56 13 59 18 4 7 8 7 11 -2 2 -7 1 -15 -2 -18z
m-4182 2 c25 -19 9 -19 -24 0 -14 8 -19 14 -10 14 8 0 24 -6 34 -14z m56 -25
c13 -8 13 -10 -2 -10 -9 0 -20 5 -23 10 -8 13 5 13 25 0z m284 -45 c25 -19 9
-19 -24 0 -14 8 -19 14 -10 14 8 0 24 -6 34 -14z m-66 -25 c10 0 27 -7 38 -16
10 -8 15 -13 9 -11 -5 3 -36 12 -67 21 -32 9 -58 21 -58 27 0 5 13 3 30 -6 16
-8 37 -15 48 -15z m107 -41 c12 -19 -5 -23 -22 -6 -16 16 -16 17 -1 17 9 0 20
-5 23 -11z m-1378 -46 c-3 -10 -5 -2 -5 17 0 19 2 27 5 18 2 -10 2 -26 0 -35z
m2233 -81 c5 -114 -4 -501 -10 -452 -11 77 -10 552 0 517 5 -15 9 -45 10 -65z
m-2234 -59 c-11 -199 -25 -784 -31 -1293 -4 -267 -8 -575 -10 -685 -2 -110 -5
-377 -6 -593 -1 -354 -3 -393 -17 -390 -14 3 -16 30 -13 243 1 132 4 242 7
246 2 4 6 244 9 535 9 952 34 1941 51 2027 12 58 16 22 10 -90z m1150 -150
c-8 -339 -17 -506 -27 -545 -6 -25 -7 -18 -3 27 3 44 20 547 24 753 0 6 3 12
6 12 3 0 3 -111 0 -247z m3793 -13 c11 -155 14 -327 7 -319 -2 2 -7 69 -11
149 -3 80 -11 197 -16 260 -10 134 -10 160 2 105 4 -22 13 -110 18 -195z
m-3032 -67 c-3 -10 -5 -2 -5 17 0 19 2 27 5 18 2 -10 2 -26 0 -35z m290 -155
c-3 -8 -6 -5 -6 6 -1 11 2 17 5 13 3 -3 4 -12 1 -19z m10 -125 c-2 -16 -4 -3
-4 27 0 30 2 43 4 28 2 -16 2 -40 0 -55z m2770 -25 c-3 -7 -5 -2 -5 12 0 14 2
19 5 13 2 -7 2 -19 0 -25z m-2739 -35 l-1 -58 -6 50 c-6 48 -5 65 5 65 2 0 3
-26 2 -57z m-20 -88 c0 -43 -2 -46 -8 -20 -4 17 -8 53 -8 80 0 43 2 46 8 20 4
-16 8 -52 8 -80z m-337 -135 c-9 -47 -9 -37 -6 60 6 155 8 170 12 75 2 -44 -1
-105 -6 -135z m3722 167 c3 -22 2 -35 -4 -32 -5 4 -9 22 -9 42 0 45 5 40 13
-10z m4 -79 c-3 -7 -5 -2 -5 12 0 14 2 19 5 13 2 -7 2 -19 0 -25z m-650 -10
c-3 -7 -5 -2 -5 12 0 14 2 19 5 13 2 -7 2 -19 0 -25z m-3820 -160 c-2 -29 -3
-8 -3 47 0 55 1 79 3 53 2 -26 2 -71 0 -100z m893 31 c-33 -28 -120 -72 -120
-61 0 9 118 80 135 81 6 0 -1 -9 -15 -20z m2927 -21 c-3 -8 -6 -5 -6 6 -1 11
2 17 5 13 3 -3 4 -12 1 -19z m-3843 -70 c-9 -111 -15 -113 -12 -5 1 48 6 87
10 87 5 0 5 -37 2 -82z m23 -150 c-2 -29 -3 -8 -3 47 0 55 1 79 3 53 2 -26 2
-71 0 -100z m4551 107 c-3 -3 -9 2 -12 12 -6 14 -5 15 5 6 7 -7 10 -15 7 -18z
m-4079 -210 c17 -131 21 -209 11 -225 -7 -10 -10 13 -10 72 0 48 -4 109 -9
135 -18 91 -22 129 -12 113 5 -9 14 -51 20 -95z m3378 73 c-3 -7 -5 -2 -5 12
0 14 2 19 5 13 2 -7 2 -19 0 -25z m-3650 -30 c-3 -7 -5 -2 -5 12 0 14 2 19 5
13 2 -7 2 -19 0 -25z m3633 -418 c1 -74 0 -148 -1 -165 -4 -54 -15 136 -18
305 -1 91 -4 191 -7 223 -3 31 -1 63 3 70 8 12 19 -198 23 -433z m-3846 154
c2 -137 1 -215 0 -174 -2 41 -8 127 -14 191 -9 102 -5 247 7 236 2 -3 5 -116
7 -253z m1853 169 c-3 -10 -5 -4 -5 12 0 17 2 24 5 18 2 -7 2 -21 0 -30z
m-1640 -10 c-3 -10 -5 -4 -5 12 0 17 2 24 5 18 2 -7 2 -21 0 -30z m1498 -63
c3 -5 2 -10 -4 -10 -5 0 -13 5 -16 10 -3 6 -2 10 4 10 5 0 13 -4 16 -10z
m-747 -190 c0 -47 -3 -96 -8 -110 -4 -14 -7 45 -7 130 0 105 3 140 8 110 4
-25 7 -83 7 -130z m3619 138 c-3 -7 -5 -2 -5 12 0 14 2 19 5 13 2 -7 2 -19 0
-25z m0 -50 c-3 -8 -6 -5 -6 6 -1 11 2 17 5 13 3 -3 4 -12 1 -19z m-710 -145
c-3 -10 -5 -4 -5 12 0 17 2 24 5 18 2 -7 2 -21 0 -30z m-2920 -175 c-2 -18 -4
-4 -4 32 0 36 2 50 4 33 2 -18 2 -48 0 -65z m-944 -80 c3 -74 1 -126 -4 -122
-5 3 -9 62 -9 131 0 70 2 124 4 122 2 -2 6 -61 9 -131z m3834 20 c-3 -7 -5 -2
-5 12 0 14 2 19 5 13 2 -7 2 -19 0 -25z m-3805 -76 c3 -34 1 -57 -4 -50 -4 7
-7 40 -7 73 1 73 6 62 11 -23z m3815 -54 c-3 -7 -5 -2 -5 12 0 14 2 19 5 13 2
-7 2 -19 0 -25z m726 -55 c4 -19 2 -33 -3 -33 -6 0 -10 17 -10 37 0 43 5 41
13 -4z m-4567 -71 c-12 -11 -15 5 -8 48 l7 45 3 -44 c2 -23 1 -46 -2 -49z m48
-528 c3 -7 1 -16 -3 -19 -16 -9 -20 55 -21 302 -1 331 2 332 11 5 4 -151 10
-280 13 -288z m3813 494 c-3 -7 -5 -2 -5 12 0 14 2 19 5 13 2 -7 2 -19 0 -25z
m-3860 -170 c-2 -24 -4 -5 -4 42 0 47 2 66 4 43 2 -24 2 -62 0 -85z m3860 65
c-3 -10 -5 -4 -5 12 0 17 2 24 5 18 2 -7 2 -21 0 -30z m-4394 8 c2 -11 5 -53
5 -94 l0 -74 -116 -7 c-65 -3 -191 -9 -282 -12 -91 -3 -169 -7 -175 -8 -5 0
-10 4 -10 9 1 6 5 54 9 108 l8 97 278 0 c266 0 278 -1 283 -19z m505 -104 c2
-89 0 -118 -10 -122 -20 -7 -1079 -47 -1085 -41 -3 3 -3 17 1 31 6 25 8 25
109 26 56 1 118 3 137 4 31 3 308 14 353 15 17 0 17 8 11 105 l-6 105 243 -3
244 -2 3 -118z m170 107 c8 -15 10 -15 15 0 5 12 20 16 58 16 l51 0 -4 -30
c-3 -16 -1 -30 3 -30 4 0 9 12 11 28 3 23 8 27 33 27 l30 0 -3 -110 c-2 -60
-6 -112 -8 -115 -3 -3 -66 -7 -140 -8 l-134 -4 0 121 0 121 40 0 c25 0 42 -6
48 -16z m787 -61 c0 -71 -1 -73 -25 -74 -22 -2 -22 -2 -4 -6 16 -3 23 -13 26
-37 l4 -33 -91 -7 c-49 -3 -176 -9 -282 -12 l-192 -7 -3 122 c-2 68 -1 125 1
127 2 2 131 3 285 1 l281 -2 0 -72z m603 7 c-2 -53 0 -70 10 -70 10 0 12 15 6
70 l-7 71 104 -3 104 -3 3 -38 c2 -21 -2 -45 -9 -53 -8 -10 -8 -14 0 -14 13 0
3 -60 -13 -76 -9 -10 -313 -27 -686 -37 l-65 -2 -5 113 -5 112 283 0 284 0 -4
-70z m1064 19 c1 -29 -1 -53 -7 -55 -5 -2 -113 -8 -239 -13 -125 -5 -231 -13
-235 -17 -7 -7 382 3 441 12 30 5 39 2 44 -11 4 -9 3 -20 -2 -25 -5 -5 -78
-12 -162 -16 -84 -4 -155 -11 -159 -17 -4 -6 28 -7 88 -3 52 3 125 7 163 8
l69 3 -1 -99 c0 -54 -3 -100 -6 -103 -2 -3 -287 -20 -633 -39 -345 -18 -711
-38 -813 -43 -102 -6 -358 -20 -570 -31 -692 -36 -1015 -54 -1170 -65 -147
-10 -532 -26 -536 -22 -3 2 0 15 5 29 8 21 16 25 58 26 232 8 1020 43 1063 46
65 6 80 21 73 77 -3 21 -4 39 -2 39 2 0 204 9 448 19 244 11 447 23 451 28 5
4 10 24 12 43 l3 35 250 12 c138 6 318 14 400 17 l150 5 -3 50 c-3 47 -2 51
20 52 l23 2 -22 4 c-20 4 -23 11 -23 53 l0 49 409 1 409 0 4 -51z m411 34 c-6
-17 -5 -17 14 0 17 14 41 17 161 17 l142 0 0 -40 0 -40 -42 0 c-24 -1 -104 -4
-178 -8 -234 -11 -232 -11 -241 20 -15 58 -4 68 77 68 66 0 73 -2 67 -17z
m797 -43 l0 -60 -33 0 c-18 0 -190 -7 -382 -15 -553 -23 -510 -23 -513 1 -3
20 2 21 140 27 79 4 178 7 220 7 103 0 108 3 108 56 l0 44 230 0 230 0 0 -60z
m440 11 l0 -48 -87 -5 c-49 -3 -131 -5 -183 -4 l-95 1 0 45 c0 25 1 48 3 53 2
4 84 7 183 7 l179 0 0 -49z m290 -30 l0 -78 -37 -7 c-21 -3 -79 -6 -130 -6
-57 0 -94 -4 -99 -11 -5 -9 29 -11 127 -8 l134 4 3 -52 c2 -39 -1 -53 -10 -53
-7 0 -152 -7 -321 -16 -169 -9 -311 -13 -315 -9 -7 7 -5 175 2 183 2 2 64 5
138 8 73 3 157 7 186 10 l52 5 0 55 0 54 135 0 135 0 0 -79z m21 -159 c-13
-21 -15 50 -3 124 7 48 7 47 10 -29 2 -42 -2 -85 -7 -95z m-694 96 c-2 -13 -4
-3 -4 22 0 25 2 35 4 23 2 -13 2 -33 0 -45z m-57 -83 c0 -68 -4 -97 -12 -100
-7 -2 -193 -13 -413 -25 -220 -11 -420 -21 -445 -23 l-45 -2 -7 45 c-11 76 -9
150 5 155 9 3 546 30 885 44 l32 1 0 -95z m34 13 c-4 -40 -8 -75 -10 -77 -2
-2 -4 30 -4 72 0 45 4 77 10 77 6 0 8 -26 4 -72z m-3834 17 c0 -8 -4 -15 -10
-15 -5 0 -7 7 -4 15 4 8 8 15 10 15 2 0 4 -7 4 -15z m3857 -37 c-3 -8 -6 -5
-6 6 -1 11 2 17 5 13 3 -3 4 -12 1 -19z m720 -35 c-3 -10 -5 -4 -5 12 0 17 2
24 5 18 2 -7 2 -21 0 -30z m-3647 -13 c0 -29 -1 -30 -47 -30 -27 0 -194 -7
-373 -15 -179 -8 -353 -15 -387 -15 -60 0 -63 1 -63 24 0 22 5 24 68 30 37 3
186 11 332 17 146 6 266 12 268 14 2 1 48 3 103 4 l99 2 0 -31z m3626 -17
c-10 -10 -19 5 -10 18 6 11 8 11 12 0 2 -7 1 -15 -2 -18z m-4556 -69 c0 -54
-4 -83 -10 -79 -11 7 -14 148 -3 158 12 13 13 7 13 -79z m-547 69 c-7 -2 -19
-2 -25 0 -7 3 -2 5 12 5 14 0 19 -2 13 -5z m507 -23 c0 -29 -1 -30 -47 -30
-27 0 -192 -7 -368 -15 -667 -31 -671 -31 -678 -6 -3 11 -2 23 3 26 13 8 343
25 840 45 102 4 200 8 218 8 29 2 32 0 32 -28z m3897 -7 c-3 -10 -5 -4 -5 12
0 17 2 24 5 18 2 -7 2 -21 0 -30z m-4754 20 c-7 -2 -21 -2 -30 0 -10 3 -4 5
12 5 17 0 24 -2 18 -5z m100 0 c-13 -2 -35 -2 -50 0 -16 2 -5 4 22 4 28 0 40
-2 28 -4z m-235 -10 c-15 -2 -42 -2 -60 0 -18 2 -6 4 27 4 33 0 48 -2 33 -4z
m-265 -10 c-29 -2 -77 -2 -105 0 -29 2 -6 3 52 3 58 0 81 -1 53 -3z m-225 -10
c-32 -2 -86 -2 -120 0 -35 2 -9 3 57 3 66 0 94 -1 63 -3z m5353 -128 c0 -110
-4 -136 -16 -123 -3 2 -2 59 2 126 3 67 8 121 10 118 2 -2 4 -56 4 -121z m-35
-2 c-4 -59 -8 -109 -10 -110 -5 -5 -890 -62 -894 -58 -2 1 -6 51 -9 109 -4 83
-2 107 9 111 7 3 209 16 448 29 239 13 441 24 449 25 12 1 13 -17 7 -106z
m-3841 57 l0 -35 -70 -6 c-38 -4 -178 -12 -310 -19 -132 -7 -251 -14 -265 -15
-14 -2 -108 -6 -210 -10 -102 -3 -195 -8 -207 -11 -21 -4 -23 -1 -23 41 0 25
1 45 3 46 6 2 1054 46 1067 45 10 -1 15 -12 15 -36z m2685 -90 c0 -5 -4 -10
-10 -10 -5 0 -10 5 -10 10 0 6 5 10 10 10 6 0 10 -4 10 -10z m41 -82 c-6 -16
-8 -34 -5 -39 3 -5 -2 -6 -10 -3 -10 4 -18 -1 -22 -11 -5 -12 -9 -13 -14 -5
-9 14 10 71 21 64 4 -2 13 10 21 26 17 39 24 12 9 -32z m1179 2 c0 -5 -5 -10
-11 -10 -5 0 -7 5 -4 10 3 6 8 10 11 10 2 0 4 -4 4 -10z m-1190 -199 c0 -6 -4
-13 -10 -16 -5 -3 -10 1 -10 9 0 9 5 16 10 16 6 0 10 -4 10 -9z m5 -181 c3 -5
1 -10 -4 -10 -6 0 -11 5 -11 10 0 6 2 10 4 10 3 0 8 -4 11 -10z m102 -8 c-10
-2 -16 -9 -14 -15 3 -7 10 -11 16 -9 6 1 11 -1 12 -5 0 -5 2 -18 3 -31 2 -14
-4 -27 -15 -33 -24 -12 -25 -12 -25 10 0 11 5 17 13 14 7 -3 13 2 13 11 0 18
-25 22 -35 6 -3 -5 -12 -10 -18 -10 -8 0 -8 3 -2 8 6 4 10 18 9 32 -2 30 10
40 40 32 18 -5 19 -7 3 -10z m19 -195 c-2 -7 -8 -2 -11 11 -8 24 -30 30 -38
10 -2 -7 -4 -1 -3 14 1 22 5 27 19 22 10 -3 17 0 18 8 0 7 5 -2 10 -20 6 -19
8 -39 5 -45z"/>
<path d="M360 6734 l0 -45 308 3 307 3 3 43 3 42 -310 0 -311 0 0 -46z"/>
<path d="M667 6663 c-4 -3 -9 -32 -13 -65 -7 -62 -22 -80 -49 -58 -10 8 -15
31 -15 66 0 47 -2 54 -20 54 -17 0 -20 -7 -20 -51 0 -50 12 -87 34 -101 21
-14 73 -8 89 10 28 30 21 173 -6 145z"/>
<path d="M730 6650 c-11 -11 -20 -24 -20 -28 0 -18 27 -40 63 -52 21 -6 36
-17 34 -23 -6 -18 -42 -20 -57 -2 -16 19 -40 20 -40 1 0 -21 39 -46 70 -46 40
0 62 21 58 55 -2 25 -10 32 -45 45 -24 8 -43 18 -43 23 0 16 29 18 53 2 34
-22 49 1 17 27 -29 24 -65 23 -90 -2z"/>
<path d="M863 6654 c-2 -6 -3 -42 -1 -80 l3 -69 58 -3 c52 -3 57 -1 57 18 0
17 -6 20 -40 20 -54 0 -56 27 -2 32 20 2 37 8 37 13 0 6 -17 11 -37 13 -55 5
-52 32 3 32 32 0 40 3 37 16 -2 13 -16 17 -57 18 -31 0 -55 -4 -58 -10z"/>
<path d="M1165 6658 c-31 -18 -44 -40 -45 -76 0 -68 79 -106 131 -63 19 15 24
29 24 65 0 27 -6 51 -15 60 -21 21 -71 29 -95 14z m56 -28 c27 -15 26 -75 -1
-90 -47 -25 -84 45 -44 84 18 19 20 19 45 6z"/>
<path d="M1294 6657 c-3 -8 -4 -45 -2 -83 2 -53 6 -69 18 -69 10 0 16 12 18
33 5 50 54 41 64 -13 5 -30 34 -26 31 5 -2 14 -4 34 -5 45 0 11 2 28 6 37 13
29 -27 58 -79 58 -29 0 -48 -5 -51 -13z m91 -42 c0 -14 -8 -21 -27 -23 -22 -3
-28 1 -28 16 0 25 10 33 35 30 12 -2 20 -10 20 -23z"/>
<path d="M1457 6664 c-4 -4 -7 -43 -7 -86 0 -70 2 -79 18 -76 14 3 17 15 17
82 0 73 -9 99 -28 80z"/>
<path d="M1544 6660 c-48 -19 -55 -116 -11 -145 13 -8 42 -13 69 -12 l48 2 0
43 c0 42 0 42 -36 42 -24 0 -34 -4 -31 -12 2 -7 9 -13 15 -13 21 0 23 -14 3
-25 -33 -17 -61 3 -61 46 0 27 5 37 26 46 22 10 28 10 39 -5 7 -9 17 -17 23
-17 21 0 22 20 2 40 -21 21 -51 25 -86 10z"/>
<path d="M1675 6657 c-4 -8 -5 -45 -3 -83 2 -53 6 -69 18 -69 12 0 15 15 15
79 0 55 -4 81 -12 83 -7 3 -15 -2 -18 -10z"/>
<path d="M1737 6664 c-11 -12 -8 -152 4 -159 17 -11 23 3 20 50 -1 25 1 45 4
45 3 0 19 -23 36 -51 47 -75 64 -65 64 36 0 64 -3 80 -15 80 -11 0 -16 -13
-18 -49 l-3 -49 -32 48 c-32 49 -47 61 -60 49z"/>
<path d="M1976 6649 c-21 -16 -26 -29 -26 -64 0 -35 5 -48 26 -64 15 -12 37
-21 49 -21 12 0 34 9 49 21 21 16 26 29 26 64 0 35 -5 48 -26 64 -15 12 -37
21 -49 21 -12 0 -34 -9 -49 -21z m80 -34 c31 -48 -16 -106 -56 -70 -24 22 -26
52 -3 77 22 25 39 23 59 -7z"/>
<path d="M2124 6657 c-3 -8 -4 -45 -2 -83 2 -53 6 -69 18 -69 10 0 16 12 18
32 3 28 7 32 35 35 42 4 41 22 -1 26 -25 3 -32 8 -30 20 2 12 14 17 38 17 24
0 35 5 35 15 0 21 -103 27 -111 7z"/>
<path d="M2326 6654 c-33 -32 -15 -68 41 -83 15 -4 28 -14 28 -22 0 -20 -44
-24 -51 -5 -7 17 -44 22 -44 6 0 -21 41 -50 70 -50 31 0 70 30 70 54 0 18 -26
39 -64 51 -36 12 -41 29 -8 33 12 2 22 -1 22 -7 0 -6 9 -11 20 -11 11 0 20 4
20 9 0 19 -32 41 -60 41 -16 0 -36 -7 -44 -16z"/>
<path d="M2440 6663 c0 -5 11 -26 25 -48 13 -22 25 -54 25 -71 0 -36 6 -45 26
-37 8 3 14 18 14 35 0 16 11 46 25 66 14 20 25 42 25 49 0 24 -28 13 -48 -18
l-19 -31 -22 31 c-20 28 -51 42 -51 24z"/>
<path d="M2600 6584 c0 -64 3 -85 13 -82 6 3 14 27 17 54 l5 49 13 -41 c6 -23
19 -47 27 -54 15 -12 21 -4 48 70 3 8 6 -4 6 -26 1 -28 6 -44 16 -48 22 -8 26
10 23 90 -3 65 -4 69 -27 69 -20 0 -27 -9 -41 -50 -15 -41 -19 -47 -25 -30
-29 76 -35 85 -54 85 -20 0 -21 -6 -21 -86z"/>
<path d="M2786 6618 c-3 -29 -4 -64 -2 -78 3 -14 5 -28 5 -32 1 -4 8 -5 16 -2
10 4 15 21 16 53 l0 46 17 -45 c24 -62 48 -64 64 -6 7 25 15 46 18 46 3 0 5
-21 5 -47 0 -36 4 -48 15 -48 12 0 15 16 15 80 0 78 -1 80 -24 80 -20 0 -27
-9 -41 -50 -15 -41 -19 -47 -25 -30 -29 75 -35 85 -54 85 -16 0 -20 -9 -25
-52z"/>
<path d="M2987 6664 c-7 -8 -10 -148 -3 -155 2 -2 29 -2 60 -1 40 3 56 8 56
18 0 10 -12 14 -40 14 -54 0 -56 27 -2 32 48 4 48 22 -1 26 -30 3 -37 7 -35
20 2 12 15 18 41 20 55 5 41 26 -19 30 -27 2 -53 0 -57 -4z"/>
<path d="M3120 6655 c0 -8 9 -15 20 -15 17 0 19 -8 22 -67 2 -53 6 -68 18 -68
11 0 16 16 20 64 4 53 8 65 23 67 58 8 25 34 -44 34 -46 0 -59 -3 -59 -15z"/>
<path d="M3262 6588 c3 -82 18 -111 28 -53 4 24 10 30 30 30 18 0 26 -6 28
-22 2 -12 10 -27 17 -33 21 -17 31 15 18 51 -7 17 -7 31 -2 35 15 9 10 40 -9
57 -12 11 -36 17 -66 17 l-47 0 3 -82z m86 31 c2 -11 -6 -18 -23 -21 -28 -6
-40 5 -31 28 8 20 50 14 54 -7z"/>
<path d="M3400 6658 c0 -7 12 -31 25 -53 14 -22 25 -52 25 -66 0 -31 7 -39 26
-32 8 3 14 19 14 37 0 17 11 49 25 71 28 47 30 55 11 55 -8 0 -25 -14 -37 -31
l-22 -31 -19 31 c-20 31 -48 42 -48 19z"/>
<path d="M360 6580 c0 -63 3 -80 14 -80 11 0 16 14 18 48 l3 47 16 -45 c9 -25
22 -45 30 -45 8 0 21 19 29 43 8 23 17 42 21 42 3 0 5 -19 5 -42 -1 -32 3 -43
14 -43 12 0 16 17 18 78 l3 77 -29 0 c-26 0 -31 -5 -42 -46 -14 -50 -22 -48
-40 9 -9 29 -17 37 -36 37 -23 0 -24 -2 -24 -80z"/>
<path d="M358 6435 c-2 -20 -2 -38 1 -40 2 -3 143 -5 313 -5 l308 0 0 40 0 40
-309 0 -309 0 -4 -35z"/>
<path d="M428 6140 c-7 -11 -22 -20 -32 -20 -20 0 -20 0 0 15 18 14 18 14 -7
15 -16 0 -29 -7 -33 -16 -8 -21 1 -34 19 -27 8 3 15 0 15 -6 0 -6 -10 -11 -22
-11 -21 0 -21 -1 -5 -17 15 -16 18 -16 35 0 17 15 21 16 31 3 15 -18 38 -11
46 13 5 17 45 27 45 10 0 -5 -10 -9 -22 -9 -21 0 -21 -1 -5 -17 15 -15 18 -15
34 -1 16 14 20 14 31 2 12 -13 17 -13 39 1 19 13 27 14 39 4 11 -9 18 -9 26
-1 8 8 15 7 25 -3 14 -15 43 -10 43 8 0 5 9 2 20 -8 16 -14 23 -15 34 -6 11 9
19 9 35 0 17 -11 23 -10 40 5 17 16 23 17 36 6 22 -18 34 -2 28 38 -6 37 -17
41 -35 12 -7 -11 -16 -20 -20 -20 -5 0 -8 9 -8 20 0 15 -7 20 -25 20 -20 0
-25 -5 -25 -26 0 -15 -4 -23 -11 -19 -6 4 -8 13 -5 20 2 7 0 17 -6 23 -14 14
-48 -3 -48 -24 0 -8 -4 -13 -10 -9 -5 3 -7 12 -3 20 10 28 -35 17 -51 -12
l-15 -28 -1 28 c0 32 -13 35 -33 6 -15 -21 -15 -21 -21 -1 -10 29 -34 35 -48
12 -13 -21 -48 -28 -48 -9 0 5 4 8 9 4 5 -3 12 -1 16 5 4 6 -4 10 -19 10 -13
0 -26 -6 -28 -12 -3 -9 -9 -8 -22 5 -22 21 -23 21 -38 -3z m352 -10 c0 -5 -5
-10 -11 -10 -5 0 -7 5 -4 10 3 6 8 10 11 10 2 0 4 -4 4 -10z m-320 -20 c0 -11
-4 -20 -9 -20 -14 0 -23 18 -16 30 10 17 25 11 25 -10z m130 0 c0 -11 -7 -20
-15 -20 -15 0 -21 21 -8 33 12 13 23 7 23 -13z m124 -21 c-3 -5 -10 -7 -15 -3
-5 3 -7 10 -3 15 3 5 10 7 15 3 5 -3 7 -10 3 -15z m66 11 c0 -5 -4 -10 -10
-10 -5 0 -10 5 -10 10 0 6 5 10 10 10 6 0 10 -4 10 -10z m70 -4 c0 -11 -19
-15 -25 -6 -3 5 1 10 9 10 9 0 16 -2 16 -4z"/>
<path d="M940 6140 c0 -5 8 -10 17 -10 13 0 14 -3 5 -12 -14 -14 -16 -48 -3
-48 5 0 12 11 15 24 3 13 9 31 12 40 5 12 0 16 -20 16 -14 0 -26 -4 -26 -10z"/>
<path d="M1007 6143 c-13 -12 -7 -60 8 -73 12 -10 18 -10 30 0 22 18 18 39 -7
50 l-23 9 23 0 c13 1 20 5 17 11 -7 11 -38 13 -48 3z m33 -43 c0 -5 -4 -10
-10 -10 -5 0 -10 5 -10 10 0 6 5 10 10 10 6 0 10 -4 10 -10z"/>
<path d="M1070 6135 c0 -9 6 -12 15 -9 22 9 18 -9 -7 -30 -22 -19 -22 -20 -3
-27 32 -12 45 -10 45 7 0 8 -4 12 -10 9 -15 -10 -12 11 4 25 8 6 12 18 9 26
-7 19 -53 18 -53 -1z"/>
<path d="M1147 6143 c-7 -13 5 -73 14 -73 5 0 9 18 9 40 0 36 -12 52 -23 33z"/>
<path d="M5195 4700 c-8 -12 2 -30 17 -30 6 0 8 3 5 7 -4 3 -2 12 4 20 9 10 8
13 -4 13 -9 0 -19 -4 -22 -10z"/>
<path d="M5205 4640 c4 -6 11 -8 16 -5 14 9 11 15 -7 15 -8 0 -12 -5 -9 -10z"/>
<path d="M5240 1586 c0 -8 5 -18 10 -21 6 -3 10 3 10 14 0 12 -4 21 -10 21 -5
0 -10 -6 -10 -14z"/>
<path d="M5277 1583 c-10 -9 -9 -23 2 -23 5 0 11 7 15 15 5 15 -5 20 -17 8z"/>
<path d="M5253 1433 c-18 -7 -16 -43 1 -43 9 0 13 10 12 25 0 14 -1 25 -1 24
0 0 -6 -3 -12 -6z"/>
<path d="M5280 1390 c0 -5 5 -10 11 -10 5 0 7 5 4 10 -3 6 -8 10 -11 10 -2 0
-4 -4 -4 -10z"/>
<path d="M5265 1340 c-3 -5 1 -10 9 -10 9 0 16 5 16 10 0 6 -4 10 -9 10 -6 0
-13 -4 -16 -10z"/>
<path d="M5255 1280 c-3 -5 -1 -10 4 -10 6 0 11 5 11 10 0 6 -2 10 -4 10 -3 0
-8 -4 -11 -10z"/>
<path d="M5256 1189 c14 -15 18 -16 30 -4 19 19 18 20 -16 21 -29 1 -30 0 -14
-17z"/>
<path d="M5280 1143 c0 -5 5 -15 10 -23 8 -12 10 -11 10 8 0 12 -4 22 -10 22
-5 0 -10 -3 -10 -7z"/>
<path d="M5316 1127 c3 -10 9 -15 12 -12 3 3 0 11 -7 18 -10 9 -11 8 -5 -6z"/>
<path d="M5320 800 c-12 -8 -10 -10 8 -10 13 0 20 4 17 10 -7 12 -6 12 -25 0z"/>
<path d="M5320 730 c0 -5 5 -10 11 -10 5 0 7 5 4 10 -3 6 -8 10 -11 10 -2 0
-4 -4 -4 -10z"/>
<path d="M5285 720 c4 -6 11 -8 16 -5 14 9 11 15 -7 15 -8 0 -12 -5 -9 -10z"/>
<path d="M2165 1460 c-57 -6 -56 -7 32 -8 52 -1 94 2 98 8 7 11 -32 11 -130 0z"/>
<path d="M3275 1520 c3 -5 10 -10 16 -10 5 0 9 5 9 10 0 6 -7 10 -16 10 -8 0
-12 -4 -9 -10z"/>
<path d="M3240 1460 c-25 -3 -40 -8 -34 -12 11 -7 73 -2 82 7 10 9 -2 11 -48
5z"/>
<path d="M3210 1406 c0 -10 28 -13 41 -5 10 6 7 9 -13 9 -16 0 -28 -2 -28 -4z"/>
<path d="M3358 1403 c12 -2 32 -2 45 0 12 2 2 4 -23 4 -25 0 -35 -2 -22 -4z"/>
<path d="M3766 1533 c-4 -9 -2 -21 4 -27 7 -7 10 -2 10 17 0 31 -5 34 -14 10z"/>
<path d="M4064 1432 c6 -10 42 -9 52 1 4 4 -7 7 -25 7 -18 0 -30 -4 -27 -8z"/>
<path d="M3794 1421 c3 -5 15 -7 26 -4 28 7 25 13 -6 13 -14 0 -23 -4 -20 -9z"/>
<path d="M3653 1413 c9 -2 25 -2 35 0 9 3 1 5 -18 5 -19 0 -27 -2 -17 -5z"/>
<path d="M4490 1471 c0 -5 9 -7 20 -4 11 3 20 7 20 9 0 2 -9 4 -20 4 -11 0
-20 -4 -20 -9z"/>
<path d="M5730 1535 c0 -14 5 -25 10 -25 6 0 10 11 10 25 0 14 -4 25 -10 25
-5 0 -10 -11 -10 -25z"/>
<path d="M7055 79 c-49 -4 -117 -10 -150 -13 -33 -3 -190 -17 -350 -31 -159
-14 -301 -27 -315 -29 -14 -1 197 -4 468 -5 l492 -1 0 45 c0 51 14 48 -145 34z"/>
</g>
</svg>
