<?xml version="1.0" standalone="no"?>
<!DOCTYPE svg PUBLIC "-//W3C//DTD SVG 20010904//EN"
 "http://www.w3.org/TR/2001/REC-SVG-20010904/DTD/svg10.dtd">
<svg version="1.0" xmlns="http://www.w3.org/2000/svg"
 width="600.000000pt" height="600.000000pt" viewBox="0 0 600.000000 600.000000"
 preserveAspectRatio="xMidYMid meet">
<metadata>
Created by potrace 1.16, written by Peter Selinger 2001-2019
</metadata>
<g transform="translate(0.000000,600.000000) scale(0.100000,-0.100000)"
fill="#000000" stroke="none">
<path d="M740 5993 c-23 -7 -62 -24 -91 -39 -14 -7 -37 -14 -52 -16 -14 -2
-29 -7 -33 -11 -4 -4 -16 -7 -26 -7 -10 0 -18 -5 -18 -11 0 -5 -4 -8 -9 -4 -5
3 -12 1 -16 -5 -3 -5 -24 -14 -45 -20 -22 -6 -40 -15 -40 -20 0 -6 -5 -10 -11
-10 -6 0 -32 -15 -58 -34 -45 -33 -188 -105 -286 -145 l-50 -20 -3 -1789 c-2
-1428 0 -1789 10 -1789 7 0 24 -3 37 -7 18 -6 22 -5 16 5 -6 11 -5 11 5 2 13
-12 43 -6 35 7 -3 4 2 7 11 6 9 0 21 8 28 19 6 11 15 23 19 26 5 3 8 9 8 13
-3 22 3 29 41 46 25 11 48 15 57 11 9 -5 23 -7 33 -6 9 2 26 -8 37 -21 11 -13
16 -24 11 -24 -6 0 -10 -6 -10 -14 0 -37 169 -76 203 -47 8 6 18 7 22 3 5 -4
5 1 2 11 -4 10 -3 16 2 13 5 -3 15 2 22 11 12 14 12 16 -1 8 -11 -6 -12 -5 -4
4 6 7 27 16 46 20 27 6 41 4 59 -10 13 -9 27 -15 31 -13 5 3 33 -9 63 -26 30
-17 60 -28 67 -24 7 5 9 2 6 -7 -4 -10 16 -40 53 -79 32 -35 55 -68 52 -73 -3
-6 -1 -7 4 -4 6 4 22 -11 37 -33 39 -60 58 -80 69 -73 6 3 7 1 4 -4 -8 -13 31
-65 43 -58 10 6 60 -55 85 -104 16 -31 16 -33 0 -28 -13 6 -12 0 6 -26 29 -41
34 -46 26 -24 -10 28 0 20 24 -20 13 -20 22 -47 21 -59 -1 -13 3 -26 10 -30 7
-5 8 -3 3 6 -5 8 -4 11 3 6 6 -4 9 -13 5 -21 -7 -19 15 -47 31 -38 8 4 8 2 -1
-7 -8 -9 -3 -28 22 -79 18 -36 42 -87 54 -114 11 -26 24 -47 27 -47 3 0 2 5
-2 12 -4 7 -3 8 5 4 9 -6 9 -11 0 -22 -9 -11 -8 -14 6 -14 14 0 15 -3 6 -14
-9 -11 -9 -16 2 -23 8 -4 19 -23 25 -42 11 -31 11 -32 -6 -20 -12 10 -12 7 3
-10 12 -13 18 -33 17 -48 -3 -19 0 -23 10 -17 11 6 11 5 0 -8 -9 -11 -10 -18
-2 -23 5 -3 10 -15 10 -26 0 -13 4 -18 13 -13 9 5 9 4 0 -6 -9 -10 -9 -21 2
-48 8 -19 15 -45 15 -59 0 -13 4 -22 9 -19 5 4 8 -2 6 -11 -2 -10 -4 -24 -4
-30 -1 -9 -20 -13 -61 -13 -47 0 -60 -3 -60 -15 0 -11 12 -15 48 -15 30 0 58
-7 77 -20 17 -11 27 -20 24 -20 -4 0 -3 -16 1 -35 7 -29 6 -34 -5 -25 -14 11
-61 4 -82 -13 -20 -15 -15 -37 7 -37 11 0 30 -6 41 -12 17 -11 23 -10 26 0 9
25 28 11 30 -23 2 -19 -2 -35 -7 -35 -6 0 -10 -18 -10 -40 0 -36 -2 -39 -32
-45 -38 -6 -126 -1 -148 8 -8 4 -24 5 -34 4 -23 -2 -38 38 -24 67 6 10 7 27 5
38 -4 14 0 22 14 25 27 7 24 31 -7 45 -24 11 -26 16 -20 57 3 25 12 48 19 53
9 5 9 12 1 25 -16 25 -131 32 -140 8 -4 -9 0 -21 9 -28 17 -12 23 -55 32 -209
3 -48 1 -78 -5 -78 -15 0 -12 -48 3 -53 6 -2 85 -2 175 1 156 4 187 -1 150
-25 -7 -4 -13 -15 -13 -23 0 -8 -9 -16 -20 -18 -22 -4 -55 -35 -55 -51 0 -5
-6 -16 -14 -23 -7 -8 -17 -36 -20 -64 -7 -46 -5 -51 21 -74 16 -15 21 -17 13
-6 -13 16 -13 18 -1 15 16 -6 49 -51 35 -48 -20 3 -32 -2 -38 -17 -5 -14 16
-15 204 -12 135 2 213 7 220 14 14 14 2 66 -14 58 -6 -3 -4 0 4 8 18 16 16 74
-3 106 -5 6 -5 12 -1 12 3 0 1 6 -6 14 -6 8 -17 12 -25 10 -8 -3 -23 10 -38
30 -13 20 -27 34 -30 31 -4 -3 -5 -2 -2 2 3 3 -3 15 -12 26 -10 11 -13 17 -6
14 6 -4 14 -3 18 2 3 6 26 13 50 17 35 5 45 10 45 25 0 11 -6 19 -14 19 -7 0
-17 10 -20 23 -10 32 -12 107 -3 107 4 0 7 7 7 15 0 8 -7 15 -15 15 -13 0 -13
3 -4 13 11 11 16 10 30 -4 9 -9 20 -26 24 -38 3 -12 11 -21 16 -21 5 0 9 -6 9
-13 0 -19 35 -57 52 -57 8 0 17 -3 21 -6 10 -10 -4 -34 -20 -34 -8 0 -13 -7
-11 -18 3 -15 16 -17 108 -17 92 0 105 2 108 17 2 12 -3 18 -14 18 -15 0 -16
12 -11 136 4 74 9 139 12 144 3 4 14 6 26 3 17 -5 20 -2 17 18 -3 23 -6 24
-101 25 -79 1 -100 -2 -105 -14 -3 -8 2 -20 11 -27 10 -7 17 -19 17 -28 0 -8
6 -18 13 -20 10 -4 10 -6 0 -6 -15 -1 -18 -27 -4 -33 10 -4 21 -98 11 -98 -4
0 -11 -12 -15 -27 l-6 -27 -33 36 c-18 19 -38 49 -45 67 -8 17 -17 31 -22 31
-5 0 -9 7 -9 15 0 8 -4 15 -9 15 -11 0 -35 58 -36 85 0 15 -8 21 -32 23 -18 2
-33 7 -33 12 0 6 -20 7 -45 3 -36 -4 -46 -2 -51 11 -3 9 -12 16 -19 16 -16 0
-35 52 -28 78 3 14 -1 22 -17 27 -12 4 -19 9 -16 12 3 3 -1 18 -10 34 -8 16
-12 29 -8 29 4 0 2 6 -5 13 -8 10 -7 17 1 25 8 8 7 13 -5 18 -9 3 -17 13 -17
21 0 8 -6 29 -14 46 -37 87 -38 91 -22 77 24 -19 19 -3 -6 20 -19 18 -20 22
-8 30 8 5 10 10 4 10 -6 0 -19 20 -28 45 -10 25 -23 45 -29 45 -7 0 -6 4 3 10
10 6 11 10 3 10 -7 0 -20 15 -28 33 l-16 32 21 -25 c20 -24 21 -24 10 -2 -6
13 -18 26 -25 28 -13 5 -42 73 -36 83 2 2 -3 7 -10 11 -6 5 -13 28 -14 52 -3
49 -29 113 -80 190 -19 29 -35 58 -35 65 0 7 -7 13 -15 13 -8 0 -15 -6 -15
-12 0 -7 -8 -1 -17 12 -10 14 -17 29 -15 33 1 4 -4 10 -12 13 -10 4 -13 16
-10 39 2 21 -1 39 -11 49 -8 8 -15 17 -15 21 0 4 -19 39 -42 78 -38 65 -69
138 -99 236 -8 24 -8 41 0 58 37 82 -10 180 -125 258 -41 28 -104 34 -126 12
-8 -9 -21 -11 -33 -6 -11 4 -14 8 -7 8 7 1 11 5 7 10 -3 5 -1 12 4 15 5 3 5
25 -1 51 -11 53 -2 70 43 80 17 4 28 9 25 12 -9 9 19 31 33 25 10 -4 12 -1 6
8 -6 10 -4 12 9 7 14 -6 17 -3 12 8 -3 9 -2 14 3 11 5 -3 14 1 20 8 41 49 -5
222 -76 287 -57 53 -172 101 -279 115 -22 4 -73 1 -113 -5 -74 -12 -99 -8 -71
9 11 7 4 10 -23 10 -49 0 -70 20 -58 52 5 13 17 30 26 38 9 8 21 24 26 37 5
13 15 23 24 23 8 0 15 4 15 9 0 4 11 7 25 6 36 -4 111 17 137 39 14 12 39 20
68 21 25 1 52 4 60 7 19 7 105 26 147 33 18 3 44 10 58 15 36 14 45 13 45 -6
0 -11 7 -14 30 -10 21 3 30 0 30 -9 0 -10 16 -13 63 -11 82 3 126 -13 206 -76
89 -70 89 -70 83 -90 -3 -14 2 -18 21 -18 17 0 43 -16 74 -46 43 -39 48 -49
45 -78 -4 -31 -1 -35 30 -44 74 -23 96 -24 100 -5 2 10 1 34 -3 53 -19 87 -20
126 -5 155 9 17 16 41 16 55 0 14 3 35 6 46 5 21 7 21 36 7 35 -18 104 -13
189 14 66 20 62 17 54 42 -4 13 -11 19 -18 15 -8 -5 -9 -4 -2 4 6 6 25 12 43
14 19 1 36 6 38 10 3 5 10 6 15 3 5 -4 9 -2 9 4 0 6 7 7 17 4 12 -5 14 -3 8 7
-6 10 -4 12 9 7 10 -4 20 -7 22 -7 2 0 4 -10 4 -21 0 -17 4 -20 23 -15 12 3
25 6 28 6 3 0 6 30 7 66 0 41 5 70 13 74 6 5 9 15 6 24 -4 10 -1 16 8 16 8 0
15 7 15 15 0 8 -8 15 -17 15 -15 0 -15 3 4 21 19 20 23 20 43 6 19 -13 19 -16
5 -30 -19 -19 -20 -47 -1 -47 7 0 19 7 26 15 10 12 16 13 26 4 8 -6 14 -17 14
-23 0 -6 10 -16 23 -21 16 -7 21 -17 19 -37 -5 -39 59 -108 102 -108 45 -1 71
-23 57 -49 -6 -11 -11 -33 -11 -50 0 -21 -5 -31 -15 -31 -8 0 -15 -5 -15 -10
0 -25 67 -109 113 -142 l29 -21 30 23 c34 25 50 20 25 -8 -18 -20 -23 -52 -8
-52 5 0 16 -6 23 -13 14 -14 64 -37 78 -37 6 0 10 6 10 14 0 7 6 25 13 39 13
24 14 25 40 9 16 -10 27 -25 27 -39 0 -14 12 -29 35 -43 19 -12 35 -26 35 -31
0 -5 7 -9 15 -9 8 0 15 5 15 11 0 18 64 -29 142 -104 10 -9 21 -17 24 -17 3 0
28 -20 56 -45 27 -24 81 -65 119 -91 38 -25 69 -52 69 -60 0 -8 9 -14 19 -14
11 0 29 -13 41 -30 12 -16 27 -30 35 -30 15 0 75 -56 75 -71 0 -5 11 -9 25 -9
38 0 44 -29 11 -57 -19 -16 -25 -29 -21 -43 8 -26 37 -26 53 0 23 38 81 16 61
-22 -17 -32 -3 -51 30 -45 27 6 38 -2 113 -79 46 -46 85 -90 87 -97 2 -6 12
-19 23 -28 10 -9 18 -21 18 -28 0 -6 9 -11 20 -11 10 0 24 -9 30 -20 13 -24
61 -50 93 -50 14 0 31 -7 38 -16 7 -9 24 -20 37 -25 l23 -9 -21 -30 c-27 -38
-35 -91 -22 -147 l10 -43 -34 0 c-19 0 -34 -4 -34 -8 0 -5 -10 -13 -22 -19
-14 -6 -25 -26 -34 -59 -26 -97 -14 -114 66 -93 61 16 100 7 93 -21 -3 -11 0
-20 6 -20 6 0 11 -8 11 -19 0 -21 66 -85 99 -96 27 -8 75 28 90 68 9 24 14 27
38 21 15 -4 36 -11 45 -15 23 -12 66 -11 70 2 4 13 52 -4 74 -26 9 -8 22 -15
30 -15 21 0 17 34 -7 50 -49 34 -79 63 -79 76 0 8 -9 13 -22 13 -71 -3 -167
28 -169 54 -3 28 3 73 10 80 4 4 31 3 59 -4 39 -8 52 -15 52 -28 0 -22 45 -44
73 -35 15 5 27 -2 48 -25 28 -33 81 -72 112 -84 9 -3 17 -14 17 -23 0 -11 6
-15 18 -12 10 3 24 -1 31 -9 7 -8 20 -12 28 -9 8 3 11 1 8 -4 -3 -6 -2 -10 4
-10 5 0 18 -15 30 -32 28 -46 59 -78 76 -78 27 0 15 35 -25 74 -22 21 -43 50
-46 62 -4 15 -14 24 -26 24 -18 0 -84 42 -99 64 -4 4 -4 17 -2 27 4 12 0 19
-10 19 -8 0 -18 12 -21 26 -5 20 -12 25 -27 21 -13 -4 -22 0 -26 11 -4 9 -12
20 -19 25 -7 4 -16 27 -19 52 -8 51 -24 68 -63 67 -20 0 -41 14 -79 54 -61 62
-63 90 -6 79 84 -16 166 -75 157 -113 -5 -16 -2 -22 9 -22 10 0 13 -6 10 -20
-4 -15 0 -20 16 -20 11 0 21 -5 21 -11 0 -6 9 -9 20 -6 21 5 28 -7 10 -18 -18
-11 -11 -43 16 -74 27 -33 49 -39 57 -18 4 9 6 9 6 -1 1 -7 6 -10 11 -7 6 3
10 1 10 -6 0 -6 8 -9 20 -6 11 3 23 1 26 -4 3 -5 9 -7 14 -4 5 3 12 0 16 -6 5
-8 3 -9 -6 -4 -8 5 -11 4 -7 -2 4 -6 18 -13 32 -15 13 -3 22 -1 19 3 -3 5 2 9
10 9 9 0 16 -7 16 -15 0 -8 5 -15 11 -15 11 0 88 -80 89 -92 0 -5 7 -8 16 -8
8 0 13 -4 10 -9 -7 -11 69 -73 78 -64 4 4 9 -2 12 -13 6 -22 79 -58 101 -50
21 8 12 40 -12 44 -11 2 -27 5 -35 8 -8 3 -16 4 -18 2 -2 -2 -8 5 -13 15 -8
14 -14 15 -30 6 -19 -10 -20 -9 -9 10 9 19 7 23 -24 38 -19 9 -33 19 -31 23 2
4 -12 26 -31 49 -20 23 -34 45 -30 48 3 4 6 1 6 -5 0 -7 6 -12 14 -12 7 0 19
-13 26 -30 22 -52 80 -48 80 6 0 28 -26 33 -33 6 -3 -15 -5 -15 -12 3 -5 11
-18 28 -30 37 -11 10 -15 17 -8 18 7 0 -7 31 -32 70 -31 49 -45 81 -45 105 0
24 -8 43 -29 64 -19 20 -28 37 -24 50 3 11 -3 27 -15 39 -11 11 -22 28 -24 39
-2 12 -14 19 -33 21 -32 4 -105 66 -105 89 0 8 -7 25 -16 38 -9 14 -16 41 -17
62 0 21 -5 41 -11 45 -6 4 -5 12 3 22 11 13 9 17 -14 26 -32 12 -29 18 30 55
25 16 45 36 44 45 -3 28 1 37 16 37 21 0 19 -14 -2 -21 -10 -2 -3 -3 14 -1 42
4 63 26 63 63 0 25 -5 31 -29 37 -16 3 -36 14 -46 25 -9 10 -27 17 -41 15 -13
-1 -27 2 -31 8 -4 6 -1 7 7 2 9 -6 11 -4 5 4 -12 20 -31 -5 -64 -83 -23 -54
-30 -64 -35 -48 -5 15 -15 20 -44 20 -50 -1 -95 12 -105 28 -4 8 -16 14 -25
14 -13 0 -17 9 -18 42 0 23 -5 43 -12 46 -8 2 -8 11 -1 29 7 18 6 34 -3 55
-12 28 -16 29 -56 25 -57 -6 -69 -18 -53 -53 6 -14 9 -35 5 -46 -6 -19 -6 -19
-21 1 -8 12 -11 25 -8 31 4 6 -1 7 -11 3 -12 -4 -15 -3 -10 5 9 15 -6 16 -21
1 -8 -8 -13 -8 -18 0 -3 6 0 13 7 15 7 3 20 7 28 9 8 3 -12 4 -45 4 -33 -1
-71 2 -85 6 -14 4 -32 3 -40 -2 -12 -9 -13 -16 -1 -58 22 -74 20 -96 -7 -98
-13 -1 -25 2 -28 7 -8 13 -34 9 -50 -7 -20 -19 -51 -19 -62 1 -5 9 -29 18 -58
22 -46 7 -49 9 -52 39 -2 21 -10 34 -22 38 -11 3 -16 12 -14 23 3 10 -4 22
-17 30 -18 11 -24 11 -39 -3 -17 -15 -22 -12 -91 48 -81 71 -98 89 -148 160
-37 51 -47 56 -66 30 -10 -14 -11 -12 -8 13 4 25 -5 38 -56 89 -34 33 -61 67
-61 77 0 10 -6 18 -12 18 -7 0 -46 32 -87 70 -41 39 -78 70 -83 70 -13 0 -9
12 9 32 16 17 15 20 -17 53 -38 39 -55 43 -82 18 -17 -15 -20 -15 -28 -3 -6 8
-10 25 -10 38 0 17 -6 22 -26 22 -24 0 -25 2 -19 44 7 42 6 45 -31 70 -20 14
-40 23 -44 21 -4 -2 -5 6 -3 19 4 21 2 23 -22 18 -25 -4 -26 -3 -16 16 6 11
11 25 11 31 0 16 -28 13 -37 -4 -11 -19 -65 -10 -86 14 -20 23 -38 104 -27
115 18 18 11 58 -10 63 -11 3 -20 12 -20 20 0 7 -9 23 -20 35 -11 12 -20 30
-20 40 0 10 -7 18 -15 18 -8 0 -15 9 -15 19 0 14 -8 21 -27 23 -22 2 -29 9
-31 31 -3 22 -8 28 -21 24 -14 -3 -17 1 -13 20 4 23 4 23 22 3 9 -11 22 -20
29 -20 18 0 13 24 -9 40 -11 8 -20 18 -20 22 0 4 9 8 20 8 11 0 20 -7 20 -15
0 -8 7 -15 15 -15 8 0 15 9 15 20 0 15 5 19 23 16 12 -2 36 4 52 12 17 9 46
17 66 17 30 1 40 -4 54 -27 16 -28 18 -35 34 -117 12 -60 35 -79 110 -92 35
-7 58 -15 52 -19 -8 -5 -9 -14 -2 -32 11 -30 28 -43 56 -43 18 0 20 -6 17 -51
-4 -59 3 -67 77 -93 28 -10 54 -21 58 -24 14 -14 43 -6 65 18 l23 25 32 -30
c18 -17 36 -30 42 -30 5 0 20 -13 33 -29 14 -16 34 -32 45 -35 12 -4 27 -13
33 -21 16 -19 40 -19 40 0 0 16 -20 56 -33 66 -4 3 -9 32 -10 65 -2 59 -8 72
-38 90 -30 17 -82 65 -76 70 3 3 30 -10 60 -29 57 -36 67 -37 67 -5 0 10 6 18
13 18 8 0 7 4 -3 10 -12 8 -11 10 8 10 24 0 30 25 8 33 -8 3 -18 26 -21 52 -6
39 -10 45 -29 43 -15 -2 -22 3 -24 20 -2 13 -10 22 -21 22 -23 0 -73 90 -53
97 20 7 14 29 -13 43 -13 7 -22 17 -19 22 3 4 -4 8 -15 8 -14 0 -23 9 -27 25
-5 18 -13 25 -31 25 -31 0 -63 34 -63 68 0 20 -4 23 -22 19 l-23 -6 23 19 c41
34 19 56 -25 25 -18 -13 -22 -13 -33 0 -9 11 -7 18 9 32 40 33 18 59 -23 28
-47 -36 -58 -2 -13 37 52 45 27 65 -29 23 -30 -23 -33 -23 -38 -7 -3 9 -17 29
-31 44 -15 16 -29 48 -34 75 -11 58 -39 83 -91 83 -30 0 -43 -6 -59 -26 -12
-15 -21 -22 -21 -17 0 12 33 41 85 75 63 42 99 78 139 140 20 32 36 61 36 65
0 5 5 23 10 42 5 19 7 45 4 58 -5 17 -2 23 10 23 24 0 20 15 -14 48 -27 27
-29 34 -20 59 15 38 158 172 179 166 9 -2 26 5 38 16 12 12 26 21 31 21 20 0
73 65 68 83 -2 10 2 21 10 24 8 3 12 9 9 13 -8 13 29 46 47 42 21 -4 36 61 19
82 -6 7 -9 15 -7 17 11 11 13 69 3 69 -6 0 -2 7 9 16 10 8 13 13 6 9 -8 -4
-11 1 -8 17 2 13 10 22 17 20 9 -2 8 2 -3 15 -16 18 -16 21 2 48 25 39 25 49
-2 61 -13 6 -17 9 -10 7 10 -2 10 2 1 18 -8 15 -8 19 0 15 6 -4 11 0 11 8 0
14 -130 16 -1312 15 -722 0 -1320 -3 -1328 -6z m1525 -807 c27 -1 52 -51 64
-128 19 -115 -15 -172 -101 -174 -44 -1 -55 -5 -75 -30 -13 -16 -42 -47 -64
-70 -40 -41 -48 -59 -28 -66 9 -3 9 -9 0 -25 -15 -30 -14 -68 7 -138 12 -42
25 -63 40 -70 12 -5 22 -16 22 -23 0 -11 7 -12 28 -7 37 10 91 7 122 -8 19
-10 24 -19 22 -40 -3 -21 1 -27 15 -27 10 0 28 -16 41 -38 41 -69 47 -77 57
-84 20 -14 -4 -17 -83 -11 -63 4 -82 9 -82 21 0 9 -7 13 -19 9 -12 -3 -22 1
-25 9 -6 16 -36 19 -36 3 0 -6 5 -19 10 -29 8 -15 6 -21 -10 -30 -29 -16 -59
-4 -53 20 4 15 0 20 -15 20 -15 0 -28 17 -52 68 -36 75 -38 91 -22 181 11 62
10 67 -18 126 -18 38 -27 69 -23 83 4 16 1 22 -11 22 -9 0 -16 5 -16 11 0 6
-9 24 -21 40 l-21 29 31 36 c30 34 43 94 21 94 -5 0 -10 5 -10 10 0 6 10 10
23 10 62 0 129 76 148 167 14 70 25 77 79 55 19 -8 44 -15 55 -16z m2185
-2841 c0 -6 14 -16 30 -22 22 -8 30 -18 30 -36 0 -14 12 -36 28 -51 59 -57 94
-86 103 -86 12 0 42 -70 40 -97 0 -12 7 -28 17 -35 10 -7 25 -28 33 -45 7 -18
19 -33 26 -33 30 0 63 -25 73 -55 6 -18 22 -42 35 -55 29 -27 69 -100 55 -100
-5 0 -17 12 -26 26 -13 19 -19 22 -25 12 -6 -9 -9 -6 -9 10 0 12 -6 22 -13 22
-8 0 -22 9 -32 20 -10 11 -22 17 -26 14 -5 -3 -9 2 -9 11 0 8 -12 20 -26 25
-40 16 -46 13 -39 -20 8 -36 -3 -38 -41 -5 -25 21 -26 24 -6 18 25 -6 32 21 8
30 -10 4 -13 17 -9 45 4 33 2 41 -21 55 -14 10 -26 26 -26 36 0 13 -10 22 -30
26 -17 4 -27 11 -24 16 3 6 12 8 20 5 22 -9 17 2 -23 42 -23 23 -39 50 -43 71
-4 30 -11 37 -42 46 -54 15 -63 27 -49 66 14 42 14 49 -4 49 -8 0 -15 -5 -15
-11 0 -5 -5 -7 -10 -4 -8 5 -8 11 -1 19 6 7 7 17 3 21 -4 5 -1 5 6 1 7 -4 12
-2 12 6 1 16 30 -20 30 -37z"/>
<path d="M3532 5945 c-1 -41 2 -55 12 -55 7 0 22 -23 33 -52 15 -40 26 -54 48
-61 22 -8 31 -6 40 7 14 18 66 21 96 5 18 -9 20 -17 14 -60 -4 -31 -3 -49 3
-49 11 0 10 -14 -3 -43 -12 -28 2 -77 39 -137 19 -30 39 -81 46 -112 8 -37 17
-55 24 -51 6 4 5 0 -1 -9 -7 -8 -10 -17 -7 -20 3 -4 8 -28 12 -55 4 -26 12
-48 19 -48 17 0 29 -15 12 -15 -10 -1 -10 -3 3 -10 10 -6 14 -18 11 -30 -3
-13 1 -22 11 -26 15 -6 15 -7 0 -18 -19 -15 -11 -56 12 -56 8 0 14 -5 14 -11
0 -5 -4 -8 -9 -4 -6 3 -8 -6 -5 -22 6 -30 11 -38 25 -38 5 0 8 -4 7 -10 -2 -5
-6 -9 -10 -8 -4 2 -3 -7 1 -20 6 -14 15 -21 27 -19 15 3 16 2 5 -12 -12 -14
-11 -16 5 -10 15 6 17 4 7 -6 -6 -7 -9 -19 -6 -28 5 -11 3 -13 -7 -7 -9 5 -11
4 -6 -4 4 -6 12 -8 18 -5 7 4 8 -4 3 -25 -5 -24 0 -45 24 -92 28 -57 31 -85 8
-100 -15 -10 0 -39 19 -39 11 0 15 6 11 20 -3 11 -2 20 3 20 4 0 11 -12 14
-27 4 -14 21 -47 39 -72 17 -25 30 -47 28 -49 -7 -6 19 -62 29 -62 6 0 9 -4 6
-9 -3 -5 2 -12 11 -15 14 -6 15 -9 4 -16 -8 -4 -11 -15 -8 -24 5 -14 28 -16
157 -16 123 0 150 3 150 14 0 8 18 29 40 46 58 46 86 88 72 110 -9 15 -8 17 9
13 13 -4 19 0 19 10 0 9 9 21 20 27 11 6 20 17 20 26 0 8 7 17 15 20 8 4 15
15 15 26 0 10 7 32 15 47 8 16 14 52 13 82 0 30 2 69 6 87 5 19 4 32 -2 32 -6
0 -4 16 4 38 7 20 13 47 14 60 0 13 11 33 23 46 25 25 33 81 14 104 -8 10 -4
20 14 37 34 34 49 53 49 62 0 5 11 17 25 27 18 13 25 28 25 52 0 18 5 55 12
83 l11 51 16 -28 c26 -43 42 -84 31 -77 -5 3 -10 2 -10 -3 0 -6 7 -12 15 -16
8 -3 15 -16 15 -28 0 -13 11 -59 25 -102 14 -43 25 -91 25 -107 0 -15 5 -31
10 -34 6 -3 10 -22 10 -41 0 -19 5 -34 10 -34 6 0 10 -15 10 -34 0 -18 7 -39
15 -46 8 -7 15 -23 15 -36 0 -32 18 -75 37 -89 10 -7 14 -19 10 -29 -4 -10 -3
-15 3 -11 6 3 10 -1 10 -9 0 -9 7 -16 15 -16 9 0 37 -20 63 -46 43 -41 91 -72
124 -78 7 -2 24 -6 38 -9 14 -3 47 -8 73 -11 l48 -6 -3 38 c-1 20 -10 48 -20
61 -10 13 -18 29 -18 35 0 15 -57 136 -106 226 -7 14 -23 48 -36 75 -13 28
-27 53 -33 57 -6 4 -2 8 8 8 21 0 22 23 1 40 -8 8 -14 9 -13 4 7 -37 -6 -30
-28 16 -46 96 -52 118 -37 124 16 6 19 36 4 36 -5 0 -10 6 -10 14 0 7 -9 16
-20 19 -23 6 -27 27 -5 27 8 0 15 6 15 14 0 8 -7 16 -15 20 -9 3 -15 18 -15
37 0 18 -7 37 -16 44 -15 10 -15 16 -3 51 7 21 19 48 26 59 7 11 13 25 13 32
0 21 44 82 63 87 22 5 22 34 0 38 -16 3 -16 5 3 24 35 35 61 86 46 91 -6 3
-10 8 -7 12 2 4 8 34 14 67 16 104 118 94 -922 94 l-913 0 -2 -55z m819 -229
c-15 -18 -5 -152 13 -178 9 -12 16 -35 16 -51 0 -15 7 -39 16 -52 11 -17 14
-36 9 -62 -6 -36 -8 -38 -41 -37 -57 2 -83 22 -99 78 -8 27 -15 60 -15 73 0
17 -6 23 -22 23 -21 1 -22 2 -5 14 19 14 23 36 7 36 -15 0 -12 28 4 37 9 5 15
29 18 63 3 60 8 64 74 66 23 0 31 -3 25 -10z"/>
<path d="M5100 4461 c-18 -5 -21 -9 -12 -15 16 -10 -2 -36 -24 -36 -22 0 -101
-77 -108 -105 -3 -13 -20 -32 -36 -42 -25 -15 -36 -30 -45 -63 -1 -3 -5 -13
-9 -22 -9 -20 -1 -48 13 -48 5 0 12 8 14 18 4 13 5 13 6 -4 0 -12 8 -27 16
-34 15 -13 12 -30 -6 -30 -6 0 -8 4 -5 9 3 5 0 13 -7 19 -10 8 -12 5 -11 -16
1 -17 6 -26 15 -24 10 3 11 0 3 -8 -7 -7 -9 -30 -6 -56 3 -29 1 -44 -7 -44 -6
0 -11 -7 -11 -15 0 -8 -4 -15 -8 -15 -5 0 -14 -11 -20 -25 -8 -17 -20 -25 -36
-25 -17 0 -29 -9 -39 -30 -10 -18 -12 -32 -6 -36 6 -4 6 -10 -1 -18 -5 -7 -11
-27 -13 -44 -2 -28 -22 -57 -63 -91 -9 -8 -38 -16 -63 -18 -49 -3 -98 -19
-119 -40 -7 -7 -29 -13 -48 -13 -27 0 -34 -4 -34 -20 0 -11 5 -20 10 -20 7 0
7 -6 1 -17 -6 -10 -12 -30 -16 -45 -5 -25 -7 -27 -25 -16 -15 10 -20 24 -20
60 0 26 -5 50 -12 54 -6 4 -8 3 -5 -3 4 -6 -4 -14 -18 -17 -14 -4 -25 -14 -25
-23 0 -15 -2 -14 -15 3 -8 10 -15 26 -15 35 0 12 -13 18 -47 22 -62 7 -80 -4
-88 -53 -7 -39 -8 -40 -47 -40 -34 0 -46 7 -89 51 -27 28 -49 59 -49 70 0 12
-7 19 -18 19 -20 0 -65 44 -75 73 -6 15 -25 21 -64 20 -7 -1 -11 3 -8 7 3 4
-2 13 -10 20 -8 7 -15 19 -15 26 0 9 -11 14 -28 14 -15 0 -34 6 -41 13 -11 10
-12 9 -6 -1 4 -8 0 -19 -11 -27 -12 -9 -14 -14 -6 -15 8 0 5 -8 -8 -22 -26
-28 -22 -54 8 -50 12 2 22 -2 22 -7 0 -6 -4 -11 -9 -11 -10 0 -26 -45 -35
-102 -5 -25 -3 -38 6 -41 10 -3 8 -10 -6 -25 -20 -23 -16 -52 9 -52 8 0 15 -4
15 -10 0 -5 11 -10 25 -10 18 0 25 -5 25 -20 0 -13 7 -20 20 -20 10 0 23 -7
28 -17 6 -10 16 -14 26 -10 11 5 16 1 16 -14 0 -11 7 -22 15 -25 8 -4 15 -11
15 -16 0 -5 22 -31 48 -56 27 -26 52 -55 55 -65 4 -10 25 -26 47 -34 35 -14
40 -20 40 -48 0 -18 8 -38 18 -47 26 -23 106 -58 131 -58 12 0 39 -9 61 -20
22 -11 44 -20 50 -20 16 0 12 30 -5 36 -8 4 -15 9 -15 13 0 7 49 31 65 31 12
0 40 194 30 210 -12 19 5 49 23 43 23 -9 33 -25 27 -44 -3 -9 -1 -28 4 -42 8
-20 7 -28 -3 -34 -7 -4 -16 -31 -20 -59 l-6 -51 37 -6 c21 -4 39 -2 41 3 2 5
17 7 33 3 19 -3 29 -1 29 6 0 8 10 6 30 -6 17 -9 30 -20 30 -24 0 -4 11 -10
25 -13 14 -4 25 -13 25 -21 0 -34 165 21 189 62 6 10 11 12 11 6 0 -7 7 -13
16 -13 9 0 14 7 12 18 -4 17 2 27 33 60 9 9 19 29 23 44 12 50 42 68 105 63
31 -2 57 -9 59 -15 6 -18 27 -11 52 20 14 16 30 29 36 30 5 0 16 15 23 33 13
34 14 34 59 25 34 -6 48 -5 54 4 5 9 8 8 8 -4 0 -10 7 -18 16 -18 11 0 15 6
11 19 -2 10 -1 25 4 32 7 11 9 10 9 -3 0 -10 7 -18 15 -18 11 0 15 11 15 39 0
22 -6 44 -15 51 -8 7 -15 19 -15 26 0 20 -28 17 -33 -3 -3 -10 -4 -6 -4 8 1
20 5 25 19 21 12 -3 18 1 18 12 0 9 -8 16 -17 16 -13 0 -14 3 -6 8 16 10 23
90 9 97 -6 2 -2 4 8 2 11 -1 21 -8 24 -16 3 -8 0 -11 -7 -7 -6 4 -11 0 -11 -9
0 -10 5 -14 13 -9 10 6 10 4 0 -7 -22 -22 -16 -42 10 -35 12 4 54 10 93 13 69
5 72 4 108 -27 22 -20 42 -30 52 -26 20 8 84 -30 84 -50 0 -8 4 -14 8 -14 5 0
9 -6 9 -12 3 -63 27 -108 57 -108 19 0 35 52 18 58 -7 2 -12 10 -12 17 0 7 -8
16 -17 18 -17 4 -17 5 0 6 28 2 22 67 -10 110 -15 20 -31 39 -36 42 -5 4 -14
17 -21 30 -14 30 -43 36 -49 12 -4 -17 -5 -17 -6 0 -1 14 -8 16 -38 13 -129
-17 -133 -17 -133 3 0 11 -12 23 -29 31 -16 6 -31 21 -34 32 -3 11 -13 19 -24
18 -35 -4 -61 11 -56 31 4 13 0 19 -10 19 -9 0 -19 5 -23 12 -4 7 -3 8 5 4 6
-4 14 -1 17 7 3 9 13 13 24 10 11 -3 28 4 41 15 20 19 23 20 44 6 13 -8 45
-17 70 -18 26 -2 51 -10 56 -17 5 -8 9 -10 9 -6 0 5 14 -2 31 -14 l31 -22 55
19 c34 12 58 26 61 36 2 10 8 15 14 12 5 -3 4 -12 -3 -20 -6 -8 -7 -14 -2 -14
5 0 10 -10 11 -22 8 -61 19 -88 37 -88 12 0 25 21 25 41 0 5 -7 9 -15 9 -13 0
-12 3 2 19 18 21 54 19 101 -5 31 -16 52 -8 52 20 0 15 -10 28 -27 37 -16 8
-33 20 -39 28 -6 8 -18 12 -26 9 -35 -14 -48 17 -49 115 -1 25 -6 37 -15 37
-8 0 -14 7 -14 15 0 9 -9 15 -25 15 -14 0 -25 5 -25 10 0 6 -7 10 -15 10 -8 0
-15 8 -15 18 0 10 -16 24 -39 35 -21 9 -43 28 -49 42 -6 14 -20 25 -29 25 -10
0 -35 3 -55 6 -33 6 -38 4 -39 -12 0 -11 -3 -13 -6 -7 -3 10 -10 10 -24 2 -11
-6 -17 -15 -13 -22 4 -7 4 -9 -1 -5 -4 4 -14 3 -22 -4 -11 -8 -12 -7 -7 5 5
14 0 13 -34 -3 -23 -11 -44 -26 -48 -32 -5 -9 -1 -8 12 1 18 14 18 14 2 -3
-15 -18 -18 -18 -33 -2 -9 9 -21 14 -26 11 -5 -4 -9 5 -9 19 0 26 -40 50 -48
27 -5 -14 -32 -15 -32 -1 0 6 -6 10 -14 10 -19 0 -58 -50 -52 -66 3 -8 -2 -10
-16 -6 -15 4 -17 7 -6 13 10 7 10 9 -2 9 -35 0 -42 -17 -46 -116 -3 -55 -9
-114 -14 -132 -8 -29 -7 -32 6 -21 12 9 13 9 9 -2 -5 -14 -31 -31 -67 -45 -18
-6 -24 -25 -11 -38 11 -10 12 -37 2 -30 -5 3 -9 12 -9 20 0 8 -5 12 -10 9 -12
-7 -30 36 -30 71 0 17 -6 24 -19 24 -10 0 -25 8 -32 17 -10 11 -10 14 -1 9 7
-4 12 -1 12 9 0 10 -5 13 -12 9 -7 -5 -8 -3 -3 6 6 10 11 10 20 -3 18 -24 39
-21 32 4 -3 12 -2 46 3 77 7 39 6 58 -1 63 -7 4 -9 23 -7 45 7 54 56 208 68
212 6 2 23 17 39 33 16 16 39 29 51 29 18 0 21 4 17 21 -5 20 -3 21 30 16 20
-4 39 -10 42 -15 8 -12 51 4 51 19 0 6 -9 13 -19 16 -11 3 -22 11 -25 18 -2 7
-21 15 -40 19 -20 4 -36 11 -36 16 0 11 -23 11 -60 1z m451 -408 c11 3 25 0
32 -7 7 -7 18 -11 26 -8 17 6 93 -19 103 -33 4 -5 6 -16 3 -22 -2 -7 4 -18 14
-25 19 -14 43 -54 47 -77 5 -25 -16 -51 -39 -50 -21 1 -21 1 2 8 23 6 23 7 7
24 -21 20 -46 22 -46 3 0 -7 -9 -16 -20 -19 -11 -3 -20 -2 -20 2 0 4 -21 13
-46 20 -34 10 -53 24 -73 52 -29 43 -55 56 -76 39 -12 -10 -15 -9 -15 4 0 10
-9 16 -25 16 -29 0 -77 -28 -70 -40 3 -4 -1 -10 -8 -13 -10 -4 -42 -83 -38
-94 0 -2 -8 -23 -19 -47 -10 -24 -16 -46 -14 -49 3 -2 -2 -7 -11 -10 -8 -4
-15 -1 -15 4 0 7 -11 9 -24 7 -20 -4 -27 1 -37 25 -18 42 -19 199 -2 193 7 -3
17 3 23 12 8 12 13 14 16 5 9 -20 32 -15 39 8 4 11 4 23 1 26 -10 10 96 53
128 52 17 -1 42 3 56 9 19 7 32 6 54 -5 15 -8 37 -12 47 -10z"/>
<path d="M3500 3920 c-8 -15 -8 -35 1 -73 10 -45 17 -56 50 -75 21 -12 44 -22
52 -22 15 0 27 20 27 44 0 16 -39 58 -49 52 -4 -3 -6 8 -3 23 3 20 -3 35 -19
50 -29 26 -45 27 -59 1z"/>
<path d="M1888 2943 c-20 -3 -28 -10 -29 -26 -1 -17 -2 -18 -6 -4 -6 24 -20
21 -78 -12 -55 -31 -100 -88 -115 -143 -15 -51 -36 -76 -51 -60 -7 6 -23 12
-36 12 -18 0 -23 -6 -23 -25 0 -31 26 -45 85 -45 45 0 47 1 41 25 -14 54 41
157 104 198 l27 17 -34 -67 c-19 -38 -40 -97 -47 -133 -12 -64 -21 -76 -71
-93 -6 -2 -4 -14 4 -30 13 -24 12 -29 -5 -48 -24 -26 -67 -49 -93 -49 -26 0
-91 57 -91 80 0 10 7 23 15 30 23 19 19 60 -5 60 -10 0 -24 -8 -30 -17 -9 -15
-10 -12 -6 13 11 65 -22 124 -68 124 -23 0 -20 -22 9 -64 16 -23 25 -51 25
-75 0 -46 23 -107 53 -139 33 -36 71 -52 124 -52 34 0 44 -3 33 -10 -74 -47
-104 -100 -56 -100 22 0 85 42 94 63 2 4 10 7 17 7 7 0 16 15 19 34 4 19 14
49 23 67 l16 33 16 -25 c35 -54 77 -90 116 -100 61 -16 115 -20 115 -9 0 6 13
10 30 10 32 0 67 13 122 47 21 13 44 20 53 16 34 -13 90 17 118 63 24 40 30
44 67 44 38 0 40 -1 40 -32 0 -46 9 -54 58 -55 34 0 42 3 42 18 0 10 -5 21
-11 24 -7 5 -8 37 -3 96 6 77 4 89 -9 89 -9 0 -23 7 -31 16 -9 8 -24 14 -34
12 -17 -4 -18 -9 -6 -82 7 -41 -4 -56 -41 -55 -15 0 -16 2 -5 6 20 8 39 34 40
54 0 16 -19 29 -40 29 -17 0 -62 -55 -84 -102 -13 -26 -29 -54 -36 -63 -16
-20 -50 -19 -50 1 0 12 -7 14 -32 9 -17 -4 -38 -14 -46 -21 -8 -8 -27 -21 -43
-29 -16 -9 -29 -19 -29 -24 0 -13 -74 -29 -104 -24 -39 8 -31 18 14 19 22 1
47 8 56 15 38 31 58 131 32 157 -9 9 -9 15 0 24 17 17 15 38 -3 38 -18 0 -18
2 -3 34 9 21 8 29 -5 44 -9 10 -14 27 -11 39 4 15 0 23 -15 28 -11 3 -26 3
-32 -1 -8 -4 -9 -3 -5 4 12 19 51 14 73 -10 11 -13 33 -44 48 -71 15 -26 35
-52 45 -57 27 -15 50 -12 50 5 0 8 7 15 15 15 9 0 15 9 15 25 0 17 -5 25 -18
25 -14 0 -17 7 -15 38 3 32 -1 40 -29 59 -102 68 -124 78 -170 78 -27 0 -48 3
-48 8 0 7 -4 7 -52 0z m148 -68 c16 -13 16 -14 1 -9 -27 10 -86 -5 -108 -27
-23 -23 -27 -94 -5 -102 9 -4 12 -14 9 -26 -3 -12 0 -28 7 -36 9 -10 9 -15 1
-15 -6 0 -11 -13 -11 -30 0 -16 4 -30 10 -30 5 0 7 -7 4 -14 -6 -16 24 -65 40
-66 5 0 15 8 22 18 13 16 13 16 14 -2 0 -27 -29 -56 -57 -56 -20 0 -22 4 -17
24 7 28 -8 40 -36 31 -23 -7 -28 -53 -8 -73 8 -8 9 -12 1 -12 -6 0 -18 7 -25
15 -41 46 -41 43 -35 179 7 180 24 215 112 237 47 11 60 10 81 -6z"/>
<path d="M2615 2670 c-4 -11 -6 -53 -5 -93 2 -39 -1 -82 -5 -93 -6 -19 -2 -22
39 -28 25 -4 50 -4 56 -1 15 9 12 35 -5 41 -8 4 -15 15 -15 25 0 16 7 19 43
19 33 0 51 -7 77 -30 19 -16 40 -29 47 -30 6 0 13 -5 15 -11 2 -5 21 -13 43
-15 49 -7 72 9 81 54 6 28 4 32 -14 32 -12 0 -23 -9 -27 -20 -3 -11 -12 -20
-19 -20 -26 0 -75 22 -80 36 -3 8 -11 14 -19 14 -29 0 -37 22 -20 51 16 27 16
30 -3 56 -17 22 -30 29 -68 31 -36 2 -46 0 -46 -13 0 -8 11 -20 24 -24 23 -9
42 -50 28 -63 -4 -3 -19 -10 -34 -13 -28 -7 -28 -7 -28 42 0 27 -5 54 -12 61
-18 18 -46 14 -53 -8z"/>
<path d="M2264 2423 c-30 -6 -74 -58 -74 -86 0 -29 20 -88 34 -102 25 -24 89
-55 113 -55 30 0 113 -81 113 -110 0 -10 -14 -33 -31 -51 -27 -29 -38 -34 -78
-34 -61 0 -107 32 -121 86 -6 21 -16 39 -21 39 -11 0 -77 48 -108 79 -8 7 -27
18 -43 23 -15 6 -28 16 -28 23 0 9 -22 13 -78 14 -72 1 -80 -1 -102 -24 -29
-31 -32 -85 -5 -115 35 -38 61 -17 30 24 -8 11 -15 25 -15 31 0 22 37 55 61
55 21 0 21 -1 6 -13 -10 -6 -20 -28 -23 -47 -5 -31 -2 -37 19 -49 30 -16 67 0
67 29 0 23 -20 26 -39 8 -11 -11 -12 -8 -6 12 14 46 35 49 103 20 44 -19 96
-70 72 -70 -5 0 -10 -9 -10 -20 0 -11 5 -20 10 -20 6 0 21 -24 34 -54 13 -30
32 -59 43 -64 39 -20 115 -22 187 -5 81 19 114 40 152 95 25 35 26 42 15 78
-18 60 -133 140 -202 140 -21 0 -43 10 -66 30 -18 17 -28 30 -21 30 7 0 20 13
29 29 9 15 26 30 37 33 28 8 82 -27 82 -52 0 -11 6 -20 14 -20 8 0 16 -7 20
-15 10 -28 41 -17 55 20 14 39 9 55 -19 55 -10 0 -25 8 -32 18 -7 11 -23 24
-35 30 -21 11 -94 14 -139 5z"/>
<path d="M2740 2294 c-8 -2 -49 -5 -90 -6 l-75 -3 1 -47 c1 -27 2 -73 3 -103
l1 -55 91 1 c106 1 119 4 119 30 0 17 -6 18 -75 12 -72 -6 -75 -5 -75 16 0 17
6 21 30 21 19 0 30 5 30 14 0 8 -13 17 -30 21 -21 5 -30 13 -30 26 0 17 8 19
76 19 l75 0 -3 27 c-3 27 -17 35 -48 27z"/>
<path d="M2983 2283 c-7 -2 -13 -11 -13 -19 0 -8 -8 -14 -17 -14 -40 -1 -85
-59 -123 -160 -8 -19 -20 -39 -27 -43 -20 -12 -16 -37 6 -37 24 0 39 19 73 89
15 31 27 50 28 44 0 -8 14 -13 33 -13 l32 -1 -22 -18 c-46 -39 -28 -47 75 -35
42 6 52 10 52 25 0 11 -7 19 -15 19 -12 0 -15 15 -15 75 0 60 -3 75 -15 75 -8
0 -15 5 -15 10 0 10 -16 12 -37 3z"/>
<path d="M3135 2283 c-29 -8 -45 -23 -45 -45 0 -17 5 -18 51 -12 l52 7 -7 -76
c-7 -69 -6 -76 12 -81 42 -14 52 1 52 79 l0 72 43 6 c24 3 53 4 65 0 17 -4 22
-1 22 16 0 13 -8 22 -22 25 -38 8 -202 15 -223 9z"/>
<path d="M1683 2133 c-26 -5 -30 -25 -8 -43 10 -8 15 -31 15 -66 0 -40 4 -54
14 -54 8 0 17 10 19 23 3 12 4 -12 4 -54 -2 -67 -4 -75 -19 -71 -16 4 -18 -3
-18 -56 0 -49 3 -61 18 -65 12 -3 13 -5 2 -6 -11 -1 -20 -25 -32 -83 -10 -45
-15 -84 -13 -87 3 -2 33 -5 67 -5 l63 -1 1 45 c2 115 -3 106 66 114 34 3 64 2
67 -2 3 -5 13 -12 21 -15 12 -4 11 -6 -2 -6 -14 -1 -18 -10 -18 -46 0 -38 4
-47 23 -55 18 -7 15 -9 -20 -9 -31 -1 -43 -5 -43 -16 0 -8 8 -15 19 -15 24 0
37 -17 46 -60 10 -50 52 -108 100 -136 23 -13 47 -24 53 -24 20 0 13 28 -7 35
-11 3 -24 11 -30 18 -8 10 -2 12 26 9 32 -4 35 -2 31 15 -4 16 -1 18 24 15 17
-3 48 1 70 9 32 10 41 10 47 0 5 -7 14 -12 22 -11 8 1 32 2 54 1 38 -2 39 -2
20 -17 -19 -14 -32 -14 -82 1 -17 6 -23 3 -23 -8 0 -10 16 -21 42 -29 38 -11
45 -10 90 15 54 30 135 36 195 15 27 -10 38 -10 53 0 11 7 29 12 40 12 19 0
38 25 28 36 -3 2 -24 0 -48 -5 -31 -7 -39 -6 -31 2 14 14 14 37 -1 37 -6 0
-20 -8 -31 -17 -13 -13 -42 -19 -97 -23 -71 -5 -77 -3 -69 12 5 9 14 20 19 23
17 10 12 75 -5 75 -9 0 -15 -9 -15 -22 0 -13 -7 -31 -15 -41 -15 -20 -79 -39
-101 -30 -16 6 -19 33 -4 33 6 0 10 7 10 15 0 21 -39 19 -59 -3 -9 -11 -26
-24 -38 -30 l-21 -12 21 38 c21 40 18 72 -7 72 -8 0 -20 -17 -26 -37 -13 -40
-30 -66 -30 -45 0 17 -29 15 -36 -2 -9 -24 -59 -30 -88 -11 -36 24 -32 35 9
28 59 -9 93 39 36 50 -22 5 -31 13 -36 37 -4 16 -10 30 -13 30 -10 0 -11 31
-13 228 -1 94 -4 172 -7 172 -3 0 -19 -4 -36 -10 -17 -5 -43 -12 -58 -15 -32
-6 -37 -29 -11 -44 14 -8 18 -25 19 -88 1 -49 -2 -81 -10 -85 -13 -9 -63 -10
-93 -2 -23 6 -23 9 -23 175 l0 169 -27 0 c-16 0 -37 2 -48 4 -11 2 -30 2 -42
-1z"/>
<path d="M1 1893 l-2 -172 49 -78 c27 -43 52 -88 56 -101 4 -12 11 -22 15 -22
5 0 14 -13 21 -30 7 -16 16 -30 21 -30 5 0 9 -6 9 -14 0 -12 25 -62 85 -171
12 -22 33 -60 46 -85 13 -25 27 -47 30 -50 3 -3 14 -28 24 -57 10 -29 26 -54
34 -56 9 -2 -6 -7 -32 -12 -35 -5 -59 -3 -90 9 -61 23 -84 21 -91 -8 -3 -14
-3 -31 0 -40 8 -21 55 -29 89 -16 16 6 47 8 68 4 28 -4 42 -2 48 7 6 10 9 11
9 2 0 -7 9 -13 19 -13 19 0 41 -43 41 -81 0 -11 5 -19 11 -19 5 0 8 -4 5 -9
-8 -13 4 -42 15 -35 5 3 6 -2 3 -11 -4 -9 1 -24 10 -34 12 -14 14 -21 6 -26
-8 -5 -10 -41 -7 -119 6 -117 -5 -197 -29 -217 -21 -17 -18 -66 5 -74 10 -3
25 -3 33 0 12 5 14 -1 8 -37 -7 -48 -26 -88 -40 -88 -6 0 -10 -7 -10 -15 0 -8
3 -15 8 -15 4 0 7 -20 7 -45 0 -29 -4 -45 -12 -45 -21 0 -15 -25 12 -48 14
-12 25 -26 25 -31 0 -5 70 -10 161 -10 157 -2 160 -1 154 19 -4 13 -2 20 6 20
8 0 6 7 -6 20 -10 11 -23 17 -29 13 -6 -4 -5 1 3 11 13 16 16 15 34 -13 20
-32 42 -40 49 -19 3 7 15 13 29 13 19 0 24 5 23 25 -1 13 5 30 12 38 16 16 19
62 4 62 -12 0 -9 32 4 41 12 9 -2 46 -27 69 -11 11 -17 23 -14 27 4 3 67 7
140 7 l132 1 3 28 c4 34 -19 45 -53 23 -18 -12 -49 -16 -122 -16 -126 0 -144
10 -138 78 2 26 4 55 4 65 1 12 9 17 31 17 41 0 41 28 0 37 -29 5 -30 7 -30
64 0 56 1 59 25 59 16 0 25 6 25 15 0 10 -10 15 -33 15 -17 0 -47 4 -66 10
-48 14 -81 3 -81 -25 0 -13 7 -25 15 -29 12 -4 15 -26 15 -106 0 -60 -4 -100
-10 -100 -17 0 -25 5 -26 15 -1 6 -12 33 -25 60 -13 28 -24 52 -24 55 -5 16
-19 49 -32 74 -9 16 -12 26 -7 23 6 -3 10 4 11 16 0 12 -1 16 -4 10 -6 -17
-19 -17 -21 0 0 6 -3 22 -6 35 -3 13 -1 20 5 17 5 -4 9 -13 9 -22 0 -9 3 -14
6 -10 8 8 -18 77 -27 71 -4 -2 -5 6 -1 18 3 12 1 19 -4 15 -5 -3 -11 22 -12
58 -3 63 -3 63 27 70 54 12 193 8 202 -6 12 -20 84 11 84 36 0 23 -31 24 -245
15 -107 -5 -116 -4 -135 15 -11 11 -24 21 -30 22 -5 1 -11 7 -14 14 -2 6 1 9
7 5 6 -4 8 2 5 14 -3 11 -11 20 -19 20 -7 0 -19 10 -25 23 l-12 22 23 -20 23
-20 -10 20 c-38 80 -59 113 -67 108 -5 -3 -6 -1 -2 5 8 13 -22 77 -31 68 -3
-3 0 -14 8 -23 13 -16 12 -17 -3 -5 -15 12 -33 58 -30 75 1 4 -3 7 -9 7 -6 0
-8 7 -5 17 4 10 4 14 0 11 -10 -11 -42 34 -39 54 2 9 -3 19 -11 22 -9 3 -12
10 -9 16 3 5 2 10 -2 10 -5 0 -14 15 -21 33 -7 18 -21 43 -32 55 -12 12 -17
22 -13 22 4 0 1 5 -7 10 -10 6 -11 10 -2 10 6 0 12 7 12 16 0 12 -7 15 -24 12
-17 -4 -23 -1 -19 9 3 8 -2 13 -13 13 -14 0 -16 2 -6 9 10 6 7 13 -15 30 -15
13 -22 20 -15 16 6 -3 15 0 18 8 5 13 -8 40 -53 112 -22 36 -65 129 -78 170
-11 36 -12 21 -14 -132z"/>
<path d="M2130 1880 c-14 -4 -40 -8 -57 -9 l-33 -1 0 -84 c0 -50 4 -88 11 -91
6 -4 44 -9 85 -12 l74 -5 0 30 0 31 -56 -2 c-60 -2 -85 15 -39 27 29 7 34 36
6 36 -20 0 -37 17 -27 27 3 3 25 8 51 10 46 6 50 9 39 37 -7 17 -16 18 -54 6z"/>
<path d="M2340 1860 c0 -5 -8 -10 -19 -10 -24 0 -68 -67 -87 -132 -11 -35 -22
-51 -40 -58 -23 -9 -34 -40 -14 -40 6 0 10 -7 10 -15 0 -8 7 -15 15 -15 18 0
20 30 3 31 -7 0 -3 4 9 9 13 5 35 35 53 70 22 43 36 60 50 60 26 0 26 -16 0
-32 -35 -22 -23 -36 30 -35 l49 1 -5 75 c-3 42 -7 82 -10 89 -4 14 -44 17 -44
2z"/>
<path d="M2439 1868 c0 -2 -1 -40 -2 -84 l-2 -82 50 0 c63 0 92 18 101 64 9
50 -7 78 -54 92 -35 11 -91 16 -93 10z"/>
<path d="M3100 1857 c-19 -9 -26 -22 -28 -50 -2 -22 -10 -41 -18 -44 -8 -3
-14 -13 -14 -22 0 -13 -12 -16 -65 -18 -38 -2 -65 1 -65 7 0 6 16 10 36 10 28
0 35 3 32 18 -2 9 -14 19 -28 21 -14 1 -28 8 -32 15 -5 7 10 13 50 16 50 4 57
8 60 28 3 21 1 22 -86 22 -63 0 -91 -4 -94 -12 -3 -7 -3 -48 0 -90 l4 -78 67
0 c36 0 76 -3 89 -6 18 -5 24 -2 29 16 l6 23 21 -25 c13 -15 36 -28 59 -32 33
-6 41 -3 67 23 52 52 34 104 -38 114 -49 6 -57 11 -47 26 9 16 45 13 51 -4 6
-16 39 -21 48 -7 2 4 25 6 51 4 44 -4 46 -5 41 -31 -3 -14 -8 -45 -11 -68 l-7
-43 42 0 42 0 -6 35 c-4 19 -4 51 0 70 6 33 9 35 45 35 35 0 39 3 39 25 l0 25
-108 0 c-66 0 -112 -4 -119 -11 -8 -8 -17 -7 -34 5 -28 19 -46 20 -79 3z"/>
<path d="M3820 1003 c-32 -6 -62 -35 -100 -93 -32 -50 -38 -90 -17 -112 6 -7
18 -25 26 -40 8 -16 20 -28 28 -28 7 0 13 -4 13 -9 0 -5 26 -19 58 -31 31 -11
66 -25 77 -30 11 -5 30 -12 43 -15 12 -4 22 -11 22 -16 0 -5 5 -9 10 -9 14 0
80 -43 80 -53 0 -4 11 -20 25 -35 37 -40 32 -72 -17 -126 -32 -33 -56 -49 -93
-59 -84 -23 -185 7 -219 63 -14 25 -14 29 -1 40 8 7 15 23 15 37 0 19 -9 28
-42 43 -24 11 -51 20 -62 20 -17 0 -18 -5 -12 -47 6 -50 35 -123 49 -123 4 0
16 -8 26 -17 41 -37 51 -43 93 -52 55 -13 163 -4 204 15 30 15 133 114 118
114 -4 0 0 8 9 18 13 14 16 34 13 87 -2 40 -8 71 -15 73 -6 2 -11 10 -11 18 0
8 -7 14 -15 14 -8 0 -15 4 -15 10 0 24 -85 80 -122 80 -10 0 -18 5 -18 10 0 6
-11 10 -25 10 -14 0 -25 5 -25 10 0 6 -6 10 -13 10 -8 0 -41 13 -75 30 -46 22
-63 36 -68 56 -10 38 9 69 58 92 57 26 113 20 136 -17 9 -14 21 -29 27 -33 6
-5 4 -18 -8 -37 -9 -16 -17 -36 -17 -45 0 -20 26 -21 34 -1 3 8 12 15 21 15 8
0 24 9 35 20 72 72 -84 170 -230 143z"/>
<path d="M2370 730 c0 -5 -7 -10 -16 -10 -9 0 -28 -12 -41 -27 -20 -21 -24
-34 -20 -64 5 -35 36 -79 57 -79 6 0 10 -4 10 -9 0 -5 20 -14 43 -20 26 -6 52
-21 63 -36 10 -14 24 -25 30 -25 16 0 38 -46 31 -64 -4 -9 -21 -25 -39 -36
-35 -22 -77 -22 -132 -1 -23 9 -27 15 -22 36 11 42 -55 89 -70 50 -17 -44 33
-109 97 -126 88 -24 170 6 203 73 26 51 18 85 -33 132 -41 37 -55 48 -88 65
-21 11 -51 31 -67 45 -27 24 -28 28 -16 51 7 14 19 25 27 25 7 0 13 7 13 15 0
8 -7 15 -15 15 -8 0 -15 -4 -15 -10z"/>
<path d="M4176 669 c-8 -43 2 -54 29 -29 19 18 32 21 96 18 l74 -3 1 -70 c1
-38 3 -100 5 -136 3 -53 0 -71 -13 -86 -32 -35 -23 -44 45 -41 54 3 62 6 65
24 2 15 -3 23 -17 27 -20 5 -26 25 -23 67 1 8 3 49 6 90 2 41 8 88 12 103 6
27 9 28 43 22 20 -4 40 -13 44 -21 12 -21 47 -18 47 5 0 11 5 23 10 26 6 3 10
12 10 20 0 11 -40 14 -214 15 l-213 1 -7 -32z"/>
<path d="M5066 685 c-10 -27 -7 -58 8 -87 13 -25 13 -29 -2 -37 -14 -8 -15
-12 -3 -34 17 -33 8 -57 -19 -52 -18 3 -25 -5 -21 -27 0 -4 -5 -5 -13 -2 -15
6 -67 -50 -92 -98 -14 -27 -14 -30 -1 -25 11 4 14 1 10 -8 -3 -8 -10 -12 -17
-8 -7 5 -7 2 1 -8 8 -10 9 -19 1 -29 -8 -12 -8 -11 -3 5 5 15 3 17 -5 9 -9 -9
-6 -22 9 -52 11 -22 26 -44 33 -48 8 -5 7 0 -2 12 -14 17 -14 18 2 6 9 -8 15
-19 12 -26 -3 -8 2 -16 11 -20 11 -4 14 -2 9 7 -4 6 2 4 12 -5 11 -10 35 -23
53 -29 24 -9 29 -14 19 -20 -9 -6 -6 -9 12 -10 14 -1 28 -1 33 0 4 0 7 -3 7
-8 0 -21 188 -80 210 -66 5 3 12 0 16 -6 5 -8 3 -9 -6 -4 -9 5 -11 4 -6 -3 4
-7 22 -12 39 -12 l32 0 -25 21 c-31 25 -62 38 -109 45 -67 11 -125 48 -148 96
-24 48 -34 112 -23 143 7 19 17 20 134 20 l126 0 0 28 c0 20 -5 27 -19 27 -11
0 -21 -4 -23 -9 -5 -14 -135 -18 -149 -4 -8 8 -11 59 -10 167 1 156 1 156 -21
156 -13 0 -33 3 -44 6 -14 4 -23 0 -28 -11z"/>
<path d="M5430 685 c-8 -10 -8 -25 -1 -52 15 -57 12 -181 -7 -240 -9 -29 -12
-56 -8 -60 10 -10 382 -10 419 0 15 4 27 14 27 23 0 12 -6 15 -22 9 -32 -10
-262 -19 -293 -11 -16 4 -25 13 -25 25 0 11 -5 21 -11 23 -6 2 -8 14 -4 31 7
28 5 27 100 31 40 1 47 36 10 56 -23 12 -27 11 -49 -9 -25 -23 -46 -21 -46 4
0 7 -5 15 -11 17 -9 3 -9 21 -3 63 l9 60 50 -1 c28 0 84 -2 125 -5 64 -3 75
-2 78 13 4 22 -27 27 -195 32 -102 3 -135 1 -143 -9z"/>
<path d="M4666 674 c-18 -17 -18 -20 -10 -51 4 -13 11 -23 16 -23 5 0 29 -21
53 -46 44 -47 55 -79 55 -156 0 -34 -3 -38 -25 -38 -21 0 -25 -5 -25 -30 0
-30 21 -42 35 -20 3 6 35 10 71 10 70 0 81 11 43 44 -19 16 -21 25 -15 77 4
44 12 67 31 87 14 15 25 31 25 37 0 6 18 18 41 28 36 16 40 21 34 44 -3 14
-12 32 -20 39 -20 20 -47 18 -44 -3 2 -10 0 -35 -4 -55 -6 -30 -13 -38 -37
-43 -16 -4 -32 -11 -35 -16 -4 -5 -19 -9 -35 -9 -20 0 -31 6 -35 20 -3 11 -11
20 -16 20 -5 0 -9 6 -9 14 0 8 -6 17 -12 20 -10 3 -8 9 5 19 9 8 17 19 17 25
0 25 -80 30 -104 6z"/>
<path d="M2941 614 c-31 -25 -33 -31 -28 -73 6 -58 41 -91 97 -91 59 0 95 35
95 94 0 58 -26 86 -87 93 -38 4 -49 1 -77 -23z"/>
<path d="M3130 628 c0 -8 5 -19 12 -26 9 -9 9 -12 0 -12 -19 0 -14 -28 9 -51
15 -15 18 -24 10 -28 -7 -5 -9 -20 -5 -39 5 -24 12 -32 28 -32 36 0 49 15 44
49 -4 28 -2 31 24 31 22 0 28 5 28 21 0 18 -4 20 -30 14 -26 -6 -30 -4 -30 13
0 19 6 20 58 17 61 -3 82 6 82 36 0 21 -20 25 -37 8 -11 -11 -74 -8 -155 6
-29 6 -38 4 -38 -7z"/>
<path d="M5925 340 c6 -10 -14 -15 -49 -11 -11 1 -27 -6 -38 -15 -20 -19 -24
-44 -7 -44 6 0 3 -7 -6 -16 -9 -9 -14 -23 -11 -31 3 -8 1 -11 -4 -8 -6 4 -10
-11 -10 -38 0 -45 5 -53 74 -114 26 -24 46 -30 46 -14 0 6 12 6 32 0 47 -13
48 -12 48 21 0 17 -4 30 -10 30 -5 0 -10 -6 -10 -14 0 -36 -68 -17 -117 33
-27 27 -53 78 -33 66 7 -5 23 31 21 48 -1 4 8 7 19 7 11 0 20 5 20 10 0 6 18
10 39 10 42 0 54 15 46 55 -2 11 -4 23 -4 28 -1 4 -13 7 -27 7 -14 0 -23 -4
-19 -10z"/>
<path d="M5525 174 c-11 -12 -15 -30 -14 -60 2 -23 -2 -48 -8 -56 -6 -7 -14
-23 -17 -35 -7 -23 -6 -23 93 -23 56 0 101 3 101 8 0 4 -20 16 -45 27 -26 11
-43 25 -41 32 3 8 -1 10 -11 6 -12 -5 -14 -3 -7 8 4 8 7 24 5 37 -1 13 4 25
13 28 9 3 16 15 16 25 0 15 -7 19 -34 19 -19 0 -42 -7 -51 -16z"/>
</g>
</svg>
