<?xml version="1.0" standalone="no"?>
<!DOCTYPE svg PUBLIC "-//W3C//DTD SVG 20010904//EN"
 "http://www.w3.org/TR/2001/REC-SVG-20010904/DTD/svg10.dtd">
<svg version="1.0" xmlns="http://www.w3.org/2000/svg"
 width="600.000000pt" height="600.000000pt" viewBox="0 0 600.000000 600.000000"
 preserveAspectRatio="xMidYMid meet">
<metadata>
Created by potrace 1.16, written by Peter Selinger 2001-2019
</metadata>
<g transform="translate(0.000000,600.000000) scale(0.100000,-0.100000)"
fill="#000000" stroke="none">
<path d="M740 5993 c-23 -7 -62 -24 -91 -39 -14 -7 -37 -14 -52 -16 -14 -2
-29 -7 -33 -11 -4 -4 -16 -7 -26 -7 -10 0 -18 -5 -18 -11 0 -5 -4 -8 -9 -4 -5
3 -12 1 -16 -5 -3 -5 -24 -14 -45 -20 -22 -6 -40 -15 -40 -20 0 -6 -5 -10 -11
-10 -6 0 -32 -15 -58 -34 -45 -33 -188 -105 -286 -145 l-50 -20 -3 -760 c-2
-672 0 -761 13 -761 9 0 15 9 15 23 0 12 9 37 20 55 11 18 20 41 20 52 0 13 7
20 20 20 22 0 27 -15 7 -23 -7 -2 -21 -21 -32 -40 -17 -32 -17 -36 -2 -51 20
-20 37 -21 37 -1 0 8 -4 15 -10 15 -5 0 1 16 13 35 20 30 26 33 54 28 24 -4
34 -1 39 10 3 9 13 13 26 9 18 -4 20 -2 13 28 -4 18 -16 42 -26 54 -24 25 -24
32 1 39 26 7 26 37 1 37 -11 0 -27 -7 -35 -16 -14 -13 -16 -14 -16 0 0 28 18
61 56 103 22 23 46 52 55 65 9 13 29 29 45 37 79 38 94 46 94 52 0 3 21 20 46
39 34 24 48 29 54 20 5 -8 19 -10 41 -6 30 5 32 5 12 -6 -25 -12 -31 -38 -10
-38 6 0 24 6 38 14 25 13 26 12 21 -7 -5 -21 1 -21 53 -2 17 6 17 5 -2 -9 -17
-13 -23 -27 -23 -56 0 -21 -5 -42 -10 -45 -22 -13 -8 -33 27 -38 32 -6 40 -2
70 28 34 35 63 46 63 24 0 -8 11 -9 31 -5 25 5 36 1 49 -14 18 -20 17 -22 -7
-48 -17 -18 -27 -23 -30 -14 -3 6 -13 12 -22 12 -20 0 -38 -33 -39 -68 -1 -13
-8 -29 -17 -36 -27 -19 -9 -70 29 -84 51 -19 84 -15 112 13 14 14 29 25 34 25
18 0 24 52 7 65 -14 10 -14 16 -3 48 17 49 24 54 32 23 3 -14 13 -26 21 -26
10 0 14 7 10 20 -6 23 -2 25 16 8 7 -6 11 -26 9 -45 -3 -27 -1 -33 14 -34 11
0 14 -3 7 -6 -7 -2 -13 -11 -13 -19 0 -15 -8 -17 -52 -14 -17 1 -28 -4 -28
-11 0 -16 48 -59 67 -59 13 0 17 -18 8 -42 -4 -10 -16 -13 -36 -10 -30 4 -30
4 -25 -34 3 -22 3 -33 0 -26 -3 6 -19 12 -35 12 -24 0 -29 -4 -29 -25 0 -16 6
-25 15 -25 8 0 15 5 15 10 0 6 5 10 12 10 9 0 9 -3 0 -12 -7 -7 -12 -22 -12
-33 0 -12 -9 -33 -21 -46 -12 -14 -18 -31 -15 -44 3 -11 6 -26 6 -32 0 -7 9
-13 20 -13 16 0 20 -7 20 -31 0 -40 -38 -109 -61 -109 -17 0 -29 -27 -29 -69
0 -20 4 -22 24 -17 40 10 58 -2 51 -35 -6 -24 -3 -29 13 -29 11 0 30 8 43 19
21 17 22 22 11 45 -15 33 -15 56 -2 56 6 0 10 -10 10 -23 0 -28 17 -47 43 -47
16 0 18 -5 13 -32 -3 -18 -8 -51 -12 -73 -5 -36 -9 -40 -35 -41 -52 -2 -146
-80 -111 -92 7 -2 12 -10 12 -18 0 -11 8 -14 30 -10 21 3 30 0 30 -9 0 -10 16
-13 63 -11 82 3 126 -13 206 -76 89 -70 89 -70 83 -90 -3 -14 2 -18 21 -18 17
0 43 -16 74 -46 43 -39 48 -49 45 -78 -4 -31 -1 -35 30 -44 74 -23 96 -24 100
-5 2 10 1 34 -3 53 -19 87 -20 126 -5 155 9 17 16 41 16 55 0 14 3 35 6 46 5
21 7 21 36 7 35 -18 104 -13 189 14 66 20 62 17 54 42 -4 13 -11 19 -18 15 -8
-5 -9 -4 -2 4 6 6 25 12 43 14 19 1 36 6 38 10 3 5 10 6 15 3 5 -4 9 -2 9 4 0
6 7 7 17 4 12 -5 14 -3 8 7 -6 10 -4 12 9 7 10 -4 20 -7 22 -7 2 0 4 -10 4
-21 0 -17 4 -20 23 -15 12 3 25 6 28 6 3 0 6 30 7 66 0 41 5 70 13 74 6 5 9
15 6 24 -4 10 -1 16 8 16 8 0 15 7 15 15 0 8 -8 15 -17 15 -15 0 -15 3 4 21
19 20 23 20 43 6 19 -13 19 -16 5 -30 -19 -19 -20 -47 -1 -47 7 0 19 7 26 15
10 12 16 13 26 4 8 -6 14 -17 14 -23 0 -6 10 -16 23 -21 16 -7 21 -17 19 -37
-5 -39 59 -108 102 -108 45 -1 71 -23 57 -49 -6 -11 -11 -33 -11 -50 0 -21 -5
-31 -15 -31 -34 0 -5 -52 69 -124 l50 -49 15 22 c47 67 84 101 105 95 21 -5
37 19 68 109 9 25 11 26 23 11 15 -21 48 -11 43 13 -2 9 -13 20 -25 23 l-21 5
19 39 c10 22 19 48 19 58 0 22 36 24 64 3 17 -13 17 -15 1 -59 -10 -25 -22
-46 -26 -46 -5 0 -9 -5 -9 -10 0 -6 -9 -23 -20 -38 -26 -37 -36 -82 -19 -82 8
0 22 -7 33 -15 17 -13 17 -18 6 -47 -18 -43 -17 -43 -35 -25 -17 17 -20 47 -5
47 6 0 10 7 10 15 0 8 -7 15 -15 15 -8 0 -15 -6 -15 -14 0 -8 -3 -16 -7 -18
-9 -3 -47 -81 -58 -115 -7 -26 -17 -28 -44 -11 -16 10 -17 15 -8 37 7 14 16
29 20 32 11 8 -1 49 -14 49 -19 0 -40 -30 -34 -49 3 -10 -1 -24 -10 -31 -16
-14 -21 -50 -6 -50 5 0 16 -6 23 -13 14 -14 64 -37 78 -37 6 0 10 6 10 14 0 7
6 25 13 40 13 23 16 24 33 11 36 -27 51 -18 74 43 15 38 36 71 66 98 42 40 55
64 34 64 -5 0 -10 7 -10 15 0 9 9 15 21 15 17 0 20 4 15 23 -3 12 -6 30 -6 40
0 12 -8 17 -26 17 -24 0 -25 2 -19 44 6 40 5 45 -23 65 -17 11 -37 21 -45 21
-10 0 -13 8 -10 24 4 21 2 23 -22 18 -25 -4 -26 -3 -16 16 6 11 11 25 11 31 0
16 -28 13 -37 -4 -11 -19 -65 -10 -86 14 -20 23 -38 104 -27 115 18 18 11 58
-10 63 -11 3 -20 12 -20 20 0 7 -9 23 -20 35 -11 12 -20 30 -20 40 0 10 -7 18
-15 18 -8 0 -15 9 -15 19 0 14 -8 21 -27 23 -22 2 -29 9 -31 31 -3 22 -8 28
-21 24 -14 -3 -17 1 -13 20 4 23 4 23 22 3 9 -11 22 -20 29 -20 18 0 13 24 -9
40 -11 8 -20 18 -20 22 0 4 9 8 20 8 11 0 20 -7 20 -15 0 -8 7 -15 15 -15 8 0
15 9 15 20 0 15 5 19 23 16 12 -2 36 4 52 12 17 9 46 17 66 17 30 1 40 -4 54
-27 16 -28 18 -35 34 -117 12 -60 35 -79 110 -92 35 -7 58 -15 52 -19 -8 -5
-9 -14 -2 -32 11 -30 28 -43 56 -43 18 0 20 -6 17 -51 -2 -34 2 -55 11 -62 14
-12 144 -62 160 -62 4 0 17 11 28 24 l21 24 60 -45 c33 -25 62 -52 65 -59 3
-8 11 -14 18 -14 7 0 24 -9 38 -20 45 -35 60 -21 35 32 -8 17 -24 29 -43 32
-16 4 -44 20 -62 36 -18 17 -36 30 -40 30 -10 0 -53 45 -53 55 0 3 -7 13 -15
21 -11 11 -12 20 -3 39 9 20 13 22 30 12 18 -12 30 -4 41 27 1 4 26 -6 54 -23
27 -17 55 -31 62 -31 17 0 13 30 -4 36 -14 6 -13 8 1 19 10 7 26 10 36 7 22
-5 25 23 4 31 -8 3 -18 26 -21 52 -6 39 -10 45 -29 43 -15 -2 -22 3 -24 20 -2
13 -10 22 -21 22 -23 0 -73 90 -53 97 20 7 14 29 -13 43 -13 7 -22 17 -19 22
3 4 -4 8 -15 8 -14 0 -23 9 -27 25 -5 18 -13 25 -31 25 -31 0 -63 34 -63 68 0
20 -4 23 -22 19 l-23 -6 23 19 c41 34 19 56 -25 25 -18 -13 -22 -13 -33 0 -9
11 -7 18 9 32 40 33 18 59 -23 28 -47 -36 -58 -2 -13 37 52 45 27 65 -29 23
-30 -23 -33 -23 -38 -7 -3 9 -17 29 -31 44 -15 16 -29 48 -34 75 -11 58 -39
83 -91 83 -30 0 -43 -6 -59 -26 -12 -15 -21 -22 -21 -17 0 12 33 41 85 75 63
42 99 78 139 140 20 32 36 61 36 65 0 5 5 23 10 42 5 19 7 45 4 58 -5 17 -2
23 10 23 24 0 20 15 -14 48 -27 27 -29 34 -20 59 15 38 158 172 179 166 9 -2
26 5 38 16 12 12 26 21 31 21 20 0 73 65 68 83 -2 10 2 21 10 24 8 3 12 9 9
13 -8 13 29 46 47 42 21 -4 36 61 19 82 -6 7 -9 15 -7 17 11 11 13 69 3 69 -6
0 -2 7 9 16 10 8 13 13 6 9 -13 -7 -13 20 1 42 4 6 3 15 -3 18 -7 4 -3 18 10
39 25 42 25 50 -2 62 -13 6 -16 8 -8 6 12 -2 13 -1 3 9 -7 7 -13 21 -13 31 0
17 -55 18 -1302 17 -717 0 -1310 -3 -1318 -6z m1525 -807 c27 -1 52 -51 64
-128 19 -115 -15 -172 -101 -174 -44 -1 -55 -5 -75 -30 -13 -16 -42 -47 -64
-70 -40 -41 -48 -59 -28 -66 9 -3 9 -9 0 -25 -15 -30 -14 -68 7 -138 12 -42
25 -63 40 -70 12 -5 22 -16 22 -23 0 -11 7 -12 28 -7 37 10 91 7 122 -8 19
-10 24 -19 22 -40 -3 -21 1 -27 15 -27 10 0 28 -16 41 -38 41 -69 47 -77 57
-84 20 -14 -4 -17 -83 -11 -63 4 -82 9 -82 21 0 9 -7 13 -19 9 -12 -3 -22 1
-25 9 -6 16 -36 19 -36 3 0 -6 5 -19 10 -29 8 -15 6 -21 -10 -30 -29 -16 -59
-4 -53 20 4 15 0 20 -15 20 -15 0 -28 17 -52 68 -36 75 -38 91 -22 181 11 62
10 67 -18 126 -18 38 -27 69 -23 83 4 16 1 22 -11 22 -9 0 -16 5 -16 11 0 6
-9 24 -21 40 l-21 29 31 36 c30 34 43 94 21 94 -5 0 -10 5 -10 10 0 6 10 10
23 10 62 0 129 76 148 167 14 70 25 77 79 55 19 -8 44 -15 55 -16z m-1325
-449 c0 -5 19 -7 42 -5 35 2 43 -1 46 -15 2 -12 11 -17 25 -15 15 2 22 -4 28
-27 12 -41 -3 -51 -44 -31 -48 22 -57 20 -57 -10 0 -21 4 -25 20 -21 22 6 23
5 14 -17 -8 -20 -34 -21 -34 -1 0 17 -21 20 -35 6 -6 -6 -15 -4 -23 5 -11 12
-9 16 13 26 14 6 25 18 25 26 0 14 -13 13 -52 -3 -13 -5 -18 -2 -18 10 0 13
-6 16 -22 12 l-23 -6 23 16 c12 8 22 22 22 29 0 16 -26 19 -35 4 -5 -8 -12 -7
-22 2 -13 11 -13 13 4 19 25 9 103 6 103 -4z"/>
<path d="M3988 5983 c-28 -7 -23 -50 6 -57 13 -3 26 -12 29 -18 7 -19 -36 -48
-54 -37 -11 7 -11 9 4 9 9 0 17 7 17 15 0 11 -13 15 -54 15 -46 0 -56 3 -61
20 -6 20 -35 28 -35 10 0 -5 -7 -10 -15 -10 -8 0 -15 -7 -15 -15 0 -10 11 -15
35 -15 19 0 35 -4 35 -10 0 -5 9 -10 19 -10 43 0 50 -10 25 -35 -13 -13 -24
-31 -24 -40 0 -22 37 -18 43 5 3 11 12 20 21 20 13 0 14 -4 4 -25 -6 -14 -18
-25 -26 -25 -10 0 -13 -7 -8 -22 3 -13 6 -31 6 -40 0 -10 7 -18 15 -18 8 0 15
8 15 18 0 9 11 37 25 61 14 23 25 48 25 55 0 6 12 23 28 37 37 34 72 77 72 89
0 16 -19 12 -42 -10 -26 -24 -44 -26 -52 -5 -4 10 1 15 14 15 11 0 20 7 20 15
0 15 -33 19 -72 8z"/>
<path d="M4360 5966 c0 -8 5 -18 10 -21 18 -11 11 -22 -18 -28 -32 -6 -72 -41
-89 -77 -40 -84 -58 -240 -28 -240 14 0 18 21 19 98 0 13 7 22 16 23 8 0 32 1
52 3 27 2 35 0 29 -8 -14 -18 -5 -152 13 -178 9 -12 16 -35 16 -51 0 -15 7
-39 16 -52 11 -17 14 -36 9 -62 -6 -36 -8 -38 -41 -37 -57 2 -83 22 -99 78 -8
27 -15 60 -15 73 0 26 -25 32 -34 8 -12 -31 32 -165 54 -165 5 0 19 -9 31 -21
17 -17 25 -19 44 -11 18 8 26 8 36 -4 17 -21 -4 -42 -24 -25 -8 6 -38 14 -67
17 -46 4 -51 3 -48 -13 2 -10 12 -18 23 -19 36 -2 55 -16 55 -40 0 -13 -3 -24
-6 -24 -12 0 -64 34 -64 42 0 4 -7 8 -15 8 -23 0 -18 -20 12 -48 15 -13 27
-35 28 -48 0 -20 -4 -24 -27 -24 -39 0 -38 -34 2 -59 l31 -18 -41 -7 c-46 -7
-49 -16 -18 -59 15 -21 18 -32 10 -35 -7 -2 -12 -17 -12 -34 0 -23 11 -40 43
-71 40 -37 40 -39 10 -23 -17 9 -35 20 -38 26 -9 14 -34 12 -51 -4 -18 -19
-18 -36 1 -36 23 0 55 -32 55 -56 0 -12 6 -25 13 -27 6 -3 1 -6 -12 -6 -19 -1
-23 -5 -19 -26 4 -19 1 -25 -13 -25 -11 0 -19 -7 -19 -15 0 -8 9 -15 20 -15
11 0 20 4 20 10 0 6 10 5 26 -2 20 -9 27 -9 33 1 6 10 17 5 42 -19 l34 -31
-32 15 c-43 21 -56 20 -50 -4 4 -14 -1 -25 -14 -33 -25 -16 -24 -32 3 -51 12
-9 17 -16 11 -16 -7 0 -15 5 -18 10 -3 6 -15 10 -27 10 -17 0 -20 -4 -14 -30
3 -17 1 -30 -4 -30 -19 0 -10 -24 20 -55 l31 -32 -32 5 c-26 4 -30 2 -27 -14
3 -17 16 -19 156 -22 108 -2 152 1 152 9 0 6 27 38 61 70 61 59 73 90 36 97
-11 2 -17 -3 -17 -16 0 -11 -7 -25 -15 -32 -12 -10 -15 -10 -15 4 0 21 33 96
42 96 5 0 8 7 8 15 0 8 -6 15 -14 15 -9 0 -12 7 -9 20 6 22 -22 29 -30 8 -4
-10 -6 -10 -6 0 -1 6 -10 12 -21 12 l-20 0 20 20 c26 26 25 56 -1 71 -15 8
-18 14 -10 22 16 16 13 38 -6 53 -16 12 -16 15 -3 24 11 7 16 5 18 -5 4 -20
32 -19 32 0 0 8 -4 15 -10 15 -5 0 -10 10 -10 23 0 28 -17 47 -43 47 -18 0
-17 3 7 25 28 25 56 33 56 15 0 -5 6 -10 14 -10 9 0 14 11 14 33 0 40 -21 72
-43 63 -13 -4 -14 -2 -5 14 14 27 12 38 -7 43 -11 2 -2 8 25 16 25 7 42 18 42
27 0 18 -32 32 -38 16 -5 -17 -22 -15 -22 3 0 8 6 15 13 15 21 0 35 14 42 43
7 26 5 27 -29 27 -41 0 -45 9 -15 30 39 28 59 47 59 59 0 14 -27 14 -32 0 -2
-7 -23 -13 -47 -14 -30 -2 -39 1 -32 8 15 15 14 42 -3 57 -15 12 -13 26 7 68
8 17 7 25 -5 35 -22 17 -30 47 -14 47 8 0 17 11 20 24 3 14 16 37 29 53 13 15
27 37 31 48 11 29 -4 125 -19 125 -12 0 -30 29 -22 36 5 6 47 -36 47 -46 0 -6
7 -10 16 -10 11 0 15 6 11 20 -3 13 0 20 9 20 8 0 14 -9 14 -20 0 -23 28 -27
36 -5 4 10 14 13 30 9 18 -5 24 -2 24 9 0 21 -40 33 -51 16 -7 -11 -9 -11 -9
-1 0 7 -12 18 -26 24 -21 10 -28 9 -38 -2 -9 -13 -17 -9 -51 22 -36 34 -38 38
-17 38 13 0 22 6 22 15 0 9 -9 15 -25 15 -21 0 -25 5 -25 30 0 20 -5 30 -15
30 -9 0 -15 -9 -15 -24 0 -32 -20 -44 -27 -17 -6 23 -33 29 -34 9 0 -7 -4 -3
-9 10 -10 24 -40 30 -40 8z"/>
<path d="M3703 5943 c-32 -4 -44 -25 -23 -38 17 -10 11 -25 -9 -25 -15 0 -21
-10 -26 -40 -9 -51 -20 -44 -35 21 -7 28 -19 53 -27 56 -19 8 -27 -3 -18 -24
5 -10 7 -23 6 -29 0 -6 5 -27 14 -46 16 -41 61 -60 80 -35 13 18 75 27 99 15
16 -8 17 -17 11 -64 -5 -45 -4 -54 9 -54 9 0 16 7 16 16 0 9 9 18 20 21 20 5
29 33 11 33 -5 0 -13 15 -17 32 -3 18 -16 41 -27 50 -23 20 -63 24 -69 6 -5
-15 -28 -1 -28 18 0 10 7 13 25 8 19 -5 25 -2 25 9 0 9 -5 19 -12 23 -7 5 -4
10 10 15 23 9 31 40 10 37 -7 0 -28 -3 -45 -5z"/>
<path d="M4810 5770 c0 -6 7 -27 15 -47 8 -20 12 -39 9 -42 -4 -3 -9 -1 -11 6
-3 9 -18 11 -49 6 -30 -4 -44 -2 -44 6 0 6 -7 11 -15 11 -8 0 -15 -7 -15 -15
0 -8 -4 -15 -10 -15 -5 0 -10 -7 -10 -15 0 -21 30 -19 31 3 0 10 3 12 6 5 2
-7 17 -14 31 -14 17 -1 21 -3 10 -6 -25 -6 -23 -33 2 -33 12 0 28 -13 40 -32
17 -28 18 -35 6 -53 -7 -11 -19 -45 -26 -75 -7 -30 -24 -86 -37 -124 -12 -38
-23 -79 -23 -92 0 -15 -8 -24 -25 -28 -41 -10 -31 -33 15 -33 38 0 40 1 40 30
0 17 12 72 26 123 22 75 30 91 44 87 12 -3 19 3 24 21 9 36 26 33 26 -4 0 -16
5 -30 10 -30 6 0 10 -9 10 -20 0 -11 7 -20 16 -20 17 0 48 65 40 86 -3 8 -1
14 4 14 6 0 10 9 10 19 0 25 -32 81 -46 81 -6 0 -14 18 -18 40 -6 40 -22 50
-44 28 -6 -6 -14 -9 -18 -5 -11 10 6 27 28 27 17 0 19 4 13 27 -13 53 -34 93
-49 93 -9 0 -16 -5 -16 -10z"/>
<path d="M3930 5646 c0 -13 7 -40 16 -61 8 -20 13 -42 10 -48 -3 -9 -5 -8 -5
1 -1 15 -31 16 -31 1 0 -12 51 -111 61 -119 10 -8 58 -182 65 -237 6 -45 4
-52 -14 -62 -27 -15 -29 -14 -35 9 -6 23 -37 27 -37 5 0 -7 6 -18 14 -22 12
-7 12 -10 0 -21 -8 -7 -14 -8 -14 -2 0 5 -7 10 -15 10 -16 0 -19 -9 -9 -34 7
-17 34 -22 34 -6 0 6 9 10 19 10 11 0 23 5 26 10 3 6 15 10 25 10 14 0 21 -10
26 -35 4 -22 12 -35 21 -35 12 0 14 8 8 38 -4 20 -11 69 -15 107 -7 68 -43
216 -74 304 -9 24 -16 53 -16 65 0 11 -8 47 -17 78 -18 58 -43 78 -43 34z"/>
<path d="M4834 5365 c-3 -14 -10 -25 -14 -25 -4 0 -10 -22 -13 -49 -3 -27 -10
-58 -15 -68 -5 -10 -16 -31 -23 -46 -7 -16 -15 -24 -17 -18 -2 6 -9 11 -15 11
-8 0 -13 -21 -14 -60 0 -33 -7 -84 -14 -112 -11 -48 -14 -129 -9 -281 2 -61
-14 -107 -36 -107 -17 0 -21 -7 -29 -53 -6 -30 -4 -37 9 -37 9 0 16 7 16 15 0
8 9 19 20 25 11 6 20 17 20 26 0 8 7 17 15 20 8 4 15 15 15 26 0 10 7 32 15
47 8 16 14 52 13 82 0 30 2 69 6 87 5 19 4 32 -2 32 -6 0 -4 16 4 38 7 20 13
47 14 60 0 13 10 33 23 46 30 30 34 96 6 103 -10 3 -19 8 -19 12 0 13 24 31
41 31 10 0 20 9 24 20 3 10 22 35 41 54 28 28 34 42 34 75 0 49 -27 59 -36 14
-6 -30 -41 -79 -50 -70 -3 3 2 29 10 58 20 65 20 69 1 69 -8 0 -17 -11 -21
-25z"/>
<path d="M455 4624 c-14 -15 -25 -38 -25 -50 0 -15 -6 -24 -15 -24 -8 0 -15
-5 -15 -10 0 -6 -5 -17 -12 -24 -10 -10 -17 -10 -38 1 -36 19 -61 16 -67 -7
-3 -11 -12 -20 -19 -20 -25 0 -16 -37 11 -44 14 -4 30 -4 34 -1 5 2 14 -2 21
-10 10 -12 9 -20 -4 -40 -25 -38 -20 -53 22 -64 52 -15 55 -14 48 13 -3 14 -3
32 0 41 6 14 8 14 31 0 38 -25 69 -13 77 30 9 46 0 58 -35 51 l-29 -5 26 42
c15 23 35 51 46 63 10 12 20 34 21 50 2 25 -2 29 -25 32 -20 2 -35 -4 -53 -24z"/>
<path d="M567 4390 c-9 -11 -17 -24 -17 -29 0 -5 -11 -29 -25 -52 -14 -25 -25
-36 -25 -26 0 13 -9 17 -40 17 -32 0 -40 -4 -40 -18 0 -10 5 -23 11 -29 8 -8
5 -13 -10 -18 -27 -8 -27 -35 -1 -35 30 0 36 -28 11 -54 -12 -13 -21 -35 -21
-53 0 -25 6 -33 31 -43 41 -18 78 1 77 40 -1 14 3 34 8 43 8 14 12 15 34 2 14
-8 30 -17 37 -21 7 -3 26 0 43 8 30 12 31 15 25 58 -4 25 -9 48 -12 53 -7 12
-30 8 -43 -8 -8 -10 -17 -12 -23 -6 -6 6 5 35 29 81 l39 71 -24 20 c-29 24
-42 24 -64 -1z"/>
<path d="M5007 4293 c-3 -5 -8 -23 -12 -41 -5 -26 -15 -37 -41 -48 -42 -17
-44 -17 -44 1 0 9 6 12 15 9 16 -6 54 31 55 54 0 17 -25 15 -40 -3 -7 -8 -20
-15 -30 -15 -19 0 -30 -19 -30 -51 0 -10 -4 -19 -10 -19 -5 0 -10 -6 -10 -14
0 -16 76 -21 85 -5 12 19 27 9 20 -13 -28 -91 -35 -200 -15 -248 14 -35 46
-42 37 -9 -3 12 -1 46 4 77 6 37 5 58 -1 60 -17 6 -11 63 14 139 36 108 40
133 22 133 -8 0 -17 -3 -19 -7z"/>
<path d="M804 4212 c-6 -4 -15 -23 -19 -42 -4 -19 -11 -37 -16 -40 -4 -3 -17
-26 -28 -50 -11 -25 -21 -39 -21 -32 0 21 -38 13 -59 -13 -24 -32 -38 -88 -22
-93 6 -2 11 -10 11 -18 0 -8 5 -14 10 -14 15 0 12 -29 -5 -46 -8 -9 -15 -22
-15 -30 0 -8 7 -14 15 -14 8 0 15 6 15 13 0 9 2 9 8 0 4 -6 19 -14 33 -18 20
-5 28 -1 39 19 7 14 19 26 27 26 7 0 13 9 13 19 0 11 6 26 13 33 20 22 34 51
42 86 6 28 4 32 -14 32 -23 0 -41 22 -23 28 7 2 12 12 12 22 0 10 7 21 16 24
10 4 14 15 12 33 -3 24 0 28 20 25 15 -2 22 2 22 12 0 9 -6 16 -14 16 -7 0
-19 7 -26 15 -14 16 -29 19 -46 7z"/>
<path d="M232 4193 c2 -10 13 -19 26 -21 28 -4 28 -5 -13 -77 -38 -68 -69 -87
-59 -36 6 28 4 31 -18 31 -30 0 -68 -48 -68 -88 0 -23 6 -30 33 -37 30 -9 32
-13 32 -55 0 -45 0 -45 38 -48 35 -3 38 -1 43 28 8 38 18 44 44 28 29 -19 54
1 58 45 3 28 -1 37 -17 42 -25 8 -26 13 -4 66 16 40 15 42 -2 55 -18 13 -17
14 8 14 23 0 27 4 27 29 0 26 -3 29 -46 35 -74 10 -86 8 -82 -11z"/>
<path d="M5540 4156 c0 -8 5 -16 12 -18 7 -3 6 -7 -5 -11 -11 -4 -17 -1 -17 8
0 8 -7 15 -15 15 -8 0 -15 -6 -15 -14 0 -17 -22 -26 -61 -26 -19 0 -29 -5 -29
-15 0 -10 10 -15 31 -15 17 0 40 -5 52 -12 12 -6 50 -13 84 -14 50 -2 63 0 63
11 0 8 -6 15 -12 15 -7 0 -20 5 -28 10 -13 9 -13 11 0 20 8 5 17 10 20 10 11
0 80 -67 80 -78 0 -16 18 -15 36 2 21 22 17 29 -25 49 -21 9 -43 29 -50 43 -9
22 -17 25 -41 22 -17 -3 -30 -1 -30 4 0 4 -11 8 -25 8 -15 0 -25 -6 -25 -14z"/>
<path d="M5208 4124 c-10 -22 -10 -28 5 -39 22 -16 21 -22 -3 -28 -25 -6 -27
-37 -2 -38 13 0 14 -2 2 -6 -29 -11 -42 -53 -16 -53 8 0 17 6 20 13 5 10 7 10
12 0 9 -20 32 -15 39 7 3 11 4 23 2 27 -3 5 19 19 49 32 30 14 54 31 54 39 0
9 -7 13 -20 9 -17 -4 -20 0 -20 23 0 21 -6 31 -22 36 -13 4 -24 2 -26 -5 -5
-14 -32 -15 -32 -1 0 21 -31 9 -42 -16z"/>
<path d="M2 3858 c3 -201 5 -223 20 -226 12 -2 19 5 24 22 3 14 12 26 19 26
15 0 25 22 25 56 0 17 -8 28 -28 36 -15 7 -29 13 -30 14 -7 4 22 74 30 74 13
0 9 30 -4 31 -7 0 -3 5 10 11 25 13 29 43 7 52 -8 3 -15 12 -15 21 0 8 -7 15
-15 15 -13 0 -20 19 -16 44 3 15 -10 46 -20 46 -6 0 -8 -86 -7 -222z"/>
<path d="M5117 3998 c-10 -124 -9 -148 7 -148 8 0 16 -14 18 -32 3 -18 7 -40
10 -48 3 -8 3 -12 1 -7 -3 4 -11 7 -19 7 -11 0 -13 -9 -8 -39 l6 -39 -38 9
c-22 4 -42 9 -46 9 -12 0 -9 -28 3 -32 6 -2 5 -14 -5 -33 l-16 -30 0 35 c0 20
-5 41 -12 48 -9 9 -9 12 0 12 17 0 15 21 -4 34 -8 7 -18 31 -21 54 -5 36 -9
42 -29 42 -13 0 -25 -8 -29 -19 -3 -10 -14 -26 -25 -36 -19 -17 -20 -17 -20 3
0 12 7 25 17 30 10 6 14 16 10 26 -4 9 -2 16 3 16 6 0 10 14 10 30 0 19 -5 30
-14 30 -15 0 -32 -37 -22 -47 3 -3 -4 -13 -14 -22 -11 -9 -26 -29 -35 -46 -13
-25 -15 -27 -15 -9 0 20 -17 34 -41 34 -14 0 -11 -28 4 -33 6 -3 2 -6 -10 -6
-20 -1 -23 -6 -23 -40 0 -32 -6 -44 -36 -71 -44 -39 -80 -53 -113 -45 -27 7
-82 -12 -94 -32 -4 -7 -26 -13 -47 -13 -34 0 -40 -3 -40 -21 0 -18 5 -20 51
-17 46 3 52 0 60 -19 7 -20 5 -23 -16 -23 -16 0 -25 6 -25 15 0 10 -10 15 -30
15 -31 0 -34 -3 -44 -52 l-6 -27 -48 26 c-54 30 -70 47 -78 84 -5 23 -12 27
-52 32 -61 7 -79 -4 -87 -53 -7 -39 -8 -40 -47 -40 -36 0 -47 6 -92 53 -32 32
-50 59 -48 70 2 11 -3 17 -15 17 -21 0 -66 44 -76 73 -4 11 -17 17 -39 17 -44
1 -69 20 -61 48 4 19 1 22 -21 22 -20 0 -27 -5 -25 -17 1 -10 1 -27 0 -38 -1
-18 -2 -19 -12 -2 -5 9 -15 17 -21 17 -13 0 -37 -30 -38 -47 0 -7 11 -13 24
-13 13 0 27 6 29 13 3 7 6 7 6 1 1 -6 -8 -21 -18 -33 -11 -13 -22 -36 -25 -52
-3 -16 -9 -42 -12 -59 -4 -24 -2 -30 11 -30 12 0 15 -5 11 -16 -3 -9 -6 -18
-6 -20 0 -2 -7 -4 -15 -4 -22 0 -18 -31 5 -37 11 -3 20 -9 20 -14 0 -5 11 -9
25 -9 18 0 25 -5 25 -20 0 -15 7 -20 25 -20 16 0 25 -6 25 -15 0 -8 7 -15 15
-15 8 0 15 7 15 15 0 8 -5 15 -10 15 -6 0 -8 10 -4 24 4 18 1 26 -14 30 -10 4
-27 4 -36 0 -19 -7 -19 -4 -6 30 5 14 17 26 26 26 16 0 15 19 -2 65 -5 11 0
18 14 22 12 3 23 16 27 32 l6 28 32 -31 c53 -50 94 -109 79 -114 -6 -2 -12
-12 -12 -23 0 -11 -13 -33 -30 -50 -16 -17 -32 -40 -35 -50 -4 -11 -11 -19
-16 -19 -15 0 -10 -30 6 -36 8 -4 15 -10 15 -14 0 -12 79 -90 90 -90 6 0 10
-8 10 -19 0 -23 20 -40 57 -50 23 -6 29 -14 31 -42 2 -18 9 -40 15 -47 13 -17
73 -42 99 -42 10 0 45 -13 78 -30 33 -16 64 -30 70 -30 20 0 9 30 -17 43 l-26
14 50 13 50 13 6 56 c4 31 9 77 13 104 9 65 -5 62 -94 -23 -46 -44 -82 -70
-100 -72 -19 -2 -28 -9 -30 -25 -3 -20 1 -23 35 -23 21 0 48 7 60 15 20 14 21
14 9 -11 -10 -24 -14 -25 -60 -19 -27 3 -65 14 -85 23 -29 14 -37 23 -39 50
-3 27 0 32 19 32 17 0 20 4 16 23 l-6 22 16 -22 c16 -24 43 -31 43 -12 0 6 -8
23 -19 37 -25 37 -31 90 -14 132 16 41 32 53 50 38 19 -15 17 -68 -2 -68 -17
0 -20 -27 -6 -49 6 -9 5 -21 -2 -32 -18 -29 -2 -32 58 -10 31 12 64 21 73 21
10 0 34 15 54 33 34 31 55 36 69 14 10 -14 39 -1 39 18 0 8 -4 15 -10 15 -5 0
-10 5 -10 11 0 8 5 8 15 -1 10 -8 33 -11 68 -7 28 3 44 3 35 0 -11 -3 -18 -14
-18 -29 0 -17 -6 -24 -19 -24 -11 0 -23 -5 -27 -11 -4 -6 -20 -8 -40 -4 -26 4
-34 3 -34 -9 0 -8 7 -19 16 -24 15 -8 15 -11 -3 -29 -12 -12 -23 -41 -27 -70
l-6 -50 37 -6 c21 -4 39 -2 41 3 2 5 17 7 33 3 19 -3 29 -1 29 6 0 8 10 6 30
-6 17 -9 30 -20 30 -24 0 -4 11 -10 25 -13 14 -4 25 -13 25 -21 0 -34 165 21
189 62 6 10 11 12 11 6 0 -7 7 -13 16 -13 9 0 14 7 12 18 -4 17 2 27 33 60 9
9 19 29 23 44 10 44 45 70 84 63 24 -4 32 -2 32 9 0 17 -61 33 -80 21 -7 -4
-16 -2 -20 5 -10 16 -50 3 -50 -16 0 -8 7 -14 16 -14 14 0 14 -3 4 -15 -7 -8
-18 -15 -25 -15 -7 0 -16 -15 -19 -34 -9 -49 -96 -129 -131 -120 -21 5 -25 3
-25 -15 0 -26 -2 -26 -74 12 -60 32 -82 57 -52 57 9 0 19 6 22 14 3 8 13 17
22 21 14 5 14 4 -1 -13 -9 -10 -17 -24 -17 -30 0 -18 25 -14 43 6 19 21 22 42
7 42 -5 0 -7 7 -4 15 4 8 12 15 20 15 8 0 14 -7 14 -15 0 -23 31 -18 37 6 4
14 10 18 22 13 9 -4 35 -9 59 -12 38 -4 42 -2 42 17 0 25 -28 40 -40 22 -5 -9
-10 -4 -14 14 -5 21 -12 26 -27 22 -13 -4 -25 2 -35 19 -10 14 -26 24 -39 24
-23 0 -54 33 -68 73 -4 9 -13 17 -22 17 -11 0 -14 6 -9 25 4 18 2 25 -8 25 -8
0 -18 -3 -22 -7 -18 -18 -72 -28 -98 -19 -16 6 -28 13 -28 17 0 12 44 21 93
19 49 -2 56 5 37 41 -8 15 -7 19 5 19 8 0 15 -7 15 -15 0 -16 17 -19 44 -9 20
8 21 34 2 34 -7 0 -19 7 -26 15 -7 8 -23 15 -36 15 -15 0 -24 6 -24 15 0 11
11 15 43 15 23 0 61 9 85 20 l43 19 8 -22 c7 -18 3 -24 -30 -39 -45 -20 -55
-53 -14 -46 17 4 25 1 25 -8 0 -8 4 -14 9 -14 12 0 22 -27 15 -44 -3 -8 -13
-12 -25 -9 -12 4 -19 0 -19 -10 0 -8 -11 -18 -25 -21 -23 -6 -36 -36 -16 -36
21 0 41 13 41 27 0 11 7 13 30 8 19 -4 30 -3 30 4 0 7 10 9 25 5 17 -4 25 -2
25 7 0 10 3 10 12 1 21 -21 41 -14 34 12 -5 21 -2 25 24 31 33 7 38 25 15 48
-13 13 -13 16 0 27 13 10 15 8 15 -14 0 -14 5 -26 10 -26 6 0 10 -6 10 -13 0
-7 9 -18 20 -25 11 -7 20 -19 20 -28 0 -9 7 -14 18 -12 10 2 17 13 17 27 1 28
74 78 87 58 12 -18 10 -27 -7 -27 -8 0 -15 -4 -15 -10 0 -5 -9 -10 -20 -10
-14 0 -20 -7 -20 -21 0 -18 4 -20 30 -14 23 5 30 3 30 -8 0 -9 6 -18 13 -20 9
-4 9 -8 -2 -15 -8 -6 -11 -17 -8 -26 4 -10 1 -16 -8 -16 -8 0 -15 5 -15 10 0
6 -7 10 -15 10 -16 0 -19 -9 -9 -34 7 -19 64 -22 64 -3 0 7 9 19 20 27 11 8
20 19 20 26 0 6 -9 21 -20 34 -24 27 -26 46 -5 54 9 3 15 0 15 -9 0 -18 88
-57 112 -49 10 3 18 1 18 -5 0 -23 26 -9 39 20 11 26 11 33 0 39 -11 7 -10 12
4 28 21 23 22 42 2 42 -9 0 -25 -16 -36 -35 -28 -47 -49 -58 -83 -42 -32 15
-33 25 -3 36 13 5 29 16 36 25 7 9 20 16 27 16 8 0 14 7 14 15 0 8 -5 15 -12
15 -6 0 -9 2 -7 5 8 8 79 -15 79 -25 0 -6 7 -10 15 -10 16 0 19 27 9 79 -6 28
-10 31 -45 31 -27 0 -39 -4 -39 -14 0 -7 -9 -16 -20 -19 -15 -4 -20 0 -20 14
0 11 -7 19 -16 19 -16 0 -17 -30 -3 -80 3 -12 -8 -16 -48 -18 -51 -3 -53 -2
-53 22 0 16 -6 26 -15 26 -8 0 -15 -9 -15 -19 0 -10 -7 -21 -15 -25 -18 -6
-18 -7 -4 31 8 25 17 32 45 35 28 3 34 1 34 -14 0 -10 7 -18 15 -18 9 0 15 9
15 25 0 16 -6 25 -15 25 -17 0 -19 9 -5 30 7 10 13 11 18 4 12 -17 103 -11
116 8 14 23 0 35 -24 20 -18 -11 -20 -10 -20 9 0 17 -5 20 -24 17 -35 -7 -52
37 -49 125 2 54 0 67 -12 67 -12 0 -15 15 -15 75 0 56 -3 75 -14 75 -9 0 -15
-23 -19 -82z m-128 -316 c10 -19 7 -22 -28 -33 -24 -7 -41 -19 -44 -30 -5 -19
-27 -27 -27 -10 0 6 -23 7 -54 4 -52 -5 -53 -5 -63 24 -10 26 -7 35 21 71 35
47 46 50 64 22 10 -17 10 -23 -3 -36 -8 -9 -15 -22 -15 -30 0 -19 65 -19 82 1
7 9 19 22 26 30 18 20 15 33 -9 40 -20 7 -20 7 -2 25 17 17 18 16 30 -20 6
-21 16 -47 22 -58z m-989 -255 c15 -29 35 -56 46 -61 16 -7 20 -19 21 -62 2
-62 -20 -81 -49 -42 -10 13 -22 28 -28 35 -5 7 -10 17 -10 23 0 5 -7 10 -15
10 -8 0 -15 -4 -15 -10 0 -19 -23 -10 -46 18 -28 32 -30 42 -9 42 9 0 20 10
25 23 l9 22 0 -23 c1 -29 27 -56 46 -48 8 3 15 1 15 -4 0 -6 7 -10 15 -10 8 0
15 7 15 15 0 8 -4 15 -10 15 -5 0 -13 15 -18 33 -4 17 -18 37 -29 42 -17 9
-19 15 -11 29 12 22 17 17 48 -47z"/>
<path d="M5746 4016 c-7 -27 10 -73 34 -96 27 -25 31 -48 9 -55 -10 -4 -19
-12 -19 -19 0 -8 -21 -23 -47 -34 -40 -17 -51 -18 -63 -8 -8 8 -22 16 -30 19
-10 4 -7 6 8 6 38 2 24 26 -24 40 -34 10 -53 24 -73 52 -29 43 -55 56 -76 39
-12 -10 -15 -9 -15 4 0 23 -59 18 -74 -6 -14 -23 0 -35 23 -21 16 10 18 9 13
-9 -4 -18 -2 -20 18 -15 37 10 73 -3 98 -34 l24 -29 -30 0 c-24 0 -33 6 -44
30 -12 29 -38 42 -38 19 0 -6 -13 -24 -30 -39 -16 -15 -30 -33 -30 -39 0 -18
25 -12 40 9 17 24 27 25 46 5 9 -8 33 -15 55 -15 28 0 39 4 39 15 0 17 6 18
35 5 11 -5 14 -9 8 -9 -16 -1 -17 -31 -1 -31 6 0 22 -10 35 -22 l23 -21 56 19
c35 12 59 26 62 37 6 22 22 22 22 1 0 -11 6 -15 20 -11 11 3 20 1 20 -4 0 -5
-7 -9 -15 -9 -21 0 -31 -30 -14 -41 24 -15 37 -10 46 17 8 25 10 25 25 10 21
-20 38 -21 38 -1 0 8 4 15 9 15 5 0 14 -7 21 -15 15 -19 50 -20 50 -2 0 8 -12
20 -27 28 -16 8 -33 20 -39 28 -6 8 -18 12 -26 9 -35 -14 -48 17 -49 115 -1
25 -6 37 -15 37 -8 0 -14 7 -14 15 0 8 -9 15 -20 15 -25 0 -26 -25 -2 -39 15
-9 15 -10 -4 -11 -25 0 -35 19 -27 49 4 14 1 21 -10 21 -8 0 -18 -11 -21 -24z"/>
<path d="M519 3963 c-10 -2 -20 -19 -23 -41 -21 -120 -41 -157 -64 -116 -14
25 -54 14 -65 -19 -9 -27 8 -87 25 -87 5 0 8 -6 8 -13 0 -8 9 -22 20 -32 11
-10 20 -24 20 -32 0 -9 14 -13 45 -13 38 0 45 3 45 20 0 11 5 20 11 20 7 0 9
10 7 25 -6 27 10 33 30 13 10 -10 17 -10 32 0 11 6 27 12 35 12 8 0 15 9 15
20 0 11 -6 20 -14 20 -16 0 -30 27 -27 53 3 24 -24 21 -42 -5 -13 -18 -16 -20
-16 -6 -1 9 -7 18 -13 20 -10 4 -9 14 4 44 26 62 30 93 14 109 -15 15 -19 16
-47 8z"/>
<path d="M735 3757 c-4 -24 -5 -50 -4 -58 2 -8 0 -27 -4 -42 -7 -25 -11 -28
-38 -22 -38 8 -59 -8 -59 -46 0 -31 25 -40 48 -17 18 18 23 4 11 -30 -6 -18
-17 -32 -25 -32 -8 0 -14 -4 -14 -10 0 -5 -9 -10 -20 -10 -24 0 -27 -28 -4
-37 10 -4 22 0 29 10 7 9 15 14 18 11 4 -4 33 -1 67 7 58 13 77 30 45 43 -21
8 -19 39 4 53 16 10 18 9 14 -8 -8 -28 18 -23 41 8 10 14 19 42 20 62 1 31 -2
36 -22 35 -22 -1 -22 2 -16 56 6 54 5 57 -17 63 -56 15 -67 10 -74 -36z"/>
<path d="M5329 3743 c-9 -28 -9 -38 0 -41 6 -2 11 -11 11 -19 0 -11 7 -14 24
-9 21 5 25 2 31 -30 4 -22 2 -41 -4 -47 -20 -20 -13 -40 12 -32 12 3 29 7 37
7 8 0 34 5 57 10 49 12 99 -5 120 -41 8 -13 23 -20 40 -20 56 0 88 -13 108
-44 11 -18 28 -33 38 -35 29 -6 23 64 -10 107 -15 20 -31 39 -36 42 -5 4 -14
17 -21 30 -14 30 -43 36 -49 12 -4 -17 -5 -17 -6 1 -1 14 -6 17 -23 12 -13 -3
-26 -6 -30 -6 -5 0 -8 -7 -8 -15 0 -9 9 -15 25 -15 28 0 33 -21 11 -39 -11 -9
-16 -9 -23 2 -4 7 -16 16 -25 20 -11 4 -15 13 -11 26 5 18 1 21 -26 21 -17 0
-31 -4 -31 -10 0 -5 -9 -10 -20 -10 -16 0 -19 5 -14 23 4 20 0 26 -24 36 -17
7 -32 22 -35 33 -3 11 -13 19 -24 18 -35 -4 -61 11 -56 31 10 37 -25 20 -38
-18z"/>
<path d="M220 3713 c-23 -9 -30 -25 -30 -73 0 -45 0 -45 -48 -60 -58 -18 -68
-45 -23 -61 20 -7 31 -18 31 -30 0 -17 -8 -19 -59 -19 -92 0 -91 2 -91 -106 0
-83 2 -94 18 -94 16 -1 16 -1 0 -10 -13 -8 -17 -25 -17 -75 0 -57 11 -85 21
-54 2 7 12 7 33 -1 l30 -11 -25 -19 c-21 -16 -26 -17 -28 -5 -4 19 -32 20 -32
1 0 -8 4 -16 9 -18 4 -1 11 -13 15 -25 6 -18 4 -22 -8 -17 -22 8 -22 -58 0
-91 15 -22 15 -26 0 -40 -12 -12 -16 -36 -16 -86 0 -69 0 -69 28 -69 l27 -1
-27 -20 c-27 -20 -28 -25 -28 -103 0 -70 3 -86 20 -101 26 -23 26 -35 0 -28
-13 4 -20 0 -20 -9 0 -14 59 -49 102 -62 10 -3 18 -13 18 -22 0 -9 11 -27 25
-40 14 -13 25 -27 25 -32 0 -17 -69 21 -74 41 -3 14 -11 18 -25 14 -12 -3 -24
-1 -27 4 -9 15 -44 10 -44 -6 0 -8 5 -15 10 -15 6 0 10 -6 10 -13 0 -8 11 -20
25 -27 13 -7 27 -21 30 -31 11 -33 -34 -92 -62 -82 -8 3 -13 -3 -13 -16 0 -27
32 -28 68 -2 29 20 79 36 101 32 8 -1 17 3 21 10 5 7 15 9 26 4 15 -6 16 -8 4
-12 -55 -17 -97 -47 -108 -77 -15 -41 -15 -46 2 -46 8 0 24 15 35 34 12 18 35
39 52 46 35 15 122 15 127 0 2 -6 10 -17 19 -25 8 -8 10 -15 4 -15 -25 0 -8
-29 26 -46 59 -29 110 -23 176 19 32 21 65 37 75 37 10 0 28 7 40 16 13 9 26
13 29 10 4 -3 1 -6 -5 -6 -29 0 -8 -26 30 -38 23 -7 54 -22 69 -33 30 -21 55
-25 61 -8 2 7 9 5 17 -5 9 -11 10 -16 2 -16 -24 0 -8 -29 46 -83 31 -31 63
-57 70 -57 24 0 13 29 -22 57 -23 19 -30 30 -22 35 9 6 9 12 -1 28 -10 17 -10
20 4 20 12 0 15 6 10 23 -3 12 -6 28 -6 35 0 6 -8 12 -18 12 -25 0 -42 19 -42
47 0 17 -6 23 -23 23 -20 0 -23 4 -19 30 3 22 0 30 -11 30 -9 0 -17 -10 -19
-22 -3 -19 -5 -20 -18 -7 -8 8 -23 18 -32 22 -24 9 -23 27 2 27 11 0 20 7 20
15 0 8 -6 15 -14 15 -9 0 -12 7 -9 20 4 14 0 20 -12 20 -10 0 -15 6 -13 18 2
9 10 16 17 14 7 -1 28 3 47 10 27 9 34 18 34 38 0 14 -5 31 -11 37 -12 12 -2
63 13 63 5 0 23 -8 39 -17 29 -17 38 -33 19 -33 -5 0 -10 -9 -10 -20 0 -11 7
-20 15 -20 8 0 15 -4 15 -10 0 -5 7 -10 15 -10 8 0 15 -5 15 -11 0 -6 9 -9 20
-6 13 3 24 -1 30 -13 15 -27 12 -37 -10 -43 -18 -5 -20 -11 -14 -49 3 -23 10
-59 16 -78 13 -46 68 -182 79 -196 4 -5 6 -20 2 -32 -4 -16 -1 -22 10 -22 8 0
26 -17 38 -37 13 -21 29 -44 36 -51 7 -7 13 -18 13 -23 0 -5 7 -9 15 -9 8 0
15 6 15 14 0 8 -7 21 -15 30 -8 8 -15 17 -15 21 0 4 -19 39 -42 78 -24 40 -50
95 -60 122 -9 28 -26 77 -37 109 -14 38 -17 62 -11 66 19 12 23 94 7 126 -21
40 -74 96 -121 128 -43 29 -107 35 -128 13 -7 -8 -20 -12 -30 -9 -10 2 -18 -1
-18 -7 0 -6 -7 -11 -15 -11 -11 0 -9 10 11 45 19 34 23 54 19 79 -7 37 13 66
46 66 12 0 19 7 19 20 0 12 12 26 33 36 60 31 70 49 65 118 -6 70 -41 147 -85
187 -97 88 -261 130 -420 106 -44 -6 -53 -5 -53 8 0 10 -10 15 -30 15 -16 0
-30 5 -30 10 0 6 -11 10 -25 10 -38 0 -32 33 15 73 22 19 40 41 40 50 0 9 5
19 10 22 6 3 10 1 10 -4 0 -6 7 -11 15 -11 8 0 15 4 15 9 0 4 28 11 63 13 66
6 107 23 107 47 0 9 -8 12 -27 7 -56 -13 -152 -18 -206 -12 -48 6 -54 10 -50
27 4 13 14 19 33 19 20 0 31 6 35 20 8 26 -1 40 -26 40 -28 0 -34 25 -20 93 7
32 11 61 9 62 -8 8 -54 13 -68 8z m392 -547 c71 -17 158 -64 158 -85 0 -9 13
-25 29 -36 36 -24 32 -32 -7 -14 -16 7 -34 25 -40 41 -13 35 -48 40 -38 6 3
-13 6 -42 6 -65 0 -32 4 -43 15 -43 8 0 15 6 15 14 0 31 19 24 39 -15 23 -43
20 -59 -17 -92 -19 -17 -21 -17 -30 -1 -5 10 -16 15 -25 11 -11 -4 -13 0 -9
15 4 18 2 20 -16 16 -12 -4 -22 -2 -22 3 0 5 -9 9 -20 9 -11 0 -20 5 -20 10 0
6 5 10 10 10 18 0 11 30 -7 30 -10 0 -27 7 -37 15 -11 8 -26 15 -33 15 -20 0
-15 -28 8 -40 l20 -11 -20 -18 c-12 -10 -21 -23 -21 -30 0 -15 27 -14 33 2 2
6 8 9 12 5 11 -10 -4 -28 -31 -38 -13 -5 -24 -16 -24 -25 0 -19 13 -19 48 -1
15 8 36 10 47 6 19 -7 19 -7 -3 -21 -24 -15 -30 -39 -9 -39 7 0 22 7 33 15 32
22 36 7 8 -24 -14 -14 -33 -38 -42 -53 -9 -16 -23 -28 -30 -28 -10 0 -12 -7
-8 -22 3 -13 6 -31 6 -40 0 -32 26 -19 39 20 15 39 41 85 47 79 2 -1 -10 -29
-27 -62 -22 -44 -28 -66 -23 -91 8 -41 -3 -74 -23 -74 -9 0 -22 -8 -29 -17
-11 -15 -12 -8 -7 50 6 64 5 67 -16 67 -21 0 -27 -21 -23 -87 1 -28 -2 -28
-39 -6 -55 33 -47 103 12 103 28 0 31 2 25 24 -4 18 -1 29 13 38 16 12 51 92
51 118 0 26 -27 5 -43 -34 -23 -55 -61 -75 -107 -56 -17 7 -30 17 -30 22 0 6
-11 7 -25 4 -78 -19 -72 -21 -67 20 5 38 -14 64 -45 64 -19 0 -16 -21 4 -36
16 -11 17 -16 5 -46 -8 -18 -17 -49 -21 -69 -4 -19 -11 -41 -15 -47 -12 -19
-25 -14 -19 8 4 14 0 20 -11 20 -9 0 -16 -4 -16 -10 0 -5 -7 -10 -15 -10 -25
0 -17 -28 12 -37 22 -8 24 -11 10 -16 -9 -3 -17 -2 -17 3 0 14 -27 12 -33 -2
-3 -7 -6 -4 -6 8 -1 11 -6 25 -13 32 -16 16 7 41 32 35 14 -4 20 0 20 11 0 9
5 16 10 16 6 0 10 7 10 15 0 8 7 15 15 15 9 0 14 9 14 23 0 12 2 32 6 44 6 17
1 25 -24 37 -34 18 -61 21 -61 6 0 -5 -5 -10 -11 -10 -8 0 -8 5 1 15 7 8 21
15 31 15 10 0 21 5 24 10 3 6 17 7 31 4 21 -6 24 -3 24 24 0 17 5 34 10 37 12
8 13 52 1 57 -19 7 -10 88 10 88 5 0 9 8 9 18 0 21 33 56 43 45 12 -11 8 -23
-8 -23 -8 0 -15 -7 -15 -15 0 -8 7 -15 15 -15 8 0 15 5 15 10 0 6 7 10 15 10
8 0 15 -4 15 -10 0 -5 7 -10 15 -10 8 0 15 -4 15 -10 0 -5 7 -10 15 -10 8 0
15 7 15 15 0 8 -6 15 -14 15 -8 0 -16 7 -20 15 -4 10 1 15 14 15 11 0 20 7 20
15 0 10 -10 15 -32 15 -42 0 -28 12 25 21 68 11 128 9 189 -5z"/>
<path d="M3036 3302 c-5 -32 -10 -38 -28 -38 -17 1 -24 -5 -26 -21 -4 -26 0
-27 44 -11 18 6 35 20 38 31 4 18 7 18 43 -11 57 -45 74 -67 67 -86 -9 -25
-25 -20 -73 24 -45 42 -71 51 -71 25 0 -8 5 -15 10 -15 6 0 28 -19 50 -42 38
-41 39 -44 22 -60 -10 -10 -25 -15 -37 -12 -21 5 -85 90 -85 112 0 19 -28 14
-40 -7 -5 -11 -10 -24 -10 -29 0 -12 32 -48 48 -53 8 -3 5 -8 -8 -17 -17 -10
-23 -9 -37 8 -19 22 -53 27 -53 8 0 -14 67 -75 92 -83 9 -4 22 -21 29 -39 6
-18 20 -37 29 -42 10 -5 46 -33 79 -61 59 -50 91 -65 91 -43 0 7 6 7 19 0 30
-15 71 -13 71 5 0 9 -10 15 -26 15 -32 0 -87 52 -78 74 10 25 25 19 19 -7 -5
-18 -1 -26 20 -35 30 -14 75 -6 75 13 0 8 -9 16 -19 20 -11 3 -34 19 -52 36
-33 30 -58 38 -60 17 0 -7 -5 1 -10 18 -7 23 -5 39 6 60 8 16 15 22 15 14 0
-8 28 -42 61 -75 61 -60 89 -101 89 -129 0 -8 16 -20 35 -26 24 -8 35 -18 35
-31 0 -10 4 -19 9 -19 5 0 7 -9 4 -20 -6 -24 22 -28 31 -5 7 20 33 8 42 -18 4
-12 6 -37 5 -54 -3 -38 23 -47 34 -13 3 11 13 20 21 20 8 0 14 9 14 20 0 11
-6 20 -13 20 -19 0 -57 46 -57 69 0 11 -6 22 -12 24 -8 3 -6 6 5 6 9 1 17 7
17 14 0 18 -109 161 -126 165 -19 5 -19 -32 1 -48 23 -19 28 -48 11 -65 -13
-13 -15 -13 -22 7 -4 13 -7 29 -6 35 4 19 -35 56 -51 50 -8 -3 -36 16 -66 45
-45 43 -51 54 -46 78 l6 27 61 -63 c59 -62 88 -78 88 -51 0 7 -27 39 -60 72
-33 33 -60 67 -60 77 0 10 -6 18 -12 18 -7 0 -46 32 -87 70 -41 39 -80 70 -87
70 -6 0 -14 -17 -18 -38z"/>
<path d="M1888 2943 c-20 -3 -28 -10 -29 -26 -1 -17 -2 -18 -6 -4 -6 24 -20
21 -78 -12 -55 -31 -100 -88 -115 -143 -15 -51 -36 -76 -51 -60 -7 6 -23 12
-36 12 -18 0 -23 -6 -23 -25 0 -31 26 -45 85 -45 45 0 47 1 41 25 -14 57 40
155 113 204 28 19 32 20 20 5 -31 -35 -70 -128 -83 -194 -12 -64 -21 -76 -71
-93 -6 -2 -4 -14 4 -30 13 -24 12 -29 -5 -48 -24 -26 -67 -49 -93 -49 -26 0
-91 57 -91 80 0 10 7 23 15 30 23 19 19 60 -5 60 -10 0 -24 -8 -30 -17 -9 -15
-10 -12 -6 13 11 65 -22 124 -68 124 -23 0 -20 -22 9 -64 16 -23 25 -51 25
-75 0 -46 23 -107 53 -139 33 -36 71 -52 124 -52 34 0 44 -3 33 -10 -74 -47
-104 -100 -56 -100 22 0 85 42 94 63 2 4 10 7 17 7 7 0 16 15 19 34 4 19 14
49 23 67 l16 33 16 -25 c35 -54 77 -90 116 -100 61 -16 115 -20 115 -9 0 6 13
10 30 10 32 0 67 13 122 47 21 13 44 20 53 16 34 -13 90 17 118 63 24 40 30
44 67 44 38 0 40 -1 40 -32 0 -46 9 -54 58 -55 34 0 42 3 42 18 0 10 -5 21
-11 24 -7 5 -8 37 -3 96 6 77 4 89 -9 89 -9 0 -23 7 -31 16 -9 8 -24 14 -34
12 -17 -4 -18 -9 -6 -82 7 -41 -4 -56 -41 -55 -15 0 -16 2 -5 6 20 8 39 34 40
54 0 16 -19 29 -40 29 -17 0 -62 -55 -84 -102 -13 -26 -29 -54 -36 -63 -16
-20 -50 -19 -50 1 0 12 -7 14 -32 9 -17 -4 -38 -14 -46 -21 -8 -8 -27 -21 -43
-29 -16 -9 -29 -19 -29 -24 0 -13 -74 -29 -104 -24 -39 8 -31 18 14 19 22 1
47 8 56 15 38 31 58 131 32 157 -9 9 -9 15 0 24 17 17 15 38 -3 38 -18 0 -18
2 -3 34 9 21 8 29 -5 44 -9 10 -14 27 -11 39 4 15 0 23 -15 28 -29 9 -41 -1
-41 -36 0 -19 -5 -29 -15 -29 -23 0 -18 47 7 64 48 34 80 15 133 -77 15 -26
35 -52 45 -57 27 -15 50 -12 50 5 0 8 7 15 15 15 9 0 15 9 15 25 0 17 -5 25
-18 25 -14 0 -17 7 -15 38 3 32 -1 40 -29 59 -102 68 -124 78 -170 78 -27 0
-48 3 -48 8 0 7 -4 7 -52 0z m148 -68 c16 -13 16 -14 1 -9 -27 10 -86 -5 -108
-27 -23 -23 -27 -94 -5 -102 9 -4 12 -14 9 -26 -3 -12 0 -28 7 -36 9 -10 9
-15 1 -15 -6 0 -11 -13 -11 -30 0 -16 4 -30 10 -30 5 0 7 -7 4 -14 -6 -16 24
-65 40 -66 5 0 15 8 22 18 13 16 13 16 14 -2 0 -27 -29 -56 -57 -56 -20 0 -22
4 -17 24 7 28 -8 40 -36 31 -23 -7 -28 -53 -8 -73 8 -8 9 -12 1 -12 -6 0 -18
7 -25 15 -41 46 -41 43 -35 179 7 180 24 215 112 237 47 11 60 10 81 -6z"/>
<path d="M3510 2824 c0 -18 49 -74 65 -74 20 -1 67 -51 61 -65 -3 -8 -10 -15
-16 -15 -5 0 -10 -11 -10 -25 0 -16 6 -25 15 -25 8 0 15 4 15 10 0 7 46 60 53
60 1 0 2 -11 2 -25 0 -14 -5 -25 -11 -25 -6 0 -19 -15 -29 -34 -10 -19 -29
-39 -42 -45 -31 -14 -40 -14 -25 1 25 25 13 45 -33 58 -25 7 -48 17 -51 21 -3
5 -13 9 -23 9 -10 0 -24 7 -31 15 -7 8 -19 15 -26 15 -21 0 -17 -28 6 -42 11
-7 20 -19 20 -27 0 -8 7 -11 20 -8 31 8 68 -27 63 -58 -4 -20 -1 -25 14 -25
29 0 44 -19 32 -42 -17 -32 -3 -51 30 -45 27 6 38 -2 113 -79 46 -46 85 -90
87 -97 2 -6 12 -19 23 -28 10 -9 18 -21 18 -28 0 -6 9 -11 20 -11 10 0 24 -9
30 -20 13 -24 61 -50 93 -50 14 0 31 -7 38 -16 7 -9 24 -20 37 -25 l23 -9 -21
-30 c-27 -38 -35 -91 -22 -147 6 -25 6 -43 1 -43 -16 0 -10 -29 9 -39 9 -6 12
-11 5 -11 -24 0 -43 13 -43 31 0 10 -7 19 -15 19 -8 0 -15 -4 -15 -8 0 -5 -10
-13 -22 -19 -21 -9 -47 -79 -48 -130 0 -29 29 -37 79 -22 36 11 134 3 104 -8
-18 -7 -16 -33 2 -33 8 0 15 5 15 10 0 17 22 11 41 -11 15 -18 23 -20 46 -11
21 7 32 6 41 -4 14 -16 16 -44 2 -44 -5 0 -10 5 -10 10 0 17 -27 11 -34 -7 -6
-14 -12 -12 -39 15 -35 34 -57 41 -57 18 0 -18 71 -82 101 -91 17 -6 27 -2 40
14 9 11 22 21 27 21 6 0 15 14 21 30 9 27 13 30 38 24 15 -4 36 -11 45 -15 23
-12 66 -11 70 2 4 13 52 -4 74 -26 20 -20 44 -19 44 1 0 17 -36 54 -53 54 -13
0 -47 40 -47 56 0 8 -10 13 -22 13 -44 -2 -103 10 -135 26 -33 16 -37 24 -34
58 2 10 -5 17 -16 17 -16 0 -15 2 4 21 19 19 25 20 77 9 42 -9 56 -16 56 -29
0 -22 44 -43 74 -35 18 4 29 -2 51 -30 15 -19 40 -40 56 -47 16 -6 29 -15 29
-20 0 -5 15 -9 33 -10 17 0 26 -3 20 -6 -22 -8 -15 -36 7 -30 11 3 20 1 20 -4
0 -5 7 -9 16 -9 22 0 14 40 -11 54 -34 19 -53 46 -48 66 4 13 0 20 -10 20 -8
0 -18 12 -21 26 -5 20 -12 25 -26 21 -26 -7 -56 34 -65 88 -10 53 -21 65 -61
65 -25 0 -42 8 -65 33 -76 79 -82 116 -18 102 85 -19 162 -76 153 -113 -5 -16
-2 -22 9 -22 10 0 13 -6 10 -20 -4 -15 0 -20 16 -20 11 0 21 -5 21 -11 0 -6 9
-9 20 -6 21 5 28 -7 10 -18 -18 -11 -11 -43 16 -74 43 -51 75 -36 34 16 -11
14 -20 34 -20 43 0 13 6 17 20 13 14 -4 20 0 20 11 0 9 -6 16 -12 16 -23 0
-44 19 -31 28 6 4 14 19 18 34 6 23 3 29 -19 39 -17 8 -26 20 -26 36 0 29 -21
30 -38 2 l-14 -21 -15 21 c-14 20 -13 24 6 40 27 23 28 45 2 38 -14 -3 -18 -1
-14 10 3 8 0 19 -7 23 -7 4 -16 25 -19 46 -5 33 -11 39 -41 47 -53 13 -65 29
-51 68 14 42 14 49 -4 49 -8 0 -15 -4 -15 -10 0 -5 -7 -10 -15 -10 -8 0 -15 5
-15 10 0 6 -7 10 -15 10 -8 0 -15 -4 -15 -10 0 -17 -18 -11 -40 12 -18 20 -18
23 -4 39 9 10 23 15 35 12 10 -3 19 0 19 6 0 8 6 8 18 2 9 -5 25 -12 35 -15
10 -3 24 -19 29 -34 7 -17 23 -33 40 -40 20 -7 28 -17 28 -35 0 -14 12 -36 28
-51 59 -57 94 -86 103 -86 12 0 42 -70 40 -97 0 -12 7 -28 17 -35 10 -7 25
-28 33 -45 7 -18 19 -33 26 -33 30 0 63 -25 73 -55 6 -18 22 -42 35 -55 24
-23 65 -92 65 -110 0 -17 -28 1 -33 21 -8 32 -37 23 -37 -11 0 -16 5 -30 12
-30 12 0 88 -80 88 -92 0 -5 7 -8 15 -8 8 0 15 -7 15 -15 0 -16 30 -35 54 -35
27 0 18 24 -14 38 -16 8 -30 19 -30 26 0 6 -14 28 -31 49 -17 21 -29 41 -25
44 3 4 6 1 6 -5 0 -7 6 -12 14 -12 7 0 19 -13 26 -30 22 -52 80 -48 80 6 0 28
-30 34 -30 7 -1 -15 -3 -15 -19 5 -11 12 -24 22 -30 22 -6 0 -11 11 -11 24 0
13 -6 26 -14 29 -15 6 -66 109 -66 133 0 17 -30 19 -31 2 0 -7 -5 0 -10 16
-10 36 -2 48 15 23 7 -9 18 -17 25 -17 20 0 12 29 -18 59 -19 20 -28 37 -24
50 3 11 -3 27 -15 39 -11 11 -22 28 -24 39 -2 12 -14 19 -33 21 -32 4 -105 66
-105 89 0 8 -7 25 -16 39 -9 13 -17 43 -17 65 0 31 -3 39 -16 37 -11 -2 -17
-16 -19 -41 -2 -20 -7 -37 -12 -37 -5 0 -11 -8 -13 -17 -3 -11 -5 -6 -6 11 0
16 -9 36 -19 45 -10 9 -21 24 -25 34 -4 10 -17 17 -30 17 -18 0 -28 8 -37 30
-7 16 -20 32 -30 35 -12 4 -16 13 -12 30 3 20 0 25 -17 25 -12 0 -25 8 -28 18
-12 30 -30 42 -65 42 -46 0 -62 12 -53 40 4 14 2 25 -5 30 -10 6 -8 15 9 38
17 25 20 39 15 71 -5 33 -4 41 8 41 9 0 21 -7 28 -15 15 -18 40 -20 40 -2 -1
30 -28 47 -73 47 -54 0 -63 -10 -47 -51 11 -26 9 -36 -19 -93 -17 -35 -31 -68
-31 -74 0 -6 -6 -12 -12 -14 -10 -4 -10 -10 0 -32 17 -38 15 -76 -3 -76 -8 0
-15 5 -15 10 0 16 -27 12 -34 -5 -3 -8 -2 -34 3 -58 4 -24 5 -52 1 -63 -4 -10
-10 -63 -14 -116 -6 -97 -6 -98 16 -98 17 0 19 -3 10 -12 -7 -7 -12 -21 -12
-32 0 -16 -4 -14 -16 12 -9 17 -20 32 -24 32 -5 0 -6 9 -3 20 3 11 0 20 -6 20
-6 0 -11 7 -11 15 0 10 -10 15 -26 15 -21 0 -25 -4 -21 -20 6 -24 -17 -27 -58
-8 -26 12 -101 106 -91 115 3 3 37 -13 77 -36 82 -47 116 -50 111 -11 -6 54
-3 68 23 108 25 38 27 47 21 109 -3 37 -9 88 -12 112 -6 39 -4 43 12 38 65
-20 76 -20 72 -1 -4 22 -80 42 -87 23 -2 -7 -14 16 -27 52 -13 36 -19 65 -14
67 21 7 9 32 -15 32 -30 0 -33 -22 -9 -78 9 -23 13 -50 9 -69 -4 -25 -2 -33 8
-33 10 0 17 -22 24 -72 11 -73 2 -109 -17 -78 -6 9 -26 15 -55 16 -37 1 -45
-2 -43 -15 2 -10 15 -17 36 -19 29 -3 32 -6 32 -36 0 -18 -6 -40 -13 -50 -13
-17 -14 -17 -30 -1 -9 9 -17 23 -17 31 0 8 -7 14 -15 14 -8 0 -15 -8 -15 -18
0 -22 48 -82 65 -82 11 0 25 -21 25 -36 0 -2 -38 16 -85 41 -46 25 -90 45 -98
45 -7 0 -20 11 -27 25 -7 14 -20 25 -27 25 -19 0 -7 39 20 62 19 17 18 48 -3
48 -5 0 -10 7 -10 15 0 8 -7 15 -15 15 -8 0 -15 -4 -15 -10 0 -5 -7 -10 -15
-10 -8 0 -15 -7 -15 -15 0 -8 7 -15 15 -15 8 0 15 5 15 10 0 6 5 10 11 10 13
0 2 -53 -12 -58 -5 -2 -9 -10 -9 -18 0 -24 -23 -15 -69 26 -42 40 -43 41 -26
66 20 31 42 41 58 25 14 -14 47 -15 47 -1 0 6 -11 21 -23 33 -30 28 -43 72
-19 62 40 -17 52 -17 52 -2 0 9 -4 19 -10 22 -5 3 -7 19 -4 34 5 23 2 30 -14
35 -14 5 -18 13 -15 26 8 29 -23 25 -43 -5 -20 -30 -30 -32 -37 -5 -3 11 -26
32 -51 47 -25 16 -48 36 -51 46 -8 21 -35 23 -35 1z m820 -557 c30 -23 68 -49
85 -57 40 -20 75 -59 75 -83 0 -11 8 -29 18 -40 17 -19 16 -20 -6 -8 -13 7
-26 19 -29 27 -4 10 -16 14 -37 12 -26 -2 -32 1 -34 20 -2 14 -25 39 -60 64
-31 23 -72 55 -90 70 -20 17 -44 28 -62 28 -17 0 -30 5 -30 10 0 6 7 10 15 10
8 0 15 6 16 13 0 10 2 10 6 0 9 -23 36 -15 30 8 -5 18 -3 18 21 -5 15 -15 52
-45 82 -69z m-90 -240 c0 -23 64 -76 100 -83 19 -4 47 -21 64 -38 l29 -30 -29
-8 c-21 -6 -32 -4 -40 7 -6 8 -14 15 -18 15 -3 0 -24 12 -46 26 -39 26 -86 30
-130 11 -8 -4 -20 -3 -27 1 -18 11 26 99 52 105 37 8 45 7 45 -6z"/>
<path d="M2615 2670 c-4 -11 -6 -53 -5 -93 2 -39 -1 -82 -5 -93 -6 -19 -2 -22
39 -28 25 -4 50 -4 56 -1 15 9 12 35 -5 41 -8 4 -15 15 -15 25 0 16 7 19 43
19 33 0 51 -7 77 -30 19 -16 40 -29 47 -30 6 0 13 -5 15 -11 2 -5 21 -13 43
-15 49 -7 72 9 81 54 6 28 4 32 -14 32 -12 0 -23 -9 -27 -20 -3 -11 -12 -20
-19 -20 -26 0 -75 22 -80 36 -3 8 -11 14 -19 14 -29 0 -37 22 -20 51 16 27 16
30 -3 56 -17 22 -30 29 -68 31 -36 2 -46 0 -46 -13 0 -8 11 -20 24 -24 23 -9
42 -50 28 -63 -4 -3 -19 -10 -34 -13 -28 -7 -28 -7 -28 42 0 27 -5 54 -12 61
-18 18 -46 14 -53 -8z"/>
<path d="M4604 2613 c-10 -27 -22 -53 -27 -60 -5 -7 -6 -21 -2 -33 5 -14 2
-20 -9 -20 -9 0 -16 -7 -16 -15 0 -13 -4 -13 -32 -2 -46 19 -46 34 2 30 27 -2
40 1 40 10 0 24 -15 34 -50 34 -49 1 -94 13 -103 29 -9 16 -47 19 -47 4 0 -21
30 -69 57 -90 15 -11 35 -34 45 -50 18 -31 43 -39 51 -17 2 6 8 0 12 -15 5
-21 13 -28 31 -28 17 0 24 -6 24 -20 0 -11 7 -20 15 -20 8 0 15 5 15 10 0 6 7
10 15 10 8 0 15 7 15 15 0 8 -6 15 -14 15 -33 0 -23 21 24 52 50 33 67 62 32
56 -28 -5 -54 20 -43 41 5 9 9 38 9 64 -1 62 -21 62 -44 0z"/>
<path d="M2264 2423 c-30 -6 -74 -58 -74 -86 0 -29 20 -88 34 -102 25 -24 89
-55 113 -55 30 0 113 -81 113 -110 0 -10 -14 -33 -31 -51 -27 -29 -38 -34 -78
-34 -61 0 -107 32 -121 86 -6 21 -16 39 -21 39 -11 0 -77 48 -108 79 -8 7 -27
18 -43 23 -15 6 -28 16 -28 23 0 9 -22 13 -78 14 -72 1 -80 -1 -102 -24 -29
-31 -32 -85 -5 -115 35 -38 61 -17 30 24 -8 11 -15 25 -15 31 0 22 37 55 61
55 21 0 21 -1 6 -13 -10 -6 -20 -28 -23 -47 -5 -31 -2 -37 19 -49 30 -16 67 0
67 29 0 23 -20 26 -39 8 -11 -11 -12 -8 -6 12 14 46 35 49 103 20 44 -19 96
-70 72 -70 -5 0 -10 -9 -10 -20 0 -11 5 -20 10 -20 6 0 21 -24 34 -54 13 -30
32 -59 43 -64 39 -20 115 -22 187 -5 81 19 114 40 152 95 25 35 26 42 15 78
-18 60 -133 140 -202 140 -21 0 -43 10 -66 30 -18 17 -28 30 -21 30 7 0 20 13
29 29 9 15 26 30 37 33 28 8 82 -27 82 -52 0 -11 6 -20 14 -20 8 0 16 -7 20
-15 10 -28 41 -17 55 20 14 39 9 55 -19 55 -10 0 -25 8 -32 18 -7 11 -23 24
-35 30 -21 11 -94 14 -139 5z"/>
<path d="M2740 2294 c-8 -2 -49 -5 -90 -6 l-75 -3 1 -47 c1 -27 2 -73 3 -103
l1 -55 91 1 c106 1 119 4 119 30 0 17 -6 18 -75 12 -72 -6 -75 -5 -75 16 0 17
6 21 30 21 19 0 30 5 30 14 0 8 -13 17 -30 21 -21 5 -30 13 -30 26 0 17 8 19
76 19 l75 0 -3 27 c-3 27 -17 35 -48 27z"/>
<path d="M2983 2283 c-7 -2 -13 -11 -13 -19 0 -8 -8 -14 -17 -14 -40 -1 -85
-59 -123 -160 -8 -19 -20 -39 -27 -43 -20 -12 -16 -37 6 -37 24 0 39 19 73 89
15 31 27 50 28 44 0 -8 14 -13 33 -13 l32 -1 -22 -18 c-46 -39 -28 -47 75 -35
42 6 52 10 52 25 0 11 -7 19 -15 19 -12 0 -15 15 -15 75 0 60 -3 75 -15 75 -8
0 -15 5 -15 10 0 10 -16 12 -37 3z"/>
<path d="M3135 2283 c-29 -8 -45 -23 -45 -45 0 -17 5 -18 51 -12 l52 7 -7 -76
c-7 -69 -6 -76 12 -81 42 -14 52 1 52 79 l0 72 43 6 c24 3 53 4 65 0 17 -4 22
-1 22 16 0 13 -8 22 -22 25 -38 8 -202 15 -223 9z"/>
<path d="M1683 2133 c-26 -5 -30 -25 -8 -43 10 -8 15 -31 15 -66 0 -40 4 -54
14 -54 8 0 17 10 19 23 3 12 4 -12 4 -54 -2 -67 -4 -75 -19 -71 -16 4 -18 -3
-18 -56 0 -49 3 -61 18 -65 12 -3 13 -5 2 -6 -11 -1 -20 -25 -32 -83 -10 -45
-15 -84 -13 -87 3 -2 33 -5 67 -5 l63 -1 1 45 c2 115 -3 106 66 114 34 3 64 2
67 -2 3 -5 13 -12 21 -15 12 -4 11 -6 -2 -6 -14 -1 -18 -10 -18 -46 0 -38 4
-47 23 -55 18 -7 15 -9 -20 -9 -31 -1 -43 -5 -43 -16 0 -8 8 -15 19 -15 24 0
37 -17 46 -60 10 -50 52 -108 100 -136 23 -13 47 -24 53 -24 25 0 10 26 -26
47 l-37 21 43 -5 c34 -5 42 -3 42 10 0 9 -8 17 -17 20 -10 2 2 2 25 -1 24 -2
62 1 84 9 32 10 41 10 47 0 5 -7 14 -12 22 -11 8 1 32 2 54 1 38 -2 39 -2 20
-17 -19 -14 -32 -14 -82 1 -17 6 -23 3 -23 -8 0 -10 16 -21 42 -29 38 -11 45
-10 90 15 54 30 135 36 194 15 25 -9 39 -9 56 0 13 6 32 12 43 14 11 2 21 11
23 21 3 16 -1 17 -35 11 -21 -3 -45 -12 -53 -18 -10 -7 -9 -3 3 10 35 42 16
58 -31 25 -19 -14 -48 -20 -103 -23 l-75 -3 23 25 c27 29 32 90 8 90 -9 0 -15
-9 -15 -22 0 -13 -7 -31 -15 -41 -15 -20 -79 -39 -101 -30 -16 6 -19 33 -4 33
6 0 10 7 10 15 0 21 -39 19 -59 -3 -9 -11 -26 -24 -38 -30 l-21 -12 21 38 c21
40 18 72 -7 72 -8 0 -20 -17 -26 -37 -13 -40 -30 -66 -30 -45 0 17 -29 15 -36
-2 -9 -24 -59 -30 -88 -11 -36 24 -32 35 9 28 59 -9 93 39 36 50 -22 5 -31 13
-36 37 -4 16 -10 30 -13 30 -10 0 -11 31 -13 228 -1 94 -4 172 -7 172 -3 0
-19 -4 -36 -10 -17 -5 -43 -12 -58 -15 -32 -6 -37 -29 -11 -44 14 -8 18 -25
19 -88 1 -49 -2 -81 -10 -85 -13 -9 -63 -10 -93 -2 -23 6 -23 9 -23 175 l0
169 -27 0 c-16 0 -37 2 -48 4 -11 2 -30 2 -42 -1z"/>
<path d="M2130 1880 c-14 -4 -40 -8 -57 -9 l-33 -1 0 -84 c0 -50 4 -88 11 -91
6 -4 44 -9 85 -12 l74 -5 0 30 0 31 -56 -2 c-60 -2 -85 15 -39 27 29 7 34 36
6 36 -20 0 -37 17 -27 27 3 3 25 8 51 10 46 6 50 9 39 37 -7 17 -16 18 -54 6z"/>
<path d="M2340 1860 c0 -5 -8 -10 -19 -10 -24 0 -68 -67 -87 -132 -11 -35 -22
-51 -40 -58 -23 -9 -34 -40 -14 -40 6 0 10 -7 10 -15 0 -8 7 -15 15 -15 18 0
20 30 3 31 -7 0 -3 4 9 9 13 5 35 35 53 70 22 43 36 60 50 60 26 0 26 -16 0
-32 -35 -22 -23 -36 30 -35 l49 1 -5 75 c-3 42 -7 82 -10 89 -4 14 -44 17 -44
2z"/>
<path d="M2439 1868 c0 -2 -1 -40 -2 -84 l-2 -82 50 0 c63 0 92 18 101 64 9
50 -7 78 -54 92 -35 11 -91 16 -93 10z"/>
<path d="M3100 1857 c-19 -9 -26 -22 -28 -50 -2 -22 -10 -41 -18 -44 -8 -3
-14 -13 -14 -22 0 -13 -12 -16 -65 -18 -38 -2 -65 1 -65 7 0 6 16 10 36 10 28
0 35 3 32 18 -2 9 -14 19 -28 21 -14 1 -28 8 -32 15 -5 7 10 13 50 16 50 4 57
8 60 28 3 21 1 22 -86 22 -63 0 -91 -4 -94 -12 -3 -7 -3 -48 0 -90 l4 -78 67
0 c36 0 76 -3 89 -6 18 -5 24 -2 29 16 l6 23 21 -25 c13 -15 36 -28 59 -32 33
-6 41 -3 67 23 52 52 34 104 -38 114 -49 6 -57 11 -47 26 9 16 45 13 51 -4 6
-16 39 -21 48 -7 2 4 25 6 51 4 44 -4 46 -5 41 -31 -3 -14 -8 -45 -11 -68 l-7
-43 42 0 42 0 -6 35 c-4 19 -4 51 0 70 6 33 9 35 45 35 35 0 39 3 39 25 l0 25
-108 0 c-66 0 -112 -4 -119 -11 -8 -8 -17 -7 -34 5 -28 19 -46 20 -79 3z"/>
<path d="M0 1745 c0 -14 22 -60 49 -103 26 -42 51 -87 55 -100 4 -12 11 -22
15 -22 5 0 14 -13 21 -30 7 -16 16 -30 21 -30 5 0 9 -6 9 -14 0 -12 25 -62 85
-171 12 -22 33 -60 46 -85 13 -25 27 -47 30 -50 3 -3 14 -29 24 -57 11 -29 25
-53 32 -53 7 0 13 4 13 10 0 14 -32 94 -40 100 -4 3 -13 22 -19 42 -7 20 -22
52 -34 70 -13 18 -34 56 -49 83 -54 104 -63 120 -70 123 -5 2 -8 9 -8 16 0 18
-40 91 -94 173 -24 37 -50 80 -57 96 -15 34 -29 35 -29 2z"/>
<path d="M493 1031 c4 -18 -1 -19 -97 -19 -60 1 -115 6 -135 14 -51 21 -78 18
-85 -10 -3 -14 -3 -31 0 -40 8 -20 55 -29 89 -16 16 6 47 8 72 4 33 -5 43 -3
43 7 0 12 2 12 9 0 7 -11 15 -11 45 -1 53 17 62 3 61 -95 0 -44 3 -90 7 -102
4 -13 3 -25 -3 -29 -7 -4 -9 -46 -6 -118 6 -117 -5 -197 -29 -217 -21 -17 -18
-66 5 -74 10 -3 25 -3 33 0 12 5 14 -1 8 -37 -7 -48 -26 -88 -40 -88 -6 0 -10
-7 -10 -15 0 -16 18 -20 36 -7 17 11 44 68 44 92 0 11 5 20 10 20 6 0 10 9 10
20 0 24 13 26 35 3 20 -19 51 -7 49 21 0 9 -1 34 -2 56 -2 29 -6 40 -17 40
-36 0 -40 19 -39 174 1 83 5 197 9 253 7 102 8 102 36 108 53 12 191 8 200 -6
12 -20 84 11 84 36 0 19 -7 20 -165 17 -91 -2 -173 -5 -182 -8 -10 -3 -18 -1
-18 5 0 6 -7 11 -15 11 -8 0 -15 5 -15 10 0 6 -7 10 -16 10 -11 0 -15 -6 -11
-19z"/>
<path d="M3820 1003 c-32 -6 -62 -35 -100 -93 -32 -50 -38 -90 -17 -112 6 -7
18 -25 26 -40 8 -16 20 -28 28 -28 7 0 13 -4 13 -9 0 -5 26 -19 58 -31 31 -11
66 -25 77 -30 11 -5 30 -12 43 -15 12 -4 22 -11 22 -16 0 -5 5 -9 10 -9 14 0
80 -43 80 -53 0 -4 11 -20 25 -35 37 -40 32 -72 -17 -126 -32 -33 -56 -49 -93
-59 -84 -23 -185 7 -219 63 -14 25 -14 29 -1 40 8 7 15 23 15 37 0 19 -9 28
-42 43 -24 11 -51 20 -62 20 -17 0 -18 -5 -12 -47 6 -50 35 -123 49 -123 4 0
16 -8 26 -17 41 -37 51 -43 93 -52 47 -11 154 -6 193 9 40 15 107 82 126 126
23 50 30 165 12 171 -7 3 -13 11 -13 19 0 8 -7 14 -15 14 -8 0 -15 4 -15 10 0
24 -85 80 -122 80 -10 0 -18 5 -18 10 0 6 -11 10 -25 10 -14 0 -25 5 -25 10 0
6 -6 10 -13 10 -8 0 -41 13 -75 30 -46 22 -63 36 -68 56 -10 38 9 69 58 92 57
26 113 20 136 -17 9 -14 21 -29 27 -33 6 -5 4 -18 -8 -37 -9 -16 -17 -36 -17
-45 0 -20 26 -21 34 -1 3 8 12 15 21 15 8 0 24 9 35 20 72 72 -84 170 -230
143z"/>
<path d="M1680 723 c0 -35 10 -50 35 -54 17 -4 20 -13 23 -77 2 -43 7 -72 14
-72 7 0 7 -5 -1 -14 -7 -8 -13 -36 -16 -63 -2 -26 -4 -51 -4 -55 -1 -5 -8 -8
-16 -8 -8 0 -15 -6 -15 -14 0 -16 97 -28 153 -19 27 4 37 11 37 24 0 11 -6 19
-14 19 -7 0 -17 10 -20 23 -10 32 -12 107 -3 107 4 0 7 7 7 15 0 8 -7 15 -15
15 -13 0 -13 3 -4 13 11 11 16 10 30 -4 9 -9 20 -26 24 -38 3 -12 11 -21 16
-21 5 0 9 -6 9 -13 0 -19 35 -57 52 -57 8 0 17 -3 21 -6 10 -10 -4 -34 -20
-34 -8 0 -13 -7 -11 -17 3 -16 16 -18 108 -18 92 0 105 2 108 18 2 11 -3 17
-14 17 -15 0 -16 12 -11 136 4 74 9 139 12 144 3 4 14 6 26 3 17 -5 20 -2 17
18 -3 23 -6 24 -101 25 -79 1 -100 -2 -105 -14 -3 -8 2 -20 11 -27 10 -7 17
-19 17 -28 0 -8 6 -18 13 -20 10 -4 10 -6 0 -6 -15 -1 -18 -27 -4 -33 10 -4
21 -98 11 -98 -4 0 -11 -12 -15 -27 l-6 -27 -33 36 c-18 19 -38 49 -45 67 -8
17 -17 31 -22 31 -5 0 -9 7 -9 15 0 8 -4 15 -9 15 -11 0 -35 58 -36 85 0 15
-8 21 -32 23 -18 2 -33 7 -33 12 0 6 -20 7 -45 3 -36 -4 -46 -2 -51 11 -10 27
-34 19 -34 -11z"/>
<path d="M758 733 c-22 -6 -24 -49 -3 -57 12 -4 15 -26 15 -106 0 -60 -4 -100
-10 -100 -5 0 -10 -7 -10 -15 0 -8 5 -15 10 -15 16 0 12 -57 -5 -74 -8 -8 -15
-19 -15 -25 0 -6 7 -11 15 -11 8 0 15 6 15 13 0 9 2 9 8 0 4 -7 16 -12 27 -11
24 1 71 -8 85 -17 5 -3 10 -12 10 -20 0 -25 23 -65 37 -65 24 0 6 53 -26 77
-29 21 -3 26 132 27 l132 1 3 28 c4 34 -19 45 -53 23 -18 -12 -49 -16 -122
-16 -126 0 -144 10 -138 78 2 26 4 55 4 65 1 12 9 17 31 17 20 0 30 5 30 15 0
9 -12 18 -30 22 -29 5 -30 7 -30 64 0 56 1 59 25 59 14 0 25 6 25 14 0 9 -18
15 -52 19 -29 4 -62 8 -73 11 -11 2 -28 2 -37 -1z"/>
<path d="M2370 730 c0 -5 -7 -10 -16 -10 -9 0 -28 -12 -41 -27 -20 -21 -24
-34 -20 -64 5 -35 36 -79 57 -79 6 0 10 -4 10 -9 0 -5 20 -14 43 -20 26 -6 52
-21 63 -36 10 -14 24 -25 30 -25 16 0 38 -46 31 -64 -4 -9 -21 -25 -39 -36
-35 -22 -77 -22 -132 -1 -23 9 -27 15 -22 36 11 42 -55 89 -70 50 -17 -44 33
-109 97 -126 88 -24 170 6 203 73 26 51 18 85 -33 132 -41 37 -55 48 -88 65
-21 11 -51 31 -67 45 -27 24 -28 28 -16 51 7 14 19 25 27 25 7 0 13 7 13 15 0
8 -7 15 -15 15 -8 0 -15 -4 -15 -10z"/>
<path d="M1214 715 c-4 -9 0 -21 9 -28 17 -12 23 -55 32 -209 3 -48 1 -78 -5
-78 -6 0 -10 -11 -10 -24 0 -31 16 -36 100 -31 36 2 120 3 188 4 l122 1 0 35
c0 28 -4 35 -20 35 -15 0 -20 7 -20 25 0 16 -6 25 -15 25 -11 0 -15 -11 -15
-40 0 -36 -2 -39 -32 -45 -38 -6 -126 -1 -148 8 -8 4 -24 5 -34 4 -23 -2 -38
38 -24 67 6 10 7 27 5 38 -4 14 0 22 14 25 27 7 24 31 -7 45 -24 11 -26 16
-20 57 3 25 12 48 19 53 9 5 9 12 1 25 -16 25 -131 32 -140 8z"/>
<path d="M4181 674 c-6 -14 -11 -29 -11 -34 0 -15 26 -12 40 5 9 11 33 15 90
15 l78 0 5 -32 c3 -18 1 -37 -4 -42 -11 -12 -12 -46 -1 -46 4 0 7 -36 7 -79 0
-61 -4 -83 -17 -98 -31 -34 -22 -41 45 -40 55 2 62 4 65 23 2 15 -3 23 -17 27
-20 5 -26 25 -23 67 1 8 3 49 6 90 2 41 8 88 12 103 6 27 9 28 43 22 20 -4 40
-13 44 -21 12 -21 47 -18 47 5 0 11 5 23 10 26 6 3 10 13 10 20 0 12 -36 14
-209 14 l-208 0 -12 -25z"/>
<path d="M5066 685 c-10 -27 -7 -58 8 -87 13 -25 13 -29 -2 -37 -14 -8 -15
-13 -5 -29 15 -25 7 -129 -12 -159 -8 -12 -15 -27 -15 -33 0 -16 47 -34 62
-24 7 5 68 9 135 9 l123 0 0 28 c0 20 -5 27 -19 27 -11 0 -21 -4 -23 -9 -5
-14 -135 -18 -149 -4 -8 8 -11 59 -10 167 1 156 1 156 -21 156 -13 0 -33 3
-44 6 -14 4 -23 0 -28 -11z"/>
<path d="M5430 685 c-8 -10 -8 -25 -1 -52 15 -57 12 -181 -7 -240 -9 -29 -12
-56 -8 -60 10 -10 382 -10 419 0 15 4 27 14 27 23 0 12 -6 15 -22 9 -32 -10
-262 -19 -293 -11 -16 4 -25 13 -25 25 0 11 -5 21 -11 23 -6 2 -8 14 -4 31 7
28 5 27 100 31 40 1 47 36 10 56 -23 12 -27 11 -49 -9 -25 -23 -46 -21 -46 4
0 7 -5 15 -11 17 -9 3 -9 21 -3 63 l9 60 50 -1 c28 0 84 -2 125 -5 64 -3 75
-2 78 13 4 22 -27 27 -195 32 -102 3 -135 1 -143 -9z"/>
<path d="M4666 674 c-18 -17 -18 -20 -10 -51 4 -13 11 -23 16 -23 5 0 29 -21
53 -46 44 -47 55 -79 55 -156 0 -34 -3 -38 -25 -38 -21 0 -25 -5 -25 -30 0
-30 21 -42 35 -20 3 6 35 10 71 10 70 0 81 11 43 44 -19 16 -21 25 -15 77 4
44 12 67 31 87 14 15 25 31 25 37 0 6 18 18 41 28 36 16 40 21 34 44 -3 14
-12 32 -20 39 -20 20 -47 18 -44 -3 2 -10 0 -35 -4 -55 -6 -30 -13 -38 -37
-43 -16 -4 -32 -11 -35 -16 -4 -5 -19 -9 -35 -9 -20 0 -31 6 -35 20 -3 11 -11
20 -16 20 -5 0 -9 6 -9 14 0 8 -6 17 -12 20 -10 3 -8 9 5 19 9 8 17 19 17 25
0 25 -80 30 -104 6z"/>
<path d="M2941 614 c-31 -25 -33 -31 -28 -73 6 -58 41 -91 97 -91 59 0 95 35
95 94 0 58 -26 86 -87 93 -38 4 -49 1 -77 -23z"/>
<path d="M3130 628 c0 -8 5 -19 12 -26 9 -9 9 -12 0 -12 -19 0 -14 -28 9 -51
15 -15 18 -24 10 -28 -7 -5 -9 -20 -5 -39 5 -24 12 -32 28 -32 36 0 49 15 44
49 -4 28 -2 31 24 31 22 0 28 5 28 21 0 18 -4 20 -30 14 -26 -6 -30 -4 -30 13
0 19 6 20 58 17 61 -3 82 6 82 36 0 21 -20 25 -37 8 -11 -11 -74 -8 -155 6
-29 6 -38 4 -38 -7z"/>
<path d="M1800 179 c0 -5 -5 -7 -11 -3 -15 9 -59 -16 -59 -33 0 -11 8 -13 30
-8 36 8 37 5 5 -29 -35 -38 -34 -83 3 -97 15 -6 43 -8 62 -5 19 3 46 7 60 8
14 2 26 10 28 20 3 13 -4 17 -30 16 -18 -1 -42 -7 -53 -14 -13 -8 -28 -9 -42
-3 -27 10 -29 26 -7 54 14 19 16 19 28 3 16 -22 46 -24 46 -3 0 8 -4 15 -8 15
-5 0 -14 11 -20 24 -9 21 -8 23 9 19 24 -7 25 15 2 33 -22 16 -43 18 -43 3z"/>
<path d="M5525 174 c-11 -12 -15 -32 -13 -76 2 -47 -1 -63 -15 -73 -24 -17
-21 -25 8 -25 16 0 25 6 25 15 0 19 17 19 36 0 16 -15 114 -22 114 -7 -1 10
-80 46 -87 39 -3 -3 -16 7 -30 23 -17 21 -23 38 -20 57 4 26 4 26 6 -4 1 -40
31 -47 31 -8 0 14 7 28 15 31 8 4 15 15 15 25 0 15 -7 19 -34 19 -19 0 -42 -7
-51 -16z"/>
</g>
</svg>
