<?xml version="1.0" standalone="no"?>
<!DOCTYPE svg PUBLIC "-//W3C//DTD SVG 20010904//EN"
 "http://www.w3.org/TR/2001/REC-SVG-20010904/DTD/svg10.dtd">
<svg version="1.0" xmlns="http://www.w3.org/2000/svg"
 width="640.000000pt" height="640.000000pt" viewBox="0 0 640.000000 640.000000"
 preserveAspectRatio="xMidYMid meet">
<metadata>
Created by potrace 1.16, written by Peter Selinger 2001-2019
</metadata>
<g transform="translate(0.000000,640.000000) scale(0.100000,-0.100000)"
fill="#000000" stroke="none">
<path d="M3682 5548 c-14 -17 -62 -124 -62 -137 0 -6 6 -11 14 -11 8 0 22 -14
30 -31 17 -34 16 -35 -51 -14 -24 8 -10 33 -165 -295 l-59 -124 -29 51 c-20
35 -37 53 -52 55 -20 3 -23 9 -24 53 -1 34 -12 71 -33 115 -18 36 -58 118 -89
183 -55 112 -73 135 -86 102 -3 -8 -17 -15 -31 -15 -14 0 -25 -6 -25 -12 0 -7
-7 -58 -15 -113 -18 -113 -33 -214 -45 -295 -4 -30 -15 -98 -24 -150 -8 -52
-13 -112 -9 -132 l5 -37 -51 -7 c-41 -5 -51 -10 -51 -25 0 -17 8 -19 75 -19
41 0 75 -4 75 -9 0 -11 -63 -18 -170 -20 -41 -1 -99 -4 -127 -6 l-53 -5 0 34
c0 27 7 39 36 61 41 32 74 81 74 112 0 12 5 23 10 25 6 2 15 30 20 63 14 88
13 95 -13 95 -37 0 -43 15 -40 100 3 79 3 80 -21 80 -31 0 -35 -16 -35 -166
-1 -79 -6 -135 -15 -160 l-15 -39 0 83 c-1 62 -4 82 -15 82 -18 0 -24 -38 -22
-137 l2 -82 -36 -19 c-110 -62 -229 -21 -284 97 -20 43 -21 64 -23 330 -1 156
-4 286 -7 289 -3 3 -6 12 -6 21 0 14 -18 16 -127 16 -113 0 -128 -2 -131 -17
-2 -12 5 -19 22 -23 14 -3 37 -7 50 -10 32 -7 36 -36 36 -297 0 -122 5 -240
11 -270 11 -49 34 -106 48 -118 3 -3 11 -14 17 -25 27 -49 91 -77 229 -101 22
-4 33 -9 24 -11 -9 -2 -60 3 -113 12 -134 21 -253 20 -316 -4 -45 -17 -80 -19
-318 -20 -170 0 -268 -4 -270 -11 -2 -5 -11 -10 -19 -10 -10 0 -13 6 -9 16 3
9 6 22 6 30 0 8 10 14 26 14 33 0 30 33 -4 38 -18 3 -22 10 -22 38 0 24 -5 34
-15 34 -11 0 -15 -11 -15 -37 0 -36 -1 -36 -17 -20 -16 15 -18 39 -18 190 l0
172 200 0 200 0 0 -174 c-1 -158 -2 -174 -20 -187 -10 -8 -29 -14 -42 -14 -16
0 -23 -6 -23 -20 0 -19 7 -20 180 -20 173 0 180 1 180 20 0 17 -7 20 -40 20
-71 0 -71 0 -70 391 0 226 4 347 11 355 6 7 25 14 42 16 24 2 32 8 32 23 0 19
-7 20 -174 20 -135 0 -174 -2 -178 -13 -7 -18 1 -24 44 -31 54 -9 63 -33 63
-178 l0 -123 -205 0 -205 0 0 133 c0 147 6 164 55 169 22 2 30 8 30 22 0 18
-10 19 -165 21 -176 2 -190 0 -190 -20 0 -15 22 -25 54 -25 13 0 30 -8 39 -18
15 -17 17 -56 17 -353 0 -370 -2 -382 -58 -387 -31 -3 -32 -2 -32 32 l0 35
-49 -6 c-49 -5 -49 -5 -53 23 -2 18 -10 30 -20 32 -14 3 -18 -3 -18 -29 l0
-32 -45 6 c-40 6 -45 4 -45 -12 0 -43 7 -47 97 -45 86 1 133 -11 133 -33 0 -7
9 -13 20 -13 19 0 20 -4 14 -79 -5 -54 -3 -80 5 -85 17 -11 13 -49 -10 -112
-13 -35 -19 -67 -15 -85 6 -29 1 -38 -35 -77 -9 -9 -28 -51 -43 -92 -15 -41
-34 -91 -41 -110 -8 -19 -43 -116 -79 -215 -88 -244 -108 -296 -114 -291 -2 3
7 38 21 78 14 40 44 134 66 208 23 74 52 169 66 210 13 41 40 129 60 195 42
138 61 185 75 185 5 0 10 13 10 28 l0 28 -96 -4 -97 -5 7 37 c6 34 5 36 -18
36 l-26 0 5 -82 c3 -46 9 -84 15 -86 5 -2 10 -10 10 -18 0 -8 7 -14 15 -14 8
0 15 7 15 15 0 8 -4 15 -10 15 -11 0 -14 40 -2 41 4 0 31 2 60 2 46 2 52 0 52
-18 0 -12 -4 -25 -9 -30 -5 -6 -34 -80 -64 -165 -153 -425 -237 -644 -261
-675 -14 -18 -26 -40 -26 -47 0 -23 -46 -36 -109 -31 -57 4 -61 3 -61 -16 0
-21 3 -21 260 -21 l260 0 0 25 c0 21 -5 25 -28 25 -48 0 -66 21 -59 67 7 42
105 343 116 355 8 10 300 12 309 3 8 -8 5 -285 -4 -340 -3 -22 -10 -48 -15
-57 -11 -20 -88 -37 -184 -39 -89 -2 -115 -8 -115 -25 0 -11 35 -14 172 -16
l173 -3 -3 -47 c-3 -43 -2 -48 17 -48 19 0 21 6 21 50 l0 50 245 0 c211 0 245
-2 245 -15 0 -8 7 -15 15 -15 8 0 15 7 15 16 0 14 9 15 68 8 37 -4 100 -8 141
-8 l75 -1 32 -53 c17 -30 35 -71 38 -93 4 -25 12 -39 21 -39 18 0 21 84 6 138
-5 17 -7 32 -5 32 12 0 63 -65 54 -68 -19 -7 -11 -35 8 -30 25 7 48 -48 57
-137 4 -39 12 -73 17 -76 12 -8 -7 -49 -22 -49 -6 0 -10 -7 -10 -15 0 -18 -20
-20 -21 -2 0 6 -1 38 -1 70 0 63 -21 81 -33 27 -4 -17 -10 -30 -15 -30 -5 0
-9 -29 -9 -65 0 -36 4 -65 10 -65 5 0 9 -4 9 -10 0 -5 -6 -10 -12 -10 -27 0
-149 -143 -185 -218 -21 -41 -39 -69 -41 -63 -5 16 -32 13 -32 -4 0 -8 7 -15
15 -15 30 0 6 -44 -35 -65 -23 -12 -30 -23 -30 -44 0 -40 -20 -91 -36 -91 -7
0 -16 -15 -20 -35 -3 -19 -10 -35 -14 -35 -4 0 -11 -12 -15 -27 -4 -19 -2 -29
9 -35 9 -5 16 -17 15 -26 0 -10 -3 -12 -6 -4 -8 21 -36 14 -30 -8 3 -13 0 -20
-9 -20 -8 0 -14 -10 -14 -25 0 -14 -4 -25 -8 -25 -4 0 -8 -25 -9 -55 -1 -39 2
-55 12 -55 7 0 15 10 18 22 11 46 46 133 46 117 1 -9 11 -27 24 -41 39 -45 57
-68 57 -76 0 -4 10 -18 23 -32 12 -14 28 -37 36 -53 8 -15 27 -39 42 -55 16
-15 29 -35 29 -44 0 -10 6 -18 13 -18 8 0 18 27 26 72 17 89 32 108 59 73 11
-14 25 -25 31 -25 7 0 22 -11 35 -25 13 -14 30 -25 39 -25 8 0 17 -6 20 -12 3
-10 9 -10 26 0 18 10 21 10 21 -3 0 -22 28 -18 35 5 9 29 -12 50 -51 50 -18 0
-39 6 -46 14 -8 7 -28 21 -45 29 -38 20 -105 84 -124 118 -8 15 -24 44 -35 65
-34 61 -57 185 -51 268 4 64 28 136 45 136 4 0 16 20 27 45 11 25 25 45 32 45
7 0 13 9 13 20 0 11 7 20 15 20 8 0 15 7 15 15 0 8 7 15 15 15 8 0 15 5 15 10
0 6 7 10 15 10 8 0 15 -6 15 -13 0 -14 -35 -47 -49 -47 -5 0 -11 -12 -15 -27
-3 -16 -8 -38 -12 -50 -9 -33 12 -29 43 7 13 16 33 30 44 30 12 0 19 7 19 20
0 11 7 20 15 20 8 0 15 -4 15 -10 0 -5 30 -8 70 -7 39 1 70 6 70 10 0 5 -17
25 -38 45 -22 21 -41 44 -44 52 -4 12 -9 12 -39 -2 -24 -12 -35 -14 -38 -6 -2
7 1 14 8 16 6 2 11 10 11 18 0 8 9 14 20 14 13 0 20 7 20 19 0 13 9 21 30 26
17 4 30 10 30 14 0 5 19 11 43 14 23 3 61 9 85 13 79 12 38 -46 -43 -60 -56
-10 -115 -37 -115 -53 0 -18 20 -16 61 4 24 12 56 17 112 16 61 -1 77 2 77 13
0 8 -4 14 -10 14 -5 0 -10 7 -10 15 0 8 -5 15 -12 15 -18 0 -3 10 31 20 23 6
35 5 45 -6 8 -8 20 -14 27 -14 7 0 32 -11 55 -25 30 -18 51 -24 69 -19 19 5
25 2 25 -10 0 -9 5 -16 10 -16 6 0 10 -7 10 -15 0 -8 6 -15 14 -15 8 0 17 -9
21 -19 8 -25 41 -36 60 -21 18 15 20 40 4 40 -6 0 -20 11 -30 25 -11 13 -34
27 -52 30 -20 4 -37 15 -42 28 -6 12 -18 23 -28 25 -10 2 -29 14 -42 28 -13
13 -29 24 -35 24 -6 0 -23 13 -38 29 -15 16 -34 31 -42 34 -9 3 -4 6 12 6 42
1 58 11 58 37 0 13 4 24 8 24 5 0 9 25 10 56 1 55 1 56 -23 50 -18 -5 -25 -2
-25 9 0 8 -10 17 -22 19 -13 3 -36 7 -51 11 -17 3 -35 1 -43 -6 -11 -9 -14 -7
-14 15 0 22 4 26 30 26 17 0 30 -4 30 -10 0 -5 7 -10 15 -10 16 0 20 35 9 64
-8 21 -34 21 -34 0 0 -11 -5 -14 -16 -10 -9 3 -22 6 -29 6 -8 0 -11 7 -8 21 4
14 9 17 16 10 21 -21 40 -13 33 13 -6 24 -4 25 51 28 32 2 102 2 156 0 l97 -3
0 -45 c0 -37 3 -44 20 -44 17 0 20 7 20 45 l0 45 385 0 385 0 0 -46 c0 -40 -2
-45 -15 -34 -8 6 -17 20 -20 31 -4 10 -15 19 -26 19 -16 0 -19 -8 -21 -52 -1
-29 -1 -62 -1 -73 2 -25 11 -348 12 -392 1 -32 3 -33 41 -33 37 0 40 2 40 27
0 19 14 41 42 70 23 24 45 43 49 43 3 0 30 -31 60 -70 l54 -70 65 3 65 2 3 83
c2 45 7 82 12 82 5 0 10 -37 12 -82 l3 -83 93 -3 92 -3 0 -39 c0 -33 4 -40 19
-40 26 0 31 18 31 118 0 60 3 82 10 72 5 -8 10 -37 10 -63 l0 -48 118 3 117 3
3 43 c4 49 22 57 22 10 0 -52 10 -59 76 -56 59 3 59 3 65 38 l6 35 4 -35 4
-35 113 -3 112 -3 0 166 c0 101 4 165 10 165 6 0 11 -79 12 -202 3 -181 5
-203 20 -206 13 -2 17 5 20 35 3 35 6 38 35 41 l33 3 -7 60 -6 59 32 0 31 0 0
-60 c0 -45 4 -62 15 -66 8 -4 15 -17 15 -30 0 -16 6 -24 18 -24 9 0 26 -7 36
-15 24 -18 77 -20 94 -3 7 7 12 20 12 30 0 10 7 18 15 18 8 0 15 5 15 10 0 6
7 10 15 10 8 0 15 7 15 16 0 8 -7 22 -15 30 -8 9 -15 33 -15 55 0 28 4 39 15
39 8 0 15 -4 15 -10 0 -5 6 -10 14 -10 11 0 66 -70 66 -85 0 -3 -7 -5 -15 -5
-8 0 -15 -7 -15 -15 0 -8 -7 -15 -15 -15 -8 0 -15 -7 -15 -15 0 -8 7 -15 15
-15 8 0 15 7 15 15 0 8 9 15 20 15 13 0 20 -7 20 -19 0 -10 -9 -21 -20 -24
-11 -3 -20 -13 -20 -22 0 -13 6 -16 23 -11 12 3 32 6 45 6 19 0 22 5 22 35 0
19 5 35 10 35 6 0 10 10 10 23 0 12 4 33 8 47 6 21 8 19 12 -20 l5 -45 174 -3
c191 -3 191 -3 191 55 0 24 -10 44 -37 73 -27 31 -33 44 -25 52 14 14 15 57 3
77 -5 8 -18 12 -30 8 -28 -7 -28 17 1 80 18 41 22 44 26 25 3 -20 7 -22 35
-16 40 8 40 8 32 34 -6 17 -12 20 -36 15 -16 -4 -29 -4 -29 -2 0 3 11 25 25
48 46 81 49 80 -152 77 l-178 -3 -3 -122 c-3 -144 -22 -170 -22 -30 0 50 -3
102 -6 115 -7 26 -36 30 -33 5 1 -10 1 -37 0 -60 -1 -36 -4 -43 -21 -43 -19 0
-20 -6 -18 -71 1 -60 5 -73 20 -77 15 -4 18 -15 18 -64 0 -35 -4 -57 -10 -53
-5 3 -46 67 -91 141 -79 131 -82 135 -112 132 l-32 -3 -1 -105 c-3 -141 -22
-148 -26 -8 -3 102 -3 103 -28 106 -14 2 -34 7 -45 13 -14 7 -29 7 -48 0 -18
-7 -68 -7 -153 -1 -70 5 -130 7 -135 4 -5 -3 -9 31 -9 76 0 72 -2 81 -17 78
-15 -3 -19 -16 -21 -76 -3 -66 -5 -74 -27 -84 -14 -6 -25 -18 -26 -27 0 -14
-1 -14 -6 -1 -3 8 -13 23 -22 32 -34 36 -41 48 -41 69 0 11 -9 34 -21 50 -16
23 -28 29 -55 29 -20 0 -43 -4 -53 -10 -25 -13 -45 -64 -37 -95 9 -36 35 -32
34 5 -2 52 43 80 73 44 10 -13 10 -20 -4 -44 -13 -21 -17 -52 -17 -124 0 -70
-3 -96 -12 -97 -24 -2 -43 3 -66 17 -18 12 -20 18 -12 35 6 11 19 23 28 26 22
8 32 23 32 49 0 30 -45 46 -109 41 l-51 -5 0 42 0 41 -60 0 c-42 0 -60 -4 -60
-12 0 -7 4 -13 9 -13 4 0 6 -11 4 -25 -4 -20 -13 -25 -48 -30 -23 -4 -62 -6
-86 -4 -94 5 -89 10 -89 -91 0 -53 -4 -90 -10 -90 -11 0 -12 14 -10 140 1 47
5 87 11 88 20 7 9 49 -16 60 -14 7 -28 19 -31 27 -10 24 -34 18 -34 -9 0 -37
-40 -39 -94 -3 -25 16 -46 35 -46 42 0 9 -14 13 -45 12 -24 -1 -50 4 -57 11
-12 12 133 15 589 12 107 -1 142 2 146 12 4 11 7 10 15 0 6 -9 25 -13 54 -11
24 2 49 0 55 -4 7 -4 111 -5 233 -3 213 5 220 4 220 -14 0 -13 9 -22 25 -26
15 -4 28 -16 31 -30 3 -13 12 -24 20 -24 17 0 17 -1 1 75 -10 47 -17 61 -33
63 -20 3 -20 4 -2 90 10 48 19 110 20 137 3 43 0 50 -16 50 -14 0 -23 -14 -37
-58 -10 -32 -26 -68 -35 -80 l-16 -22 5 25 c3 14 9 54 13 88 7 62 6 64 -16 60
-17 -2 -26 -16 -42 -65 -22 -67 -75 -133 -108 -133 -10 0 -21 -4 -24 -9 -4 -5
-39 -15 -79 -21 -39 -7 -75 -18 -79 -24 -5 -8 -13 -8 -28 2 -38 23 -110 6
-110 -27 0 -6 -7 -11 -15 -11 -8 0 -15 5 -15 10 0 6 -9 10 -20 10 -11 0 -20 5
-20 10 0 6 -7 10 -15 10 -8 0 -15 -7 -15 -15 0 -8 5 -15 10 -15 6 0 10 -4 10
-10 0 -6 -28 -10 -65 -10 -55 0 -65 3 -66 18 -1 9 -1 72 -2 140 -1 114 -2 123
-19 119 -13 -4 -26 10 -54 56 -51 89 -51 88 -64 150 -7 37 -16 57 -26 57 -11
0 -14 -17 -14 -76 0 -92 -12 -89 -42 9 -18 58 -23 96 -23 195 0 78 4 125 11
130 6 4 11 21 11 38 0 46 49 141 100 192 25 24 46 42 49 40 2 -3 -1 -19 -7
-37 -13 -38 -6 -50 21 -33 17 10 19 8 22 -26 2 -25 8 -38 20 -40 14 -3 18 7
20 65 3 67 3 67 43 89 22 13 45 26 50 31 33 28 301 49 379 29 26 -6 28 -10 22
-39 -20 -91 -20 -97 1 -97 22 0 93 101 93 132 0 23 26 23 34 1 4 -10 17 -36
31 -58 51 -84 58 -102 64 -155 5 -47 9 -55 29 -58 21 -3 22 0 22 61 0 35 3 91
6 125 7 59 7 60 40 64 l34 4 0 -202 c0 -184 2 -203 18 -207 16 -4 16 -5 0 -6
-17 -1 -18 -21 -19 -263 0 -145 -4 -285 -9 -313 -5 -27 -12 -69 -16 -92 -3
-24 -11 -43 -15 -43 -5 0 -9 -6 -9 -14 0 -12 41 -14 250 -15 237 0 250 0 250
18 0 15 -10 20 -47 26 -106 15 -131 25 -144 59 -9 22 -13 149 -16 431 -4 295
-8 405 -17 420 -14 22 -10 105 5 105 5 0 9 27 9 61 0 76 12 99 50 99 29 0 34
-7 31 -42 -2 -15 6 -18 46 -18 106 -1 173 -38 173 -96 0 -17 5 -24 20 -24 17
0 20 7 20 47 0 45 1 46 19 29 11 -10 23 -36 26 -57 5 -30 11 -39 23 -37 15 3
17 21 20 122 l3 118 -43 -9 c-41 -8 -121 -8 -403 -4 -66 1 -201 1 -299 2 -99
0 -184 3 -189 6 -5 3 -47 7 -94 10 -47 2 -101 7 -122 12 l-36 8 28 8 c16 4 32
3 40 -3 6 -6 49 -10 95 -10 73 0 82 2 82 19 0 14 -7 19 -28 19 -70 0 -81 39
-82 290 0 102 -3 202 -6 223 -6 36 -8 38 -37 31 -55 -12 -55 -15 -58 -232 -2
-221 -9 -289 -30 -303 -8 -6 -41 -8 -74 -7 -50 3 -65 8 -87 31 -16 15 -28 32
-28 38 0 13 -91 232 -101 244 -5 5 -9 16 -9 25 0 8 -9 21 -20 28 -14 8 -20 23
-20 46 0 36 -132 381 -155 405 -20 20 -44 6 -61 -36 -9 -21 -24 -56 -34 -78
-44 -101 -80 -207 -80 -240 0 -23 -5 -35 -13 -35 -15 0 -28 -25 -59 -110 -11
-30 -28 -73 -38 -95 -9 -22 -21 -51 -25 -65 -12 -41 -52 -115 -69 -129 -14
-12 -18 -9 -30 21 -8 18 -18 62 -22 96 -4 35 -11 62 -18 62 -24 0 -36 38 -26
82 16 70 13 118 -7 118 -13 0 -15 2 -5 9 10 6 9 34 -8 145 -11 76 -20 140 -20
143 0 2 -10 3 -22 1 -20 -3 -23 2 -26 31 -2 18 1 38 7 44 16 16 14 47 -3 47
-7 0 -18 -6 -24 -12z m584 -386 c19 -53 34 -100 34 -104 0 -5 -38 -8 -85 -8
-47 0 -85 3 -85 6 0 4 19 58 42 121 47 130 42 131 94 -15z m-621 -68 c9 -60
21 -147 27 -194 7 -47 12 -111 11 -142 -1 -44 3 -58 13 -58 12 0 12 -4 2 -20
-10 -15 -24 -20 -60 -20 -27 0 -48 5 -48 10 0 6 -7 10 -15 10 -10 0 -15 -10
-15 -30 0 -28 2 -29 53 -32 l54 -3 -41 -115 -40 -114 -12 40 c-15 53 -42 104
-54 104 -6 0 -10 6 -10 14 0 8 -21 28 -47 45 l-46 31 46 0 c35 0 47 4 47 15 0
11 -13 15 -52 16 -29 1 -69 3 -88 4 -19 1 -106 3 -192 5 -127 2 -158 5 -158
16 0 10 13 14 45 14 38 0 45 3 45 20 0 15 -7 20 -28 20 -16 0 -36 6 -46 13
-18 13 -18 19 3 168 11 85 24 174 27 199 3 25 8 53 11 63 5 18 6 18 24 -2 10
-11 19 -27 19 -35 0 -25 12 -46 26 -46 9 0 14 -11 14 -31 0 -27 22 -77 118
-264 37 -74 62 -106 79 -103 17 3 59 82 182 341 47 97 86 175 88 173 2 -2 10
-52 18 -112z m704 -168 c25 -51 39 -155 33 -243 -2 -33 -8 -43 -25 -49 -12 -3
-52 -27 -90 -51 -108 -72 -192 -190 -233 -329 l-17 -59 -15 35 c-8 19 -45 115
-82 213 l-68 177 210 0 c194 0 209 1 206 18 -3 15 -23 17 -218 20 -129 1 -216
6 -218 12 -5 14 -28 12 -52 -2 -17 -11 -22 -10 -30 2 -8 13 13 15 165 18 167
2 175 3 175 22 0 14 -7 20 -22 20 -13 0 -29 4 -37 9 -17 11 -9 45 37 163 29
76 21 73 167 73 l90 0 24 -49z m-2225 -373 c-26 -87 -10 -135 26 -81 33 48 67
77 98 83 20 4 32 3 32 -4 0 -6 7 -11 15 -11 8 0 15 5 15 10 0 6 9 10 19 10 28
0 59 -44 67 -96 5 -33 11 -44 24 -44 24 0 30 20 30 91 0 33 4 59 10 59 6 0 10
-53 10 -139 0 -90 4 -142 11 -147 8 -4 8 -9 0 -17 -7 -7 -11 -83 -12 -216 0
-189 -2 -203 -14 -168 -21 56 -74 124 -154 197 -39 35 -71 70 -71 76 0 6 -12
14 -27 17 -42 8 -147 109 -177 169 -31 61 -32 98 -7 153 16 37 65 84 101 98 8
3 16 6 17 6 0 1 -5 -20 -13 -46z m-480 16 c50 -26 59 -36 86 -88 63 -124 41
-270 -50 -334 -36 -25 -185 -25 -198 1 -5 9 -9 108 -10 219 -1 230 -4 222 83
223 32 0 64 -7 89 -21z m1542 0 c4 -7 20 -9 40 -6 25 4 43 -1 76 -22 45 -29
78 -64 78 -81 0 -6 4 -10 8 -10 15 0 37 -112 36 -180 -1 -81 -16 -133 -51
-188 -31 -48 -50 -57 -85 -41 -20 8 -35 7 -72 -5 -48 -16 -121 -21 -151 -10
-14 6 -16 34 -14 255 1 137 5 249 10 249 15 0 39 -44 39 -72 0 -21 5 -28 20
-28 16 0 20 7 22 33 1 17 2 41 3 52 1 11 3 30 4 43 1 23 25 30 37 11z m-626
-416 c0 -397 -1 -416 -17 -400 -16 16 -18 51 -20 409 -1 215 0 395 3 400 3 4
12 8 20 8 12 0 14 -61 14 -417z m245 -88 c0 -395 -3 -510 -14 -547 -7 -27 -17
-48 -22 -48 -5 0 -17 12 -26 27 -15 23 -19 58 -23 233 -3 113 -4 348 -2 523
l3 318 42 -3 42 -3 0 -500z m976 95 c32 -90 57 -165 56 -166 -2 -2 -207 -7
-224 -5 -9 1 -9 9 -1 33 8 23 8 33 0 36 -8 2 -8 12 0 35 9 23 8 32 0 35 -23 7
-12 22 12 16 21 -5 24 -1 35 40 15 60 14 66 -9 66 -11 0 -20 6 -20 13 0 23 31
57 51 57 11 0 23 8 26 17 5 14 8 14 11 2 3 -7 31 -88 63 -179z m-2581 51 c31
-87 40 -127 40 -176 l0 -65 -101 0 c-99 0 -100 0 -94 23 4 12 22 71 41 130 20
60 33 115 30 122 -2 7 1 16 9 18 7 3 16 20 20 37 4 17 9 30 11 27 2 -2 22 -54
44 -116z m668 -46 c12 -14 27 -25 34 -25 25 0 236 -158 326 -244 40 -39 52
-57 52 -81 0 -17 9 -55 20 -85 21 -59 26 -133 10 -153 -6 -7 -18 -23 -28 -36
-14 -18 -24 -22 -40 -17 -12 4 -22 14 -22 22 0 8 -12 27 -26 41 -15 15 -31 41
-36 60 -9 34 -38 46 -38 16 0 -13 -5 -11 -18 10 -18 29 -42 36 -42 13 0 -15
25 -47 78 -100 19 -20 32 -42 31 -57 -1 -18 -3 -19 -6 -6 -3 10 -18 20 -34 24
-16 3 -29 12 -29 20 0 8 -9 17 -20 20 -12 3 -20 14 -20 25 0 16 -5 19 -21 15
-18 -5 -20 -2 -15 16 3 12 9 54 12 92 14 158 -78 311 -219 364 l-50 18 34 36
c19 20 37 36 40 36 3 1 15 -10 27 -24z m-187 -126 c42 -19 95 -66 149 -135 17
-21 40 -110 40 -155 0 -26 -3 -29 -25 -23 -19 5 -25 2 -25 -10 0 -9 5 -16 10
-16 6 0 10 -16 10 -35 0 -32 -2 -35 -19 -25 -30 15 -38 12 -49 -17 -12 -34
-56 -83 -75 -83 -8 0 -24 14 -37 30 -13 17 -32 31 -44 31 -17 1 -18 2 -3 6 16
4 25 33 10 33 -25 -1 -53 -14 -53 -26 0 -8 -4 -14 -10 -14 -5 0 -10 -7 -10
-15 0 -8 -5 -15 -10 -15 -6 0 -8 11 -4 25 7 26 3 28 -33 19 -23 -6 -33 -34
-12 -34 5 0 7 -5 4 -10 -4 -6 -10 -8 -15 -5 -10 6 -8 215 3 215 4 0 7 9 7 20
0 11 -4 20 -10 20 -10 0 -15 232 -6 241 13 13 163 -3 207 -22z m1554 -191 c33
-47 70 -97 82 -112 21 -26 21 -30 8 -57 -8 -15 -15 -33 -15 -40 0 -23 -51
-112 -75 -131 -14 -11 -25 -28 -25 -37 0 -17 -4 -18 -61 -6 -33 7 -65 17 -71
23 -20 20 -28 92 -28 270 l0 182 63 -4 62 -4 60 -84z m692 -83 c104 -269 106
-277 91 -286 -7 -5 -21 -9 -30 -9 -10 0 -18 -7 -18 -15 0 -12 -15 -15 -75 -15
-48 0 -75 4 -75 11 0 7 -10 9 -25 5 -27 -7 -36 11 -10 20 8 4 15 12 15 20 0 8
-7 14 -15 14 -8 0 -15 5 -15 10 0 6 -9 10 -20 10 -13 0 -18 5 -14 15 7 18 -13
45 -33 45 -8 0 -17 -9 -20 -20 -5 -20 -38 -28 -45 -11 -1 5 -18 12 -35 16 -26
5 -33 3 -33 -9 0 -9 7 -16 15 -16 8 0 15 -4 15 -10 0 -5 -4 -10 -10 -10 -5 0
-10 -6 -10 -14 0 -18 43 -33 48 -17 2 6 8 9 13 5 16 -9 10 -24 -10 -24 -10 0
-21 -8 -23 -18 -7 -25 -105 -24 -120 1 -5 9 -15 17 -23 17 -8 0 -11 8 -8 23
18 79 25 97 38 97 8 0 15 7 15 15 0 8 -4 15 -9 15 -4 0 -4 19 2 43 8 35 14 43
31 43 11 -1 25 -7 29 -13 11 -18 37 -16 37 2 0 9 -7 18 -15 21 -8 4 -15 15
-15 25 0 12 -7 19 -19 19 -21 0 -19 22 6 70 7 14 13 32 13 41 0 9 3 19 7 23 4
3 72 5 151 4 l144 -3 55 -140z m-1341 -360 c12 -4 6 -75 -7 -75 -11 0 -12 -37
-1 -42 13 -5 22 -77 11 -83 -12 -8 0 -84 20 -117 9 -18 24 -28 38 -28 29 0 30
25 3 40 -38 20 -36 70 6 119 16 18 74 18 74 -1 0 -5 7 -16 15 -24 8 -9 15 -33
15 -54 0 -36 -2 -38 -36 -45 -23 -4 -38 -13 -41 -25 -3 -11 -18 -21 -39 -25
-19 -3 -34 -10 -34 -14 0 -9 -10 -12 -105 -31 -27 -6 -58 -13 -69 -16 -18 -6
-18 -5 -2 17 9 13 16 31 16 41 0 10 5 18 10 18 6 0 18 15 26 34 12 25 21 32
35 29 15 -4 19 0 20 18 0 13 3 18 6 12 2 -7 11 -13 19 -13 16 0 18 18 5 38 -6
10 -21 12 -53 7 -50 -8 -45 -12 -92 82 -6 13 -16 23 -22 23 -7 0 -15 11 -18
25 -4 14 -11 25 -16 25 -6 0 -10 8 -9 18 0 10 3 12 6 5 7 -18 43 -16 43 2 0 8
-7 15 -16 15 -8 0 -22 7 -30 15 -13 12 -5 14 58 17 70 3 141 0 164 -7z m2389
-287 c5 -64 4 -68 -15 -68 -32 0 -23 -27 11 -34 17 -3 35 -3 40 0 12 7 11
-120 -1 -132 -5 -5 -26 -8 -46 -6 -50 6 -57 31 -50 182 3 69 6 126 6 127 0 5
36 9 42 4 4 -3 9 -36 13 -73z m-454 22 c5 0 22 7 37 16 l27 16 -23 -20 c-19
-18 -22 -27 -16 -57 5 -31 4 -35 -15 -35 -12 0 -21 -6 -21 -14 0 -18 40 -32
49 -18 3 6 18 8 32 5 20 -4 25 -9 22 -24 -3 -11 0 -19 7 -19 7 0 1 -11 -14
-25 -17 -16 -26 -34 -26 -55 0 -26 -3 -30 -29 -30 -47 0 -56 21 -60 146 -3
107 5 177 16 132 3 -10 9 -18 14 -18z m-171 -75 l0 -95 -27 0 c-31 -1 -63 -21
-63 -39 0 -7 10 -12 23 -11 45 4 57 0 57 -20 0 -17 -7 -20 -50 -20 l-50 0 -1
63 c-2 105 3 181 12 200 7 12 22 17 54 17 l45 0 0 -95z"/>
<path d="M4800 5508 c0 -24 -3 -67 -6 -95 -6 -43 -4 -53 8 -53 8 0 23 -16 34
-35 10 -19 22 -35 26 -35 5 0 39 -32 76 -71 154 -164 199 -209 210 -209 7 0
12 -6 12 -13 0 -16 222 -237 238 -237 7 0 12 -6 12 -14 0 -19 57 -66 80 -66
10 0 21 7 24 16 4 9 6 138 5 285 0 226 -3 269 -15 269 -8 0 -14 -7 -14 -16 0
-12 -7 -14 -30 -9 l-30 7 2 -151 3 -150 -118 122 c-66 67 -200 206 -299 310
-109 113 -188 187 -199 187 -16 0 -19 -7 -19 -42z"/>
<path d="M1010 5247 c0 -7 5 -18 10 -23 19 -19 0 -44 -32 -44 -28 0 -30 2 -24
27 5 17 3 29 -6 34 -26 17 -38 9 -38 -26 0 -31 -3 -35 -25 -35 -25 0 -35 23
-15 35 6 3 10 13 10 21 0 11 -8 14 -27 12 -27 -3 -28 -4 -28 -70 0 -47 3 -68
12 -68 6 0 14 4 18 9 6 11 125 8 168 -4 l27 -7 0 70 c0 54 -3 71 -16 76 -24 9
-34 7 -34 -7z"/>
<path d="M311 3742 c-21 -42 -106 -129 -133 -138 -28 -9 -22 -34 9 -34 25 0
25 -1 9 -19 -10 -11 -29 -22 -44 -26 -35 -9 -52 -23 -52 -44 0 -9 -14 -32 -30
-51 -30 -35 -30 -35 -24 -7 5 20 2 27 -10 27 -31 0 -38 -71 -32 -379 5 -361 4
-326 17 -386 24 -118 38 -168 59 -220 5 -11 11 -31 13 -45 14 -69 35 -124 49
-134 30 -19 30 1 -1 91 -35 104 -76 265 -87 343 -8 63 -9 66 -19 178 l-8 82
38 -16 c21 -8 83 -18 141 -21 92 -5 104 -4 104 10 0 13 -10 17 -46 17 -25 0
-53 4 -63 10 -41 22 -29 124 18 150 37 19 26 40 -22 40 -43 0 -102 31 -140 74
-17 19 -17 21 -1 33 10 7 26 13 36 13 10 0 18 4 18 9 0 5 9 13 20 16 11 3 20
14 21 23 0 11 3 12 6 5 7 -18 33 -16 33 2 0 8 -7 15 -15 15 -8 0 -15 5 -15 11
0 7 -10 9 -25 5 -31 -8 -33 8 -4 28 14 9 19 21 15 31 -7 18 76 105 100 105 8
0 14 4 14 8 0 5 12 15 26 22 18 10 24 20 20 35 -3 11 -1 27 4 35 8 13 10 12
10 -2 0 -11 8 -18 20 -18 11 0 20 7 20 15 0 8 -6 15 -14 15 -23 0 -27 42 -6
76 24 38 25 54 5 54 -8 0 -23 -17 -34 -38z"/>
<path d="M490 3040 c0 -5 -7 -10 -15 -10 -8 0 -15 -4 -15 -10 0 -5 -9 -10 -20
-10 -11 0 -20 -7 -20 -15 0 -8 6 -15 14 -15 9 0 12 -7 9 -20 -3 -11 -9 -20
-13 -20 -5 0 -12 -9 -15 -20 -3 -11 -12 -20 -19 -20 -16 0 -46 -32 -46 -48 0
-7 14 -12 30 -12 17 0 30 4 30 10 0 5 7 7 15 4 8 -3 20 -2 27 3 7 4 31 13 53
18 55 14 62 45 10 45 -33 0 -36 2 -30 23 4 12 13 35 21 51 18 38 18 56 -1 56
-8 0 -15 -4 -15 -10z"/>
<path d="M693 2894 c-13 -14 -23 -28 -23 -32 0 -8 -114 -62 -130 -62 -6 0 -10
-7 -10 -16 0 -12 7 -15 25 -12 14 3 25 1 25 -4 0 -5 16 -6 35 -2 24 4 39 2 49
-9 14 -14 13 -19 -13 -46 -16 -17 -36 -31 -44 -31 -15 0 -27 -20 -27 -46 0 -9
11 -14 30 -14 18 0 39 -10 54 -25 25 -25 46 -33 46 -17 0 4 16 6 35 4 26 -3
35 0 35 11 0 10 -16 17 -55 22 -38 4 -55 11 -55 21 0 8 -4 14 -9 14 -6 0 3 15
20 32 16 18 29 40 29 50 0 11 8 18 20 18 37 0 22 29 -21 40 -41 11 -41 11 -22
33 10 12 21 24 24 27 10 8 29 48 29 59 0 18 -24 10 -47 -15z"/>
<path d="M3054 2893 c4 -16 15 -35 24 -43 50 -43 72 -110 36 -110 -8 0 -14 -7
-14 -15 0 -9 9 -15 25 -15 35 0 55 -44 55 -125 0 -49 3 -65 14 -65 18 0 26 31
26 102 0 35 -5 58 -12 62 -10 5 -10 7 -1 12 7 3 20 22 30 42 9 20 23 41 30 45
16 10 17 37 1 37 -7 0 -25 -15 -41 -32 -27 -32 -28 -33 -43 -13 -9 11 -22 37
-31 58 -10 24 -22 37 -34 37 -12 0 -23 10 -29 25 -14 36 -44 34 -36 -2z"/>
<path d="M2725 2470 c-5 -15 2 -27 23 -45 17 -14 62 -57 100 -95 38 -39 74
-70 79 -70 14 0 33 46 40 96 5 35 3 44 -9 44 -10 0 -20 -16 -27 -45 -6 -25
-14 -45 -17 -45 -3 0 -3 12 1 28 5 15 9 50 10 79 2 45 0 52 -19 57 -31 9 -36
7 -36 -9 0 -8 5 -15 10 -15 13 0 13 -87 1 -94 -11 -7 -121 103 -121 121 0 21
-28 15 -35 -7z"/>
<path d="M3280 2303 c1 -27 68 -171 90 -193 46 -46 46 -45 -35 -94 -83 -50
-115 -58 -115 -26 0 22 -26 28 -32 8 -3 -7 -11 2 -19 20 -14 32 -39 44 -39 18
0 -7 -20 7 -45 31 -39 40 -43 47 -30 60 9 9 15 10 15 3 0 -14 25 -40 39 -40 6
0 11 7 11 15 0 8 -4 15 -10 15 -5 0 -10 6 -10 13 0 32 -22 87 -35 87 -8 0 -22
-14 -31 -31 -11 -23 -18 -28 -24 -19 -5 7 -15 10 -25 6 -13 -4 -16 -14 -13
-36 4 -24 -3 -37 -36 -71 -22 -23 -42 -37 -44 -31 -5 15 -52 16 -52 2 0 -5 -7
-10 -16 -10 -9 0 -18 -9 -21 -20 -3 -11 -11 -20 -18 -20 -8 0 -16 -8 -18 -17
-4 -16 -5 -16 -6 1 -1 14 -6 17 -23 12 -13 -3 -26 -6 -30 -6 -5 0 -8 -7 -8
-15 0 -8 -7 -15 -15 -15 -8 0 -15 4 -15 9 0 16 -161 6 -171 -10 -18 -28 -10
-41 21 -37 17 3 33 1 36 -4 10 -16 42 -8 47 12 3 13 13 20 29 19 17 -1 18 -3
6 -6 -10 -2 -18 -11 -18 -20 0 -12 6 -14 28 -8 15 4 78 6 141 5 84 -1 116 2
122 12 7 10 9 10 9 1 0 -7 12 -13 26 -13 23 0 26 3 22 25 -4 17 -1 25 8 25 8
0 14 7 14 15 0 11 11 15 48 14 26 -1 37 -4 25 -6 -13 -2 -23 -8 -23 -12 0 -5
-13 -14 -30 -21 -16 -7 -30 -19 -30 -26 0 -11 12 -13 58 -8 31 3 67 7 80 10
12 2 22 0 22 -6 0 -5 7 -10 15 -10 8 0 15 -9 15 -20 0 -26 15 -25 40 0 11 11
34 23 50 27 17 3 30 8 30 12 0 3 19 7 41 8 23 0 46 6 52 12 6 6 21 11 34 11
30 0 31 -35 3 -85 -11 -20 -20 -40 -20 -45 0 -17 30 -11 37 8 16 41 85 73 164
74 29 0 39 5 39 17 1 14 2 14 11 -1 13 -24 149 -27 149 -4 0 10 -16 17 -46 22
-26 4 -59 13 -73 20 -14 8 -33 14 -41 14 -8 0 -51 18 -95 41 -83 42 -150 102
-161 144 -3 14 -10 25 -15 25 -5 0 -17 17 -26 38 -32 74 -37 82 -50 82 -7 0
-13 -3 -13 -7z"/>
<path d="M2957 2275 c-10 -14 -27 -25 -38 -25 -18 0 -119 -93 -119 -111 0 -4
8 -13 18 -18 9 -6 11 -11 5 -11 -18 0 -16 -30 2 -30 8 0 15 4 15 10 0 5 7 7
15 3 14 -5 55 31 100 89 11 13 45 98 45 111 0 16 -26 5 -43 -18z"/>
<path d="M342 2218 c-21 -123 -22 -135 -11 -167 6 -17 9 -34 6 -37 -13 -13
-45 9 -63 41 -24 45 -49 47 -40 5 4 -23 -1 -45 -20 -81 -28 -52 -26 -79 3 -79
13 0 14 -3 5 -8 -8 -6 -10 -19 -6 -40 6 -32 28 -43 37 -19 4 10 7 10 18 0 7
-7 19 -13 26 -13 17 0 17 29 -1 36 -16 6 -28 56 -20 79 9 21 23 9 17 -15 -4
-14 2 -23 23 -32 16 -7 35 -18 42 -25 11 -11 11 -14 -2 -19 -9 -3 -16 -17 -16
-30 0 -21 5 -24 33 -24 26 0 37 -6 47 -25 15 -27 40 -34 40 -10 0 8 -8 23 -18
33 -10 10 -16 24 -14 30 4 13 -21 42 -37 42 -12 0 -12 0 -16 76 -3 47 -1 51
16 47 19 -5 27 -43 9 -43 -8 0 -16 -30 -7 -30 1 0 20 -7 42 -15 36 -13 37 -14
13 -15 -71 -1 0 -66 136 -126 59 -25 109 -44 113 -41 8 9 -20 67 -33 67 -7 0
-14 6 -17 13 -2 7 -25 23 -51 36 -25 13 -46 28 -46 32 0 7 118 17 217 18 47 0
54 3 65 26 6 14 9 27 7 29 -2 2 -46 6 -96 8 -75 4 -93 3 -93 -8 0 -8 6 -14 14
-14 8 0 18 -5 21 -10 4 -6 -10 -9 -37 -6 -37 3 -43 7 -43 27 0 18 -7 25 -30
29 l-30 6 33 19 c41 24 44 50 5 40 -15 -3 -30 -10 -33 -14 -5 -8 -45 -31 -53
-31 -2 0 -2 11 1 25 2 14 0 25 -6 25 -6 0 0 19 13 43 14 23 25 48 25 55 0 7
11 30 25 50 26 38 32 62 16 62 -9 0 -71 -57 -71 -65 0 -8 -91 -98 -94 -94 -6
7 -26 135 -26 167 0 21 -5 32 -14 32 -9 0 -17 -21 -24 -62z"/>
<path d="M2650 1888 c1 -46 31 -79 42 -46 3 8 13 3 29 -13 39 -41 79 -91 79
-98 0 -3 16 -30 35 -58 19 -29 35 -57 35 -62 0 -6 6 -14 14 -18 16 -10 46 -66
46 -87 0 -8 8 -17 18 -21 11 -3 24 -17 30 -30 6 -14 18 -25 25 -25 8 0 26 -11
41 -25 34 -31 44 -31 52 0 5 21 8 22 20 10 8 -7 22 -17 32 -20 9 -4 30 -22 46
-41 l29 -35 -22 -15 c-26 -19 -28 -44 -3 -44 24 0 48 27 57 61 6 23 1 31 -34
55 -22 16 -41 32 -41 35 0 4 15 10 34 13 19 4 41 17 52 32 31 41 59 70 87 89
38 25 34 40 -18 64 -25 12 -53 29 -63 39 -17 17 -17 19 4 35 13 9 28 17 33 17
6 0 11 6 11 13 0 9 -17 13 -55 13 -41 1 -55 -2 -55 -13 0 -7 -7 -16 -15 -19
-26 -10 -16 -30 28 -54 23 -13 48 -30 55 -37 7 -7 20 -13 27 -13 30 0 22 -19
-31 -74 -46 -49 -61 -59 -97 -62 -37 -4 -39 -3 -19 7 12 7 22 21 22 32 0 17
-5 19 -31 13 -17 -3 -35 -6 -40 -6 -5 0 -9 -7 -9 -17 0 -9 -3 -13 -7 -9 -4 4
-6 25 -4 46 l3 40 -46 -6 c-31 -5 -46 -3 -46 5 0 6 -9 11 -20 11 -37 0 -123
101 -103 121 5 5 33 2 63 -6 30 -8 61 -15 68 -15 19 0 14 28 -6 34 -10 3 -36
23 -59 44 -83 76 -126 112 -135 112 -4 0 -8 4 -8 10 0 5 -15 11 -32 14 -103
16 -118 16 -118 4z"/>
<path d="M2320 1785 c0 -8 5 -15 10 -15 6 0 18 -8 28 -17 10 -10 27 -24 38
-31 17 -11 15 -12 -13 -6 -42 7 -43 -9 -4 -42 20 -17 32 -38 36 -66 4 -23 12
-50 18 -59 14 -22 2 -49 -22 -49 -10 0 -21 -7 -25 -15 -3 -8 -17 -15 -31 -15
-16 0 -25 -6 -25 -16 0 -12 7 -15 30 -12 17 3 30 1 30 -4 0 -13 30 -9 46 7 19
19 44 20 44 1 0 -7 11 -30 25 -50 14 -20 25 -44 25 -53 0 -11 6 -14 21 -10 12
3 22 0 26 -8 4 -11 16 -13 49 -8 37 5 44 3 44 -11 0 -24 26 -19 44 9 17 26 22
65 7 65 -5 0 -7 9 -4 20 4 14 0 20 -11 20 -9 0 -16 -6 -16 -13 0 -16 -42 -57
-58 -57 -12 0 16 72 31 78 4 2 7 9 7 15 0 7 12 26 28 43 26 31 52 35 52 10 0
-16 47 -42 57 -32 4 4 2 15 -4 25 -6 10 -14 43 -18 74 -6 47 -11 57 -26 57
-11 0 -19 -6 -19 -14 0 -7 -11 -22 -25 -32 -14 -10 -25 -23 -25 -29 0 -6 -9
-17 -20 -25 -11 -8 -25 -30 -31 -49 -17 -51 -50 -102 -63 -98 -6 2 -26 23 -44
47 l-33 43 34 36 c69 74 107 151 73 151 -9 0 -16 -6 -16 -13 0 -7 -9 -18 -20
-25 -11 -7 -20 -19 -20 -27 0 -9 -6 -12 -17 -8 -11 4 -12 8 -5 11 20 6 13 29
-10 36 -40 10 -48 7 -49 -21 0 -25 -1 -26 -9 -8 -14 33 -11 45 10 45 23 0 25
15 6 51 -7 14 -16 37 -20 52 -4 17 -13 27 -25 27 -10 0 -35 7 -54 15 -20 8
-41 15 -47 15 -5 0 -10 -7 -10 -15z"/>
<path d="M2 694 c0 -33 2 -35 24 -30 14 4 24 2 24 -4 0 -5 -4 -10 -10 -10 -5
0 -10 -7 -10 -15 0 -8 -5 -15 -11 -15 -7 0 -9 -10 -5 -25 4 -14 2 -25 -4 -25
-15 0 -13 -147 3 -154 10 -5 10 -7 0 -12 -18 -8 -18 -250 -1 -257 10 -4 10 -6
1 -6 -9 -1 -13 -20 -13 -61 0 -56 2 -61 26 -70 14 -6 161 -10 344 -10 270 0
321 2 334 15 8 8 19 15 25 15 6 0 11 7 11 15 0 8 -7 15 -15 15 -8 0 -15 -4
-15 -9 0 -5 -9 -11 -20 -14 -11 -3 -20 -1 -20 4 0 5 -9 9 -20 9 -11 0 -20 5
-20 10 0 6 9 10 20 10 11 0 20 -4 20 -10 0 -5 7 -10 15 -10 8 0 15 5 15 10 0
6 13 10 29 10 21 0 30 -6 35 -22 3 -13 1 -25 -4 -26 -18 -6 -11 -22 9 -22 20
0 37 32 26 50 -3 5 -1 10 5 10 14 0 3 62 -14 72 -19 13 -33 9 -39 -12 -8 -30
-67 -29 -67 1 0 16 -5 20 -20 16 -16 -4 -20 0 -20 19 0 29 11 31 30 4 17 -24
40 -26 40 -5 0 8 -5 15 -10 15 -6 0 -8 15 -4 40 5 33 4 40 -10 40 -9 0 -16 -8
-16 -20 0 -16 -7 -20 -30 -20 -16 0 -30 -4 -30 -10 0 -5 -7 -10 -15 -10 -8 0
-15 5 -15 10 0 6 -7 10 -15 10 -8 0 -15 -7 -15 -15 0 -8 7 -15 15 -15 11 0 14
-7 9 -25 -5 -19 -2 -25 10 -25 9 0 16 8 17 18 0 12 3 10 10 -7 11 -28 -8 -102
-21 -81 -4 6 -15 10 -24 8 -10 -2 -25 10 -37 30 -12 17 -16 32 -10 32 6 0 11
7 11 15 0 8 -6 15 -14 15 -8 0 -16 16 -20 39 -3 21 -13 41 -21 45 -27 10 -17
29 12 22 17 -5 29 -3 34 6 4 7 11 9 15 5 4 -4 2 -13 -4 -19 -20 -20 -14 -38
14 -38 26 0 54 20 54 39 0 6 -7 11 -15 11 -8 0 -15 4 -15 9 0 5 -6 11 -12 14
-7 2 -1 2 15 0 19 -3 27 0 27 10 0 18 -53 34 -58 18 -2 -6 -10 -11 -18 -11 -8
0 -14 -3 -14 -7 0 -12 -64 -10 -72 2 -4 5 -8 22 -8 37 0 18 -7 29 -20 33 -14
4 -20 15 -19 33 0 15 3 21 6 15 6 -15 33 -17 33 -3 0 15 -33 50 -47 50 -7 0
-13 -7 -13 -15 0 -8 -5 -15 -10 -15 -6 0 -8 10 -4 24 4 18 1 25 -18 30 -34 9
-38 8 -38 -9 0 -8 7 -15 15 -15 9 0 12 -6 9 -15 -4 -9 3 -23 15 -34 11 -10 21
-24 21 -31 0 -7 10 -21 22 -31 16 -15 18 -19 5 -19 -14 0 -35 -37 -25 -44 1
-2 12 -8 23 -15 17 -10 16 -11 -12 -6 -21 4 -33 3 -33 -4 0 -6 -6 -11 -14 -11
-8 0 -17 -8 -19 -18 -4 -13 -5 -12 -6 5 0 12 -9 24 -18 26 -14 4 -12 5 5 6 12
0 22 6 22 12 0 14 26 39 40 39 8 0 10 8 6 23 -3 12 -6 25 -6 30 0 4 -7 7 -16
7 -12 0 -15 -6 -10 -25 4 -14 2 -25 -4 -25 -5 0 -10 5 -10 10 0 14 -27 13 -32
-1 -3 -8 -10 -6 -21 6 -10 10 -25 14 -35 11 -16 -6 -16 -5 1 8 29 23 21 39
-15 31 -18 -4 -36 -13 -40 -19 -5 -8 -11 -7 -19 1 -10 10 -8 17 9 31 12 11 22
24 22 31 0 6 9 11 20 11 11 0 20 -4 20 -10 0 -5 7 -10 15 -10 8 0 15 6 15 13
0 7 9 23 20 35 11 12 20 26 20 32 0 14 -27 13 -33 -2 -4 -10 -6 -10 -6 0 -1 8
8 16 20 19 16 4 19 11 15 29 -4 14 -2 24 4 24 5 0 10 6 10 14 0 20 -40 32 -52
15 -5 -9 -6 -4 -2 14 5 20 2 27 -9 27 -8 0 -17 -9 -20 -20 -4 -15 -14 -20 -37
-20 -29 0 -31 -2 -29 -32 1 -18 -1 -44 -5 -57 -6 -16 -4 -26 5 -32 11 -6 10
-9 -4 -15 -20 -7 -23 -34 -4 -35 6 0 2 -5 -10 -11 -15 -7 -23 -20 -23 -35 0
-28 -19 -52 -38 -45 -6 2 -12 17 -12 33 0 19 -5 29 -15 29 -8 0 -15 7 -15 15
0 17 38 59 59 66 9 3 14 24 15 62 0 52 2 57 23 57 13 0 24 8 28 20 3 11 11 20
16 20 5 0 9 7 9 15 0 21 -23 19 -40 -5 -8 -11 -22 -20 -32 -20 -10 0 -18 -7
-18 -15 0 -18 -16 -20 -26 -3 -4 6 -2 14 4 16 16 5 15 32 -1 32 -8 0 -19 11
-25 25 -17 38 -40 32 -40 -11z"/>
<path d="M2800 710 c0 -5 -7 -10 -15 -10 -8 0 -15 -7 -15 -15 0 -8 7 -15 15
-15 8 0 15 5 15 10 0 6 5 10 10 10 6 0 10 -7 10 -15 0 -8 -4 -15 -10 -15 -14
0 -12 -19 3 -34 6 -6 29 -22 50 -35 48 -29 47 -41 -3 -41 -22 0 -40 -4 -40 -8
0 -5 -13 -7 -30 -4 -49 7 -37 -22 15 -36 56 -15 59 -32 5 -25 -33 5 -40 3 -40
-11 0 -16 3 -17 100 -20 25 -1 57 -5 72 -10 24 -7 29 -5 37 15 8 21 10 22 16
7 8 -19 35 -25 35 -7 0 5 5 7 12 3 7 -4 32 -9 57 -10 24 -2 47 -8 51 -14 8
-14 181 -6 242 11 31 8 43 8 46 0 5 -16 32 -13 32 3 0 15 50 18 60 4 3 -4 26
-4 50 0 32 5 46 13 48 26 3 16 -1 17 -37 11 -27 -4 -41 -3 -41 4 0 14 -42 12
-104 -5 -27 -8 -65 -14 -83 -14 -19 0 -42 -4 -51 -9 -26 -14 -92 9 -92 31 0
10 -4 18 -10 18 -5 0 -10 5 -10 11 0 14 -25 39 -39 39 -12 0 -14 -11 -5 -34 3
-9 12 -16 20 -16 8 0 14 -7 14 -15 0 -30 -96 -7 -151 36 -20 16 -42 29 -48 29
-6 0 -11 4 -11 9 0 6 -17 26 -37 45 -37 35 -63 46 -63 26 0 -5 -5 -10 -11 -10
-7 0 -9 12 -4 36 6 34 5 36 -14 31 -14 -3 -21 0 -21 9 0 8 -7 14 -15 14 -8 0
-15 -4 -15 -10z"/>
<path d="M2680 640 c0 -5 -7 -10 -16 -10 -11 0 -15 -6 -11 -20 4 -15 0 -20
-14 -20 -14 0 -19 -7 -19 -30 0 -16 -4 -30 -10 -30 -5 0 -10 -8 -11 -17 0 -11
-3 -13 -6 -5 -6 15 -33 16 -33 1 0 -14 25 -39 39 -39 6 0 11 7 11 15 0 8 5 15
10 15 6 0 10 7 10 15 0 9 9 15 25 15 14 0 25 -4 25 -9 0 -5 -9 -7 -20 -4 -14
4 -20 0 -20 -11 0 -9 3 -16 8 -16 4 0 17 -3 28 -6 17 -4 23 0 28 20 3 14 13
26 21 26 8 0 15 5 15 10 0 6 11 10 25 10 18 0 25 5 25 20 0 13 -7 20 -20 20
-11 0 -20 5 -20 10 0 6 -9 10 -20 10 -13 0 -20 7 -20 20 0 11 -7 20 -15 20 -8
0 -15 -4 -15 -10z"/>
<path d="M895 200 c5 -23 3 -30 -9 -30 -9 0 -16 -7 -16 -15 0 -9 9 -15 25 -15
16 0 25 6 25 15 0 26 29 29 50 5 22 -26 25 -40 9 -40 -6 0 -13 9 -16 20 -3 11
-12 20 -20 20 -10 0 -14 -7 -10 -19 3 -14 0 -17 -14 -14 -13 4 -19 0 -19 -11
0 -10 -9 -16 -25 -16 -15 0 -25 -6 -25 -14 0 -23 17 -28 55 -17 l35 9 0 -39
c0 -37 2 -39 30 -39 18 0 33 6 36 15 4 8 12 15 20 15 8 0 14 7 14 15 0 8 5 15
10 15 6 0 10 -7 10 -15 0 -8 -4 -15 -10 -15 -5 0 -10 -7 -10 -15 0 -9 9 -15
25 -15 22 0 25 4 25 35 0 24 -5 35 -15 35 -8 0 -15 5 -15 10 0 6 -7 10 -15 10
-8 0 -15 -7 -15 -15 0 -8 -9 -15 -20 -15 -11 0 -20 -5 -20 -12 0 -9 -3 -9 -11
-1 -8 8 -8 16 0 30 6 10 11 12 11 6 0 -18 30 -16 30 1 0 8 -6 16 -12 19 -7 3
8 3 35 1 36 -3 47 -1 47 10 0 15 -45 30 -61 21 -5 -4 -12 2 -16 12 -9 23 -28
43 -42 43 -6 0 -11 5 -11 11 0 6 -9 9 -20 6 -13 -3 -20 0 -20 9 0 8 -7 14 -16
14 -12 0 -14 -7 -9 -30z"/>
</g>
</svg>
