<?xml version="1.0" standalone="no"?>
<!DOCTYPE svg PUBLIC "-//W3C//DTD SVG 20010904//EN"
 "http://www.w3.org/TR/2001/REC-SVG-20010904/DTD/svg10.dtd">
<svg version="1.0" xmlns="http://www.w3.org/2000/svg"
 width="640.000000pt" height="640.000000pt" viewBox="0 0 640.000000 640.000000"
 preserveAspectRatio="xMidYMid meet">
<metadata>
Created by potrace 1.16, written by Peter Selinger 2001-2019
</metadata>
<g transform="translate(0.000000,640.000000) scale(0.100000,-0.100000)"
fill="#000000" stroke="none">
<path d="M0 5755 c0 -567 2 -645 15 -645 8 0 15 -8 14 -17 0 -11 -3 -13 -6 -5
-2 6 -9 12 -14 12 -6 0 -9 -68 -8 -165 1 -91 6 -165 10 -165 5 0 9 8 9 19 0
14 7 18 30 17 33 -1 42 -16 10 -16 -11 0 -20 -7 -20 -15 0 -8 -9 -15 -20 -15
-19 0 -20 -7 -20 -220 1 -179 3 -220 14 -220 9 0 12 -7 9 -20 -3 -11 -9 -20
-14 -20 -5 0 -9 -18 -9 -40 0 -22 5 -40 10 -40 6 0 10 -7 10 -15 0 -8 -4 -15
-10 -15 -5 0 -10 -13 -10 -30 0 -16 4 -30 10 -30 5 0 7 -7 4 -15 -4 -8 0 -23
7 -32 11 -13 11 -17 2 -20 -16 -6 -17 -33 -2 -33 7 0 22 11 34 24 13 14 26 22
29 19 11 -11 6 -23 -9 -23 -8 0 -15 -7 -15 -16 0 -11 6 -15 19 -11 25 6 37
-42 15 -59 -8 -6 -14 -16 -14 -23 0 -6 -4 -11 -9 -11 -5 0 -13 -9 -16 -20 -10
-30 -25 -24 -25 10 0 20 -5 30 -15 30 -13 0 -15 -240 -15 -1965 l0 -1965 3200
0 3200 0 0 185 c0 117 -4 185 -10 185 -5 0 -10 7 -10 15 0 8 -7 15 -15 15 -8
0 -15 5 -15 10 0 6 11 10 25 10 21 0 25 5 25 30 0 35 -19 47 -48 31 -16 -8
-21 -7 -26 5 -9 22 -9 22 21 26 30 3 47 38 19 38 -12 0 -15 6 -10 24 5 20 2
25 -18 28 -19 4 -16 6 15 12 36 8 53 36 22 36 -8 0 -15 4 -15 9 0 5 9 7 20 4
13 -4 20 0 20 10 0 16 -40 30 -63 21 -8 -3 -17 2 -20 10 -9 23 -41 21 -35 -2
3 -10 -2 -24 -10 -32 -14 -13 -15 -12 -10 2 4 8 9 36 13 61 5 33 11 44 21 40
8 -3 14 -14 14 -24 0 -10 7 -19 15 -19 8 0 15 -4 15 -10 0 -5 7 -10 15 -10 8
0 15 7 15 15 0 8 -7 15 -15 15 -8 0 -15 7 -15 15 0 8 -4 15 -9 15 -5 0 -11 9
-14 20 -5 21 -37 28 -37 9 0 -7 -11 -8 -30 -4 -26 6 -30 4 -30 -14 0 -12 -6
-21 -14 -21 -24 0 -30 -39 -9 -55 16 -13 14 -13 -17 -5 -46 13 -50 13 -50 -5
0 -8 5 -15 10 -15 6 0 10 -8 10 -17 0 -15 -2 -15 -9 -4 -5 8 -16 11 -24 8 -11
-4 -13 0 -10 14 4 15 0 19 -21 19 -14 0 -26 5 -26 10 0 6 -7 10 -15 10 -8 0
-15 -7 -15 -15 0 -8 5 -15 10 -15 6 0 10 -4 10 -10 0 -5 -7 -10 -15 -10 -9 0
-15 -9 -15 -25 0 -18 7 -26 24 -31 42 -10 20 -29 -29 -26 -38 3 -45 1 -45 -14
0 -15 -2 -16 -9 -5 -5 7 -6 22 -4 32 4 13 0 19 -11 19 -10 0 -15 4 -12 9 3 5
15 7 26 4 14 -4 20 0 20 11 0 9 -4 16 -10 16 -5 0 -10 14 -10 30 0 20 -5 30
-15 30 -9 0 -15 -10 -15 -26 0 -22 -2 -24 -14 -11 -9 8 -12 24 -9 36 4 15 1
21 -11 21 -9 0 -16 5 -16 10 0 6 -7 10 -15 10 -8 0 -15 5 -15 10 0 6 -10 10
-21 10 -16 0 -20 -5 -16 -20 3 -11 1 -20 -4 -20 -5 0 -9 5 -9 10 0 6 -7 10
-15 10 -25 0 -19 -59 7 -69 18 -6 19 -9 5 -14 -10 -4 -17 -2 -17 3 0 6 -7 10
-15 10 -8 0 -15 7 -15 15 0 8 -7 15 -15 15 -18 0 -20 -27 -3 -32 7 -3 12 -21
11 -41 -1 -33 2 -37 23 -37 13 0 24 -4 24 -10 0 -11 -20 -13 -44 -4 -11 4 -16
19 -16 46 0 37 -2 40 -22 34 -13 -3 -31 -6 -40 -6 -10 0 -18 -7 -18 -15 0 -8
-4 -15 -10 -15 -5 0 -10 -7 -10 -15 0 -17 -63 -37 -69 -22 -2 5 1 12 6 16 6 3
13 13 16 21 4 12 6 11 6 -2 1 -10 7 -18 15 -18 16 0 31 34 21 50 -4 6 6 10 22
10 24 0 30 6 41 40 6 22 12 46 12 54 0 11 8 13 35 9 27 -4 35 -2 35 10 0 8 -6
18 -12 21 -7 4 4 4 25 2 20 -3 44 -12 53 -20 8 -9 22 -16 30 -16 8 0 14 -4 14
-10 0 -5 7 -10 15 -10 8 0 15 7 15 15 0 8 -7 15 -15 15 -8 0 -15 5 -15 10 0 6
7 10 15 10 8 0 15 7 15 15 0 19 -56 21 -63 3 -3 -7 -6 -3 -6 10 -1 21 -5 23
-31 18 -16 -3 -43 -9 -60 -12 -16 -3 -30 -10 -30 -15 0 -5 -4 -9 -10 -9 -5 0
-10 6 -10 14 0 14 -55 30 -71 20 -5 -3 -9 -18 -9 -35 0 -25 4 -29 28 -30 23
-2 24 -2 5 -6 -13 -2 -23 -12 -24 -21 0 -14 -2 -14 -6 -2 -3 8 -11 18 -16 22
-6 3 -10 23 -9 43 2 39 -23 60 -39 34 -6 -9 -9 0 -9 29 0 29 -4 42 -14 42 -32
0 -46 -14 -52 -51 -4 -23 -12 -39 -20 -39 -8 0 -14 4 -14 9 0 5 -8 12 -17 14
-11 3 -7 5 10 6 35 1 38 31 2 31 -20 0 -25 5 -24 23 1 16 2 18 6 5 5 -22 29
-24 37 -3 3 8 12 15 21 15 18 0 21 29 3 31 -74 8 -98 6 -98 -7 0 -8 -6 -14
-14 -14 -9 0 -12 7 -9 21 5 16 1 20 -13 19 -35 -4 -44 0 -43 18 0 10 3 12 6 5
8 -22 36 -15 30 7 -3 11 -3 20 0 20 8 0 33 -28 33 -38 0 -6 34 -9 80 -8 61 1
80 -2 80 -13 0 -7 11 -22 24 -32 14 -11 28 -33 31 -50 6 -27 10 -30 33 -24 15
4 30 12 34 18 11 17 10 37 -2 37 -5 0 -10 11 -10 24 0 20 -6 24 -41 30 -36 6
-39 8 -25 22 23 23 21 48 -4 41 -27 -7 -25 -3 10 33 32 33 39 60 15 60 -11 0
-14 7 -9 25 5 19 2 25 -10 25 -9 0 -16 -7 -16 -15 0 -16 -12 -18 -47 -9 -14 4
-23 14 -23 25 0 11 -7 19 -17 19 -17 1 -17 1 0 11 20 12 23 39 5 39 -9 0 -10
2 -2 8 7 4 14 16 17 27 4 18 5 18 6 -2 0 -13 7 -23 15 -23 18 0 33 43 17 48
-6 2 -11 8 -11 13 0 5 -9 18 -20 29 -21 21 -50 27 -50 10 0 -5 -7 -10 -15 -10
-8 0 -15 -7 -15 -15 0 -18 27 -20 33 -2 8 23 14 2 9 -35 -2 -24 -10 -38 -18
-38 -8 0 -14 7 -14 15 0 19 -39 19 -64 0 -10 -8 -16 -21 -13 -29 3 -8 -1 -17
-9 -20 -8 -3 -14 -12 -14 -21 0 -8 -6 -15 -14 -15 -8 0 -17 -6 -20 -12 -5 -10
-7 -10 -12 0 -3 6 -13 12 -21 12 -11 0 -14 -7 -9 -24 5 -19 1 -26 -15 -31 -11
-4 -23 -4 -26 -1 -4 3 1 6 10 6 27 0 20 27 -8 34 -20 5 -31 0 -52 -21 -17 -18
-27 -24 -30 -15 -3 6 -11 12 -19 12 -8 0 -14 -6 -14 -12 0 -26 18 -39 56 -43
21 -2 41 -4 44 -5 18 -2 -31 -20 -58 -20 -39 0 -61 17 -54 42 2 11 -1 18 -9
18 -23 0 -42 -17 -36 -32 4 -11 -1 -14 -18 -10 -17 3 -21 9 -17 24 3 14 -1 21
-17 25 -15 4 -20 11 -16 21 3 8 0 31 -6 49 -9 29 -15 34 -33 29 -11 -3 -27 -6
-33 -6 -7 0 -13 -5 -13 -11 0 -24 -43 -50 -72 -44 -24 6 -28 3 -28 -14 0 -16
7 -21 28 -22 16 -1 20 -3 10 -6 -10 -2 -18 -13 -18 -23 0 -25 -38 -33 -45 -9
-7 22 -14 23 -49 9 -21 -8 -26 -16 -26 -45 0 -43 27 -49 33 -8 l4 28 2 -27 c0
-18 7 -28 17 -28 8 0 22 -7 30 -15 14 -13 14 -15 -1 -15 -12 0 -16 -6 -12 -20
3 -13 0 -20 -9 -20 -8 0 -14 -7 -14 -16 0 -12 6 -15 23 -10 12 3 26 6 31 6 4
0 6 9 3 20 -3 13 0 20 9 20 10 0 13 -7 8 -25 -6 -23 -4 -25 32 -26 28 -1 32
-3 14 -6 -14 -3 -28 -10 -32 -17 -6 -8 -8 -8 -8 2 0 6 -8 12 -19 12 -20 0 -35
-47 -25 -75 7 -18 34 -20 34 -2 0 7 9 20 20 30 17 14 20 14 20 2 0 -8 -7 -15
-15 -15 -8 0 -15 -7 -15 -15 0 -8 9 -15 20 -15 11 0 20 -4 20 -10 0 -5 -4 -10
-10 -10 -5 0 -10 -7 -10 -15 0 -8 -4 -15 -9 -15 -5 0 -7 9 -4 20 4 16 0 20
-20 20 -14 0 -29 5 -33 11 -3 6 -19 9 -34 5 -23 -4 -29 -1 -34 17 -3 12 0 24
6 28 14 9 3 39 -15 39 -8 0 -18 -10 -24 -22 -7 -17 -18 -23 -42 -23 -18 0 -31
5 -31 13 0 7 -14 15 -30 19 -33 6 -41 33 -10 33 11 0 20 7 20 15 0 10 -11 15
-35 15 -32 0 -35 -2 -35 -29 0 -16 6 -32 13 -34 7 -3 5 -6 -5 -6 -13 -1 -18 7
-18 24 0 20 -5 25 -25 25 -14 0 -25 5 -25 10 0 6 -7 10 -15 10 -8 0 -15 -4
-15 -9 0 -23 14 -41 31 -41 16 0 18 -5 13 -25 -5 -19 -2 -25 10 -25 9 0 16 6
16 13 0 9 2 9 9 -1 5 -9 17 -11 34 -6 20 4 27 2 27 -9 0 -8 -7 -17 -15 -21 -8
-3 -15 -12 -15 -21 0 -27 41 -15 53 15 4 12 6 11 6 -2 1 -13 9 -18 31 -18 17
0 30 5 30 13 0 8 3 8 9 -2 5 -8 16 -11 25 -8 10 4 16 1 16 -7 0 -8 -5 -16 -12
-18 -7 -3 -9 -12 -5 -22 6 -14 16 -17 52 -14 25 2 44 -1 44 -7 0 -5 -9 -9 -19
-7 -30 5 -25 -25 8 -43 27 -16 27 -16 2 -11 -25 6 -80 -13 -80 -26 0 -5 -16
-8 -35 -8 -19 0 -35 -4 -35 -10 0 -5 -9 -10 -20 -10 -11 0 -20 -7 -20 -15 0
-9 9 -15 25 -15 14 0 25 4 25 10 0 5 7 7 15 4 8 -4 15 -12 15 -20 0 -8 7 -14
16 -14 8 0 13 -4 9 -9 -3 -6 -17 -4 -33 5 -15 7 -33 14 -39 14 -21 0 -15 -27
7 -33 11 -3 20 -11 20 -19 0 -10 -2 -10 -9 1 -5 8 -18 12 -30 8 -16 -4 -21 -1
-21 14 0 28 -36 25 -44 -4 -3 -12 -4 -31 -2 -42 2 -11 1 -14 -1 -7 -3 6 -13
12 -24 12 -17 0 -19 -5 -15 -37 3 -21 3 -30 0 -20 -6 18 -54 25 -54 7 0 -5
-11 -10 -24 -10 -17 0 -26 7 -30 25 -6 23 -36 36 -36 16 0 -21 13 -41 26 -41
8 0 14 -7 14 -15 0 -10 10 -15 30 -15 17 0 30 -4 30 -9 0 -5 -17 -5 -41 0 -22
5 -44 7 -49 4 -10 -6 -24 49 -23 90 3 71 6 91 10 69 3 -16 14 -24 39 -28 28
-6 34 -11 34 -31 0 -15 6 -25 14 -25 16 0 27 47 19 79 -5 19 -11 22 -34 17
-16 -3 -29 -2 -29 3 0 13 25 20 48 15 14 -4 21 1 26 18 l7 23 10 -25 c20 -48
59 -55 59 -10 0 17 4 30 10 30 5 0 9 22 9 50 -1 35 -6 50 -15 50 -8 0 -14 11
-14 25 0 14 -4 25 -10 25 -5 0 -10 9 -10 20 0 16 -7 20 -30 20 -30 0 -43 -23
-17 -33 6 -3 2 -6 -11 -6 -12 -1 -25 -8 -28 -16 -4 -8 -14 -15 -23 -15 -9 0
-23 -6 -30 -13 -11 -10 -12 -7 -6 13 4 14 12 26 16 28 15 6 10 32 -6 32 -8 0
-15 -7 -15 -15 0 -8 -4 -15 -10 -15 -5 0 -10 -6 -10 -14 0 -9 -7 -12 -19 -9
-14 3 -20 -2 -25 -22 -8 -30 -1 -45 21 -45 10 0 14 6 10 19 -3 13 0 18 8 15
19 -8 6 -44 -16 -44 -13 0 -19 -7 -20 -22 0 -23 -1 -22 -12 2 -6 14 -18 30
-27 37 -13 11 -13 12 1 13 17 0 34 43 24 59 -3 5 6 12 20 15 18 5 25 13 25 30
0 19 4 23 20 19 14 -4 20 0 20 11 0 9 -4 16 -9 16 -5 0 -7 8 -4 19 3 12 -2 20
-15 23 -27 7 -32 48 -9 71 10 10 20 31 24 47 3 17 11 30 17 30 6 0 17 9 24 20
7 11 18 20 26 20 8 0 16 7 20 15 3 8 16 15 28 15 21 -1 22 -2 6 -14 -10 -7
-18 -18 -18 -25 0 -16 26 -13 45 6 14 14 18 14 26 2 5 -8 9 -20 9 -26 0 -22
-34 -53 -57 -53 -15 0 -23 -6 -24 -17 0 -14 -3 -13 -11 5 -6 12 -19 22 -30 22
-10 0 -18 5 -18 10 0 6 -7 10 -15 10 -8 0 -15 -9 -15 -20 0 -11 7 -20 15 -20
8 0 25 -11 39 -25 33 -33 86 -35 86 -4 0 15 4 19 16 15 9 -3 22 -6 30 -6 8 0
14 -7 14 -15 0 -8 5 -15 10 -15 6 0 10 -6 10 -14 0 -8 6 -17 13 -19 7 -3 5 -6
-5 -6 -22 -1 -24 -31 -3 -31 8 0 15 -4 15 -10 0 -14 19 -13 34 3 8 6 23 19 35
27 25 17 27 35 6 44 -8 3 -15 14 -15 25 0 17 -18 31 -41 31 -15 0 -10 -40 6
-56 8 -9 15 -19 15 -24 0 -5 -7 -7 -15 -4 -8 4 -15 12 -15 19 0 7 -4 15 -9 17
-13 5 0 68 14 68 14 0 31 37 22 47 -3 2 -24 7 -46 10 -46 6 -53 18 -17 27 14
3 27 14 29 24 3 10 5 5 6 -12 1 -24 4 -27 24 -22 12 3 25 6 30 6 11 0 8 28 -4
32 -14 5 0 38 17 38 8 0 14 7 14 15 0 8 5 15 10 15 6 0 10 6 10 14 0 13 -28
26 -57 26 -18 0 -16 -28 2 -32 10 -2 12 -7 5 -18 -8 -13 -11 -13 -19 -1 -14
22 -55 6 -68 -26 l-11 -28 -1 28 c-1 24 -5 27 -33 27 -31 0 -33 3 -35 35 -1
19 3 35 8 35 5 0 9 7 9 15 0 8 5 15 10 15 6 0 10 7 10 15 0 8 -7 15 -15 15 -8
0 -15 -7 -15 -15 0 -9 -9 -15 -25 -15 -16 0 -25 -6 -25 -15 0 -8 -4 -15 -10
-15 -5 0 -10 -15 -11 -32 0 -18 -3 -27 -6 -20 -7 18 -73 16 -73 -3 0 -8 5 -15
10 -15 6 0 10 -7 10 -15 0 -8 9 -15 19 -15 11 0 26 7 35 15 18 19 24 19 42 1
20 -20 18 -23 -17 -30 -18 -3 -38 -14 -45 -24 -8 -10 -13 -12 -14 -4 0 20 -30
14 -30 -7 0 -30 -11 -51 -26 -51 -8 0 -14 -8 -14 -18 0 -10 -10 -29 -22 -41
l-21 -24 -16 37 c-9 20 -19 36 -23 36 -12 0 -58 -47 -58 -59 0 -14 23 -14 37
0 9 9 10 7 6 -10 -4 -15 -1 -21 11 -21 9 0 16 6 17 13 0 12 17 -20 18 -36 1
-4 -20 -7 -46 -5 -54 3 -68 -16 -36 -48 17 -17 17 -18 0 -11 -10 4 -21 7 -23
7 -2 0 -4 7 -4 15 0 8 -7 15 -15 15 -8 0 -15 -7 -15 -15 0 -8 5 -15 10 -15 6
0 10 -11 10 -25 0 -14 5 -25 12 -25 6 0 8 -3 5 -6 -4 -4 -13 -1 -21 6 -12 9
-22 9 -46 -1 -16 -8 -30 -19 -30 -25 0 -7 -7 -14 -15 -18 -8 -3 -20 -17 -25
-31 -7 -18 -17 -25 -35 -25 -14 0 -25 5 -25 10 0 6 9 10 20 10 22 0 28 35 8
43 -10 4 -10 6 0 6 6 1 12 7 12 15 0 10 15 17 43 21 l44 7 0 44 c0 36 -4 44
-16 42 -9 -2 -17 -15 -19 -30 l-3 -28 -25 25 c-24 24 -32 55 -14 55 6 0 10 -7
10 -15 0 -8 5 -15 10 -15 17 0 60 47 60 65 0 9 9 15 25 15 39 0 29 24 -17 43
-26 10 -32 15 -16 12 15 -3 44 2 65 10 29 12 43 13 70 4 18 -6 33 -17 33 -25
0 -8 5 -14 11 -14 16 0 39 26 39 44 0 19 -27 22 -33 3 -2 -6 -2 0 0 15 3 20 0
28 -10 28 -9 0 -17 -8 -19 -17 -3 -14 -7 -13 -31 9 -37 34 -34 48 9 48 35 0
64 18 64 39 0 14 -11 14 -44 1 -24 -9 -26 -7 -26 18 0 41 -13 54 -43 46 -33
-8 -35 -27 -4 -42 16 -8 18 -11 5 -11 -9 -1 -18 -7 -21 -13 -4 -10 -37 49 -37
65 0 2 25 9 55 16 37 9 55 17 55 28 0 11 -6 14 -26 9 -23 -6 -25 -5 -13 8 34
37 40 47 45 76 4 18 2 30 -4 30 -5 0 -8 9 -5 20 5 17 0 20 -31 20 -32 0 -36
-3 -36 -25 0 -14 -4 -25 -9 -25 -5 0 -7 9 -4 20 4 14 0 20 -10 20 -9 0 -18
-13 -22 -30 -4 -17 -11 -30 -15 -30 -5 0 -16 -12 -24 -27 -8 -16 -15 -22 -16
-15 0 14 -40 17 -40 3 0 -21 13 -41 26 -41 8 0 14 -6 14 -14 0 -8 8 -17 18
-19 16 -4 16 -5 0 -6 -21 -1 -25 -31 -4 -31 23 0 27 -28 5 -35 -10 -4 -19 -11
-19 -16 0 -5 -7 -9 -16 -9 -25 0 -12 -33 16 -41 l25 -7 -27 -1 c-21 -1 -27 -6
-30 -29 -2 -22 -7 -26 -25 -24 -31 4 -31 -26 0 -38 17 -7 18 -9 5 -9 -10 -1
-18 -6 -18 -12 0 -7 -14 -8 -41 -4 -41 7 -42 7 -35 -19 5 -19 3 -26 -9 -26 -8
0 -15 5 -15 11 0 6 -9 9 -20 6 -11 -3 -20 -1 -20 4 0 5 -7 9 -15 9 -8 0 -15 5
-15 10 0 6 -7 10 -15 10 -8 0 -15 -7 -15 -15 0 -8 7 -15 15 -15 8 0 15 -4 15
-10 0 -5 7 -10 16 -10 13 0 13 -2 -2 -17 -13 -13 -19 -14 -22 -5 -2 7 -10 18
-17 25 -7 7 -15 22 -19 34 -6 18 -1 21 39 27 29 5 45 12 45 22 0 8 5 14 10 14
6 0 10 6 10 14 0 13 -20 26 -41 26 -14 0 -11 -30 4 -31 20 -1 -26 -18 -51 -18
-34 -1 -54 -25 -46 -56 3 -14 10 -25 14 -25 4 0 11 -11 14 -25 4 -14 13 -25
21 -25 8 0 15 -4 15 -10 0 -17 22 -11 40 10 19 22 50 18 50 -6 0 -22 27 -16
54 11 14 14 30 25 36 25 5 0 10 5 10 10 0 6 7 10 15 10 8 0 15 5 15 10 0 6 9
10 20 10 24 0 26 -25 5 -46 -13 -14 -15 -14 -15 0 0 9 -7 16 -15 16 -8 0 -15
-4 -15 -10 0 -5 -7 -10 -15 -10 -10 0 -15 -11 -15 -35 0 -28 -4 -35 -20 -35
-11 0 -20 -3 -20 -7 0 -13 -49 -32 -56 -22 -3 5 -12 9 -20 9 -18 0 -19 -29 0
-36 17 -7 9 -54 -10 -54 -23 0 -29 4 -27 20 3 20 -17 70 -28 70 -5 0 -9 6 -9
14 0 8 -7 16 -15 20 -8 3 -12 11 -9 19 8 21 -13 65 -33 71 -18 6 -57 75 -48
85 3 2 5 -1 5 -7 0 -7 7 -12 15 -12 8 0 15 5 15 10 0 6 7 10 15 10 8 0 15 7
15 15 0 9 -9 15 -25 15 -16 0 -25 6 -25 15 0 8 5 15 10 15 6 0 10 5 10 10 0 6
16 27 35 47 19 20 35 41 35 47 0 6 9 17 20 24 11 7 20 21 20 31 0 10 7 21 15
25 8 3 15 12 15 21 0 8 5 15 10 15 6 0 10 8 11 18 0 10 3 12 6 5 7 -18 33 -16
33 2 0 8 -4 15 -10 15 -5 0 -10 7 -10 15 0 8 -7 15 -15 15 -8 0 -15 -9 -15
-20 0 -11 -7 -20 -15 -20 -8 0 -15 -7 -15 -15 0 -8 -4 -15 -10 -15 -5 0 -10
-9 -10 -20 0 -13 -5 -18 -15 -14 -8 4 -15 12 -15 20 0 8 -7 14 -15 14 -8 0
-15 -9 -15 -20 0 -11 5 -20 11 -20 19 0 1 -47 -31 -82 -17 -18 -30 -35 -30
-39 0 -4 -9 -9 -20 -12 -14 -4 -20 -14 -20 -35 0 -25 -3 -29 -20 -25 -22 6
-50 51 -50 80 0 13 7 18 25 18 14 -1 28 -5 32 -8 14 -15 43 -7 43 12 0 24 -49
43 -90 34 -26 -5 -30 -3 -30 17 0 20 -4 22 -30 17 -26 -6 -30 -3 -30 14 0 35
-47 109 -69 109 -5 0 -13 17 -17 38 -9 52 -27 92 -41 92 -7 0 -13 7 -13 15 0
8 -9 15 -19 15 -11 0 -23 5 -26 10 -3 5 1 10 9 10 20 0 21 29 1 36 -20 8 -19
33 3 41 25 9 52 45 52 71 0 12 4 22 8 22 5 0 14 15 22 34 17 43 57 56 179 56
74 0 91 -3 91 -15 0 -8 -7 -15 -15 -15 -8 0 -15 -7 -15 -15 0 -8 7 -15 15 -15
8 0 15 5 15 10 0 6 7 10 15 10 8 0 15 8 15 18 0 16 14 21 85 32 69 11 85 16
83 29 -3 11 -13 15 -36 13 -22 -1 -35 3 -38 13 -8 21 -34 19 -34 -2 0 -12 -3
-14 -8 -6 -4 7 -27 15 -52 19 -24 4 -55 13 -69 21 -14 7 -33 13 -41 13 -9 0
-44 15 -78 33 l-63 34 38 29 c54 41 133 120 133 133 0 22 -36 10 -70 -24 -58
-57 -124 -115 -132 -115 -4 0 -19 12 -33 26 l-26 26 21 18 c11 9 20 22 20 29
0 6 5 11 10 11 6 0 10 7 10 15 0 8 -7 15 -15 15 -8 0 -15 -5 -15 -10 0 -6 -11
-22 -25 -36 -18 -18 -25 -21 -25 -9 0 8 5 15 10 15 6 0 10 6 10 14 0 8 4 16 9
18 5 2 13 15 16 31 6 21 4 27 -9 27 -9 0 -16 -7 -16 -15 0 -8 -4 -15 -9 -15
-5 0 -11 -9 -14 -20 -8 -29 -25 -25 -19 5 3 20 0 25 -17 25 -13 0 -21 6 -21
18 0 9 -7 26 -16 37 -9 12 -12 30 -8 47 3 17 1 28 -5 28 -7 0 -11 24 -11 60 0
47 3 60 15 60 8 0 15 7 15 15 0 8 -6 15 -14 15 -11 0 -13 9 -9 38 3 20 10 39
15 40 4 2 8 15 8 29 0 13 7 31 15 39 19 19 20 54 1 54 -18 0 -33 -19 -41 -53
-4 -15 -11 -27 -16 -27 -4 0 -11 -15 -14 -34 -5 -22 -14 -36 -26 -39 -24 -6
-24 4 1 53 11 22 20 51 20 65 0 15 7 28 18 32 25 9 52 34 52 50 0 18 -25 17
-40 -2 -7 -9 -15 -13 -17 -11 -3 3 11 20 31 39 38 38 45 57 21 57 -8 0 -15 5
-15 10 0 6 -7 10 -15 10 -8 0 -15 -4 -15 -10 0 -5 -8 -19 -17 -31 -10 -11 -28
-32 -39 -46 -12 -14 -26 -23 -32 -19 -5 3 -21 31 -36 62 -28 59 -42 77 -66 87
-9 3 -10 6 -2 6 14 1 17 31 2 31 -5 0 -10 7 -10 15 0 7 -6 18 -13 22 -7 4 -19
23 -26 41 -8 17 -18 32 -23 32 -5 0 -6 5 -2 11 4 8 9 7 15 -2 7 -11 16 -10 49
9 33 18 40 20 40 7 0 -8 7 -15 15 -15 8 0 15 5 15 11 0 11 6 10 63 -8 13 -4
17 1 18 18 1 17 3 19 6 7 2 -10 11 -18 19 -18 17 0 19 26 2 33 -7 3 2 8 20 12
19 5 32 14 32 23 0 11 -9 14 -45 10 -37 -5 -45 -2 -50 13 -8 23 -35 25 -35 4
0 -19 -29 -32 -39 -17 -3 6 -19 14 -34 17 -21 6 -27 4 -27 -10 0 -12 -5 -15
-20 -10 -12 4 -27 1 -35 -5 -12 -10 -15 -9 -15 8 0 11 5 22 11 24 15 5 2 48
-15 48 -7 0 -18 -10 -23 -22 -10 -21 -12 -21 -18 -5 -11 27 2 49 25 42 11 -3
29 -3 40 0 23 7 27 35 5 35 -8 0 -15 5 -15 10 0 16 -62 12 -81 -6 -16 -15 -19
-14 -32 13 -18 33 -4 53 37 53 13 0 27 6 29 13 3 6 6 0 6 -15 1 -29 38 -50 51
-28 4 7 12 0 20 -19 7 -17 19 -31 26 -31 18 0 18 18 -1 54 -19 36 -19 46 0 46
18 0 20 26 3 33 -7 3 13 6 45 6 51 1 57 -1 57 -19 0 -15 7 -20 25 -20 18 0 25
5 25 20 0 17 7 20 45 20 33 0 45 -4 45 -15 0 -8 7 -15 15 -15 8 0 15 -4 15
-10 0 -5 7 -10 15 -10 8 0 15 7 15 15 0 8 -4 15 -10 15 -5 0 -10 5 -10 10 0 6
14 10 30 10 17 0 30 -4 30 -10 0 -14 27 -12 33 3 3 6 6 2 6 -10 1 -16 7 -23
20 -23 11 0 21 5 23 10 3 10 275 17 285 7 2 -3 3 -20 1 -39 l-4 -33 -19 32
c-11 18 -28 33 -37 33 -15 0 -18 -10 -19 -52 -1 -57 1 -252 5 -384 2 -79 2
-80 -21 -76 -16 3 -23 0 -23 -12 0 -9 8 -16 20 -16 11 0 20 -7 20 -15 0 -8 7
-15 15 -15 8 0 15 5 15 10 0 6 14 10 30 10 18 0 30 5 30 13 0 7 9 19 20 27 11
8 20 25 20 37 0 13 6 23 14 23 7 0 16 9 19 20 3 11 10 20 15 20 15 0 56 -61
57 -84 0 -13 9 -22 25 -26 19 -5 24 -12 22 -28 -2 -15 2 -22 12 -22 9 0 16 5
16 10 0 6 20 10 45 10 33 0 45 -4 45 -15 0 -8 7 -15 15 -15 12 0 15 16 15 85
0 50 4 85 10 85 6 0 10 -28 10 -64 0 -36 4 -67 9 -70 5 -3 36 -7 70 -8 41 -2
61 -7 61 -15 0 -7 7 -13 15 -13 8 0 15 7 15 15 0 8 5 15 10 15 6 0 10 -18 10
-40 0 -33 4 -40 19 -40 26 0 31 18 31 118 0 54 4 82 9 73 5 -7 6 -40 4 -72 -5
-50 -3 -59 11 -59 9 0 16 5 16 11 0 8 34 10 110 7 l110 -3 0 47 c0 27 5 48 10
48 6 0 10 -27 10 -60 0 -47 3 -60 15 -60 8 0 15 7 15 15 0 11 11 15 40 15 29
0 40 -4 40 -15 0 -8 6 -15 14 -15 9 0 14 12 14 36 0 19 3 38 6 41 3 4 6 -12 6
-34 0 -39 11 -53 41 -53 14 0 11 28 -3 33 -7 3 26 4 74 4 49 -1 88 -5 88 -9 0
-5 7 -8 15 -8 13 0 15 21 15 125 0 77 4 125 10 125 8 0 17 -260 11 -322 -1
-10 4 -18 13 -18 14 0 20 20 29 90 3 21 47 26 47 6 0 -9 7 -16 15 -16 18 0 18
4 6 48 -9 30 -8 32 14 32 14 0 25 7 28 18 5 17 11 -57 8 -89 -1 -9 5 -19 14
-23 8 -3 20 -17 25 -31 9 -24 40 -36 40 -15 0 6 4 10 9 10 5 0 7 -9 4 -20 -4
-14 0 -20 11 -20 9 0 16 8 17 18 0 10 3 12 6 5 2 -7 9 -13 15 -13 13 0 47 41
48 58 0 6 7 12 15 12 8 0 15 7 15 15 0 8 5 15 10 15 6 0 10 -4 10 -10 0 -5 8
-10 18 -11 10 0 12 -3 5 -6 -7 -2 -13 -12 -13 -20 0 -11 7 -14 25 -11 27 6 34
-6 10 -16 -24 -9 -19 -39 5 -33 11 3 20 1 20 -4 0 -5 7 -9 16 -9 12 0 15 6 10
25 -5 19 -3 23 9 19 8 -4 15 -12 15 -20 0 -8 7 -14 15 -14 18 0 20 26 3 33
-10 4 -10 6 0 6 6 1 12 10 12 21 0 10 7 23 16 28 12 6 15 18 12 36 -3 14 -1
26 3 26 8 0 13 -23 10 -43 -1 -5 4 -26 10 -48 10 -31 17 -39 36 -39 14 0 23 6
23 15 0 8 -6 15 -14 15 -12 0 -25 28 -26 53 0 4 41 7 90 7 73 0 90 -3 90 -15
0 -21 28 -19 33 3 4 16 5 16 6 0 1 -22 31 -24 31 -3 0 10 10 15 30 15 17 0 30
-4 30 -10 0 -5 7 -10 16 -10 9 0 14 8 13 18 -3 32 1 42 16 42 8 0 15 7 15 15
0 8 -6 15 -13 15 -8 0 -19 11 -24 23 -11 24 -10 24 36 19 43 -4 48 -2 59 22
15 33 15 46 2 46 -6 0 -22 11 -36 25 -14 14 -31 25 -39 25 -9 0 -15 -10 -15
-25 0 -14 -5 -25 -11 -25 -6 0 -17 -7 -26 -16 -11 -11 -19 -12 -26 -5 -8 8 -7
15 1 23 14 14 16 57 3 77 -5 8 -17 12 -28 9 -14 -4 -18 0 -18 17 1 23 35 67
35 46 0 -19 28 -12 33 9 3 12 14 20 26 20 22 0 27 15 12 39 -5 8 -16 11 -26 7
-31 -11 -34 4 -9 47 45 79 48 78 -153 75 l-178 -3 -3 -47 c-4 -65 -19 -61 -27
7 -7 52 -9 55 -36 55 -19 0 -29 -5 -29 -15 0 -8 7 -15 15 -15 8 0 15 -4 15 -9
0 -5 -9 -7 -19 -4 -21 5 -37 46 -21 51 16 6 11 32 -5 32 -8 0 -15 -4 -15 -10
0 -5 -7 -10 -16 -10 -12 0 -15 -6 -10 -22 3 -13 6 -33 6 -45 0 -18 6 -23 28
-23 32 0 64 -19 45 -27 -15 -6 -17 -33 -3 -33 6 0 10 -4 10 -10 0 -5 -9 -10
-19 -10 -15 0 -20 -9 -23 -42 -2 -24 -2 -65 0 -91 4 -41 7 -48 23 -44 17 5 19
-1 19 -45 0 -30 -4 -47 -10 -43 -6 3 -10 13 -10 21 0 8 -4 14 -9 14 -5 0 -7 9
-4 19 3 13 -1 20 -13 23 -10 1 -43 45 -75 98 -54 90 -58 95 -90 95 l-34 0 -1
-105 c-3 -141 -22 -148 -26 -8 -3 102 -3 103 -28 106 -14 2 -35 8 -47 14 -17
8 -29 8 -48 0 -18 -8 -59 -9 -151 -2 -70 5 -130 7 -135 4 -5 -3 -9 15 -9 40 0
45 0 45 30 40 22 -5 30 -3 30 7 0 27 -17 41 -39 34 -15 -5 -21 -2 -21 9 0 12
11 16 48 16 61 0 92 9 92 26 0 8 7 14 15 14 8 0 15 -7 15 -16 0 -13 6 -15 28
-10 18 4 22 4 13 -3 -9 -6 -11 -18 -7 -35 4 -15 2 -26 -4 -26 -5 0 -10 -7 -10
-15 0 -8 7 -15 15 -15 8 0 15 5 15 10 0 6 6 10 14 10 8 0 17 6 19 13 3 6 6 0
6 -15 1 -21 6 -28 20 -28 26 0 32 34 17 105 -10 51 -15 60 -35 63 -18 3 -21 6
-11 12 7 5 14 24 14 44 1 20 5 36 10 36 4 0 6 16 4 35 -2 19 0 35 5 35 4 0 7
26 5 58 -3 48 -6 57 -22 57 -13 0 -23 -16 -40 -64 -11 -36 -28 -67 -36 -69
-12 -4 -13 -2 -4 9 7 8 12 42 13 77 0 59 -1 63 -20 60 -16 -2 -26 -18 -41 -65
-22 -67 -75 -133 -108 -133 -10 0 -21 -4 -24 -9 -4 -5 -39 -15 -79 -21 -39 -7
-75 -18 -79 -24 -5 -8 -13 -8 -28 1 -38 24 -110 10 -110 -22 0 -8 -6 -15 -14
-15 -9 0 -12 7 -9 20 3 11 1 20 -4 20 -6 0 -8 11 -5 25 6 34 -24 34 -32 0 -7
-27 -26 -34 -26 -10 0 16 -9 19 -34 9 -24 -9 -20 -37 4 -31 11 3 20 1 20 -4 0
-5 -9 -9 -20 -9 -11 0 -20 -7 -20 -15 0 -9 -9 -15 -25 -15 -16 0 -25 6 -25 15
0 8 -4 15 -10 15 -5 0 -10 11 -10 25 0 14 5 25 10 25 6 0 10 7 10 15 0 8 9 15
20 15 11 0 20 -4 20 -10 0 -5 9 -10 20 -10 15 0 20 7 20 25 0 20 -5 25 -25 25
-14 0 -28 7 -31 15 -4 8 -15 15 -25 15 -10 0 -19 6 -20 13 0 6 0 80 1 164 1
165 -4 203 -27 203 -12 0 -15 -14 -13 -77 2 -43 2 -105 1 -138 -1 -54 -2 -57
-15 -40 -37 53 -75 137 -86 188 -7 37 -16 57 -26 57 -10 0 -14 -14 -14 -57 0
-90 -15 -98 -39 -20 -15 49 -20 93 -20 174 0 137 2 163 12 163 4 0 7 7 7 16 0
20 42 118 52 122 4 2 8 10 8 18 0 8 5 14 11 14 5 0 9 9 7 19 -2 10 5 28 16 39
25 29 43 10 39 -41 -3 -32 0 -38 14 -35 11 2 18 13 18 25 0 12 4 25 8 29 8 8
8 0 8 -203 1 -102 4 -133 14 -133 15 0 23 60 24 175 1 208 -2 192 27 199 19 5
25 12 21 26 -3 13 3 22 24 30 16 7 29 16 29 21 0 5 4 9 9 9 5 0 7 -10 4 -21
-6 -20 -3 -21 22 -15 15 4 40 10 56 13 30 6 39 27 17 36 -7 3 -1 6 15 6 18 1
27 -4 27 -14 0 -10 11 -15 35 -15 37 0 50 25 18 33 -10 3 7 4 37 4 31 0 41 -2
23 -4 -50 -6 -43 -33 7 -33 29 0 40 4 40 15 0 11 10 15 38 14 20 -1 29 -3 20
-6 -27 -7 -22 -33 6 -33 22 0 23 -2 13 -44 -11 -51 -3 -96 18 -96 8 0 15 5 15
11 0 6 7 18 16 26 8 9 13 24 11 34 -4 14 0 19 15 19 15 0 19 5 15 20 -3 11 -1
20 4 20 5 0 9 7 9 16 0 11 5 14 16 10 9 -3 20 -6 25 -6 6 0 7 -5 4 -11 -8 -11
18 -70 48 -111 11 -15 25 -48 32 -75 10 -41 16 -48 39 -51 24 -3 27 0 26 20
-1 13 -2 62 -1 111 l1 87 36 0 36 0 -2 -67 c-2 -38 -2 -121 -1 -185 1 -102 3
-117 19 -121 16 -4 16 -5 0 -6 -16 -1 -18 -15 -18 -133 -1 -338 -9 -471 -30
-532 -11 -33 -18 -68 -14 -78 6 -19 34 -25 34 -8 0 6 20 10 45 10 33 0 45 -4
45 -15 0 -22 47 -19 53 3 4 16 5 16 6 0 0 -10 8 -18 17 -18 11 0 15 6 11 20
-3 12 0 20 8 20 8 0 11 -8 8 -20 -4 -14 0 -20 11 -20 9 0 16 7 16 15 0 12 13
15 59 15 54 0 59 -2 54 -20 -4 -14 0 -20 12 -20 9 0 19 9 22 20 4 16 14 20 49
20 36 0 44 3 44 19 0 15 -10 20 -47 26 -107 15 -132 25 -142 59 -6 18 -11 185
-12 406 -1 206 -6 391 -11 410 -15 58 -15 110 1 110 11 0 13 14 7 70 -4 45 -2
70 4 70 5 0 10 6 10 14 0 10 10 14 33 13 31 -2 32 -3 28 -39 l-3 -38 76 0 c60
0 76 3 76 15 0 8 6 12 14 9 8 -3 12 -13 8 -26 -4 -18 -2 -20 16 -16 23 6 25 2
22 -44 -1 -16 3 -28 9 -28 6 0 11 -7 11 -15 0 -8 7 -15 15 -15 8 0 15 7 15 15
0 8 -5 15 -12 15 -6 0 -3 6 7 14 11 8 16 19 12 30 -5 12 -3 15 6 9 26 -15 34
-28 29 -45 -2 -9 3 -24 11 -33 35 -34 39 -20 41 160 l1 90 -45 -5 c-47 -5
-257 -5 -335 0 l-45 3 6 330 5 329 -25 25 c-15 14 -26 30 -26 34 0 18 -27 8
-37 -13 -21 -46 -15 -73 21 -91 27 -13 33 -20 29 -37 -5 -17 -11 -20 -31 -15
-15 4 -28 1 -33 -6 -4 -7 -5 -73 -2 -148 l5 -136 -71 75 c-49 51 -67 76 -56
78 8 2 15 10 15 18 0 17 -37 19 -42 3 -2 -7 -44 29 -93 80 -64 65 -89 98 -87
112 3 16 -1 20 -16 17 -14 -2 -51 30 -132 115 -61 64 -120 117 -130 117 -12 0
-20 -10 -24 -31 -8 -44 -8 -167 2 -171 13 -6 42 -78 31 -78 -37 0 -48 -92 -49
-412 0 -116 -8 -128 -81 -128 -28 0 -49 5 -49 11 0 6 -8 9 -17 7 -17 -3 -63
35 -63 53 0 13 -91 232 -101 243 -5 6 -9 16 -9 24 0 8 -7 20 -16 27 -9 6 -18
27 -20 46 -3 39 -139 387 -159 408 -20 21 -45 6 -62 -39 -16 -40 -53 -58 -53
-25 0 8 -7 15 -15 15 -8 0 -15 5 -15 10 0 6 -7 10 -15 10 -8 0 -15 -7 -15 -15
0 -8 7 -15 15 -15 8 0 15 -4 15 -10 0 -5 7 -10 15 -10 8 0 15 -6 15 -14 0 -8
4 -16 9 -18 5 -1 -6 -43 -25 -92 -19 -49 -40 -110 -46 -135 -6 -25 -15 -49
-20 -52 -11 -7 -68 -146 -68 -165 0 -8 -9 -14 -20 -14 -11 0 -20 -7 -20 -15 0
-8 4 -15 9 -15 18 0 -54 -166 -83 -189 -14 -12 -18 -9 -30 21 -8 18 -18 62
-22 96 -4 40 -11 62 -19 62 -19 0 -23 19 -14 60 4 19 4 64 -1 100 -20 149 -50
333 -56 342 -4 5 -15 8 -25 5 -15 -4 -19 0 -19 19 0 15 6 24 16 24 13 0 15 7
10 32 -8 38 -11 42 -31 34 -17 -6 -69 -113 -80 -163 -4 -18 -11 -33 -16 -33
-6 0 -20 -21 -31 -47 -22 -50 -40 -73 -57 -73 -15 0 -14 -27 2 -33 7 -3 5 -6
-5 -6 -12 -1 -17 -8 -16 -23 1 -13 -22 -72 -51 -133 l-52 -109 -30 52 c-20 35
-36 52 -49 52 -17 0 -20 7 -20 41 0 42 -13 74 -123 302 -59 121 -78 145 -91
112 -3 -8 -16 -15 -30 -15 -25 0 -25 -1 -52 -202 -5 -34 -12 -48 -25 -51 -22
-6 -26 -35 -6 -43 15 -5 10 -74 -5 -74 -6 0 -8 -10 -5 -22 3 -12 -3 -78 -13
-147 -11 -69 -18 -143 -17 -163 l3 -38 -48 -6 c-38 -5 -48 -10 -48 -25 0 -13
7 -19 23 -20 15 0 17 -2 7 -6 -8 -3 -17 -9 -20 -13 -3 -4 -51 -10 -107 -13
l-103 -5 0 24 c0 15 6 24 16 24 9 0 14 7 12 18 -4 19 31 52 55 52 18 0 27 21
27 61 0 18 5 29 14 29 14 0 26 60 26 136 0 39 -2 43 -26 46 -23 3 -27 8 -29
43 -5 62 4 85 31 85 24 0 30 14 18 44 -9 25 -29 19 -41 -11 -10 -26 -11 -26
-12 -5 -1 14 -8 22 -18 23 -11 0 -13 3 -5 6 6 2 12 18 12 34 0 18 5 29 14 29
8 0 18 9 21 20 3 11 13 20 21 20 17 0 19 26 2 33 -10 4 -10 6 0 6 6 1 12 8 12
17 0 13 -6 15 -27 9 -16 -3 -32 -13 -36 -21 -5 -8 -20 -19 -33 -24 l-24 -10
-1 -207 c0 -149 -4 -218 -14 -243 -13 -33 -13 -28 -12 71 1 75 -2 114 -12 132
-18 34 -46 37 -38 5 6 -25 9 -110 8 -226 -1 -70 -2 -73 -32 -91 -102 -62 -231
-17 -282 97 -19 44 -20 67 -21 340 -1 160 3 292 7 292 15 0 67 44 67 57 0 7 9
13 20 13 11 0 20 7 20 15 0 8 7 15 15 15 8 0 23 8 34 19 10 10 30 21 45 25 14
3 26 13 26 21 0 19 -34 19 -53 1 -8 -8 -33 -19 -55 -26 -23 -6 -42 -15 -42
-20 0 -6 -6 -10 -13 -10 -7 0 -20 -9 -30 -20 -9 -11 -24 -20 -32 -20 -8 0 -15
-6 -15 -13 0 -24 -71 -39 -171 -35 l-94 3 -3 -37 c-3 -36 -2 -38 27 -38 16 0
32 6 34 13 4 7 6 6 6 -4 1 -9 8 -19 16 -23 18 -7 19 -29 3 -58 -18 -31 -35
-48 -47 -48 -6 0 -11 -7 -11 -15 0 -23 47 -19 55 5 16 50 21 6 21 -172 0 -228
6 -298 27 -310 9 -4 13 -16 10 -27 -6 -23 24 -71 43 -71 26 0 51 -23 47 -41
-4 -15 -20 -18 -106 -21 -106 -3 -117 0 -117 40 0 13 -6 22 -15 22 -8 0 -15
-5 -15 -11 0 -21 -54 -4 -67 21 -19 37 -17 120 2 120 8 0 15 7 15 15 0 8 -7
15 -15 15 -12 0 -15 16 -15 85 0 47 4 85 9 85 4 0 14 20 21 45 7 25 18 45 25
45 12 0 25 21 25 41 0 5 -9 9 -20 9 -13 0 -22 -9 -26 -25 -3 -14 -10 -25 -14
-25 -5 0 -11 -8 -14 -17 -2 -10 -4 51 -3 136 2 113 5 155 15 159 6 2 12 11 13
20 0 11 2 12 6 5 2 -7 16 -13 29 -13 23 0 25 3 22 38 l-3 37 -175 0 -175 0 -3
-37 c-3 -36 -2 -38 27 -38 16 0 40 -4 53 -9 23 -8 23 -11 20 -135 l-3 -126
-199 1 -199 1 3 116 c2 85 8 125 20 147 9 17 16 24 16 18 0 -17 49 -17 56 0 2
7 1 24 -4 37 -8 23 -11 23 -173 25 -90 1 -170 0 -176 -3 -7 -2 -13 -19 -13
-38 0 -36 4 -37 91 -38 15 0 17 -32 18 -335 1 -374 0 -384 -58 -389 -28 -3
-32 -1 -27 16 13 39 -2 51 -55 45 -48 -6 -49 -5 -49 22 l0 28 55 -7 c45 -5 55
-3 55 9 0 8 -4 15 -9 15 -6 0 -6 12 1 31 6 16 7 33 3 37 -3 4 -52 5 -107 3
-71 -2 -98 0 -94 8 4 6 14 11 22 11 15 0 17 9 8 34 -7 18 -34 22 -34 5 0 -19
-27 -38 -48 -32 -16 4 -21 -1 -27 -26 -5 -22 -12 -31 -26 -31 -25 0 -24 -25 1
-50 22 -22 40 -26 40 -10 0 6 7 10 15 10 8 0 15 -7 15 -15 0 -8 9 -15 20 -15
11 0 20 5 20 10 0 6 11 10 25 10 20 0 25 -5 25 -26 0 -26 -1 -27 -45 -21 l-45
7 0 -60 c0 -53 2 -60 20 -60 11 0 20 5 20 10 0 6 33 10 80 10 49 0 80 -4 80
-10 0 -7 13 -8 35 -4 34 6 35 5 35 -25 0 -17 -4 -31 -10 -31 -5 0 -10 5 -10
10 0 6 -11 10 -25 10 -14 0 -25 -6 -25 -12 0 -9 -3 -10 -8 -2 -8 13 -159 25
-208 17 -37 -6 -46 -32 -20 -59 18 -17 63 -18 69 -1 4 10 6 10 6 0 1 -15 61
-18 61 -3 0 6 11 10 25 10 14 0 25 -5 25 -11 0 -6 8 -9 18 -6 69 22 66 22 59
-9 -4 -16 -10 -40 -13 -52 -6 -19 -3 -23 12 -22 10 1 25 2 32 1 17 -1 15 -54
-3 -97 -8 -19 -17 -58 -21 -86 -4 -27 -15 -57 -24 -66 -10 -10 -26 -41 -36
-69 -10 -29 -22 -53 -26 -53 -5 0 -8 -10 -8 -22 0 -16 -3 -19 -11 -11 -7 7 -1
38 20 104 17 52 31 104 31 117 0 12 5 22 10 22 6 0 10 9 10 20 0 11 7 20 15
20 18 0 20 26 3 33 -10 4 -10 6 0 6 6 1 12 14 12 29 l0 28 -92 -3 c-51 -1 -87
0 -80 3 6 3 12 12 12 20 0 23 -37 57 -54 51 -24 -10 -23 -199 1 -227 10 -11
23 -20 30 -20 15 0 14 62 -1 72 -6 4 18 8 53 8 49 0 61 -3 54 -12 -6 -7 -34
-78 -62 -158 -105 -292 -175 -475 -183 -478 -4 -2 -8 -11 -8 -19 0 -40 -24
-93 -42 -93 -20 0 -25 -26 -6 -32 8 -3 8 -9 0 -24 -6 -10 -12 -13 -12 -6 0 17
-30 15 -30 -2 0 -8 5 -16 12 -18 7 -3 3 -16 -13 -38 -35 -50 -50 -59 -89 -55
-19 2 -45 4 -57 4 -13 1 -23 5 -23 10 0 5 9 7 20 4 14 -4 20 0 20 11 0 9 6 16
13 16 6 0 27 14 46 30 18 17 40 30 47 30 8 0 14 7 14 15 0 18 -33 20 -52 3 -8
-7 -43 -28 -79 -46 -62 -33 -63 -33 -40 -8 14 14 29 26 34 26 17 0 97 71 97
86 0 24 -21 17 -107 -39 -24 -15 -53 -26 -65 -26 -17 1 -19 2 -6 6 10 2 18 9
18 14 0 5 7 9 15 9 8 0 15 4 15 9 0 5 15 16 32 25 67 34 98 58 98 75 0 6 -7
11 -15 11 -8 0 -15 -4 -15 -10 0 -5 -12 -13 -27 -16 -30 -8 -40 -15 -84 -57
-16 -16 -35 -27 -40 -25 -20 7 88 88 179 135 17 9 32 20 32 25 0 4 8 8 18 8
20 0 50 45 38 57 -4 4 -16 2 -26 -5 -11 -7 -25 -12 -32 -12 -6 0 -22 -10 -35
-22 -13 -12 -25 -19 -28 -16 -3 3 10 16 30 29 33 23 47 49 25 49 -6 0 -35 -14
-65 -31 -73 -41 -91 -26 -20 17 63 37 123 53 134 35 11 -17 101 8 101 27 0 11
-8 13 -32 8 -29 -5 -31 -4 -16 8 20 15 24 36 8 36 -25 0 -142 -45 -221 -86
-47 -24 -89 -44 -92 -44 -13 0 -7 17 13 40 11 13 20 18 20 12 0 -7 7 -12 15
-12 10 0 15 10 15 29 0 16 7 36 15 45 17 17 20 46 5 46 -5 0 -10 7 -10 15 0 8
-7 15 -15 15 -8 0 -15 -7 -15 -15 0 -19 -17 -19 -36 -1 -19 20 -18 25 6 19 24
-6 29 24 6 33 -20 8 -8 34 15 34 12 0 19 7 19 20 0 23 -22 26 -43 5 -13 -12
-16 -12 -21 7 -3 12 0 28 5 34 6 8 7 23 3 36 -12 38 -12 78 -1 85 6 4 13 1 15
-5 5 -17 42 -15 42 3 0 8 7 15 15 15 8 0 15 -5 15 -11 0 -7 10 -9 25 -5 14 4
25 2 25 -4 0 -5 7 -10 15 -10 8 0 15 7 15 15 0 8 -7 15 -15 15 -8 0 -15 4 -15
9 0 5 -11 12 -25 15 -25 6 -25 6 -5 26 11 11 20 27 20 35 0 18 -27 20 -32 3
-3 -9 -6 -9 -12 0 -4 7 -2 12 3 12 6 0 11 7 11 16 0 12 -6 15 -24 10 -24 -6
-24 -5 -14 26 5 18 12 44 15 58 4 23 53 59 53 39 0 -5 7 -9 15 -9 8 0 15 7 15
15 0 8 -4 15 -10 15 -5 0 -10 9 -10 20 0 11 5 20 10 20 6 0 10 7 10 15 0 8 7
15 15 15 8 0 15 7 15 15 0 8 4 15 9 15 5 0 7 -18 4 -40 -5 -33 -3 -40 11 -40
11 0 16 9 16 30 0 17 5 30 10 30 6 0 10 7 10 15 0 8 -7 15 -15 15 -22 0 -18
28 5 35 11 3 20 15 20 25 0 10 5 20 12 22 26 9 -2 38 -37 38 -24 0 -35 4 -35
15 0 8 -7 15 -15 15 -18 0 -20 -26 -3 -33 10 -4 10 -6 0 -6 -17 -1 -42 -26
-42 -41 0 -8 10 -9 30 -5 17 4 30 2 30 -3 0 -17 -37 -42 -63 -42 -28 0 -38
-24 -14 -33 7 -3 5 -6 -5 -6 -10 -1 -18 -5 -18 -11 0 -5 -9 -10 -20 -10 -11 0
-20 -7 -20 -15 0 -8 -4 -15 -10 -15 -5 0 -10 -7 -10 -15 0 -8 7 -15 15 -15 8
0 15 -9 15 -19 0 -14 -5 -18 -20 -14 -11 3 -20 1 -20 -4 0 -6 -11 -8 -25 -5
-14 2 -25 11 -25 18 0 8 -9 14 -20 14 -14 0 -20 7 -20 21 0 17 -4 20 -24 15
-16 -4 -26 -1 -30 9 -3 8 -12 15 -21 15 -8 0 -15 5 -15 10 0 6 -7 10 -15 10
-8 0 -15 7 -15 15 0 8 5 15 10 15 6 0 10 11 10 25 0 29 -29 36 -31 8 0 -10 -5
-5 -10 11 -4 17 -6 32 -4 34 2 3 20 -5 40 -17 45 -26 51 -26 58 -1 3 11 11 20
17 20 9 0 11 -12 6 -40 -3 -22 -2 -40 3 -40 5 0 7 -9 4 -20 -4 -15 2 -22 22
-30 36 -14 45 -13 45 5 0 8 -4 15 -10 15 -5 0 -12 11 -16 25 -3 14 -11 25 -18
25 -8 0 -8 2 0 8 6 4 14 19 18 35 3 15 13 27 22 27 13 0 15 7 10 34 -6 31 -4
35 28 50 29 13 45 38 46 69 0 14 -53 7 -65 -10 -11 -14 -13 -13 -19 10 -6 26
-36 39 -36 16 0 -5 -5 -7 -10 -4 -6 3 -7 17 -4 31 5 19 2 24 -14 24 -26 0 -35
35 -13 54 22 20 31 20 31 1 0 -16 18 -20 36 -7 5 4 16 22 24 41 l14 34 18 -23
c21 -26 16 -40 -13 -33 -17 5 -20 2 -17 -13 4 -20 36 -24 71 -9 12 5 17 3 17
-9 0 -9 7 -16 15 -16 8 0 15 7 15 15 0 8 5 15 10 15 6 0 10 9 10 20 0 11 -5
20 -11 20 -14 0 -39 25 -39 39 0 6 -7 11 -15 11 -8 0 -15 9 -15 20 0 11 -6 23
-14 26 -18 7 -9 34 10 34 8 0 14 10 14 23 0 12 9 29 20 37 11 8 20 20 20 27 0
17 -27 17 -33 1 -3 -7 -6 -3 -6 10 -1 12 6 25 14 28 24 10 19 61 -7 67 -32 9
-16 18 31 19 33 0 41 4 41 19 0 15 -8 19 -37 20 -31 2 -33 3 -10 6 38 6 35 33
-4 33 -26 0 -30 3 -24 18 5 9 9 28 10 41 3 48 65 45 65 -3 0 -9 7 -16 15 -16
10 0 15 11 16 33 0 29 1 30 9 10 10 -24 53 -32 65 -13 3 6 17 10 31 10 15 0
24 6 24 15 0 8 -7 15 -15 15 -20 0 -20 39 0 46 8 4 15 12 15 18 0 16 -98 16
-108 0 -4 -5 -24 -9 -45 -8 -41 2 -65 14 -29 14 12 0 22 4 22 9 0 5 14 12 30
16 33 7 40 31 13 38 -15 4 -15 6 5 12 12 4 22 14 22 21 0 8 5 14 11 14 6 0 9
9 6 20 -4 16 0 20 19 20 25 0 28 7 18 33 -4 12 -18 14 -65 10 -48 -5 -59 -3
-59 9 0 9 9 14 23 14 16 -1 23 5 25 23 3 21 1 23 -21 17 -14 -3 -32 -9 -41
-12 -9 -3 -16 -1 -16 5 0 6 7 11 16 11 12 0 15 6 11 20 -4 17 -2 20 14 15 23
-8 63 30 73 69 4 16 16 30 26 33 15 4 20 14 20 42 0 36 1 37 35 33 28 -3 35
-1 35 13 0 21 24 45 44 45 9 0 16 5 16 10 0 6 7 10 15 10 10 0 15 10 16 28 0
15 3 21 6 15 2 -7 11 -13 19 -13 17 0 19 27 2 32 -9 3 -9 6 0 12 7 4 12 2 12
-3 0 -6 7 -11 15 -11 8 0 15 7 15 15 0 8 -7 15 -15 15 -8 0 -15 7 -15 16 0 13
-7 15 -30 11 -17 -4 -30 -2 -30 3 0 6 5 10 10 10 6 0 10 7 10 15 0 9 -9 15
-25 15 -14 0 -28 -7 -31 -15 -4 -8 -12 -15 -20 -15 -8 0 -14 7 -14 15 0 12
-13 15 -55 15 -41 0 -55 -4 -55 -14 0 -8 -4 -17 -9 -20 -5 -4 -7 3 -4 14 5 20
0 20 -311 20 l-316 0 0 -645z m4243 -545 c14 -36 30 -80 35 -97 l11 -33 -73 0
c-83 0 -101 15 -65 51 11 11 21 36 23 56 2 19 8 38 13 42 6 3 14 16 18 29 9
29 8 30 38 -48z m708 24 c21 -21 35 -43 32 -50 -7 -19 93 -118 111 -111 10 4
12 0 9 -14 -5 -16 0 -19 28 -19 24 0 30 -3 20 -9 -18 -12 -7 -41 17 -41 10 0
53 -36 96 -80 43 -44 81 -80 86 -80 4 0 6 -9 3 -20 -5 -17 0 -20 26 -20 28 0
31 -2 25 -25 -5 -20 -2 -25 12 -25 25 -1 54 -24 46 -36 -4 -6 -29 -11 -57 -12
-27 -1 -59 -3 -70 -4 -11 -1 -88 -1 -171 0 l-152 2 -6 35 c-6 29 -11 35 -32
35 -32 0 -60 15 -68 36 -4 9 -9 120 -13 245 -7 256 -7 256 58 193z m-1320 -21
c0 -5 2 -19 4 -33 1 -14 5 -50 9 -80 15 -138 28 -236 33 -250 8 -21 7 -83 -1
-116 -5 -18 -3 -30 6 -35 8 -5 -8 -9 -39 -9 -29 0 -53 5 -53 10 0 6 -7 10 -15
10 -9 0 -15 -9 -15 -22 0 -13 -3 -33 -6 -46 -6 -22 -5 -23 29 -17 27 5 41 3
52 -9 14 -14 13 -24 -17 -108 l-32 -93 -12 41 c-15 53 -42 104 -54 104 -6 0
-10 7 -10 15 0 9 -7 18 -15 21 -8 4 -15 12 -15 20 0 8 7 14 15 14 9 0 15 9 15
25 0 23 -4 25 -52 27 -29 1 -69 1 -88 1 -19 -1 -26 1 -14 3 24 6 91 134 80
153 -4 6 -1 11 7 11 16 0 62 93 53 108 -7 12 36 62 53 62 7 0 11 8 8 18 -2 9
12 47 31 84 19 37 32 74 28 83 -3 8 -1 15 4 15 6 0 10 -3 11 -7z m-525 -68 c8
-11 14 -28 14 -38 0 -9 7 -20 15 -23 8 -4 15 -14 15 -24 0 -10 7 -20 15 -24 9
-3 15 -18 15 -35 0 -28 35 -102 52 -109 4 -2 8 -12 8 -23 0 -11 7 -19 16 -19
8 0 12 -5 9 -10 -10 -15 5 -50 20 -50 9 0 12 -6 8 -16 -3 -9 -2 -19 3 -23 5
-3 15 -18 21 -33 l13 -28 -93 0 c-50 0 -97 4 -104 8 -6 4 -15 20 -18 35 -6 21
-13 27 -34 27 -14 0 -31 4 -37 8 -15 9 -21 62 -10 80 4 7 6 22 5 35 -1 12 3
47 9 77 7 30 14 83 16 118 2 35 7 66 10 69 3 4 7 18 7 32 1 21 2 22 6 6 3 -11
12 -29 19 -40z m-1394 -122 c4 -227 -4 -263 -59 -263 -13 0 -23 -6 -23 -12 0
-7 -3 -23 -6 -35 -5 -17 -2 -23 10 -23 9 0 16 7 16 15 0 8 9 15 20 15 11 0 20
-6 20 -14 0 -8 6 -17 13 -19 6 -3 -58 -6 -145 -6 -115 -1 -158 -4 -161 -13 -2
-7 -8 -10 -12 -6 -10 10 13 38 32 38 24 0 12 54 -13 58 -17 2 -23 12 -27 49
-3 25 -1 59 3 75 5 15 5 51 1 79 -5 27 -4 52 0 55 5 3 6 23 3 45 l-7 39 167 0
166 0 2 -77z m2479 -53 c11 0 19 7 20 18 1 16 2 16 6 -1 4 -14 13 -16 50 -13
25 2 49 10 53 16 6 9 11 7 19 -7 5 -11 8 -23 5 -26 -3 -3 3 -30 14 -59 20 -52
25 -96 23 -185 -1 -34 -5 -43 -23 -49 -13 -3 -53 -27 -91 -51 -108 -72 -192
-190 -232 -327 -9 -32 -19 -56 -21 -54 -8 8 -144 371 -144 384 0 8 7 14 15 14
8 0 15 5 15 10 0 18 29 10 35 -10 6 -20 35 -28 35 -10 0 6 11 10 25 10 14 0
25 -4 25 -10 0 -5 14 -10 30 -10 17 0 30 5 30 10 0 6 11 10 25 10 14 0 25 5
25 10 0 6 7 10 15 10 8 0 15 -4 15 -10 0 -5 7 -10 15 -10 8 0 15 5 15 10 0 6
7 10 15 10 8 0 15 -4 15 -10 0 -5 9 -10 21 -10 22 0 49 22 49 39 0 15 -63 24
-113 17 -58 -9 -74 -1 -81 40 -6 28 -11 34 -32 34 -31 0 -50 39 -28 56 8 6 14
15 14 20 0 5 11 36 24 69 22 53 28 60 55 63 21 2 31 9 32 20 1 15 2 15 6 0 2
-10 13 -18 24 -18z m-2661 -365 c0 -8 7 -15 15 -15 8 0 15 7 15 15 0 9 9 15
24 15 19 0 23 -4 19 -19 -4 -15 2 -21 26 -26 17 -4 31 -10 31 -15 0 -5 8 -11
19 -15 26 -8 73 -117 65 -149 -4 -18 -2 -26 6 -26 23 0 6 -115 -22 -149 -40
-51 -73 -63 -163 -59 l-80 3 -5 218 c-4 188 -3 220 10 228 23 13 40 11 40 -6z
m587 -30 c2 -1 -2 -28 -8 -60 -9 -51 -9 -61 5 -71 9 -6 16 -16 16 -23 0 -6 7
-11 15 -11 8 0 15 7 15 15 0 8 -4 15 -9 15 -11 0 -19 30 -14 48 3 6 14 12 24
12 15 0 19 6 17 21 -3 20 3 22 55 26 36 3 57 0 57 -6 0 -6 7 -11 15 -11 8 0
15 7 15 15 0 20 12 19 36 -5 33 -33 40 -45 36 -63 -2 -9 3 -20 11 -23 9 -3 13
-13 10 -25 -4 -12 0 -19 10 -19 21 0 27 22 27 91 0 33 4 59 10 59 6 0 10 -48
10 -125 0 -91 3 -125 12 -125 9 0 9 -3 0 -12 -9 -9 -12 -72 -13 -218 0 -188
-2 -202 -14 -167 -19 50 -71 120 -133 179 -59 55 -66 71 -41 86 21 13 26 42 7
42 -6 0 -19 -7 -28 -15 -24 -21 -75 -4 -132 45 -36 31 -45 45 -40 62 4 17 2
20 -15 16 -38 -10 -69 75 -64 175 1 9 8 17 17 17 9 0 14 7 12 18 -5 30 20 53
51 45 14 -3 27 -7 28 -8z m1094 -18 c8 -11 69 1 69 14 0 5 4 9 9 9 5 0 7 -9 4
-20 -3 -11 -1 -20 5 -20 5 0 28 -18 50 -39 50 -48 72 -113 47 -137 -23 -24
-20 -64 6 -64 20 0 21 -4 16 -58 -8 -95 -68 -191 -111 -177 -11 4 -33 8 -48 9
-16 0 -28 7 -28 14 0 21 -34 9 -45 -16 -8 -19 -17 -22 -60 -22 -27 0 -56 4
-63 9 -11 6 -13 55 -11 235 3 207 4 228 21 237 20 11 22 6 18 -43 -1 -20 3
-28 14 -28 9 0 16 -7 16 -15 0 -8 7 -15 15 -15 12 0 15 15 15 75 l0 75 28 -6
c15 -4 30 -11 33 -17z m-406 -59 c3 -35 4 -256 2 -493 -2 -332 -6 -439 -17
-468 -15 -41 -25 -43 -48 -9 -14 21 -13 22 12 22 23 0 26 4 26 35 0 24 -5 35
-15 35 -8 0 -15 5 -15 10 0 6 -7 10 -15 10 -13 0 -15 58 -15 460 l0 460 39 0
39 0 7 -62z m875 -188 c11 0 23 7 28 16 7 12 12 6 22 -29 7 -25 18 -48 25 -51
7 -2 11 -15 8 -29 -3 -14 2 -31 12 -40 9 -10 18 -33 20 -52 2 -19 10 -41 18
-50 8 -8 13 -24 10 -35 -5 -18 -14 -20 -82 -20 -42 0 -86 -3 -98 -6 -25 -7
-30 12 -25 89 3 38 8 47 22 47 19 0 27 24 29 93 1 26 -3 37 -13 37 -20 0 -26
21 -13 45 10 18 11 18 15 3 2 -10 12 -18 22 -18z m-2490 -83 c36 -101 51 -175
43 -205 -5 -20 -12 -22 -94 -22 l-88 0 35 103 c19 56 33 110 30 119 -2 10 2
22 9 28 8 6 17 25 20 41 4 17 9 29 10 27 2 -2 18 -43 35 -91z m674 -42 c-7
-16 9 -34 46 -53 14 -6 33 -18 44 -24 15 -10 19 -10 23 0 8 21 21 13 16 -9 -5
-19 -3 -21 19 -16 20 5 24 3 24 -14 -1 -26 31 -50 42 -32 5 8 16 4 36 -14 27
-23 27 -25 8 -29 -39 -11 -34 -124 6 -124 10 0 12 7 8 25 -4 16 0 38 11 58 15
27 18 29 21 12 6 -29 33 -56 52 -53 30 5 50 -20 39 -49 -5 -15 -7 -34 -3 -42
20 -52 39 -251 23 -251 -5 0 -9 7 -9 15 0 8 -7 15 -15 15 -8 0 -15 -5 -15 -10
0 -6 -12 1 -27 15 -15 14 -30 25 -34 25 -3 0 -12 25 -19 55 -7 30 -17 55 -21
55 -4 0 -10 14 -14 30 -4 17 -10 30 -14 30 -4 0 -7 10 -7 23 1 16 -5 22 -19
22 -13 0 -21 -8 -23 -22 -2 -16 2 -23 12 -23 12 0 16 -10 16 -35 0 -22 -5 -35
-13 -35 -24 0 -37 24 -37 68 0 61 -27 149 -61 199 -36 52 -103 109 -145 125
-26 9 -32 17 -31 37 2 26 18 39 49 40 11 1 15 -4 12 -14z m-231 -102 c-7 -2
-13 -10 -13 -18 0 -16 61 -29 70 -15 12 19 38 0 32 -22 -4 -18 -2 -20 16 -16
26 7 65 -32 67 -68 0 -14 8 -31 16 -38 9 -6 20 -30 26 -53 9 -35 8 -43 -3 -43
-22 0 -17 -26 9 -44 20 -15 20 -16 2 -12 -79 19 -75 19 -76 -5 -2 -24 -2 -24
-6 -1 -3 15 -11 22 -29 22 -15 0 -24 6 -24 15 0 26 -29 16 -36 -12 -6 -24 -8
-25 -20 -8 -9 12 -21 16 -39 13 -14 -3 -25 -1 -25 3 0 5 -6 9 -14 9 -8 0 -16
7 -20 15 -6 17 -33 20 -38 4 -2 -5 -11 -7 -19 -4 -23 9 -36 108 -31 223 l2 32
65 0 c51 0 65 3 65 15 0 8 8 15 18 14 10 0 12 -3 5 -6z m1547 -163 c0 -5 9
-10 19 -10 14 0 18 -5 14 -20 -3 -11 0 -20 6 -20 6 0 11 -7 11 -15 0 -8 5 -15
10 -15 6 0 10 -7 10 -15 0 -8 9 -15 19 -15 14 0 18 -5 14 -20 -4 -15 0 -20 15
-20 15 0 19 -5 15 -19 -3 -10 0 -22 5 -25 10 -6 -19 -98 -44 -140 -17 -28 -42
-13 -50 28 -7 41 -34 50 -34 11 0 -16 -6 -25 -15 -25 -9 0 -18 -7 -21 -15 -3
-8 -14 -17 -25 -20 -22 -7 -26 -35 -6 -35 8 0 24 9 36 19 18 16 26 17 51 8 26
-10 28 -13 15 -27 -8 -9 -15 -23 -15 -32 0 -11 -8 -13 -30 -10 -17 2 -30 10
-30 18 0 8 -7 14 -15 14 -8 0 -15 -4 -15 -10 0 -12 -10 -13 -29 -1 -11 7 -11
16 4 55 10 25 22 46 26 46 5 0 9 7 9 15 0 34 -41 8 -55 -35 l-9 -25 -7 25 c-4
14 -7 96 -8 183 l-1 157 65 0 c37 0 65 -4 65 -10z m-2150 -15 c0 -12 14 -15
65 -15 51 0 65 3 65 15 0 9 9 15 25 15 16 0 25 -6 25 -15 0 -10 11 -15 35 -15
24 0 35 5 35 15 0 8 4 15 8 15 31 0 46 -216 17 -240 -8 -7 -15 -23 -15 -37 0
-30 -24 -40 -45 -19 -25 24 -75 18 -75 -10 0 -10 13 -14 41 -14 l41 0 -33 -27
c-18 -16 -47 -43 -64 -61 -25 -27 -38 -33 -80 -36 -27 -2 -56 -4 -62 -5 -7 0
-13 -8 -13 -17 0 -8 -4 -12 -10 -9 -5 3 -10 15 -10 26 0 14 -7 19 -28 19 -38
0 -65 21 -56 43 3 9 12 17 20 17 8 0 14 5 14 10 0 6 5 10 11 10 24 0 159 72
159 86 0 8 -4 14 -8 14 -15 0 -134 -49 -148 -61 -8 -7 -17 -9 -20 -6 -3 3 16
66 41 141 26 75 45 142 42 150 -6 15 1 26 15 26 4 0 8 -7 8 -15z m2858 -50 c9
-22 21 -43 28 -47 7 -5 10 -17 7 -28 -3 -11 -1 -20 5 -20 12 0 27 -38 23 -61
-1 -9 5 -19 14 -23 9 -3 13 -10 10 -16 -9 -15 14 -79 36 -101 15 -15 17 -24 9
-39 -6 -11 -20 -20 -30 -20 -11 0 -20 -7 -20 -15 0 -13 -13 -15 -72 -13 -71 3
-73 4 -88 35 -8 18 -21 33 -27 33 -7 0 -13 5 -13 10 0 6 -9 10 -19 10 -14 0
-18 5 -14 18 5 22 -21 46 -42 38 -10 -3 -15 1 -15 13 0 10 -7 21 -15 25 -8 3
-15 15 -15 26 0 15 -7 20 -25 20 -20 0 -25 5 -25 25 0 14 -7 28 -15 31 -8 4
-15 14 -15 24 0 10 -5 20 -10 22 -7 2 -4 21 6 51 l16 48 145 -3 145 -3 16 -40z
m-345 -175 c3 -11 1 -20 -4 -20 -5 0 -9 -7 -9 -16 0 -13 7 -15 33 -10 17 4 34
11 35 16 5 13 32 13 32 0 0 -5 -7 -10 -15 -10 -8 0 -15 -7 -15 -15 0 -8 5 -15
12 -15 6 0 9 -3 6 -6 -3 -3 -15 0 -27 7 -27 17 -38 5 -22 -25 8 -13 10 -33 6
-46 -4 -13 -3 -25 3 -29 27 -16 15 -33 -26 -36 -33 -3 -47 1 -61 17 -20 20
-34 78 -19 78 4 0 8 6 8 13 0 9 11 12 35 9 27 -3 35 -1 35 12 0 11 -10 16 -32
17 -18 0 -27 3 -20 6 6 2 12 20 12 39 0 38 24 48 33 14z m-2583 -254 c0 -9 18
-17 53 -22 32 -5 43 -9 29 -12 -20 -3 -22 -8 -17 -33 5 -22 3 -29 -9 -29 -9 0
-16 -7 -16 -15 0 -9 9 -15 23 -15 17 0 28 10 40 35 9 19 21 35 27 35 5 0 10 5
10 11 0 6 7 17 15 25 8 9 15 11 15 5 0 -5 -4 -12 -9 -15 -15 -9 -22 -55 -11
-69 6 -6 19 -24 31 -39 32 -43 64 -34 40 11 -6 11 -6 33 1 59 8 34 15 42 33
42 l23 0 -20 -67 c-14 -46 -18 -81 -14 -111 l6 -44 -29 7 c-40 9 -101 -4 -101
-21 0 -8 7 -14 15 -14 8 0 15 -4 15 -10 0 -5 8 -10 18 -10 13 0 14 -2 4 -9 -9
-5 -11 -17 -6 -34 4 -18 2 -27 -6 -27 -6 0 -10 -8 -8 -17 4 -23 -21 -53 -44
-53 -10 0 -18 -7 -18 -15 0 -8 5 -15 11 -15 7 0 5 -10 -5 -25 -9 -13 -16 -29
-16 -35 0 -18 29 -11 40 11 10 17 13 18 23 7 17 -21 64 -48 82 -48 22 0 19 18
-10 56 -25 33 -33 78 -15 89 5 3 21 3 36 -1 22 -6 24 -8 10 -16 -19 -11 -20
-25 -3 -61 8 -19 18 -26 30 -23 28 7 87 -16 87 -33 0 -10 -3 -12 -8 -5 -11 17
-90 16 -99 0 -4 -8 -34 -19 -66 -25 -55 -10 -87 -28 -87 -49 0 -7 44 -9 118
-6 64 2 112 2 105 -2 -8 -3 -10 -23 -6 -60 5 -44 3 -54 -10 -54 -8 0 -17 7
-21 15 -3 8 -1 15 4 15 6 0 10 7 10 15 0 8 -7 15 -15 15 -8 0 -15 -7 -15 -15
0 -8 -11 -17 -25 -21 -39 -10 -31 -34 10 -34 19 0 35 -4 35 -10 0 -5 -4 -10
-10 -10 -5 0 -10 -7 -10 -15 0 -18 -52 -33 -58 -17 -6 19 -32 14 -32 -7 0 -21
14 -26 103 -36 31 -4 57 -11 57 -16 0 -5 9 -9 20 -9 14 0 20 -7 20 -23 0 -28
26 -67 46 -67 8 0 14 4 14 10 0 5 16 2 35 -7 38 -18 47 -43 15 -43 -11 0 -20
5 -20 10 0 6 -7 10 -15 10 -8 0 -15 -7 -15 -15 0 -8 7 -15 15 -15 16 0 19 -9
9 -34 -8 -20 -24 -21 -24 -2 0 10 -13 14 -47 13 -28 -1 -62 5 -82 16 -19 9
-40 17 -48 17 -7 0 -13 4 -13 9 0 13 -159 44 -276 54 -14 1 -19 7 -16 19 3 12
-4 17 -25 20 -22 2 -27 8 -25 23 2 11 12 27 23 37 25 21 25 48 -1 48 -11 0
-20 4 -20 8 0 4 9 14 20 22 21 15 27 40 9 40 -13 0 -39 -25 -39 -38 0 -8 -28
-25 -62 -36 -10 -3 -18 -1 -18 4 0 6 -9 10 -20 10 -11 0 -20 7 -20 15 0 8 -4
15 -10 15 -5 0 -10 9 -10 20 0 11 7 20 15 20 8 0 15 5 15 10 0 6 7 10 15 10 9
0 28 6 43 14 15 7 51 17 81 21 52 7 54 6 38 -10 -9 -9 -17 -23 -17 -31 0 -23
29 -16 35 9 4 13 17 31 31 41 29 22 31 46 5 46 -21 0 -104 -16 -160 -30 -40
-11 -44 -9 -35 14 4 10 17 16 35 16 19 0 29 5 29 15 0 20 -49 20 -97 0 -20 -8
-38 -14 -40 -12 -8 8 10 37 23 37 8 0 14 9 14 19 0 17 56 71 73 71 17 0 127
74 127 86 0 20 -21 17 -71 -11 -24 -14 -51 -27 -59 -31 -8 -3 -23 -10 -32 -15
-27 -14 -61 -31 -80 -41 -25 -11 -98 -10 -98 2 0 14 -38 12 -43 -2 -2 -7 -8
-10 -12 -6 -5 5 2 16 13 27 25 21 28 37 10 43 -7 3 -11 19 -10 41 3 37 3 37
-38 37 -22 0 -40 -4 -40 -10 0 -5 -7 -10 -15 -10 -8 0 -15 -4 -15 -9 0 -5 -14
-11 -30 -13 -24 -4 -30 -1 -30 14 0 11 10 20 25 24 15 4 28 16 31 29 7 28 28
39 67 36 23 -2 28 1 25 16 -3 14 -14 19 -53 20 -70 4 -95 11 -95 28 0 14 48
65 62 65 4 0 20 12 35 26 15 15 46 35 68 46 22 10 54 27 71 38 33 19 108 30
120 17 4 -4 2 -7 -4 -7 -7 0 -12 -7 -12 -16 0 -14 8 -16 53 -11 29 4 57 13 63
22 7 9 27 15 53 15 51 0 58 27 9 33 -32 4 -32 4 5 5 26 2 37 -2 37 -12z m368
7 c-22 -5 -24 -33 -3 -33 19 0 21 -61 3 -90 -7 -10 -9 -22 -5 -26 11 -11 57
14 57 30 0 8 4 16 10 18 6 2 7 22 1 56 l-8 52 36 -1 c30 -2 32 -3 9 -6 -42 -6
-36 -33 8 -33 31 0 35 -3 30 -20 -3 -11 -8 -29 -11 -39 -3 -11 0 -34 7 -53 20
-50 12 -97 -18 -104 -13 -3 -24 -12 -24 -19 0 -17 33 -25 76 -18 19 3 34 1 34
-4 0 -10 43 -33 62 -33 6 0 8 9 5 20 -5 20 -2 20 79 15 46 -3 84 -2 84 2 0 5
24 6 53 3 48 -5 52 -7 55 -32 3 -28 32 -41 32 -15 0 9 9 12 28 9 22 -3 30 -11
40 -43 16 -53 15 -67 -7 -78 -18 -10 -19 -7 -15 49 3 47 1 60 -10 60 -16 0
-29 -41 -20 -64 3 -9 1 -16 -5 -16 -6 0 -11 11 -11 25 0 18 -5 25 -20 25 -11
0 -20 -7 -20 -15 0 -8 -3 -15 -7 -15 -12 0 -43 33 -43 47 0 7 -4 13 -10 13 -5
0 -10 7 -10 15 0 8 -7 15 -16 15 -12 0 -15 -6 -10 -25 4 -14 2 -25 -4 -25 -5
0 -10 -7 -10 -16 0 -11 6 -15 20 -11 16 4 20 0 20 -19 0 -13 9 -28 21 -35 17
-9 20 -17 15 -44 -4 -19 -2 -35 4 -37 6 -2 6 -14 1 -33 -8 -25 -9 -26 -10 -7
-1 12 -5 22 -11 22 -5 0 -10 10 -10 23 -1 40 -24 59 -63 52 l-35 -7 14 64 c17
80 17 78 -2 78 -9 0 -21 -14 -27 -30 -13 -33 -36 -45 -73 -36 -20 5 -23 11
-18 31 5 22 3 25 -22 25 -16 0 -40 3 -53 7 -22 6 -23 4 -17 -23 9 -34 20 -47
61 -68 28 -15 28 -16 7 -16 -21 0 -23 -3 -17 -30 6 -29 5 -30 -23 -24 -21 4
-31 2 -35 -9 -4 -12 -19 -14 -60 -12 -50 3 -71 10 -117 37 -8 5 -27 14 -42 21
-16 6 -28 15 -28 20 0 4 -11 19 -25 33 -36 36 -33 67 6 57 12 -3 19 -14 19
-28 0 -17 7 -24 28 -28 15 -3 40 -17 55 -31 16 -14 32 -26 38 -26 5 0 9 -7 9
-16 0 -12 6 -15 23 -10 12 3 43 6 70 6 39 0 47 3 47 19 0 14 -10 20 -39 25
-22 3 -46 3 -55 0 -10 -4 -18 1 -23 12 -4 11 -29 40 -55 65 -60 58 -61 71 -6
67 33 -2 43 1 46 13 2 13 -8 18 -46 23 -57 7 -66 13 -47 32 9 9 24 12 40 8 21
-5 25 -3 25 14 0 24 -53 40 -74 23 -11 -9 -15 -6 -18 12 -3 13 -1 32 3 43 4
10 8 34 8 52 1 17 6 32 11 32 6 0 10 6 10 14 0 10 -13 16 -37 19 -24 2 -16 4
22 4 33 0 52 -1 43 -4z m3340 -21 c37 1 75 5 85 10 12 6 17 5 17 -7 0 -18 26
-20 33 -2 3 7 6 5 6 -5 1 -14 10 -18 36 -18 l35 0 0 -65 c0 -60 -2 -66 -25
-77 -14 -6 -25 -18 -26 -27 0 -14 -1 -14 -6 -1 -3 8 -14 23 -24 32 -10 10 -22
34 -28 53 -17 61 -48 95 -87 95 -20 0 -43 -4 -53 -10 -25 -13 -45 -64 -37 -95
7 -28 38 -35 35 -7 -3 36 1 52 16 52 8 0 15 5 15 10 0 15 26 12 41 -6 10 -13
10 -20 -4 -44 -13 -21 -17 -52 -17 -123 0 -105 -5 -114 -57 -92 -40 17 -45 27
-27 53 11 16 21 21 40 16 28 -7 27 -10 13 56 -11 50 -11 50 -42 45 -18 -3 -51
-7 -74 -9 l-43 -4 0 42 0 41 -60 0 c-42 0 -60 -4 -60 -12 0 -7 4 -13 9 -13 4
0 6 -11 4 -25 -4 -20 -13 -25 -47 -30 -61 -9 -178 1 -187 17 -12 18 -11 28 1
28 22 0 10 47 -15 58 -14 7 -28 19 -31 27 -10 24 -34 18 -34 -9 0 -37 -40 -39
-94 -3 -66 42 -61 57 17 55 34 -2 98 -2 142 -1 44 1 164 1 267 0 161 -2 188 0
189 13 1 11 2 11 6 -2 3 -13 17 -16 71 -16z m-2774 -127 c14 -13 26 -28 26
-34 0 -5 4 -11 9 -13 13 -5 24 -48 12 -48 -5 0 -30 14 -54 30 -71 47 -122 34
-60 -16 l27 -22 -49 4 c-27 2 -52 -1 -55 -6 -7 -11 -50 20 -50 35 0 5 -7 16
-16 26 -24 26 -8 40 44 37 26 -1 58 1 72 6 19 5 31 2 47 -14 26 -24 43 -26 43
-5 0 8 -4 15 -9 15 -5 0 -11 7 -15 15 -7 20 -3 19 28 -10z m3057 -86 c28 -28
33 -119 7 -119 -31 0 -20 -27 13 -34 17 -3 35 -3 40 0 5 3 9 -24 9 -60 0 -41
-5 -68 -12 -73 -15 -9 -70 -5 -81 6 -5 5 -8 59 -8 122 0 203 -3 193 32 158z
m-671 -24 c0 -8 7 -15 15 -15 8 0 15 7 15 15 0 8 5 15 10 15 6 0 10 -7 10 -15
0 -8 5 -15 10 -15 6 0 10 -33 10 -80 l0 -80 -27 0 c-31 -1 -63 -21 -63 -39 0
-7 10 -12 23 -11 45 4 57 0 57 -20 0 -17 -7 -20 -50 -20 l-50 0 -1 63 c-3 153
6 217 31 217 6 0 10 -7 10 -15z m235 -35 c7 0 16 6 19 13 3 6 4 -1 0 -17 -3
-18 0 -32 8 -37 9 -6 6 -9 -9 -9 -13 0 -23 -3 -23 -7 0 -5 -3 -18 -6 -30 -5
-17 -2 -23 10 -23 9 0 16 5 16 10 0 6 6 10 14 10 8 0 16 4 18 10 2 6 14 6 33
1 17 -5 22 -10 13 -10 -26 -1 -22 -31 3 -31 21 0 21 -1 -5 -25 -17 -16 -26
-34 -26 -55 0 -26 -3 -30 -28 -30 -27 0 -52 15 -52 32 0 4 7 8 15 8 9 0 15 9
15 25 0 26 -24 35 -33 13 -3 -7 -5 30 -5 82 0 52 2 89 5 83 2 -7 11 -13 18
-13z m-2845 -230 c0 -13 7 -20 19 -20 11 0 29 -13 41 -30 12 -16 17 -30 11
-30 -6 0 -11 -7 -11 -15 0 -8 7 -15 15 -15 8 0 15 8 15 17 0 9 3 14 6 10 10
-9 -7 -67 -19 -67 -14 0 -77 -66 -77 -80 0 -10 -30 -14 -81 -10 -21 1 -29 -6
-40 -32 l-14 -33 -5 35 c-3 21 0 40 7 48 7 7 13 19 13 25 0 7 7 4 14 -5 21
-29 39 -22 34 12 -4 26 -1 30 18 30 12 0 24 -7 28 -15 6 -15 41 -21 49 -7 3 4
8 25 11 48 7 39 6 42 -23 53 -17 8 -43 10 -60 6 -20 -4 -31 -3 -31 4 0 6 -7
11 -16 11 -12 0 -15 -7 -12 -25 3 -14 4 -25 2 -25 -13 0 -34 14 -34 23 0 6 -7
18 -16 28 -15 17 -14 18 12 24 16 3 52 17 79 30 61 30 65 30 65 5z m-250 -30
c12 0 61 -48 82 -82 16 -24 16 -30 3 -65 l-14 -38 6 43 c4 34 3 42 -10 42 -11
0 -20 -20 -31 -67 -18 -79 -7 -145 31 -189 33 -39 31 -57 -4 -42 -48 21 -69
37 -84 65 -8 15 -22 35 -31 45 -10 10 -18 25 -18 33 0 8 -6 15 -14 15 -7 0
-16 11 -18 25 -4 17 -1 25 8 25 8 0 14 7 14 15 0 8 -7 15 -16 15 -12 0 -14 7
-9 30 4 19 3 30 -4 30 -10 0 5 23 40 60 8 9 19 25 22 34 5 11 13 16 23 12 9
-3 20 -6 24 -6z m1303 -41 c40 -21 48 -44 18 -52 -12 -3 -26 5 -42 24 -26 31
-49 38 -49 14 0 -8 4 -15 8 -15 4 0 16 -13 25 -29 l17 -30 -77 5 c-43 2 -79 9
-81 14 -2 6 -9 10 -17 10 -23 0 -38 27 -26 47 6 10 11 12 11 6 0 -18 30 -16
30 2 0 8 7 15 15 15 8 0 15 5 15 11 0 16 108 0 153 -22z m-2543 -40 c0 -5 9
-9 20 -9 11 0 20 -4 20 -10 0 -5 7 -10 15 -10 8 0 15 5 15 11 0 6 6 17 14 25
13 12 17 12 30 -1 20 -20 36 -19 37 3 1 9 6 -1 12 -23 7 -29 7 -40 -2 -43 -7
-2 -9 -16 -5 -37 3 -19 1 -57 -5 -86 -8 -34 -8 -55 -2 -59 6 -3 7 -11 3 -17
-5 -7 -13 -2 -25 13 -10 13 -13 24 -7 24 5 0 10 7 10 15 0 9 -9 15 -25 15 -15
0 -25 6 -25 14 0 8 -10 16 -22 20 -24 6 -48 46 -48 79 0 14 -5 18 -18 15 -12
-3 -24 2 -31 13 -9 16 -8 19 9 19 11 0 20 7 20 15 0 8 -4 15 -10 15 -5 0 -10
4 -10 10 0 5 7 7 15 4 8 -4 15 -10 15 -15z m257 8 c15 -24 88 -51 151 -55 67
-5 79 -17 33 -35 -16 -6 -34 -20 -40 -31 -9 -19 -10 -19 -10 -3 -1 13 -7 17
-23 15 -18 -2 -23 -10 -23 -32 0 -25 6 -31 65 -54 36 -14 68 -30 72 -35 3 -6
35 -8 76 -4 39 3 72 3 75 0 16 -16 -79 -75 -123 -77 -29 -1 -40 -34 -16 -48
22 -12 20 -22 -9 -54 -14 -15 -25 -32 -25 -38 -1 -21 -68 -86 -89 -86 -14 0
-21 -6 -21 -20 0 -11 -7 -23 -15 -26 -8 -4 -15 -10 -15 -15 0 -6 -13 -22 -28
-38 -21 -20 -34 -25 -48 -20 -10 4 -13 8 -6 8 17 1 15 31 -3 31 -18 0 -19 7
-2 25 51 54 56 69 30 84 -17 10 -17 10 0 11 9 0 17 6 17 13 0 9 2 9 9 -1 11
-17 61 -5 61 15 0 11 -7 13 -23 9 -16 -4 -27 1 -38 15 -7 12 -29 37 -46 57
-31 34 -45 82 -23 82 6 0 10 7 10 15 0 8 -4 15 -10 15 -11 0 -14 207 -4 259 7
32 27 41 41 18z m1493 -67 c0 -5 11 -10 24 -10 15 0 34 -12 50 -31 29 -34 34
-69 11 -69 -8 0 -15 -7 -15 -15 0 -8 4 -15 9 -15 11 0 -12 -49 -45 -99 l-22
-33 1 51 c1 31 8 55 16 60 8 5 11 16 6 30 -7 24 -35 29 -35 6 0 -9 -9 -15 -25
-15 -15 0 -25 6 -25 15 0 8 -14 17 -35 21 -42 8 -65 0 -65 -22 0 -13 7 -16 33
-11 42 7 70 -8 33 -17 -28 -7 -36 -36 -11 -36 8 0 15 -4 15 -10 0 -5 7 -10 15
-10 9 0 15 9 15 21 0 18 2 19 15 5 19 -19 19 -45 1 -52 -8 -3 -22 -20 -31 -37
-8 -18 -21 -40 -27 -49 -19 -27 -3 -32 47 -15 41 13 47 13 52 0 3 -8 1 -18 -4
-22 -6 -3 -13 -16 -17 -28 -9 -30 -32 -29 -51 1 -10 15 -33 28 -59 35 -30 7
-45 17 -49 31 -3 11 -2 20 3 20 4 0 10 -9 13 -20 6 -23 37 -27 37 -5 0 9 -7
18 -15 21 -8 4 -15 15 -15 25 0 10 -4 19 -10 19 -18 0 -11 20 16 46 29 30 28
58 -3 62 -14 2 -26 -4 -33 -18 -9 -17 -14 -19 -26 -9 -34 28 -1 104 59 136 18
10 34 17 37 16 3 0 21 -3 41 -7 33 -6 37 -4 43 19 6 24 26 36 26 15z m680
-140 c0 -5 -4 -10 -10 -10 -5 0 -10 -9 -10 -19 0 -14 8 -21 28 -23 23 -3 27
-8 30 -39 2 -28 9 -38 30 -46 25 -10 24 -11 -20 -12 -34 -1 -48 -5 -48 -15 0
-8 4 -16 9 -18 9 -3 -3 -115 -13 -126 -4 -3 -12 3 -20 13 -13 18 -16 18 -42 5
-16 -8 -33 -21 -37 -27 -4 -7 -14 -13 -21 -13 -8 0 -16 -6 -19 -14 -4 -9 -14
-12 -26 -9 -15 4 -21 1 -21 -11 0 -9 6 -16 13 -16 6 0 12 -10 12 -22 1 -13 4
-36 8 -51 l8 -28 -38 20 c-35 18 -72 49 -98 83 -53 68 -54 69 -44 94 5 14 9
41 9 60 0 24 5 34 15 34 17 0 20 27 4 32 -9 3 -9 9 0 25 9 18 17 66 20 118 1
13 131 19 131 5 0 -5 7 -10 15 -10 8 0 15 4 15 9 0 12 24 18 78 20 23 0 42 -3
42 -9z m-2340 -60 c0 -11 5 -20 10 -20 6 0 10 -9 10 -20 0 -11 7 -20 15 -20
23 0 37 -35 25 -66 -6 -15 -8 -35 -5 -45 5 -14 1 -19 -13 -19 -15 0 -19 5 -15
21 5 17 2 20 -18 17 -21 -3 -24 1 -21 25 4 35 -23 37 -32 3 -10 -40 9 -72 57
-95 49 -24 59 -38 50 -69 -11 -43 -113 -29 -113 15 0 12 -5 23 -11 23 -7 0 -9
9 -5 23 18 65 18 64 -6 71 -15 4 -19 9 -11 14 6 4 15 20 18 35 5 19 14 27 29
27 33 0 49 15 41 39 -3 11 -11 21 -16 21 -5 0 -9 9 -9 20 0 11 5 20 10 20 6 0
10 -9 10 -20z m1893 -46 c-3 -8 -9 -14 -14 -14 -13 0 -11 -28 2 -32 6 -2 13
-26 14 -53 1 -28 3 -57 4 -67 0 -9 13 -21 29 -26 15 -6 21 -11 14 -11 -9 -1
-10 -12 -6 -43 6 -37 5 -41 -10 -35 -10 4 -19 7 -22 7 -24 0 -78 215 -67 271
4 21 9 25 33 21 19 -3 27 -9 23 -18z m1087 -25 c0 -11 -4 -19 -10 -19 -5 0
-10 -9 -10 -20 0 -11 4 -20 9 -20 5 0 11 -22 15 -49 4 -28 13 -62 21 -78 8
-15 15 -36 15 -45 0 -9 4 -19 9 -22 5 -3 7 -15 4 -26 -3 -11 0 -20 6 -20 6 0
11 -8 11 -17 0 -9 15 -29 33 -45 31 -27 31 -28 13 -43 -11 -8 -25 -15 -30 -15
-6 0 -3 5 7 11 24 14 21 36 -5 50 -13 7 -26 16 -29 22 -13 18 -39 -2 -40 -30
0 -15 -3 -22 -6 -15 -2 6 -11 12 -18 12 -9 0 -15 27 -20 95 -4 51 -4 99 -1
104 4 6 4 22 0 36 -8 32 -39 30 -38 -3 0 -12 -5 -22 -12 -22 -11 0 -24 -21
-24 -41 0 -5 8 -9 18 -9 13 0 17 -8 16 -37 -1 -20 -6 -39 -13 -41 -16 -5 -14
-32 3 -32 10 0 12 -12 9 -47 -6 -62 -10 -73 -18 -46 -4 12 -13 24 -21 27 -8 3
-14 11 -14 18 0 7 -7 26 -15 42 -19 36 -13 68 26 141 16 31 33 72 38 93 6 23
9 29 10 15 1 -13 7 -23 16 -23 12 0 15 15 15 71 0 62 2 70 15 59 8 -7 15 -21
15 -31z m-1600 -49 c0 -31 -22 -50 -59 -50 -25 0 -27 -18 -4 -35 14 -11 15
-16 4 -44 -15 -34 -23 -38 -43 -18 -17 17 -87 57 -99 57 -5 0 -9 -9 -9 -20 0
-11 6 -20 14 -20 7 0 19 -7 26 -15 7 -8 21 -15 31 -15 12 0 19 -7 19 -20 0
-13 7 -20 20 -20 15 0 20 -6 19 -27 -1 -17 -3 -21 -6 -10 -6 23 -30 22 -38 -2
-6 -20 24 -61 44 -61 11 0 26 -59 17 -67 -3 -3 -30 15 -60 41 -30 25 -60 46
-66 46 -7 0 -21 11 -32 25 -11 14 -26 25 -34 25 -28 0 -62 30 -57 49 3 13 -2
21 -18 26 -14 5 -25 3 -27 -4 -2 -6 -10 -11 -18 -11 -25 0 -114 44 -114 56 0
17 -60 29 -70 14 -12 -19 -45 -7 -48 18 -2 12 -10 22 -19 22 -11 0 -14 -7 -11
-25 3 -13 1 -22 -3 -19 -5 3 -9 12 -9 20 0 8 -7 14 -15 14 -8 0 -15 -5 -15
-10 0 -7 -6 -7 -20 0 -24 13 -27 40 -4 40 9 0 14 8 13 18 -4 42 -1 44 54 37
72 -9 87 -14 87 -31 0 -8 7 -14 15 -14 8 0 15 5 15 10 0 18 42 11 47 -8 3 -14
15 -18 52 -19 47 -1 111 -22 69 -23 -10 0 -18 -7 -18 -15 0 -10 8 -15 23 -13
12 1 41 -1 64 -6 35 -6 45 -4 62 13 12 12 21 23 21 26 0 3 16 22 35 41 24 24
41 33 53 29 10 -3 36 1 58 9 54 20 54 20 54 -14z m-770 0 c-6 -11 -19 -20 -30
-20 -13 0 -21 -10 -25 -31 -9 -38 0 -44 66 -53 27 -4 52 -13 56 -21 5 -8 28
-16 51 -18 42 -4 72 -17 39 -17 -9 0 -17 -6 -17 -14 0 -8 -20 -22 -45 -33 -40
-16 -62 -43 -35 -43 6 0 6 -9 0 -26 -18 -48 -14 -54 39 -54 28 0 53 -5 56 -10
4 -6 26 -8 56 -4 27 4 49 4 49 2 0 -3 -13 -21 -30 -39 -16 -19 -30 -40 -30
-46 0 -7 -4 -13 -10 -13 -5 0 -10 -6 -10 -14 0 -25 -27 -25 -40 0 -8 13 -19
24 -27 24 -16 0 -17 -32 -1 -48 13 -13 8 -15 -16 -6 -11 4 -14 13 -10 30 4 17
2 24 -9 24 -8 0 -17 -8 -19 -18 -4 -15 -13 -17 -43 -14 -25 3 -40 0 -46 -9 -7
-11 -9 -10 -9 4 0 13 -9 17 -37 19 -21 0 -54 2 -73 3 -19 0 -56 2 -82 3 -27 1
-48 7 -48 12 0 6 6 10 13 10 8 0 29 8 47 17 24 12 35 13 38 5 7 -22 33 -13 30
9 -2 17 8 27 48 48 78 40 106 51 131 51 44 0 24 46 -25 56 -25 5 -32 3 -32 -9
0 -18 -31 -30 -72 -29 -18 0 -28 -5 -28 -14 0 -17 -27 -19 -32 -3 -4 12 -71
-5 -92 -23 -6 -4 -18 -8 -28 -8 -10 0 -18 -3 -18 -8 0 -4 -15 -12 -34 -18
l-33 -10 21 45 c32 69 35 72 62 65 29 -7 34 19 7 35 -15 8 -15 13 -4 37 7 16
21 34 32 42 11 7 28 30 38 50 30 59 63 92 86 87 11 -3 43 -1 70 4 28 5 54 9
58 10 4 0 3 -8 -3 -19z m843 -27 c-7 -2 -13 -11 -13 -19 0 -10 13 -14 46 -14
50 0 70 -15 101 -74 12 -24 13 -30 1 -37 -18 -12 -21 -11 -44 6 -10 8 -27 15
-36 15 -19 0 -25 -25 -8 -35 6 -3 10 -10 10 -15 0 -11 -32 -1 -41 13 -4 5 -17
7 -30 3 -44 -12 -63 -34 -69 -84 l-6 -47 -12 64 c-13 72 -9 83 44 144 20 21
34 48 34 62 0 17 5 25 18 24 10 0 12 -3 5 -6z m1052 -54 c-7 -30 -6 -30 27
-27 25 2 38 -3 55 -22 13 -14 23 -27 23 -30 0 -3 -16 -20 -35 -39 -25 -23 -35
-28 -35 -17 0 9 -4 16 -10 16 -5 0 -10 7 -10 15 0 8 -7 15 -15 15 -8 0 -15 -7
-15 -15 0 -8 5 -15 10 -15 6 0 10 -6 10 -14 0 -8 5 -16 12 -18 23 -8 -1 -37
-48 -57 -50 -23 -84 -27 -84 -11 0 6 -10 10 -21 10 -17 0 -20 -4 -16 -22 6
-22 5 -22 -8 -4 -13 17 -12 21 3 32 20 15 23 91 4 103 -26 16 21 81 58 81 12
0 33 11 48 25 38 35 55 33 47 -6z m-1445 -169 c8 -11 22 -20 32 -20 30 0 65
-21 118 -71 29 -27 58 -49 65 -49 8 0 16 -8 19 -17 25 -91 13 -116 -35 -73
-19 16 -42 32 -51 36 -10 3 -18 12 -18 20 0 8 -8 14 -17 14 -10 0 -36 11 -58
25 -22 13 -46 25 -53 25 -7 0 -20 7 -28 15 -9 8 -24 15 -35 15 -22 0 -24 14
-8 58 9 26 18 34 49 41 3 0 12 -8 20 -19z m396 -89 c5 -5 20 -11 33 -13 31 -4
37 -21 16 -42 -14 -13 -15 -22 -6 -47 9 -26 9 -29 -3 -20 -15 13 -66 5 -66
-10 0 -13 -28 -11 -32 3 -2 6 -12 9 -21 5 -21 -8 -22 -53 -2 -61 15 -5 22 -66
7 -66 -18 0 -34 47 -33 99 0 61 12 104 36 127 13 14 15 14 15 0 0 -9 7 -16 15
-16 8 0 15 7 15 15 0 8 -6 15 -12 15 -9 0 -8 4 2 10 19 12 24 12 36 1z m-369
-77 c48 -26 90 -50 91 -55 2 -5 10 -9 17 -9 8 0 11 -7 8 -20 -4 -14 0 -20 10
-20 14 0 92 -72 122 -112 38 -51 43 -98 10 -98 -8 0 -15 -8 -16 -17 0 -11 -3
-13 -6 -5 -2 6 -11 12 -19 12 -8 0 -14 6 -14 13 0 7 -9 18 -20 25 -15 9 -20
23 -20 57 0 38 -3 45 -19 45 -13 0 -21 -8 -23 -22 -3 -22 -3 -22 -32 5 -33 31
-56 35 -56 9 0 -22 50 -69 83 -77 14 -4 27 -16 30 -27 3 -11 15 -22 26 -25 12
-3 21 -10 21 -15 0 -5 9 -21 20 -35 11 -14 20 -36 20 -49 0 -18 6 -24 21 -24
23 0 49 -22 49 -42 0 -7 -9 -19 -19 -25 -16 -10 -24 -7 -55 24 -21 22 -36 46
-36 60 0 20 -5 24 -22 22 -32 -5 -47 8 -40 33 4 18 2 20 -16 16 -16 -4 -22 -2
-22 9 0 11 -6 14 -21 10 -12 -3 -22 0 -26 9 -3 8 -16 14 -29 14 -34 0 -93 32
-94 51 0 9 -6 22 -14 29 -8 6 -12 18 -9 27 3 8 0 19 -8 24 -12 8 -12 11 1 19
16 10 79 3 95 -11 14 -13 35 -11 35 4 0 7 -9 20 -20 30 -28 23 -25 34 10 42
42 9 39 33 -4 33 -24 0 -36 -5 -39 -16 -3 -12 -5 -9 -6 6 -1 17 -6 22 -23 21
-45 -4 -58 1 -58 21 0 11 -7 20 -15 20 -18 0 -18 1 -5 34 13 36 36 33 137 -20z
m-227 -53 c-15 -38 -7 -51 33 -51 40 0 77 -10 77 -20 0 -5 -13 -14 -30 -22
-16 -7 -30 -16 -30 -20 0 -5 -10 -8 -21 -8 -16 0 -20 -5 -16 -20 3 -11 1 -20
-4 -20 -17 0 -9 -29 10 -35 10 -3 35 -21 54 -40 22 -21 46 -35 61 -35 20 0 76
-24 135 -57 8 -5 -22 -93 -35 -104 -24 -20 -15 -36 29 -57 24 -11 49 -27 56
-36 16 -19 61 -21 61 -3 0 7 -5 18 -12 25 -9 9 -8 12 5 12 9 0 17 7 17 16 0
13 -6 15 -27 9 -32 -8 -33 -8 -55 -6 -22 1 -25 41 -3 41 18 0 20 27 3 32 -7 3
-3 7 9 10 15 4 31 -2 48 -16 14 -11 39 -32 55 -46 16 -14 30 -31 30 -37 0 -15
13 -16 59 -7 17 4 31 13 31 20 0 8 5 14 10 14 6 0 10 -5 10 -11 0 -7 8 -17 17
-24 15 -11 15 -14 1 -28 -14 -15 -17 -14 -33 3 -10 11 -24 20 -32 20 -15 0
-18 -26 -3 -35 6 -3 10 -15 10 -26 0 -10 6 -19 13 -19 6 0 22 -3 35 -6 14 -4
22 -2 22 6 0 10 23 40 32 40 2 0 3 -13 3 -30 0 -17 -5 -30 -12 -30 -23 0 -14
-32 17 -62 17 -15 30 -33 30 -39 0 -7 11 -9 30 -5 29 5 30 5 30 -34 0 -54 25
-54 34 -1 5 32 11 41 37 50 40 14 39 14 39 -4 0 -8 6 -15 14 -15 14 0 46 -36
46 -52 0 -5 -7 -8 -15 -8 -9 0 -15 -9 -15 -25 0 -14 -4 -25 -10 -25 -5 0 -10
-7 -10 -15 0 -8 -4 -15 -10 -15 -5 0 -10 -7 -10 -15 0 -22 37 -18 43 5 6 24
57 29 57 5 0 -17 27 -20 49 -6 12 8 13 14 3 36 -18 38 -15 46 13 39 22 -5 25
-3 25 21 0 22 -4 26 -20 22 -13 -3 -20 0 -20 9 0 8 -9 14 -20 14 -11 0 -20 -4
-20 -10 0 -5 -4 -10 -10 -10 -5 0 -10 8 -10 19 0 10 -7 24 -15 31 -8 7 -15 19
-15 26 0 8 -4 14 -10 14 -17 0 -11 35 9 58 l18 22 9 -33 c12 -39 50 -54 41
-15 -18 76 -19 98 -4 98 9 0 18 -12 21 -30 3 -16 9 -43 12 -60 7 -35 34 -41
34 -7 0 22 31 57 50 57 6 0 10 5 10 10 0 6 25 10 56 10 40 0 55 -3 52 -12 -3
-7 -13 -15 -24 -17 -10 -2 -27 -13 -36 -24 -10 -11 -18 -15 -18 -9 0 27 -30 9
-46 -28 -13 -30 -24 -40 -41 -40 -30 0 -30 -28 -1 -60 13 -13 21 -33 20 -45
-2 -13 7 -26 25 -37 15 -10 22 -18 16 -18 -15 0 -18 -30 -4 -30 5 0 12 -13 16
-30 4 -16 12 -30 20 -30 17 0 15 92 -3 98 -17 5 -15 32 3 32 8 0 15 7 15 15 0
8 -9 15 -20 15 -28 0 -36 43 -18 99 15 46 15 46 23 17 5 -18 4 -36 -4 -47 -16
-27 -14 -39 9 -39 13 0 20 -7 20 -20 0 -11 7 -20 15 -20 20 0 32 30 16 39 -16
10 -3 61 15 61 19 0 18 18 -1 37 -28 28 -6 27 23 0 16 -15 33 -27 40 -27 11 0
32 -31 32 -47 -1 -23 -43 -56 -70 -55 -35 1 -38 -10 -10 -38 24 -24 50 -26 50
-5 0 8 11 17 25 21 14 3 25 11 25 18 0 7 3 7 8 1 11 -16 68 -45 87 -45 14 0
16 6 12 30 -6 26 -3 30 14 30 18 0 20 -2 8 -16 -10 -12 -10 -20 -1 -35 7 -11
8 -19 2 -19 -5 0 -10 -7 -10 -15 0 -8 4 -15 10 -15 11 0 30 -64 30 -105 1 -16
11 -54 24 -84 13 -30 21 -62 18 -73 -4 -17 -5 -17 -23 3 -11 12 -25 19 -34 15
-9 -3 -15 0 -15 9 0 8 -5 15 -10 15 -6 0 -2 10 10 22 24 26 26 73 5 95 -9 8
-33 17 -55 20 l-40 6 0 63 c0 48 -4 64 -14 64 -9 0 -15 -17 -18 -50 -4 -37
-11 -55 -29 -70 -13 -11 -29 -24 -36 -30 -7 -5 -17 -10 -23 -10 -17 0 -38 -25
-46 -54 -5 -20 -2 -26 10 -26 9 0 16 7 16 15 0 9 12 21 28 28 15 6 32 18 37
25 9 11 16 11 37 2 17 -8 32 -9 42 -3 28 16 76 4 76 -19 0 -15 -5 -18 -21 -13
-14 5 -25 1 -35 -12 -11 -13 -17 -14 -20 -5 -8 17 -34 15 -34 -3 0 -8 7 -15
15 -15 8 0 15 -4 15 -10 0 -5 -9 -10 -19 -10 -22 0 -34 -25 -26 -51 7 -21 31
-25 38 -6 2 6 4 -3 3 -20 -1 -18 -4 -33 -8 -33 -5 0 -8 4 -8 9 0 5 -9 11 -20
14 -11 3 -20 12 -20 21 0 9 -6 16 -12 16 -10 0 -10 2 -1 8 6 4 15 20 18 35 5
20 4 27 -8 27 -8 0 -17 -9 -20 -19 -3 -14 -11 -18 -26 -14 -18 5 -21 1 -21
-26 0 -24 5 -32 25 -37 32 -8 32 -24 1 -24 -13 0 -31 -3 -40 -6 -12 -4 -16 0
-16 15 0 28 -28 27 -40 -1 -7 -18 -9 -19 -9 -5 -1 20 -31 24 -31 3 0 -8 -15
-17 -35 -20 -26 -5 -35 -12 -35 -26 0 -29 -23 -24 -42 9 -18 32 -15 41 14 41
10 0 18 7 18 15 0 9 -10 15 -26 15 -17 0 -28 6 -31 20 -3 11 -10 20 -15 20
-12 0 -42 30 -36 36 11 10 58 -16 58 -32 0 -12 6 -15 23 -10 12 3 34 6 50 6
18 0 27 5 27 16 0 13 -8 15 -40 12 -26 -2 -40 1 -40 8 0 7 -12 15 -27 19 -15
3 -31 11 -34 17 -9 14 -49 0 -49 -18 0 -23 -26 -44 -54 -44 -19 0 -26 5 -26
20 0 11 -7 20 -15 20 -9 0 -15 -9 -15 -21 0 -14 -5 -19 -17 -17 -12 2 -17 11
-15 27 6 41 -31 21 -44 -24 -7 -25 -17 -41 -28 -41 -12 -2 -13 -1 -1 3 24 7
19 36 -5 30 -12 -3 -20 0 -20 8 0 8 8 11 20 8 14 -4 20 0 20 11 0 9 -4 16 -10
16 -5 0 -10 7 -10 15 0 9 9 15 25 15 14 0 25 4 25 9 0 18 -12 41 -22 41 -13 0
-38 -26 -38 -39 0 -6 -4 -11 -10 -11 -5 0 -10 -9 -10 -20 0 -24 -13 -26 -34
-5 -8 8 -19 15 -25 15 -6 0 -11 5 -11 10 0 6 -9 10 -20 10 -22 0 -25 -16 -10
-54 9 -25 8 -26 -18 -20 -15 4 -32 13 -38 20 -6 8 -16 14 -23 14 -21 0 -11 19
11 22 13 2 24 11 26 20 3 14 -3 18 -28 18 -18 0 -33 -6 -36 -15 -9 -22 -19
-18 -32 10 -14 31 -30 32 -62 2 -27 -24 -60 -25 -60 -1 0 18 -24 18 -43 0 -8
-8 -31 -18 -51 -21 -29 -6 -36 -4 -36 8 0 8 -3 24 -6 34 -4 13 -3 15 4 4 8
-11 16 -11 48 -1 72 23 84 30 84 45 0 9 11 20 25 25 15 6 25 17 25 30 0 11 5
20 10 20 6 0 10 7 10 15 0 8 5 15 10 15 6 0 10 7 10 15 0 8 -7 15 -15 15 -8 0
-15 -7 -15 -15 0 -8 -4 -15 -9 -15 -5 0 -12 -8 -14 -17 -3 -11 -5 -7 -6 10 -1
28 -31 40 -31 13 0 -8 -6 -16 -12 -19 -10 -3 -10 -9 0 -26 7 -12 8 -21 2 -21
-5 0 -10 5 -10 11 0 6 -9 9 -19 6 -11 -3 -22 1 -25 9 -3 8 0 11 11 7 15 -6 33
12 33 35 0 6 -9 12 -21 12 -18 0 -20 4 -14 30 6 27 4 30 -20 30 -24 0 -26 -3
-20 -30 7 -34 1 -38 -23 -14 -10 11 -15 29 -13 50 3 36 0 38 -36 28 -22 -6
-33 -34 -14 -34 5 0 12 -13 16 -29 3 -16 15 -39 26 -52 10 -12 19 -27 19 -33
0 -6 -7 -3 -14 7 -18 23 -40 22 -33 -2 3 -15 0 -17 -17 -13 -11 3 -15 7 -8 10
18 6 15 52 -3 52 -8 0 -16 -8 -16 -17 -1 -17 -2 -17 -6 -1 -6 25 -28 22 -41
-5 l-11 -22 0 23 c-1 23 -16 28 -40 13 -11 -7 -11 -15 -3 -40 14 -40 7 -60
-19 -54 -13 4 -19 0 -19 -11 0 -9 8 -16 18 -16 16 -1 16 -1 0 -11 -21 -12 -24
-35 -5 -42 7 -3 5 -6 -5 -6 -18 -1 -23 14 -19 56 1 15 -5 22 -20 25 -29 4 -37
28 -10 28 12 0 21 4 21 9 0 5 9 7 20 4 29 -8 26 23 -2 31 l-23 7 23 9 c24 10
31 40 8 40 -9 0 -12 8 -8 25 4 24 22 36 22 15 0 -5 9 -10 19 -10 17 0 31 18
31 41 0 14 -27 11 -34 -3 -5 -10 -7 -10 -12 0 -3 6 -12 12 -19 12 -7 0 -16 -6
-18 -12 -3 -8 -6 -6 -6 5 -1 9 4 17 9 17 6 0 10 6 10 14 0 16 -96 28 -121 15
-11 -6 -21 -4 -29 6 -10 12 -9 15 9 15 11 0 21 5 21 11 0 7 12 9 35 5 27 -5
35 -4 35 8 0 9 -13 18 -35 22 -35 6 -49 24 -20 24 8 0 15 7 15 15 0 8 -7 15
-15 15 -8 0 -15 -4 -15 -10 0 -5 -7 -10 -15 -10 -8 0 -15 -8 -16 -17 0 -11 -3
-13 -6 -5 -7 17 -33 15 -33 -3 0 -8 7 -15 15 -15 8 0 15 -7 15 -15 0 -8 -4
-15 -9 -15 -5 0 -11 7 -15 15 -10 28 -42 17 -54 -17 -5 -18 -10 -25 -11 -16
-1 9 -9 19 -18 21 -14 4 -12 5 5 6 26 1 27 11 6 53 -9 18 -12 33 -6 37 5 3 12
13 15 21 4 12 6 11 6 -2 1 -23 19 -23 40 1 9 10 26 21 39 25 30 10 29 36 -3
36 -16 0 -25 -6 -25 -15 0 -8 -6 -15 -14 -15 -8 0 -16 -6 -19 -12 -3 -7 -8 6
-12 29 -4 24 -14 44 -24 48 -14 6 -14 8 2 20 10 7 27 11 37 8 11 -3 20 -1 20
5 0 12 36 22 47 12 4 -3 31 -15 58 -24 28 -10 57 -27 67 -37 18 -21 58 -26 58
-6 -1 19 -49 60 -112 96 -37 21 -58 39 -57 49 1 15 2 15 6 0 7 -27 33 -22 33
7 0 30 -20 75 -33 75 -5 0 -19 -10 -31 -22 -24 -26 -58 -30 -67 -8 -9 21 1 50
17 50 8 0 14 7 14 15 0 9 -9 15 -25 15 -18 0 -25 5 -25 20 0 11 -7 20 -15 20
-8 0 -15 -9 -15 -20 0 -11 7 -20 15 -20 31 0 14 -28 -20 -34 -43 -8 -75 0 -75
20 0 8 -6 14 -13 14 -7 0 -18 10 -26 21 -18 30 -4 36 75 32 36 -2 71 0 77 5 7
6 44 13 83 17 68 6 71 6 77 -15 8 -32 -1 -49 -25 -42 -18 4 -20 2 -15 -19 4
-13 7 -30 7 -38 0 -8 7 -11 20 -8 16 4 20 0 20 -18 0 -15 7 -26 20 -30 12 -4
22 -19 26 -39 5 -27 12 -35 35 -40 27 -5 42 -26 19 -26 -5 0 -10 -7 -10 -15 0
-8 7 -15 15 -15 8 0 15 7 15 15 0 8 5 15 10 15 6 0 10 9 10 20 0 11 -4 20 -10
20 -5 0 -10 6 -10 14 0 8 -8 21 -19 28 -10 7 -22 32 -26 56 -4 26 -12 42 -21
42 -12 0 -15 8 -14 38 1 4 10 5 22 4 16 -3 20 0 16 16 -7 26 9 52 32 52 13 0
20 7 20 19 0 19 41 74 49 66 2 -3 -2 -18 -9 -34z m620 -66 c0 -11 11 -15 40
-15 28 0 40 -4 40 -14 0 -8 -5 -18 -11 -22 -6 -3 -8 -17 -5 -30 5 -19 2 -24
-14 -24 -22 0 -29 -35 -7 -43 6 -3 1 -6 -13 -6 -28 -1 -70 -40 -70 -64 0 -24
-11 -47 -22 -47 -14 0 -2 124 12 128 16 6 12 32 -5 32 -8 0 -15 5 -15 10 0 6
5 10 11 10 8 0 10 14 6 41 -5 35 -2 41 16 49 32 13 37 12 37 -5z m62 -224 c-3
-20 0 -23 16 -19 14 4 22 0 25 -14 5 -18 2 -19 -34 -13 -31 5 -39 4 -39 -8 0
-8 13 -17 29 -20 24 -5 28 -10 24 -27 -4 -16 -1 -20 20 -20 30 0 45 -17 23
-26 -20 -8 -21 -53 -2 -60 28 -11 5 -34 -35 -34 -59 0 -89 33 -89 99 0 28 5
51 10 51 6 0 10 7 10 15 0 8 -6 15 -14 15 -9 0 -13 10 -10 33 1 17 3 38 3 45
1 9 12 12 34 10 27 -3 32 -6 29 -27z m1601 -141 c9 -22 17 -44 17 -49 0 -5 4
-11 9 -13 4 -1 27 -42 49 -89 23 -47 48 -91 56 -98 8 -7 18 -26 21 -42 4 -16
17 -37 29 -46 28 -23 39 -50 22 -56 -10 -4 -12 1 -9 14 4 12 0 19 -10 19 -8 0
-17 -9 -20 -21 -4 -16 -11 -19 -26 -14 -28 9 -65 -26 -57 -53 5 -15 16 -20 47
-20 36 -1 40 2 37 21 -2 13 2 22 10 21 43 -3 42 -3 22 -26 -10 -13 -26 -32
-34 -43 -14 -18 -15 -18 -16 -2 0 21 -30 23 -30 2 0 -8 5 -15 10 -15 19 0 10
-17 -16 -29 -19 -8 -25 -17 -21 -31 3 -13 0 -20 -9 -20 -8 0 -14 -10 -14 -24
0 -14 -4 -27 -9 -30 -5 -4 -7 3 -4 14 6 21 1 23 -35 13 -17 -4 -22 -11 -19
-25 5 -16 1 -18 -29 -12 -27 5 -34 3 -34 -10 0 -9 6 -16 14 -16 7 0 16 -10 20
-22 9 -34 7 -50 -4 -43 -5 3 -10 15 -10 26 0 10 -7 19 -15 19 -22 0 -20 -56 3
-70 12 -8 13 -13 5 -16 -7 -3 -13 -11 -13 -18 0 -7 -15 -28 -33 -47 -19 -19
-36 -40 -38 -46 -2 -6 -14 -14 -26 -17 -17 -6 -23 -3 -23 8 0 9 9 16 20 16 11
0 20 7 20 15 0 8 -9 15 -20 15 -16 0 -20 7 -21 33 0 17 -1 56 -2 85 -1 28 2
52 7 52 4 0 6 9 3 20 -3 13 0 20 9 20 8 0 14 -10 14 -25 0 -18 5 -25 20 -25
32 0 24 50 -10 63 -12 4 -11 6 3 6 21 1 23 31 2 31 -8 0 -15 5 -15 11 0 6 -8
9 -17 7 -16 -4 -18 5 -16 101 2 165 0 153 26 145 12 -3 24 -11 25 -15 5 -13
30 -11 34 3 3 7 14 9 29 5 18 -5 24 -13 25 -37 1 -19 -4 -30 -12 -30 -8 0 -14
-4 -14 -9 0 -5 -9 -11 -20 -14 -11 -3 -20 -12 -20 -20 0 -10 -7 -13 -20 -10
-14 4 -20 0 -20 -11 0 -11 13 -18 39 -22 32 -5 42 -12 50 -34 8 -24 7 -27 -9
-23 -13 3 -19 -3 -24 -23 -12 -46 42 -63 62 -19 6 14 16 25 22 25 5 0 10 7 10
15 0 8 -7 15 -15 15 -16 0 -18 7 -15 58 1 27 -2 32 -22 33 -17 1 -18 3 -5 6 9
2 17 9 17 14 0 5 7 9 16 9 12 0 14 7 9 30 -6 28 -5 30 17 25 12 -3 28 -2 34 2
14 10 27 103 14 103 -6 0 -10 5 -10 11 0 14 -30 38 -48 39 -24 0 -9 -45 16
-48 12 -2 22 -8 22 -13 0 -14 -27 -11 -44 6 -8 8 -19 15 -25 15 -12 0 -2 32
12 41 15 10 0 39 -19 39 -11 0 -15 -6 -11 -20 3 -11 2 -20 -3 -20 -4 0 -10 -9
-13 -20 -5 -20 -37 -29 -37 -10 0 6 7 10 15 10 8 0 15 7 15 15 0 9 -9 15 -23
15 -27 0 -47 17 -47 41 0 9 -7 22 -15 29 -20 16 -19 27 3 32 9 3 27 26 40 51
13 26 29 47 35 47 7 0 23 9 37 20 14 11 27 20 30 20 3 0 13 -18 23 -40z m-300
-340 c-4 -16 0 -20 21 -20 18 0 26 5 27 18 1 30 28 -40 29 -76 0 -18 -7 -40
-15 -48 -18 -19 -20 -44 -2 -44 8 0 13 -20 15 -60 3 -56 2 -60 -22 -66 -14 -3
-26 -12 -26 -20 0 -8 -4 -14 -10 -14 -5 0 -10 -16 -10 -35 0 -31 3 -35 25 -35
18 0 25 -5 25 -20 0 -11 3 -20 8 -20 17 0 10 -73 -9 -93 l-20 -22 -6 23 c-3
12 -10 22 -16 22 -7 0 -7 4 1 12 16 16 15 68 0 70 -7 0 -25 2 -39 3 -35 3 -49
13 -49 35 0 11 -10 20 -25 24 -24 6 -36 26 -15 26 6 0 10 7 10 15 0 8 -7 15
-15 15 -8 0 -15 -4 -15 -10 0 -5 -4 -10 -10 -10 -5 0 -10 7 -10 15 0 7 -6 18
-14 22 -21 13 -36 48 -29 71 4 16 1 22 -12 22 -15 0 -15 1 -1 16 9 8 16 26 16
40 0 16 11 31 34 46 24 16 37 33 41 55 6 32 15 38 58 34 9 -1 17 4 17 13 0 10
9 16 24 16 19 0 23 -4 19 -20z m1868 -89 c1 -9 2 -25 3 -36 1 -20 36 -35 36
-16 0 6 4 11 9 11 5 0 7 -9 4 -20 -5 -18 -1 -21 28 -21 19 0 49 -1 67 -3 17
-2 43 -4 57 -5 39 -2 29 -21 -11 -21 -34 0 -35 -1 -29 -30 5 -24 3 -30 -10
-30 -12 0 -16 -7 -13 -27 2 -20 -2 -29 -14 -31 -20 -4 -35 35 -19 51 17 17 13
45 -6 51 -65 18 -83 18 -84 -1 0 -10 -3 -13 -6 -5 -3 7 -23 12 -49 12 -24 0
-44 4 -44 9 0 5 -13 11 -29 14 -30 6 -52 37 -26 37 8 0 15 6 15 14 0 16 26 46
41 46 5 0 9 -9 9 -20 0 -11 -4 -20 -10 -20 -16 0 -12 -30 5 -36 8 -3 22 1 30
10 9 9 21 16 26 16 5 0 9 7 9 15 0 8 -6 15 -14 15 -13 0 -26 20 -26 39 0 16
50 -2 51 -18z m-1399 -339 c-2 -17 2 -22 17 -22 12 0 21 7 21 15 0 8 7 15 15
15 11 0 12 -5 5 -26 -6 -14 -10 -29 -10 -34 0 -12 72 -23 79 -12 8 12 61 22
61 11 0 -14 27 -10 40 6 10 12 14 12 26 0 8 -7 14 -23 14 -34 0 -16 -6 -21
-25 -21 -16 0 -25 -6 -25 -15 0 -8 -4 -15 -8 -15 -5 0 -8 10 -8 22 1 14 -6 24
-18 26 -15 3 -18 0 -13 -17 3 -12 1 -21 -4 -21 -5 0 -9 7 -9 15 0 8 -7 15 -16
15 -12 0 -15 -6 -10 -25 5 -19 2 -25 -9 -25 -9 0 -31 -15 -50 -34 -34 -34 -71
-53 -82 -42 -3 3 3 9 13 13 40 14 45 48 9 57 -24 6 -36 26 -15 26 6 0 10 7 10
15 0 9 -9 15 -25 15 -16 0 -25 -6 -25 -15 0 -24 -19 -17 -26 10 -7 28 -21 32
-38 11 -11 -14 -33 -20 -68 -17 -25 1 -23 31 2 31 10 0 28 10 40 22 11 12 20
16 20 10 0 -7 7 -12 15 -12 19 0 19 37 0 56 -11 12 -12 18 -3 28 10 10 22 10
58 1 38 -10 45 -15 42 -33z"/>
<path d="M910 3323 c-8 -3 -26 -17 -39 -29 -13 -13 -30 -24 -37 -24 -8 0 -14
-4 -14 -8 0 -5 -26 -22 -57 -37 -32 -16 -69 -37 -81 -47 -18 -13 -34 -16 -68
-11 -37 5 -44 3 -44 -11 0 -10 9 -16 25 -16 14 0 28 -7 31 -15 7 -17 34 -20
34 -4 0 8 13 9 40 5 32 -5 40 -3 40 9 0 8 4 15 9 15 21 0 41 -13 41 -26 0 -8
7 -14 15 -14 8 0 15 7 15 15 0 8 -4 15 -10 15 -5 0 -10 7 -10 15 0 8 -4 15
-10 15 -20 0 -9 21 18 33 15 6 36 20 46 29 11 10 29 20 40 23 47 13 96 39 96
50 0 19 -48 30 -80 18z"/>
<path d="M3190 5971 c0 -47 -10 -61 -41 -61 -16 0 -29 5 -29 11 0 7 -8 9 -22
4 -13 -4 -52 -11 -88 -16 -36 -4 -80 -11 -97 -15 -22 -4 -33 -2 -33 5 0 6 -7
11 -15 11 -8 0 -15 -4 -15 -10 0 -5 -9 -10 -20 -10 -12 0 -20 -7 -20 -16 0
-12 -6 -15 -23 -10 -38 9 -67 -4 -67 -30 0 -29 -7 -28 104 -4 50 11 103 20
118 20 15 0 28 3 28 8 0 4 24 5 52 3 29 -2 47 -6 41 -8 -7 -3 -13 -11 -13 -19
0 -9 -11 -14 -30 -14 -22 0 -30 -5 -30 -18 0 -12 -13 -23 -35 -32 -37 -14 -46
-36 -20 -46 9 -4 25 4 40 20 13 14 29 26 35 26 5 0 10 5 10 10 0 6 9 10 20 10
11 0 20 6 20 14 0 14 67 46 95 46 8 0 15 5 15 11 0 8 5 7 15 -1 12 -10 21 -10
41 -1 14 6 36 11 49 11 20 0 25 -5 25 -25 0 -27 23 -34 37 -12 10 17 43 30 43
17 0 -6 18 -10 40 -10 28 0 40 4 40 15 0 10 8 7 26 -10 33 -30 69 -34 61 -6
-3 14 0 17 14 14 36 -10 19 22 -21 40 -51 22 -88 22 -92 0 -3 -15 -4 -15 -21
1 -10 11 -26 16 -38 13 -11 -3 -34 -1 -52 5 -22 8 -32 8 -35 0 -2 -8 -11 -8
-30 1 -34 15 -51 36 -52 65 0 13 -6 22 -15 22 -10 0 -15 -10 -15 -29z"/>
<path d="M574 5365 c4 -14 2 -25 -4 -25 -14 0 -12 -27 3 -33 7 -4 3 -8 -10
-12 -31 -10 -29 -31 3 -39 15 -4 32 -13 40 -20 13 -14 8 -56 -7 -56 -21 0 -7
-30 16 -36 14 -3 25 -12 25 -20 0 -8 7 -14 16 -14 13 0 15 6 9 27 -3 15 -11
31 -16 34 -6 3 -7 18 -3 32 4 17 2 27 -5 27 -6 0 -11 7 -11 15 0 8 -7 15 -15
15 -17 0 -21 35 -5 45 6 3 10 1 10 -4 0 -6 7 -11 15 -11 8 0 15 -9 15 -20 0
-21 8 -24 34 -14 18 7 22 34 5 34 -5 0 -7 5 -4 10 3 6 15 10 26 10 10 0 19 7
19 15 0 26 -66 14 -73 -14 -4 -15 -5 -15 -6 1 -1 18 -57 78 -73 78 -6 0 -8
-10 -4 -25z"/>
<path d="M1006 5264 c-4 -15 -2 -32 5 -40 9 -11 7 -14 -10 -14 -14 0 -21 6
-21 19 0 37 -28 52 -89 49 l-56 -3 -3 -87 c-2 -68 0 -88 11 -88 7 0 18 5 24
11 8 8 44 10 106 7 l94 -4 -3 80 c-3 77 -11 95 -40 96 -7 0 -15 -12 -18 -26z"/>
<path d="M5732 3446 l0 -33 69 1 c50 0 69 4 69 13 0 7 5 13 10 13 6 0 10 -4
10 -10 0 -14 37 -12 43 3 4 10 6 10 6 0 1 -7 7 -13 15 -13 8 0 17 6 19 13 4 9
8 9 14 1 4 -7 17 -13 28 -15 12 -3 21 -14 23 -27 2 -14 10 -22 24 -22 15 0 19
5 15 19 -3 14 0 17 13 14 23 -6 32 10 24 42 -6 25 -34 36 -34 13 0 -9 -3 -9
-9 1 -7 11 -46 15 -174 17 l-165 3 0 -33z"/>
<path d="M4272 1514 c3 -29 15 -38 63 -50 27 -7 28 -8 8 -11 -30 -6 -29 -24 2
-57 13 -14 20 -26 15 -26 -6 0 -10 -12 -10 -26 0 -20 4 -25 18 -22 18 5 42
-13 42 -32 0 -5 7 -10 15 -10 18 0 20 26 3 33 -8 3 -6 6 5 6 9 1 17 7 17 15 0
8 7 16 15 20 18 6 20 33 3 38 -7 3 -9 11 -3 24 7 17 8 17 12 2 3 -10 12 -18
21 -19 11 0 12 -2 5 -6 -7 -2 -13 -11 -13 -19 0 -26 42 -13 53 16 4 12 6 11 6
-2 1 -25 31 -23 31 2 0 11 -6 20 -14 20 -8 0 -16 7 -20 15 -3 9 0 15 9 15 8 0
15 7 15 15 0 8 -9 15 -20 15 -11 0 -20 4 -20 9 0 5 -13 12 -30 16 -16 4 -30
11 -30 16 0 5 -7 9 -15 9 -22 0 -19 -47 3 -54 9 -3 1 -3 -20 0 -20 2 -38 0
-40 -5 -1 -5 -9 -3 -16 5 -7 8 -8 14 -2 14 5 0 10 9 10 21 0 21 -14 22 -63 3
-10 -3 -18 2 -22 15 -10 32 -37 27 -33 -5z"/>
</g>
</svg>
