<?xml version="1.0" standalone="no"?>
<!DOCTYPE svg PUBLIC "-//W3C//DTD SVG 20010904//EN"
 "http://www.w3.org/TR/2001/REC-SVG-20010904/DTD/svg10.dtd">
<svg version="1.0" xmlns="http://www.w3.org/2000/svg"
 width="640.000000pt" height="640.000000pt" viewBox="0 0 640.000000 640.000000"
 preserveAspectRatio="xMidYMid meet">
<metadata>
Created by potrace 1.16, written by Peter Selinger 2001-2019
</metadata>
<g transform="translate(0.000000,640.000000) scale(0.100000,-0.100000)"
fill="#000000" stroke="none">
<path d="M0 5755 c0 -567 2 -645 15 -645 8 0 15 -8 14 -17 0 -11 -3 -13 -6 -5
-2 6 -9 12 -14 12 -6 0 -9 -68 -8 -165 1 -91 6 -165 10 -165 5 0 9 8 9 19 0
14 7 18 30 17 33 -1 42 -16 10 -16 -11 0 -20 -7 -20 -15 0 -8 -9 -15 -20 -15
-19 0 -20 -7 -20 -220 1 -179 3 -220 14 -220 9 0 12 -7 9 -20 -3 -11 -9 -20
-14 -20 -5 0 -9 -18 -9 -40 0 -22 5 -40 10 -40 6 0 10 -7 10 -15 0 -8 -4 -15
-10 -15 -5 0 -10 -13 -10 -30 0 -16 4 -30 10 -30 5 0 7 -7 4 -15 -4 -8 0 -23
7 -32 11 -13 11 -17 2 -20 -16 -6 -17 -33 -2 -33 7 0 22 11 34 24 13 14 26 22
29 19 11 -11 6 -23 -9 -23 -8 0 -15 -7 -15 -16 0 -11 6 -15 19 -11 25 6 37
-42 15 -59 -8 -6 -14 -16 -14 -23 0 -6 -4 -11 -9 -11 -5 0 -13 -9 -16 -20 -10
-30 -25 -24 -25 10 0 20 -5 30 -15 30 -13 0 -15 -240 -15 -1965 l0 -1965 3200
0 3200 0 0 185 c0 117 -4 185 -10 185 -5 0 -10 7 -10 15 0 8 -7 15 -15 15 -8
0 -15 5 -15 10 0 6 11 10 25 10 21 0 25 5 25 30 0 35 -19 47 -48 31 -16 -8
-21 -7 -26 5 -9 22 -9 22 21 26 30 3 47 38 19 38 -12 0 -15 6 -10 24 5 20 2
25 -18 28 -19 4 -16 6 15 12 36 8 53 36 22 36 -8 0 -15 4 -15 9 0 5 9 7 20 4
13 -4 20 0 20 10 0 16 -40 30 -63 21 -8 -3 -17 2 -20 10 -9 23 -41 21 -35 -2
3 -10 -2 -24 -10 -32 -14 -13 -15 -12 -10 2 4 8 9 36 13 61 5 33 11 44 21 40
8 -3 14 -14 14 -24 0 -10 7 -19 15 -19 8 0 15 -4 15 -10 0 -5 7 -10 15 -10 8
0 15 7 15 15 0 8 -7 15 -15 15 -8 0 -15 7 -15 15 0 8 -4 15 -9 15 -5 0 -11 9
-14 20 -5 21 -37 28 -37 9 0 -7 -11 -8 -30 -4 -26 6 -30 4 -30 -14 0 -12 -6
-21 -14 -21 -24 0 -30 -39 -9 -55 16 -13 14 -13 -17 -5 -46 13 -50 13 -50 -5
0 -8 5 -15 10 -15 6 0 10 -8 10 -17 0 -15 -2 -15 -9 -4 -5 8 -16 11 -24 8 -11
-4 -13 0 -10 14 4 15 0 19 -21 19 -14 0 -26 5 -26 10 0 6 -7 10 -15 10 -8 0
-15 -7 -15 -15 0 -8 5 -15 10 -15 6 0 10 -4 10 -10 0 -5 -7 -10 -15 -10 -9 0
-15 -9 -15 -25 0 -18 7 -26 24 -31 42 -10 20 -29 -29 -26 -38 3 -45 1 -45 -14
0 -15 -2 -16 -9 -5 -5 7 -6 22 -4 32 4 13 0 19 -11 19 -10 0 -15 4 -12 9 3 5
15 7 26 4 14 -4 20 0 20 11 0 9 -4 16 -10 16 -5 0 -10 14 -10 30 0 20 -5 30
-15 30 -9 0 -15 -10 -15 -26 0 -22 -2 -24 -14 -11 -9 8 -12 24 -9 36 4 15 1
21 -11 21 -9 0 -16 5 -16 10 0 6 -7 10 -15 10 -8 0 -15 5 -15 10 0 6 -10 10
-21 10 -16 0 -20 -5 -16 -20 3 -11 1 -20 -4 -20 -5 0 -9 5 -9 10 0 6 -7 10
-15 10 -25 0 -19 -59 7 -69 18 -6 19 -9 5 -14 -10 -4 -17 -2 -17 3 0 6 -7 10
-15 10 -8 0 -15 7 -15 15 0 8 -7 15 -15 15 -18 0 -20 -27 -3 -32 7 -3 12 -21
11 -41 -1 -33 2 -37 23 -37 13 0 24 -4 24 -10 0 -11 -20 -13 -44 -4 -11 4 -16
19 -16 46 0 37 -2 40 -22 34 -13 -3 -31 -6 -40 -6 -10 0 -18 -7 -18 -15 0 -8
-4 -15 -10 -15 -5 0 -10 -7 -10 -15 0 -17 -63 -37 -69 -22 -2 5 1 12 6 16 6 3
13 13 16 21 4 12 6 11 6 -2 1 -10 7 -18 15 -18 16 0 31 34 21 50 -4 6 6 10 22
10 24 0 30 6 41 40 6 22 12 46 12 54 0 11 8 13 35 9 27 -4 35 -2 35 10 0 8 -6
18 -12 21 -7 4 4 4 25 2 20 -3 44 -12 53 -20 8 -9 22 -16 30 -16 8 0 14 -4 14
-10 0 -5 7 -10 15 -10 8 0 15 7 15 15 0 8 -7 15 -15 15 -8 0 -15 5 -15 10 0 6
7 10 15 10 8 0 15 7 15 15 0 19 -56 21 -63 3 -3 -7 -6 -3 -6 10 -1 21 -5 23
-31 18 -16 -3 -43 -9 -60 -12 -16 -3 -30 -10 -30 -15 0 -5 -4 -9 -10 -9 -5 0
-10 6 -10 14 0 14 -55 30 -71 20 -5 -3 -9 -18 -9 -35 0 -25 4 -29 28 -30 23
-2 24 -2 5 -6 -13 -2 -23 -12 -24 -21 0 -14 -2 -14 -6 -2 -3 8 -11 18 -16 22
-6 3 -10 23 -9 43 2 39 -23 60 -39 34 -6 -9 -9 0 -9 29 0 35 -3 42 -19 42 -11
0 -23 -9 -26 -20 -3 -11 -11 -20 -16 -20 -5 0 -9 -11 -9 -25 0 -16 -6 -25 -15
-25 -8 0 -15 4 -15 9 0 5 -8 12 -17 14 -11 3 -7 5 10 6 35 1 38 31 2 31 -20 0
-25 5 -24 23 1 16 2 18 6 5 5 -22 29 -24 37 -3 3 8 12 15 21 15 18 0 21 29 3
31 -74 8 -98 6 -98 -7 0 -8 -6 -14 -14 -14 -9 0 -12 7 -9 21 5 16 1 20 -13 19
-35 -4 -44 0 -43 18 0 10 3 12 6 5 8 -22 36 -15 30 7 -3 11 -3 20 0 20 8 0 33
-28 33 -38 0 -6 34 -9 80 -8 61 1 80 -2 80 -13 0 -7 11 -22 24 -32 14 -11 28
-33 31 -50 6 -27 10 -30 33 -24 15 4 30 12 34 18 11 17 10 37 -2 37 -5 0 -10
11 -10 24 0 20 -6 24 -41 30 -36 6 -39 8 -25 22 23 23 21 48 -4 41 -27 -7 -25
-3 10 33 32 33 39 60 15 60 -11 0 -14 7 -9 25 5 19 2 25 -10 25 -9 0 -16 -7
-16 -15 0 -16 -12 -18 -47 -9 -14 4 -23 14 -23 25 0 11 -7 19 -17 19 -17 1
-17 1 0 11 20 12 23 39 5 39 -9 0 -10 2 -2 8 7 4 14 16 17 27 4 18 5 18 6 -2
0 -13 7 -23 15 -23 18 0 33 43 17 48 -6 2 -11 8 -11 13 0 5 -9 18 -20 29 -21
21 -50 27 -50 10 0 -5 -7 -10 -15 -10 -8 0 -15 -7 -15 -15 0 -18 27 -20 33 -2
8 23 14 2 9 -35 -2 -24 -10 -38 -18 -38 -8 0 -14 7 -14 15 0 19 -39 19 -64 0
-10 -8 -16 -21 -13 -29 3 -8 -1 -17 -9 -20 -8 -3 -14 -12 -14 -21 0 -8 -6 -15
-14 -15 -8 0 -17 -6 -20 -12 -5 -10 -7 -10 -12 0 -3 6 -13 12 -21 12 -11 0
-14 -7 -9 -24 5 -19 1 -26 -15 -31 -11 -4 -23 -4 -26 -1 -4 3 1 6 10 6 27 0
20 27 -8 34 -20 5 -31 0 -52 -21 -17 -18 -27 -24 -30 -15 -3 6 -11 12 -19 12
-8 0 -14 -6 -14 -12 0 -26 18 -39 56 -43 21 -2 41 -4 44 -5 18 -2 -31 -20 -58
-20 -39 0 -61 17 -54 42 2 11 -1 18 -9 18 -23 0 -42 -17 -36 -32 4 -11 -1 -14
-18 -10 -17 3 -21 9 -17 24 3 14 -1 21 -17 25 -15 4 -20 11 -16 21 3 8 0 31
-6 49 -9 29 -15 34 -33 29 -11 -3 -27 -6 -33 -6 -7 0 -13 -5 -13 -11 0 -24
-43 -50 -72 -44 -24 6 -28 3 -28 -14 0 -16 7 -21 28 -22 16 -1 20 -3 10 -6
-10 -2 -18 -13 -18 -23 0 -25 -38 -33 -45 -9 -7 22 -14 23 -49 9 -21 -8 -26
-16 -26 -45 0 -43 27 -49 33 -8 l4 28 2 -27 c0 -18 7 -28 17 -28 8 0 22 -7 30
-15 14 -13 14 -15 -1 -15 -12 0 -16 -6 -12 -20 3 -13 0 -20 -9 -20 -8 0 -14
-7 -14 -16 0 -12 6 -15 23 -10 12 3 26 6 31 6 4 0 6 9 3 20 -3 13 0 20 9 20
10 0 13 -7 8 -25 -6 -23 -4 -25 32 -26 28 -1 32 -3 14 -6 -14 -3 -28 -10 -32
-17 -6 -8 -8 -8 -8 2 0 6 -8 12 -19 12 -20 0 -35 -47 -25 -75 7 -18 34 -20 34
-2 0 7 9 20 20 30 17 14 20 14 20 2 0 -8 -7 -15 -15 -15 -8 0 -15 -7 -15 -15
0 -8 9 -15 20 -15 11 0 20 -4 20 -10 0 -5 -4 -10 -10 -10 -5 0 -10 -7 -10 -15
0 -8 -4 -15 -9 -15 -5 0 -7 9 -4 20 4 16 0 20 -20 20 -14 0 -29 5 -33 11 -3 6
-19 9 -34 5 -23 -4 -29 -1 -34 17 -3 12 0 24 6 28 14 9 3 39 -15 39 -8 0 -18
-10 -24 -22 -7 -17 -18 -23 -42 -23 -18 0 -31 5 -31 13 0 7 -14 15 -30 19 -33
6 -41 33 -10 33 11 0 20 7 20 15 0 10 -11 15 -35 15 -32 0 -35 -2 -35 -29 0
-16 6 -32 13 -34 7 -3 5 -6 -5 -6 -13 -1 -18 7 -18 24 0 20 -5 25 -25 25 -14
0 -25 5 -25 10 0 6 -7 10 -15 10 -8 0 -15 -4 -15 -9 0 -23 14 -41 31 -41 16 0
18 -5 13 -25 -5 -19 -2 -25 10 -25 9 0 16 6 16 13 0 9 2 9 9 -1 5 -9 17 -11
34 -6 20 4 27 2 27 -9 0 -8 -7 -17 -15 -21 -8 -3 -15 -12 -15 -21 0 -27 41
-15 53 15 4 12 6 11 6 -2 1 -13 9 -18 31 -18 17 0 30 5 30 13 0 8 3 8 9 -2 5
-8 16 -11 25 -8 10 4 16 1 16 -7 0 -8 -5 -16 -12 -18 -7 -3 -9 -12 -5 -22 6
-14 16 -17 52 -14 25 2 44 -1 44 -7 0 -5 -9 -9 -19 -7 -30 5 -25 -25 8 -43 27
-16 27 -16 2 -11 -25 6 -80 -13 -80 -26 0 -5 -16 -8 -35 -8 -19 0 -35 -4 -35
-10 0 -5 -9 -10 -20 -10 -11 0 -20 -7 -20 -15 0 -9 9 -15 25 -15 14 0 25 4 25
10 0 5 7 7 15 4 8 -4 15 -12 15 -20 0 -8 7 -14 16 -14 8 0 13 -4 9 -9 -3 -6
-17 -4 -33 5 -15 7 -33 14 -39 14 -21 0 -15 -27 7 -33 11 -3 20 -11 20 -19 0
-10 -2 -10 -9 1 -5 8 -18 12 -30 8 -16 -4 -21 -1 -21 14 0 28 -36 25 -44 -4
-3 -12 -4 -31 -2 -42 2 -11 1 -14 -1 -7 -3 6 -13 12 -24 12 -17 0 -19 -5 -15
-37 3 -21 3 -30 0 -20 -6 18 -54 25 -54 7 0 -5 -11 -10 -24 -10 -17 0 -26 7
-30 25 -6 23 -36 36 -36 16 0 -21 13 -41 26 -41 8 0 14 -7 14 -15 0 -10 10
-15 30 -15 17 0 30 -4 30 -9 0 -5 -17 -5 -41 0 -22 5 -44 7 -49 4 -10 -6 -24
49 -23 90 3 71 6 91 10 69 3 -16 14 -24 39 -28 28 -6 34 -11 34 -31 0 -15 6
-25 14 -25 16 0 27 47 19 79 -5 19 -11 22 -34 17 -16 -3 -29 -2 -29 3 0 13 25
20 48 15 14 -4 21 1 26 18 l7 23 10 -25 c20 -48 59 -55 59 -10 0 17 4 30 10
30 5 0 9 22 9 50 -1 35 -6 50 -15 50 -8 0 -14 11 -14 25 0 14 -4 25 -10 25 -5
0 -10 9 -10 20 0 16 -7 20 -30 20 -30 0 -43 -23 -17 -33 6 -3 2 -6 -11 -6 -12
-1 -25 -8 -28 -16 -4 -8 -14 -15 -23 -15 -9 0 -23 -6 -30 -13 -11 -10 -12 -7
-6 13 4 14 12 26 16 28 15 6 10 32 -6 32 -8 0 -15 -7 -15 -15 0 -8 -4 -15 -10
-15 -5 0 -10 -6 -10 -14 0 -9 -7 -12 -19 -9 -14 3 -20 -2 -25 -22 -8 -30 -1
-45 21 -45 10 0 14 6 10 19 -3 13 0 18 8 15 19 -8 6 -44 -16 -44 -13 0 -19 -7
-20 -22 0 -23 -1 -22 -12 2 -6 14 -18 30 -27 37 -13 11 -13 12 1 13 17 0 34
43 24 59 -3 5 6 12 20 15 18 5 25 13 25 30 0 19 4 23 20 19 14 -4 20 0 20 11
0 9 -4 16 -9 16 -5 0 -7 8 -4 19 3 12 -2 20 -15 23 -27 7 -32 48 -9 71 10 10
20 31 24 47 3 17 11 30 17 30 6 0 17 9 24 20 7 11 18 20 26 20 8 0 16 7 20 15
3 8 16 15 28 15 21 -1 22 -2 6 -14 -10 -7 -18 -18 -18 -25 0 -16 26 -13 45 6
14 14 18 14 26 2 5 -8 9 -20 9 -26 0 -22 -34 -53 -57 -53 -15 0 -23 -6 -24
-17 0 -14 -3 -13 -11 5 -6 12 -19 22 -30 22 -10 0 -18 5 -18 10 0 6 -7 10 -15
10 -8 0 -15 -9 -15 -20 0 -11 7 -20 15 -20 8 0 25 -11 39 -25 33 -33 86 -35
86 -4 0 15 4 19 16 15 9 -3 22 -6 30 -6 8 0 14 -7 14 -15 0 -8 5 -15 10 -15 6
0 10 -6 10 -14 0 -8 6 -17 13 -19 7 -3 5 -6 -5 -6 -22 -1 -24 -31 -3 -31 8 0
15 -4 15 -10 0 -14 19 -13 34 3 8 6 23 19 35 27 25 17 27 35 6 44 -8 3 -15 14
-15 25 0 17 -18 31 -41 31 -15 0 -10 -40 6 -56 8 -9 15 -19 15 -24 0 -5 -7 -7
-15 -4 -8 4 -15 12 -15 19 0 7 -4 15 -9 17 -13 5 0 68 14 68 14 0 31 37 22 47
-3 2 -24 7 -46 10 -46 6 -53 18 -17 27 14 3 27 14 29 24 3 10 5 5 6 -12 1 -24
4 -27 24 -22 12 3 25 6 30 6 11 0 8 28 -4 32 -14 5 0 38 17 38 8 0 14 7 14 15
0 8 5 15 10 15 6 0 10 6 10 14 0 13 -28 26 -57 26 -18 0 -16 -28 2 -32 10 -2
12 -7 5 -18 -8 -13 -11 -13 -19 -1 -14 22 -55 6 -68 -26 l-11 -28 -1 28 c-1
24 -5 27 -33 27 -31 0 -33 3 -35 35 -1 19 3 35 8 35 5 0 9 7 9 15 0 8 5 15 10
15 6 0 10 7 10 15 0 8 -7 15 -15 15 -8 0 -15 -7 -15 -15 0 -9 -9 -15 -25 -15
-16 0 -25 -6 -25 -15 0 -8 -4 -15 -10 -15 -5 0 -10 -15 -11 -32 0 -18 -3 -27
-6 -20 -7 18 -73 16 -73 -3 0 -8 5 -15 10 -15 6 0 10 -7 10 -15 0 -8 9 -15 19
-15 11 0 26 7 35 15 18 19 24 19 42 1 20 -20 18 -23 -17 -30 -18 -3 -38 -14
-45 -24 -8 -10 -13 -12 -14 -4 0 20 -30 14 -30 -7 0 -30 -11 -51 -26 -51 -8 0
-14 -8 -14 -18 0 -10 -10 -29 -22 -41 l-21 -24 -16 37 c-9 20 -19 36 -23 36
-12 0 -58 -47 -58 -59 0 -14 23 -14 37 0 9 9 10 7 6 -10 -4 -15 -1 -21 11 -21
9 0 16 6 17 13 0 12 17 -20 18 -36 1 -4 -20 -7 -46 -5 -54 3 -68 -16 -36 -48
17 -17 17 -18 0 -11 -10 4 -21 7 -23 7 -2 0 -4 7 -4 15 0 8 -7 15 -15 15 -8 0
-15 -7 -15 -15 0 -8 5 -15 10 -15 6 0 10 -11 10 -25 0 -14 5 -25 12 -25 6 0 8
-3 5 -6 -4 -4 -13 -1 -21 6 -12 9 -22 9 -46 -1 -16 -8 -30 -19 -30 -25 0 -7
-7 -14 -15 -18 -8 -3 -20 -17 -25 -31 -7 -18 -17 -25 -35 -25 -14 0 -25 5 -25
10 0 6 9 10 20 10 22 0 28 35 8 43 -10 4 -10 6 0 6 6 1 12 7 12 15 0 10 15 17
43 21 l44 7 0 44 c0 36 -4 44 -16 42 -9 -2 -17 -15 -19 -30 l-3 -28 -25 25
c-24 24 -32 55 -14 55 6 0 10 -7 10 -15 0 -8 5 -15 10 -15 17 0 60 47 60 65 0
9 9 15 25 15 39 0 29 24 -17 43 -26 10 -32 15 -16 12 15 -3 44 2 65 10 29 12
43 13 70 4 18 -6 33 -17 33 -25 0 -8 5 -14 11 -14 16 0 39 26 39 44 0 19 -27
22 -33 3 -2 -6 -2 0 0 15 3 20 0 28 -10 28 -9 0 -17 -8 -19 -17 -3 -14 -7 -13
-31 9 -37 34 -34 48 9 48 35 0 64 18 64 39 0 14 -11 14 -44 1 -24 -9 -26 -7
-26 18 0 41 -13 54 -43 46 -33 -8 -35 -27 -4 -42 16 -8 18 -11 5 -11 -9 -1
-18 -7 -21 -13 -4 -10 -37 49 -37 65 0 2 25 9 55 16 37 9 55 17 55 28 0 11 -6
14 -26 9 -23 -6 -25 -5 -13 8 34 37 40 47 45 76 4 18 2 30 -4 30 -5 0 -8 9 -5
20 5 17 0 20 -31 20 -32 0 -36 -3 -36 -25 0 -22 -3 -25 -25 -19 -19 5 -25 2
-25 -10 0 -9 -4 -16 -10 -16 -5 0 -16 -12 -24 -27 -8 -16 -15 -22 -16 -15 0
14 -40 17 -40 3 0 -21 13 -41 26 -41 8 0 14 -6 14 -14 0 -8 8 -17 18 -19 16
-4 16 -5 0 -6 -21 -1 -25 -31 -4 -31 23 0 27 -28 5 -35 -10 -4 -19 -11 -19
-16 0 -5 -7 -9 -16 -9 -25 0 -12 -33 16 -41 l25 -7 -27 -1 c-21 -1 -27 -6 -30
-29 -2 -22 -7 -26 -25 -24 -31 4 -31 -26 0 -38 17 -7 18 -9 5 -9 -10 -1 -18
-6 -18 -12 0 -7 -14 -8 -41 -4 -41 7 -42 7 -35 -19 5 -19 3 -26 -9 -26 -8 0
-15 5 -15 11 0 6 -9 9 -20 6 -11 -3 -20 -1 -20 4 0 5 -7 9 -15 9 -8 0 -15 5
-15 10 0 6 -7 10 -15 10 -8 0 -15 -7 -15 -15 0 -8 7 -15 15 -15 8 0 15 -4 15
-10 0 -5 7 -10 16 -10 13 0 13 -2 -2 -17 -13 -13 -19 -14 -22 -5 -2 7 -10 18
-17 25 -7 7 -15 22 -19 34 -6 18 -1 21 39 27 29 5 45 12 45 22 0 8 5 14 10 14
6 0 10 6 10 14 0 13 -20 26 -41 26 -14 0 -11 -30 4 -31 20 -1 -26 -18 -51 -18
-34 -1 -54 -25 -46 -56 3 -14 10 -25 14 -25 4 0 11 -11 14 -25 4 -14 13 -25
21 -25 8 0 15 -4 15 -10 0 -17 22 -11 40 10 19 22 50 18 50 -6 0 -22 27 -16
54 11 14 14 30 25 36 25 5 0 10 5 10 10 0 6 7 10 15 10 8 0 15 5 15 10 0 6 9
10 20 10 24 0 26 -25 5 -46 -13 -14 -15 -14 -15 0 0 9 -7 16 -15 16 -8 0 -15
-4 -15 -10 0 -5 -7 -10 -15 -10 -10 0 -15 -11 -15 -35 0 -28 -4 -35 -20 -35
-11 0 -20 -3 -20 -7 0 -13 -49 -32 -56 -22 -3 5 -12 9 -20 9 -18 0 -19 -29 0
-36 17 -7 9 -54 -10 -54 -23 0 -29 4 -27 20 3 20 -17 70 -28 70 -5 0 -9 6 -9
14 0 8 -7 16 -15 20 -8 3 -12 11 -9 19 8 21 -13 65 -33 71 -18 6 -57 75 -48
85 3 2 5 -1 5 -7 0 -7 7 -12 15 -12 8 0 15 5 15 10 0 6 7 10 15 10 8 0 15 7
15 15 0 8 -7 15 -15 15 -8 0 -15 -4 -15 -10 0 -5 -7 -10 -16 -10 -11 0 -14 6
-8 23 3 12 11 24 15 25 5 2 9 8 9 13 0 6 16 26 35 46 19 20 35 41 35 47 0 6 9
17 20 24 11 7 20 21 20 31 0 10 7 21 15 25 8 3 15 12 15 21 0 8 5 15 10 15 6
0 10 8 11 18 0 10 3 12 6 5 7 -18 33 -16 33 2 0 8 -4 15 -10 15 -5 0 -10 7
-10 15 0 8 -7 15 -15 15 -8 0 -15 -9 -15 -20 0 -11 -7 -20 -15 -20 -8 0 -15
-7 -15 -15 0 -8 -4 -15 -10 -15 -5 0 -10 -9 -10 -20 0 -13 -5 -18 -15 -14 -8
4 -15 12 -15 20 0 8 -7 14 -15 14 -8 0 -15 -9 -15 -20 0 -11 5 -20 11 -20 19
0 1 -47 -31 -82 -17 -18 -30 -40 -30 -50 0 -9 -9 -20 -20 -23 -11 -3 -20 -15
-20 -25 0 -27 -38 -14 -55 21 -23 43 -19 65 10 64 14 -1 28 -5 32 -8 14 -15
43 -7 43 12 0 24 -49 43 -90 34 -26 -5 -30 -3 -30 17 0 20 -4 22 -30 17 -26
-6 -30 -3 -30 14 0 35 -47 109 -69 109 -5 0 -13 17 -17 38 -9 52 -27 92 -41
92 -7 0 -13 7 -13 15 0 8 -7 15 -15 15 -8 0 -15 -4 -15 -9 0 -14 -56 7 -71 26
-11 13 -7 14 34 8 40 -6 47 -5 47 9 0 9 -7 19 -15 22 -20 8 -19 33 3 41 25 9
52 45 52 71 0 12 4 22 8 22 5 0 14 15 22 34 17 43 57 56 179 56 74 0 91 -3 91
-15 0 -8 -7 -15 -15 -15 -8 0 -15 -7 -15 -15 0 -8 7 -15 15 -15 8 0 15 5 15
10 0 6 7 10 15 10 8 0 15 8 15 18 0 16 14 21 85 32 68 11 85 17 83 29 -3 12
-19 16 -81 17 -80 2 -217 30 -217 45 0 4 -18 13 -41 19 -22 6 -50 21 -61 32
l-21 21 39 31 c59 47 134 123 134 135 0 22 -36 10 -70 -24 -67 -67 -124 -115
-136 -115 -7 0 -14 7 -18 15 -3 8 -12 15 -21 15 -21 0 -19 23 5 40 11 8 20 20
20 27 0 7 5 13 10 13 6 0 10 7 10 15 0 8 -7 15 -15 15 -8 0 -15 -5 -15 -10 0
-6 -11 -22 -25 -36 -18 -18 -25 -21 -25 -9 0 8 5 15 10 15 6 0 10 6 10 14 0 8
4 16 9 18 5 2 13 15 16 31 6 21 4 27 -9 27 -9 0 -16 -7 -16 -15 0 -8 -4 -15
-9 -15 -5 0 -12 -11 -15 -25 -7 -26 -20 -32 -31 -15 -3 6 -1 10 4 10 6 0 11 9
11 20 0 22 -25 28 -33 8 -3 -7 -6 -4 -6 8 -1 11 -6 25 -13 32 -6 6 -11 32 -11
57 0 25 -4 45 -9 45 -4 0 -8 27 -8 60 0 47 3 60 15 60 8 0 15 7 15 15 0 8 -6
15 -14 15 -11 0 -13 9 -9 38 3 20 10 39 15 40 4 2 8 15 8 29 0 13 7 31 15 39
19 19 20 54 1 54 -18 0 -33 -19 -41 -53 -4 -15 -11 -27 -16 -27 -4 0 -11 -15
-14 -34 -5 -22 -14 -36 -26 -39 -24 -6 -24 4 1 53 11 22 20 51 20 65 0 15 7
28 18 32 25 9 52 34 52 50 0 18 -25 17 -40 -2 -7 -9 -15 -13 -17 -11 -3 3 11
20 31 39 38 38 45 57 21 57 -8 0 -15 5 -15 10 0 6 -7 10 -15 10 -8 0 -15 -7
-15 -15 0 -8 -3 -15 -7 -15 -5 0 -21 -20 -36 -45 -16 -25 -34 -45 -40 -44 -11
0 -67 105 -67 123 0 11 -27 36 -38 36 -6 0 -12 -5 -14 -12 -4 -12 -48 19 -48
35 0 4 -13 21 -29 36 -22 21 -28 35 -24 52 5 19 3 21 -15 17 -12 -4 -22 -3
-22 2 0 10 31 18 48 13 6 -3 12 -11 12 -19 0 -14 27 -63 40 -74 4 -3 9 -13 13
-22 8 -22 47 -24 47 -3 0 8 -4 15 -10 15 -5 0 -10 7 -10 15 0 7 -6 18 -13 22
-7 4 -19 23 -26 41 -8 17 -18 32 -23 32 -5 0 -6 5 -2 11 4 8 9 7 15 -2 7 -11
16 -10 49 9 33 18 40 20 40 7 0 -8 7 -15 15 -15 8 0 15 5 15 11 0 11 6 10 63
-8 13 -4 17 1 18 18 1 17 3 19 6 7 2 -10 11 -18 19 -18 17 0 19 26 2 33 -7 3
2 8 20 12 19 5 32 14 32 23 0 11 -9 14 -45 10 -25 -3 -45 -2 -45 3 0 13 -27
11 -50 -3 -16 -10 -22 -10 -28 -1 -4 6 -20 15 -35 18 -21 6 -27 4 -27 -10 0
-12 -5 -15 -20 -10 -12 4 -27 1 -35 -5 -12 -10 -15 -9 -15 8 0 11 5 22 11 24
15 5 2 48 -15 48 -7 0 -18 -10 -23 -22 -10 -21 -12 -21 -18 -5 -12 29 2 50 29
43 30 -7 56 2 56 20 0 8 -10 14 -25 14 -30 0 -32 10 -6 32 18 15 20 15 31 -13
7 -16 19 -29 26 -29 18 0 18 18 -1 54 -19 36 -19 46 0 46 8 0 15 4 15 9 0 5 6
11 14 14 10 4 12 0 9 -14 -6 -23 25 -27 33 -4 7 17 34 21 34 5 0 -5 11 -10 25
-10 14 0 25 4 25 9 0 5 11 11 25 13 17 4 25 1 25 -8 0 -8 7 -14 15 -14 8 0 15
4 15 9 0 5 9 7 20 4 11 -3 20 -9 20 -14 0 -5 7 -9 15 -9 8 0 15 7 15 15 0 11
11 15 40 15 22 0 40 -4 40 -10 0 -5 9 -10 20 -10 11 0 20 5 20 10 0 7 116 10
343 10 188 0 349 0 357 0 8 -1 134 -2 280 -4 146 -1 276 -6 289 -10 16 -6 26
-4 32 5 7 11 9 10 9 -3 0 -15 9 -18 50 -18 28 0 50 3 50 8 0 4 28 8 63 8 34 1
92 4 129 6 68 5 86 -3 68 -31 -5 -9 -9 -7 -13 8 -7 27 -37 28 -37 1 0 -11 5
-20 10 -20 6 0 10 -4 10 -10 0 -5 -7 -10 -15 -10 -8 0 -15 -7 -15 -15 0 -21
22 -19 48 5 l22 21 0 -26 c0 -17 5 -25 18 -25 15 0 18 8 18 50 0 28 -3 50 -7
50 -4 0 -5 9 -2 19 4 16 -1 20 -32 23 l-36 3 22 24 c14 15 23 37 23 57 1 19 5
34 10 34 4 0 6 16 4 35 -2 19 0 35 4 35 4 0 8 20 8 45 0 42 -2 45 -26 45 -21
0 -25 -4 -21 -20 3 -11 1 -20 -5 -20 -6 0 -8 -9 -5 -20 3 -11 -3 -29 -14 -41
-10 -12 -19 -29 -20 -38 0 -9 -5 -3 -10 14 -6 20 -5 31 3 36 19 12 -3 93 -26
97 -15 3 -18 0 -13 -17 2 -11 0 -22 -5 -23 -6 -2 -11 -19 -13 -38 -1 -19 -7
-36 -14 -38 -6 -2 -11 -12 -11 -23 0 -10 -7 -19 -15 -19 -9 0 -18 -6 -21 -14
-3 -7 -23 -19 -45 -26 -21 -7 -39 -17 -39 -22 0 -5 -4 -7 -9 -4 -5 3 -42 0
-82 -8 -62 -12 -80 -12 -119 0 -25 8 -48 14 -52 14 -12 0 -10 -38 2 -45 18
-11 11 -21 -23 -32 -33 -10 -34 -10 -33 18 1 16 4 29 9 29 12 0 8 20 -7 36
-20 19 -33 18 -39 -6 -4 -15 -14 -20 -36 -20 -34 0 -40 -16 -13 -36 15 -12 10
-13 -36 -14 -50 0 -52 1 -40 20 9 14 10 23 2 28 -19 13 -25 42 -9 48 8 4 15
12 15 20 0 8 10 14 25 14 14 0 25 -4 25 -10 0 -5 7 -10 15 -10 41 0 -3 52 -45
54 -37 1 -42 21 -42 144 1 82 -1 93 -16 90 -14 -3 -17 -15 -17 -64 0 -50 -3
-61 -15 -56 -22 7 -40 33 -40 58 0 13 -6 29 -13 36 -7 7 -19 41 -26 75 -16 74
-41 94 -41 33 0 -22 -4 -40 -10 -40 -14 0 -13 -27 1 -32 6 -2 9 -13 7 -23 -4
-16 -9 -10 -26 25 -11 25 -24 62 -27 83 -4 20 -10 37 -14 37 -3 0 -6 56 -6
125 0 69 4 125 9 125 4 0 5 11 2 25 -4 14 -3 25 1 25 5 0 19 29 32 65 14 36
29 65 33 65 4 0 8 7 8 15 0 8 5 15 10 15 6 0 10 8 10 18 0 23 19 42 41 42 21
0 29 -28 15 -52 -6 -9 -7 -20 -4 -24 13 -12 38 5 38 25 0 11 4 23 10 26 6 4 9
-36 6 -115 -3 -109 3 -145 21 -126 3 3 6 66 5 140 l0 134 29 6 c17 3 29 12 29
21 0 8 4 15 9 15 15 0 41 30 41 46 0 8 -5 14 -11 14 -15 0 -39 26 -32 34 4 3
15 6 25 6 10 0 18 7 18 15 0 8 -7 15 -15 15 -8 0 -15 -4 -15 -9 0 -4 -15 -8
-32 -7 -33 1 -51 13 -42 28 7 12 114 10 114 -2 0 -5 11 -10 25 -10 18 0 25 -5
25 -20 0 -10 -11 -30 -25 -44 -34 -34 -34 -60 1 -52 15 4 39 10 55 13 16 3 29
9 29 14 0 5 21 6 46 2 34 -4 48 -2 55 8 7 12 9 12 9 0 0 -11 12 -13 60 -8 37
4 60 3 60 -3 0 -6 11 -10 24 -10 13 0 26 -7 30 -15 3 -8 0 -15 -5 -15 -6 0 -9
-9 -6 -20 3 -11 1 -20 -4 -20 -10 0 -12 -31 -3 -54 7 -18 34 -22 34 -5 0 6 7
17 15 25 8 9 15 24 15 35 0 11 7 19 16 19 11 0 15 6 11 20 -3 11 -1 20 5 20 6
0 8 9 5 19 -4 17 -2 18 19 9 13 -6 24 -18 25 -27 0 -9 11 -34 24 -56 13 -22
32 -56 42 -75 10 -19 21 -36 26 -38 4 -2 7 -19 7 -37 0 -40 14 -52 35 -31 18
18 20 46 3 46 -10 0 -9 3 1 9 10 6 12 29 10 90 l-4 81 42 0 43 0 0 -55 c0 -30
-4 -55 -10 -55 -14 0 -13 -27 1 -32 12 -4 14 -201 3 -245 -4 -13 -2 -23 2 -23
5 0 8 -54 6 -120 -2 -66 -7 -120 -13 -120 -5 0 -9 -7 -9 -15 0 -8 5 -15 11
-15 6 0 9 -23 7 -60 -2 -33 -6 -60 -10 -60 -5 0 -8 -7 -8 -15 0 -8 5 -15 10
-15 6 0 10 -9 10 -20 0 -11 -4 -20 -10 -20 -12 0 -13 -50 -2 -68 8 -11 -12
-89 -30 -117 -3 -5 -6 -27 -6 -48 l0 -39 59 4 c32 1 59 0 59 -4 0 -12 84 -6
92 6 5 8 8 7 8 -1 0 -9 14 -10 50 -6 34 4 50 2 50 -6 0 -6 7 -11 15 -11 8 0
15 6 15 13 0 8 4 7 10 -3 8 -12 13 -13 30 -3 11 7 36 13 55 13 19 0 35 5 35
11 0 6 -9 8 -21 4 -15 -5 -22 -2 -26 14 -4 16 -13 21 -39 21 -54 0 -84 16 -90
50 -4 16 -9 30 -13 30 -3 0 -4 66 -3 146 3 115 1 148 -10 155 -10 6 -10 9 0 9
18 0 18 336 0 344 -10 5 -10 7 0 12 14 7 16 44 2 44 -14 0 -13 37 1 42 14 5
-6 78 -21 78 -4 0 -3 17 3 37 9 28 9 37 -1 41 -20 6 -13 20 8 15 18 -5 20 0
20 41 0 25 -4 46 -10 46 -5 0 -10 11 -10 25 0 16 6 25 15 25 8 0 15 6 15 14 0
18 67 17 75 -1 2 -7 0 -13 -5 -13 -6 0 -10 -12 -10 -26 l0 -26 85 3 c61 3 85
1 85 -8 0 -6 10 -13 23 -15 18 -2 21 -8 19 -35 -2 -19 1 -33 7 -33 6 0 11 -7
11 -15 0 -8 7 -15 16 -15 12 0 15 6 10 25 -4 14 -2 25 4 25 14 0 12 27 -2 33
-8 3 -8 6 -2 6 19 2 50 -33 46 -51 -4 -19 19 -48 37 -48 7 0 8 16 4 45 -4 31
-2 45 6 45 15 0 14 67 -1 73 -10 4 -10 6 0 6 19 1 16 91 -3 91 -8 0 -15 -4
-15 -10 0 -5 -9 -10 -20 -10 -11 0 -20 -3 -20 -7 0 -5 -34 -7 -75 -5 -49 2
-75 0 -75 -7 0 -7 -24 -11 -60 -11 -47 0 -60 3 -60 15 0 11 -12 15 -47 15
l-48 0 -2 130 c-1 74 3 130 8 130 5 0 9 71 8 165 -1 156 -2 165 -20 165 -10 0
-19 -6 -19 -14 0 -7 -9 -16 -20 -19 -11 -3 -20 -1 -20 4 0 5 -7 9 -15 9 -22 0
-20 -66 2 -74 11 -4 13 -10 7 -14 -6 -4 -11 -41 -11 -82 0 -41 -1 -86 -2 -99
l-1 -25 -29 28 c-17 16 -40 34 -53 40 -13 6 -27 21 -33 34 -5 12 -14 22 -20
22 -13 0 -55 50 -55 67 0 7 -6 13 -14 13 -8 0 -16 7 -20 15 -3 8 -12 15 -21
15 -9 0 -15 9 -15 21 0 12 -8 23 -20 26 -11 3 -20 10 -20 16 0 13 -110 127
-123 127 -15 0 -67 54 -67 70 0 8 -19 34 -42 57 -33 33 -50 43 -75 43 l-33 0
0 -75 c0 -63 4 -81 28 -122 16 -26 31 -58 34 -70 5 -19 3 -21 -27 -16 l-32 5
5 -71 c3 -49 1 -71 -7 -71 -16 0 -15 -107 2 -114 10 -5 10 -7 -1 -12 -8 -4
-12 -39 -12 -125 0 -73 -4 -119 -10 -119 -5 0 -10 -7 -10 -15 0 -12 -13 -15
-55 -15 -30 0 -55 5 -55 10 0 6 -9 10 -20 10 -11 0 -20 6 -20 13 0 7 -9 20
-20 30 -11 9 -20 26 -20 37 0 11 -7 20 -16 20 -8 0 -12 5 -9 11 9 14 -53 166
-71 173 -8 3 -14 11 -14 19 0 27 -25 67 -42 67 -22 0 -23 14 -2 34 16 16 11
56 -7 56 -5 0 -9 11 -9 24 0 13 -7 26 -15 30 -9 3 -12 12 -8 22 4 10 0 20 -11
26 -9 5 -14 14 -10 19 8 13 -16 71 -32 82 -7 4 -10 15 -7 24 4 9 0 19 -10 24
-8 5 -13 17 -10 27 4 18 -48 82 -67 82 -6 0 -19 -19 -30 -42 -10 -24 -19 -37
-19 -30 -1 6 -8 12 -16 12 -8 0 -15 7 -15 15 0 8 -7 15 -15 15 -8 0 -15 5 -15
10 0 6 -7 10 -15 10 -8 0 -15 -7 -15 -15 0 -8 7 -15 15 -15 8 0 15 -4 15 -10
0 -5 7 -10 15 -10 8 0 15 -7 15 -15 0 -8 7 -15 15 -15 12 0 14 -7 9 -27 -4
-16 -11 -31 -17 -34 -5 -4 -10 -21 -12 -39 -1 -18 -8 -36 -15 -40 -7 -4 -10
-15 -7 -24 3 -8 0 -19 -7 -23 -19 -12 -39 -69 -31 -92 4 -15 2 -21 -8 -21 -14
0 -38 -47 -67 -131 -10 -28 -17 -35 -32 -31 -21 5 -26 -24 -5 -31 9 -3 9 -9 0
-28 -20 -40 -64 -153 -70 -176 -4 -15 -13 -23 -27 -23 -17 0 -21 6 -22 31 -1
17 -7 34 -13 39 -8 4 -10 17 -5 33 3 15 2 27 -3 27 -5 0 -7 16 -5 35 3 27 1
35 -12 35 -9 0 -16 5 -16 10 0 6 -7 10 -16 10 -13 0 -14 2 -1 14 18 19 32 99
17 104 -5 2 -10 12 -10 23 0 13 -7 19 -21 19 -12 0 -19 5 -16 13 2 6 14 11 25
9 26 -4 29 19 6 42 -12 12 -14 27 -8 61 3 26 2 45 -3 45 -5 0 -8 14 -5 30 2
17 0 30 -6 30 -7 0 -9 14 -5 35 5 28 2 35 -11 35 -12 0 -15 6 -10 25 5 18 2
25 -9 25 -8 0 -18 -6 -20 -12 -4 -8 -6 -7 -6 4 -1 9 -4 23 -7 32 -4 12 0 16
15 16 14 0 21 6 21 20 0 33 -25 23 -49 -20 -12 -22 -26 -40 -32 -40 -5 0 -9
-9 -9 -19 0 -11 -5 -21 -12 -23 -7 -3 -13 -17 -13 -31 -1 -15 -10 -33 -20 -41
-11 -8 -20 -27 -20 -42 -1 -22 -7 -30 -23 -32 -12 -2 -22 -8 -22 -13 0 -5 -7
-9 -15 -9 -18 0 -20 -26 -2 -33 7 -3 5 -6 -5 -6 -19 -1 -26 -31 -8 -31 7 0 7
-7 0 -21 -7 -11 -9 -27 -6 -35 3 -8 -1 -14 -10 -14 -11 0 -15 -6 -11 -20 3
-11 -1 -23 -8 -28 -7 -4 -30 -41 -51 -82 -37 -72 -39 -74 -42 -42 -2 17 -7 32
-12 32 -4 0 -11 11 -14 25 -4 15 -14 25 -24 25 -28 0 -41 20 -35 55 4 25 -3
52 -27 104 -18 39 -37 71 -41 71 -5 0 -9 9 -9 20 0 11 -5 20 -10 20 -11 0 -21
20 -41 88 -7 23 -18 42 -26 42 -8 0 -12 4 -8 10 3 5 3 21 -1 35 -5 22 -11 25
-28 20 -11 -4 -33 -9 -48 -12 -29 -6 -45 -45 -33 -83 4 -12 2 -20 -5 -20 -8 0
-11 -13 -8 -35 2 -19 0 -35 -5 -35 -5 0 -7 -13 -5 -30 4 -23 0 -30 -16 -32
-30 -4 -33 -36 -4 -47 13 -6 17 -10 11 -10 -8 -1 -13 -14 -13 -31 0 -16 -3
-30 -8 -30 -6 0 -12 -63 -16 -177 0 -18 -5 -33 -10 -33 -5 0 -6 -13 -3 -30 4
-18 2 -30 -4 -30 -7 0 -9 -21 -5 -60 4 -54 3 -60 -14 -60 -10 0 -25 -7 -34
-15 -8 -8 -19 -15 -25 -15 -6 0 -11 -9 -11 -20 0 -13 7 -20 20 -20 11 0 20 5
20 10 0 6 25 10 55 10 46 0 55 -3 55 -18 0 -16 -11 -17 -135 -14 -126 4 -135
3 -136 -14 0 -11 -3 -14 -6 -6 -2 6 -22 12 -43 12 -39 0 -50 11 -50 51 0 12 7
19 20 19 11 0 20 6 20 13 0 16 42 57 57 57 17 0 25 36 19 83 -3 23 -3 34 0 25
11 -37 32 -18 38 36 10 75 1 103 -35 110 -27 5 -29 8 -19 27 7 11 9 32 6 45
-11 41 3 74 30 74 17 0 24 6 24 20 0 24 -22 26 -44 4 -9 -8 -16 -11 -16 -5 0
6 -7 11 -15 11 -8 0 -15 7 -15 15 0 8 5 15 10 15 6 0 10 14 10 30 0 19 5 30
14 30 8 0 18 9 21 20 3 11 13 20 21 20 8 0 14 7 14 16 0 12 -7 14 -32 9 -18
-4 -34 -11 -36 -16 -2 -5 -15 -6 -29 -3 l-26 7 5 -217 c2 -119 1 -216 -3 -216
-4 0 -10 -16 -13 -35 -11 -58 -26 -51 -26 13 0 32 3 62 8 66 10 11 11 96 1 96
-5 0 -9 9 -9 19 0 29 -11 51 -25 51 -15 0 -8 -148 7 -167 7 -9 7 -13 -1 -13
-7 0 -11 -30 -11 -88 l0 -89 -40 -13 c-22 -7 -40 -16 -40 -20 0 -10 -132 8
-144 20 -5 5 -18 10 -27 10 -9 0 -19 11 -23 24 -3 14 -13 26 -22 28 -11 2 -18
16 -20 43 -2 22 -7 41 -12 43 -5 1 -7 35 -4 73 4 54 1 73 -9 81 -11 7 -11 11
-1 15 14 6 16 33 2 33 -6 0 -10 27 -10 60 0 33 4 60 10 60 6 0 10 7 10 15 0 8
-4 15 -10 15 -5 0 -10 14 -10 30 0 17 5 30 12 30 8 0 9 27 4 100 -4 67 -3 100
4 100 18 0 70 43 70 57 0 7 9 13 20 13 11 0 20 7 20 15 0 8 7 15 15 15 8 0 23
8 34 19 10 10 30 21 45 25 14 3 26 13 26 21 0 19 -34 19 -53 1 -8 -8 -33 -19
-55 -26 -23 -6 -42 -15 -42 -20 0 -6 -6 -10 -13 -10 -7 0 -20 -9 -30 -20 -9
-11 -24 -20 -32 -20 -8 0 -15 -7 -15 -15 0 -8 -7 -15 -15 -15 -8 0 -24 -9 -35
-20 -17 -17 -33 -20 -120 -20 l-100 0 0 -26 c0 -23 3 -25 33 -22 33 3 67 -17
67 -39 0 -27 -40 -83 -59 -83 -6 0 -11 -7 -11 -15 0 -23 47 -19 55 4 3 11 12
22 20 25 11 4 15 -3 15 -29 0 -19 -4 -35 -10 -35 -5 0 -10 -11 -10 -25 0 -14
5 -25 10 -25 6 0 10 -7 10 -15 0 -8 -4 -15 -10 -15 -14 0 -12 -37 2 -43 10 -4
10 -6 1 -6 -17 -1 -17 -38 -1 -45 11 -5 11 -7 0 -12 -16 -7 -16 -81 0 -87 10
-4 10 -6 1 -6 -14 -1 -18 -41 -5 -41 4 0 8 -25 8 -56 0 -41 4 -58 16 -65 10
-5 14 -17 11 -28 -6 -23 17 -59 48 -75 12 -6 27 -20 33 -31 17 -30 38 -44 69
-45 15 0 27 -4 27 -9 0 -15 -33 -23 -41 -10 -4 8 -20 10 -43 6 -20 -3 -36 -2
-36 4 0 5 -18 9 -40 9 -22 0 -40 -5 -40 -10 0 -7 -13 -8 -35 -4 -23 4 -49 1
-75 -10 -27 -11 -71 -16 -130 -16 -83 0 -90 1 -90 20 0 17 7 20 45 20 25 0 45
-4 45 -10 0 -14 27 -12 33 3 4 10 6 10 6 0 1 -7 10 -13 21 -13 11 0 20 6 20
13 0 9 3 8 9 -2 12 -19 51 -4 51 20 0 18 -4 20 -30 14 -22 -5 -35 -1 -52 14
-42 40 -59 171 -22 171 8 0 14 7 14 15 0 8 -6 15 -14 15 -19 0 -28 150 -10
165 7 6 18 30 25 53 6 23 18 42 25 42 11 0 24 21 24 41 0 5 -9 9 -20 9 -13 0
-22 -9 -26 -25 -3 -14 -10 -25 -14 -25 -5 0 -11 -8 -13 -17 -3 -10 -5 7 -6 37
-6 163 -5 220 2 220 4 0 7 7 7 15 0 26 22 41 52 37 25 -4 28 -1 28 22 l0 26
-180 0 -180 0 0 -25 c0 -20 5 -25 24 -25 13 0 36 -3 52 -6 l29 -5 -3 -136 c-3
-97 -7 -140 -17 -150 -20 -20 -361 -19 -381 1 -16 17 -19 56 -4 56 6 0 10 7
10 15 0 8 -4 15 -10 15 -6 0 -10 28 -10 65 0 37 4 65 10 65 6 0 10 12 10 28 1
37 19 57 55 57 23 0 30 4 30 20 0 19 -8 20 -182 23 l-183 2 0 -25 c0 -21 5
-25 28 -25 47 0 72 -11 72 -31 0 -11 3 -19 8 -19 4 0 7 -146 7 -325 0 -179 -4
-325 -9 -325 -4 0 -5 -11 -2 -25 5 -20 3 -25 -14 -25 -11 0 -20 -4 -20 -10 0
-5 -9 -10 -20 -10 -11 0 -20 -4 -20 -10 0 -5 6 -10 14 -10 12 0 26 -20 26 -36
0 -2 -74 -4 -165 -4 -167 0 -183 -4 -151 -36 18 -17 63 -18 69 -1 4 10 6 10 6
0 1 -15 61 -18 61 -3 0 6 11 10 25 10 14 0 25 -5 25 -11 0 -6 8 -9 18 -6 69
22 66 22 59 -9 -4 -16 -10 -40 -13 -52 -6 -19 -3 -23 12 -22 43 5 46 2 41 -47
-2 -27 -13 -70 -22 -97 -14 -38 -16 -52 -7 -67 9 -14 9 -19 1 -19 -6 0 -9 -9
-6 -20 4 -15 0 -20 -14 -20 -21 0 -44 -44 -35 -67 3 -8 -5 -18 -19 -25 -27
-12 -30 -24 -16 -48 6 -8 7 -18 4 -23 -3 -5 -11 4 -19 18 -12 24 -11 36 16
118 17 51 30 102 30 115 0 12 5 22 10 22 6 0 10 9 10 20 0 11 6 20 13 20 10 0
14 14 15 45 0 48 -21 64 -33 25 -6 -20 -45 -29 -45 -10 0 6 -9 10 -20 10 -11
0 -20 -4 -20 -10 0 -5 -13 -10 -30 -10 -25 0 -30 4 -30 25 0 14 5 25 10 25 6
0 10 9 10 20 0 11 -7 20 -15 20 -8 0 -15 7 -15 15 0 24 -27 18 -34 -7 -3 -13
-6 -60 -6 -105 0 -84 15 -123 47 -123 18 0 16 29 -2 36 -8 4 -15 16 -15 28 0
20 4 21 64 18 l64 -4 -34 -96 c-19 -53 -62 -170 -95 -260 -34 -89 -59 -168
-56 -176 3 -7 -4 -21 -15 -30 -13 -12 -18 -26 -15 -42 2 -13 0 -24 -5 -24 -17
0 -36 -27 -36 -51 0 -24 -31 -114 -32 -91 0 17 -30 15 -30 -2 0 -8 5 -16 12
-18 20 -7 -10 -84 -39 -99 -20 -11 -24 -19 -19 -41 l5 -28 -79 0 c-78 0 -80 1
-80 24 0 19 4 23 20 19 14 -4 20 0 20 11 0 9 6 16 13 16 6 0 27 14 46 30 18
17 40 30 47 30 8 0 14 7 14 15 0 18 -33 20 -52 3 -8 -7 -43 -28 -79 -46 -62
-33 -63 -33 -40 -8 14 14 29 26 34 26 17 0 97 71 97 86 0 24 -21 17 -107 -39
-24 -15 -53 -26 -65 -26 -17 1 -19 2 -6 6 10 2 18 9 18 14 0 5 7 9 15 9 8 0
15 4 15 9 0 5 15 16 32 25 67 34 98 58 98 75 0 6 -7 11 -15 11 -8 0 -15 -4
-15 -10 0 -5 -12 -13 -27 -16 -30 -8 -40 -15 -84 -57 -16 -16 -35 -27 -40 -25
-20 7 88 88 179 135 17 9 32 20 32 25 0 4 8 8 18 8 20 0 50 45 38 57 -4 4 -16
2 -26 -5 -11 -7 -25 -12 -32 -12 -6 0 -22 -10 -35 -22 -13 -12 -25 -19 -28
-16 -3 3 10 16 30 29 33 23 47 49 25 49 -6 0 -35 -14 -65 -31 -73 -41 -91 -26
-20 17 63 37 123 53 134 35 11 -17 101 8 101 27 0 11 -8 13 -32 8 -29 -5 -31
-4 -16 8 20 15 24 36 8 36 -25 0 -142 -45 -221 -86 -47 -24 -89 -44 -92 -44
-13 0 -7 17 13 40 11 13 20 18 20 12 0 -7 7 -12 15 -12 10 0 15 10 15 29 0 16
7 36 15 45 17 17 20 46 5 46 -5 0 -10 7 -10 15 0 8 -7 15 -15 15 -8 0 -15 -7
-15 -15 0 -19 -17 -19 -36 -1 -19 20 -18 25 6 19 24 -6 29 24 6 33 -20 8 -8
34 15 34 12 0 19 7 19 20 0 23 -22 26 -43 5 -13 -12 -16 -12 -21 7 -3 12 0 28
5 34 6 8 7 23 3 36 -12 38 -12 78 -1 85 6 4 13 1 15 -5 5 -17 42 -15 42 3 0 8
7 15 15 15 8 0 15 -5 15 -11 0 -7 10 -9 25 -5 14 4 25 2 25 -4 0 -5 7 -10 15
-10 8 0 15 7 15 15 0 8 -7 15 -15 15 -8 0 -15 4 -15 9 0 5 -11 12 -25 15 -25
6 -25 6 -5 26 11 11 20 27 20 35 0 18 -27 20 -32 3 -3 -9 -6 -9 -12 0 -4 7 -2
12 3 12 6 0 11 7 11 16 0 12 -6 15 -24 10 -24 -6 -24 -5 -14 26 5 18 12 44 15
58 4 23 53 59 53 39 0 -5 7 -9 15 -9 8 0 15 7 15 15 0 8 -4 15 -10 15 -5 0
-10 9 -10 20 0 11 5 20 10 20 6 0 10 7 10 15 0 8 7 15 15 15 8 0 15 7 15 15 0
8 4 15 9 15 5 0 7 -18 4 -40 -5 -33 -3 -40 11 -40 11 0 16 9 16 30 0 17 5 30
10 30 6 0 10 7 10 15 0 8 -7 15 -15 15 -22 0 -18 28 5 35 11 3 20 15 20 25 0
10 5 20 12 22 26 9 -2 38 -37 38 -24 0 -35 4 -35 15 0 8 -7 15 -15 15 -18 0
-20 -26 -3 -33 10 -4 10 -6 0 -6 -17 -1 -42 -26 -42 -41 0 -8 10 -9 30 -5 17
4 30 2 30 -3 0 -17 -37 -42 -63 -42 -28 0 -38 -24 -14 -33 7 -3 5 -6 -5 -6
-10 -1 -18 -5 -18 -11 0 -5 -9 -10 -20 -10 -11 0 -20 -7 -20 -15 0 -8 -4 -15
-10 -15 -5 0 -10 -7 -10 -15 0 -8 7 -15 15 -15 8 0 15 -9 15 -19 0 -14 -5 -18
-20 -14 -11 3 -20 1 -20 -4 0 -6 -11 -8 -25 -5 -14 2 -25 11 -25 18 0 8 -9 14
-20 14 -14 0 -20 7 -20 21 0 17 -4 20 -24 15 -16 -4 -26 -1 -30 9 -3 8 -12 15
-21 15 -8 0 -15 5 -15 10 0 6 -7 10 -15 10 -8 0 -15 7 -15 15 0 8 5 15 10 15
6 0 10 11 10 25 0 16 -6 25 -15 25 -8 0 -15 -6 -15 -14 0 -8 -7 -17 -16 -20
-26 -10 -30 -6 -11 9 13 9 17 20 12 34 -8 26 1 26 43 1 41 -25 48 -25 55 0 3
11 11 20 17 20 9 0 11 -12 6 -40 -3 -22 -2 -40 3 -40 5 0 7 -9 4 -20 -4 -15 2
-22 22 -30 36 -14 45 -13 45 5 0 8 -4 15 -10 15 -5 0 -12 11 -16 25 -3 14 -11
25 -18 25 -8 0 -8 2 0 8 6 4 14 19 18 35 3 15 13 27 22 27 13 0 15 7 10 34 -6
31 -4 35 28 50 29 13 45 38 46 69 0 14 -53 7 -65 -10 -11 -14 -13 -13 -19 10
-6 26 -36 39 -36 16 0 -5 -5 -7 -10 -4 -6 3 -7 17 -4 31 5 19 2 24 -14 24 -26
0 -35 35 -13 54 22 20 31 20 31 1 0 -16 18 -20 36 -7 5 4 16 22 24 41 l14 34
18 -23 c21 -26 16 -40 -13 -33 -17 5 -20 2 -17 -13 4 -20 36 -24 71 -9 12 5
17 3 17 -9 0 -9 7 -16 15 -16 8 0 15 7 15 15 0 8 5 15 10 15 6 0 10 9 10 20 0
11 -5 20 -11 20 -14 0 -39 25 -39 39 0 6 -7 11 -15 11 -8 0 -15 9 -15 20 0 11
-6 23 -14 26 -18 7 -9 34 10 34 8 0 14 10 14 23 0 12 9 29 20 37 11 8 20 20
20 27 0 17 -27 17 -33 1 -3 -7 -6 -3 -6 10 -1 12 6 25 14 28 24 10 19 61 -7
67 -32 9 -16 18 31 19 33 0 41 4 41 19 0 15 -8 19 -37 20 -31 2 -33 3 -10 6
38 6 35 33 -4 33 -26 0 -30 3 -24 18 5 9 9 28 10 41 3 48 65 45 65 -3 0 -9 7
-16 15 -16 10 0 15 11 16 33 0 29 1 30 9 10 10 -24 53 -32 65 -13 3 6 17 10
31 10 15 0 24 6 24 15 0 8 -7 15 -15 15 -20 0 -20 39 0 46 8 4 15 12 15 18 0
16 -98 16 -108 0 -4 -5 -24 -9 -45 -8 -41 2 -65 14 -29 14 12 0 22 4 22 9 0 5
14 12 30 16 33 7 40 31 13 38 -15 4 -15 6 5 12 12 4 22 14 22 21 0 8 5 14 11
14 6 0 9 9 6 20 -4 16 0 20 19 20 25 0 28 7 18 33 -4 12 -18 14 -65 10 -48 -5
-59 -3 -59 9 0 9 9 14 23 14 16 -1 23 5 25 23 3 21 1 23 -21 17 -14 -3 -32 -9
-41 -12 -9 -3 -16 -1 -16 5 0 6 7 11 16 11 12 0 15 6 11 20 -4 17 -2 20 14 15
23 -8 63 30 73 69 4 16 16 30 26 33 15 4 20 14 20 42 0 36 1 37 35 33 28 -3
35 -1 35 13 0 21 24 45 44 45 9 0 16 5 16 10 0 6 7 10 15 10 10 0 15 10 16 28
0 15 3 21 6 15 2 -7 11 -13 19 -13 17 0 19 27 2 32 -9 3 -9 6 0 12 7 4 12 2
12 -3 0 -6 7 -11 15 -11 8 0 15 7 15 15 0 8 -7 15 -15 15 -8 0 -15 7 -15 16 0
13 -7 15 -30 11 -17 -4 -30 -2 -30 3 0 6 5 10 10 10 6 0 10 7 10 15 0 9 -9 15
-25 15 -14 0 -28 -7 -31 -15 -4 -8 -12 -15 -20 -15 -8 0 -14 7 -14 15 0 12
-13 15 -55 15 -41 0 -55 -4 -55 -14 0 -8 -4 -17 -9 -20 -5 -4 -7 3 -4 14 5 20
0 20 -311 20 l-316 0 0 -645z m4243 -545 c14 -36 30 -82 37 -102 6 -21 16 -38
20 -38 5 0 7 -7 4 -15 -7 -17 -34 -21 -34 -5 0 14 -27 12 -34 -2 -5 -10 -7
-10 -12 0 -3 6 -21 12 -39 12 -18 0 -36 -6 -38 -12 -4 -10 -8 -9 -16 2 -7 10
-7 16 0 21 6 3 10 12 9 20 -5 31 1 49 15 49 14 0 16 8 19 63 1 10 6 21 12 25
6 4 15 17 19 30 9 29 8 30 38 -48z m699 23 c21 -20 38 -43 38 -51 0 -17 93
-112 109 -112 6 0 11 -7 11 -15 0 -8 7 -15 15 -15 9 0 20 -11 25 -25 5 -14 15
-25 22 -25 16 0 188 -171 188 -187 0 -6 9 -13 21 -16 11 -3 23 -14 25 -24 3
-10 15 -23 26 -28 12 -6 26 -19 32 -30 6 -11 16 -23 21 -27 6 -4 -23 -8 -62
-8 -63 0 -73 -2 -73 -17 0 -15 -2 -16 -10 -3 -13 21 -268 29 -281 8 -7 -9 -11
-10 -16 -2 -11 16 -73 29 -73 15 0 -6 -7 -11 -15 -11 -8 0 -15 5 -15 11 0 7
-14 8 -40 4 -27 -5 -40 -3 -40 5 0 8 -22 9 -75 4 -49 -4 -75 -3 -75 3 0 6 22
10 51 10 33 -1 53 4 59 13 7 12 12 11 29 -4 14 -13 26 -16 43 -10 13 4 28 6
33 5 6 -2 29 -5 53 -7 37 -3 42 0 42 17 0 18 -4 20 -30 14 -20 -4 -30 -3 -30
5 0 6 -10 10 -22 8 -19 -2 -22 1 -20 20 2 12 -1 22 -6 22 -5 0 -7 23 -4 51 3
37 1 54 -9 60 -10 6 -10 9 -1 9 7 0 12 15 12 40 0 22 -5 40 -11 40 -7 0 -9 28
-5 88 3 48 5 113 6 145 0 31 3 57 7 57 4 0 24 -17 45 -37z m-1303 -50 c1 -79
2 -93 9 -93 4 0 8 -35 9 -77 0 -43 5 -79 11 -81 6 -2 8 -20 5 -42 -4 -25 -2
-40 5 -40 7 0 9 -13 5 -35 -4 -23 -2 -35 6 -35 8 0 7 -9 -4 -30 -19 -37 -19
-50 0 -50 13 0 14 -4 5 -21 -10 -18 -19 -20 -65 -17 -51 3 -75 -7 -75 -32 0
-6 15 -8 40 -4 27 4 40 3 40 -5 0 -6 7 -11 15 -11 8 0 15 -1 15 -3 0 -8 -83
-222 -87 -227 -3 -3 -2 6 2 18 8 26 -20 112 -37 112 -14 0 -37 25 -48 54 -7
19 -17 26 -35 26 -14 0 -25 5 -25 10 0 6 11 10 25 10 14 0 25 5 25 10 0 6 7
10 15 10 8 0 15 6 15 14 0 12 -26 14 -145 13 -80 -1 -145 1 -145 6 0 13 -60 8
-61 -5 0 -10 -2 -10 -6 0 -5 14 -63 17 -63 3 0 -6 -17 -7 -37 -4 -46 7 -45 6
-37 27 7 18 40 22 46 4 7 -20 58 0 58 23 0 18 -4 20 -25 15 -14 -4 -25 -2 -25
4 0 5 -6 10 -14 10 -23 0 -50 31 -35 40 7 5 10 19 6 39 -4 20 -2 31 5 31 7 0
8 14 4 42 -5 28 -3 44 5 49 7 4 12 34 13 73 1 36 5 66 10 66 5 0 6 16 3 35 -3
19 -2 35 4 35 5 0 10 12 10 28 1 21 2 22 6 7 3 -11 12 -29 19 -40 8 -11 14
-28 14 -38 0 -9 7 -20 15 -23 8 -4 15 -14 15 -24 0 -10 7 -20 15 -24 9 -3 15
-18 15 -35 0 -28 35 -102 52 -109 4 -2 8 -12 8 -23 0 -10 4 -19 9 -19 5 0 11
-13 15 -30 3 -17 12 -30 20 -30 10 0 13 -6 9 -16 -3 -9 -2 -19 3 -23 5 -3 15
-18 21 -33 9 -19 20 -28 36 -28 18 0 29 13 55 65 18 36 32 72 32 80 0 8 4 15
8 15 13 0 55 96 48 108 -7 12 36 62 53 62 7 0 11 8 8 18 -2 9 12 47 31 84 19
37 32 74 28 83 -3 9 0 15 9 15 9 0 14 -12 14 -37z m-2290 -101 c13 -12 16 -12
26 2 10 14 37 16 174 16 l161 0 0 -75 c0 -43 4 -75 10 -75 6 0 10 -9 10 -20 0
-11 -5 -20 -11 -20 -8 0 -10 -24 -7 -75 2 -54 0 -76 -9 -80 -7 -2 -13 -11 -13
-20 0 -11 -10 -15 -35 -15 -25 0 -35 -4 -35 -16 0 -12 6 -15 27 -10 27 7 83
-10 83 -25 0 -5 -70 -9 -155 -9 -97 0 -155 -4 -155 -10 0 -12 -37 -13 -44 -2
-8 13 23 52 40 52 8 0 14 7 14 16 0 11 -6 15 -20 11 -22 -6 -25 1 -35 91 -3
28 -1 60 4 71 6 11 7 38 2 72 -6 36 -5 56 2 60 14 9 1 39 -17 39 -21 0 -25
-22 -25 -160 0 -69 0 -130 -1 -137 0 -7 -6 -10 -13 -7 -9 3 -12 16 -9 34 3 18
0 30 -7 30 -6 0 -11 7 -11 15 0 8 5 15 10 15 6 0 10 7 10 15 0 8 -4 15 -10 15
-5 0 -10 25 -10 55 0 30 5 55 10 55 6 0 10 14 10 30 0 17 -4 30 -10 30 -5 0
-10 13 -10 30 0 24 3 28 18 23 9 -4 23 -13 31 -21z m2995 -123 c-6 -10 25
-101 37 -109 5 -3 7 -49 6 -103 -1 -84 -4 -98 -19 -103 -10 -3 -18 -10 -18
-15 0 -5 -9 -9 -19 -9 -11 0 -26 -7 -35 -15 -8 -8 -19 -15 -25 -15 -6 0 -11
-4 -11 -10 0 -5 -7 -10 -15 -10 -9 0 -18 -8 -22 -17 -9 -27 -35 -54 -60 -64
-14 -5 -23 -17 -23 -29 0 -11 -7 -20 -15 -20 -9 0 -15 -9 -15 -25 0 -15 -6
-25 -14 -25 -16 0 -41 -54 -31 -69 3 -6 -1 -14 -9 -17 -18 -7 -40 -78 -32
-100 3 -8 -1 -14 -9 -14 -9 0 -12 6 -8 16 4 10 0 20 -10 26 -9 4 -14 15 -11
22 7 17 -55 179 -72 189 -7 4 -11 13 -8 20 2 7 -6 42 -19 78 -14 35 -22 70
-20 77 5 14 73 17 73 2 0 -5 7 -10 15 -10 8 0 15 5 15 10 0 6 11 10 25 10 14
0 25 -4 25 -10 0 -5 14 -10 30 -10 17 0 30 5 30 10 0 6 13 10 30 10 22 0 28 4
24 15 -5 12 -33 14 -154 13 -81 0 -152 2 -157 5 -5 3 -25 2 -45 -2 -29 -7 -38
-5 -43 7 -7 19 14 34 35 25 26 -11 190 -16 190 -5 0 5 9 12 20 15 13 3 20 0
20 -9 0 -17 26 -19 33 -1 4 9 8 9 15 -2 14 -19 52 -4 52 21 0 16 -5 19 -21 15
-12 -3 -28 0 -35 8 -8 7 -19 16 -26 18 -10 4 -10 7 1 15 8 6 11 18 6 31 -5 15
-2 21 9 21 9 0 16 6 16 13 0 13 44 124 53 133 3 3 45 6 93 6 49 1 98 4 109 8
22 8 48 -7 39 -21z m-2744 -370 c0 -4 14 -10 30 -14 17 -4 30 -10 30 -15 0 -5
8 -11 19 -15 26 -8 73 -117 65 -149 -3 -15 -2 -26 4 -26 6 0 12 -23 14 -50 1
-28 0 -50 -4 -50 -5 0 -8 -7 -8 -16 0 -17 -27 -70 -46 -91 -7 -7 -23 -15 -38
-19 -14 -3 -26 -10 -26 -15 0 -5 -25 -9 -55 -9 -30 0 -55 5 -55 10 0 6 -11 10
-25 10 l-25 0 0 223 c0 123 2 226 5 229 9 8 115 6 115 -3z m518 -35 c-5 -20
-7 -42 -4 -50 3 -8 1 -14 -4 -14 -16 0 -11 -40 5 -46 8 -4 15 -12 15 -20 0 -8
7 -14 15 -14 8 0 15 7 15 15 0 8 -4 15 -9 15 -5 0 -11 8 -13 18 -5 18 13 42
32 42 5 0 10 8 10 19 0 13 10 20 31 25 46 9 79 7 79 -4 0 -5 7 -10 15 -10 8 0
15 7 15 15 0 20 12 19 36 -5 33 -33 40 -45 36 -62 -2 -10 1 -18 7 -18 6 0 11
-11 11 -25 0 -33 28 -33 36 1 4 14 4 48 1 75 -5 37 -3 49 7 49 8 0 15 -17 18
-47 4 -46 3 -477 -2 -593 -2 -51 -3 -53 -13 -27 -6 15 -14 27 -19 27 -4 0 -8
7 -8 15 0 8 -4 15 -10 15 -5 0 -10 7 -10 15 0 9 -7 18 -15 21 -8 4 -15 12 -15
20 0 8 -7 14 -16 14 -19 0 -84 59 -84 77 0 7 -9 13 -20 13 -11 0 -20 5 -20 10
0 6 7 10 16 10 11 0 15 6 12 18 -3 12 2 24 13 31 22 13 25 41 5 41 -7 0 -19
-7 -26 -15 -7 -8 -20 -15 -30 -15 -10 0 -23 -7 -30 -15 -15 -18 -47 -4 -58 24
-10 25 -108 131 -122 131 -6 0 -9 3 -7 8 3 4 1 41 -3 82 -8 82 -5 100 16 100
8 0 14 9 14 19 0 23 11 31 54 42 17 4 32 7 33 8 1 1 -3 -15 -9 -35z m1094 3
c4 -8 18 -7 42 0 30 9 36 9 36 -3 0 -8 4 -14 9 -14 5 0 27 -18 49 -39 50 -48
72 -113 47 -137 -22 -22 -20 -64 4 -64 15 0 19 -10 24 -52 2 -31 0 -56 -5 -59
-6 -4 -8 -13 -6 -20 3 -8 -2 -20 -9 -28 -8 -8 -12 -22 -10 -32 3 -12 0 -19 -9
-19 -8 0 -14 -9 -14 -20 0 -11 -3 -20 -7 -20 -5 -1 -27 -5 -51 -9 -23 -5 -45
-5 -48 0 -9 15 -30 10 -54 -11 -28 -24 -90 -28 -90 -5 0 8 -7 15 -15 15 -8 0
-15 -7 -15 -16 0 -14 -1 -14 -16 0 -8 9 -20 16 -25 16 -6 0 -9 82 -8 205 1
113 5 205 10 205 5 0 9 7 9 15 0 8 -4 15 -10 15 -19 0 -10 39 10 45 28 9 38 0
33 -29 -5 -25 22 -66 44 -66 9 0 13 21 13 75 l0 75 28 -6 c15 -4 30 -12 34
-17z m-643 -412 c-1 -331 -3 -415 -14 -415 -19 0 -25 48 -25 211 0 126 2 149
15 149 8 0 15 6 15 14 0 8 -7 21 -15 30 -12 11 -15 41 -15 130 0 86 -3 116
-12 117 -10 0 -10 2 0 6 7 3 12 24 12 54 0 32 -4 49 -12 50 -10 0 -10 2 0 6 6
2 12 18 12 34 0 22 5 29 20 29 19 0 19 -9 19 -415z m231 385 c0 -16 5 -30 10
-30 6 0 10 -27 10 -60 0 -33 -4 -60 -10 -60 -5 0 -10 -7 -10 -15 0 -8 4 -15 9
-15 6 0 10 -140 9 -360 0 -240 -3 -360 -10 -360 -7 0 -8 -18 -4 -51 6 -44 4
-53 -16 -74 -30 -32 -56 -32 -64 -1 -8 32 2 46 32 46 21 0 24 5 24 35 0 24 -5
35 -15 35 -8 0 -15 5 -15 10 0 6 -7 10 -16 10 -12 0 -15 -6 -10 -25 4 -14 3
-25 -2 -25 -4 0 -8 218 -7 485 l0 485 43 0 c40 0 42 -1 42 -30z m880 -220 c11
0 23 7 28 16 7 12 12 6 22 -29 7 -25 18 -48 25 -51 7 -2 11 -15 8 -29 -3 -15
2 -31 13 -42 10 -10 19 -34 20 -53 0 -21 7 -38 18 -44 11 -6 15 -16 11 -28 -3
-11 -1 -28 5 -40 10 -20 8 -20 -105 -20 l-117 0 7 29 c4 19 1 34 -10 44 -14
14 -14 17 1 25 12 6 15 18 12 36 -4 22 -2 26 18 26 17 0 24 7 27 28 10 55 7
82 -7 82 -18 0 -25 39 -11 63 8 15 11 15 13 2 2 -8 12 -15 22 -15z m-2486 -96
c33 -97 41 -142 38 -216 -2 -35 -4 -38 -32 -38 -16 0 -30 5 -30 10 0 6 -11 10
-25 10 -14 0 -25 -4 -25 -10 0 -5 -9 -10 -20 -10 -11 0 -20 5 -20 10 0 6 -7
10 -15 10 -20 0 -20 1 20 121 20 57 33 114 30 125 -3 14 1 24 9 27 8 3 17 20
21 37 4 17 9 30 11 27 2 -2 19 -48 38 -103z m666 -30 c0 -17 23 -44 38 -44 5
0 21 -9 36 -21 15 -11 33 -18 41 -15 9 3 15 0 15 -9 0 -8 8 -15 18 -15 9 0 22
-10 27 -22 6 -14 21 -24 36 -26 31 -4 73 -42 47 -42 -20 0 -31 -75 -15 -101
18 -28 41 -24 33 5 -6 24 10 76 23 76 4 0 11 -10 16 -22 9 -19 18 -26 65 -48
9 -4 16 -23 16 -46 1 -22 7 -66 14 -99 15 -76 20 -185 9 -185 -5 0 -9 7 -9 15
0 18 -30 20 -31 3 0 -10 -2 -10 -6 0 -2 6 -10 12 -17 12 -20 0 -43 35 -57 89
-7 28 -16 51 -20 51 -4 0 -10 14 -14 30 -4 17 -10 30 -14 30 -4 0 -7 10 -7 23
1 16 -5 22 -19 22 -13 0 -21 -8 -23 -22 -2 -16 2 -23 12 -23 11 0 16 -10 16
-32 0 -18 3 -43 6 -55 4 -14 2 -23 -5 -23 -6 0 -11 6 -11 14 0 8 -11 23 -25
34 -20 16 -24 25 -19 51 7 32 -13 121 -26 121 -4 0 -10 14 -14 30 -3 17 -14
33 -23 37 -25 8 -83 64 -83 80 0 7 -7 13 -15 13 -8 0 -17 11 -21 25 -4 18 -12
25 -28 24 -11 -1 -30 -1 -41 -1 -18 2 -18 3 3 18 12 8 22 21 22 28 0 16 21 36
37 36 7 0 13 -7 13 -16z m-194 -139 c21 -2 42 -4 47 -4 4 -1 7 -8 7 -16 0 -8
8 -15 17 -15 23 0 63 -39 63 -62 0 -10 8 -26 18 -36 26 -26 45 -102 26 -102
-23 0 -16 -30 11 -42 14 -6 25 -15 25 -20 0 -11 -5 -10 -47 7 -47 20 -53 19
-54 -7 l-2 -23 -4 23 c-3 15 -11 22 -29 22 -15 0 -24 6 -24 15 0 26 -29 16
-36 -12 -6 -24 -8 -25 -20 -9 -10 14 -21 17 -53 11 -37 -6 -41 -5 -41 14 0 24
-28 40 -39 22 -8 -13 -38 -5 -58 15 -17 17 -16 24 3 24 13 0 15 6 9 28 -3 15
-11 29 -16 30 -12 5 -12 32 1 32 6 0 9 12 8 28 -1 15 -1 41 0 59 l2 32 68 3
c37 2 70 -1 73 -5 3 -4 23 -9 45 -12z m1514 -125 c0 -5 7 -10 15 -10 8 0 15
-9 15 -20 0 -11 5 -20 10 -20 6 0 10 -7 10 -15 0 -8 5 -15 10 -15 6 0 10 -7
10 -15 0 -8 7 -15 15 -15 8 0 15 -9 15 -20 0 -11 7 -20 15 -20 9 0 15 -9 15
-21 0 -12 8 -23 20 -26 17 -5 18 -7 4 -21 -9 -8 -13 -23 -11 -34 3 -10 -2 -25
-10 -33 -8 -9 -12 -22 -9 -31 3 -8 -1 -17 -9 -20 -8 -4 -15 -14 -15 -23 0 -10
-3 -12 -8 -5 -4 6 -15 13 -24 17 -9 3 -20 22 -24 41 -7 41 -34 50 -34 11 0
-16 -6 -25 -15 -25 -9 0 -18 -7 -21 -15 -3 -8 -14 -17 -25 -20 -22 -7 -26 -35
-6 -35 8 0 24 9 36 19 21 18 24 18 64 3 33 -13 37 -18 20 -20 -23 -3 -37 -39
-26 -67 5 -15 3 -16 -18 -5 -30 17 -49 36 -49 49 0 6 -7 11 -15 11 -18 0 -20
-26 -2 -33 10 -4 10 -7 0 -18 -10 -9 -13 -10 -13 -1 0 7 -6 12 -14 12 -32 0
-37 26 -15 76 12 27 26 51 30 52 13 5 11 32 -2 32 -14 0 -32 -19 -46 -50 -11
-24 -12 -25 -12 -2 -1 12 -5 22 -11 22 -6 0 -10 60 -10 160 l0 160 70 0 c40 0
70 -4 70 -10z m-1869 -41 c5 -7 9 -53 9 -100 0 -65 -4 -90 -15 -99 -8 -7 -15
-23 -15 -37 0 -30 -24 -40 -45 -19 -25 24 -75 18 -75 -10 0 -10 13 -14 42 -14
l41 0 -34 -27 c-19 -15 -52 -48 -74 -74 -38 -44 -43 -47 -99 -50 -39 -3 -64 0
-72 9 -7 6 -24 12 -38 12 -14 0 -26 5 -26 10 0 6 -7 10 -15 10 -8 0 -15 7 -15
16 0 18 23 44 39 44 6 0 11 5 11 10 0 6 5 10 11 10 24 0 159 72 159 86 0 8 -4
14 -8 14 -15 0 -134 -49 -148 -61 -8 -7 -17 -9 -20 -7 -3 3 17 70 43 149 l48
144 143 -1 c114 0 145 -3 153 -15z m2577 -24 c9 -22 21 -43 28 -48 7 -4 11
-14 7 -23 -3 -8 2 -21 12 -28 11 -8 18 -25 17 -44 0 -18 5 -33 14 -36 9 -3 13
-10 9 -16 -9 -15 17 -90 32 -90 13 0 17 -17 14 -52 -1 -10 4 -18 11 -18 9 0 9
-3 2 -8 -6 -4 -13 -14 -16 -23 -5 -12 -25 -16 -94 -18 l-89 -2 -13 30 c-8 18
-21 31 -32 31 -10 0 -20 9 -23 20 -3 11 -13 23 -23 27 -16 6 -35 24 -74 70 -5
7 -10 17 -10 23 0 5 -7 10 -15 10 -8 0 -15 -4 -15 -10 0 -5 -7 -10 -15 -10 -8
0 -15 -5 -15 -11 0 -13 25 -39 39 -39 6 0 7 -8 4 -17 -4 -11 -8 -12 -11 -5 -2
7 -15 12 -29 12 -20 0 -24 -4 -20 -20 3 -11 1 -20 -4 -20 -14 0 -11 -20 5 -36
8 -7 12 -23 9 -34 -4 -16 -14 -20 -49 -20 -24 0 -44 4 -44 9 0 5 -8 11 -17 13
-13 2 -17 14 -18 51 0 26 3 47 8 47 4 0 7 6 7 13 0 9 11 12 35 9 27 -3 35 -1
35 11 0 10 -11 17 -32 19 -32 3 -53 28 -24 28 10 0 16 9 16 25 0 15 6 25 14
25 17 0 31 -33 17 -38 -6 -2 -11 -11 -11 -19 0 -12 7 -14 31 -9 16 3 37 12 45
20 16 17 19 46 4 46 -5 0 -10 7 -10 16 0 11 -6 15 -20 11 -22 -6 -37 8 -20 18
21 13 10 35 -17 35 -23 1 -25 2 -11 10 9 6 24 33 33 60 l17 51 145 -3 145 -3
16 -40z m-2128 -155 c0 -5 7 -10 15 -10 32 0 84 -39 78 -57 -3 -9 -11 -6 -26
7 -26 25 -46 25 -53 3 -18 -52 -31 -73 -51 -84 -13 -7 -23 -18 -23 -26 0 -7
-4 -13 -10 -13 -5 0 -10 9 -10 20 0 11 -4 20 -10 20 -5 0 -10 5 -10 10 0 6 7
10 15 10 8 0 15 7 15 15 0 18 -27 20 -32 3 -3 -7 -11 2 -19 20 -7 18 -20 32
-26 32 -7 0 -13 5 -13 10 0 15 48 31 92 32 21 0 38 4 38 9 0 5 7 9 15 9 8 0
15 -4 15 -10z m720 -66 c0 -19 -4 -34 -10 -34 -5 0 -10 -11 -10 -25 0 -18 5
-25 20 -25 11 0 20 -7 20 -15 0 -8 11 -22 25 -31 20 -13 23 -20 14 -30 -7 -8
-21 -11 -35 -8 -14 4 -37 2 -52 -4 -52 -20 -92 -23 -92 -7 0 8 -5 15 -11 15
-5 0 -7 5 -4 10 3 6 15 10 26 10 12 0 19 7 19 20 0 11 7 20 15 20 8 0 15 7 15
15 0 8 4 15 9 15 13 0 44 97 35 111 -4 8 -3 9 4 5 7 -4 12 -23 12 -42z m-1438
-242 c-20 -3 -22 -8 -17 -33 5 -22 3 -29 -9 -29 -9 0 -16 -7 -16 -15 0 -9 9
-15 23 -15 17 0 28 10 40 35 9 19 21 35 27 35 5 0 10 5 10 11 0 6 7 17 15 25
8 9 15 11 15 5 0 -5 -4 -12 -9 -15 -15 -9 -22 -55 -11 -69 6 -6 19 -24 31 -39
32 -43 64 -34 40 11 -6 11 -6 33 1 59 8 34 15 42 33 42 l23 0 -20 -67 c-14
-46 -18 -81 -14 -111 l6 -44 -29 7 c-40 9 -101 -4 -101 -21 0 -8 7 -14 15 -14
8 0 15 -4 15 -10 0 -5 8 -10 18 -11 10 0 12 -3 5 -6 -16 -6 -17 -30 -2 -35 26
-9 -32 -98 -63 -98 -10 0 -18 -7 -18 -15 0 -8 5 -15 11 -15 7 0 5 -10 -5 -25
-9 -13 -16 -29 -16 -35 0 -18 29 -11 40 11 10 17 13 18 23 7 17 -21 64 -48 82
-48 22 0 19 18 -10 56 -25 33 -33 78 -15 89 5 3 21 3 36 -1 22 -6 24 -8 10
-16 -19 -11 -20 -25 -3 -61 8 -19 18 -26 30 -23 25 6 87 -15 87 -31 0 -12 -16
-17 -49 -15 -40 2 -183 -28 -196 -42 -31 -30 -16 -34 103 -30 64 2 112 2 105
-2 -8 -3 -10 -23 -6 -60 5 -44 3 -54 -10 -54 -8 0 -17 7 -21 15 -3 8 -1 15 4
15 6 0 10 7 10 15 0 8 -7 15 -15 15 -8 0 -15 -7 -15 -15 0 -8 -11 -17 -25 -21
-39 -10 -31 -34 10 -34 19 0 35 -4 35 -10 0 -5 -4 -10 -10 -10 -5 0 -10 -7
-10 -15 0 -18 -52 -33 -58 -17 -6 19 -32 14 -32 -7 0 -21 14 -26 103 -36 31
-4 57 -11 57 -16 0 -5 9 -9 20 -9 14 0 20 -7 20 -23 0 -28 26 -67 46 -67 8 0
14 4 14 10 0 5 16 2 35 -7 38 -18 47 -43 15 -43 -11 0 -20 5 -20 10 0 6 -7 10
-15 10 -8 0 -15 -7 -15 -15 0 -8 7 -15 15 -15 16 0 19 -9 9 -34 -8 -20 -24
-21 -24 -2 0 10 -13 14 -47 13 -28 -1 -62 5 -82 16 -19 9 -40 17 -48 17 -7 0
-13 4 -13 9 0 15 -169 47 -262 50 -30 1 -35 4 -31 20 4 15 -1 20 -24 23 -22 2
-27 8 -25 23 2 11 12 27 23 37 25 21 25 48 -1 48 -11 0 -20 4 -20 8 0 4 9 14
20 22 21 15 27 40 9 40 -12 0 -39 -25 -39 -37 0 -27 -99 -51 -140 -34 -24 9
-24 10 -2 10 21 1 33 31 12 31 -5 0 -10 9 -10 20 0 11 7 20 15 20 8 0 15 5 15
10 0 6 7 10 15 10 9 0 28 6 43 14 15 7 51 17 81 21 52 7 54 6 38 -10 -9 -9
-17 -23 -17 -31 0 -23 29 -16 35 9 4 13 17 31 31 41 29 22 31 46 5 46 -21 0
-104 -16 -160 -30 -40 -11 -44 -9 -35 14 4 10 17 16 35 16 19 0 29 5 29 15 0
20 -49 20 -97 0 -20 -8 -38 -14 -40 -12 -8 8 10 37 23 37 8 0 14 9 14 19 0 17
56 71 73 71 17 0 127 74 127 86 0 20 -21 17 -71 -11 -24 -14 -51 -27 -59 -31
-8 -3 -23 -10 -32 -15 -10 -5 -27 -13 -38 -19 -11 -5 -29 -14 -40 -20 -11 -5
-58 -10 -105 -10 -50 0 -85 4 -85 10 0 6 9 10 21 10 35 0 65 43 37 52 -7 3
-11 19 -10 41 2 33 0 37 -21 37 -14 0 -37 -10 -53 -22 -35 -28 -94 -32 -94 -6
0 10 10 20 25 24 15 4 28 16 31 29 7 28 28 39 67 36 23 -2 28 1 25 16 -3 14
-14 19 -53 20 -70 4 -95 11 -95 28 0 14 48 65 62 65 4 0 20 12 35 26 15 15 46
35 68 46 22 10 54 27 71 38 33 19 108 30 120 17 4 -4 2 -7 -4 -7 -7 0 -12 -7
-12 -16 0 -14 8 -16 53 -11 29 4 57 13 63 22 7 9 27 15 53 15 22 0 41 4 41 8
0 5 26 4 58 -2 34 -7 48 -12 34 -14z m284 8 c18 0 19 -62 2 -90 -7 -10 -9 -22
-5 -26 11 -11 57 14 57 31 0 8 4 15 10 15 6 0 8 20 5 48 -3 26 -3 41 1 35 3
-7 21 -13 41 -13 30 0 34 -3 29 -20 -3 -11 -8 -29 -11 -39 -3 -11 0 -34 7 -53
20 -50 12 -97 -18 -104 -13 -3 -24 -12 -24 -19 0 -17 33 -25 76 -18 19 3 34 1
34 -4 0 -10 43 -33 62 -33 6 0 8 9 5 20 -5 20 -2 20 79 15 46 -3 84 -2 84 2 0
5 24 6 53 3 48 -5 52 -7 55 -32 3 -28 32 -41 32 -15 0 9 9 12 28 9 22 -3 30
-11 40 -43 16 -53 15 -67 -7 -78 -18 -10 -19 -7 -15 49 3 47 1 60 -10 60 -16
0 -29 -41 -20 -64 3 -9 1 -16 -5 -16 -6 0 -11 11 -11 25 0 18 -5 25 -20 25
-11 0 -20 -7 -20 -15 0 -8 -3 -15 -7 -15 -12 0 -43 33 -43 47 0 7 -4 13 -10
13 -5 0 -10 7 -10 15 0 8 -7 15 -16 15 -12 0 -15 -6 -10 -25 4 -14 2 -25 -4
-25 -5 0 -10 -7 -10 -16 0 -11 6 -15 20 -11 16 4 20 0 20 -19 0 -13 9 -28 21
-35 17 -9 20 -17 15 -44 -4 -18 -2 -35 3 -37 5 -1 7 -16 4 -31 l-5 -28 -14 27
c-8 14 -14 34 -14 43 -1 24 -25 51 -45 51 -13 0 -16 -5 -11 -25 4 -14 2 -25
-4 -25 -5 0 -10 5 -10 10 0 6 -7 10 -15 10 -18 0 -18 -2 0 80 18 82 18 80 -1
80 -8 0 -22 -16 -30 -35 -11 -26 -20 -35 -38 -35 -43 0 -56 10 -50 36 5 21 3
23 -22 22 -16 0 -40 3 -53 7 -22 8 -23 6 -17 -21 9 -34 20 -47 61 -68 28 -15
28 -16 7 -16 -17 0 -22 -5 -20 -17 3 -13 12 -17 32 -16 18 1 26 -1 20 -7 -17
-17 -118 -37 -170 -35 -46 3 -68 10 -114 37 -8 5 -27 14 -42 21 -16 6 -28 15
-28 20 0 4 -11 19 -25 33 -36 36 -33 67 6 57 12 -3 19 -14 19 -28 0 -17 7 -24
28 -28 15 -3 40 -17 55 -31 16 -14 32 -26 38 -26 5 0 9 -7 9 -16 0 -12 6 -15
23 -10 12 3 43 6 70 6 39 0 47 3 47 19 0 14 -10 20 -39 25 -22 3 -46 3 -55 0
-10 -4 -18 1 -23 12 -4 11 -29 40 -55 65 -60 58 -61 71 -6 67 33 -2 43 1 46
13 2 13 -8 18 -46 23 -57 7 -66 13 -47 32 9 9 24 12 40 8 21 -5 25 -3 25 14 0
24 -53 40 -74 23 -11 -9 -15 -6 -18 12 -3 13 -1 32 3 43 4 10 8 32 8 47 1 28
23 63 29 46 2 -5 10 -9 18 -9z m568 -115 c14 -13 26 -28 26 -34 0 -5 4 -11 9
-13 13 -5 24 -48 12 -48 -5 0 -30 14 -54 30 -71 47 -122 34 -60 -16 l27 -22
-49 4 c-27 2 -52 -1 -55 -6 -7 -11 -50 20 -50 35 0 5 -7 16 -16 26 -24 26 -8
40 44 37 26 -1 58 1 72 6 19 5 31 2 47 -14 26 -24 43 -26 43 -5 0 8 -4 15 -9
15 -5 0 -11 7 -15 15 -7 20 -3 19 28 -10z m986 -234 c0 -8 7 -11 20 -8 13 3
20 0 20 -8 0 -8 8 -16 18 -20 29 -10 70 -79 65 -109 -5 -26 -26 -35 -38 -16
-3 6 -1 10 4 10 6 0 11 7 11 16 0 12 -6 15 -24 10 -21 -5 -38 1 -108 40 -19
11 -18 12 11 19 18 4 31 13 31 22 0 12 -6 14 -27 8 -15 -3 -30 -10 -33 -15 -3
-5 -20 -2 -38 7 -26 12 -30 18 -21 29 6 8 22 14 35 14 13 0 24 3 24 8 0 4 11
7 25 7 14 0 25 -6 25 -14z m-1210 -141 c0 -13 7 -20 19 -20 11 0 29 -13 41
-30 12 -16 17 -30 11 -30 -6 0 -11 -7 -11 -15 0 -8 7 -15 15 -15 8 0 15 8 15
17 0 9 3 14 6 10 10 -9 -7 -67 -19 -67 -13 0 -77 -66 -77 -79 0 -5 -18 -11
-39 -15 -22 -3 -46 -13 -55 -21 -8 -8 -19 -15 -25 -15 -6 0 -12 -6 -12 -12 -1
-7 -4 3 -8 22 -4 22 -2 40 6 48 7 7 13 19 13 25 0 7 7 4 14 -5 21 -29 39 -22
34 12 -4 26 -1 30 18 30 12 0 24 -7 28 -15 6 -15 41 -21 49 -7 3 4 8 25 11 48
7 39 6 42 -23 53 -33 14 -83 7 -105 -15 -15 -15 -46 -9 -46 9 0 6 -7 18 -16
28 -15 17 -14 18 12 24 16 3 52 17 79 30 61 30 65 30 65 5z m-250 -30 c14 0
64 -52 84 -85 16 -28 16 -33 2 -65 l-16 -35 6 43 c5 34 4 42 -9 42 -11 0 -20
-20 -31 -67 -18 -79 -7 -145 31 -189 33 -39 31 -57 -4 -42 -48 21 -69 37 -84
65 -8 15 -22 35 -31 45 -10 10 -18 25 -18 33 0 8 -6 15 -14 15 -7 0 -16 11
-18 25 -4 17 -1 25 8 25 8 0 14 7 14 15 0 8 -7 15 -16 15 -12 0 -14 7 -9 30 4
19 3 30 -4 30 -10 0 5 23 40 60 8 9 19 25 22 34 5 11 13 16 23 12 9 -3 20 -6
24 -6z m1303 -41 c40 -21 48 -44 18 -52 -12 -3 -26 5 -42 24 -26 31 -49 38
-49 14 0 -8 4 -15 8 -15 4 0 16 -13 25 -29 l17 -30 -77 5 c-46 2 -80 9 -85 17
-6 9 -12 9 -28 -1 -18 -11 -20 -10 -20 15 0 27 20 72 20 46 0 -7 7 -13 15 -13
8 0 15 7 15 15 0 8 7 15 15 15 8 0 15 5 15 11 0 16 108 0 153 -22z m-2543 -40
c0 -5 9 -9 20 -9 11 0 20 -4 20 -10 0 -5 7 -10 15 -10 8 0 15 5 15 11 0 6 6
17 14 25 13 12 17 12 30 -1 20 -20 36 -19 37 3 1 9 6 -1 12 -23 7 -29 7 -40
-2 -43 -7 -2 -9 -16 -5 -37 3 -19 1 -57 -5 -86 -8 -34 -8 -55 -2 -59 6 -3 7
-11 3 -17 -5 -7 -13 -2 -25 13 -10 13 -13 24 -7 24 5 0 10 7 10 15 0 9 -9 15
-25 15 -15 0 -25 6 -25 14 0 8 -10 16 -22 20 -24 6 -48 46 -48 79 0 14 -5 18
-18 15 -12 -3 -24 2 -31 13 -9 16 -8 19 9 19 11 0 20 7 20 15 0 8 -4 15 -10
15 -5 0 -10 4 -10 10 0 5 7 7 15 4 8 -4 15 -10 15 -15z m257 8 c14 -23 86 -50
143 -54 78 -6 83 -8 70 -34 -15 -27 -69 -50 -92 -38 -29 15 -39 10 -36 -17 2
-22 13 -30 68 -52 36 -14 68 -30 72 -35 3 -6 35 -8 77 -4 43 3 73 2 77 -4 8
-14 -25 -49 -48 -49 -10 0 -21 -7 -24 -15 -5 -11 -17 -15 -42 -13 -29 2 -37
-1 -40 -16 -2 -10 3 -23 12 -28 22 -12 20 -22 -9 -54 -14 -15 -25 -32 -25 -38
-1 -22 -68 -86 -90 -86 -18 0 -21 -4 -16 -23 5 -23 -21 -57 -44 -57 -6 0 -10
-6 -10 -13 0 -8 -9 -22 -20 -32 -11 -10 -20 -13 -20 -7 0 7 -8 12 -17 13 -11
0 -13 3 -5 6 17 7 15 33 -3 33 -18 0 -19 7 -2 25 51 54 56 69 30 84 -17 10
-17 10 0 11 9 0 17 6 17 13 0 9 2 9 9 -1 11 -17 61 -5 61 15 0 11 -7 13 -23 9
-16 -4 -27 1 -38 15 -7 12 -29 37 -46 57 -31 34 -45 82 -23 82 6 0 10 7 10 15
0 8 -4 15 -10 15 -11 0 -14 207 -4 259 7 32 27 41 41 18z m1493 -67 c0 -5 11
-10 24 -10 15 0 34 -12 50 -31 29 -34 34 -69 11 -69 -8 0 -15 -7 -15 -15 0 -8
4 -15 9 -15 11 0 -12 -49 -45 -99 l-22 -33 1 51 c1 31 8 55 16 60 8 5 11 16 6
30 -7 24 -35 29 -35 6 0 -9 -9 -15 -25 -15 -15 0 -25 6 -25 15 0 8 -14 17 -35
21 -42 8 -65 0 -65 -22 0 -13 7 -16 33 -11 42 7 70 -8 33 -17 -28 -7 -36 -36
-11 -36 8 0 15 -4 15 -10 0 -5 7 -10 15 -10 9 0 15 9 15 21 0 19 1 19 16 4 22
-22 11 -59 -31 -104 -55 -58 -46 -73 28 -47 33 12 39 12 44 -1 3 -8 1 -19 -6
-26 -6 -6 -11 -19 -11 -28 0 -9 -8 -20 -17 -23 -16 -6 -22 -1 -43 35 -5 9 -29
21 -53 28 -31 7 -46 17 -50 31 -3 11 -2 20 3 20 4 0 10 -9 13 -20 6 -23 37
-27 37 -5 0 9 -7 18 -15 21 -8 4 -15 15 -15 25 0 10 -4 19 -10 19 -18 0 -11
20 16 46 29 30 28 58 -3 62 -14 2 -26 -4 -33 -18 -9 -17 -14 -19 -26 -9 -34
28 -1 104 59 136 18 10 34 17 37 16 3 0 21 -3 41 -7 33 -6 37 -4 43 19 6 24
26 36 26 15z m838 -33 c6 3 12 0 12 -6 0 -6 7 -11 15 -11 8 0 15 5 15 10 0 6
14 10 30 10 36 0 38 -10 5 -42 -19 -19 -33 -24 -62 -22 -21 2 -62 3 -90 3 -40
1 -53 5 -53 16 0 22 -40 19 -41 -2 -1 -17 -2 -17 -6 -1 -2 9 -13 20 -23 23
-10 3 -20 11 -23 18 -3 9 21 11 102 6 58 -3 112 -4 119 -2z m-158 -107 c0 -5
-4 -10 -10 -10 -5 0 -10 -9 -10 -19 0 -14 8 -21 28 -23 23 -3 27 -8 30 -40 2
-29 8 -37 28 -42 31 -8 31 -32 -1 -38 -17 -4 -25 -1 -25 8 0 8 -9 14 -20 14
-20 0 -29 -25 -11 -32 13 -5 -5 -120 -21 -129 -7 -5 -23 -6 -36 -2 -25 6 -83
-14 -94 -33 -5 -7 -17 -10 -28 -7 -14 4 -20 0 -20 -11 0 -9 6 -16 13 -16 6 0
12 -10 12 -22 1 -13 4 -36 8 -51 l8 -28 -38 20 c-35 18 -72 49 -98 83 -53 68
-54 69 -44 94 5 14 9 41 9 60 0 24 5 34 15 34 17 0 20 27 4 32 -9 3 -9 9 0 25
9 18 17 66 20 118 1 13 131 19 131 5 0 -5 7 -10 15 -10 8 0 15 4 15 9 0 12 24
18 78 20 23 0 42 -3 42 -9z m-2340 -60 c0 -11 5 -20 10 -20 6 0 10 -9 10 -20
0 -11 7 -20 15 -20 23 0 37 -35 25 -66 -6 -15 -8 -35 -5 -45 5 -14 1 -19 -13
-19 -15 0 -19 5 -15 21 5 17 2 20 -18 17 -21 -3 -24 1 -21 25 4 35 -23 37 -32
3 -10 -40 9 -72 57 -95 49 -24 59 -38 50 -69 -11 -43 -113 -29 -113 15 0 12
-5 23 -11 23 -7 0 -9 9 -5 23 18 65 18 64 -6 71 -15 4 -19 9 -11 14 6 4 15 20
18 35 5 19 14 27 29 27 33 0 49 15 41 39 -3 11 -11 21 -16 21 -5 0 -9 9 -9 20
0 11 5 20 10 20 6 0 10 -9 10 -20z m1893 -46 c-3 -8 -9 -14 -14 -14 -13 0 -11
-28 2 -32 6 -2 13 -26 14 -53 1 -28 3 -57 4 -67 0 -9 13 -21 29 -26 15 -6 21
-11 14 -11 -9 -1 -10 -12 -6 -41 4 -22 3 -40 0 -40 -22 0 -50 26 -63 58 -20
47 -43 189 -36 223 4 21 9 25 33 21 19 -3 27 -9 23 -18z m1087 -25 c0 -11 -4
-19 -10 -19 -5 0 -10 -9 -10 -20 0 -11 4 -20 9 -20 5 0 11 -22 15 -49 4 -28
13 -62 21 -78 8 -15 15 -36 15 -45 0 -9 4 -19 9 -22 5 -3 7 -15 4 -26 -3 -11
0 -20 6 -20 6 0 11 -8 11 -17 0 -9 14 -28 31 -42 27 -23 29 -29 20 -53 -6 -16
-17 -28 -26 -28 -19 0 -20 26 0 34 22 8 18 34 -7 47 -13 7 -26 16 -29 22 -13
18 -39 -2 -40 -30 0 -15 -3 -22 -6 -15 -2 6 -11 12 -18 12 -9 0 -15 27 -20 95
-4 51 -4 99 -1 104 4 6 4 22 0 36 -8 32 -39 30 -38 -3 0 -12 -5 -22 -12 -22
-11 0 -24 -21 -24 -41 0 -5 8 -9 18 -9 13 0 17 -8 16 -37 -1 -20 -6 -39 -13
-41 -17 -6 -13 -32 5 -32 11 0 14 -5 10 -16 -3 -9 -6 -37 -6 -62 -1 -44 -1
-46 -16 -27 -9 11 -27 45 -40 75 -29 63 -26 84 17 165 16 31 33 72 38 93 6 23
9 29 10 15 1 -13 7 -23 16 -23 12 0 15 15 15 71 0 62 2 70 15 59 8 -7 15 -21
15 -31z m-1600 -41 c0 -54 -10 -67 -46 -61 -38 6 -47 -11 -17 -32 14 -11 15
-16 4 -44 -15 -34 -23 -38 -43 -18 -17 17 -87 57 -99 57 -5 0 -9 -9 -9 -20 0
-11 6 -20 14 -20 7 0 19 -7 26 -15 7 -8 21 -15 31 -15 12 0 19 -7 19 -20 0
-13 7 -20 20 -20 15 0 20 -6 19 -27 -1 -17 -3 -21 -6 -10 -6 23 -30 22 -38 -2
-6 -20 24 -61 44 -61 11 0 26 -59 17 -67 -3 -3 -30 15 -60 41 -30 25 -60 46
-66 46 -7 0 -21 11 -32 25 -11 14 -26 25 -34 25 -28 0 -62 30 -57 49 3 13 -2
21 -18 26 -14 5 -25 3 -27 -4 -5 -16 -27 -14 -79 10 -25 11 -73 26 -107 33
-50 10 -62 17 -64 34 -2 12 -10 22 -19 22 -11 0 -14 -7 -11 -25 3 -13 1 -22
-3 -19 -5 3 -9 12 -9 20 0 8 -7 14 -15 14 -8 0 -15 -5 -15 -10 0 -7 -6 -7 -20
0 -24 13 -27 40 -4 40 9 0 14 8 13 18 -4 42 -1 44 54 37 72 -9 87 -14 87 -31
0 -8 7 -14 15 -14 8 0 15 5 15 10 0 18 42 11 47 -8 3 -14 15 -18 52 -19 47 -1
111 -22 69 -23 -10 0 -18 -7 -18 -15 0 -10 8 -15 23 -13 12 1 41 -1 64 -6 35
-6 45 -4 62 13 12 12 21 23 21 26 0 3 16 22 35 41 24 24 41 33 53 29 10 -3 36
1 58 9 53 20 54 19 54 -6z m-765 -11 c-8 -13 -26 -30 -40 -37 -14 -7 -25 -21
-25 -31 0 -19 11 -24 77 -34 24 -4 47 -13 51 -21 6 -11 45 -20 107 -23 21 -2
-42 -47 -82 -60 -49 -16 -62 -48 -15 -36 l27 7 -27 -29 c-44 -46 -38 -63 21
-63 28 0 53 -5 56 -10 4 -6 26 -8 56 -4 27 4 49 4 49 2 0 -3 -13 -21 -30 -39
-16 -19 -30 -40 -30 -46 0 -7 -4 -13 -10 -13 -5 0 -10 -6 -10 -14 0 -25 -27
-25 -40 0 -8 13 -19 24 -27 24 -15 0 -18 -31 -4 -46 15 -14 -94 -16 -161 -2
-37 7 -58 16 -58 24 0 8 -7 14 -15 14 -8 0 -15 -7 -15 -15 0 -11 -11 -15 -40
-15 -27 0 -43 5 -46 15 -6 15 -44 22 -44 8 0 -5 -11 -8 -24 -8 -13 0 -22 3
-19 8 2 4 11 7 19 7 8 0 14 5 14 10 0 6 6 10 13 10 8 0 29 8 47 17 24 12 35
13 38 5 7 -22 33 -13 30 9 -2 17 8 27 48 48 78 40 106 51 131 51 44 0 24 46
-25 56 -25 5 -32 3 -32 -9 0 -16 -59 -40 -160 -63 -36 -8 -73 -19 -82 -24 -10
-6 -27 -10 -39 -10 -11 0 -29 -5 -39 -10 -18 -10 -18 -7 3 37 33 71 36 74 63
67 29 -7 34 19 7 35 -15 8 -15 13 -4 37 7 16 21 34 32 42 11 7 28 30 38 50 30
59 63 92 86 87 11 -3 43 -1 70 4 78 14 77 14 60 -12z m838 -24 c-7 -2 -13 -11
-13 -19 0 -10 13 -14 46 -14 50 0 70 -15 101 -74 12 -24 13 -30 1 -37 -18 -12
-21 -11 -44 6 -10 8 -27 15 -36 15 -19 0 -25 -25 -8 -35 6 -3 10 -10 10 -15 0
-11 -32 -1 -41 13 -10 14 -51 1 -77 -23 -16 -15 -22 -32 -22 -62 0 -55 -8 -44
-20 27 -11 65 -6 79 46 138 20 21 34 48 34 62 0 17 5 25 18 24 10 0 12 -3 5
-6z m1052 -54 c-7 -31 -7 -31 27 -27 47 5 88 -36 75 -75 -5 -15 -15 -27 -23
-27 -8 0 -14 -6 -14 -12 0 -25 -126 -88 -176 -88 -19 0 -34 -4 -34 -10 0 -5
-7 -7 -15 -4 -20 8 -19 24 2 39 21 15 24 92 5 104 -26 16 21 81 58 81 12 0 33
11 48 25 38 35 55 33 47 -6z m-1445 -169 c8 -11 22 -20 32 -20 30 0 65 -21
118 -71 29 -27 58 -49 65 -49 8 0 16 -8 19 -17 25 -91 13 -116 -35 -73 -19 16
-42 32 -51 36 -10 3 -18 12 -18 20 0 8 -8 14 -17 14 -10 0 -36 11 -58 25 -22
13 -46 25 -53 25 -7 0 -20 7 -28 15 -9 8 -24 15 -34 15 -28 0 -31 13 -13 53
15 31 24 39 53 46 3 0 12 -8 20 -19z m396 -89 c5 -5 20 -11 33 -13 31 -4 37
-21 16 -42 -14 -13 -15 -22 -6 -47 9 -26 9 -29 -3 -20 -15 13 -66 5 -66 -10 0
-13 -28 -11 -32 3 -2 6 -12 9 -21 5 -21 -8 -22 -46 -1 -61 10 -8 14 -23 12
-46 l-3 -34 -18 28 c-32 49 -22 173 18 212 13 14 15 14 15 0 0 -9 7 -16 15
-16 8 0 15 7 15 15 0 8 -6 15 -12 15 -9 0 -8 4 2 10 19 12 24 12 36 1z m-369
-77 c48 -26 90 -50 91 -55 2 -5 10 -9 17 -9 8 0 11 -7 8 -20 -4 -14 0 -20 10
-20 14 0 92 -72 122 -112 38 -51 43 -98 10 -98 -8 0 -15 -8 -16 -17 0 -11 -3
-13 -6 -5 -2 6 -11 12 -19 12 -8 0 -14 6 -14 13 0 7 -9 18 -20 25 -15 9 -20
23 -20 57 0 38 -3 45 -19 45 -13 0 -21 -8 -23 -22 -3 -22 -3 -22 -32 5 -33 31
-56 35 -56 9 0 -22 50 -69 83 -77 14 -4 27 -16 30 -27 3 -11 15 -22 26 -25 12
-3 21 -10 21 -15 0 -5 9 -21 20 -35 11 -14 20 -36 20 -49 0 -18 6 -24 21 -24
23 0 49 -22 49 -42 0 -7 -9 -19 -19 -25 -16 -10 -24 -7 -55 24 -21 21 -36 46
-36 60 0 14 -6 23 -15 23 -8 0 -15 -5 -15 -12 0 -6 -8 -4 -19 6 -11 10 -17 25
-14 37 6 21 -22 28 -30 7 -3 -7 -6 -2 -6 11 -1 18 -5 22 -22 18 -12 -3 -22 0
-26 9 -3 8 -17 14 -32 14 -15 0 -36 7 -47 15 -10 8 -31 15 -45 15 -15 0 -33 8
-40 18 -11 14 -11 15 1 5 8 -7 20 -13 27 -13 17 0 17 25 -1 40 -8 6 -12 18 -9
27 3 8 0 19 -8 24 -12 8 -12 11 1 19 16 10 79 3 95 -11 14 -13 35 -11 35 4 0
7 -13 24 -30 37 -19 16 -29 35 -30 53 0 28 -23 38 -34 15 -5 -10 -7 -10 -12 0
-3 6 -12 12 -20 12 -8 0 -14 9 -14 20 0 11 -7 20 -15 20 -18 0 -18 1 -5 34 13
36 36 33 137 -20z m-207 -19 c0 -3 -7 -17 -16 -30 -24 -37 -12 -52 45 -57 28
-3 54 -8 58 -11 3 -4 -7 -17 -23 -29 -48 -38 -84 -74 -84 -86 0 -6 8 -13 19
-17 10 -3 35 -21 54 -40 20 -20 46 -35 59 -35 13 0 49 -12 80 -27 42 -21 57
-34 57 -49 1 -23 -25 -80 -40 -89 -20 -13 -7 -34 34 -53 24 -11 49 -27 56 -36
16 -19 61 -21 61 -3 0 7 -5 18 -12 25 -9 9 -8 12 5 12 9 0 17 7 17 16 0 13 -6
15 -27 9 -32 -8 -33 -8 -55 -6 -22 1 -25 41 -3 41 18 0 20 27 3 32 -7 3 -3 7
9 10 15 4 31 -2 48 -16 14 -11 39 -32 55 -46 16 -14 30 -31 30 -37 0 -15 13
-16 59 -7 17 4 31 13 31 20 0 8 5 14 10 14 6 0 10 -5 10 -11 0 -7 8 -17 17
-24 15 -11 15 -14 1 -28 -14 -15 -17 -14 -33 3 -10 11 -24 20 -32 20 -15 0
-18 -26 -3 -35 6 -3 10 -15 10 -26 0 -10 6 -19 13 -19 6 0 22 -3 35 -6 14 -4
22 -2 22 6 0 10 23 40 32 40 2 0 3 -13 3 -30 0 -17 -5 -30 -12 -30 -23 0 -14
-32 17 -62 17 -15 30 -33 30 -39 0 -7 11 -9 30 -5 29 5 30 5 30 -34 0 -54 25
-54 34 -1 5 32 11 41 37 50 40 14 39 14 39 -4 0 -8 6 -15 14 -15 14 0 46 -36
46 -52 0 -5 -7 -8 -15 -8 -9 0 -15 -9 -15 -25 0 -14 -4 -25 -10 -25 -5 0 -10
-7 -10 -15 0 -8 -4 -15 -10 -15 -5 0 -10 -7 -10 -15 0 -22 37 -18 43 5 6 24
57 29 57 5 0 -17 27 -20 49 -6 12 8 13 14 3 36 -18 38 -15 46 13 39 22 -5 25
-3 25 21 0 22 -4 26 -20 22 -13 -3 -20 0 -20 9 0 8 -7 14 -15 14 -18 0 -20
-30 -2 -31 9 0 9 -2 0 -6 -15 -6 -43 20 -43 40 0 8 -7 20 -15 27 -8 7 -15 19
-15 26 0 8 -4 14 -10 14 -17 0 -11 35 9 58 l18 22 9 -33 c12 -39 50 -54 41
-15 -18 76 -19 98 -4 98 9 0 18 -12 21 -30 3 -16 9 -43 12 -60 7 -35 34 -41
34 -7 0 22 31 57 50 57 6 0 10 5 10 10 0 6 25 10 55 10 60 0 61 -1 43 -30 -11
-17 -8 -24 22 -55 19 -19 40 -35 47 -35 12 0 33 -30 33 -47 -1 -23 -43 -56
-70 -55 -35 1 -38 -10 -10 -38 24 -24 50 -26 50 -5 0 8 11 17 25 21 14 3 25
11 25 18 0 7 3 7 8 1 11 -16 68 -45 87 -45 14 0 16 6 12 30 -6 26 -3 30 14 30
18 0 20 -2 8 -16 -10 -12 -10 -20 -1 -35 7 -11 8 -19 2 -19 -5 0 -10 -7 -10
-15 0 -8 4 -15 10 -15 11 0 30 -64 30 -105 1 -16 11 -54 24 -84 13 -30 21 -62
18 -73 -4 -17 -5 -17 -23 3 -11 12 -25 19 -34 15 -9 -3 -15 0 -15 9 0 8 -5 15
-10 15 -6 0 -2 10 10 22 24 26 26 73 5 95 -9 8 -33 17 -55 20 l-40 6 0 63 c0
48 -4 64 -14 64 -9 0 -15 -17 -18 -50 -4 -37 -11 -55 -29 -70 -13 -11 -29 -24
-36 -30 -7 -5 -17 -10 -23 -10 -17 0 -38 -25 -46 -54 -5 -20 -2 -26 10 -26 9
0 16 7 16 15 0 9 12 21 28 28 15 6 32 18 37 25 9 11 16 11 37 2 17 -8 32 -9
42 -3 28 16 76 4 76 -19 0 -15 -5 -18 -21 -13 -14 5 -25 1 -35 -12 -11 -13
-17 -14 -20 -5 -8 17 -34 15 -34 -3 0 -8 7 -15 15 -15 8 0 15 -4 15 -10 0 -5
-9 -10 -19 -10 -22 0 -34 -25 -26 -51 7 -21 31 -25 38 -6 2 6 4 -3 3 -20 -1
-18 -4 -33 -8 -33 -5 0 -8 4 -8 9 0 5 -9 11 -20 14 -11 3 -20 12 -20 21 0 9
-6 16 -12 16 -10 0 -10 2 -1 8 6 4 15 20 18 35 5 20 4 27 -8 27 -8 0 -17 -9
-20 -19 -3 -14 -11 -18 -26 -14 -18 5 -21 1 -21 -26 0 -24 5 -32 25 -37 32 -8
32 -24 1 -24 -13 0 -31 -3 -40 -6 -12 -4 -16 0 -16 15 0 28 -28 27 -40 -1 -7
-18 -9 -19 -9 -5 -1 20 -31 24 -31 3 0 -8 -15 -17 -35 -20 -26 -5 -35 -12 -35
-26 0 -29 -23 -24 -42 9 -18 32 -15 41 14 41 10 0 18 7 18 15 0 9 -10 15 -26
15 -17 0 -28 6 -31 20 -3 11 -10 20 -15 20 -12 0 -42 30 -36 36 11 10 58 -16
58 -32 0 -12 6 -15 23 -10 12 3 34 6 50 6 18 0 27 5 27 16 0 13 -8 15 -40 12
-26 -2 -40 1 -40 8 0 7 -12 15 -27 19 -15 3 -31 11 -34 17 -9 14 -49 0 -49
-18 0 -23 -26 -44 -54 -44 -19 0 -26 5 -26 20 0 11 -7 20 -15 20 -9 0 -15 -9
-15 -21 0 -14 -5 -19 -17 -17 -12 2 -17 11 -15 27 6 41 -31 21 -44 -24 -7 -25
-17 -41 -28 -41 -12 -2 -13 -1 -1 3 24 7 19 36 -5 30 -12 -3 -20 0 -20 8 0 8
8 11 20 8 14 -4 20 0 20 11 0 9 -4 16 -10 16 -5 0 -10 7 -10 15 0 9 9 15 25
15 14 0 25 4 25 9 0 18 -12 41 -22 41 -13 0 -38 -26 -38 -39 0 -6 -4 -11 -10
-11 -5 0 -10 -9 -10 -20 0 -24 -13 -26 -34 -5 -8 8 -19 15 -25 15 -6 0 -11 5
-11 10 0 6 -9 10 -20 10 -22 0 -25 -16 -10 -54 9 -25 8 -26 -18 -20 -15 4 -32
13 -38 20 -6 8 -16 14 -23 14 -21 0 -11 19 11 22 13 2 24 11 26 20 3 14 -3 18
-28 18 -18 0 -33 -6 -36 -15 -9 -22 -19 -18 -32 10 -14 31 -30 32 -62 2 -27
-24 -60 -25 -60 -1 0 18 -24 18 -43 0 -8 -8 -31 -18 -51 -21 -29 -6 -36 -4
-36 8 0 8 -3 24 -6 34 -4 13 -3 15 4 4 8 -11 16 -11 48 -1 72 23 84 30 84 45
0 9 11 20 25 25 15 6 25 17 25 30 0 11 5 20 10 20 6 0 10 7 10 15 0 8 5 15 10
15 6 0 10 7 10 15 0 8 -7 15 -15 15 -8 0 -15 -7 -15 -15 0 -8 -4 -15 -9 -15
-5 0 -12 -8 -14 -17 -3 -11 -5 -7 -6 10 -1 28 -31 40 -31 13 0 -8 -6 -16 -12
-19 -10 -3 -10 -9 0 -26 7 -12 8 -21 2 -21 -5 0 -10 5 -10 11 0 6 -9 9 -19 6
-11 -3 -22 1 -25 9 -3 8 0 11 11 7 15 -6 33 12 33 35 0 6 -9 12 -21 12 -18 0
-20 4 -14 30 6 27 4 30 -20 30 -24 0 -26 -3 -20 -30 7 -34 1 -38 -23 -14 -10
11 -15 29 -13 50 3 36 0 38 -36 28 -22 -6 -33 -34 -14 -34 5 0 12 -13 16 -29
3 -16 15 -39 26 -52 10 -12 19 -27 19 -33 0 -6 -7 -3 -14 7 -18 23 -40 22 -33
-2 3 -15 0 -17 -17 -13 -11 3 -15 7 -8 10 18 6 15 52 -3 52 -8 0 -16 -8 -16
-17 -1 -17 -2 -17 -6 -1 -6 25 -28 22 -41 -5 l-11 -22 0 23 c-1 23 -16 28 -40
13 -11 -7 -11 -15 -3 -40 14 -40 7 -60 -19 -54 -13 4 -19 0 -19 -11 0 -9 8
-16 18 -16 16 -1 16 -1 0 -11 -21 -12 -24 -35 -5 -42 7 -3 5 -6 -5 -6 -18 -1
-23 14 -19 56 1 15 -5 22 -20 25 -29 4 -37 28 -10 28 12 0 21 4 21 9 0 5 9 7
20 4 29 -8 26 23 -2 31 l-23 7 23 9 c24 10 31 40 8 40 -9 0 -12 8 -8 25 4 24
22 36 22 15 0 -5 9 -10 19 -10 17 0 31 18 31 41 0 14 -27 11 -34 -3 -5 -10 -7
-10 -12 0 -3 6 -12 12 -19 12 -7 0 -16 -6 -18 -12 -3 -8 -6 -6 -6 5 -1 9 4 17
9 17 6 0 10 6 10 14 0 16 -96 28 -121 15 -11 -6 -21 -4 -29 6 -10 12 -9 15 9
15 11 0 21 5 21 11 0 7 12 9 35 5 27 -5 35 -4 35 8 0 9 -13 18 -35 22 -35 6
-49 24 -20 24 8 0 15 7 15 15 0 8 -7 15 -15 15 -8 0 -15 -4 -15 -10 0 -5 -7
-10 -15 -10 -8 0 -15 -8 -16 -17 0 -11 -3 -13 -6 -5 -7 17 -33 15 -33 -3 0 -8
7 -15 15 -15 8 0 15 -7 15 -15 0 -8 -4 -15 -9 -15 -5 0 -11 7 -15 15 -10 28
-42 17 -54 -17 -5 -18 -10 -25 -11 -16 -1 9 -9 19 -18 21 -14 4 -12 5 5 6 26
1 27 11 6 53 -9 18 -12 33 -6 37 5 3 12 13 15 21 4 12 6 11 6 -2 1 -23 19 -23
40 1 9 10 26 21 39 25 30 10 29 36 -3 36 -16 0 -25 -6 -25 -15 0 -8 -6 -15
-14 -15 -8 0 -16 -6 -19 -12 -3 -7 -8 6 -12 29 -4 24 -14 44 -24 48 -14 6 -14
8 2 20 10 7 27 11 37 8 11 -3 20 -1 20 5 0 12 36 22 47 12 4 -3 31 -15 58 -24
28 -10 57 -27 67 -37 18 -21 58 -26 58 -6 -1 19 -50 61 -115 97 -75 41 -71 38
-57 52 9 9 12 8 12 -5 0 -9 7 -17 15 -17 18 0 20 38 3 75 -14 31 -25 31 -52 2
-29 -31 -52 -39 -66 -22 -6 7 -22 16 -35 19 -34 9 -94 49 -95 64 0 6 -9 12
-19 12 -22 0 -39 39 -22 49 6 4 41 6 77 4 36 -2 71 0 77 5 7 6 44 13 83 17 68
6 71 6 77 -15 8 -32 -1 -49 -25 -42 -18 4 -20 2 -15 -19 4 -13 7 -30 7 -38 0
-8 7 -11 20 -8 16 4 20 0 20 -18 0 -15 7 -26 20 -30 12 -4 22 -19 26 -39 5
-27 12 -35 35 -40 27 -5 42 -26 19 -26 -5 0 -10 -7 -10 -15 0 -8 7 -15 15 -15
8 0 15 7 15 15 0 8 5 15 10 15 6 0 10 9 10 20 0 11 -4 20 -10 20 -5 0 -10 6
-10 14 0 8 -8 21 -19 28 -10 7 -22 32 -26 56 -4 26 -12 42 -21 42 -12 0 -15 8
-14 38 1 4 10 5 22 4 16 -3 20 0 16 16 -7 26 9 52 32 52 13 0 20 7 20 19 0 11
10 31 23 45 21 24 37 33 37 21z m1897 -84 c51 -1 61 -4 57 -16 -3 -8 -21 -17
-39 -21 -19 -3 -42 -17 -52 -30 -11 -15 -28 -24 -45 -24 -17 0 -31 -8 -38 -21
-11 -20 -12 -20 -25 -2 -8 10 -9 20 -4 21 5 2 9 11 9 19 0 11 -6 14 -21 10
-20 -5 -50 6 -75 28 -8 8 -8 14 2 23 18 16 34 15 34 -3 0 -8 7 -15 15 -15 8 0
15 -4 15 -10 0 -5 7 -10 15 -10 8 0 15 9 15 20 0 11 -7 20 -16 20 -8 0 -13 3
-11 8 3 4 27 6 54 5 26 0 76 -1 110 -2z m-1297 -16 c0 -11 11 -15 40 -15 28 0
40 -4 40 -14 0 -8 -5 -18 -11 -22 -6 -3 -8 -17 -5 -30 5 -19 2 -24 -14 -24
-22 0 -29 -35 -7 -43 6 -3 1 -6 -13 -6 -28 -1 -70 -40 -70 -64 0 -24 -11 -47
-22 -47 -14 0 -2 124 12 128 19 7 10 30 -15 36 -14 4 -25 10 -25 15 0 5 10 7
22 3 20 -5 21 -2 15 37 -5 37 -2 43 16 51 32 13 37 12 37 -5z m62 -224 c-3
-20 0 -23 16 -19 14 4 22 0 25 -14 5 -18 2 -19 -34 -13 -31 5 -39 4 -39 -8 0
-8 13 -17 29 -20 24 -5 28 -10 24 -27 -4 -16 -1 -20 20 -20 30 0 45 -17 23
-26 -20 -8 -21 -53 -2 -60 28 -11 5 -34 -35 -34 -59 0 -89 33 -89 99 0 28 5
51 10 51 6 0 10 7 10 15 0 8 -6 15 -14 15 -9 0 -13 10 -10 33 1 17 3 38 3 45
1 9 12 12 34 10 27 -3 32 -6 29 -27z m1601 -141 c9 -22 17 -44 17 -49 0 -5 4
-11 9 -13 4 -1 27 -42 49 -89 23 -47 48 -91 56 -98 8 -7 18 -26 21 -42 4 -16
17 -37 29 -46 28 -23 39 -50 22 -56 -10 -4 -12 1 -9 14 4 13 0 19 -11 19 -9 0
-16 -3 -16 -7 0 -5 -3 -18 -6 -30 -5 -17 0 -22 24 -28 31 -6 31 -6 12 -28 -11
-12 -26 -31 -34 -42 -14 -18 -15 -18 -16 -2 0 21 -30 23 -30 2 0 -8 5 -15 10
-15 19 0 10 -17 -16 -29 -19 -8 -25 -17 -21 -31 3 -13 0 -20 -9 -20 -8 0 -14
-10 -14 -24 0 -14 -4 -27 -9 -30 -5 -4 -7 3 -4 14 6 21 1 23 -35 14 -19 -6
-22 -11 -17 -33 4 -14 12 -29 18 -33 9 -6 9 -8 0 -8 -22 0 -43 12 -43 26 0 8
-9 14 -20 14 -11 0 -20 -7 -20 -15 0 -8 6 -15 14 -15 7 0 16 -10 20 -22 9 -34
7 -50 -4 -43 -5 3 -10 15 -10 26 0 10 -7 19 -15 19 -22 0 -20 -56 3 -70 12 -8
13 -13 5 -16 -7 -3 -13 -11 -13 -18 0 -7 -15 -28 -33 -47 -19 -19 -36 -40 -38
-46 -2 -6 -14 -14 -26 -17 -17 -6 -23 -3 -23 8 0 9 9 16 20 16 11 0 20 7 20
15 0 8 -9 15 -20 15 -16 0 -20 7 -21 33 0 17 -1 56 -2 85 -1 28 2 52 7 52 4 0
6 9 3 20 -3 13 0 20 9 20 8 0 14 -10 14 -25 0 -18 5 -25 20 -25 32 0 24 50
-10 63 -12 4 -11 6 3 6 21 1 23 31 2 31 -8 0 -15 5 -15 11 0 6 -8 9 -17 7 -16
-4 -18 5 -16 101 2 165 0 153 26 145 12 -3 24 -11 25 -15 5 -13 30 -11 34 3 3
7 14 9 29 5 18 -5 24 -13 25 -37 1 -19 -4 -30 -12 -30 -8 0 -14 -4 -14 -9 0
-5 -9 -11 -20 -14 -11 -3 -20 -12 -20 -20 0 -10 -7 -13 -20 -10 -14 4 -20 0
-20 -11 0 -11 13 -18 39 -22 32 -5 42 -12 50 -34 8 -24 6 -29 -15 -39 -13 -6
-24 -17 -24 -26 0 -19 52 -33 58 -15 3 7 13 21 23 31 23 23 24 39 4 39 -16 0
-18 7 -15 58 1 27 -2 32 -22 33 -17 1 -18 3 -5 6 9 2 17 9 17 14 0 5 7 9 16 9
12 0 14 7 9 30 -6 28 -5 30 17 25 12 -3 28 -2 34 2 14 10 27 103 14 103 -6 0
-10 5 -10 11 0 14 -30 38 -48 39 -24 0 -9 -45 16 -48 12 -2 22 -8 22 -13 0
-14 -27 -11 -44 6 -8 8 -19 15 -25 15 -12 0 -2 32 12 41 15 10 0 39 -19 39
-11 0 -15 -6 -11 -20 3 -11 2 -20 -3 -20 -4 0 -10 -9 -13 -20 -5 -20 -37 -29
-37 -10 0 6 7 10 15 10 8 0 15 7 15 15 0 9 -9 15 -25 15 -14 0 -30 9 -37 20
-7 11 -18 20 -25 20 -21 0 -16 57 5 62 9 3 27 26 40 51 13 26 29 47 35 47 7 0
23 9 37 20 14 11 27 20 30 20 3 0 13 -18 23 -40z m-300 -340 c-4 -16 0 -20 21
-20 18 0 26 5 27 18 1 30 28 -40 29 -76 0 -18 -7 -40 -15 -48 -18 -19 -20 -44
-2 -44 8 0 13 -20 15 -60 3 -56 2 -60 -22 -66 -24 -6 -38 -34 -17 -34 5 0 11
-10 14 -21 4 -17 3 -19 -6 -10 -19 19 -37 12 -37 -14 0 -20 5 -25 25 -25 18 0
25 -5 25 -20 0 -11 3 -20 8 -20 9 0 13 -73 3 -80 -4 -3 -14 -15 -23 -28 -13
-20 -17 -21 -28 -7 -8 10 -9 15 -1 15 6 0 11 7 11 15 0 8 -5 15 -12 15 -9 0
-9 3 0 12 16 16 15 68 0 70 -7 0 -25 2 -39 3 -35 3 -49 13 -49 35 0 11 -10 20
-25 24 -24 6 -36 26 -15 26 6 0 10 7 10 15 0 8 -7 15 -15 15 -8 0 -15 -4 -15
-10 0 -5 -4 -10 -10 -10 -5 0 -10 7 -10 15 0 7 -6 18 -14 22 -21 13 -36 48
-29 71 4 16 1 22 -12 22 -15 0 -15 1 -1 16 9 8 16 26 16 40 0 16 11 31 34 46
24 16 37 33 41 55 6 32 15 38 58 34 9 -1 17 4 17 13 0 10 9 16 24 16 19 0 23
-4 19 -20z m1868 -89 c1 -9 2 -25 3 -36 1 -20 36 -35 36 -16 0 6 4 11 9 11 5
0 7 -9 4 -20 -5 -18 -1 -21 28 -21 19 0 49 -1 67 -3 17 -2 43 -4 57 -5 39 -2
29 -21 -11 -21 -34 0 -35 -1 -29 -30 5 -24 3 -30 -10 -30 -12 0 -16 -7 -13
-27 2 -20 -2 -29 -14 -31 -20 -4 -35 35 -19 51 17 17 13 45 -6 51 -65 18 -83
18 -84 -1 0 -10 -3 -13 -6 -5 -3 7 -23 12 -49 12 -24 0 -44 4 -44 9 0 5 -13
11 -29 14 -30 6 -52 37 -26 37 8 0 15 6 15 14 0 16 26 46 41 46 5 0 9 -9 9
-20 0 -11 -4 -20 -10 -20 -16 0 -12 -30 5 -36 8 -3 22 1 30 10 9 9 21 16 26
16 5 0 9 7 9 15 0 8 -6 15 -14 15 -13 0 -26 20 -26 39 0 16 50 -2 51 -18z
m-1291 -192 c0 -6 9 -9 20 -6 13 3 20 0 20 -9 0 -8 -7 -14 -15 -14 -8 0 -15
-7 -15 -15 0 -8 9 -15 20 -15 11 0 20 -4 20 -10 0 -5 -9 -10 -19 -10 -11 0
-26 -7 -35 -15 -17 -18 -36 -20 -36 -4 0 7 -10 9 -27 4 -33 -8 -29 -3 -38 -42
-6 -29 -4 -33 14 -33 12 0 21 6 21 15 0 8 7 15 15 15 11 0 12 -5 5 -26 -6 -14
-10 -29 -10 -34 0 -12 72 -23 79 -12 8 12 61 22 61 11 0 -14 27 -10 40 6 10
12 14 12 26 0 8 -7 14 -23 14 -34 0 -16 -6 -21 -25 -21 -16 0 -25 -6 -25 -15
0 -8 -4 -15 -8 -15 -5 0 -8 10 -8 22 1 14 -6 24 -18 26 -15 3 -18 0 -13 -17 3
-12 1 -21 -4 -21 -5 0 -9 7 -9 15 0 8 -7 15 -16 15 -12 0 -15 -6 -10 -25 5
-19 2 -25 -9 -25 -9 0 -31 -15 -50 -34 -34 -34 -71 -53 -82 -42 -3 3 3 9 13
13 40 14 45 48 9 57 -24 6 -36 26 -15 26 6 0 10 7 10 15 0 9 -9 15 -25 15 -16
0 -25 -6 -25 -15 0 -24 -19 -17 -26 10 -3 14 -12 25 -19 25 -16 0 -29 -35 -20
-52 4 -7 0 -5 -8 5 -8 10 -21 17 -29 16 -30 -4 -48 2 -48 16 0 8 9 15 20 15
10 0 28 10 40 22 11 12 20 16 20 10 0 -7 7 -12 15 -12 19 0 19 37 0 56 -23 24
1 44 40 33 42 -13 55 -11 55 6 0 8 -4 15 -10 15 -5 0 -10 5 -10 11 0 7 11 9
29 6 37 -8 71 2 71 19 0 9 -11 14 -27 14 l-28 1 28 17 c15 9 27 20 27 24 0 5
7 8 15 8 8 0 15 -5 15 -11z"/>
<path d="M910 3323 c-8 -3 -26 -17 -39 -29 -13 -13 -30 -24 -37 -24 -8 0 -14
-4 -14 -8 0 -5 -26 -22 -57 -37 -32 -16 -69 -37 -81 -47 -18 -13 -34 -16 -68
-11 -37 5 -44 3 -44 -11 0 -10 9 -16 25 -16 14 0 28 -7 31 -15 7 -17 34 -20
34 -4 0 8 13 9 40 5 32 -5 40 -3 40 9 0 8 4 15 9 15 21 0 41 -13 41 -26 0 -8
7 -14 15 -14 8 0 15 7 15 15 0 8 -4 15 -10 15 -5 0 -10 7 -10 15 0 8 -4 15
-10 15 -20 0 -9 21 18 33 15 6 36 20 46 29 11 10 29 20 40 23 47 13 96 39 96
50 0 19 -48 30 -80 18z"/>
<path d="M2184 1320 c-13 -30 -24 -40 -41 -40 -30 0 -30 -28 -1 -60 13 -13 21
-33 20 -45 -2 -13 7 -26 25 -37 15 -10 22 -18 16 -18 -15 0 -18 -30 -4 -30 5
0 12 -13 16 -30 4 -16 12 -30 20 -30 17 0 15 92 -3 98 -17 5 -15 32 3 32 8 0
15 7 15 15 0 8 -9 15 -20 15 -28 0 -36 43 -18 99 15 46 15 46 23 17 5 -18 4
-36 -4 -47 -16 -27 -14 -39 9 -39 13 0 20 -7 20 -20 0 -11 7 -20 15 -20 20 0
32 30 16 39 -16 10 -3 61 15 61 20 0 17 16 -8 45 -16 19 -29 24 -45 20 -13 -3
-23 -1 -23 5 0 26 -30 6 -46 -30z"/>
<path d="M3188 5958 c-3 -40 -5 -43 -35 -46 -21 -2 -33 1 -33 9 0 7 -8 9 -22
4 -13 -4 -52 -11 -88 -16 -36 -4 -80 -11 -97 -15 -22 -4 -33 -2 -33 5 0 6 -7
11 -15 11 -8 0 -15 -4 -15 -10 0 -5 -9 -10 -20 -10 -12 0 -20 -7 -20 -16 0
-12 -6 -15 -23 -10 -38 9 -67 -4 -67 -30 0 -29 -7 -28 104 -4 50 11 103 20
118 20 15 0 28 3 28 8 0 4 24 5 52 3 29 -2 47 -6 41 -8 -7 -3 -13 -11 -13 -19
0 -9 -11 -14 -30 -14 -22 0 -30 -5 -30 -18 0 -12 -13 -23 -35 -32 -37 -14 -46
-36 -20 -46 9 -4 25 4 40 20 13 14 29 26 35 26 5 0 10 5 10 10 0 6 9 10 20 10
11 0 20 6 20 14 0 14 67 46 95 46 8 0 15 5 15 11 0 8 5 7 15 -1 12 -10 21 -10
41 -1 14 6 36 11 49 11 20 0 25 -5 25 -25 0 -27 23 -34 37 -12 10 17 43 30 43
17 0 -6 18 -10 40 -10 28 0 40 4 40 15 0 10 8 7 26 -10 33 -30 69 -34 61 -6
-3 14 0 17 14 14 36 -10 19 22 -21 40 -51 22 -88 22 -92 0 -3 -15 -4 -15 -21
1 -10 11 -26 16 -38 13 -11 -3 -34 -1 -51 5 -21 8 -32 8 -37 0 -4 -7 -12 -8
-21 -2 -8 6 -25 10 -37 10 -20 0 -23 5 -23 40 0 28 -4 40 -14 40 -10 0 -16
-14 -18 -42z"/>
<path d="M574 5365 c4 -14 2 -25 -4 -25 -14 0 -12 -27 3 -33 7 -4 3 -8 -10
-12 -31 -10 -29 -31 3 -39 15 -4 32 -13 40 -20 13 -14 8 -56 -7 -56 -21 0 -7
-30 16 -36 14 -3 25 -12 25 -20 0 -8 7 -14 16 -14 13 0 15 6 9 27 -3 15 -11
31 -16 34 -6 3 -7 18 -3 32 4 17 2 27 -5 27 -6 0 -11 7 -11 15 0 8 -7 15 -15
15 -17 0 -21 35 -5 45 6 3 10 1 10 -4 0 -6 7 -11 15 -11 8 0 15 -9 15 -20 0
-21 8 -24 34 -14 18 7 22 34 5 34 -5 0 -7 5 -4 10 3 6 15 10 26 10 10 0 19 7
19 15 0 26 -66 14 -73 -14 -4 -15 -5 -15 -6 1 -1 18 -57 78 -73 78 -6 0 -8
-10 -4 -25z"/>
<path d="M890 5265 c0 -8 5 -15 10 -15 6 0 10 -7 10 -15 0 -8 5 -15 10 -15 6
0 10 -12 9 -27 0 -16 -3 -22 -6 -15 -6 15 -33 16 -33 1 0 -6 -8 -3 -17 6 -13
14 -14 21 -5 35 9 14 8 19 -4 24 -31 12 -34 5 -34 -69 0 -76 9 -92 37 -64 8 8
44 10 107 7 87 -4 96 -2 96 14 0 10 -4 18 -10 18 -5 0 -10 14 -10 30 0 17 5
30 10 30 15 0 12 19 -4 36 -19 18 -56 18 -56 0 0 -8 5 -18 10 -21 22 -13 10
-35 -19 -35 -16 0 -32 -6 -34 -12 -3 -7 -6 -3 -6 10 -1 13 5 22 14 22 8 0 15
9 15 20 0 16 -7 20 -30 20 -20 0 -30 5 -30 15 0 8 -7 15 -15 15 -8 0 -15 -7
-15 -15z"/>
<path d="M860 5019 c0 -19 -27 -38 -48 -32 -16 4 -21 -1 -27 -26 -5 -22 -12
-31 -26 -31 -25 0 -24 -25 1 -50 22 -22 40 -26 40 -10 0 6 7 10 15 10 8 0 15
-7 15 -15 0 -8 9 -15 20 -15 11 0 20 5 20 10 0 6 11 10 24 10 18 0 25 -7 30
-31 10 -51 8 -56 -24 -55 -17 1 -30 7 -30 14 0 6 -9 12 -20 12 -17 0 -20 -7
-20 -50 0 -43 3 -50 20 -50 11 0 20 5 20 10 0 6 33 10 80 10 47 0 80 -4 80
-10 0 -5 7 -10 16 -10 12 0 14 7 9 31 -5 21 -3 34 5 39 16 10 5 40 -14 40 -8
0 -18 -9 -21 -20 -4 -14 -15 -20 -36 -20 -28 0 -29 2 -29 46 l0 47 55 -7 c44
-5 55 -3 55 8 0 8 -6 16 -12 19 -10 3 -10 9 0 26 17 29 15 41 -8 41 -13 0 -20
-7 -20 -20 0 -18 -7 -20 -60 -20 -33 0 -60 4 -60 9 0 5 -10 11 -22 13 -29 4
-35 28 -9 35 22 6 25 12 15 37 -7 18 -34 22 -34 5z"/>
<path d="M3800 3344 c0 -34 -4 -53 -10 -49 -5 3 -10 15 -10 26 0 10 -7 19 -15
19 -7 0 -19 8 -24 18 -8 12 -13 14 -19 5 -10 -16 -14 -273 -4 -273 10 0 10
-46 0 -56 -11 -10 -10 -94 1 -94 5 0 9 -11 9 -24 0 -22 -4 -24 -29 -19 -22 4
-29 2 -29 -11 0 -9 8 -16 20 -16 11 0 20 -7 20 -15 0 -11 11 -15 41 -15 36 0
40 2 34 20 -4 14 -1 22 12 27 24 9 43 29 43 45 0 7 12 24 26 38 l26 24 24 -27
c13 -16 24 -37 24 -48 0 -12 10 -23 25 -29 16 -6 25 -17 25 -30 0 -19 6 -21
53 -20 28 1 62 -2 75 -5 21 -7 22 -4 22 39 0 25 -4 46 -8 46 -5 0 -6 24 -3 53
5 50 5 179 1 232 -3 28 10 48 17 28 6 -18 33 -16 33 2 0 8 -7 15 -15 15 -9 0
-15 9 -15 23 0 22 -8 29 -63 55 -4 2 -7 0 -6 -5 3 -18 -3 -47 -8 -35 -6 15
-30 16 -35 1 -6 -17 -48 12 -48 32 0 19 -53 44 -71 33 -9 -5 -10 -2 -6 9 5 13
0 15 -28 10 -26 -4 -36 -2 -41 11 -3 9 -15 16 -25 16 -16 0 -19 -8 -19 -56z
m101 0 c60 -27 68 -39 49 -75 -9 -16 -7 -19 9 -19 15 0 19 -6 18 -27 -1 -16
-6 -32 -12 -36 -8 -7 29 -4 92 7 24 4 23 14 -2 20 -14 4 -25 11 -25 16 0 19
21 21 49 4 27 -16 28 -19 15 -39 -8 -12 -11 -24 -8 -28 4 -3 10 -24 14 -45 6
-36 5 -39 -13 -34 -15 4 -18 1 -15 -14 2 -11 11 -18 21 -16 13 2 17 -4 16 -25
-1 -17 -3 -21 -6 -10 -3 10 -14 17 -29 17 -17 0 -24 5 -24 20 0 11 -6 20 -14
20 -18 0 -110 124 -96 128 5 2 10 11 10 19 0 10 -6 14 -20 10 -14 -4 -28 5
-48 31 -44 56 -65 102 -46 102 4 0 33 -12 65 -26z m-116 -224 c16 0 55 -52 55
-73 0 -8 9 -17 20 -20 11 -3 20 -10 20 -17 0 -7 -9 -14 -20 -17 -11 -3 -20
-12 -20 -19 0 -8 -6 -14 -14 -14 -7 0 -16 -8 -19 -18 -2 -11 -14 -21 -26 -25
-18 -4 -21 -1 -22 31 0 21 -2 52 -3 70 -2 17 0 32 6 32 5 0 6 24 4 53 -3 28
-3 44 0 35 3 -10 12 -18 19 -18z"/>
<path d="M5530 3355 c0 -30 3 -35 23 -35 33 0 67 -11 67 -21 0 -5 -7 -9 -15
-9 -8 0 -15 -7 -15 -15 0 -8 7 -15 15 -15 10 0 15 -10 15 -30 0 -25 -4 -30
-24 -30 -29 0 -35 -19 -28 -89 4 -49 6 -52 28 -47 24 6 24 5 24 -66 -1 -55 -3
-69 -11 -55 -5 9 -16 17 -23 17 -8 0 -19 6 -25 14 -10 12 -8 13 8 9 15 -4 21
-1 21 11 0 9 -8 16 -17 17 -11 0 -13 3 -5 6 19 7 14 35 -5 32 -43 -4 -53 1
-53 26 0 14 -6 25 -13 25 -17 0 -43 43 -28 48 16 5 13 32 -4 32 -8 0 -15 3
-15 8 0 10 -60 35 -67 28 -4 -4 -10 -34 -14 -69 -7 -53 -5 -66 12 -89 12 -18
14 -26 5 -22 -10 4 -14 -4 -14 -28 0 -51 -1 -53 -15 -33 -10 12 -16 14 -21 7
-15 -24 -26 -11 -13 16 17 34 20 117 6 144 -7 14 -7 23 1 34 21 25 4 44 -40
44 -33 0 -40 3 -40 20 0 11 -6 20 -14 20 -8 0 -18 -9 -21 -20 -5 -16 -16 -20
-53 -21 -26 -1 -55 -1 -64 0 -10 1 -18 -2 -18 -7 0 -6 -9 -8 -20 -5 -11 3 -20
9 -20 14 0 5 -7 9 -15 9 -8 0 -15 -4 -15 -9 0 -6 -12 -6 -31 1 -24 8 -33 8
-40 -3 -9 -15 6 -29 33 -29 16 0 19 -22 5 -36 -11 -11 -8 -64 3 -64 6 0 10
-14 10 -31 0 -26 -3 -30 -22 -25 -13 3 -17 3 -10 0 6 -3 12 -12 12 -20 0 -8 7
-14 15 -14 8 0 15 6 15 14 0 7 7 19 15 26 14 12 16 3 13 -75 l-3 -88 -53 -1
c-43 -1 -52 2 -52 17 0 9 -4 17 -10 17 -5 0 -10 11 -10 25 0 14 5 25 10 25 6
0 10 37 9 95 -1 65 -5 95 -12 95 -9 0 -9 2 0 8 8 5 10 32 7 87 -3 44 -5 90 -5
103 1 13 -4 20 -9 17 -6 -3 -10 -38 -10 -76 0 -64 -2 -70 -25 -81 -14 -6 -25
-15 -25 -20 0 -14 -28 -9 -34 7 -3 8 -15 15 -26 15 -21 0 -27 14 -10 25 15 10
12 35 -5 35 -8 0 -15 5 -15 10 0 6 5 10 10 10 6 0 10 8 10 18 0 19 -48 45
-106 57 -28 5 -32 3 -38 -19 -3 -15 -13 -26 -21 -26 -16 0 -19 -9 -9 -34 10
-26 37 -20 31 6 -8 29 9 48 42 48 38 0 53 -17 39 -44 -7 -12 -14 -76 -16 -144
-3 -88 -8 -120 -15 -113 -18 18 -37 13 -46 -11 -7 -19 -4 -24 13 -30 l21 -6
-22 -1 c-25 -1 -76 -92 -55 -99 7 -2 10 -8 6 -13 -7 -12 -78 -11 -90 1 -15 15
-5 70 12 70 8 0 14 7 14 15 0 21 -38 19 -43 -2 -3 -10 -5 30 -6 90 -1 65 3
107 9 107 6 0 10 -4 10 -10 0 -14 27 -13 32 1 2 6 20 12 41 14 20 1 34 -2 31
-7 -3 -4 -14 -8 -25 -8 -22 0 -49 -22 -49 -39 0 -6 7 -11 15 -11 8 0 15 -9 15
-20 0 -11 7 -23 15 -26 8 -4 15 -12 15 -20 0 -8 7 -14 15 -14 22 0 18 27 -5
33 -48 12 -26 80 30 92 16 4 30 12 30 18 0 16 -79 57 -107 57 -13 0 -23 5 -23
10 0 6 -7 10 -15 10 -8 0 -15 -9 -15 -20 0 -11 -5 -20 -11 -20 -7 0 -9 9 -5
23 9 37 -3 63 -30 65 -15 1 -24 -3 -24 -13 0 -8 7 -15 15 -15 10 0 15 -10 15
-30 0 -23 -5 -30 -19 -30 -22 0 -36 -62 -20 -91 6 -13 6 -19 -1 -19 -11 0 -14
-112 -3 -124 11 -10 12 -36 2 -36 -5 0 -9 -20 -9 -44 l0 -44 109 -1 c60 -1
116 2 125 5 20 8 23 99 4 107 -8 3 -6 6 5 6 10 1 17 9 17 20 0 11 5 23 10 26
13 8 13 -16 1 -48 -8 -20 -6 -27 6 -31 13 -5 14 -9 5 -18 -7 -7 -12 -26 -12
-42 l0 -31 68 0 68 0 -3 65 c-1 36 -3 68 -3 73 0 4 -8 7 -17 7 -10 0 -25 5
-33 11 -11 8 -6 9 20 5 19 -4 41 -14 48 -23 14 -20 16 -37 2 -28 -5 3 -10 -3
-10 -14 0 -12 5 -21 10 -21 7 0 8 -13 4 -36 -10 -52 32 -77 54 -31 6 12 11 16
11 10 1 -9 24 -13 82 -13 l82 0 -7 38 c-12 68 -14 102 -6 107 5 3 6 28 3 55
-5 47 -4 50 16 50 l23 0 -4 -170 c-2 -131 0 -170 10 -170 7 0 12 15 12 39 0
22 5 43 10 46 6 3 10 1 10 -4 0 -6 7 -11 15 -11 8 0 15 4 15 9 0 5 9 7 20 4
14 -4 20 0 20 11 0 9 -6 16 -14 16 -7 0 -16 12 -18 28 -4 26 -2 27 29 24 25
-3 33 0 33 12 0 10 -9 16 -25 16 -14 0 -25 5 -25 10 0 15 39 12 56 -4 17 -17
20 -49 10 -93 -6 -26 -4 -32 13 -38 11 -3 21 -16 23 -28 2 -16 10 -22 26 -21
13 0 22 -5 22 -14 0 -10 8 -12 33 -7 44 10 59 25 54 53 -4 19 -1 23 14 19 11
-3 22 -1 25 4 3 5 17 9 32 8 15 0 21 -3 15 -6 -7 -2 -13 -12 -13 -20 0 -11 7
-14 25 -11 27 6 34 -6 10 -16 -24 -9 -19 -39 5 -33 11 3 20 1 20 -4 0 -5 7 -9
16 -9 13 0 15 7 9 36 -3 20 -13 43 -21 51 -8 8 -14 19 -14 24 0 5 -7 9 -15 9
-8 0 -15 7 -15 16 0 12 -7 15 -30 12 -30 -5 -30 -4 -24 31 4 20 11 38 15 39
17 7 8 30 -13 36 -15 4 -19 9 -12 13 6 5 14 15 17 23 4 12 6 11 6 -2 1 -10 7
-18 14 -18 7 0 18 -9 25 -20 10 -17 10 -20 -3 -20 -25 0 -17 -27 10 -34 14 -4
25 -13 25 -21 0 -8 4 -15 9 -15 13 0 22 -43 10 -51 -7 -4 -5 -9 5 -12 9 -4 16
-18 16 -32 0 -14 5 -25 10 -25 6 0 10 -7 10 -15 0 -8 6 -15 14 -15 9 0 14 12
14 37 0 22 6 41 16 49 19 13 21 50 4 57 -8 3 -5 6 6 6 14 1 17 7 14 26 -3 14
-1 28 5 32 6 4 8 -16 5 -58 l-5 -64 136 1 c232 3 231 3 231 19 0 8 -4 15 -8
15 -5 0 -9 7 -9 15 0 9 10 15 24 15 14 0 23 6 23 15 0 10 -10 15 -28 15 -31 0
-62 27 -62 53 0 9 -4 18 -9 22 -6 3 -4 17 5 33 20 39 18 50 -16 57 -34 8 -48
24 -30 35 7 4 10 15 7 23 -3 8 3 21 14 30 10 9 19 12 19 7 0 -6 7 -10 15 -10
8 0 15 7 15 16 0 11 6 14 20 9 15 -5 18 -3 14 10 -4 9 -9 14 -11 11 -8 -8 -33
21 -33 39 0 9 7 30 16 46 8 17 14 32 12 34 -2 2 -75 5 -162 6 -137 2 -160 0
-171 -14 -7 -11 -10 -49 -8 -112 2 -76 0 -95 -11 -95 -8 0 -17 -8 -19 -17 -3
-10 -5 19 -6 65 -1 67 2 82 14 82 8 0 15 7 15 15 0 8 -4 15 -10 15 -5 0 -10 5
-10 10 0 15 -50 60 -65 60 -7 0 -15 9 -18 20 -3 11 -12 20 -21 20 -12 0 -16
-10 -16 -35z m330 -343 c0 -15 16 -31 45 -48 11 -6 21 -21 23 -33 3 -20 0 -21
-77 -21 -74 0 -81 2 -81 20 0 11 -4 20 -10 20 -5 0 -10 17 -10 38 l0 38 55 0
c39 -1 55 -5 55 -14z"/>
<path d="M4390 3250 c0 -5 -6 -10 -14 -10 -7 0 -16 -9 -19 -20 -5 -20 -47 -29
-47 -10 0 16 -40 12 -57 -5 -14 -14 -17 -14 -32 0 -40 35 -51 15 -51 -96 0
-64 -3 -79 -15 -79 -8 0 -15 -7 -15 -15 0 -8 7 -15 15 -15 11 0 15 -18 17 -77
l3 -78 46 -1 c26 -1 59 -4 73 -8 15 -4 35 -2 46 4 19 10 20 7 20 -35 0 -45 12
-60 24 -28 4 9 7 104 7 211 0 107 4 202 9 212 7 13 6 20 -3 23 -7 3 -5 6 6 6
21 1 23 31 2 31 -8 0 -15 -4 -15 -10z m-45 -89 c6 -1 10 -44 11 -106 1 -104 1
-105 -22 -99 -14 4 -32 -1 -46 -11 -17 -13 -18 -16 -5 -11 27 9 67 -4 67 -21
0 -27 -26 -42 -72 -40 l-46 2 4 42 c3 24 0 43 -5 43 -5 0 -8 20 -8 45 0 25 5
45 10 45 6 0 7 17 3 40 -3 23 -2 49 4 59 9 18 21 20 105 12z"/>
<path d="M4272 1514 c3 -29 15 -38 63 -50 27 -7 28 -8 8 -11 -30 -6 -29 -24 2
-57 13 -14 20 -26 15 -26 -6 0 -10 -12 -10 -26 0 -20 4 -25 18 -22 18 5 42
-13 42 -32 0 -5 7 -10 15 -10 18 0 20 26 3 33 -8 3 -6 6 5 6 9 1 17 7 17 15 0
8 7 16 15 20 18 6 20 33 3 38 -7 3 -9 11 -3 24 7 17 8 17 12 2 3 -10 12 -18
21 -19 11 0 12 -2 5 -6 -7 -2 -13 -11 -13 -19 0 -26 42 -13 53 16 4 12 6 11 6
-2 1 -25 31 -23 31 2 0 11 -6 20 -14 20 -8 0 -16 7 -20 15 -3 9 0 15 9 15 8 0
15 7 15 15 0 8 -9 15 -20 15 -11 0 -20 4 -20 9 0 5 -13 12 -30 16 -16 4 -30
11 -30 16 0 5 -7 9 -15 9 -22 0 -19 -47 3 -54 9 -3 1 -3 -20 0 -20 2 -38 0
-40 -5 -1 -5 -9 -3 -16 5 -7 8 -8 14 -2 14 5 0 10 9 10 21 0 21 -14 22 -63 3
-10 -3 -18 2 -22 15 -10 32 -37 27 -33 -5z"/>
</g>
</svg>
