<?xml version="1.0" standalone="no"?>
<!DOCTYPE svg PUBLIC "-//W3C//DTD SVG 20010904//EN"
 "http://www.w3.org/TR/2001/REC-SVG-20010904/DTD/svg10.dtd">
<svg version="1.0" xmlns="http://www.w3.org/2000/svg"
 width="640.000000pt" height="640.000000pt" viewBox="0 0 640.000000 640.000000"
 preserveAspectRatio="xMidYMid meet">
<metadata>
Created by potrace 1.16, written by Peter Selinger 2001-2019
</metadata>
<g transform="translate(0.000000,640.000000) scale(0.100000,-0.100000)"
fill="#000000" stroke="none">
<path d="M0 5755 c0 -567 2 -645 15 -645 8 0 15 -8 14 -17 0 -11 -3 -13 -6 -5
-2 6 -9 12 -14 12 -6 0 -9 -68 -8 -165 1 -91 6 -165 10 -165 5 0 9 8 9 19 0
14 7 18 30 17 33 -1 42 -16 10 -16 -11 0 -20 -7 -20 -15 0 -8 -9 -15 -20 -15
-19 0 -20 -7 -20 -220 1 -179 3 -220 14 -220 9 0 12 -7 9 -20 -3 -11 -9 -20
-14 -20 -5 0 -9 -18 -9 -40 0 -22 5 -40 10 -40 6 0 10 -7 10 -15 0 -8 -4 -15
-10 -15 -5 0 -10 -13 -10 -30 0 -16 4 -30 10 -30 5 0 7 -7 4 -15 -4 -8 0 -23
7 -32 11 -13 11 -17 2 -20 -16 -6 -17 -33 -2 -33 7 0 22 11 34 24 13 14 26 22
29 19 11 -11 6 -23 -9 -23 -8 0 -15 -7 -15 -16 0 -11 6 -15 19 -11 25 6 37
-42 15 -59 -8 -6 -14 -16 -14 -23 0 -6 -4 -11 -9 -11 -5 0 -13 -9 -16 -20 -10
-30 -25 -24 -25 10 0 20 -5 30 -15 30 -13 0 -15 -240 -15 -1965 l0 -1965 3200
0 3200 0 0 185 c0 117 -4 185 -10 185 -5 0 -10 7 -10 15 0 8 -7 15 -15 15 -8
0 -15 5 -15 10 0 6 11 10 25 10 21 0 25 5 25 30 0 35 -19 47 -48 31 -16 -8
-21 -7 -26 5 -9 23 -8 24 17 24 12 0 30 9 40 20 19 23 22 40 7 40 -5 0 -10 -4
-10 -10 0 -5 -7 -10 -15 -10 -11 0 -14 7 -9 24 5 20 2 25 -18 28 -19 4 -16 6
15 12 36 8 53 36 22 36 -8 0 -15 4 -15 9 0 5 9 7 20 4 13 -4 20 0 20 10 0 16
-40 30 -63 21 -8 -3 -17 2 -20 10 -9 23 -41 21 -35 -2 3 -10 -2 -24 -10 -32
-14 -13 -15 -12 -10 2 4 8 9 36 13 61 5 33 11 44 21 40 8 -3 14 -14 14 -24 0
-10 7 -19 15 -19 8 0 15 -4 15 -10 0 -5 7 -10 15 -10 8 0 15 7 15 15 0 8 -7
15 -15 15 -8 0 -15 7 -15 15 0 8 -4 15 -9 15 -5 0 -11 9 -14 20 -5 21 -37 28
-37 9 0 -7 -11 -8 -30 -4 -26 6 -30 4 -30 -14 0 -12 -6 -21 -14 -21 -24 0 -30
-39 -9 -55 16 -13 14 -13 -17 -5 -46 13 -50 13 -50 -5 0 -8 5 -15 10 -15 6 0
10 -8 10 -17 0 -15 -2 -15 -9 -4 -5 8 -16 11 -24 8 -11 -4 -13 0 -10 14 4 15
0 19 -21 19 -14 0 -26 5 -26 10 0 6 -7 10 -15 10 -8 0 -15 -7 -15 -15 0 -8 5
-15 10 -15 6 0 10 -4 10 -10 0 -5 -7 -10 -15 -10 -9 0 -15 -9 -15 -25 0 -18 7
-26 24 -31 42 -10 20 -29 -29 -26 -38 3 -45 1 -45 -14 0 -15 -2 -16 -9 -5 -5
7 -6 22 -4 32 4 13 0 19 -11 19 -10 0 -15 4 -12 9 3 5 15 7 26 4 14 -4 20 0
20 11 0 9 -4 16 -10 16 -5 0 -10 14 -10 30 0 20 -5 30 -15 30 -9 0 -15 -10
-15 -26 0 -22 -2 -24 -14 -11 -9 8 -12 24 -9 36 4 15 1 21 -11 21 -9 0 -16 5
-16 10 0 6 -7 10 -15 10 -8 0 -15 5 -15 10 0 6 -10 10 -21 10 -16 0 -20 -5
-16 -20 3 -11 1 -20 -4 -20 -5 0 -9 5 -9 10 0 6 -7 10 -15 10 -25 0 -19 -59 7
-69 18 -6 19 -9 5 -14 -10 -4 -17 -2 -17 3 0 6 -7 10 -15 10 -8 0 -15 7 -15
15 0 8 -7 15 -15 15 -18 0 -20 -27 -3 -32 7 -3 12 -21 11 -41 -1 -33 2 -37 23
-37 13 0 24 -4 24 -10 0 -11 -20 -13 -44 -4 -11 4 -16 19 -16 46 0 37 -2 40
-22 34 -13 -3 -31 -6 -40 -6 -10 0 -18 -7 -18 -15 0 -8 -4 -15 -10 -15 -5 0
-10 -7 -10 -15 0 -17 -63 -37 -69 -22 -2 5 1 12 6 16 6 3 13 13 16 21 4 12 6
11 6 -2 1 -10 7 -18 15 -18 16 0 31 34 21 50 -4 6 6 10 22 10 24 0 30 6 41 40
6 22 12 46 12 54 0 11 8 13 35 9 27 -4 35 -2 35 10 0 8 -6 18 -12 21 -7 4 4 4
25 2 20 -3 44 -12 53 -20 8 -9 22 -16 30 -16 8 0 14 -4 14 -10 0 -5 7 -10 15
-10 8 0 15 7 15 15 0 8 -7 15 -15 15 -8 0 -15 5 -15 10 0 6 7 10 15 10 8 0 15
7 15 15 0 19 -56 21 -63 3 -3 -7 -6 -3 -6 10 -1 21 -5 23 -31 18 -16 -3 -43
-9 -60 -12 -16 -3 -30 -10 -30 -15 0 -5 -4 -9 -10 -9 -5 0 -10 6 -10 14 0 14
-55 30 -71 20 -5 -3 -9 -18 -9 -35 0 -25 4 -29 28 -30 23 -2 24 -2 5 -6 -13
-2 -23 -12 -24 -21 0 -14 -2 -14 -6 -2 -3 8 -11 18 -16 22 -6 3 -10 23 -9 43
2 39 -23 60 -39 34 -6 -9 -9 0 -9 29 0 35 -3 42 -19 42 -11 0 -23 -9 -26 -20
-3 -11 -11 -20 -16 -20 -5 0 -9 -11 -9 -25 0 -16 -6 -25 -15 -25 -8 0 -15 4
-15 9 0 5 -8 12 -17 14 -11 3 -7 5 10 6 35 1 38 31 2 31 -20 0 -25 5 -24 23 1
16 2 18 6 5 5 -22 29 -24 37 -3 3 8 12 15 21 15 18 0 21 29 3 31 -74 8 -98 6
-98 -7 0 -8 -6 -14 -14 -14 -9 0 -12 7 -9 21 5 16 1 20 -13 19 -35 -4 -44 0
-43 18 0 10 3 12 6 5 8 -22 36 -15 30 7 -3 11 -3 20 0 20 8 0 33 -28 33 -38 0
-6 34 -9 80 -8 61 1 80 -2 80 -13 0 -7 11 -22 24 -32 14 -11 28 -33 31 -50 6
-27 10 -30 33 -24 15 4 30 12 34 18 11 17 10 37 -2 37 -5 0 -10 11 -10 24 0
20 -6 24 -41 30 -36 6 -39 8 -25 22 23 23 21 48 -4 41 -27 -7 -25 -3 10 33 32
33 39 60 15 60 -11 0 -14 7 -9 25 5 19 2 25 -10 25 -9 0 -16 -7 -16 -15 0 -16
-12 -18 -47 -9 -14 4 -23 14 -23 25 0 11 -7 19 -17 19 -17 1 -17 1 0 11 20 12
23 39 5 39 -9 0 -10 2 -2 8 7 4 14 16 17 27 4 18 5 18 6 -2 0 -13 7 -23 15
-23 18 0 33 43 17 48 -6 2 -11 8 -11 13 0 5 -9 18 -20 29 -21 21 -50 27 -50
10 0 -5 -7 -10 -15 -10 -8 0 -15 -7 -15 -15 0 -18 27 -20 33 -2 8 23 14 2 9
-35 -2 -24 -10 -38 -18 -38 -8 0 -14 7 -14 15 0 19 -39 19 -64 0 -10 -8 -16
-21 -13 -29 3 -8 -1 -17 -9 -20 -8 -3 -14 -12 -14 -21 0 -8 -6 -15 -14 -15 -8
0 -17 -6 -20 -12 -5 -10 -7 -10 -12 0 -3 6 -13 12 -21 12 -11 0 -14 -7 -9 -24
5 -19 1 -26 -15 -31 -11 -4 -23 -4 -26 -1 -4 3 1 6 10 6 27 0 20 27 -8 34 -20
5 -31 0 -52 -21 -17 -18 -27 -24 -30 -15 -3 6 -11 12 -19 12 -8 0 -14 -6 -14
-12 0 -26 18 -39 56 -43 21 -2 41 -4 44 -5 18 -2 -31 -20 -58 -20 -39 0 -61
17 -54 42 2 11 -1 18 -9 18 -23 0 -42 -17 -36 -32 4 -11 -1 -14 -18 -10 -17 3
-21 9 -17 24 3 14 -1 21 -17 25 -15 4 -20 11 -16 21 3 8 0 31 -6 49 -9 29 -15
34 -33 29 -11 -3 -27 -6 -33 -6 -7 0 -13 -5 -13 -11 0 -24 -43 -50 -72 -44
-24 6 -28 3 -28 -14 0 -16 7 -21 28 -22 16 -1 20 -3 10 -6 -10 -2 -18 -13 -18
-23 0 -25 -38 -33 -45 -9 -7 22 -14 23 -49 9 -21 -8 -26 -16 -26 -45 0 -43 27
-49 33 -8 l4 28 2 -27 c0 -18 7 -28 17 -28 8 0 22 -7 30 -15 14 -13 14 -15 -1
-15 -12 0 -16 -6 -12 -20 3 -13 0 -20 -9 -20 -8 0 -14 -7 -14 -16 0 -12 6 -15
23 -10 12 3 26 6 31 6 4 0 6 9 3 20 -3 13 0 20 9 20 10 0 13 -7 8 -25 -6 -23
-4 -25 32 -26 28 -1 32 -3 14 -6 -14 -3 -28 -10 -32 -17 -6 -8 -8 -8 -8 2 0 6
-8 12 -19 12 -20 0 -35 -47 -25 -75 7 -18 34 -20 34 -2 0 7 9 20 20 30 17 14
20 14 20 2 0 -8 -7 -15 -15 -15 -8 0 -15 -7 -15 -15 0 -8 9 -15 20 -15 11 0
20 -4 20 -10 0 -5 -4 -10 -10 -10 -5 0 -10 -7 -10 -15 0 -8 -4 -15 -9 -15 -5
0 -7 9 -4 20 4 16 0 20 -20 20 -14 0 -29 5 -33 11 -3 6 -19 9 -34 5 -23 -4
-29 -1 -34 17 -3 12 0 24 6 28 14 9 3 39 -15 39 -8 0 -18 -10 -24 -22 -7 -17
-18 -23 -42 -23 -18 0 -31 5 -31 13 0 7 -14 15 -30 19 -33 6 -41 33 -10 33 11
0 20 7 20 15 0 10 -11 15 -35 15 -32 0 -35 -2 -35 -29 0 -16 6 -32 13 -34 7
-3 5 -6 -5 -6 -13 -1 -18 7 -18 24 0 20 -5 25 -25 25 -14 0 -25 5 -25 10 0 6
-7 10 -15 10 -8 0 -15 -4 -15 -9 0 -23 14 -41 31 -41 16 0 18 -5 13 -25 -5
-19 -2 -25 10 -25 9 0 16 6 16 13 0 9 2 9 9 -1 5 -9 17 -11 34 -6 20 4 27 2
27 -9 0 -8 -7 -17 -15 -21 -8 -3 -15 -12 -15 -21 0 -27 41 -15 53 15 4 12 6
11 6 -2 1 -13 9 -18 31 -18 17 0 30 5 30 13 0 8 3 8 9 -2 5 -8 16 -11 25 -8
10 4 16 1 16 -7 0 -8 -5 -16 -12 -18 -7 -3 -9 -12 -5 -22 6 -14 16 -17 52 -14
25 2 44 -1 44 -7 0 -5 -9 -9 -19 -7 -30 5 -25 -25 8 -43 27 -16 27 -16 2 -11
-25 6 -80 -13 -80 -26 0 -5 -16 -8 -35 -8 -19 0 -35 -4 -35 -10 0 -5 -9 -10
-20 -10 -11 0 -20 -7 -20 -15 0 -9 9 -15 25 -15 14 0 25 4 25 10 0 5 7 7 15 4
8 -4 15 -12 15 -20 0 -8 7 -14 16 -14 8 0 13 -4 9 -9 -3 -6 -17 -4 -33 5 -15
7 -33 14 -39 14 -21 0 -15 -27 7 -33 11 -3 20 -11 20 -19 0 -10 -2 -10 -9 1
-5 8 -18 12 -30 8 -16 -4 -21 -1 -21 14 0 28 -36 25 -44 -4 -3 -12 -4 -31 -2
-42 2 -11 1 -14 -1 -7 -3 6 -13 12 -24 12 -17 0 -19 -5 -15 -37 3 -21 3 -30 0
-20 -6 18 -54 25 -54 7 0 -5 -11 -10 -24 -10 -17 0 -26 7 -30 25 -6 23 -36 36
-36 16 0 -21 13 -41 26 -41 8 0 14 -7 14 -15 0 -10 10 -15 30 -15 17 0 30 -4
30 -9 0 -5 -17 -5 -41 0 -22 5 -44 7 -49 4 -10 -6 -24 49 -23 90 3 71 6 91 10
69 3 -16 14 -24 39 -28 28 -6 34 -11 34 -31 0 -15 6 -25 14 -25 16 0 27 47 19
79 -5 19 -11 22 -34 17 -16 -3 -29 -2 -29 3 0 13 25 20 48 15 14 -4 21 1 26
18 l7 23 10 -25 c20 -48 59 -55 59 -10 0 17 4 30 10 30 5 0 9 22 9 50 -1 35
-6 50 -15 50 -8 0 -14 11 -14 25 0 14 -4 25 -10 25 -5 0 -10 9 -10 20 0 16 -7
20 -30 20 -30 0 -43 -23 -17 -33 6 -3 2 -6 -11 -6 -12 -1 -25 -8 -28 -16 -4
-8 -14 -15 -23 -15 -9 0 -23 -6 -30 -13 -11 -10 -12 -7 -6 13 4 14 12 26 16
28 15 6 10 32 -6 32 -8 0 -15 -7 -15 -15 0 -8 -4 -15 -10 -15 -5 0 -10 -6 -10
-14 0 -9 -7 -12 -19 -9 -14 3 -20 -2 -25 -22 -8 -30 -1 -45 21 -45 10 0 14 6
10 19 -3 13 0 18 8 15 19 -8 6 -44 -16 -44 -13 0 -19 -7 -20 -22 0 -23 -1 -22
-12 2 -6 14 -18 30 -27 37 -13 11 -13 12 1 13 17 0 34 43 24 59 -3 5 6 12 20
15 18 5 25 13 25 30 0 19 4 23 20 19 14 -4 20 0 20 11 0 9 -4 16 -9 16 -5 0
-7 8 -4 19 3 12 -2 20 -15 23 -27 7 -32 48 -9 71 10 10 20 31 24 47 3 17 11
30 17 30 6 0 17 9 24 20 7 11 18 20 26 20 8 0 16 7 20 15 3 8 16 15 28 15 21
-1 22 -2 6 -14 -10 -7 -18 -18 -18 -25 0 -16 26 -13 45 6 14 14 18 14 26 2 5
-8 9 -20 9 -26 0 -22 -34 -53 -57 -53 -15 0 -23 -6 -24 -17 0 -14 -3 -13 -11
5 -6 12 -19 22 -30 22 -10 0 -18 5 -18 10 0 6 -7 10 -15 10 -8 0 -15 -9 -15
-20 0 -11 7 -20 15 -20 8 0 25 -11 39 -25 33 -33 86 -35 86 -4 0 15 4 19 16
15 9 -3 22 -6 30 -6 8 0 14 -7 14 -15 0 -8 5 -15 10 -15 6 0 10 -6 10 -14 0
-8 6 -17 13 -19 7 -3 5 -6 -5 -6 -22 -1 -24 -31 -3 -31 8 0 15 -4 15 -10 0
-14 19 -13 34 3 8 6 23 19 35 27 25 17 27 35 6 44 -8 3 -15 14 -15 25 0 17
-18 31 -41 31 -15 0 -10 -40 6 -56 8 -9 15 -19 15 -24 0 -5 -7 -7 -15 -4 -8 4
-15 12 -15 19 0 7 -4 15 -9 17 -13 5 0 68 14 68 14 0 31 37 22 47 -3 2 -24 7
-46 10 -46 6 -53 18 -17 27 14 3 27 14 29 24 3 10 5 5 6 -12 1 -24 4 -27 24
-22 12 3 25 6 30 6 11 0 8 28 -4 32 -14 5 0 38 17 38 8 0 14 7 14 15 0 8 5 15
10 15 6 0 10 6 10 14 0 13 -28 26 -57 26 -18 0 -16 -28 2 -32 10 -2 12 -7 5
-18 -8 -13 -11 -13 -19 -1 -14 22 -55 6 -68 -26 l-11 -28 -1 28 c-1 24 -5 27
-33 27 -31 0 -33 3 -35 35 -1 19 3 35 8 35 5 0 9 7 9 15 0 8 5 15 10 15 6 0
10 7 10 15 0 8 -7 15 -15 15 -8 0 -15 -7 -15 -15 0 -9 -9 -15 -25 -15 -16 0
-25 -6 -25 -15 0 -8 -4 -15 -10 -15 -5 0 -10 -15 -11 -32 0 -18 -3 -27 -6 -20
-7 18 -73 16 -73 -3 0 -8 5 -15 10 -15 6 0 10 -7 10 -15 0 -8 9 -15 19 -15 11
0 26 7 35 15 18 19 24 19 42 1 20 -20 18 -23 -17 -30 -18 -3 -38 -14 -45 -24
-8 -10 -13 -12 -14 -4 0 20 -30 14 -30 -7 0 -30 -11 -51 -26 -51 -8 0 -14 -8
-14 -18 0 -10 -10 -29 -22 -41 l-21 -24 -16 37 c-9 20 -19 36 -23 36 -12 0
-58 -47 -58 -59 0 -14 23 -14 37 0 9 9 10 7 6 -10 -4 -15 -1 -21 11 -21 9 0
16 6 17 13 0 12 17 -20 18 -36 1 -4 -20 -7 -46 -5 -54 3 -68 -16 -36 -48 17
-17 17 -18 0 -11 -10 4 -21 7 -23 7 -2 0 -4 7 -4 15 0 8 -7 15 -15 15 -8 0
-15 -7 -15 -15 0 -8 5 -15 10 -15 6 0 10 -11 10 -25 0 -14 5 -25 12 -25 6 0 8
-3 5 -6 -4 -4 -13 -1 -21 6 -12 9 -22 9 -46 -1 -16 -8 -30 -19 -30 -25 0 -7
-7 -14 -15 -18 -8 -3 -20 -17 -25 -31 -7 -18 -17 -25 -35 -25 -14 0 -25 5 -25
10 0 6 9 10 20 10 22 0 28 35 8 43 -10 4 -10 6 0 6 6 1 12 7 12 15 0 10 15 17
43 21 l44 7 0 44 c0 36 -4 44 -16 42 -9 -2 -17 -15 -19 -30 l-3 -28 -25 25
c-24 24 -32 55 -14 55 6 0 10 -7 10 -15 0 -8 5 -15 10 -15 17 0 60 47 60 65 0
9 9 15 25 15 39 0 29 24 -17 43 -26 10 -32 15 -16 12 15 -3 44 2 65 10 29 12
43 13 70 4 18 -6 33 -17 33 -25 0 -8 5 -14 11 -14 16 0 39 26 39 44 0 19 -27
22 -33 3 -2 -6 -2 0 0 15 3 20 0 28 -10 28 -9 0 -17 -8 -19 -17 -3 -14 -7 -13
-31 9 -37 34 -34 48 9 48 35 0 64 18 64 39 0 14 -11 14 -44 1 -24 -9 -26 -7
-26 18 0 41 -13 54 -43 46 -33 -8 -35 -27 -4 -42 16 -8 18 -11 5 -11 -9 -1
-18 -7 -21 -13 -4 -10 -37 49 -37 65 0 2 25 9 55 16 37 9 55 17 55 28 0 11 -6
14 -26 9 -23 -6 -25 -5 -13 8 34 37 40 47 45 76 4 18 2 30 -4 30 -5 0 -8 9 -5
20 5 17 0 20 -31 20 -31 0 -36 -3 -36 -24 0 -19 -4 -22 -25 -18 -18 3 -25 0
-25 -12 0 -9 -4 -16 -10 -16 -5 0 -16 -12 -24 -27 -8 -16 -15 -22 -16 -15 0
14 -40 17 -40 3 0 -21 13 -41 26 -41 8 0 14 -6 14 -14 0 -8 8 -17 18 -19 16
-4 16 -5 0 -6 -21 -1 -25 -31 -4 -31 23 0 27 -28 5 -35 -10 -4 -19 -11 -19
-16 0 -5 -7 -9 -16 -9 -25 0 -12 -33 16 -41 l25 -7 -27 -1 c-21 -1 -27 -6 -30
-29 -2 -22 -7 -26 -25 -24 -31 4 -31 -26 0 -38 17 -7 18 -9 5 -9 -10 -1 -18
-6 -18 -12 0 -7 -14 -8 -41 -4 -41 7 -42 7 -35 -19 5 -19 3 -26 -9 -26 -8 0
-15 5 -15 11 0 6 -9 9 -20 6 -11 -3 -20 -1 -20 4 0 5 -7 9 -15 9 -8 0 -15 5
-15 10 0 6 -7 10 -15 10 -8 0 -15 -7 -15 -15 0 -8 7 -15 15 -15 8 0 15 -4 15
-10 0 -5 7 -10 16 -10 13 0 13 -2 -2 -17 -13 -13 -19 -14 -22 -5 -2 7 -10 18
-17 25 -7 7 -15 22 -19 34 -6 18 -1 21 39 27 29 5 45 12 45 22 0 8 5 14 10 14
6 0 10 6 10 14 0 13 -20 26 -41 26 -14 0 -11 -30 4 -31 20 -1 -26 -18 -51 -18
-34 -1 -54 -25 -46 -56 3 -14 10 -25 14 -25 4 0 11 -11 14 -25 4 -14 13 -25
21 -25 8 0 15 -4 15 -10 0 -17 22 -11 40 10 19 22 50 18 50 -6 0 -22 27 -16
54 11 14 14 30 25 36 25 5 0 10 5 10 10 0 6 7 10 15 10 8 0 15 5 15 10 0 6 9
10 20 10 24 0 26 -25 5 -46 -13 -14 -15 -14 -15 0 0 9 -7 16 -15 16 -8 0 -15
-4 -15 -10 0 -5 -7 -10 -15 -10 -10 0 -15 -11 -15 -35 0 -28 -4 -35 -20 -35
-11 0 -20 -3 -20 -7 0 -13 -49 -32 -56 -22 -3 5 -12 9 -20 9 -18 0 -19 -29 0
-36 17 -7 9 -54 -10 -54 -23 0 -29 4 -27 20 3 20 -17 70 -28 70 -5 0 -9 6 -9
14 0 8 -7 16 -15 20 -8 3 -12 11 -9 19 8 21 -13 65 -35 72 -23 7 -40 47 -22
53 6 2 11 10 11 18 0 8 7 14 15 14 8 0 15 7 15 15 0 8 -7 15 -15 15 -8 0 -15
-4 -15 -10 0 -5 -7 -10 -16 -10 -9 0 -14 3 -12 8 2 4 10 21 18 37 8 17 30 45
47 64 18 19 33 39 33 45 0 6 9 17 20 24 11 7 20 21 20 31 0 10 7 21 15 25 8 3
15 12 15 21 0 8 5 15 10 15 6 0 10 8 11 18 0 10 3 12 6 5 7 -18 33 -16 33 2 0
8 -4 15 -10 15 -5 0 -10 7 -10 15 0 8 -7 15 -15 15 -8 0 -15 -9 -15 -20 0 -11
-7 -20 -15 -20 -8 0 -15 -7 -15 -15 0 -8 -4 -15 -10 -15 -5 0 -10 -9 -10 -20
0 -13 -5 -18 -15 -14 -8 4 -15 12 -15 20 0 8 -7 14 -15 14 -8 0 -15 -9 -15
-20 0 -11 5 -20 11 -20 19 0 1 -47 -31 -82 -17 -18 -30 -40 -30 -50 0 -9 -9
-20 -20 -23 -11 -3 -20 -15 -20 -25 0 -27 -38 -14 -55 21 -23 43 -19 65 10 64
14 -1 28 -5 32 -8 14 -15 43 -7 43 12 0 24 -49 43 -90 34 -26 -5 -30 -3 -30
17 0 20 -4 22 -30 17 -26 -6 -30 -3 -30 14 0 35 -47 109 -69 109 -5 0 -13 17
-17 38 -9 52 -27 92 -41 92 -7 0 -13 7 -13 15 0 8 -7 15 -15 15 -8 0 -15 -4
-15 -9 0 -14 -56 7 -71 26 -11 13 -7 14 34 8 40 -6 47 -5 47 9 0 9 -7 19 -15
22 -20 8 -19 33 3 41 25 9 52 45 52 71 0 12 3 22 8 22 4 0 13 14 21 31 20 45
63 59 176 59 78 0 95 -3 95 -15 0 -8 -7 -15 -15 -15 -8 0 -15 -7 -15 -15 0 -8
7 -15 15 -15 8 0 15 5 15 10 0 6 7 10 15 10 8 0 15 8 15 18 0 16 14 21 85 32
68 11 85 17 83 29 -3 12 -19 16 -81 17 -80 2 -217 30 -217 45 0 4 -18 13 -41
19 -22 6 -50 21 -61 32 l-21 21 39 31 c59 47 134 123 134 135 0 13 -36 15 -44
2 -3 -5 -15 -7 -26 -4 -17 4 -20 1 -18 -23 2 -15 -3 -29 -10 -32 -7 -2 -31
-21 -54 -43 -45 -42 -63 -48 -72 -24 -3 8 -12 15 -21 15 -21 0 -19 23 5 40 11
8 20 20 20 27 0 7 5 13 10 13 6 0 10 7 10 15 0 8 -7 15 -15 15 -8 0 -15 -5
-15 -10 0 -6 -11 -22 -25 -36 -18 -18 -25 -21 -25 -9 0 8 5 15 10 15 6 0 10 6
10 14 0 8 4 16 9 18 5 2 13 15 16 31 6 21 4 27 -9 27 -9 0 -16 -7 -16 -15 0
-8 -4 -15 -9 -15 -5 0 -12 -11 -15 -25 -7 -26 -20 -32 -31 -15 -3 6 -1 10 4
10 6 0 11 9 11 20 0 22 -25 28 -33 8 -3 -7 -6 -4 -6 8 -1 11 -6 25 -13 32 -6
6 -11 32 -11 57 0 25 -4 45 -9 45 -4 0 -8 27 -8 60 0 47 3 60 15 60 8 0 15 7
15 15 0 8 -6 15 -14 15 -11 0 -13 9 -9 38 3 20 10 39 15 40 4 2 8 15 8 29 0
13 7 31 15 39 19 19 20 54 1 54 -18 0 -33 -19 -41 -53 -4 -15 -11 -27 -16 -27
-4 0 -11 -15 -14 -34 -5 -22 -14 -36 -26 -39 -24 -6 -24 4 1 53 11 22 20 51
20 65 0 15 7 28 18 32 25 9 52 34 52 50 0 18 -19 16 -44 -4 l-21 -18 20 25
c11 14 28 32 38 41 21 20 22 39 2 39 -8 0 -15 5 -15 10 0 6 -7 10 -15 10 -8 0
-15 -7 -15 -15 0 -8 -3 -15 -7 -15 -5 0 -21 -20 -36 -45 -16 -25 -34 -45 -40
-44 -11 0 -67 105 -67 123 0 11 -27 36 -38 36 -6 0 -12 -5 -14 -12 -4 -12 -48
19 -48 35 0 4 -13 21 -29 36 -22 21 -28 35 -24 52 5 19 3 21 -15 17 -12 -4
-22 -3 -22 2 0 10 31 18 48 13 6 -3 12 -11 12 -19 0 -14 27 -63 40 -74 4 -3 9
-13 13 -22 8 -22 47 -24 47 -3 0 8 -4 15 -10 15 -5 0 -10 7 -10 15 0 7 -6 18
-13 22 -7 4 -19 23 -26 41 -8 17 -18 32 -23 32 -5 0 -6 5 -2 11 4 8 9 7 15 -2
7 -11 16 -10 49 9 33 18 40 20 40 7 0 -8 7 -15 15 -15 8 0 15 5 15 11 0 11 6
10 63 -8 13 -4 17 1 18 18 1 17 3 19 6 7 2 -10 11 -18 19 -18 17 0 19 26 2 33
-7 3 2 8 20 12 19 5 32 14 32 23 0 11 -9 14 -45 10 -25 -3 -45 -2 -45 3 0 13
-27 11 -50 -3 -16 -10 -22 -10 -28 -1 -4 6 -20 15 -35 18 -21 6 -27 4 -27 -10
0 -12 -5 -15 -20 -10 -12 4 -27 1 -35 -5 -12 -10 -15 -9 -15 3 0 9 5 19 11 22
6 4 7 19 4 36 -5 21 -2 31 9 35 27 10 19 34 -11 34 -16 0 -23 4 -17 8 6 4 15
15 21 25 9 17 11 16 23 -12 7 -17 19 -31 26 -31 18 0 18 18 -1 54 -8 15 -15
32 -15 36 0 13 44 20 51 8 4 -6 14 -8 25 -3 26 11 214 14 214 4 0 -5 7 -9 15
-9 8 0 15 4 15 9 0 4 52 9 115 9 65 0 115 -3 115 -9 0 -5 7 -9 15 -9 8 0 15 5
15 10 0 6 11 10 25 10 14 0 25 -4 25 -10 0 -5 17 -10 38 -11 l37 -1 -35 -8
c-22 -5 -37 -5 -41 2 -7 11 -49 1 -49 -12 0 -4 -9 -6 -20 -3 -11 3 -20 12 -20
19 0 8 -9 14 -21 14 -17 0 -20 -4 -15 -24 5 -19 1 -26 -14 -31 -23 -7 -27 -35
-6 -35 8 0 22 7 30 16 15 14 16 14 16 0 0 -9 4 -16 9 -16 12 0 34 -67 26 -80
-3 -5 -14 -10 -23 -9 -11 0 -12 3 -4 6 17 7 15 33 -3 33 -8 0 -15 -6 -15 -14
0 -9 -7 -12 -20 -9 -13 3 -20 0 -21 -8 -1 -8 -4 -1 -8 16 -4 18 -14 31 -25 33
-15 3 -17 -1 -11 -27 5 -24 3 -31 -8 -31 -10 0 -13 7 -10 20 6 23 -13 26 -39
6 -20 -15 -24 -36 -7 -36 16 0 39 -26 41 -47 3 -41 -2 -51 -22 -46 -14 4 -20
0 -20 -10 0 -10 13 -18 35 -23 19 -3 35 -12 35 -19 0 -8 9 -17 20 -20 11 -3
20 -11 20 -16 0 -5 7 -9 15 -9 18 0 20 26 3 33 -8 3 -6 6 5 6 11 1 17 9 17 25
0 35 15 40 16 5 1 -16 -3 -29 -8 -29 -5 0 -6 -15 -3 -34 5 -26 3 -36 -10 -43
-26 -15 -10 -63 21 -63 25 0 34 25 12 33 -7 2 0 2 17 -1 40 -6 76 -52 40 -52
-8 0 -15 5 -15 10 0 6 -7 10 -16 10 -12 0 -15 -7 -12 -30 6 -41 -9 -49 -17 -9
-5 24 -11 30 -26 26 -10 -3 -19 -1 -19 4 0 5 -7 9 -15 9 -8 0 -15 -7 -15 -15
0 -8 7 -15 15 -15 8 0 15 -7 15 -15 0 -8 -7 -15 -15 -15 -8 0 -15 -9 -15 -19
0 -11 -9 -23 -20 -26 -11 -3 -20 -13 -20 -20 0 -19 38 -28 95 -23 25 2 45 0
45 -4 0 -5 -4 -8 -10 -8 -5 0 -10 -6 -10 -14 0 -7 -18 -32 -40 -55 -22 -22
-40 -45 -40 -50 0 -5 -9 -13 -21 -16 -14 -5 -19 -13 -16 -25 3 -13 0 -16 -14
-13 -15 4 -19 0 -19 -22 0 -23 3 -26 23 -21 12 3 25 6 29 6 3 0 11 15 17 33 8
25 17 32 36 32 14 0 25 -3 25 -7 0 -5 7 -8 15 -8 8 0 15 -7 15 -15 0 -8 5 -15
10 -15 6 0 10 -7 10 -15 0 -17 46 -39 67 -31 7 3 13 -1 13 -9 0 -8 -4 -15 -10
-15 -5 0 -10 -7 -10 -15 0 -8 7 -15 15 -15 8 0 15 7 15 15 0 17 16 20 26 4 3
-6 16 -8 29 -5 17 4 25 0 33 -19 7 -15 8 -25 2 -25 -6 0 -10 5 -10 10 0 6 -7
10 -15 10 -10 0 -15 -8 -13 -22 3 -31 -12 -99 -26 -114 -6 -6 -18 -9 -28 -6
-11 2 -18 -1 -18 -9 0 -8 -3 -24 -6 -36 -5 -19 -2 -23 15 -23 11 0 21 -4 21
-10 0 -15 30 -12 36 4 6 16 42 10 62 -11 7 -7 20 -13 28 -13 8 0 14 -7 14 -15
0 -8 9 -15 20 -15 13 0 20 -7 20 -19 0 -11 9 -23 20 -26 21 -7 48 -45 31 -45
-5 0 -11 7 -15 15 -3 9 -18 15 -36 15 -42 0 -39 -26 4 -34 25 -5 37 -14 44
-34 14 -35 10 -92 -5 -92 -7 0 -13 -7 -13 -16 0 -13 7 -15 30 -11 16 4 32 2
35 -3 3 -6 -1 -10 -9 -10 -9 0 -16 -7 -16 -15 0 -8 3 -15 6 -15 19 0 90 25 96
34 4 6 10 8 13 4 9 -8 -26 -48 -42 -48 -7 0 -13 -7 -13 -15 0 -23 47 -19 60 5
10 18 13 19 25 6 21 -21 19 -46 -5 -46 -16 0 -20 -7 -20 -30 0 -35 19 -40 39
-8 13 20 14 20 23 3 8 -13 7 -20 -6 -27 -9 -5 -16 -16 -16 -23 0 -22 31 -18
37 4 4 16 9 18 36 10 46 -13 45 -14 43 41 -1 28 1 50 5 50 4 0 11 9 14 20 9
27 23 25 31 -4 3 -15 16 -27 32 -31 26 -7 26 -7 6 -15 -19 -7 -44 -55 -44 -83
0 -6 19 -7 49 -3 37 5 50 3 54 -8 4 -9 0 -12 -12 -9 -20 5 -61 -28 -61 -51 0
-9 7 -16 15 -16 8 0 15 6 15 14 0 8 6 16 12 19 14 4 59 -12 69 -25 10 -14 69
3 70 21 0 10 2 11 6 4 2 -7 9 -13 15 -13 14 0 37 31 38 50 0 8 9 21 20 28 17
10 20 10 20 -3 0 -8 -4 -15 -10 -15 -14 0 -12 -27 3 -33 6 -3 2 -6 -10 -6 -13
-1 -23 -6 -23 -11 0 -6 -11 -22 -25 -36 -14 -14 -25 -31 -25 -39 0 -12 -5 -12
-26 -3 -21 10 -27 9 -35 -3 -23 -36 -12 -40 79 -30 6 0 12 10 12 20 0 12 9 21
25 25 14 4 25 13 25 21 0 8 9 15 20 15 11 0 29 9 40 20 19 19 50 28 50 14 0
-11 -29 -34 -44 -34 -9 0 -16 -7 -16 -15 0 -8 9 -15 20 -15 11 0 20 5 20 10 0
17 18 11 25 -9 3 -10 18 -22 33 -26 15 -4 29 -10 32 -15 3 -5 18 -12 33 -15
21 -6 27 -4 27 8 0 9 -13 18 -30 22 -16 4 -30 10 -30 15 0 4 -10 10 -23 14
-17 5 -19 8 -8 15 7 5 22 6 33 3 18 -4 19 -2 13 27 -4 20 -3 31 4 31 6 0 11 7
11 15 0 8 -5 15 -10 15 -6 0 -5 8 2 20 11 16 9 22 -9 40 -12 11 -26 20 -31 20
-15 0 0 68 16 75 9 3 18 1 20 -4 6 -17 32 -13 32 4 0 8 -7 15 -15 15 -10 0
-15 10 -15 26 0 21 -4 25 -19 21 -14 -3 -18 -1 -14 9 6 16 19 18 28 4 8 -13
85 -13 85 0 0 6 9 19 20 30 27 27 26 52 -2 48 -15 -2 -24 3 -26 15 -2 10 3 17
13 17 8 0 18 7 21 15 8 21 19 19 46 -8 24 -24 87 -41 114 -30 8 3 14 19 14 39
0 19 5 34 11 34 6 0 9 9 6 20 -4 16 0 20 20 20 22 0 24 3 19 24 -6 26 23 63
31 39 3 -7 13 -13 24 -13 10 0 19 -7 19 -15 0 -8 7 -15 15 -15 8 0 15 7 15 15
0 8 -4 15 -10 15 -5 0 -10 5 -10 12 0 9 3 9 12 0 20 -20 41 -15 35 8 -6 23 11
27 19 5 8 -21 34 -19 35 3 0 10 3 12 6 5 7 -18 33 -16 33 2 0 8 -7 15 -15 15
-8 0 -15 5 -15 11 0 6 -9 9 -20 6 -11 -3 -20 -2 -20 3 0 12 33 22 39 12 3 -5
21 -13 39 -17 30 -6 33 -5 30 12 -2 10 2 23 9 28 9 7 11 23 6 48 -5 32 -9 38
-26 33 -15 -4 -17 -2 -8 7 17 17 14 67 -4 67 -8 0 -15 -9 -15 -20 0 -11 -4
-20 -8 -20 -12 0 -1 64 12 72 17 12 26 9 26 -7 0 -8 4 -15 9 -15 5 0 12 -11
15 -24 3 -14 16 -26 31 -30 32 -8 32 -26 0 -26 -20 0 -25 -5 -25 -25 0 -19 5
-25 21 -25 11 0 27 -7 36 -16 14 -14 14 -16 -6 -21 -11 -3 -21 -9 -21 -13 0
-5 -9 -6 -20 -3 -13 4 -20 0 -20 -10 0 -8 11 -18 25 -21 14 -4 25 -11 25 -16
0 -6 7 -10 15 -10 8 0 15 7 15 15 0 8 -5 15 -11 15 -5 0 -7 5 -4 10 9 15 25
12 25 -5 0 -9 9 -15 25 -15 16 0 25 6 25 15 0 8 -9 15 -20 15 -11 0 -20 4 -20
8 0 5 13 7 29 4 22 -3 28 -8 24 -23 -4 -13 0 -19 11 -19 9 0 16 5 16 10 0 6 7
10 15 10 8 0 15 -4 15 -9 0 -5 8 -12 18 -14 16 -4 16 -5 0 -6 -22 -1 -24 -31
-3 -31 8 0 15 5 15 10 0 6 7 10 15 10 8 0 15 -4 15 -10 0 -5 7 -10 15 -10 8 0
15 7 15 15 0 8 -7 15 -15 15 -8 0 -15 5 -15 10 0 6 -8 10 -17 11 -11 0 -13 3
-5 6 6 2 12 11 12 19 0 17 -27 19 -32 2 -3 -9 -9 -8 -22 5 -10 9 -35 20 -57
23 -23 4 -39 12 -39 20 0 8 -7 14 -16 14 -8 0 -12 5 -9 10 5 8 11 7 21 -1 21
-17 114 -22 114 -5 0 25 -38 58 -59 51 -10 -3 -22 -1 -26 5 -3 5 0 10 9 10 8
0 17 13 21 30 7 33 41 42 52 14 4 -11 13 -13 33 -9 23 5 27 3 26 -17 -1 -14 6
-24 17 -26 10 -2 17 3 17 11 0 21 23 27 45 11 22 -16 45 -18 45 -4 0 16 -50
60 -69 60 -9 0 -27 11 -39 25 -12 14 -32 25 -44 25 -13 0 -33 3 -45 6 -17 5
-23 2 -23 -9 0 -8 6 -18 13 -20 6 -3 2 -6 -10 -6 -13 -1 -23 -7 -23 -15 0 -8
-9 -18 -20 -21 -11 -3 -20 -13 -20 -21 0 -8 -4 -14 -10 -14 -5 0 -10 -9 -10
-20 0 -28 -27 -15 -35 18 -4 15 -11 30 -17 33 -6 4 -1 10 11 14 11 3 21 14 22
23 0 11 3 12 6 5 7 -18 33 -16 33 2 0 8 7 15 15 15 8 0 15 7 15 16 0 13 -8 15
-35 12 l-34 -4 36 33 c19 18 39 33 44 33 5 0 9 7 9 15 0 8 5 15 10 15 6 0 10
-4 10 -10 0 -5 7 -10 15 -10 8 0 15 7 15 15 0 8 -7 15 -15 15 -8 0 -15 5 -15
10 0 6 -7 10 -15 10 -8 0 -15 -7 -15 -15 0 -9 -13 -2 -36 20 -20 19 -42 35
-50 35 -25 0 -15 -28 16 -47 33 -19 38 -37 15 -59 -13 -14 -15 -13 -15 4 0 17
-8 30 -50 79 -14 17 -13 23 5 23 16 0 19 9 9 34 -7 19 -30 21 -37 4 -3 -8 -6
-6 -6 5 -1 9 5 17 13 17 8 0 16 4 18 9 2 4 14 11 28 15 14 3 19 3 13 0 -18 -8
-16 -34 2 -34 11 0 14 -7 9 -24 -5 -20 -1 -24 28 -30 19 -4 34 -2 36 4 2 5 15
7 28 4 25 -6 25 -5 28 54 1 9 6 22 13 27 6 6 14 24 16 40 4 27 4 26 6 -7 l1
-38 120 0 120 0 0 -30 c0 -37 25 -41 34 -5 6 24 36 36 36 15 0 -5 7 -10 15
-10 8 0 15 5 15 10 0 6 15 10 34 10 32 0 34 2 34 35 0 35 -21 49 -31 23 -3 -8
-6 -6 -6 5 -1 9 6 17 14 17 24 0 17 28 -7 32 -20 3 -20 4 -6 10 10 4 23 1 32
-7 8 -8 19 -15 25 -15 6 0 11 -4 11 -9 0 -15 30 -41 46 -41 8 0 14 7 14 15 0
8 5 15 10 15 6 0 10 7 10 15 0 8 -7 15 -15 15 -8 0 -15 -7 -15 -16 0 -8 -5
-12 -11 -8 -8 4 -8 9 0 17 23 23 12 39 -24 35 -19 -2 -35 0 -35 4 0 4 6 8 14
8 19 0 45 62 28 68 -7 2 -12 10 -12 18 0 8 -10 14 -25 14 -14 0 -25 5 -25 10
0 6 -13 10 -30 10 -20 0 -30 -5 -30 -15 0 -8 7 -15 15 -15 8 0 15 -4 15 -10 0
-5 -5 -10 -11 -10 -13 0 -39 -25 -39 -38 0 -6 7 -12 15 -16 8 -3 15 -13 15
-23 0 -15 -2 -15 -21 4 -20 20 -21 25 -10 68 6 25 9 50 6 56 -4 5 -1 9 4 9 6
0 11 7 11 15 0 8 -6 15 -13 15 -11 0 -42 39 -35 45 2 1 18 5 36 8 24 5 32 3
32 -8 0 -8 7 -15 15 -15 18 0 18 7 4 49 -6 17 -17 31 -24 31 -19 0 -25 38 -9
54 8 8 14 26 14 40 0 24 -3 26 -45 26 -25 0 -45 5 -45 10 0 6 -7 10 -15 10 -8
0 -15 -4 -15 -10 0 -21 -28 -9 -34 15 -4 14 -14 25 -22 25 -11 0 -15 -6 -11
-20 4 -16 0 -20 -19 -20 -13 0 -24 5 -24 10 0 6 5 10 10 10 6 0 10 7 10 15 0
12 19 15 110 15 l110 0 0 -26 c0 -19 4 -25 18 -22 10 2 17 12 16 24 0 14 6 20
20 20 15 -1 21 5 21 19 0 19 -7 20 -128 20 -124 0 -128 1 -134 23 -3 12 -12
22 -20 22 -10 0 -14 -7 -11 -17 4 -15 -2 -18 -41 -18 -40 0 -46 -3 -49 -22 -3
-20 1 -23 27 -23 17 0 31 -4 31 -10 0 -5 -4 -10 -10 -10 -5 0 -10 -6 -10 -14
0 -8 -4 -17 -9 -20 -5 -4 -7 3 -4 14 8 29 -23 26 -32 -2 -4 -14 -8 -18 -12
-10 -13 32 -52 -12 -54 -62 0 -17 -2 -16 -10 6 -7 17 -23 32 -43 39 -38 14
-63 55 -37 62 9 2 25 0 36 -4 19 -7 19 -8 -2 -8 -35 -1 -29 -31 6 -31 22 0 30
6 35 25 5 21 12 25 41 25 28 0 35 4 35 20 0 13 -7 20 -19 20 -11 0 -21 5 -23
11 -2 6 -30 13 -63 15 -66 4 -66 4 -84 58 -14 42 -6 56 32 56 9 0 17 7 17 15
0 10 -10 15 -27 15 -22 0 -25 2 -13 10 13 8 13 13 -3 39 -14 23 -16 42 -11 85
6 48 10 56 28 56 34 0 116 33 116 47 0 17 -40 16 -64 -2 -29 -22 -43 -18 -18
4 25 21 29 41 7 41 -8 0 -15 -4 -15 -8 0 -7 -43 -32 -53 -32 -1 0 -3 25 -4 55
-1 41 2 55 13 55 8 0 14 7 14 15 0 9 11 21 25 27 14 6 25 18 26 27 0 10 2 12
6 4 8 -21 33 -15 33 7 0 11 7 20 15 20 8 0 15 -4 15 -10 0 -5 7 -10 16 -10 11
0 15 6 11 19 -4 16 2 21 24 26 16 4 29 10 29 15 0 4 11 11 25 14 14 4 25 13
25 21 0 17 -75 22 -85 5 -3 -5 -19 -10 -34 -10 -21 0 -31 -7 -41 -27 -7 -16
-15 -23 -17 -15 -6 14 -33 16 -33 2 0 -5 -7 -10 -15 -10 -22 0 -18 18 5 25 33
11 19 49 -27 74 -14 7 -23 21 -22 34 0 12 3 16 6 10 7 -18 21 -16 41 3 10 11
17 13 20 5 5 -15 29 -14 35 3 3 7 22 16 41 20 20 4 36 11 36 15 0 5 22 11 49
15 40 5 51 11 57 29 8 28 26 40 36 24 6 -9 12 -9 28 1 15 9 26 10 40 2 11 -6
20 -13 20 -16 0 -3 -5 -2 -11 1 -18 12 -79 -5 -79 -22 0 -11 6 -14 24 -9 14 3
36 2 50 -4 33 -12 86 -2 86 16 0 8 -10 15 -22 15 -19 1 -20 2 -5 6 15 4 17 11
12 31 -3 15 -13 33 -22 40 -15 11 -15 12 5 12 13 0 22 6 22 15 0 10 -10 15
-31 15 -29 0 -30 2 -27 38 2 28 9 40 26 47 20 8 23 15 19 42 -4 20 -1 33 6 36
9 3 7 13 -5 39 -10 22 -13 40 -7 49 7 11 9 9 9 -8 0 -30 26 -30 34 0 14 54 -4
75 -38 42 -16 -17 -42 -20 -51 -6 -3 5 -19 9 -35 9 -38 -1 -43 3 -35 35 8 29
35 44 46 25 5 -7 4 -14 -1 -16 -6 -2 -10 -10 -10 -19 0 -11 7 -13 33 -8 47 11
61 40 32 69 -8 8 -15 22 -15 30 0 9 -4 16 -9 16 -5 0 -7 9 -4 20 6 22 -22 29
-30 8 -3 -10 -8 -10 -17 -2 -9 9 2 16 47 31 36 12 59 26 61 36 2 10 -3 17 -12
17 -9 0 -16 7 -16 15 0 8 5 15 10 15 6 0 10 -5 10 -11 0 -6 9 -9 20 -6 10 3
20 1 22 -3 4 -12 58 -24 58 -13 0 5 14 8 30 5 22 -3 30 0 30 11 0 9 -8 18 -17
20 -13 3 -11 5 6 6 18 1 22 5 18 21 -3 11 -1 20 5 20 6 0 8 9 5 20 -3 11 -1
20 5 20 6 0 8 -13 4 -34 -6 -29 -3 -34 16 -40 38 -10 58 -7 58 9 0 8 5 15 10
15 6 0 10 -7 10 -15 0 -9 9 -15 25 -15 14 0 25 -4 25 -10 0 -5 7 -10 15 -10 8
0 15 7 15 15 0 8 -6 15 -14 15 -8 0 -17 8 -20 17 -7 17 9 33 32 33 6 0 12 7
12 15 0 8 -9 15 -20 15 -11 0 -20 5 -20 11 0 24 -44 50 -52 31 -1 -5 -25 -11
-53 -14 -27 -3 -42 -4 -32 -1 9 2 17 11 17 20 0 11 -7 14 -27 9 -27 -6 -27 -6
-9 9 11 8 26 15 33 15 7 0 13 7 13 15 0 8 -4 15 -8 15 -13 0 -35 47 -28 59 5
8 12 6 22 -4 20 -20 64 -20 64 0 0 8 -8 15 -18 15 -10 0 -25 9 -35 20 -21 25
-22 31 -2 24 8 -4 15 -12 15 -19 0 -8 13 -13 35 -13 19 0 35 4 35 9 0 14 27
11 43 -6 8 -7 26 -17 41 -21 20 -5 26 -2 26 10 0 9 -7 16 -15 16 -8 0 -15 8
-14 18 0 10 3 12 6 5 16 -41 22 10 23 191 0 185 -2 206 -17 215 -17 10 -17 10
0 11 14 0 17 9 17 49 0 30 -5 51 -12 54 -10 4 -10 6 0 6 7 1 12 14 12 31 0 30
-14 41 -23 18 -3 -8 -6 -6 -6 5 -1 9 -8 17 -16 17 -8 0 -15 7 -15 15 0 11 -11
15 -40 15 -29 0 -40 -4 -40 -15 0 -8 7 -15 16 -15 14 0 14 -2 0 -15 -8 -8 -17
-15 -21 -15 -11 0 -35 -28 -35 -40 0 -7 8 -10 20 -7 11 3 18 1 14 -4 -9 -15
-44 -10 -44 6 0 18 -14 19 -41 5 -15 -8 -19 -7 -19 5 0 8 -7 15 -15 15 -18 0
-20 -26 -2 -33 10 -4 10 -6 0 -6 -17 -1 -17 -28 0 -34 6 -3 0 -6 -15 -6 -14
-1 -29 -7 -31 -13 -4 -9 -8 -10 -14 -2 -4 6 -20 14 -35 18 -32 7 -38 26 -8 26
11 0 20 -4 20 -10 0 -5 7 -10 15 -10 19 0 19 17 1 36 -17 16 -56 19 -56 4 0
-5 -6 -10 -14 -10 -8 0 -17 -6 -19 -12 -3 -7 -6 -3 -6 10 -1 21 -31 33 -31 12
0 -5 -4 -10 -10 -10 -5 0 -10 7 -10 15 0 9 -10 15 -22 16 -17 1 -19 2 -5 6 9
2 17 11 17 20 0 11 -6 14 -22 9 -13 -3 -26 -6 -30 -6 -5 0 -8 -7 -8 -15 0 -8
-7 -15 -15 -15 -8 0 -15 -4 -15 -10 0 -5 -7 -10 -15 -10 -8 0 -15 -7 -15 -15
0 -17 26 -21 32 -5 4 14 65 1 72 -15 3 -9 -2 -11 -16 -7 -17 4 -20 1 -16 -14
6 -22 -17 -50 -27 -34 -3 6 -1 10 4 10 6 0 11 10 11 23 0 21 -5 23 -55 24 -30
1 -57 -3 -60 -8 -4 -5 -16 -9 -28 -9 -16 0 -11 6 21 21 23 12 42 27 42 35 0
18 -20 18 -48 -2 -20 -14 -24 -14 -38 0 -8 9 -21 16 -27 16 -8 0 -8 3 1 8 7 5
14 22 15 38 2 28 0 29 -38 29 -35 0 -40 -3 -39 -23 0 -15 -3 -19 -9 -13 -14
14 12 63 36 69 9 2 17 11 17 18 0 8 7 14 15 14 8 0 15 7 15 15 0 9 -9 15 -25
15 -14 0 -25 -6 -25 -13 0 -9 -11 -12 -35 -9 -27 3 -35 1 -35 -12 0 -9 7 -16
16 -16 14 0 14 -3 4 -15 -7 -8 -19 -15 -26 -15 -8 0 -14 -5 -14 -11 0 -6 -7
-17 -15 -25 -13 -14 -15 -12 -15 14 0 17 -6 32 -15 36 -8 3 -15 15 -15 26 0
11 -6 20 -13 20 -7 0 -19 16 -26 35 -11 31 -41 50 -41 25 0 -20 24 -60 35 -60
7 0 15 -13 17 -30 3 -16 1 -30 -4 -30 -4 0 -8 -6 -8 -12 0 -14 -93 -16 -144
-3 -27 7 -29 6 -23 -16 4 -13 7 -27 7 -31 0 -11 30 -10 30 1 0 4 12 6 26 3 16
-3 21 -7 14 -12 -6 -4 -11 -13 -10 -21 5 -34 -1 -49 -19 -49 -14 0 -18 5 -14
20 4 13 0 20 -10 20 -8 0 -18 11 -21 25 -4 14 -11 25 -16 25 -6 0 -10 6 -10
14 0 8 -6 17 -12 20 -10 5 -10 7 0 12 6 3 12 12 12 20 0 17 -26 19 -33 2 -4
-10 -6 -10 -6 0 -1 7 6 15 14 18 23 9 19 37 -5 31 -17 -4 -19 -1 -14 18 4 17
0 26 -15 35 -12 6 -21 17 -21 25 0 8 -7 15 -15 15 -8 0 -15 -3 -15 -7 0 -5
-23 -9 -50 -10 -38 -1 -50 2 -50 13 0 8 -7 14 -15 14 -8 0 -15 -4 -15 -10 0
-5 -7 -10 -15 -10 -14 0 -20 27 -16 73 1 9 -4 17 -13 17 -9 0 -16 -4 -16 -10
0 -5 -7 -10 -15 -10 -14 0 -35 -29 -35 -49 0 -6 7 -11 15 -11 8 0 15 -4 15
-10 0 -12 0 -12 -39 1 -17 6 -31 16 -31 21 0 6 -9 8 -20 5 -13 -3 -20 0 -20 9
0 8 -6 14 -14 14 -17 0 -33 -43 -18 -48 9 -3 3 -46 -13 -84 -8 -19 -35 -25
-35 -8 0 18 -30 11 -31 -7 0 -16 -1 -16 -8 1 -4 11 -5 30 -3 43 4 21 9 23 33
18 31 -7 38 6 20 34 -8 12 -14 13 -36 3 -38 -17 -55 -15 -55 8 0 11 -4 20 -10
20 -5 0 -10 4 -10 9 0 5 9 7 20 4 13 -4 20 0 20 10 0 20 -50 32 -61 15 -12
-19 -11 -68 2 -68 6 0 3 -7 -6 -16 -9 -10 -14 -25 -12 -35 6 -21 -14 -31 -34
-18 -11 7 -11 9 4 9 9 0 17 7 17 16 0 12 -6 15 -22 10 -13 -3 -26 -6 -30 -6
-12 0 -9 -30 2 -30 6 0 10 -13 10 -29 0 -23 5 -31 23 -34 l22 -4 -22 -2 c-28
-1 -31 -31 -3 -31 11 0 20 -7 20 -15 0 -17 -17 -20 -22 -4 -5 15 -58 0 -58
-16 0 -17 43 -32 48 -17 2 8 7 8 16 -1 17 -15 -3 -37 -33 -37 -12 0 -21 -6
-21 -15 0 -9 9 -15 24 -15 22 0 24 -3 17 -27 -15 -49 -39 -99 -40 -80 -1 21
-31 23 -31 2 0 -9 -12 -18 -29 -21 -21 -4 -32 -14 -37 -33 -5 -20 -8 -22 -11
-8 -5 18 -33 24 -33 7 0 -5 -5 -10 -11 -10 -12 0 -39 -25 -39 -36 0 -3 10 -16
23 -27 15 -13 18 -21 10 -24 -7 -3 -13 -16 -13 -29 0 -31 -16 -31 -24 1 -6 25
-36 36 -36 13 0 -9 -3 -9 -12 0 -24 24 -48 13 -68 -30 -10 -24 -19 -37 -19
-30 -1 6 -8 12 -16 12 -8 0 -15 7 -15 15 0 8 -7 15 -15 15 -8 0 -15 5 -15 10
0 6 -7 10 -15 10 -8 0 -15 -7 -15 -15 0 -8 7 -15 15 -15 8 0 15 -4 15 -10 0
-5 7 -10 15 -10 8 0 15 -7 15 -15 0 -8 7 -15 16 -15 9 0 14 -3 12 -7 -2 -5
-12 -32 -23 -60 -11 -29 -23 -53 -27 -53 -5 0 -8 -9 -8 -21 0 -11 -6 -33 -14
-47 -8 -15 -17 -35 -20 -44 -3 -11 -15 -18 -31 -18 -16 0 -25 -6 -25 -15 0 -8
7 -15 15 -15 24 0 17 -36 -10 -54 -22 -14 -25 -15 -25 -1 0 8 -7 15 -15 15 -8
0 -15 -7 -15 -15 0 -8 5 -15 10 -15 6 0 10 -7 10 -15 0 -8 7 -15 15 -15 12 0
12 -6 -2 -44 -13 -34 -20 -42 -35 -38 -21 5 -26 -24 -5 -31 9 -3 9 -9 0 -28
-7 -13 -17 -36 -23 -51 -5 -16 -14 -28 -20 -28 -5 0 -13 -18 -16 -41 -4 -22
-15 -50 -25 -62 l-17 -22 -13 30 c-7 17 -12 47 -12 68 0 20 -3 37 -8 37 -5 0
-9 16 -9 35 0 19 -5 35 -11 35 -14 0 -40 26 -33 33 3 3 10 23 14 44 12 50 2
111 -19 116 -13 4 -12 5 3 6 14 1 17 6 11 24 -7 21 -20 117 -29 207 -2 24 -11
49 -18 55 -8 5 -12 18 -10 28 4 20 -24 24 -31 5 -3 -7 -6 0 -6 15 -1 16 5 30
14 33 9 4 15 19 15 35 0 19 -5 29 -15 29 -8 0 -15 -4 -15 -10 0 -5 -7 -10 -16
-10 -22 0 -47 -28 -40 -46 3 -9 -1 -22 -9 -30 -13 -14 -15 -14 -15 0 0 11 -9
16 -26 16 -21 0 -25 -4 -21 -20 3 -13 0 -20 -9 -20 -8 0 -14 -7 -14 -16 0 -12
6 -15 21 -11 11 3 26 4 33 1 17 -6 12 -55 -7 -65 -8 -5 -21 -25 -27 -44 -6
-19 -18 -35 -26 -35 -8 0 -14 -4 -14 -10 0 -5 -7 -10 -15 -10 -18 0 -20 -26
-2 -33 7 -3 5 -6 -5 -6 -19 -1 -25 -27 -8 -33 5 -1 -19 -61 -53 -131 l-62
-128 -24 50 c-16 34 -30 51 -42 51 -24 0 -32 16 -34 70 -1 35 -20 82 -83 209
-45 91 -82 171 -82 178 0 15 -36 18 -45 3 -3 -5 -17 -10 -30 -10 -26 0 -28 -5
-45 -137 -10 -75 -16 -92 -31 -96 -22 -6 -26 -35 -6 -43 13 -5 11 -74 -2 -74
-4 0 -7 -24 -7 -52 -1 -29 -9 -100 -19 -157 -9 -57 -14 -121 -11 -142 7 -42
11 -40 -63 -43 -39 -1 -47 -11 -33 -40 11 -24 14 -25 82 -19 49 4 70 3 70 -6
0 -7 -33 -11 -107 -11 -60 0 -138 -3 -175 -7 l-68 -6 0 32 c0 27 5 35 30 44
16 6 30 15 30 20 0 5 11 22 25 39 14 16 25 41 25 55 0 14 7 31 15 37 11 8 16
32 18 85 l2 74 -33 9 c-29 8 -31 11 -21 29 6 12 8 32 5 45 -10 39 2 71 27 70
15 -1 23 6 25 22 4 25 -18 30 -40 9 -11 -11 -16 -11 -25 -2 -15 17 -5 95 13
95 7 0 16 9 19 20 3 11 13 20 21 20 8 0 14 9 14 21 0 18 -4 20 -27 15 -16 -4
-33 -13 -39 -21 -6 -8 -19 -12 -32 -8 l-22 5 -1 -213 c0 -154 -4 -225 -14
-254 -13 -38 -14 -34 -11 68 2 59 0 109 -4 112 -4 2 -10 18 -13 35 -4 19 -13
30 -23 30 -12 0 -15 -6 -10 -26 4 -15 7 -89 7 -166 -1 -137 -1 -141 -26 -164
-14 -13 -41 -26 -61 -30 -48 -9 -126 3 -140 21 -6 8 -16 15 -21 15 -18 0 -56
54 -70 99 -11 35 -15 118 -17 344 -1 163 2 297 6 297 16 0 68 44 68 57 0 7 9
13 20 13 11 0 20 7 20 15 0 8 7 15 15 15 8 0 23 8 34 19 10 10 30 21 45 25 14
3 26 13 26 21 0 19 -34 19 -53 1 -8 -8 -33 -19 -55 -26 -23 -6 -42 -15 -42
-20 0 -6 -6 -10 -13 -10 -7 0 -20 -9 -30 -20 -9 -11 -24 -20 -32 -20 -8 0 -15
-7 -15 -15 0 -8 -7 -15 -15 -15 -8 0 -24 -9 -35 -20 -17 -17 -33 -20 -120 -20
-100 0 -100 0 -100 -25 0 -21 5 -25 31 -25 38 0 69 -16 69 -35 0 -29 -40 -85
-59 -85 -6 0 -11 -7 -11 -15 0 -23 47 -19 55 5 16 49 20 6 20 -197 1 -275 11
-319 95 -404 37 -37 66 -58 89 -62 62 -13 25 -18 -50 -7 -82 12 -175 5 -232
-16 -22 -8 -74 -14 -127 -14 -75 0 -90 3 -90 15 0 14 14 15 100 11 112 -6 130
-2 130 25 0 15 -7 19 -34 19 -57 0 -76 24 -83 108 -5 63 -4 72 11 72 9 0 16 7
16 15 0 8 -7 15 -15 15 -12 0 -15 16 -15 85 0 47 4 85 9 85 4 0 14 20 21 45 7
25 18 45 25 45 12 0 25 21 25 41 0 5 -9 9 -20 9 -13 0 -22 -9 -26 -25 -3 -14
-10 -25 -14 -25 -5 0 -11 -8 -14 -17 -2 -10 -4 51 -3 135 2 166 4 172 60 172
22 0 27 4 27 25 l0 25 -180 0 -180 0 0 -25 c0 -21 5 -25 31 -25 66 0 69 -6 69
-155 0 -131 -1 -135 -22 -140 -13 -3 -102 -4 -198 -3 l-175 3 0 131 c1 146 6
161 58 166 24 2 32 8 32 23 0 19 -8 20 -182 23 l-183 2 0 -25 c0 -22 4 -25 33
-25 18 0 42 -6 53 -14 18 -14 19 -29 19 -366 0 -337 -1 -352 -19 -366 -11 -8
-31 -14 -44 -14 -23 0 -24 3 -18 40 5 32 3 42 -10 47 -10 4 -20 0 -26 -10 -5
-10 -21 -17 -38 -17 -28 0 -30 2 -30 41 l0 42 53 -6 53 -7 0 50 c0 42 -3 50
-18 50 -10 0 -18 -7 -18 -15 0 -28 -158 -15 -168 13 -2 8 5 16 17 19 22 6 25
12 15 37 -7 18 -34 22 -34 5 0 -19 -27 -38 -48 -32 -16 4 -21 -1 -27 -26 -5
-22 -12 -31 -26 -31 -25 0 -24 -25 1 -50 22 -22 40 -26 40 -10 0 6 7 10 15 10
8 0 15 -7 15 -15 0 -8 9 -15 20 -15 11 0 20 5 20 10 0 6 11 10 25 10 23 0 25
-4 25 -40 0 -36 -2 -40 -25 -40 -14 0 -25 5 -25 10 0 6 -9 10 -20 10 -17 0
-20 -7 -20 -50 0 -43 3 -50 20 -50 11 0 20 5 20 10 0 6 33 10 80 10 47 0 80
-4 80 -10 0 -5 7 -10 15 -10 8 0 15 -4 15 -10 0 -5 9 -10 20 -10 11 0 20 -7
20 -15 0 -13 -24 -15 -160 -15 -151 0 -160 -1 -160 -19 0 -28 20 -31 159 -26
138 5 126 12 105 -63 -6 -19 -3 -23 12 -22 43 5 46 2 41 -47 -2 -27 -13 -70
-22 -97 -14 -38 -16 -52 -7 -67 8 -12 8 -19 2 -19 -5 0 -10 -7 -10 -15 0 -8
-8 -19 -18 -24 -10 -5 -24 -28 -31 -51 -7 -23 -19 -44 -27 -47 -11 -4 -14 -13
-9 -32 6 -24 5 -25 -10 -10 -15 15 -14 23 14 110 17 52 31 104 31 117 0 12 5
22 10 22 6 0 10 9 10 20 0 11 7 20 15 20 11 0 15 12 15 45 0 32 -4 45 -14 45
-8 0 -16 -6 -18 -12 -3 -8 -30 -13 -76 -15 -65 -2 -72 0 -72 18 0 10 5 19 10
19 6 0 10 9 10 20 0 11 -7 20 -15 20 -8 0 -15 7 -15 15 0 24 -27 18 -34 -7 -3
-13 -6 -60 -6 -105 0 -64 4 -87 17 -103 22 -26 43 -26 43 0 0 11 -4 20 -10 20
-5 0 -10 9 -10 20 0 18 7 20 59 20 l60 0 -35 -97 c-62 -175 -155 -427 -170
-461 -8 -18 -14 -38 -14 -45 0 -7 -9 -22 -19 -34 -11 -11 -19 -31 -19 -44 0
-25 -31 -114 -32 -91 0 17 -30 15 -30 -2 0 -8 5 -16 12 -18 19 -7 0 -58 -33
-91 -19 -18 -29 -37 -26 -48 6 -22 -18 -29 -95 -29 -55 0 -58 1 -58 24 0 19 4
23 20 19 14 -4 20 0 20 11 0 9 6 16 13 16 6 0 27 14 46 30 18 17 40 30 47 30
8 0 14 7 14 15 0 18 -33 20 -52 3 -8 -7 -43 -28 -79 -46 -62 -33 -63 -33 -40
-8 14 14 29 26 34 26 17 0 97 71 97 86 0 24 -21 17 -107 -39 -24 -15 -53 -26
-65 -26 -17 1 -19 2 -6 6 10 2 18 9 18 14 0 5 7 9 15 9 8 0 15 4 15 9 0 5 15
16 32 25 67 34 98 58 98 75 0 6 -7 11 -15 11 -8 0 -15 -4 -15 -10 0 -5 -12
-13 -27 -16 -30 -8 -40 -15 -84 -57 -16 -16 -35 -27 -40 -25 -20 7 88 88 179
135 17 9 32 20 32 25 0 4 8 8 18 8 20 0 50 45 38 57 -4 4 -16 2 -26 -5 -11 -7
-25 -12 -32 -12 -6 0 -22 -10 -35 -22 -13 -12 -25 -19 -28 -16 -3 3 10 16 30
29 33 23 47 49 25 49 -6 0 -35 -14 -65 -31 -73 -41 -91 -26 -20 17 63 37 123
53 134 35 11 -17 101 8 101 27 0 11 -8 13 -32 8 -29 -5 -31 -4 -16 8 20 15 24
36 8 36 -25 0 -142 -45 -221 -86 -47 -24 -89 -44 -92 -44 -13 0 -7 17 13 40
11 13 20 18 20 12 0 -7 7 -12 15 -12 10 0 15 10 15 29 0 16 7 36 15 45 17 17
20 46 5 46 -5 0 -10 7 -10 15 0 8 -7 15 -15 15 -8 0 -15 -7 -15 -15 0 -19 -17
-19 -36 -1 -19 20 -18 25 6 19 24 -6 29 24 6 33 -20 8 -8 34 15 34 12 0 19 7
19 20 0 23 -22 26 -43 5 -13 -12 -16 -12 -21 7 -3 12 0 28 5 34 6 8 7 23 3 36
-12 38 -12 78 -1 85 6 4 13 1 15 -5 5 -17 42 -15 42 3 0 8 7 15 15 15 8 0 15
-5 15 -11 0 -7 10 -9 25 -5 14 4 25 2 25 -4 0 -5 7 -10 15 -10 8 0 15 7 15 15
0 8 -7 15 -15 15 -8 0 -15 4 -15 9 0 5 -11 12 -25 15 -25 6 -25 6 -5 26 11 11
20 27 20 35 0 18 -27 20 -32 3 -3 -9 -6 -9 -12 0 -4 7 -2 12 3 12 6 0 11 7 11
16 0 12 -6 15 -24 10 -24 -6 -24 -5 -14 26 5 18 12 44 15 58 4 23 53 59 53 39
0 -5 7 -9 15 -9 8 0 15 7 15 15 0 8 -4 15 -10 15 -5 0 -10 9 -10 20 0 11 5 20
10 20 6 0 10 7 10 15 0 8 7 15 15 15 8 0 15 7 15 15 0 8 4 15 9 15 5 0 7 -18
4 -40 -5 -33 -3 -40 11 -40 11 0 16 9 16 30 0 17 5 30 10 30 6 0 10 7 10 15 0
8 -7 15 -15 15 -22 0 -18 28 5 35 11 3 20 15 20 25 0 10 5 20 12 22 26 9 -2
38 -37 38 -24 0 -35 4 -35 15 0 8 -7 15 -15 15 -18 0 -20 -26 -3 -33 10 -4 10
-6 0 -6 -17 -1 -42 -26 -42 -41 0 -8 10 -9 30 -5 17 4 30 2 30 -3 0 -17 -37
-42 -63 -42 -28 0 -38 -24 -14 -33 7 -3 5 -6 -5 -6 -10 -1 -18 -5 -18 -11 0
-5 -9 -10 -20 -10 -11 0 -20 -7 -20 -15 0 -8 -4 -15 -10 -15 -5 0 -10 -7 -10
-15 0 -8 7 -15 15 -15 8 0 15 -9 15 -19 0 -14 -5 -18 -20 -14 -11 3 -20 1 -20
-4 0 -6 -11 -8 -25 -5 -14 2 -25 11 -25 18 0 8 -9 14 -20 14 -14 0 -20 7 -20
21 0 17 -4 20 -24 15 -16 -4 -26 -1 -30 9 -3 8 -12 15 -21 15 -8 0 -15 5 -15
10 0 6 -7 10 -15 10 -8 0 -15 7 -15 15 0 8 5 15 10 15 6 0 10 11 10 25 0 16
-6 25 -15 25 -8 0 -15 -6 -15 -14 0 -8 -7 -17 -16 -20 -26 -10 -30 -6 -11 9
13 9 17 20 12 34 -8 26 1 26 43 1 41 -25 48 -25 55 0 3 11 11 20 17 20 9 0 11
-12 6 -40 -3 -22 -2 -40 3 -40 5 0 7 -9 4 -20 -4 -15 2 -22 22 -30 36 -14 45
-13 45 5 0 8 -4 15 -10 15 -5 0 -12 11 -16 25 -3 14 -11 25 -18 25 -8 0 -8 2
0 8 6 4 14 19 18 35 3 15 13 27 22 27 13 0 15 7 10 34 -6 31 -4 35 28 50 29
13 45 38 46 69 0 14 -53 7 -65 -10 -11 -14 -13 -13 -19 10 -6 26 -36 39 -36
16 0 -5 -5 -7 -10 -4 -6 3 -7 17 -4 31 5 19 2 24 -14 24 -26 0 -35 35 -13 54
22 20 31 20 31 1 0 -16 18 -20 36 -7 5 4 16 22 24 41 l14 34 18 -23 c21 -26
16 -40 -13 -33 -17 5 -20 2 -17 -13 4 -20 36 -24 71 -9 12 5 17 3 17 -9 0 -9
7 -16 15 -16 8 0 15 7 15 15 0 8 5 15 10 15 6 0 10 9 10 20 0 11 -5 20 -11 20
-14 0 -39 25 -39 39 0 6 -7 11 -15 11 -8 0 -15 9 -15 20 0 11 -6 23 -14 26
-18 7 -9 34 10 34 8 0 14 10 14 23 0 12 9 29 20 37 11 8 20 20 20 27 0 17 -27
17 -33 1 -3 -7 -6 -3 -6 10 -1 12 6 25 14 28 24 10 19 61 -7 67 -32 9 -16 18
31 19 33 0 41 4 41 19 0 15 -8 19 -37 20 -31 2 -33 3 -10 6 38 6 35 33 -4 33
-26 0 -30 3 -24 18 5 9 9 28 10 41 3 48 65 45 65 -3 0 -9 7 -16 15 -16 10 0
15 11 16 33 0 29 1 30 9 10 10 -24 53 -32 65 -13 3 6 17 10 31 10 15 0 24 6
24 15 0 8 -7 15 -15 15 -20 0 -20 39 0 46 8 4 15 12 15 18 0 16 -98 16 -108 0
-4 -5 -24 -9 -45 -8 -41 2 -65 14 -29 14 12 0 22 4 22 9 0 5 14 12 30 16 33 7
40 31 13 38 -15 4 -15 6 5 12 12 4 22 14 22 21 0 8 5 14 11 14 6 0 9 9 6 20
-4 16 0 20 19 20 25 0 28 7 18 33 -4 12 -18 14 -65 10 -48 -5 -59 -3 -59 9 0
9 9 14 23 14 16 -1 23 5 25 23 3 21 1 23 -21 17 -14 -3 -32 -9 -41 -12 -9 -3
-16 -1 -16 5 0 6 7 11 16 11 12 0 15 6 11 20 -4 17 -2 20 14 15 23 -8 63 30
73 69 4 16 16 30 26 33 15 4 20 14 20 42 0 36 1 37 35 33 28 -3 35 -1 35 13 0
21 24 45 44 45 9 0 16 5 16 10 0 6 7 10 15 10 10 0 15 10 16 28 0 15 3 21 6
15 2 -7 11 -13 19 -13 17 0 19 27 2 32 -9 3 -9 6 0 12 7 4 12 2 12 -3 0 -6 7
-11 15 -11 8 0 15 7 15 15 0 8 -7 15 -15 15 -8 0 -15 7 -15 16 0 13 -7 15 -30
11 -17 -4 -30 -2 -30 3 0 6 5 10 10 10 6 0 10 7 10 15 0 9 -9 15 -25 15 -14 0
-28 -7 -31 -15 -4 -8 -12 -15 -20 -15 -8 0 -14 7 -14 15 0 12 -13 15 -55 15
-41 0 -55 -4 -55 -14 0 -8 -4 -17 -9 -20 -5 -4 -7 3 -4 14 5 20 0 20 -311 20
l-316 0 0 -645z m5085 305 c17 -7 17 -9 3 -9 -10 -1 -18 -7 -18 -15 0 -11 -10
-13 -40 -9 -33 5 -40 3 -40 -11 0 -15 19 -20 83 -19 9 0 17 -4 17 -9 0 -4 7
-8 16 -8 11 0 15 6 11 20 -3 11 -1 20 4 20 5 0 9 -4 9 -10 0 -14 28 -12 33 3
2 7 8 8 13 3 5 -5 4 -11 -3 -13 -20 -7 -15 -29 12 -49 14 -10 25 -24 25 -31 0
-7 4 -13 8 -13 5 0 7 -13 4 -30 -2 -16 0 -30 6 -30 5 0 12 -11 14 -25 4 -20 2
-23 -12 -15 -19 10 -90 2 -90 -10 0 -4 -9 -10 -20 -13 -13 -3 -20 0 -20 9 0 8
-9 14 -21 14 -20 0 -49 21 -49 36 0 3 13 4 29 1 15 -3 38 -3 50 0 23 6 28 28
9 37 -10 5 -10 7 0 12 15 7 16 34 1 34 -13 0 -34 -20 -42 -40 -3 -8 -6 0 -6
19 l-1 33 -45 -6 -45 -7 0 30 c0 18 -5 31 -12 32 -10 0 -10 2 0 6 14 6 16 33
2 33 -5 0 -10 7 -10 16 0 11 6 14 20 9 11 -3 28 -2 37 4 21 12 41 13 68 1z
m1271 -216 c25 -6 34 -34 11 -34 -7 0 -19 -9 -27 -20 -8 -11 -21 -20 -28 -20
-10 0 -12 -7 -8 -22 3 -13 6 -26 6 -30 0 -5 8 -8 17 -8 13 0 14 -3 5 -12 -17
-17 -15 -38 3 -38 8 0 21 12 29 28 l15 27 1 -27 c0 -18 -5 -28 -15 -28 -8 0
-15 -4 -15 -10 0 -15 -16 -12 -34 5 -8 8 -19 15 -25 15 -6 0 -11 7 -11 15 0 8
-7 15 -15 15 -8 0 -15 -7 -15 -15 0 -8 7 -15 15 -15 8 0 15 -7 15 -15 0 -8 5
-15 10 -15 6 0 10 -7 10 -16 0 -16 -2 -16 -62 3 -12 4 -18 0 -18 -11 0 -9 -7
-16 -16 -16 -11 0 -15 -6 -11 -20 3 -13 0 -20 -9 -20 -8 0 -14 10 -14 24 0 19
-7 25 -32 30 -24 5 -29 9 -19 15 7 5 22 6 32 4 23 -6 26 22 3 31 -20 8 -9 26
17 26 24 0 25 27 2 33 -13 3 -12 5 5 6 13 0 30 7 37 14 33 29 45 37 55 37 5 0
10 7 10 15 0 8 5 15 10 15 6 0 10 12 10 26 0 20 4 25 16 20 9 -3 27 -9 40 -12z
m-2701 -839 c29 -221 31 -250 20 -282 -6 -18 -4 -23 9 -23 14 0 15 -4 6 -20
-8 -15 -21 -20 -55 -20 -25 0 -45 5 -45 10 0 11 -30 14 -30 3 0 -5 -3 -18 -6
-29 -5 -19 -1 -22 45 -26 28 -3 54 -7 56 -10 3 -2 -12 -50 -33 -106 l-38 -101
-12 45 c-7 25 -23 56 -36 69 -13 12 -26 30 -29 39 -4 9 -20 24 -37 35 l-31 19
35 6 c26 5 36 12 36 25 0 17 -13 19 -142 22 -79 2 -189 3 -245 2 -87 -1 -103
1 -103 14 0 12 7 14 34 9 42 -8 66 1 66 24 0 12 -11 19 -37 24 -70 11 -68 -26
-19 336 9 63 16 117 16 120 0 3 9 -12 20 -33 11 -20 20 -44 20 -52 0 -9 7 -18
15 -21 8 -4 15 -12 15 -20 0 -7 6 -28 14 -46 8 -18 17 -40 20 -48 3 -8 36 -73
74 -145 97 -184 95 -184 198 29 45 94 85 166 93 166 8 0 11 7 8 19 -2 10 11
47 29 82 19 35 34 70 34 78 0 49 12 -20 35 -194z m1299 196 c3 -4 -3 -19 -14
-31 -21 -24 -26 -50 -11 -50 5 0 23 -13 41 -30 34 -31 34 -39 0 -17 -17 10
-22 9 -30 -3 -17 -27 -12 -43 13 -37 12 4 28 2 36 -2 10 -6 3 -12 -23 -21 -37
-12 -53 -47 -17 -37 14 3 20 -1 23 -18 4 -18 1 -21 -14 -17 -12 3 -18 -1 -18
-12 0 -9 -4 -16 -10 -16 -5 0 -10 -7 -10 -15 0 -8 7 -15 15 -15 8 0 15 5 15
10 0 15 27 12 44 -5 18 -18 36 -19 36 -2 0 9 3 8 9 -2 5 -8 16 -11 30 -6 12 4
21 2 21 -4 0 -15 27 -14 32 1 3 7 7 6 11 -5 4 -11 1 -17 -8 -17 -22 0 -18 -20
7 -41 21 -19 14 -25 -16 -13 -9 3 -16 12 -16 20 0 21 -74 14 -78 -8 -3 -13 3
-18 20 -18 34 0 49 -13 37 -30 -8 -13 -10 -13 -18 -1 -5 8 -16 11 -25 8 -10
-4 -16 -1 -16 8 0 9 -10 15 -25 15 -14 0 -25 -4 -25 -9 0 -5 -9 -7 -20 -4 -12
3 -20 0 -20 -7 0 -7 -5 -6 -15 4 -8 8 -15 22 -15 30 0 9 7 16 15 16 8 0 15 7
15 15 0 8 -7 15 -15 15 -8 0 -15 8 -15 18 -1 9 -3 72 -6 140 -4 85 -3 122 5
122 6 0 11 7 11 15 0 8 -4 15 -10 15 -5 0 -10 5 -10 10 0 6 9 10 20 10 11 0
23 7 26 15 7 17 11 19 18 6z m-436 -28 c-22 -5 -24 -33 -3 -33 8 0 15 5 15 10
0 6 5 10 10 10 21 0 9 -20 -16 -26 -22 -6 -25 -10 -19 -33 4 -14 11 -27 16
-29 5 -2 9 -9 9 -16 0 -7 11 -18 24 -24 13 -5 26 -20 29 -31 6 -23 5 -24 -17
-15 -9 3 -16 12 -16 20 0 8 -7 14 -15 14 -22 0 -18 -33 6 -50 12 -8 28 -21 35
-28 8 -8 22 -11 30 -8 11 4 18 -1 21 -14 7 -28 38 -21 37 8 0 12 5 22 13 22
18 0 17 38 -2 57 -22 21 -49 9 -42 -20 6 -21 6 -21 -8 -3 -10 14 -12 22 -4 26
6 4 9 16 7 26 -3 21 10 23 75 10 29 -5 37 -4 37 8 0 9 -13 18 -35 22 -35 6
-49 24 -20 24 8 0 15 7 15 15 0 18 -26 20 -33 3 -3 -7 -6 -3 -6 8 -1 17 4 20
24 16 14 -2 25 -11 25 -18 0 -8 10 -14 25 -14 17 0 25 6 25 18 1 15 2 15 10 1
10 -17 2 -59 -11 -59 -5 0 -9 -7 -9 -15 0 -8 5 -15 10 -15 6 0 10 -7 10 -16 0
-12 -6 -15 -20 -10 -11 3 -29 9 -40 12 -14 5 -20 2 -20 -10 0 -9 4 -16 9 -16
5 0 7 -9 4 -20 -4 -14 0 -20 10 -20 9 0 18 8 20 18 4 13 5 12 6 -5 0 -12 5
-23 10 -25 6 -1 14 -22 20 -46 7 -35 6 -44 -5 -49 -19 -7 -18 -33 1 -33 19 0
20 -37 1 -55 -17 -17 -86 -15 -86 3 0 7 -13 12 -30 12 -30 0 -43 -23 -17 -33
7 -4 6 -6 -5 -6 -10 -1 -19 10 -23 29 -4 17 -13 30 -21 30 -8 0 -14 6 -14 13
0 8 -6 27 -14 43 -8 16 -28 64 -46 106 -18 43 -36 80 -41 84 -5 3 -9 12 -9 21
0 9 -9 24 -21 34 -30 26 -20 50 26 65 22 6 47 12 55 12 10 0 9 -2 -2 -5z
m-2810 -164 c-2 -49 -2 -89 1 -89 9 0 0 -154 -10 -166 -5 -6 -22 -9 -39 -6
-16 2 -30 0 -30 -4 0 -5 -3 -19 -6 -31 -6 -21 -3 -23 34 -23 77 0 101 -24 27
-27 -25 -1 -45 3 -45 8 0 5 -7 9 -15 9 -8 0 -15 -4 -15 -9 0 -5 -44 -11 -97
-13 -54 -2 -106 -7 -116 -12 -16 -7 -18 -5 -15 15 2 16 11 25 26 27 14 2 22
10 22 22 0 12 -8 20 -22 22 -23 3 -23 4 -24 185 l-1 183 165 -1 164 -1 -4 -89z
m2619 -41 c31 -39 53 -132 53 -223 l0 -95 -47 -24 c-64 -33 -94 -54 -145 -102
-25 -23 -50 -38 -60 -36 -14 3 -18 -3 -18 -28 0 -27 -41 -114 -60 -130 -4 -3
-13 -34 -20 -69 l-13 -63 -13 33 c-7 19 -40 104 -73 190 -33 86 -61 164 -63
175 -3 18 4 19 102 20 269 1 300 3 300 19 0 8 5 15 10 15 6 0 10 7 10 15 0 17
-26 21 -32 4 -4 -11 -416 -15 -427 -4 -11 12 12 15 135 19 71 2 130 5 132 5 1
1 2 10 2 21 0 14 -7 20 -21 20 -11 0 -29 5 -40 11 -20 10 -20 26 1 74 5 11 20
49 34 85 l25 65 98 6 c54 3 103 6 109 7 6 1 16 -4 21 -10z m443 -394 c0 -8 7
-14 15 -14 8 0 15 7 15 15 0 10 11 15 35 15 19 0 35 -5 35 -11 0 -6 8 -9 18
-7 15 4 17 -3 17 -61 0 -79 20 -93 50 -36 11 19 25 35 31 35 7 0 15 20 18 45
7 45 26 63 26 25 0 -11 5 -20 10 -20 6 0 10 -6 10 -14 0 -8 3 -16 8 -18 4 -1
17 -18 30 -35 18 -26 19 -33 7 -33 -8 0 -15 -7 -15 -15 0 -9 9 -15 25 -15 25
0 29 -10 37 -90 5 -39 40 -38 57 2 8 17 10 33 5 35 -5 2 -8 43 -6 93 l3 90 35
0 34 0 0 -53 c0 -54 -22 -97 -49 -97 -6 0 -11 -7 -11 -15 0 -8 7 -15 15 -15 8
0 15 5 15 10 0 6 7 10 15 10 13 0 15 -21 15 -126 0 -135 -8 -158 -49 -147 -15
4 -21 1 -21 -11 0 -9 -12 -19 -27 -22 -35 -9 -57 -30 -50 -49 5 -10 -2 -12
-28 -8 -26 4 -35 1 -43 -14 -9 -15 -18 -19 -43 -15 -29 4 -31 3 -26 -17 3 -11
2 -21 -1 -21 -4 0 -24 -4 -44 -9 -31 -7 -38 -6 -38 6 0 11 7 13 30 8 23 -5 30
-3 30 8 0 29 -68 37 -94 12 -8 -8 -24 -15 -35 -15 -12 0 -21 -6 -21 -15 0 -8
5 -15 10 -15 6 0 10 -10 9 -22 0 -13 -3 -17 -6 -10 -2 6 -11 12 -19 12 -8 0
-14 7 -14 16 0 11 -6 15 -20 11 -11 -3 -23 1 -28 8 -4 7 -16 15 -27 19 -13 3
-11 4 5 1 14 -2 35 -7 48 -10 18 -6 22 -4 22 14 0 11 5 21 10 21 6 0 10 5 10
11 0 14 -25 39 -39 39 -15 0 -14 -27 1 -32 7 -3 5 -7 -6 -11 -13 -5 -19 -1
-23 13 -6 22 -29 27 -36 8 -2 -7 -8 -1 -12 15 -4 15 -14 27 -22 27 -10 0 -13
6 -9 16 3 9 1 33 -5 53 -8 29 -19 41 -43 49 -42 15 -46 15 -46 -3 0 -8 -4 -15
-10 -15 -5 0 -10 -7 -10 -15 0 -9 -7 -18 -15 -21 -17 -7 -21 -34 -5 -34 6 0
25 7 43 15 24 12 28 12 15 2 -10 -8 -18 -22 -18 -31 0 -9 -4 -16 -10 -16 -5 0
-10 -7 -10 -16 0 -12 6 -15 24 -10 21 5 25 2 31 -24 4 -17 13 -30 21 -30 8 0
14 -4 14 -10 0 -5 -7 -10 -15 -10 -8 0 -15 5 -15 10 0 6 -7 10 -16 10 -9 0
-30 14 -46 30 -15 17 -35 30 -43 30 -22 0 -18 -28 5 -35 11 -3 20 -15 20 -25
0 -10 7 -21 16 -24 14 -5 14 -7 0 -22 -14 -14 -18 -13 -41 3 -13 10 -25 21
-25 26 0 12 -32 8 -44 -7 -9 -11 -15 -11 -36 0 -19 10 -21 14 -7 14 9 0 17 4
17 9 0 5 9 7 20 4 22 -6 29 22 8 30 -8 2 -9 8 -4 13 5 5 11 4 13 -3 8 -23 33
-14 33 11 0 32 -56 45 -76 19 -9 -12 -13 -14 -14 -5 0 16 24 42 39 42 6 0 11
7 11 15 0 8 -7 15 -15 15 -8 0 -15 -4 -15 -10 0 -5 -7 -10 -15 -10 -8 0 -15
-7 -15 -15 0 -8 -5 -15 -11 -15 -6 0 -9 -9 -6 -20 4 -15 0 -20 -14 -20 -14 0
-19 -7 -19 -25 0 -14 5 -25 10 -25 6 0 10 -11 10 -25 0 -16 6 -25 16 -25 24 0
14 -54 -11 -59 -11 -2 -23 -8 -26 -14 -10 -15 -37 14 -31 35 2 10 0 18 -6 18
-5 0 -13 11 -16 25 -11 44 -36 31 -36 -19 0 -29 -5 -46 -14 -49 -18 -7 -28 17
-20 47 3 14 -1 27 -10 35 -13 11 -16 37 -16 137 0 67 4 125 9 129 5 3 9 18 9
33 -2 53 79 199 123 223 20 10 21 9 14 -30 -5 -33 -4 -41 9 -41 8 0 20 8 25
18 11 19 14 -10 11 -145 -1 -68 0 -73 19 -73 14 0 21 6 21 20 0 11 5 20 10 20
6 0 10 7 10 15 0 8 -4 15 -10 15 -6 0 -10 40 -10 100 0 55 4 100 9 100 4 0 23
14 42 31 51 45 51 45 81 41 16 -2 35 1 43 8 14 12 140 29 163 22 6 -2 12 -10
12 -18z m-3187 -4 c-6 -24 15 -27 31 -4 10 13 16 12 52 -14 47 -35 88 -117 78
-157 -4 -17 -2 -25 6 -25 9 0 11 -17 7 -65 -5 -69 -43 -145 -71 -145 -8 0 -16
-5 -18 -10 -5 -16 -70 -23 -132 -16 l-56 7 0 219 c0 165 3 220 13 223 6 3 31
6 54 6 36 1 41 -1 36 -19z m537 0 c0 -5 -5 -33 -11 -61 -10 -45 -9 -54 5 -64
9 -7 16 -17 16 -24 0 -6 7 -11 15 -11 8 0 15 7 15 15 0 8 -4 15 -10 15 -5 0
-10 5 -10 11 0 14 25 39 39 39 6 0 11 9 11 20 0 10 9 24 19 30 25 13 68 13 76
0 4 -6 23 -7 44 -4 35 6 39 4 49 -22 6 -16 15 -45 20 -64 19 -80 71 -15 57 71
-5 29 -4 39 4 35 7 -5 10 -111 10 -349 -1 -341 -1 -342 -20 -303 -20 41 -66
107 -83 118 -28 17 -115 108 -105 108 6 0 9 8 7 18 -3 12 2 24 13 31 22 13 25
41 5 41 -7 0 -19 -7 -26 -15 -7 -8 -21 -15 -31 -15 -10 0 -21 -5 -24 -10 -9
-14 -45 7 -45 25 0 8 -6 15 -14 15 -17 0 -115 105 -127 137 -16 43 -10 126 11
158 32 48 90 84 90 55z m1071 -6 c19 -9 41 -13 60 -9 26 6 36 0 87 -52 64 -64
84 -113 57 -140 -23 -22 -19 -63 5 -63 43 0 17 -156 -37 -229 -24 -32 -28 -33
-73 -27 -32 4 -59 1 -83 -9 -41 -17 -87 -20 -87 -5 0 6 -7 10 -15 10 -8 0 -15
-5 -15 -10 0 -7 -7 -7 -21 0 -19 11 -20 18 -18 251 1 132 5 242 9 244 12 8 27
-17 34 -57 6 -32 11 -38 31 -38 24 0 25 2 25 75 0 41 2 75 5 75 4 0 20 -7 36
-16z m-387 -61 c10 -59 -5 -86 -43 -76 -14 4 -21 1 -21 -10 0 -8 11 -18 25
-21 15 -4 30 -18 35 -32 13 -34 13 -294 0 -294 -5 0 -10 -9 -10 -20 0 -11 5
-20 10 -20 6 0 10 -8 10 -17 0 -14 -2 -15 -9 -4 -7 11 -15 11 -41 2 -18 -6
-35 -11 -36 -11 -2 0 -4 47 -4 105 l0 105 30 0 c20 0 30 5 30 15 0 10 -10 15
-30 15 l-29 0 0 161 1 160 36 -3 c36 -3 37 -4 46 -55z m2786 37 c0 -11 7 -20
15 -20 15 0 19 -10 16 -42 -2 -19 25 -25 31 -8 2 5 13 7 25 4 19 -5 20 -9 10
-25 -6 -10 -17 -19 -24 -19 -7 0 -13 -7 -13 -15 0 -8 -5 -15 -11 -15 -6 0 -9
-9 -6 -19 4 -17 1 -19 -29 -14 -27 4 -34 2 -34 -11 0 -9 7 -16 15 -16 8 0 15
-7 15 -15 0 -8 -4 -15 -10 -15 -5 0 -10 5 -10 10 0 6 -7 10 -15 10 -8 0 -15
-7 -15 -15 0 -8 5 -15 10 -15 6 0 10 -4 10 -10 0 -5 -9 -10 -19 -10 -14 0 -18
5 -14 20 3 12 -1 22 -10 26 -8 3 -18 16 -21 30 -4 13 -11 24 -16 24 -5 0 -5
12 2 30 5 17 7 37 4 45 -3 9 0 15 9 15 8 0 17 15 21 38 7 39 18 52 47 52 10 0
17 -8 17 -20z m-1845 -285 c15 -44 42 -122 60 -172 l32 -93 -108 0 -109 0 -1
38 c-5 119 -5 118 16 118 15 -1 22 9 29 37 5 20 13 37 18 37 20 0 5 30 -18 36
-36 9 -30 48 9 52 16 2 31 10 34 18 7 19 6 22 38 -71z m-2551 -41 c33 -96 41
-143 38 -211 l-2 -32 -85 3 c-47 2 -88 6 -91 9 -4 3 10 54 30 114 20 59 36
118 36 130 0 12 4 24 9 28 5 3 12 19 16 36 4 17 9 29 11 26 2 -2 19 -48 38
-103z m670 -49 c9 -14 23 -25 32 -25 9 0 29 -13 46 -30 16 -16 38 -30 48 -30
9 0 24 -7 31 -16 8 -9 30 -27 50 -40 36 -23 37 -23 28 -69 -9 -49 3 -85 29
-85 10 0 12 7 8 25 -4 14 -2 34 4 46 11 19 14 17 64 -26 40 -34 53 -52 53 -72
0 -36 11 -98 25 -146 10 -31 9 -40 -2 -47 -11 -7 -12 -14 -2 -35 15 -32 15
-45 2 -45 -5 0 -10 7 -10 15 0 18 -30 20 -31 3 0 -10 -2 -10 -6 0 -2 6 -10 12
-17 12 -20 0 -43 35 -57 89 -7 28 -16 51 -20 51 -4 0 -10 14 -14 30 -4 17 -10
30 -14 30 -4 0 -7 10 -7 23 1 16 -5 22 -19 22 -13 0 -21 -8 -23 -22 -2 -16 2
-23 12 -23 11 0 16 -10 16 -32 0 -18 3 -44 6 -58 6 -23 4 -22 -24 10 -24 27
-31 45 -32 77 0 82 -35 151 -116 230 -41 40 -74 78 -74 84 0 7 -9 9 -21 6 -43
-11 -51 3 -22 38 16 19 31 34 34 34 4 1 14 -10 23 -24z m-208 -120 c58 -17
112 -59 153 -120 38 -56 56 -115 35 -115 -21 0 -17 -28 6 -40 35 -19 22 -31
-16 -15 -48 20 -54 19 -55 -7 l-2 -23 -4 23 c-3 15 -11 22 -29 22 -15 0 -24 6
-24 15 0 26 -29 16 -36 -12 -6 -24 -8 -25 -20 -9 -10 14 -21 17 -53 11 -37 -6
-41 -5 -41 14 0 25 -28 40 -40 21 -7 -11 -13 -10 -34 4 -28 18 -33 32 -15 38
9 3 9 14 2 38 -6 19 -9 51 -8 70 1 19 3 50 3 68 l2 32 63 0 c35 0 86 -7 113
-15z m1140 -105 c9 0 14 -11 14 -30 0 -16 -4 -30 -10 -30 -5 0 -10 -11 -10
-25 0 -14 5 -25 10 -25 6 0 10 -28 10 -65 0 -51 -3 -65 -15 -65 -8 0 -15 -7
-15 -15 0 -8 7 -15 15 -15 8 0 15 -4 15 -10 0 -5 -4 -10 -10 -10 -6 0 -7 -18
-4 -44 10 -69 0 -96 -36 -96 -23 0 -30 4 -30 20 0 15 7 20 25 20 24 0 25 3 24
55 -1 39 -6 55 -15 55 -8 0 -14 -4 -14 -10 0 -5 -6 -10 -13 -10 -10 0 -14 27
-15 106 -2 58 0 114 3 125 7 23 25 26 25 4 0 -8 7 -15 16 -15 13 0 15 9 10 53
-3 28 -3 46 0 40 3 -7 12 -13 20 -13z m457 -121 l78 -110 -21 -62 c-27 -81
-30 -86 -57 -76 -15 5 -24 20 -29 43 -7 41 -34 50 -34 11 0 -16 -6 -25 -15
-25 -9 0 -18 -7 -21 -15 -3 -8 -14 -17 -25 -20 -22 -7 -26 -35 -6 -35 8 0 24
9 36 19 21 18 24 18 64 3 34 -14 38 -18 20 -20 -17 -2 -24 -12 -29 -38 -3 -19
-10 -34 -14 -34 -12 0 -50 37 -50 49 0 6 -7 11 -15 11 -8 0 -15 -7 -15 -15 0
-8 5 -15 10 -15 6 0 10 -5 10 -11 0 -12 -39 -2 -58 15 -10 10 -8 22 9 62 12
27 26 51 30 52 13 5 11 32 -2 32 -15 0 -35 -22 -44 -50 l-9 -25 -7 25 c-4 14
-7 96 -8 183 l-1 157 63 0 62 -1 78 -110z m423 73 c7 -4 19 -24 27 -44 20 -47
47 -51 47 -8 0 20 -5 30 -15 30 -8 0 -15 6 -15 13 0 13 142 18 156 5 4 -5 0
-8 -9 -8 -9 0 -17 -7 -17 -16 0 -11 6 -15 19 -11 15 4 23 -7 44 -59 14 -35 24
-64 22 -64 -22 0 -34 15 -29 36 6 21 3 24 -25 24 -28 0 -31 -3 -31 -31 0 -26
3 -31 20 -26 11 3 18 1 15 -3 -3 -5 -19 -11 -35 -15 -17 -4 -30 -11 -30 -16 0
-5 -4 -9 -10 -9 -5 0 -10 7 -10 15 0 8 -7 15 -15 15 -8 0 -15 -4 -15 -9 0 -5
-9 -11 -20 -14 -11 -3 -20 -13 -20 -22 0 -12 6 -16 20 -12 24 6 26 -6 5 -27
-21 -20 -19 -36 5 -36 23 0 26 -15 8 -34 -10 -11 -19 -8 -50 17 -42 34 -48 48
-18 40 14 -4 20 0 20 10 0 10 -17 19 -50 27 -30 7 -50 17 -50 26 0 8 -4 14
-10 14 -5 0 -10 7 -10 15 0 8 -7 15 -15 15 -9 0 -15 9 -15 25 0 16 -6 25 -15
25 -18 0 -19 -5 4 55 17 45 41 72 41 46 0 -6 7 -11 15 -11 8 0 15 7 15 15 0
16 27 20 46 7z m-2362 -18 c3 -9 6 -53 6 -99 0 -61 -4 -86 -15 -95 -8 -7 -15
-23 -15 -37 0 -30 -24 -40 -45 -19 -25 24 -75 18 -75 -10 0 -10 13 -14 42 -14
l41 0 -34 -27 c-19 -15 -52 -48 -74 -74 -38 -44 -43 -47 -98 -50 -39 -3 -62 0
-69 9 -6 6 -21 12 -35 12 -34 0 -56 25 -49 55 4 14 13 25 21 25 8 0 15 5 15
10 0 6 5 10 11 10 24 0 159 72 159 86 0 8 -4 14 -8 14 -15 0 -134 -49 -148
-61 -8 -7 -17 -9 -20 -6 -3 3 16 68 43 146 l48 141 146 0 c125 0 148 -2 153
-16z m3760 -25 c5 -28 9 -31 33 -24 15 3 31 12 35 18 6 9 8 9 8 0 0 -7 10 -13
23 -12 12 0 35 -3 51 -7 19 -5 31 -2 37 7 7 11 9 10 9 -3 0 -10 -4 -18 -10
-18 -5 0 -10 -7 -10 -15 0 -8 5 -15 10 -15 15 0 12 -15 -7 -37 -14 -15 -27
-19 -53 -16 -35 5 -36 4 -49 -45 -7 -28 -19 -58 -26 -69 -12 -16 -13 -9 -8 55
l6 72 -27 0 c-19 0 -26 5 -26 20 0 11 7 20 15 20 8 0 15 7 15 15 0 8 -7 15
-15 15 -8 0 -15 7 -15 15 0 8 -7 15 -15 15 -8 0 -15 -7 -15 -15 0 -8 -4 -15
-10 -15 -15 0 -12 16 5 34 8 8 15 19 15 25 0 24 18 9 24 -20z m-3314 -149 c0
-5 6 -10 13 -10 23 0 67 -25 67 -37 0 -16 -12 -17 -27 -2 -16 16 -43 3 -43
-20 0 -20 -60 -91 -76 -91 -5 0 -15 9 -22 20 -10 17 -10 20 3 20 8 0 15 7 15
15 0 18 -27 20 -32 3 -3 -7 -11 2 -19 20 -7 18 -20 32 -26 32 -7 0 -13 5 -13
10 0 15 48 31 92 32 21 0 38 4 38 9 0 5 7 9 15 9 8 0 15 -4 15 -10z m1775 -36
l-6 -37 32 7 c18 3 36 12 40 18 5 7 12 9 16 4 4 -5 2 -11 -4 -13 -7 -3 -13 -9
-13 -15 0 -13 26 -38 41 -38 7 0 9 -3 5 -7 -4 -4 -23 -6 -42 -4 -26 2 -34 -1
-34 -13 0 -9 6 -16 13 -16 9 0 9 -2 -1 -8 -7 -5 -13 -27 -15 -50 -2 -40 -3
-42 -34 -42 -18 0 -33 4 -33 9 0 5 -9 13 -20 16 -14 4 -19 13 -16 28 3 12 7
38 10 57 6 34 8 36 41 32 46 -6 49 23 3 32 -24 5 -29 9 -20 18 7 7 12 22 12
35 0 14 6 23 16 23 13 0 15 -7 9 -36z m-2783 -272 c-7 -2 -12 -11 -12 -19 0
-13 9 -15 53 -10 28 4 57 13 62 20 13 17 129 29 175 18 26 -7 29 -9 12 -10
-21 -1 -23 -5 -17 -31 5 -23 3 -30 -9 -30 -9 0 -16 -7 -16 -15 0 -9 9 -15 23
-15 17 0 28 10 40 35 9 19 21 35 27 35 5 0 10 6 10 14 0 8 7 17 16 20 13 5 14
3 7 -6 -18 -22 -25 -57 -13 -70 5 -7 19 -25 31 -40 32 -43 64 -34 40 11 -6 11
-6 33 1 59 8 34 15 42 33 42 l23 0 -20 -67 c-14 -46 -18 -81 -14 -111 l6 -44
-29 7 c-40 9 -101 -4 -101 -21 0 -8 7 -14 15 -14 8 0 15 -4 15 -10 0 -5 8 -10
18 -11 10 0 12 -3 5 -6 -16 -6 -17 -33 -2 -33 14 0 2 -37 -24 -72 -12 -16 -29
-28 -39 -28 -10 0 -18 -7 -18 -15 0 -8 5 -15 11 -15 7 0 5 -10 -5 -25 -9 -13
-16 -29 -16 -35 0 -18 29 -11 40 11 10 17 13 18 23 7 17 -21 64 -48 82 -48 22
0 19 18 -10 56 -25 33 -33 78 -15 89 5 3 21 3 36 -1 22 -6 24 -8 10 -16 -19
-11 -20 -25 -3 -61 8 -19 18 -26 30 -23 25 6 87 -15 87 -31 0 -12 -16 -17 -49
-15 -40 2 -183 -28 -196 -42 -31 -30 -16 -34 103 -30 64 2 112 2 105 -2 -8 -3
-10 -23 -6 -60 5 -44 3 -54 -10 -54 -8 0 -17 7 -21 15 -3 8 -1 15 4 15 6 0 10
7 10 15 0 8 -7 15 -15 15 -8 0 -15 -7 -15 -15 0 -8 -11 -17 -25 -21 -39 -10
-31 -34 10 -34 19 0 35 -4 35 -10 0 -5 -4 -10 -10 -10 -5 0 -10 -7 -10 -15 0
-18 -52 -33 -58 -17 -6 19 -32 14 -32 -7 0 -21 14 -26 103 -36 31 -4 57 -11
57 -16 0 -5 9 -9 20 -9 14 0 20 -7 20 -23 0 -28 26 -67 46 -67 8 0 14 4 14 10
0 5 16 2 35 -7 38 -18 47 -43 15 -43 -11 0 -20 5 -20 10 0 6 -7 10 -15 10 -8
0 -15 -7 -15 -15 0 -8 7 -15 15 -15 16 0 19 -9 9 -34 -8 -20 -24 -21 -24 -2 0
10 -13 14 -47 13 -28 -1 -62 5 -82 16 -19 9 -40 17 -48 17 -7 0 -13 4 -13 9 0
15 -169 47 -262 50 -30 1 -35 4 -31 20 4 15 -1 20 -24 23 -22 2 -27 8 -25 23
2 11 12 27 23 37 25 21 25 48 -1 48 -11 0 -20 4 -20 8 0 4 9 14 20 22 21 15
27 40 9 40 -12 0 -39 -25 -39 -37 0 -27 -99 -51 -140 -34 -24 9 -24 10 -2 10
21 1 33 31 12 31 -5 0 -10 9 -10 20 0 11 7 20 15 20 8 0 15 5 15 10 0 6 7 10
15 10 9 0 28 6 43 14 15 7 51 17 81 21 52 7 54 6 38 -10 -9 -9 -17 -23 -17
-31 0 -23 29 -16 35 9 4 13 17 31 31 41 29 22 31 46 5 46 -21 0 -104 -16 -160
-30 -40 -11 -44 -9 -35 14 4 10 17 16 35 16 19 0 29 5 29 15 0 20 -49 20 -97
0 -20 -8 -38 -14 -40 -12 -8 8 10 37 23 37 8 0 14 9 14 19 0 17 56 71 73 71
17 0 127 74 127 86 0 20 -21 17 -71 -11 -24 -14 -51 -27 -59 -31 -8 -3 -22 -9
-30 -13 -8 -4 -25 -13 -37 -19 -13 -7 -32 -16 -43 -22 -11 -5 -58 -10 -105
-10 -50 0 -85 4 -85 10 0 6 9 10 21 10 35 0 65 43 37 52 -7 3 -11 19 -10 41 2
33 0 37 -21 37 -14 0 -37 -10 -53 -22 -35 -28 -94 -32 -94 -6 0 10 10 20 25
24 15 4 28 16 31 29 7 28 28 39 67 36 23 -2 28 1 25 16 -3 14 -14 19 -53 20
-70 4 -95 11 -95 28 0 14 48 65 62 65 4 0 20 12 35 26 15 15 46 35 68 46 22
10 54 27 72 38 17 10 49 20 70 22 39 3 67 -2 45 -10z m588 -28 c0 -19 -5 -43
-12 -54 -7 -10 -9 -22 -5 -26 11 -11 57 14 57 31 0 8 5 15 10 15 6 0 8 15 4
38 l-6 38 41 -4 c33 -3 41 -8 37 -21 -2 -9 -7 -26 -11 -38 -3 -12 0 -36 7 -55
20 -50 12 -97 -18 -104 -13 -3 -24 -12 -24 -19 0 -17 33 -25 76 -18 19 3 34 1
34 -4 0 -10 43 -33 62 -33 6 0 8 9 5 20 -5 20 -2 20 79 15 46 -3 84 -2 84 2 0
5 24 6 53 3 48 -5 52 -7 55 -32 3 -28 32 -41 32 -15 0 9 9 12 28 9 22 -3 30
-11 40 -43 16 -53 15 -67 -7 -78 -18 -10 -19 -7 -15 49 3 47 1 60 -10 60 -16
0 -29 -41 -20 -64 3 -9 1 -16 -5 -16 -6 0 -11 11 -11 25 0 18 -5 25 -20 25
-11 0 -20 -7 -20 -15 0 -8 -3 -15 -7 -15 -12 0 -43 33 -43 47 0 7 -4 13 -10
13 -5 0 -10 7 -10 15 0 8 -7 15 -16 15 -12 0 -15 -6 -10 -25 4 -14 2 -25 -4
-25 -5 0 -10 -7 -10 -16 0 -11 6 -15 20 -11 16 4 20 0 20 -19 0 -13 9 -28 21
-35 17 -9 20 -17 15 -44 -4 -18 -2 -35 3 -37 5 -1 7 -16 4 -31 l-5 -28 -14 27
c-8 14 -14 34 -14 43 -1 24 -25 51 -45 51 -13 0 -16 -5 -11 -25 6 -24 5 -25
-16 -13 -13 7 -24 13 -26 14 -1 1 4 33 13 73 18 88 18 81 -1 81 -8 0 -22 -16
-30 -35 -11 -26 -20 -35 -38 -35 -43 0 -56 10 -50 36 5 21 3 23 -22 22 -16 0
-40 3 -53 7 -22 8 -23 6 -17 -21 9 -34 20 -47 61 -68 28 -15 28 -16 7 -16 -17
0 -22 -5 -20 -17 3 -13 12 -17 32 -16 18 1 26 -1 20 -7 -17 -17 -118 -37 -170
-35 -46 3 -68 10 -114 37 -8 5 -27 14 -42 21 -16 6 -28 15 -28 20 0 4 -11 19
-25 33 -36 36 -33 67 6 57 12 -3 19 -14 19 -28 0 -17 7 -24 28 -28 15 -3 40
-17 55 -31 16 -14 32 -26 38 -26 5 0 9 -7 9 -16 0 -12 6 -15 23 -10 12 3 43 6
70 6 39 0 47 3 47 19 0 14 -10 20 -39 25 -22 3 -46 3 -55 0 -10 -4 -18 1 -23
12 -4 11 -29 40 -55 65 -60 58 -61 71 -6 67 33 -2 43 1 46 13 2 13 -8 18 -46
23 -57 7 -66 13 -47 32 9 9 24 12 40 8 21 -5 25 -3 25 14 0 24 -53 40 -74 23
-11 -9 -15 -6 -18 12 -3 13 -1 32 3 43 4 10 8 33 8 51 1 33 14 43 44 35 12 -3
17 -14 17 -38z m554 -79 c14 -13 26 -28 26 -34 0 -5 4 -11 9 -13 13 -5 24 -48
12 -48 -5 0 -30 14 -54 30 -71 47 -122 34 -60 -16 l27 -22 -49 4 c-27 2 -52
-1 -55 -6 -7 -11 -50 20 -50 35 0 5 -7 16 -16 26 -24 26 -8 40 44 37 26 -1 58
1 72 6 19 5 31 2 47 -14 26 -24 43 -26 43 -5 0 8 -4 15 -9 15 -5 0 -11 7 -15
15 -7 20 -3 19 28 -10z m986 -234 c0 -8 7 -11 20 -8 13 3 20 0 20 -8 0 -8 8
-16 18 -20 29 -10 70 -79 65 -109 -5 -26 -26 -35 -38 -16 -3 6 -1 10 4 10 6 0
11 7 11 16 0 12 -6 15 -24 10 -21 -5 -38 1 -108 40 -19 11 -18 12 11 19 18 4
31 13 31 22 0 12 -6 14 -27 8 -15 -3 -30 -10 -33 -15 -3 -5 -20 -2 -38 7 -26
12 -30 18 -21 29 6 8 22 14 35 14 13 0 24 3 24 8 0 4 11 7 25 7 14 0 25 -6 25
-14z m-1210 -141 c0 -13 7 -20 19 -20 11 0 29 -13 41 -30 12 -16 17 -30 11
-30 -6 0 -11 -7 -11 -15 0 -8 7 -15 15 -15 8 0 15 8 15 17 0 9 3 14 6 10 10
-9 -7 -67 -19 -67 -14 0 -77 -66 -77 -80 0 -6 -9 -10 -20 -10 -27 0 -82 -23
-102 -43 -15 -15 -16 -13 -20 18 -2 19 -1 35 3 35 4 0 11 10 15 22 6 20 8 20
19 5 20 -28 38 -21 33 13 -4 26 -1 30 18 30 12 0 24 -7 28 -15 6 -15 41 -21
49 -7 3 4 8 25 11 48 7 39 6 42 -23 54 -25 10 -40 10 -76 0 -25 -7 -45 -16
-45 -21 0 -5 -7 -6 -15 -3 -8 4 -15 11 -15 17 0 6 -7 18 -16 28 -15 17 -14 18
12 24 16 3 52 17 79 30 61 30 65 30 65 5z m-250 -30 c14 0 64 -52 84 -85 16
-28 16 -33 2 -65 l-16 -35 6 43 c5 34 4 42 -9 42 -11 0 -20 -20 -31 -67 -18
-79 -7 -145 31 -189 33 -39 31 -57 -4 -42 -48 21 -69 37 -84 65 -8 15 -22 35
-31 45 -10 10 -18 25 -18 33 0 8 -6 15 -14 15 -7 0 -16 11 -18 25 -4 17 -1 25
8 25 8 0 14 7 14 15 0 8 -7 15 -16 15 -12 0 -14 7 -9 30 4 19 3 30 -4 30 -10
0 5 23 40 60 8 9 19 25 22 34 5 11 13 16 23 12 9 -3 20 -6 24 -6z m1303 -41
c40 -21 48 -44 18 -52 -12 -3 -26 5 -42 24 -26 31 -49 38 -49 14 0 -8 4 -15 8
-15 4 0 16 -13 25 -29 l17 -30 -77 5 c-42 2 -80 9 -84 15 -4 6 -16 8 -28 4
-17 -5 -21 -2 -21 17 0 24 20 64 20 41 0 -7 7 -13 15 -13 8 0 15 7 15 15 0 8
7 15 15 15 8 0 15 5 15 11 0 16 108 0 153 -22z m-2543 -40 c0 -5 9 -9 20 -9
11 0 20 -4 20 -10 0 -5 7 -10 15 -10 8 0 15 5 15 11 0 6 6 17 14 25 13 12 17
12 30 -1 20 -20 36 -19 37 3 1 9 6 -1 12 -23 7 -29 7 -40 -2 -43 -7 -2 -9 -16
-5 -37 3 -19 1 -57 -5 -86 -8 -34 -8 -55 -2 -59 6 -3 7 -11 3 -17 -5 -7 -13
-2 -25 13 -10 13 -13 24 -7 24 5 0 10 7 10 15 0 9 -9 15 -25 15 -15 0 -25 6
-25 14 0 8 -10 16 -22 20 -24 6 -48 46 -48 79 0 14 -5 18 -18 15 -12 -3 -24 2
-31 13 -9 16 -8 19 9 19 11 0 20 7 20 15 0 8 -4 15 -10 15 -5 0 -10 4 -10 10
0 5 7 7 15 4 8 -4 15 -10 15 -15z m257 8 c14 -23 86 -50 143 -54 78 -6 83 -8
70 -34 -15 -27 -69 -50 -92 -38 -29 15 -39 10 -36 -17 2 -22 13 -30 68 -52 36
-14 68 -30 72 -35 3 -6 35 -8 77 -4 43 3 73 2 77 -4 8 -14 -25 -49 -48 -49
-10 0 -21 -7 -24 -15 -5 -11 -17 -15 -42 -13 -29 2 -37 -1 -40 -16 -2 -10 3
-23 12 -28 22 -12 20 -22 -9 -54 -14 -15 -25 -32 -25 -38 -1 -22 -68 -86 -90
-86 -18 0 -21 -4 -16 -23 5 -23 -21 -57 -44 -57 -6 0 -10 -6 -10 -13 0 -8 -9
-22 -20 -32 -11 -10 -20 -13 -20 -7 0 7 -8 12 -17 13 -11 0 -13 3 -5 6 17 7
15 33 -3 33 -18 0 -19 7 -2 25 51 54 56 69 30 84 -17 10 -17 10 0 11 9 0 17 6
17 13 0 9 2 9 9 -1 11 -17 61 -5 61 15 0 11 -7 13 -23 9 -16 -4 -27 1 -38 15
-7 12 -29 37 -46 57 -31 34 -45 82 -23 82 6 0 10 7 10 15 0 8 -4 15 -10 15
-11 0 -14 207 -4 259 7 32 27 41 41 18z m1493 -67 c0 -5 11 -10 24 -10 15 0
34 -12 50 -31 29 -34 34 -69 11 -69 -8 0 -15 -7 -15 -15 0 -8 4 -15 9 -15 11
0 -12 -49 -45 -99 l-22 -33 1 51 c1 31 8 55 16 60 8 5 11 16 6 30 -7 24 -35
29 -35 6 0 -9 -9 -15 -25 -15 -15 0 -25 6 -25 15 0 8 -14 17 -35 21 -42 8 -65
0 -65 -22 0 -13 7 -16 33 -11 42 7 70 -8 33 -17 -28 -7 -36 -36 -11 -36 8 0
15 -4 15 -10 0 -5 7 -10 15 -10 9 0 15 9 15 21 0 19 1 19 16 4 22 -22 11 -59
-31 -104 -55 -58 -46 -73 28 -47 33 12 39 12 44 -1 3 -8 1 -19 -6 -26 -6 -6
-11 -19 -11 -28 0 -9 -8 -20 -17 -23 -16 -6 -22 -1 -43 35 -5 9 -29 21 -53 28
-31 7 -46 17 -50 31 -3 11 -2 20 3 20 4 0 10 -9 13 -20 6 -23 37 -27 37 -5 0
9 -7 18 -15 21 -8 4 -15 15 -15 25 0 10 -4 19 -10 19 -18 0 -11 20 16 46 29
30 28 58 -3 62 -14 2 -26 -4 -33 -18 -9 -17 -14 -19 -26 -9 -34 28 -1 104 59
136 18 10 34 17 37 16 3 0 21 -3 41 -7 33 -6 37 -4 43 19 6 24 26 36 26 15z
m838 -33 c6 3 12 0 12 -6 0 -6 7 -11 15 -11 8 0 15 5 15 10 0 6 14 10 30 10
36 0 38 -10 5 -42 -19 -19 -33 -24 -62 -22 -21 2 -62 3 -90 3 -40 1 -53 5 -53
16 0 22 -40 19 -41 -2 -1 -17 -2 -17 -6 -1 -2 9 -13 20 -23 23 -10 3 -20 11
-23 18 -3 9 21 11 102 6 58 -3 112 -4 119 -2z m-158 -107 c0 -5 -4 -10 -10
-10 -5 0 -10 -9 -10 -19 0 -14 8 -21 28 -23 23 -3 27 -8 30 -40 2 -29 8 -37
28 -42 31 -8 31 -32 -1 -38 -17 -4 -25 -1 -25 8 0 8 -9 14 -20 14 -20 0 -29
-25 -11 -32 12 -4 -5 -119 -19 -128 -7 -4 -21 -5 -32 -2 -25 6 -95 -17 -102
-34 -3 -7 -13 -10 -25 -7 -15 4 -21 1 -21 -11 0 -9 6 -16 13 -16 6 0 12 -10
12 -22 1 -13 4 -36 8 -51 l8 -28 -38 20 c-35 18 -72 49 -98 83 -53 68 -54 69
-44 94 5 14 9 41 9 60 0 24 5 34 15 34 17 0 20 27 4 32 -9 3 -9 9 0 25 9 18
17 66 20 118 1 13 131 19 131 5 0 -5 7 -10 15 -10 8 0 15 4 15 9 0 12 24 18
78 20 23 0 42 -3 42 -9z m-2340 -60 c0 -11 5 -20 10 -20 6 0 10 -9 10 -20 0
-11 7 -20 15 -20 23 0 37 -35 25 -66 -6 -15 -8 -35 -5 -45 5 -14 1 -19 -13
-19 -15 0 -19 5 -15 21 5 17 2 20 -18 17 -21 -3 -24 1 -21 25 4 35 -23 37 -32
3 -10 -40 9 -72 57 -95 49 -24 59 -38 50 -69 -11 -43 -113 -29 -113 15 0 12
-5 23 -11 23 -7 0 -9 9 -5 23 18 65 18 64 -6 71 -15 4 -19 9 -11 14 6 4 15 20
18 35 5 19 14 27 29 27 33 0 49 15 41 39 -3 11 -11 21 -16 21 -5 0 -9 9 -9 20
0 11 5 20 10 20 6 0 10 -9 10 -20z m1893 -46 c-3 -8 -9 -14 -14 -14 -13 0 -11
-28 2 -32 6 -2 13 -26 14 -53 1 -28 3 -57 4 -67 0 -9 13 -21 29 -26 15 -6 21
-11 14 -11 -9 -1 -10 -12 -6 -41 4 -22 3 -40 0 -40 -22 0 -50 26 -63 58 -20
47 -43 189 -36 223 4 21 9 25 33 21 19 -3 27 -9 23 -18z m1087 -25 c0 -11 -4
-19 -10 -19 -5 0 -10 -9 -10 -20 0 -11 5 -20 11 -20 7 0 9 -12 5 -35 -4 -22
-3 -35 4 -35 5 0 10 -6 10 -14 0 -7 7 -27 15 -42 8 -16 15 -37 15 -46 0 -9 4
-19 9 -22 5 -3 7 -15 4 -26 -3 -11 0 -20 6 -20 6 0 11 -8 11 -17 0 -9 14 -28
31 -42 27 -23 29 -29 20 -53 -6 -16 -17 -28 -26 -28 -19 0 -20 26 0 34 22 8
18 34 -7 47 -13 7 -26 16 -29 22 -13 18 -39 -2 -40 -30 0 -15 -3 -22 -6 -15
-2 6 -11 12 -18 12 -9 0 -15 27 -20 95 -4 51 -4 99 -1 104 4 6 4 22 0 36 -8
32 -39 30 -38 -3 0 -12 -5 -22 -12 -22 -11 0 -24 -21 -24 -41 0 -5 8 -9 18 -9
13 0 17 -8 16 -37 -1 -20 -6 -39 -13 -41 -17 -6 -13 -32 5 -32 11 0 14 -5 10
-16 -3 -9 -6 -37 -6 -62 -1 -44 -1 -46 -16 -27 -31 40 -65 129 -59 155 3 15
21 57 40 95 19 38 35 76 36 84 0 11 2 12 6 4 2 -7 11 -13 19 -13 11 0 14 16
14 71 0 62 2 70 15 59 8 -7 15 -21 15 -31z m-1600 -41 c0 -54 -10 -67 -46 -61
-38 6 -47 -11 -17 -32 14 -11 15 -16 4 -44 -15 -34 -23 -38 -43 -18 -17 17
-87 57 -99 57 -5 0 -9 -9 -9 -20 0 -11 6 -20 14 -20 7 0 19 -7 26 -15 7 -8 21
-15 31 -15 12 0 19 -7 19 -20 0 -13 7 -20 20 -20 15 0 20 -6 19 -27 -1 -17 -3
-21 -6 -10 -6 23 -30 22 -38 -2 -6 -20 24 -61 44 -61 11 0 26 -59 17 -67 -3
-3 -30 15 -60 41 -30 25 -60 46 -66 46 -7 0 -21 11 -32 25 -11 14 -26 25 -34
25 -28 0 -62 30 -57 49 3 13 -2 21 -18 26 -14 5 -25 3 -27 -4 -5 -16 -27 -14
-79 10 -25 11 -73 26 -107 33 -50 10 -62 17 -64 34 -2 12 -10 22 -19 22 -11 0
-14 -7 -11 -25 3 -13 1 -22 -3 -19 -5 3 -9 12 -9 20 0 8 -7 14 -15 14 -8 0
-15 -5 -15 -10 0 -7 -6 -7 -20 0 -24 13 -27 40 -4 40 9 0 14 8 13 18 -4 42 -1
44 54 37 72 -9 87 -14 87 -31 0 -8 7 -14 15 -14 8 0 15 5 15 10 0 18 42 11 47
-8 3 -14 15 -18 52 -19 47 -1 111 -22 69 -23 -10 0 -18 -7 -18 -16 0 -12 6
-15 25 -10 14 4 25 2 25 -3 0 -18 81 -10 101 10 10 10 19 21 19 24 0 3 16 22
35 41 24 24 41 33 53 29 10 -3 36 1 58 9 53 20 54 19 54 -6z m-765 -11 c-8
-13 -26 -30 -40 -37 -14 -7 -25 -21 -25 -31 0 -19 11 -24 77 -34 24 -4 47 -13
51 -21 6 -11 45 -20 107 -23 21 -2 -42 -47 -82 -60 -49 -16 -62 -48 -15 -36
l27 7 -27 -29 c-44 -46 -38 -63 21 -63 28 0 53 -5 56 -10 4 -6 26 -8 56 -4 27
4 49 4 49 2 0 -3 -13 -21 -30 -39 -16 -19 -30 -40 -30 -46 0 -7 -4 -13 -10
-13 -5 0 -10 -6 -10 -14 0 -25 -27 -25 -40 0 -8 13 -19 24 -27 24 -15 0 -18
-31 -4 -46 15 -14 -94 -16 -161 -2 -37 7 -58 16 -58 24 0 8 -7 14 -15 14 -8 0
-15 -7 -15 -15 0 -11 -11 -15 -40 -15 -27 0 -43 5 -46 15 -6 15 -44 22 -44 8
0 -5 -11 -8 -24 -8 -13 0 -22 3 -19 8 2 4 11 7 19 7 8 0 14 5 14 10 0 6 6 10
13 10 8 0 29 8 47 17 24 12 35 13 38 5 7 -22 33 -13 30 9 -2 17 8 27 48 48 78
40 106 51 131 51 44 0 24 46 -25 56 -25 5 -32 3 -32 -9 0 -16 -59 -40 -160
-63 -36 -8 -73 -19 -82 -24 -10 -6 -27 -10 -39 -10 -11 0 -29 -5 -39 -10 -18
-10 -18 -7 3 37 33 71 36 74 63 67 29 -7 34 19 7 35 -15 8 -15 13 -4 37 7 16
21 34 32 42 11 7 28 30 38 50 30 59 63 92 86 87 11 -3 43 -1 70 4 78 14 77 14
60 -12z m838 -24 c-7 -2 -13 -11 -13 -19 0 -10 13 -14 46 -14 50 0 70 -15 101
-74 12 -24 13 -30 1 -37 -18 -12 -21 -11 -44 6 -10 8 -27 15 -36 15 -19 0 -25
-25 -8 -35 6 -3 10 -10 10 -15 0 -11 -32 -1 -41 13 -10 14 -51 1 -77 -23 -16
-15 -22 -32 -22 -62 0 -55 -8 -44 -20 27 -11 65 -6 79 46 138 20 21 34 48 34
62 0 17 5 25 18 24 10 0 12 -3 5 -6z m1052 -54 c-7 -31 -7 -31 27 -27 47 5 88
-36 75 -75 -5 -15 -12 -27 -17 -27 -4 0 -22 -13 -40 -30 -42 -39 -102 -65
-167 -73 -56 -6 -69 4 -36 28 21 15 24 92 5 104 -26 16 21 81 58 81 12 0 33
11 48 25 38 35 55 33 47 -6z m-1445 -169 c8 -11 22 -20 32 -20 30 0 65 -21
118 -71 29 -27 58 -49 65 -49 8 0 16 -8 19 -17 25 -91 13 -116 -35 -73 -19 16
-42 32 -51 36 -10 3 -18 12 -18 20 0 8 -8 14 -17 14 -10 0 -36 11 -58 25 -22
13 -46 25 -53 25 -7 0 -20 7 -28 15 -9 8 -24 15 -34 15 -28 0 -31 13 -13 53
15 31 24 39 53 46 3 0 12 -8 20 -19z m396 -89 c5 -5 20 -11 33 -13 31 -4 37
-21 16 -42 -14 -13 -15 -22 -6 -47 9 -26 9 -29 -3 -20 -15 13 -66 5 -66 -10 0
-13 -28 -11 -32 3 -2 6 -12 9 -21 5 -21 -8 -22 -46 -1 -61 10 -8 14 -23 12
-46 l-3 -34 -18 28 c-32 49 -22 173 18 212 13 14 15 14 15 0 0 -9 7 -16 15
-16 8 0 15 7 15 15 0 8 -6 15 -12 15 -9 0 -8 4 2 10 19 12 24 12 36 1z m-369
-77 c48 -26 90 -50 91 -55 2 -5 10 -9 17 -9 8 0 11 -7 8 -20 -4 -14 0 -20 10
-20 14 0 92 -72 122 -112 38 -51 43 -98 10 -98 -8 0 -15 -8 -16 -17 0 -11 -3
-13 -6 -5 -2 6 -11 12 -19 12 -8 0 -14 6 -14 13 0 7 -9 18 -20 25 -15 9 -20
23 -20 57 0 38 -3 45 -19 45 -13 0 -21 -8 -23 -22 -3 -22 -3 -22 -32 5 -33 31
-56 35 -56 9 0 -22 50 -69 83 -77 14 -4 27 -16 30 -27 3 -11 15 -22 26 -25 12
-3 21 -10 21 -15 0 -5 9 -21 20 -35 11 -14 20 -36 20 -49 0 -18 6 -24 21 -24
23 0 49 -22 49 -42 0 -7 -9 -19 -19 -25 -16 -10 -24 -7 -55 24 -21 21 -36 46
-36 60 0 14 -6 23 -15 23 -8 0 -15 -5 -15 -12 0 -6 -8 -4 -19 6 -11 10 -17 25
-14 37 6 21 -22 28 -30 7 -3 -7 -6 -2 -6 11 -1 18 -5 22 -22 18 -12 -3 -22 0
-26 9 -3 8 -17 14 -32 14 -15 0 -36 7 -47 15 -10 8 -31 15 -45 15 -15 0 -33 8
-40 18 -11 14 -11 15 1 5 8 -7 20 -13 27 -13 17 0 17 25 -1 40 -8 6 -12 18 -9
27 3 8 0 19 -8 24 -12 8 -12 11 1 19 16 10 79 3 95 -11 14 -13 35 -11 35 4 0
7 -13 24 -30 37 -19 16 -29 35 -30 53 0 28 -23 38 -34 15 -5 -10 -7 -10 -12 0
-3 6 -12 12 -20 12 -8 0 -14 9 -14 20 0 11 -7 20 -15 20 -18 0 -18 1 -5 34 13
36 36 33 137 -20z m-207 -19 c0 -3 -7 -17 -16 -30 -22 -34 -12 -55 28 -55 39
0 78 -10 77 -19 0 -3 -25 -25 -55 -49 -57 -45 -67 -67 -34 -77 11 -3 34 -22
52 -41 20 -21 42 -34 58 -34 14 0 51 -12 82 -27 42 -21 57 -34 57 -49 1 -23
-25 -80 -40 -89 -20 -13 -7 -34 34 -53 24 -11 49 -27 56 -36 16 -19 61 -21 61
-3 0 7 -5 18 -12 25 -9 9 -8 12 5 12 9 0 17 7 17 16 0 13 -6 15 -27 9 -32 -8
-33 -8 -55 -6 -22 1 -25 41 -3 41 18 0 20 27 3 32 -7 3 -3 7 9 10 15 4 31 -2
48 -16 14 -11 39 -32 55 -46 16 -14 30 -31 30 -37 0 -15 13 -16 59 -7 17 4 31
13 31 20 0 8 5 14 10 14 6 0 10 -5 10 -11 0 -7 8 -17 17 -24 15 -11 15 -14 1
-28 -14 -15 -17 -14 -33 3 -10 11 -24 20 -32 20 -15 0 -18 -26 -3 -35 6 -3 10
-15 10 -26 0 -10 6 -19 13 -19 6 0 22 -3 35 -6 14 -4 22 -2 22 6 0 10 23 40
32 40 2 0 3 -13 3 -30 0 -17 -5 -30 -12 -30 -23 0 -14 -32 17 -62 17 -15 30
-33 30 -39 0 -7 11 -9 30 -5 29 5 30 5 30 -34 0 -54 25 -54 34 -1 5 32 11 41
37 50 40 14 39 14 39 -4 0 -8 6 -15 14 -15 14 0 46 -36 46 -52 0 -5 -7 -8 -15
-8 -9 0 -15 -9 -15 -25 0 -14 -4 -25 -10 -25 -5 0 -10 -7 -10 -15 0 -8 -4 -15
-10 -15 -5 0 -10 -7 -10 -15 0 -22 37 -18 43 5 6 24 57 29 57 5 0 -17 27 -20
49 -6 12 8 13 14 3 36 -18 38 -15 46 13 39 22 -5 25 -3 25 21 0 22 -4 26 -20
22 -13 -3 -20 0 -20 9 0 8 -7 14 -15 14 -8 0 -15 -7 -15 -15 0 -9 -6 -12 -15
-9 -8 4 -15 14 -15 24 0 10 -7 23 -15 30 -8 7 -15 19 -15 26 0 8 -4 14 -10 14
-17 0 -11 35 9 58 l18 22 9 -33 c12 -39 50 -54 41 -15 -18 76 -19 98 -4 98 9
0 18 -12 21 -30 3 -16 9 -43 12 -60 7 -35 34 -41 34 -7 0 22 31 57 50 57 6 0
10 5 10 10 0 6 25 10 56 10 41 0 54 -3 50 -12 -3 -7 -9 -20 -12 -30 -6 -18
-57 -32 -62 -17 -8 21 -32 6 -48 -31 -13 -30 -24 -40 -41 -40 -30 0 -30 -28
-1 -60 13 -13 21 -33 20 -45 -2 -13 7 -26 25 -37 15 -10 22 -18 16 -18 -15 0
-18 -30 -4 -30 5 0 12 -13 16 -30 4 -16 12 -30 20 -30 17 0 15 92 -3 98 -17 5
-15 32 3 32 8 0 15 7 15 15 0 8 -9 15 -20 15 -28 0 -36 43 -18 99 15 46 15 46
23 17 5 -18 4 -36 -4 -47 -16 -27 -14 -39 9 -39 13 0 20 -7 20 -20 0 -11 7
-20 15 -20 20 0 32 30 16 39 -16 10 -3 61 15 61 8 0 14 7 14 15 0 8 -4 15 -10
15 -5 0 -10 8 -10 17 0 13 6 11 28 -10 15 -15 33 -27 40 -27 11 0 32 -31 32
-47 -1 -23 -43 -56 -70 -55 -35 1 -38 -10 -10 -38 24 -24 50 -26 50 -5 0 8 11
17 25 21 14 3 25 11 25 18 0 7 3 7 8 1 11 -16 68 -45 87 -45 14 0 16 6 12 30
-6 26 -3 30 14 30 18 0 20 -2 8 -16 -10 -12 -10 -20 -1 -35 7 -11 8 -19 2 -19
-5 0 -10 -7 -10 -15 0 -8 4 -15 10 -15 11 0 30 -64 30 -105 1 -16 11 -54 24
-84 13 -30 21 -62 18 -73 -4 -17 -5 -17 -23 3 -11 12 -25 19 -34 15 -9 -3 -15
0 -15 9 0 8 -5 15 -10 15 -6 0 -2 10 10 22 24 26 26 73 5 95 -9 8 -33 17 -55
20 l-40 6 0 63 c0 48 -4 64 -14 64 -9 0 -15 -17 -18 -50 -4 -37 -11 -55 -29
-70 -13 -11 -29 -24 -36 -30 -7 -5 -17 -10 -23 -10 -17 0 -38 -25 -46 -54 -5
-20 -2 -26 10 -26 9 0 16 7 16 15 0 9 12 21 28 28 15 6 32 18 37 25 9 11 16
11 37 2 17 -8 32 -9 42 -3 28 16 76 4 76 -19 0 -15 -5 -18 -21 -13 -14 5 -25
1 -35 -12 -11 -13 -17 -14 -20 -5 -8 17 -34 15 -34 -3 0 -8 7 -15 15 -15 8 0
15 -4 15 -10 0 -5 -9 -10 -19 -10 -22 0 -34 -25 -26 -51 7 -21 31 -25 38 -6 2
6 4 -3 3 -20 -1 -18 -4 -33 -8 -33 -5 0 -8 4 -8 9 0 5 -9 11 -20 14 -11 3 -20
12 -20 21 0 9 -6 16 -12 16 -10 0 -10 2 -1 8 6 4 15 20 18 35 5 20 4 27 -8 27
-8 0 -17 -9 -20 -19 -3 -14 -11 -18 -26 -14 -18 5 -21 1 -21 -26 0 -24 5 -32
25 -37 32 -8 32 -24 1 -24 -13 0 -31 -3 -40 -6 -12 -4 -16 0 -16 15 0 28 -28
27 -40 -1 -7 -18 -9 -19 -9 -5 -1 20 -31 24 -31 3 0 -8 -15 -17 -35 -20 -26
-5 -35 -12 -35 -26 0 -29 -23 -24 -42 9 -18 32 -15 41 14 41 10 0 18 7 18 15
0 9 -10 15 -26 15 -17 0 -28 6 -31 20 -3 11 -10 20 -15 20 -12 0 -42 30 -36
36 11 10 58 -16 58 -32 0 -12 6 -15 23 -10 12 3 34 6 50 6 18 0 27 5 27 16 0
13 -8 15 -40 12 -26 -2 -40 1 -40 8 0 7 -12 15 -27 19 -15 3 -31 11 -34 17 -9
14 -49 0 -49 -18 0 -23 -26 -44 -54 -44 -19 0 -26 5 -26 20 0 11 -7 20 -15 20
-9 0 -15 -9 -15 -21 0 -14 -5 -19 -17 -17 -12 2 -17 11 -15 27 6 41 -31 21
-44 -24 -7 -25 -17 -41 -28 -41 -12 -2 -13 -1 -1 3 24 7 19 36 -5 30 -12 -3
-20 0 -20 8 0 8 8 11 20 8 14 -4 20 0 20 11 0 9 -4 16 -10 16 -5 0 -10 7 -10
15 0 9 9 15 25 15 14 0 25 4 25 9 0 18 -12 41 -22 41 -13 0 -38 -26 -38 -39 0
-6 -4 -11 -10 -11 -5 0 -10 -9 -10 -20 0 -24 -13 -26 -34 -5 -8 8 -19 15 -25
15 -6 0 -11 5 -11 10 0 6 -9 10 -20 10 -22 0 -25 -16 -10 -54 9 -25 8 -26 -18
-20 -15 4 -32 13 -38 20 -6 8 -16 14 -23 14 -21 0 -11 19 11 22 13 2 24 11 26
20 3 14 -3 18 -28 18 -18 0 -33 -6 -36 -15 -9 -22 -19 -18 -32 10 -14 31 -30
32 -62 2 -27 -24 -60 -25 -60 -1 0 18 -24 18 -43 0 -8 -8 -31 -18 -51 -21 -29
-6 -36 -4 -36 8 0 8 -3 24 -6 34 -4 13 -3 15 4 4 8 -11 16 -11 48 -1 72 23 84
30 84 45 0 9 11 20 25 25 15 6 25 17 25 30 0 11 5 20 10 20 6 0 10 7 10 15 0
8 5 15 10 15 6 0 10 7 10 15 0 8 -7 15 -15 15 -8 0 -15 -7 -15 -15 0 -8 -4
-15 -9 -15 -5 0 -12 -8 -14 -17 -3 -11 -5 -7 -6 10 -1 28 -31 40 -31 13 0 -8
-6 -16 -12 -19 -10 -3 -10 -9 0 -26 7 -12 8 -21 2 -21 -5 0 -10 5 -10 11 0 6
-9 9 -19 6 -11 -3 -22 1 -25 9 -3 8 0 11 11 7 15 -6 33 12 33 35 0 6 -9 12
-21 12 -18 0 -20 4 -14 30 6 27 4 30 -20 30 -24 0 -26 -3 -20 -30 7 -34 1 -38
-23 -14 -10 11 -15 29 -13 50 3 36 0 38 -36 28 -22 -6 -33 -34 -14 -34 5 0 12
-13 16 -29 3 -16 15 -39 26 -52 10 -12 19 -27 19 -33 0 -6 -7 -3 -14 7 -18 23
-40 22 -33 -2 3 -15 0 -17 -17 -13 -11 3 -15 7 -8 10 18 6 15 52 -3 52 -8 0
-16 -8 -16 -17 -1 -17 -2 -17 -6 -1 -6 25 -28 22 -41 -5 l-11 -22 0 23 c-1 23
-16 28 -40 13 -11 -7 -11 -15 -3 -40 14 -40 7 -60 -19 -54 -13 4 -19 0 -19
-11 0 -9 8 -16 18 -16 16 -1 16 -1 0 -11 -21 -12 -24 -35 -5 -42 7 -3 5 -6 -5
-6 -18 -1 -23 14 -19 56 1 15 -5 22 -20 25 -29 4 -37 28 -10 28 12 0 21 4 21
9 0 5 9 7 20 4 29 -8 26 23 -2 31 l-23 7 23 9 c24 10 31 40 8 40 -9 0 -12 8
-8 25 4 24 22 36 22 15 0 -5 9 -10 19 -10 17 0 31 18 31 41 0 14 -27 11 -34
-3 -5 -10 -7 -10 -12 0 -3 6 -12 12 -19 12 -7 0 -16 -6 -18 -12 -3 -8 -6 -6
-6 5 -1 9 4 17 9 17 6 0 10 6 10 14 0 16 -96 28 -121 15 -11 -6 -21 -4 -29 6
-10 12 -9 15 9 15 11 0 21 5 21 11 0 7 12 9 35 5 27 -5 35 -4 35 8 0 9 -13 18
-35 22 -35 6 -49 24 -20 24 8 0 15 7 15 15 0 8 -7 15 -15 15 -8 0 -15 -4 -15
-10 0 -5 -7 -10 -15 -10 -8 0 -15 -8 -16 -17 0 -11 -3 -13 -6 -5 -7 17 -33 15
-33 -3 0 -8 7 -15 15 -15 8 0 15 -7 15 -15 0 -8 -4 -15 -9 -15 -5 0 -11 7 -15
15 -10 28 -42 17 -54 -17 -5 -18 -10 -25 -11 -16 -1 9 -9 19 -18 21 -14 4 -12
5 5 6 26 1 27 11 6 53 -9 18 -12 33 -6 37 5 3 12 13 15 21 4 12 6 11 6 -2 1
-23 19 -23 40 1 9 10 26 21 39 25 30 10 29 36 -3 36 -16 0 -25 -6 -25 -15 0
-8 -6 -15 -14 -15 -8 0 -16 -6 -19 -12 -3 -7 -8 6 -12 29 -4 24 -14 44 -24 48
-14 6 -14 8 2 20 10 7 27 11 37 8 11 -3 20 -1 20 5 0 12 36 22 47 12 4 -3 31
-15 58 -24 28 -10 57 -27 67 -37 18 -21 58 -26 58 -6 -1 19 -50 61 -115 97
-75 41 -71 38 -57 52 9 9 12 8 12 -5 0 -9 7 -17 15 -17 18 0 20 38 3 75 -14
31 -25 31 -52 2 -29 -31 -52 -39 -66 -22 -6 7 -22 16 -35 19 -34 9 -94 49 -95
64 0 6 -9 12 -19 12 -22 0 -39 39 -22 49 6 4 41 6 77 4 36 -2 71 0 77 5 7 6
44 13 83 17 68 6 71 6 77 -15 8 -32 -1 -49 -25 -42 -18 4 -20 2 -15 -19 4 -13
7 -30 7 -38 0 -8 7 -11 20 -8 16 4 20 0 20 -18 0 -15 7 -26 20 -30 12 -4 22
-19 26 -39 5 -27 12 -35 35 -40 27 -5 42 -26 19 -26 -5 0 -10 -7 -10 -15 0 -8
7 -15 15 -15 8 0 15 7 15 15 0 8 5 15 10 15 6 0 10 9 10 20 0 11 -4 20 -10 20
-5 0 -10 6 -10 14 0 8 -8 21 -19 28 -10 7 -22 32 -26 56 -4 26 -12 42 -21 42
-12 0 -15 8 -14 38 1 4 10 5 22 4 16 -3 20 0 16 16 -7 26 9 52 32 52 13 0 20
7 20 19 0 11 10 31 23 45 21 24 37 33 37 21z m1897 -84 c51 -1 61 -4 57 -16
-3 -8 -21 -17 -39 -21 -19 -3 -42 -17 -52 -30 -11 -15 -28 -24 -45 -24 -15 0
-31 -8 -37 -17 -9 -17 -11 -17 -28 0 -10 10 -13 17 -5 17 7 0 12 7 12 16 0 12
-6 15 -21 11 -14 -4 -34 3 -54 16 -27 18 -30 24 -19 35 18 16 34 15 34 -3 0
-8 7 -15 15 -15 8 0 15 -4 15 -10 0 -5 7 -10 15 -10 8 0 15 9 15 20 0 11 -7
20 -16 20 -8 0 -13 3 -11 8 3 4 27 6 54 5 26 0 76 -1 110 -2z m-1297 -16 c0
-11 11 -15 40 -15 28 0 40 -4 40 -14 0 -8 -5 -18 -11 -22 -6 -3 -8 -17 -5 -30
5 -19 2 -24 -14 -24 -22 0 -29 -35 -7 -43 6 -3 1 -6 -13 -6 -28 -1 -70 -40
-70 -64 0 -24 -11 -47 -22 -47 -14 0 -2 124 12 128 15 5 12 32 -4 32 -7 0 -19
6 -25 14 -10 12 -8 13 10 9 21 -6 22 -4 16 36 -5 37 -2 43 16 51 32 13 37 12
37 -5z m62 -224 c-3 -20 0 -23 16 -19 14 4 22 0 25 -14 5 -18 2 -19 -34 -13
-31 5 -39 4 -39 -8 0 -8 13 -17 29 -20 24 -5 28 -10 24 -27 -4 -16 -1 -20 20
-20 30 0 45 -17 23 -26 -20 -8 -21 -53 -2 -60 28 -11 5 -34 -35 -34 -59 0 -89
33 -89 99 0 28 5 51 10 51 6 0 10 7 10 15 0 8 -6 15 -14 15 -9 0 -13 10 -10
33 1 17 3 38 3 45 1 9 12 12 34 10 27 -3 32 -6 29 -27z m1601 -141 c9 -22 17
-44 17 -49 0 -5 4 -11 9 -13 4 -1 27 -42 49 -89 23 -47 48 -91 56 -98 8 -7 18
-26 21 -42 4 -16 17 -37 29 -46 28 -23 39 -50 22 -56 -10 -4 -12 1 -9 14 4 13
0 19 -11 19 -9 0 -16 -3 -16 -7 0 -5 -3 -18 -6 -30 -5 -17 0 -22 24 -28 31 -6
31 -6 12 -28 -11 -12 -26 -31 -34 -42 -14 -18 -15 -18 -16 -2 0 21 -30 23 -30
2 0 -8 5 -15 10 -15 19 0 10 -17 -16 -29 -19 -8 -25 -17 -21 -31 3 -13 0 -20
-9 -20 -8 0 -14 -10 -14 -24 0 -14 -4 -27 -9 -30 -5 -4 -7 3 -4 14 6 21 1 23
-35 14 -19 -6 -22 -11 -17 -33 4 -14 12 -29 18 -33 9 -6 9 -8 0 -8 -22 0 -43
12 -43 26 0 8 -9 14 -20 14 -11 0 -20 -7 -20 -15 0 -8 7 -15 15 -15 8 0 15 -6
15 -12 0 -7 3 -24 7 -37 4 -17 3 -22 -5 -17 -7 4 -12 16 -12 27 0 10 -7 19
-15 19 -22 0 -20 -56 3 -70 12 -8 13 -13 5 -16 -7 -3 -13 -11 -13 -18 0 -7
-15 -28 -33 -47 -19 -19 -36 -40 -38 -46 -2 -6 -14 -14 -26 -17 -17 -6 -23 -3
-23 8 0 9 9 16 20 16 11 0 20 7 20 15 0 8 -9 15 -20 15 -16 0 -20 7 -21 33 0
17 -1 56 -2 85 -1 28 2 52 7 52 4 0 6 9 3 20 -3 13 0 20 9 20 8 0 14 -10 14
-25 0 -18 5 -25 20 -25 32 0 24 50 -10 63 -12 4 -11 6 3 6 21 1 23 31 2 31 -8
0 -15 5 -15 11 0 6 -8 9 -17 7 -16 -4 -18 5 -16 101 2 165 0 153 26 145 12 -3
24 -11 25 -15 5 -13 30 -11 34 3 3 7 14 9 29 5 18 -5 24 -13 25 -37 1 -19 -4
-30 -12 -30 -8 0 -14 -4 -14 -9 0 -5 -9 -11 -20 -14 -11 -3 -20 -12 -20 -20 0
-10 -7 -13 -20 -10 -14 4 -20 0 -20 -11 0 -11 13 -18 39 -22 32 -5 42 -12 50
-34 8 -24 6 -29 -16 -39 -32 -14 -27 -45 8 -49 19 -2 28 3 37 23 6 14 16 25
22 25 5 0 10 7 10 15 0 8 -7 15 -15 15 -16 0 -18 7 -15 58 1 27 -2 32 -22 33
-17 1 -18 3 -5 6 9 2 17 9 17 14 0 5 7 9 16 9 12 0 14 7 9 30 -6 28 -5 30 17
25 12 -3 28 -2 34 2 14 10 27 103 14 103 -6 0 -10 5 -10 11 0 14 -30 38 -48
39 -24 0 -9 -45 16 -48 12 -2 22 -8 22 -13 0 -14 -27 -11 -44 6 -8 8 -19 15
-25 15 -12 0 -2 32 12 41 15 10 0 39 -19 39 -11 0 -15 -6 -11 -20 3 -11 2 -20
-3 -20 -4 0 -10 -9 -13 -20 -5 -20 -37 -29 -37 -10 0 6 7 10 15 10 8 0 15 7
15 15 0 9 -9 15 -23 15 -12 0 -34 13 -50 29 -29 31 -36 71 -13 71 8 0 25 19
38 41 19 34 88 97 108 99 3 0 13 -18 23 -40z m-300 -340 c-4 -16 0 -20 21 -20
18 0 26 5 27 18 1 30 28 -40 29 -76 0 -18 -7 -40 -15 -48 -18 -19 -20 -44 -2
-44 8 0 13 -20 15 -60 3 -56 2 -60 -22 -66 -24 -6 -38 -34 -17 -34 5 0 11 -10
14 -21 4 -17 3 -19 -6 -10 -19 19 -37 12 -37 -14 0 -20 5 -25 25 -25 18 0 25
-5 25 -20 0 -11 3 -20 8 -20 9 0 13 -73 3 -80 -4 -3 -14 -15 -23 -28 -13 -20
-17 -21 -28 -7 -8 10 -9 15 -1 15 6 0 11 7 11 15 0 8 -5 15 -12 15 -9 0 -9 3
0 12 16 16 15 68 0 70 -7 0 -25 2 -39 3 -35 3 -49 13 -49 35 0 11 -10 20 -25
24 -24 6 -36 26 -15 26 6 0 10 7 10 15 0 8 -7 15 -15 15 -8 0 -15 -4 -15 -10
0 -5 -4 -10 -10 -10 -5 0 -10 7 -10 15 0 7 -6 18 -14 22 -21 13 -36 48 -29 71
4 17 1 22 -13 22 -18 1 -18 1 -1 11 10 6 17 22 17 39 0 23 8 35 34 52 24 16
37 33 41 55 6 32 15 38 58 34 9 -1 17 4 17 13 0 10 9 16 24 16 19 0 23 -4 19
-20z m1868 -89 c1 -9 2 -25 3 -36 1 -20 36 -35 36 -16 0 6 4 11 9 11 5 0 7 -9
4 -20 -5 -18 -1 -21 28 -21 19 0 49 -1 67 -3 17 -2 43 -4 57 -5 39 -2 29 -21
-11 -21 -34 0 -35 -1 -29 -30 5 -24 3 -30 -10 -30 -12 0 -16 -7 -13 -27 2 -20
-2 -29 -14 -31 -20 -4 -35 35 -19 51 17 17 13 45 -6 51 -65 18 -83 18 -84 -1
0 -10 -3 -13 -6 -5 -3 7 -23 12 -49 12 -24 0 -44 4 -44 9 0 5 -13 11 -29 14
-30 6 -52 37 -26 37 8 0 15 6 15 14 0 16 26 46 41 46 5 0 9 -9 9 -20 0 -11 -4
-20 -10 -20 -16 0 -12 -30 5 -36 8 -3 22 1 30 10 9 9 21 16 26 16 5 0 9 7 9
15 0 8 -6 15 -14 15 -13 0 -26 20 -26 39 0 16 50 -2 51 -18z m-1291 -192 c0
-6 9 -9 20 -6 13 3 20 0 20 -9 0 -8 -7 -14 -15 -14 -8 0 -15 -7 -15 -15 0 -8
9 -15 20 -15 11 0 20 -4 20 -10 0 -5 -9 -10 -19 -10 -11 0 -26 -7 -35 -15 -17
-18 -36 -20 -36 -4 0 7 -10 9 -27 4 -34 -8 -32 -5 -39 -43 -6 -28 -4 -32 15
-32 12 0 21 6 21 15 0 8 7 15 15 15 11 0 12 -5 5 -26 -6 -14 -10 -29 -10 -34
0 -12 72 -23 79 -12 8 12 61 22 61 11 0 -14 27 -10 40 6 10 12 14 12 26 0 8
-7 14 -23 14 -34 0 -16 -6 -21 -25 -21 -16 0 -25 -6 -25 -15 0 -8 -4 -15 -8
-15 -5 0 -8 10 -8 22 1 14 -6 24 -18 26 -15 3 -18 0 -13 -17 3 -12 1 -21 -4
-21 -5 0 -9 7 -9 15 0 8 -7 15 -16 15 -12 0 -15 -6 -10 -25 5 -19 2 -25 -9
-25 -9 0 -31 -15 -50 -34 -34 -34 -71 -53 -82 -42 -3 3 3 9 13 13 40 14 45 48
9 57 -24 6 -36 26 -15 26 6 0 10 7 10 15 0 9 -9 15 -25 15 -16 0 -25 -6 -25
-15 0 -24 -19 -17 -26 10 -3 14 -12 25 -19 25 -16 0 -29 -35 -20 -52 4 -7 0
-5 -8 5 -8 10 -21 17 -29 16 -30 -4 -48 2 -48 16 0 8 9 15 20 15 10 0 28 10
40 22 11 12 20 16 20 10 0 -7 7 -12 15 -12 19 0 19 37 0 56 -23 24 1 44 40 33
42 -13 55 -11 55 6 0 8 -4 15 -10 15 -5 0 -10 5 -10 11 0 7 12 9 34 5 39 -8
66 1 66 20 0 9 -11 14 -27 14 l-28 1 28 17 c15 9 27 20 27 24 0 5 7 8 15 8 8
0 15 -5 15 -11z"/>
<path d="M910 3323 c-8 -3 -26 -17 -39 -29 -13 -13 -30 -24 -37 -24 -8 0 -14
-4 -14 -8 0 -5 -26 -22 -57 -37 -32 -16 -69 -37 -81 -47 -18 -13 -34 -16 -68
-11 -37 5 -44 3 -44 -11 0 -10 9 -16 25 -16 14 0 28 -7 31 -15 7 -17 34 -20
34 -4 0 8 13 9 40 5 32 -5 40 -3 40 9 0 8 4 15 9 15 21 0 41 -13 41 -26 0 -8
7 -14 15 -14 8 0 15 7 15 15 0 8 -4 15 -10 15 -5 0 -10 7 -10 15 0 8 -4 15
-10 15 -20 0 -9 21 18 33 15 6 36 20 46 29 11 10 29 20 40 23 47 13 96 39 96
50 0 19 -48 30 -80 18z"/>
<path d="M3860 6114 c0 -7 10 -20 21 -28 13 -9 19 -21 16 -30 -5 -13 -11 -14
-32 -4 -14 6 -25 15 -25 20 0 4 -7 8 -15 8 -15 0 -17 -4 -20 -55 -1 -16 -7
-31 -14 -33 -6 -2 -11 -12 -11 -22 0 -10 -9 -22 -20 -25 -23 -7 -27 -35 -5
-35 8 0 15 -7 15 -15 0 -17 4 -18 38 -9 13 4 22 14 21 23 -4 46 1 59 22 54 19
-5 21 -3 14 25 -6 27 -4 30 14 25 12 -3 21 -9 21 -14 0 -5 6 -9 13 -9 17 0 37
42 37 76 0 13 7 27 15 30 8 4 15 12 15 20 0 11 -15 14 -60 13 -42 -1 -60 -6
-60 -15z"/>
<path d="M4416 6104 c-3 -8 -3 -27 0 -41 7 -25 6 -25 -23 -10 -34 18 -113 12
-113 -9 0 -18 38 -28 56 -13 8 6 17 9 21 5 3 -3 1 -6 -5 -6 -7 0 -12 -7 -12
-15 0 -8 7 -15 15 -15 8 0 15 -5 15 -11 0 -6 9 -9 20 -6 18 4 20 2 14 -16 -4
-12 -11 -25 -16 -28 -15 -9 1 -49 19 -49 11 0 14 6 10 21 -3 12 0 28 6 35 43
48 46 58 22 68 -8 3 -15 10 -15 16 0 5 7 10 15 10 8 0 15 -4 15 -10 0 -5 7
-10 15 -10 8 0 15 4 15 9 0 23 -14 41 -31 41 -16 0 -18 5 -13 25 4 18 2 25 -9
25 -8 0 -18 -7 -21 -16z"/>
<path d="M3975 6044 c-18 -44 -19 -54 -2 -54 9 0 9 -2 -1 -9 -14 -8 -42 -57
-42 -72 0 -18 32 -8 37 11 l6 21 19 -21 c22 -24 48 -26 48 -5 0 8 -5 15 -12
15 -6 0 -8 3 -4 7 4 5 14 0 21 -10 9 -13 20 -17 34 -12 24 7 29 35 7 35 -8 0
-21 6 -28 13 -7 7 -21 16 -31 20 -10 4 -16 11 -13 16 9 13 46 1 46 -15 0 -8 7
-14 15 -14 8 0 15 7 15 15 0 8 5 15 10 15 6 0 10 7 10 15 0 8 -7 15 -15 15 -8
0 -15 5 -15 10 0 6 -7 10 -15 10 -8 0 -15 7 -15 15 0 10 -10 15 -30 15 -25 0
-32 -6 -45 -36z"/>
<path d="M3188 5958 c-3 -40 -5 -43 -35 -46 -21 -2 -33 1 -33 9 0 7 -8 9 -22
4 -13 -4 -52 -11 -88 -16 -36 -4 -80 -11 -97 -15 -22 -4 -33 -2 -33 5 0 6 -7
11 -15 11 -8 0 -15 -4 -15 -10 0 -5 -9 -10 -20 -10 -12 0 -20 -7 -20 -16 0
-12 -6 -15 -23 -10 -38 9 -67 -4 -67 -30 0 -29 -7 -28 104 -4 50 11 103 20
118 20 15 0 28 3 28 8 0 4 24 5 52 3 29 -2 47 -6 41 -8 -7 -3 -13 -11 -13 -19
0 -9 -11 -14 -30 -14 -22 0 -30 -5 -30 -18 0 -12 -13 -23 -35 -32 -37 -14 -46
-36 -20 -46 9 -4 25 4 40 20 13 14 29 26 35 26 5 0 10 5 10 10 0 6 9 10 20 10
11 0 20 6 20 14 0 14 67 46 95 46 8 0 15 5 15 11 0 8 5 7 15 -1 12 -10 21 -10
41 -1 14 6 36 11 49 11 20 0 25 -5 25 -25 0 -18 5 -25 20 -25 11 0 20 6 20 14
0 7 9 16 20 19 11 3 20 1 20 -4 0 -5 18 -9 40 -9 28 0 40 4 40 15 0 10 8 7 26
-10 33 -30 69 -34 61 -6 -3 14 0 17 14 14 36 -10 19 22 -21 40 -51 22 -88 22
-92 0 -3 -15 -4 -15 -21 1 -10 11 -26 16 -38 13 -11 -3 -34 -1 -51 5 -21 8
-32 8 -37 0 -4 -7 -12 -8 -21 -2 -8 6 -25 10 -37 10 -20 0 -23 5 -23 40 0 28
-4 40 -14 40 -10 0 -16 -14 -18 -42z"/>
<path d="M3620 5806 c0 -9 12 -19 28 -22 15 -4 29 -10 32 -13 9 -10 80 -41 96
-41 12 0 12 -2 2 -14 -9 -9 -20 -11 -36 -5 -13 5 -34 6 -48 3 -27 -7 -33 -36
-6 -33 40 4 44 -3 9 -16 -46 -16 -44 -14 -52 -48 -6 -20 -4 -27 8 -27 8 0 18
6 20 13 4 10 6 10 6 0 1 -19 31 -16 38 3 3 9 0 20 -8 26 -10 6 -4 7 19 3 25
-5 32 -3 32 9 0 9 6 16 14 16 8 0 17 11 20 25 6 24 26 36 26 15 0 -5 7 -10 16
-10 8 0 32 -11 52 -25 20 -14 42 -25 49 -25 24 0 13 25 -17 43 -16 10 -30 25
-30 33 0 12 -7 14 -30 9 -30 -6 -31 -6 -24 20 7 26 5 27 -25 23 -21 -3 -31 0
-31 9 0 7 -7 13 -15 13 -8 0 -15 -4 -15 -9 0 -5 -17 0 -37 10 -60 29 -93 34
-93 15z"/>
<path d="M574 5365 c4 -14 2 -25 -4 -25 -14 0 -12 -27 3 -33 7 -4 3 -8 -10
-12 -31 -10 -29 -31 3 -39 15 -4 32 -13 40 -20 13 -14 8 -56 -7 -56 -21 0 -7
-30 16 -36 14 -3 25 -12 25 -20 0 -8 7 -14 16 -14 13 0 15 6 9 27 -3 15 -11
31 -16 34 -6 3 -7 18 -3 32 4 17 2 27 -5 27 -6 0 -11 7 -11 15 0 8 -7 15 -15
15 -17 0 -21 35 -5 45 6 3 10 1 10 -4 0 -6 7 -11 15 -11 8 0 15 -9 15 -20 0
-21 8 -24 34 -14 18 7 22 34 5 34 -5 0 -7 5 -4 10 3 6 15 10 26 10 10 0 19 7
19 15 0 26 -66 14 -73 -14 -4 -15 -5 -15 -6 1 -1 18 -57 78 -73 78 -6 0 -8
-10 -4 -25z"/>
<path d="M890 5266 c0 -8 4 -16 9 -18 5 -1 12 -15 16 -29 5 -21 2 -27 -14 -32
-25 -6 -38 10 -22 26 20 20 12 37 -19 37 l-30 0 0 -75 c0 -59 3 -75 14 -75 8
0 18 5 22 11 5 8 38 10 104 7 l97 -5 -2 61 c-1 72 -8 86 -41 86 -24 0 -34 -23
-14 -35 22 -14 10 -35 -20 -35 -16 0 -30 5 -30 10 0 6 5 10 10 10 6 0 10 9 10
20 0 16 -7 20 -30 20 -20 0 -30 5 -30 15 0 8 -7 15 -15 15 -8 0 -15 -6 -15
-14z"/>
<path d="M5825 4278 c-32 -12 -45 -25 -45 -45 0 -19 20 -16 37 5 10 12 16 14
19 5 3 -7 12 -13 20 -13 8 0 14 6 15 13 0 6 4 2 9 -10 13 -31 1 -62 -26 -69
-13 -3 -24 -13 -24 -21 0 -12 7 -13 27 -8 15 3 30 10 33 14 9 13 40 21 40 11
0 -14 19 -12 35 4 22 22 30 66 12 66 -8 0 -17 6 -20 14 -3 8 -19 17 -36 21
-17 4 -33 11 -36 16 -8 11 -21 10 -60 -3z"/>
<path d="M3301 3047 c-6 -19 -9 -41 -5 -50 7 -20 34 -23 34 -4 0 7 15 13 35
14 29 1 35 -2 35 -18 0 -10 -4 -19 -10 -19 -5 0 -10 5 -10 10 0 6 -7 10 -15
10 -8 0 -15 -5 -15 -11 0 -14 25 -39 39 -39 6 0 11 -4 11 -10 0 -5 9 -10 20
-10 11 0 20 -4 20 -10 0 -5 7 -10 15 -10 10 0 15 10 15 31 0 30 1 31 35 25 28
-6 35 -4 35 9 0 8 -7 15 -15 15 -9 0 -18 7 -21 15 -7 18 -30 20 -37 3 -3 -7
-6 0 -6 15 -1 21 -6 28 -18 26 -37 -3 -53 1 -53 16 0 8 -7 15 -16 15 -11 0
-15 -6 -11 -20 3 -12 0 -20 -7 -20 -7 0 -12 10 -12 22 2 38 -30 34 -43 -5z"/>
<path d="M6130 2095 c0 -8 5 -15 10 -15 6 0 10 -6 10 -14 0 -8 -16 -16 -40
-20 -30 -5 -44 -13 -52 -31 -15 -33 -30 -32 -18 1 6 14 10 30 10 35 0 14 -19
11 -36 -5 -7 -8 -22 -12 -32 -9 -14 3 -21 -2 -25 -19 -10 -37 -8 -41 18 -34
14 4 25 2 25 -4 0 -5 -11 -10 -25 -10 -36 0 -31 -26 7 -34 21 -4 34 -2 40 6 6
10 8 10 8 0 0 -22 64 -11 68 12 3 15 0 18 -17 13 -26 -6 -26 -2 -1 25 11 12
20 16 20 10 0 -7 11 -12 25 -12 30 0 33 -20 4 -27 -17 -5 -19 -11 -13 -37 5
-25 4 -29 -7 -18 -18 17 -39 15 -39 -4 0 -9 9 -18 20 -21 11 -3 20 -14 20 -24
0 -11 5 -19 10 -19 19 0 10 -21 -15 -32 -14 -6 -25 -19 -25 -30 0 -10 -4 -18
-10 -18 -5 0 -10 -11 -10 -25 0 -14 5 -25 10 -25 6 0 10 -11 10 -25 0 -19 5
-25 21 -25 11 0 17 -4 14 -10 -3 -5 -17 -10 -30 -10 -13 0 -30 -6 -37 -13 -11
-11 -16 -12 -25 -1 -18 18 -27 64 -14 64 18 0 12 30 -6 31 -11 0 -13 3 -5 6 7
3 12 24 12 53 0 29 -5 50 -12 53 -7 3 -3 6 10 6 23 1 32 31 10 31 -9 0 -9 3 1
9 17 11 7 41 -13 41 -8 0 -21 -6 -28 -13 -7 -8 -20 -12 -30 -9 -12 3 -18 -1
-18 -12 0 -9 7 -16 15 -16 8 0 15 -4 15 -10 0 -5 -4 -10 -9 -10 -11 0 -13 -93
-2 -100 13 -8 17 -35 6 -39 -5 -1 -14 11 -19 28 -14 48 -32 38 -34 -19 -1 -45
2 -51 29 -67 16 -9 29 -20 29 -24 0 -4 3 -14 6 -23 5 -13 -1 -16 -25 -16 -21
0 -31 -5 -31 -15 0 -8 -7 -15 -15 -15 -8 0 -15 -7 -15 -15 0 -8 7 -15 15 -15
8 0 15 7 15 16 0 19 62 16 66 -4 1 -7 0 -8 -3 -2 -7 14 -22 13 -39 -4 -17 -17
-18 -36 -3 -36 6 0 16 -6 24 -13 11 -12 10 -16 -6 -28 -32 -23 -23 -39 24 -40
23 -1 34 -3 25 -6 -22 -5 -25 -53 -4 -53 8 0 17 6 19 13 4 9 6 9 6 -1 1 -7 12
-24 26 -38 14 -14 25 -32 25 -41 0 -11 8 -14 30 -11 16 2 31 0 33 -5 6 -18 45
4 51 28 6 22 9 23 32 15 37 -14 44 -13 45 13 0 15 2 17 6 7 3 -8 11 -18 17
-22 8 -5 7 -8 -1 -8 -7 0 -13 -7 -13 -15 0 -8 7 -15 15 -15 8 0 15 7 15 15 0
8 5 15 11 15 6 0 9 8 6 19 -3 14 0 17 14 14 27 -8 24 21 -3 35 -18 8 -19 11
-5 11 9 1 17 8 17 16 0 18 -26 20 -33 3 -7 -21 -25 3 -32 45 -6 31 -4 37 10
37 13 0 16 6 11 24 -5 19 -1 26 14 31 25 8 26 23 3 42 -10 8 -12 12 -5 8 19
-10 52 4 52 22 0 11 -6 14 -24 9 -30 -7 -45 12 -23 29 10 7 17 20 17 29 0 9 7
16 15 16 19 0 19 17 1 36 -19 18 -36 18 -36 -1 0 -8 -7 -15 -15 -15 -10 0 -15
-10 -15 -27 0 -36 -9 -48 -39 -56 -21 -5 -23 -3 -17 25 3 17 15 39 26 48 15
13 19 25 14 44 -4 19 -2 28 10 32 9 3 16 12 16 20 0 8 7 14 15 14 9 0 20 11
25 25 6 15 17 25 30 25 15 0 20 -7 20 -25 0 -14 -4 -25 -10 -25 -5 0 -10 -7
-10 -15 0 -8 5 -15 10 -15 6 0 10 -7 10 -15 0 -8 5 -15 10 -15 6 0 10 58 10
155 0 97 -4 155 -10 155 -5 0 -10 -4 -10 -9 0 -5 -9 -13 -20 -16 -11 -3 -20
-13 -20 -20 0 -9 -6 -12 -17 -8 -11 4 -12 8 -5 11 7 2 12 12 12 23 0 10 5 19
10 19 6 0 10 7 10 15 0 8 -4 15 -9 15 -21 0 -41 -13 -41 -26 0 -11 -4 -12 -19
-4 -30 15 -38 12 -49 -17 -6 -16 -11 -22 -11 -15 -1 10 -10 12 -33 8 -18 -3
-27 -3 -20 0 14 7 16 34 2 34 -5 0 -10 7 -10 15 0 8 -7 15 -15 15 -8 0 -15 -7
-15 -15z"/>
<path d="M5130 2060 c0 -5 -11 -10 -25 -10 -13 0 -36 -6 -51 -12 -22 -10 -28
-10 -32 0 -5 17 -32 15 -32 -3 0 -8 5 -15 10 -15 20 0 9 -18 -15 -24 -14 -4
-25 -13 -25 -22 0 -11 -4 -12 -19 -4 -27 14 -41 13 -41 -5 0 -8 5 -15 10 -15
6 0 10 -7 10 -16 0 -18 23 -44 39 -44 6 0 11 9 11 20 0 12 7 20 16 20 11 0 15
6 12 18 -7 26 36 58 72 53 69 -8 83 -31 20 -31 -29 0 -40 -4 -40 -15 0 -10 10
-15 30 -15 17 0 30 -4 30 -10 0 -5 7 -10 15 -10 8 0 15 5 15 10 0 6 7 10 16
10 9 0 23 8 30 18 8 10 13 12 14 5 0 -7 17 -20 38 -28 32 -14 35 -18 20 -26
-10 -6 -18 -21 -18 -35 0 -16 -8 -28 -25 -36 -14 -6 -25 -14 -25 -19 0 -4 -20
-13 -45 -20 -25 -7 -45 -19 -45 -25 0 -10 70 -34 99 -34 18 0 12 28 -6 34 -10
3 1 3 25 1 23 -3 42 -1 42 4 0 5 11 12 25 15 14 4 25 10 25 15 0 5 9 7 20 4
15 -4 20 0 20 16 0 11 -4 21 -9 21 -5 0 -11 9 -14 20 -3 13 0 20 9 20 8 0 14
7 14 16 0 12 -6 15 -26 10 -20 -5 -27 -3 -31 12 -2 10 -23 27 -45 36 l-40 18
21 19 c23 21 28 49 10 49 -7 0 -17 -7 -23 -15 -10 -13 -15 -12 -38 10 -28 26
-48 32 -48 15z"/>
<path d="M4987 1521 c-7 -33 1 -71 15 -71 5 0 16 -6 23 -14 12 -11 8 -14 -28
-19 -23 -3 -43 -11 -45 -16 -6 -19 -22 -12 -22 9 0 11 -7 20 -15 20 -8 0 -15
-9 -15 -19 0 -10 -7 -21 -15 -25 -8 -3 -15 -1 -15 4 0 6 -7 10 -15 10 -16 0
-19 -18 -6 -38 11 -18 61 -5 61 17 1 9 7 3 14 -14 7 -16 11 -38 8 -47 -3 -11
1 -18 11 -18 9 0 20 17 28 45 12 40 29 61 29 35 0 -5 7 -10 15 -10 8 0 15 5
15 10 0 6 8 10 18 9 10 0 12 -3 5 -6 -7 -2 -13 -11 -13 -19 0 -8 -7 -14 -15
-14 -8 0 -15 -7 -15 -15 0 -9 9 -15 24 -15 17 0 26 7 30 24 4 16 18 29 41 37
19 7 35 19 35 26 0 20 -30 28 -41 12 -7 -12 -10 -12 -21 0 -10 11 -11 14 0 18
7 3 19 12 28 20 14 14 16 14 21 -6 3 -11 11 -21 18 -21 7 0 16 -7 19 -16 9
-22 8 -24 -9 -24 -8 0 -15 -7 -15 -15 0 -18 26 -20 33 -2 4 10 6 10 6 0 1 -13
31 -19 31 -6 0 22 -26 73 -39 76 -10 3 -7 5 7 6 12 0 22 -3 22 -9 0 -11 39
-14 41 -2 8 38 5 77 -6 89 -16 15 -35 17 -35 3 0 -5 -11 -12 -25 -16 -14 -3
-25 -10 -25 -15 0 -5 -11 -7 -25 -3 -15 4 -25 2 -25 -5 0 -6 -13 -11 -28 -11
-23 0 -31 7 -42 35 -17 42 -35 45 -43 6z"/>
<path d="M4272 1514 c3 -29 15 -38 63 -50 27 -7 28 -8 8 -11 -30 -6 -29 -24 2
-57 13 -14 20 -26 15 -26 -6 0 -10 -12 -10 -26 0 -20 4 -25 18 -22 18 5 42
-13 42 -32 0 -5 7 -10 15 -10 18 0 20 26 3 33 -8 3 -6 6 5 6 9 1 17 7 17 15 0
8 7 16 15 20 18 6 20 33 3 38 -7 3 -9 11 -3 24 7 17 8 17 12 2 3 -10 12 -18
21 -19 11 0 12 -2 5 -6 -7 -2 -13 -11 -13 -19 0 -26 42 -13 53 16 4 12 6 11 6
-2 1 -25 31 -23 31 2 0 11 -6 20 -14 20 -8 0 -16 7 -20 15 -3 9 0 15 9 15 8 0
15 7 15 15 0 8 -9 15 -20 15 -11 0 -20 5 -20 10 0 6 -6 10 -14 10 -9 0 -12 7
-9 20 4 14 0 20 -11 20 -9 0 -16 -8 -17 -17 0 -11 -3 -13 -6 -5 -2 6 -11 12
-19 12 -21 0 -18 -47 4 -54 9 -3 1 -3 -20 0 -20 2 -38 0 -40 -5 -1 -5 -9 -3
-16 5 -7 8 -8 14 -2 14 5 0 10 9 10 21 0 21 -14 22 -63 3 -10 -3 -18 2 -22 15
-10 32 -37 27 -33 -5z"/>
<path d="M5790 1490 c0 -5 -14 -10 -31 -10 -41 0 -36 -32 6 -40 28 -6 29 -7 8
-14 -30 -10 -31 -41 -2 -33 22 6 49 -12 49 -32 0 -6 7 -11 15 -11 9 0 15 9 15
25 0 14 5 25 10 25 19 0 11 -48 -10 -55 -20 -6 -29 -35 -11 -35 22 0 41 13 42
29 0 10 2 11 6 4 2 -7 14 -13 26 -13 29 0 57 -19 40 -27 -18 -7 -16 -33 2 -33
8 0 15 6 15 14 0 8 9 18 20 21 11 3 20 13 20 22 0 10 -6 14 -20 10 -11 -3 -20
-1 -20 3 0 5 -16 12 -35 16 -24 4 -35 12 -34 23 0 10 2 11 6 4 2 -7 11 -13 19
-13 8 0 14 6 14 13 0 22 -18 40 -34 34 -10 -4 -16 -1 -16 8 0 8 7 15 15 15 8
0 15 6 15 14 0 9 -18 16 -50 20 -27 4 -50 11 -50 16 0 6 -7 10 -15 10 -8 0
-15 -4 -15 -10z"/>
<path d="M6000 1285 c0 -8 7 -15 15 -15 8 0 15 -4 15 -10 0 -5 7 -10 15 -10 8
0 15 -6 15 -14 0 -8 7 -22 16 -30 14 -15 14 -16 -5 -16 -28 0 -27 -27 2 -33
19 -4 18 -4 -5 -6 -19 -1 -28 4 -28 14 0 8 -7 15 -15 15 -8 0 -15 -7 -15 -15
0 -8 -4 -15 -10 -15 -5 0 -10 -6 -10 -13 0 -9 16 -14 50 -15 28 0 50 3 50 8 0
4 8 6 18 3 14 -3 21 5 31 36 7 24 18 41 26 41 8 0 15 9 15 20 0 25 -27 27 -33
3 -4 -17 -5 -17 -6 0 -1 13 -10 17 -41 17 -29 0 -40 4 -40 15 0 8 -7 15 -15
15 -8 0 -15 5 -15 10 0 6 -7 10 -15 10 -8 0 -15 -7 -15 -15z"/>
</g>
</svg>
